G04 (created by PCBNEW (2013-07-07 BZR 4022)-stable) date 03/03/2017 11:17:35 AM*
%MOIN*%
G04 Gerber Fmt 3.4, Leading zero omitted, Abs format*
%FSLAX34Y34*%
G01*
G70*
G90*
G04 APERTURE LIST*
%ADD10C,0.00590551*%
%ADD11C,0.011811*%
%ADD12C,0.005*%
%ADD13C,0.012*%
%ADD14C,0.0125*%
%ADD15C,0.0107*%
%ADD16C,0.01*%
G04 APERTURE END LIST*
G54D10*
G54D11*
X60070Y-33861D02*
X59873Y-33579D01*
X59732Y-33861D02*
X59732Y-33270D01*
X59957Y-33270D01*
X60014Y-33298D01*
X60042Y-33326D01*
X60070Y-33383D01*
X60070Y-33467D01*
X60042Y-33523D01*
X60014Y-33551D01*
X59957Y-33579D01*
X59732Y-33579D01*
X60632Y-33861D02*
X60295Y-33861D01*
X60464Y-33861D02*
X60464Y-33270D01*
X60407Y-33354D01*
X60351Y-33411D01*
X60295Y-33439D01*
X60885Y-33804D02*
X60913Y-33832D01*
X60885Y-33861D01*
X60857Y-33832D01*
X60885Y-33804D01*
X60885Y-33861D01*
X61279Y-33270D02*
X61335Y-33270D01*
X61392Y-33298D01*
X61420Y-33326D01*
X61448Y-33383D01*
X61476Y-33495D01*
X61476Y-33636D01*
X61448Y-33748D01*
X61420Y-33804D01*
X61392Y-33832D01*
X61335Y-33861D01*
X61279Y-33861D01*
X61223Y-33832D01*
X61195Y-33804D01*
X61167Y-33748D01*
X61138Y-33636D01*
X61138Y-33495D01*
X61167Y-33383D01*
X61195Y-33326D01*
X61223Y-33298D01*
X61279Y-33270D01*
X73433Y-44865D02*
X73771Y-44865D01*
X73602Y-45455D02*
X73602Y-44865D01*
X73967Y-45455D02*
X73967Y-44865D01*
X74221Y-45455D02*
X74221Y-45146D01*
X74192Y-45089D01*
X74136Y-45061D01*
X74052Y-45061D01*
X73996Y-45089D01*
X73967Y-45118D01*
X74727Y-45427D02*
X74670Y-45455D01*
X74558Y-45455D01*
X74502Y-45427D01*
X74474Y-45371D01*
X74474Y-45146D01*
X74502Y-45089D01*
X74558Y-45061D01*
X74670Y-45061D01*
X74727Y-45089D01*
X74755Y-45146D01*
X74755Y-45202D01*
X74474Y-45258D01*
X75008Y-45455D02*
X75008Y-45061D01*
X75008Y-45174D02*
X75036Y-45118D01*
X75064Y-45089D01*
X75120Y-45061D01*
X75177Y-45061D01*
X75374Y-45455D02*
X75374Y-45061D01*
X75374Y-45118D02*
X75402Y-45089D01*
X75458Y-45061D01*
X75542Y-45061D01*
X75598Y-45089D01*
X75627Y-45146D01*
X75627Y-45455D01*
X75627Y-45146D02*
X75655Y-45089D01*
X75711Y-45061D01*
X75795Y-45061D01*
X75852Y-45089D01*
X75880Y-45146D01*
X75880Y-45455D01*
X76245Y-45455D02*
X76189Y-45427D01*
X76161Y-45399D01*
X76133Y-45343D01*
X76133Y-45174D01*
X76161Y-45118D01*
X76189Y-45089D01*
X76245Y-45061D01*
X76330Y-45061D01*
X76386Y-45089D01*
X76414Y-45118D01*
X76442Y-45174D01*
X76442Y-45343D01*
X76414Y-45399D01*
X76386Y-45427D01*
X76330Y-45455D01*
X76245Y-45455D01*
X76948Y-45427D02*
X76892Y-45455D01*
X76780Y-45455D01*
X76723Y-45427D01*
X76695Y-45399D01*
X76667Y-45343D01*
X76667Y-45174D01*
X76695Y-45118D01*
X76723Y-45089D01*
X76780Y-45061D01*
X76892Y-45061D01*
X76948Y-45089D01*
X77286Y-45455D02*
X77230Y-45427D01*
X77201Y-45399D01*
X77173Y-45343D01*
X77173Y-45174D01*
X77201Y-45118D01*
X77230Y-45089D01*
X77286Y-45061D01*
X77370Y-45061D01*
X77426Y-45089D01*
X77455Y-45118D01*
X77483Y-45174D01*
X77483Y-45343D01*
X77455Y-45399D01*
X77426Y-45427D01*
X77370Y-45455D01*
X77286Y-45455D01*
X77989Y-45061D02*
X77989Y-45455D01*
X77736Y-45061D02*
X77736Y-45371D01*
X77764Y-45427D01*
X77820Y-45455D01*
X77904Y-45455D01*
X77961Y-45427D01*
X77989Y-45399D01*
X78270Y-45061D02*
X78270Y-45652D01*
X78270Y-45089D02*
X78326Y-45061D01*
X78439Y-45061D01*
X78495Y-45089D01*
X78523Y-45118D01*
X78551Y-45174D01*
X78551Y-45343D01*
X78523Y-45399D01*
X78495Y-45427D01*
X78439Y-45455D01*
X78326Y-45455D01*
X78270Y-45427D01*
X78889Y-45455D02*
X78832Y-45427D01*
X78804Y-45371D01*
X78804Y-44865D01*
X79339Y-45427D02*
X79282Y-45455D01*
X79170Y-45455D01*
X79114Y-45427D01*
X79086Y-45371D01*
X79086Y-45146D01*
X79114Y-45089D01*
X79170Y-45061D01*
X79282Y-45061D01*
X79339Y-45089D01*
X79367Y-45146D01*
X79367Y-45202D01*
X79086Y-45258D01*
X80267Y-45146D02*
X80351Y-45174D01*
X80379Y-45202D01*
X80407Y-45258D01*
X80407Y-45343D01*
X80379Y-45399D01*
X80351Y-45427D01*
X80295Y-45455D01*
X80070Y-45455D01*
X80070Y-44865D01*
X80267Y-44865D01*
X80323Y-44893D01*
X80351Y-44921D01*
X80379Y-44977D01*
X80379Y-45033D01*
X80351Y-45089D01*
X80323Y-45118D01*
X80267Y-45146D01*
X80070Y-45146D01*
X80745Y-45455D02*
X80688Y-45427D01*
X80660Y-45399D01*
X80632Y-45343D01*
X80632Y-45174D01*
X80660Y-45118D01*
X80688Y-45089D01*
X80745Y-45061D01*
X80829Y-45061D01*
X80885Y-45089D01*
X80913Y-45118D01*
X80942Y-45174D01*
X80942Y-45343D01*
X80913Y-45399D01*
X80885Y-45427D01*
X80829Y-45455D01*
X80745Y-45455D01*
X81448Y-45455D02*
X81448Y-45146D01*
X81420Y-45089D01*
X81363Y-45061D01*
X81251Y-45061D01*
X81195Y-45089D01*
X81448Y-45427D02*
X81392Y-45455D01*
X81251Y-45455D01*
X81195Y-45427D01*
X81167Y-45371D01*
X81167Y-45314D01*
X81195Y-45258D01*
X81251Y-45230D01*
X81392Y-45230D01*
X81448Y-45202D01*
X81729Y-45455D02*
X81729Y-45061D01*
X81729Y-45174D02*
X81757Y-45118D01*
X81785Y-45089D01*
X81841Y-45061D01*
X81898Y-45061D01*
X82348Y-45455D02*
X82348Y-44865D01*
X82348Y-45427D02*
X82291Y-45455D01*
X82179Y-45455D01*
X82123Y-45427D01*
X82095Y-45399D01*
X82066Y-45343D01*
X82066Y-45174D01*
X82095Y-45118D01*
X82123Y-45089D01*
X82179Y-45061D01*
X82291Y-45061D01*
X82348Y-45089D01*
X74460Y-45809D02*
X74797Y-45809D01*
X74628Y-46400D02*
X74628Y-45809D01*
X74994Y-46400D02*
X74994Y-46006D01*
X74994Y-45809D02*
X74966Y-45838D01*
X74994Y-45866D01*
X75022Y-45838D01*
X74994Y-45809D01*
X74994Y-45866D01*
X75275Y-46400D02*
X75275Y-46006D01*
X75275Y-46062D02*
X75303Y-46034D01*
X75359Y-46006D01*
X75444Y-46006D01*
X75500Y-46034D01*
X75528Y-46091D01*
X75528Y-46400D01*
X75528Y-46091D02*
X75556Y-46034D01*
X75613Y-46006D01*
X75697Y-46006D01*
X75753Y-46034D01*
X75781Y-46091D01*
X75781Y-46400D01*
X76147Y-46400D02*
X76091Y-46372D01*
X76062Y-46344D01*
X76034Y-46287D01*
X76034Y-46119D01*
X76062Y-46062D01*
X76091Y-46034D01*
X76147Y-46006D01*
X76231Y-46006D01*
X76287Y-46034D01*
X76316Y-46062D01*
X76344Y-46119D01*
X76344Y-46287D01*
X76316Y-46344D01*
X76287Y-46372D01*
X76231Y-46400D01*
X76147Y-46400D01*
X76512Y-46006D02*
X76737Y-46006D01*
X76597Y-45809D02*
X76597Y-46316D01*
X76625Y-46372D01*
X76681Y-46400D01*
X76737Y-46400D01*
X76934Y-46400D02*
X76934Y-45809D01*
X77187Y-46400D02*
X77187Y-46091D01*
X77159Y-46034D01*
X77103Y-46006D01*
X77019Y-46006D01*
X76962Y-46034D01*
X76934Y-46062D01*
X77412Y-46006D02*
X77553Y-46400D01*
X77694Y-46006D02*
X77553Y-46400D01*
X77497Y-46541D01*
X77469Y-46569D01*
X77412Y-46597D01*
X78368Y-46400D02*
X78368Y-45809D01*
X78565Y-46231D01*
X78762Y-45809D01*
X78762Y-46400D01*
X79296Y-46372D02*
X79240Y-46400D01*
X79128Y-46400D01*
X79071Y-46372D01*
X79043Y-46344D01*
X79015Y-46287D01*
X79015Y-46119D01*
X79043Y-46062D01*
X79071Y-46034D01*
X79128Y-46006D01*
X79240Y-46006D01*
X79296Y-46034D01*
X79831Y-46400D02*
X79550Y-46400D01*
X79550Y-45809D01*
X80253Y-46372D02*
X80196Y-46400D01*
X80084Y-46400D01*
X80028Y-46372D01*
X80000Y-46316D01*
X80000Y-46091D01*
X80028Y-46034D01*
X80084Y-46006D01*
X80196Y-46006D01*
X80253Y-46034D01*
X80281Y-46091D01*
X80281Y-46147D01*
X80000Y-46203D01*
X80787Y-46400D02*
X80787Y-46091D01*
X80759Y-46034D01*
X80703Y-46006D01*
X80590Y-46006D01*
X80534Y-46034D01*
X80787Y-46372D02*
X80731Y-46400D01*
X80590Y-46400D01*
X80534Y-46372D01*
X80506Y-46316D01*
X80506Y-46259D01*
X80534Y-46203D01*
X80590Y-46175D01*
X80731Y-46175D01*
X80787Y-46147D01*
X81068Y-46006D02*
X81068Y-46400D01*
X81068Y-46062D02*
X81096Y-46034D01*
X81152Y-46006D01*
X81237Y-46006D01*
X81293Y-46034D01*
X81321Y-46091D01*
X81321Y-46400D01*
X74910Y-47345D02*
X74910Y-46754D01*
X75106Y-47176D01*
X75303Y-46754D01*
X75303Y-47345D01*
X75838Y-47345D02*
X75838Y-47035D01*
X75809Y-46979D01*
X75753Y-46951D01*
X75641Y-46951D01*
X75584Y-46979D01*
X75838Y-47317D02*
X75781Y-47345D01*
X75641Y-47345D01*
X75584Y-47317D01*
X75556Y-47260D01*
X75556Y-47204D01*
X75584Y-47148D01*
X75641Y-47120D01*
X75781Y-47120D01*
X75838Y-47092D01*
X76119Y-47345D02*
X76119Y-46951D01*
X76119Y-47064D02*
X76147Y-47007D01*
X76175Y-46979D01*
X76231Y-46951D01*
X76287Y-46951D01*
X76737Y-47317D02*
X76681Y-47345D01*
X76569Y-47345D01*
X76512Y-47317D01*
X76484Y-47289D01*
X76456Y-47232D01*
X76456Y-47064D01*
X76484Y-47007D01*
X76512Y-46979D01*
X76569Y-46951D01*
X76681Y-46951D01*
X76737Y-46979D01*
X76991Y-47345D02*
X76991Y-46754D01*
X77244Y-47345D02*
X77244Y-47035D01*
X77215Y-46979D01*
X77159Y-46951D01*
X77075Y-46951D01*
X77019Y-46979D01*
X76991Y-47007D01*
X77919Y-46754D02*
X78284Y-46754D01*
X78087Y-46979D01*
X78172Y-46979D01*
X78228Y-47007D01*
X78256Y-47035D01*
X78284Y-47092D01*
X78284Y-47232D01*
X78256Y-47289D01*
X78228Y-47317D01*
X78172Y-47345D01*
X78003Y-47345D01*
X77947Y-47317D01*
X77919Y-47289D01*
X78959Y-46811D02*
X78987Y-46782D01*
X79043Y-46754D01*
X79184Y-46754D01*
X79240Y-46782D01*
X79268Y-46811D01*
X79296Y-46867D01*
X79296Y-46923D01*
X79268Y-47007D01*
X78931Y-47345D01*
X79296Y-47345D01*
X79662Y-46754D02*
X79718Y-46754D01*
X79775Y-46782D01*
X79803Y-46811D01*
X79831Y-46867D01*
X79859Y-46979D01*
X79859Y-47120D01*
X79831Y-47232D01*
X79803Y-47289D01*
X79775Y-47317D01*
X79718Y-47345D01*
X79662Y-47345D01*
X79606Y-47317D01*
X79578Y-47289D01*
X79550Y-47232D01*
X79521Y-47120D01*
X79521Y-46979D01*
X79550Y-46867D01*
X79578Y-46811D01*
X79606Y-46782D01*
X79662Y-46754D01*
X80421Y-47345D02*
X80084Y-47345D01*
X80253Y-47345D02*
X80253Y-46754D01*
X80196Y-46839D01*
X80140Y-46895D01*
X80084Y-46923D01*
X80618Y-46754D02*
X81012Y-46754D01*
X80759Y-47345D01*
G54D12*
X87722Y-51000D02*
X87722Y-49000D01*
X87722Y-49000D02*
X89522Y-49000D01*
X89522Y-49000D02*
X89522Y-51000D01*
X89522Y-51000D02*
X87722Y-51000D01*
X88322Y-51000D02*
X88322Y-50800D01*
X88322Y-50800D02*
X88822Y-50800D01*
X88822Y-50800D02*
X88822Y-51000D01*
X87722Y-65094D02*
X87722Y-63094D01*
X87722Y-63094D02*
X89522Y-63094D01*
X89522Y-63094D02*
X89522Y-65094D01*
X89522Y-65094D02*
X87722Y-65094D01*
X88322Y-65094D02*
X88322Y-64894D01*
X88322Y-64894D02*
X88822Y-64894D01*
X88822Y-64894D02*
X88822Y-65094D01*
X68222Y-40417D02*
X68222Y-42417D01*
X68222Y-42417D02*
X66422Y-42417D01*
X66422Y-42417D02*
X66422Y-40417D01*
X66422Y-40417D02*
X68222Y-40417D01*
X67622Y-40417D02*
X67622Y-40617D01*
X67622Y-40617D02*
X67122Y-40617D01*
X67122Y-40617D02*
X67122Y-40417D01*
X87682Y-61964D02*
X87682Y-59964D01*
X87682Y-59964D02*
X89482Y-59964D01*
X89482Y-59964D02*
X89482Y-61964D01*
X89482Y-61964D02*
X87682Y-61964D01*
X88282Y-61964D02*
X88282Y-61764D01*
X88282Y-61764D02*
X88782Y-61764D01*
X88782Y-61764D02*
X88782Y-61964D01*
X68203Y-37740D02*
X68203Y-39740D01*
X68203Y-39740D02*
X66403Y-39740D01*
X66403Y-39740D02*
X66403Y-37740D01*
X66403Y-37740D02*
X68203Y-37740D01*
X67603Y-37740D02*
X67603Y-37940D01*
X67603Y-37940D02*
X67103Y-37940D01*
X67103Y-37940D02*
X67103Y-37740D01*
X87682Y-59031D02*
X87682Y-57031D01*
X87682Y-57031D02*
X89482Y-57031D01*
X89482Y-57031D02*
X89482Y-59031D01*
X89482Y-59031D02*
X87682Y-59031D01*
X88282Y-59031D02*
X88282Y-58831D01*
X88282Y-58831D02*
X88782Y-58831D01*
X88782Y-58831D02*
X88782Y-59031D01*
X87761Y-67988D02*
X87761Y-65988D01*
X87761Y-65988D02*
X89561Y-65988D01*
X89561Y-65988D02*
X89561Y-67988D01*
X89561Y-67988D02*
X87761Y-67988D01*
X88361Y-67988D02*
X88361Y-67788D01*
X88361Y-67788D02*
X88861Y-67788D01*
X88861Y-67788D02*
X88861Y-67988D01*
X68203Y-35023D02*
X68203Y-37023D01*
X68203Y-37023D02*
X66403Y-37023D01*
X66403Y-37023D02*
X66403Y-35023D01*
X66403Y-35023D02*
X68203Y-35023D01*
X67603Y-35023D02*
X67603Y-35223D01*
X67603Y-35223D02*
X67103Y-35223D01*
X67103Y-35223D02*
X67103Y-35023D01*
X87781Y-56118D02*
X87781Y-54118D01*
X87781Y-54118D02*
X89581Y-54118D01*
X89581Y-54118D02*
X89581Y-56118D01*
X89581Y-56118D02*
X87781Y-56118D01*
X88381Y-56118D02*
X88381Y-55918D01*
X88381Y-55918D02*
X88881Y-55918D01*
X88881Y-55918D02*
X88881Y-56118D01*
X68222Y-43133D02*
X68222Y-45133D01*
X68222Y-45133D02*
X66422Y-45133D01*
X66422Y-45133D02*
X66422Y-43133D01*
X66422Y-43133D02*
X68222Y-43133D01*
X67622Y-43133D02*
X67622Y-43333D01*
X67622Y-43333D02*
X67122Y-43333D01*
X67122Y-43333D02*
X67122Y-43133D01*
X87741Y-53539D02*
X87741Y-51539D01*
X87741Y-51539D02*
X89541Y-51539D01*
X89541Y-51539D02*
X89541Y-53539D01*
X89541Y-53539D02*
X87741Y-53539D01*
X88341Y-53539D02*
X88341Y-53339D01*
X88341Y-53339D02*
X88841Y-53339D01*
X88841Y-53339D02*
X88841Y-53539D01*
X68301Y-54767D02*
X68301Y-56767D01*
X68301Y-56767D02*
X66501Y-56767D01*
X66501Y-56767D02*
X66501Y-54767D01*
X66501Y-54767D02*
X68301Y-54767D01*
X67701Y-54767D02*
X67701Y-54967D01*
X67701Y-54967D02*
X67201Y-54967D01*
X67201Y-54967D02*
X67201Y-54767D01*
X68281Y-66696D02*
X68281Y-68696D01*
X68281Y-68696D02*
X66481Y-68696D01*
X66481Y-68696D02*
X66481Y-66696D01*
X66481Y-66696D02*
X68281Y-66696D01*
X67681Y-66696D02*
X67681Y-66896D01*
X67681Y-66896D02*
X67181Y-66896D01*
X67181Y-66896D02*
X67181Y-66696D01*
X68281Y-63842D02*
X68281Y-65842D01*
X68281Y-65842D02*
X66481Y-65842D01*
X66481Y-65842D02*
X66481Y-63842D01*
X66481Y-63842D02*
X68281Y-63842D01*
X67681Y-63842D02*
X67681Y-64042D01*
X67681Y-64042D02*
X67181Y-64042D01*
X67181Y-64042D02*
X67181Y-63842D01*
X87741Y-48224D02*
X87741Y-46224D01*
X87741Y-46224D02*
X89541Y-46224D01*
X89541Y-46224D02*
X89541Y-48224D01*
X89541Y-48224D02*
X87741Y-48224D01*
X88341Y-48224D02*
X88341Y-48024D01*
X88341Y-48024D02*
X88841Y-48024D01*
X88841Y-48024D02*
X88841Y-48224D01*
X87761Y-37181D02*
X87761Y-35181D01*
X87761Y-35181D02*
X89561Y-35181D01*
X89561Y-35181D02*
X89561Y-37181D01*
X89561Y-37181D02*
X87761Y-37181D01*
X88361Y-37181D02*
X88361Y-36981D01*
X88361Y-36981D02*
X88861Y-36981D01*
X88861Y-36981D02*
X88861Y-37181D01*
X68242Y-51893D02*
X68242Y-53893D01*
X68242Y-53893D02*
X66442Y-53893D01*
X66442Y-53893D02*
X66442Y-51893D01*
X66442Y-51893D02*
X68242Y-51893D01*
X67642Y-51893D02*
X67642Y-52093D01*
X67642Y-52093D02*
X67142Y-52093D01*
X67142Y-52093D02*
X67142Y-51893D01*
X87741Y-40153D02*
X87741Y-38153D01*
X87741Y-38153D02*
X89541Y-38153D01*
X89541Y-38153D02*
X89541Y-40153D01*
X89541Y-40153D02*
X87741Y-40153D01*
X88341Y-40153D02*
X88341Y-39953D01*
X88341Y-39953D02*
X88841Y-39953D01*
X88841Y-39953D02*
X88841Y-40153D01*
X68281Y-57740D02*
X68281Y-59740D01*
X68281Y-59740D02*
X66481Y-59740D01*
X66481Y-59740D02*
X66481Y-57740D01*
X66481Y-57740D02*
X68281Y-57740D01*
X67681Y-57740D02*
X67681Y-57940D01*
X67681Y-57940D02*
X67181Y-57940D01*
X67181Y-57940D02*
X67181Y-57740D01*
X68222Y-48744D02*
X68222Y-50744D01*
X68222Y-50744D02*
X66422Y-50744D01*
X66422Y-50744D02*
X66422Y-48744D01*
X66422Y-48744D02*
X68222Y-48744D01*
X67622Y-48744D02*
X67622Y-48944D01*
X67622Y-48944D02*
X67122Y-48944D01*
X67122Y-48944D02*
X67122Y-48744D01*
X87741Y-42830D02*
X87741Y-40830D01*
X87741Y-40830D02*
X89541Y-40830D01*
X89541Y-40830D02*
X89541Y-42830D01*
X89541Y-42830D02*
X87741Y-42830D01*
X88341Y-42830D02*
X88341Y-42630D01*
X88341Y-42630D02*
X88841Y-42630D01*
X88841Y-42630D02*
X88841Y-42830D01*
X68242Y-60653D02*
X68242Y-62653D01*
X68242Y-62653D02*
X66442Y-62653D01*
X66442Y-62653D02*
X66442Y-60653D01*
X66442Y-60653D02*
X68242Y-60653D01*
X67642Y-60653D02*
X67642Y-60853D01*
X67642Y-60853D02*
X67142Y-60853D01*
X67142Y-60853D02*
X67142Y-60653D01*
X87741Y-45468D02*
X87741Y-43468D01*
X87741Y-43468D02*
X89541Y-43468D01*
X89541Y-43468D02*
X89541Y-45468D01*
X89541Y-45468D02*
X87741Y-45468D01*
X88341Y-45468D02*
X88341Y-45268D01*
X88341Y-45268D02*
X88841Y-45268D01*
X88841Y-45268D02*
X88841Y-45468D01*
X68203Y-45948D02*
X68203Y-47948D01*
X68203Y-47948D02*
X66403Y-47948D01*
X66403Y-47948D02*
X66403Y-45948D01*
X66403Y-45948D02*
X68203Y-45948D01*
X67603Y-45948D02*
X67603Y-46148D01*
X67603Y-46148D02*
X67103Y-46148D01*
X67103Y-46148D02*
X67103Y-45948D01*
X64387Y-45574D02*
X63487Y-45574D01*
X63487Y-45574D02*
X63487Y-46224D01*
X64387Y-46924D02*
X64387Y-47574D01*
X64387Y-47574D02*
X63487Y-47574D01*
X63487Y-47574D02*
X63487Y-46924D01*
X64387Y-46224D02*
X64387Y-45574D01*
X64367Y-49511D02*
X63467Y-49511D01*
X63467Y-49511D02*
X63467Y-50161D01*
X64367Y-50861D02*
X64367Y-51511D01*
X64367Y-51511D02*
X63467Y-51511D01*
X63467Y-51511D02*
X63467Y-50861D01*
X64367Y-50161D02*
X64367Y-49511D01*
X64446Y-54196D02*
X63546Y-54196D01*
X63546Y-54196D02*
X63546Y-54846D01*
X64446Y-55546D02*
X64446Y-56196D01*
X64446Y-56196D02*
X63546Y-56196D01*
X63546Y-56196D02*
X63546Y-55546D01*
X64446Y-54846D02*
X64446Y-54196D01*
X74288Y-36834D02*
X73388Y-36834D01*
X73388Y-36834D02*
X73388Y-37484D01*
X74288Y-38184D02*
X74288Y-38834D01*
X74288Y-38834D02*
X73388Y-38834D01*
X73388Y-38834D02*
X73388Y-38184D01*
X74288Y-37484D02*
X74288Y-36834D01*
X62851Y-47503D02*
X61951Y-47503D01*
X61951Y-47503D02*
X61951Y-48153D01*
X62851Y-48853D02*
X62851Y-49503D01*
X62851Y-49503D02*
X61951Y-49503D01*
X61951Y-49503D02*
X61951Y-48853D01*
X62851Y-48153D02*
X62851Y-47503D01*
X62910Y-43665D02*
X62010Y-43665D01*
X62010Y-43665D02*
X62010Y-44315D01*
X62910Y-45015D02*
X62910Y-45665D01*
X62910Y-45665D02*
X62010Y-45665D01*
X62010Y-45665D02*
X62010Y-45015D01*
X62910Y-44315D02*
X62910Y-43665D01*
X64387Y-41578D02*
X63487Y-41578D01*
X63487Y-41578D02*
X63487Y-42228D01*
X64387Y-42928D02*
X64387Y-43578D01*
X64387Y-43578D02*
X63487Y-43578D01*
X63487Y-43578D02*
X63487Y-42928D01*
X64387Y-42228D02*
X64387Y-41578D01*
X62950Y-39452D02*
X62050Y-39452D01*
X62050Y-39452D02*
X62050Y-40102D01*
X62950Y-40802D02*
X62950Y-41452D01*
X62950Y-41452D02*
X62050Y-41452D01*
X62050Y-41452D02*
X62050Y-40802D01*
X62950Y-40102D02*
X62950Y-39452D01*
X64387Y-62405D02*
X63487Y-62405D01*
X63487Y-62405D02*
X63487Y-63055D01*
X64387Y-63755D02*
X64387Y-64405D01*
X64387Y-64405D02*
X63487Y-64405D01*
X63487Y-64405D02*
X63487Y-63755D01*
X64387Y-63055D02*
X64387Y-62405D01*
X63087Y-60259D02*
X62187Y-60259D01*
X62187Y-60259D02*
X62187Y-60909D01*
X63087Y-61609D02*
X63087Y-62259D01*
X63087Y-62259D02*
X62187Y-62259D01*
X62187Y-62259D02*
X62187Y-61609D01*
X63087Y-60909D02*
X63087Y-60259D01*
X64446Y-58271D02*
X63546Y-58271D01*
X63546Y-58271D02*
X63546Y-58921D01*
X64446Y-59621D02*
X64446Y-60271D01*
X64446Y-60271D02*
X63546Y-60271D01*
X63546Y-60271D02*
X63546Y-59621D01*
X64446Y-58921D02*
X64446Y-58271D01*
X63127Y-56204D02*
X62227Y-56204D01*
X62227Y-56204D02*
X62227Y-56854D01*
X63127Y-57554D02*
X63127Y-58204D01*
X63127Y-58204D02*
X62227Y-58204D01*
X62227Y-58204D02*
X62227Y-57554D01*
X63127Y-56854D02*
X63127Y-56204D01*
X92798Y-57417D02*
X93698Y-57417D01*
X93698Y-57417D02*
X93698Y-56767D01*
X92798Y-56067D02*
X92798Y-55417D01*
X92798Y-55417D02*
X93698Y-55417D01*
X93698Y-55417D02*
X93698Y-56067D01*
X92798Y-56767D02*
X92798Y-57417D01*
X92364Y-41944D02*
X93264Y-41944D01*
X93264Y-41944D02*
X93264Y-41294D01*
X92364Y-40594D02*
X92364Y-39944D01*
X92364Y-39944D02*
X93264Y-39944D01*
X93264Y-39944D02*
X93264Y-40594D01*
X92364Y-41294D02*
X92364Y-41944D01*
X93742Y-44188D02*
X94642Y-44188D01*
X94642Y-44188D02*
X94642Y-43538D01*
X93742Y-42838D02*
X93742Y-42188D01*
X93742Y-42188D02*
X94642Y-42188D01*
X94642Y-42188D02*
X94642Y-42838D01*
X93742Y-43538D02*
X93742Y-44188D01*
X92345Y-46255D02*
X93245Y-46255D01*
X93245Y-46255D02*
X93245Y-45605D01*
X92345Y-44905D02*
X92345Y-44255D01*
X92345Y-44255D02*
X93245Y-44255D01*
X93245Y-44255D02*
X93245Y-44905D01*
X92345Y-45605D02*
X92345Y-46255D01*
X93801Y-48322D02*
X94701Y-48322D01*
X94701Y-48322D02*
X94701Y-47672D01*
X93801Y-46972D02*
X93801Y-46322D01*
X93801Y-46322D02*
X94701Y-46322D01*
X94701Y-46322D02*
X94701Y-46972D01*
X93801Y-47672D02*
X93801Y-48322D01*
X92364Y-50409D02*
X93264Y-50409D01*
X93264Y-50409D02*
X93264Y-49759D01*
X92364Y-49059D02*
X92364Y-48409D01*
X92364Y-48409D02*
X93264Y-48409D01*
X93264Y-48409D02*
X93264Y-49059D01*
X92364Y-49759D02*
X92364Y-50409D01*
X93979Y-52377D02*
X94879Y-52377D01*
X94879Y-52377D02*
X94879Y-51727D01*
X93979Y-51027D02*
X93979Y-50377D01*
X93979Y-50377D02*
X94879Y-50377D01*
X94879Y-50377D02*
X94879Y-51027D01*
X93979Y-51727D02*
X93979Y-52377D01*
X94018Y-55409D02*
X94918Y-55409D01*
X94918Y-55409D02*
X94918Y-54759D01*
X94018Y-54059D02*
X94018Y-53409D01*
X94018Y-53409D02*
X94918Y-53409D01*
X94918Y-53409D02*
X94918Y-54059D01*
X94018Y-54759D02*
X94018Y-55409D01*
X94038Y-59425D02*
X94938Y-59425D01*
X94938Y-59425D02*
X94938Y-58775D01*
X94038Y-58075D02*
X94038Y-57425D01*
X94038Y-57425D02*
X94938Y-57425D01*
X94938Y-57425D02*
X94938Y-58075D01*
X94038Y-58775D02*
X94038Y-59425D01*
X92758Y-61433D02*
X93658Y-61433D01*
X93658Y-61433D02*
X93658Y-60783D01*
X92758Y-60083D02*
X92758Y-59433D01*
X92758Y-59433D02*
X93658Y-59433D01*
X93658Y-59433D02*
X93658Y-60083D01*
X92758Y-60783D02*
X92758Y-61433D01*
X94057Y-63480D02*
X94957Y-63480D01*
X94957Y-63480D02*
X94957Y-62830D01*
X94057Y-62130D02*
X94057Y-61480D01*
X94057Y-61480D02*
X94957Y-61480D01*
X94957Y-61480D02*
X94957Y-62130D01*
X94057Y-62830D02*
X94057Y-63480D01*
X92719Y-65507D02*
X93619Y-65507D01*
X93619Y-65507D02*
X93619Y-64857D01*
X92719Y-64157D02*
X92719Y-63507D01*
X92719Y-63507D02*
X93619Y-63507D01*
X93619Y-63507D02*
X93619Y-64157D01*
X92719Y-64857D02*
X92719Y-65507D01*
X73973Y-62129D02*
X73073Y-62129D01*
X73073Y-62129D02*
X73073Y-62779D01*
X73973Y-63479D02*
X73973Y-64129D01*
X73973Y-64129D02*
X73073Y-64129D01*
X73073Y-64129D02*
X73073Y-63479D01*
X73973Y-62779D02*
X73973Y-62129D01*
X63107Y-52129D02*
X62207Y-52129D01*
X62207Y-52129D02*
X62207Y-52779D01*
X63107Y-53479D02*
X63107Y-54129D01*
X63107Y-54129D02*
X62207Y-54129D01*
X62207Y-54129D02*
X62207Y-53479D01*
X63107Y-52779D02*
X63107Y-52129D01*
G54D13*
X84854Y-70952D02*
X84854Y-69952D01*
X84854Y-69952D02*
X90854Y-69952D01*
X90854Y-69952D02*
X90854Y-70952D01*
X90854Y-70952D02*
X84854Y-70952D01*
X85854Y-70952D02*
X85854Y-69952D01*
X74283Y-34870D02*
X74283Y-33870D01*
X74283Y-33870D02*
X80283Y-33870D01*
X80283Y-33870D02*
X80283Y-34870D01*
X80283Y-34870D02*
X74283Y-34870D01*
X75283Y-34870D02*
X75283Y-33870D01*
X95877Y-40200D02*
X95877Y-40200D01*
X95877Y-40200D02*
X96877Y-40200D01*
X96877Y-40200D02*
X96877Y-50200D01*
X95877Y-50200D02*
X95877Y-40200D01*
X95877Y-41200D02*
X96877Y-41200D01*
X96877Y-50200D02*
X96877Y-51950D01*
X96877Y-51950D02*
X96877Y-52200D01*
X96877Y-52200D02*
X95877Y-52200D01*
X95877Y-52200D02*
X95877Y-50200D01*
X61307Y-64838D02*
X61307Y-64838D01*
X61307Y-64838D02*
X60307Y-64838D01*
X60307Y-64838D02*
X60307Y-54838D01*
X61307Y-54838D02*
X61307Y-64838D01*
X61307Y-63838D02*
X60307Y-63838D01*
X60307Y-54838D02*
X60307Y-53088D01*
X60307Y-53088D02*
X60307Y-52838D01*
X60307Y-52838D02*
X61307Y-52838D01*
X61307Y-52838D02*
X61307Y-54838D01*
X61287Y-51295D02*
X61287Y-51295D01*
X61287Y-51295D02*
X60287Y-51295D01*
X60287Y-51295D02*
X60287Y-41295D01*
X61287Y-41295D02*
X61287Y-51295D01*
X61287Y-50295D02*
X60287Y-50295D01*
X60287Y-41295D02*
X60287Y-39545D01*
X60287Y-39545D02*
X60287Y-39295D01*
X60287Y-39295D02*
X61287Y-39295D01*
X61287Y-39295D02*
X61287Y-41295D01*
X71244Y-70952D02*
X71244Y-70952D01*
X71244Y-70952D02*
X71244Y-69952D01*
X71244Y-69952D02*
X81244Y-69952D01*
X81244Y-70952D02*
X71244Y-70952D01*
X72244Y-70952D02*
X72244Y-69952D01*
X81244Y-69952D02*
X82994Y-69952D01*
X82994Y-69952D02*
X83244Y-69952D01*
X83244Y-69952D02*
X83244Y-70952D01*
X83244Y-70952D02*
X81244Y-70952D01*
X95858Y-53960D02*
X95858Y-53960D01*
X95858Y-53960D02*
X96858Y-53960D01*
X96858Y-53960D02*
X96858Y-63960D01*
X95858Y-63960D02*
X95858Y-53960D01*
X95858Y-54960D02*
X96858Y-54960D01*
X96858Y-63960D02*
X96858Y-65710D01*
X96858Y-65710D02*
X96858Y-65960D01*
X96858Y-65960D02*
X95858Y-65960D01*
X95858Y-65960D02*
X95858Y-63960D01*
G54D10*
X76437Y-61838D02*
X76417Y-67543D01*
X76417Y-67543D02*
X78877Y-67559D01*
X78877Y-67559D02*
X78862Y-61830D01*
X78862Y-61830D02*
X78862Y-61814D01*
X76425Y-61846D02*
X78866Y-61846D01*
X76417Y-36543D02*
X76397Y-42248D01*
X76397Y-42248D02*
X78858Y-42263D01*
X78858Y-42263D02*
X78842Y-36535D01*
X78842Y-36535D02*
X78842Y-36519D01*
X76405Y-36551D02*
X78846Y-36551D01*
G54D13*
X85212Y-33318D02*
X85212Y-34318D01*
X85212Y-34318D02*
X83212Y-34318D01*
X83212Y-34318D02*
X83212Y-33318D01*
X83212Y-33318D02*
X85212Y-33318D01*
X72043Y-33299D02*
X72043Y-34299D01*
X72043Y-34299D02*
X70043Y-34299D01*
X70043Y-34299D02*
X70043Y-33299D01*
X70043Y-33299D02*
X72043Y-33299D01*
G54D14*
X64362Y-70933D02*
X65362Y-70933D01*
X64362Y-69933D02*
X65362Y-69933D01*
G54D13*
X64362Y-70933D02*
X64362Y-69933D01*
X65362Y-69933D02*
X65362Y-70933D01*
G54D14*
X91724Y-70933D02*
X92724Y-70933D01*
X91724Y-69933D02*
X92724Y-69933D01*
G54D13*
X91724Y-70933D02*
X91724Y-69933D01*
X92724Y-69933D02*
X92724Y-70933D01*
G54D14*
X64362Y-33905D02*
X65362Y-33905D01*
X64362Y-32905D02*
X65362Y-32905D01*
G54D13*
X64362Y-33905D02*
X64362Y-32905D01*
X65362Y-32905D02*
X65362Y-33905D01*
G54D14*
X91724Y-33925D02*
X92724Y-33925D01*
X91724Y-32925D02*
X92724Y-32925D01*
G54D13*
X91724Y-33925D02*
X91724Y-32925D01*
X92724Y-32925D02*
X92724Y-33925D01*
G54D14*
X78653Y-51602D02*
X79653Y-51602D01*
X78653Y-50602D02*
X79653Y-50602D01*
G54D13*
X78653Y-51602D02*
X78653Y-50602D01*
X79653Y-50602D02*
X79653Y-51602D01*
G54D14*
X65641Y-51818D02*
X66641Y-51818D01*
X65641Y-50818D02*
X66641Y-50818D01*
G54D13*
X65641Y-51818D02*
X65641Y-50818D01*
X66641Y-50818D02*
X66641Y-51818D01*
G54D14*
X88417Y-49102D02*
X89417Y-49102D01*
X88417Y-48102D02*
X89417Y-48102D01*
G54D13*
X88417Y-49102D02*
X88417Y-48102D01*
X89417Y-48102D02*
X89417Y-49102D01*
G54D12*
X87854Y-50304D02*
X88218Y-50304D01*
X88261Y-50285D01*
X88282Y-50266D01*
X88304Y-50228D01*
X88304Y-50152D01*
X88282Y-50114D01*
X88261Y-50095D01*
X88218Y-50076D01*
X87854Y-50076D01*
X88304Y-49676D02*
X88304Y-49904D01*
X88304Y-49790D02*
X87854Y-49790D01*
X87918Y-49828D01*
X87961Y-49866D01*
X87982Y-49904D01*
X89283Y-51447D02*
X88883Y-51447D01*
X89169Y-51314D01*
X88883Y-51180D01*
X89283Y-51180D01*
X89169Y-51009D02*
X89169Y-50819D01*
X89283Y-51047D02*
X88883Y-50914D01*
X89283Y-50780D01*
X88883Y-50685D02*
X89283Y-50419D01*
X88883Y-50419D02*
X89283Y-50685D01*
X88883Y-50304D02*
X88883Y-50057D01*
X89036Y-50190D01*
X89036Y-50133D01*
X89055Y-50095D01*
X89074Y-50076D01*
X89112Y-50057D01*
X89207Y-50057D01*
X89245Y-50076D01*
X89264Y-50095D01*
X89283Y-50133D01*
X89283Y-50247D01*
X89264Y-50285D01*
X89245Y-50304D01*
X89283Y-49676D02*
X89283Y-49904D01*
X89283Y-49790D02*
X88883Y-49790D01*
X88941Y-49828D01*
X88979Y-49866D01*
X88998Y-49904D01*
X89055Y-49447D02*
X89036Y-49485D01*
X89017Y-49504D01*
X88979Y-49523D01*
X88960Y-49523D01*
X88922Y-49504D01*
X88902Y-49485D01*
X88883Y-49447D01*
X88883Y-49371D01*
X88902Y-49333D01*
X88922Y-49314D01*
X88960Y-49295D01*
X88979Y-49295D01*
X89017Y-49314D01*
X89036Y-49333D01*
X89055Y-49371D01*
X89055Y-49447D01*
X89074Y-49485D01*
X89093Y-49504D01*
X89131Y-49523D01*
X89207Y-49523D01*
X89245Y-49504D01*
X89264Y-49485D01*
X89283Y-49447D01*
X89283Y-49371D01*
X89264Y-49333D01*
X89245Y-49314D01*
X89207Y-49295D01*
X89131Y-49295D01*
X89093Y-49314D01*
X89074Y-49333D01*
X89055Y-49371D01*
X88883Y-48933D02*
X88883Y-49123D01*
X89074Y-49142D01*
X89055Y-49123D01*
X89036Y-49085D01*
X89036Y-48990D01*
X89055Y-48952D01*
X89074Y-48933D01*
X89112Y-48914D01*
X89207Y-48914D01*
X89245Y-48933D01*
X89264Y-48952D01*
X89283Y-48990D01*
X89283Y-49085D01*
X89264Y-49123D01*
X89245Y-49142D01*
X88883Y-48552D02*
X88883Y-48742D01*
X89074Y-48761D01*
X89055Y-48742D01*
X89036Y-48704D01*
X89036Y-48609D01*
X89055Y-48571D01*
X89074Y-48552D01*
X89112Y-48533D01*
X89207Y-48533D01*
X89245Y-48552D01*
X89264Y-48571D01*
X89283Y-48609D01*
X89283Y-48704D01*
X89264Y-48742D01*
X89245Y-48761D01*
X87854Y-64399D02*
X88218Y-64399D01*
X88261Y-64380D01*
X88282Y-64361D01*
X88304Y-64323D01*
X88304Y-64246D01*
X88282Y-64208D01*
X88261Y-64189D01*
X88218Y-64170D01*
X87854Y-64170D01*
X88047Y-63923D02*
X88025Y-63961D01*
X88004Y-63980D01*
X87961Y-63999D01*
X87939Y-63999D01*
X87897Y-63980D01*
X87875Y-63961D01*
X87854Y-63923D01*
X87854Y-63846D01*
X87875Y-63808D01*
X87897Y-63789D01*
X87939Y-63770D01*
X87961Y-63770D01*
X88004Y-63789D01*
X88025Y-63808D01*
X88047Y-63846D01*
X88047Y-63923D01*
X88068Y-63961D01*
X88089Y-63980D01*
X88132Y-63999D01*
X88218Y-63999D01*
X88261Y-63980D01*
X88282Y-63961D01*
X88304Y-63923D01*
X88304Y-63846D01*
X88282Y-63808D01*
X88261Y-63789D01*
X88218Y-63770D01*
X88132Y-63770D01*
X88089Y-63789D01*
X88068Y-63808D01*
X88047Y-63846D01*
X89283Y-65542D02*
X88883Y-65542D01*
X89169Y-65408D01*
X88883Y-65275D01*
X89283Y-65275D01*
X89169Y-65104D02*
X89169Y-64913D01*
X89283Y-65142D02*
X88883Y-65008D01*
X89283Y-64875D01*
X88883Y-64780D02*
X89283Y-64513D01*
X88883Y-64513D02*
X89283Y-64780D01*
X88883Y-64399D02*
X88883Y-64151D01*
X89036Y-64284D01*
X89036Y-64227D01*
X89055Y-64189D01*
X89074Y-64170D01*
X89112Y-64151D01*
X89207Y-64151D01*
X89245Y-64170D01*
X89264Y-64189D01*
X89283Y-64227D01*
X89283Y-64342D01*
X89264Y-64380D01*
X89245Y-64399D01*
X89283Y-63770D02*
X89283Y-63999D01*
X89283Y-63884D02*
X88883Y-63884D01*
X88941Y-63923D01*
X88979Y-63961D01*
X88998Y-63999D01*
X89055Y-63542D02*
X89036Y-63580D01*
X89017Y-63599D01*
X88979Y-63618D01*
X88960Y-63618D01*
X88922Y-63599D01*
X88902Y-63580D01*
X88883Y-63542D01*
X88883Y-63465D01*
X88902Y-63427D01*
X88922Y-63408D01*
X88960Y-63389D01*
X88979Y-63389D01*
X89017Y-63408D01*
X89036Y-63427D01*
X89055Y-63465D01*
X89055Y-63542D01*
X89074Y-63580D01*
X89093Y-63599D01*
X89131Y-63618D01*
X89207Y-63618D01*
X89245Y-63599D01*
X89264Y-63580D01*
X89283Y-63542D01*
X89283Y-63465D01*
X89264Y-63427D01*
X89245Y-63408D01*
X89207Y-63389D01*
X89131Y-63389D01*
X89093Y-63408D01*
X89074Y-63427D01*
X89055Y-63465D01*
X88883Y-63027D02*
X88883Y-63218D01*
X89074Y-63237D01*
X89055Y-63218D01*
X89036Y-63180D01*
X89036Y-63084D01*
X89055Y-63046D01*
X89074Y-63027D01*
X89112Y-63008D01*
X89207Y-63008D01*
X89245Y-63027D01*
X89264Y-63046D01*
X89283Y-63084D01*
X89283Y-63180D01*
X89264Y-63218D01*
X89245Y-63237D01*
X88883Y-62646D02*
X88883Y-62837D01*
X89074Y-62856D01*
X89055Y-62837D01*
X89036Y-62799D01*
X89036Y-62704D01*
X89055Y-62665D01*
X89074Y-62646D01*
X89112Y-62627D01*
X89207Y-62627D01*
X89245Y-62646D01*
X89264Y-62665D01*
X89283Y-62704D01*
X89283Y-62799D01*
X89264Y-62837D01*
X89245Y-62856D01*
X67554Y-41912D02*
X67919Y-41912D01*
X67962Y-41893D01*
X67983Y-41874D01*
X68004Y-41836D01*
X68004Y-41760D01*
X67983Y-41722D01*
X67962Y-41703D01*
X67919Y-41683D01*
X67554Y-41683D01*
X68004Y-41283D02*
X68004Y-41512D01*
X68004Y-41398D02*
X67554Y-41398D01*
X67619Y-41436D01*
X67662Y-41474D01*
X67683Y-41512D01*
X67554Y-40941D02*
X67554Y-41017D01*
X67576Y-41055D01*
X67597Y-41074D01*
X67662Y-41112D01*
X67747Y-41131D01*
X67919Y-41131D01*
X67962Y-41112D01*
X67983Y-41093D01*
X68004Y-41055D01*
X68004Y-40979D01*
X67983Y-40941D01*
X67962Y-40922D01*
X67919Y-40903D01*
X67812Y-40903D01*
X67769Y-40922D01*
X67747Y-40941D01*
X67726Y-40979D01*
X67726Y-41055D01*
X67747Y-41093D01*
X67769Y-41112D01*
X67812Y-41131D01*
X66984Y-42864D02*
X66584Y-42864D01*
X66870Y-42731D01*
X66584Y-42598D01*
X66984Y-42598D01*
X66870Y-42426D02*
X66870Y-42236D01*
X66984Y-42464D02*
X66584Y-42331D01*
X66984Y-42198D01*
X66584Y-42103D02*
X66984Y-41836D01*
X66584Y-41836D02*
X66984Y-42103D01*
X66584Y-41722D02*
X66584Y-41474D01*
X66737Y-41607D01*
X66737Y-41550D01*
X66756Y-41512D01*
X66775Y-41493D01*
X66813Y-41474D01*
X66908Y-41474D01*
X66946Y-41493D01*
X66965Y-41512D01*
X66984Y-41550D01*
X66984Y-41664D01*
X66965Y-41703D01*
X66946Y-41722D01*
X66984Y-41093D02*
X66984Y-41322D01*
X66984Y-41207D02*
X66584Y-41207D01*
X66641Y-41245D01*
X66679Y-41283D01*
X66699Y-41322D01*
X66756Y-40864D02*
X66737Y-40903D01*
X66718Y-40922D01*
X66679Y-40941D01*
X66660Y-40941D01*
X66622Y-40922D01*
X66603Y-40903D01*
X66584Y-40864D01*
X66584Y-40788D01*
X66603Y-40750D01*
X66622Y-40731D01*
X66660Y-40712D01*
X66679Y-40712D01*
X66718Y-40731D01*
X66737Y-40750D01*
X66756Y-40788D01*
X66756Y-40864D01*
X66775Y-40903D01*
X66794Y-40922D01*
X66832Y-40941D01*
X66908Y-40941D01*
X66946Y-40922D01*
X66965Y-40903D01*
X66984Y-40864D01*
X66984Y-40788D01*
X66965Y-40750D01*
X66946Y-40731D01*
X66908Y-40712D01*
X66832Y-40712D01*
X66794Y-40731D01*
X66775Y-40750D01*
X66756Y-40788D01*
X66584Y-40350D02*
X66584Y-40541D01*
X66775Y-40560D01*
X66756Y-40541D01*
X66737Y-40503D01*
X66737Y-40407D01*
X66756Y-40369D01*
X66775Y-40350D01*
X66813Y-40331D01*
X66908Y-40331D01*
X66946Y-40350D01*
X66965Y-40369D01*
X66984Y-40407D01*
X66984Y-40503D01*
X66965Y-40541D01*
X66946Y-40560D01*
X66584Y-39969D02*
X66584Y-40160D01*
X66775Y-40179D01*
X66756Y-40160D01*
X66737Y-40122D01*
X66737Y-40026D01*
X66756Y-39988D01*
X66775Y-39969D01*
X66813Y-39950D01*
X66908Y-39950D01*
X66946Y-39969D01*
X66965Y-39988D01*
X66984Y-40026D01*
X66984Y-40122D01*
X66965Y-40160D01*
X66946Y-40179D01*
X87814Y-61269D02*
X88179Y-61269D01*
X88221Y-61250D01*
X88243Y-61231D01*
X88264Y-61193D01*
X88264Y-61116D01*
X88243Y-61078D01*
X88221Y-61059D01*
X88179Y-61040D01*
X87814Y-61040D01*
X88264Y-60831D02*
X88264Y-60755D01*
X88243Y-60716D01*
X88221Y-60697D01*
X88157Y-60659D01*
X88071Y-60640D01*
X87900Y-60640D01*
X87857Y-60659D01*
X87836Y-60678D01*
X87814Y-60716D01*
X87814Y-60793D01*
X87836Y-60831D01*
X87857Y-60850D01*
X87900Y-60869D01*
X88007Y-60869D01*
X88050Y-60850D01*
X88071Y-60831D01*
X88093Y-60793D01*
X88093Y-60716D01*
X88071Y-60678D01*
X88050Y-60659D01*
X88007Y-60640D01*
X89244Y-62412D02*
X88844Y-62412D01*
X89130Y-62278D01*
X88844Y-62145D01*
X89244Y-62145D01*
X89130Y-61974D02*
X89130Y-61783D01*
X89244Y-62012D02*
X88844Y-61878D01*
X89244Y-61745D01*
X88844Y-61650D02*
X89244Y-61383D01*
X88844Y-61383D02*
X89244Y-61650D01*
X88844Y-61269D02*
X88844Y-61021D01*
X88996Y-61155D01*
X88996Y-61097D01*
X89016Y-61059D01*
X89035Y-61040D01*
X89073Y-61021D01*
X89168Y-61021D01*
X89206Y-61040D01*
X89225Y-61059D01*
X89244Y-61097D01*
X89244Y-61212D01*
X89225Y-61250D01*
X89206Y-61269D01*
X89244Y-60640D02*
X89244Y-60869D01*
X89244Y-60755D02*
X88844Y-60755D01*
X88901Y-60793D01*
X88939Y-60831D01*
X88958Y-60869D01*
X89016Y-60412D02*
X88996Y-60450D01*
X88977Y-60469D01*
X88939Y-60488D01*
X88920Y-60488D01*
X88882Y-60469D01*
X88863Y-60450D01*
X88844Y-60412D01*
X88844Y-60335D01*
X88863Y-60297D01*
X88882Y-60278D01*
X88920Y-60259D01*
X88939Y-60259D01*
X88977Y-60278D01*
X88996Y-60297D01*
X89016Y-60335D01*
X89016Y-60412D01*
X89035Y-60450D01*
X89054Y-60469D01*
X89092Y-60488D01*
X89168Y-60488D01*
X89206Y-60469D01*
X89225Y-60450D01*
X89244Y-60412D01*
X89244Y-60335D01*
X89225Y-60297D01*
X89206Y-60278D01*
X89168Y-60259D01*
X89092Y-60259D01*
X89054Y-60278D01*
X89035Y-60297D01*
X89016Y-60335D01*
X88844Y-59897D02*
X88844Y-60088D01*
X89035Y-60107D01*
X89016Y-60088D01*
X88996Y-60050D01*
X88996Y-59955D01*
X89016Y-59916D01*
X89035Y-59897D01*
X89073Y-59878D01*
X89168Y-59878D01*
X89206Y-59897D01*
X89225Y-59916D01*
X89244Y-59955D01*
X89244Y-60050D01*
X89225Y-60088D01*
X89206Y-60107D01*
X88844Y-59516D02*
X88844Y-59707D01*
X89035Y-59726D01*
X89016Y-59707D01*
X88996Y-59669D01*
X88996Y-59574D01*
X89016Y-59535D01*
X89035Y-59516D01*
X89073Y-59497D01*
X89168Y-59497D01*
X89206Y-59516D01*
X89225Y-59535D01*
X89244Y-59574D01*
X89244Y-59669D01*
X89225Y-59707D01*
X89206Y-59726D01*
X67535Y-39235D02*
X67899Y-39235D01*
X67942Y-39216D01*
X67963Y-39197D01*
X67985Y-39159D01*
X67985Y-39083D01*
X67963Y-39044D01*
X67942Y-39025D01*
X67899Y-39006D01*
X67535Y-39006D01*
X67985Y-38606D02*
X67985Y-38835D01*
X67985Y-38721D02*
X67535Y-38721D01*
X67599Y-38759D01*
X67642Y-38797D01*
X67663Y-38835D01*
X67535Y-38244D02*
X67535Y-38435D01*
X67749Y-38454D01*
X67728Y-38435D01*
X67706Y-38397D01*
X67706Y-38302D01*
X67728Y-38263D01*
X67749Y-38244D01*
X67792Y-38225D01*
X67899Y-38225D01*
X67942Y-38244D01*
X67963Y-38263D01*
X67985Y-38302D01*
X67985Y-38397D01*
X67963Y-38435D01*
X67942Y-38454D01*
X66965Y-40187D02*
X66565Y-40187D01*
X66850Y-40054D01*
X66565Y-39921D01*
X66965Y-39921D01*
X66850Y-39749D02*
X66850Y-39559D01*
X66965Y-39787D02*
X66565Y-39654D01*
X66965Y-39521D01*
X66565Y-39425D02*
X66965Y-39159D01*
X66565Y-39159D02*
X66965Y-39425D01*
X66565Y-39044D02*
X66565Y-38797D01*
X66717Y-38930D01*
X66717Y-38873D01*
X66736Y-38835D01*
X66755Y-38816D01*
X66793Y-38797D01*
X66888Y-38797D01*
X66926Y-38816D01*
X66946Y-38835D01*
X66965Y-38873D01*
X66965Y-38987D01*
X66946Y-39025D01*
X66926Y-39044D01*
X66965Y-38416D02*
X66965Y-38644D01*
X66965Y-38530D02*
X66565Y-38530D01*
X66622Y-38568D01*
X66660Y-38606D01*
X66679Y-38644D01*
X66736Y-38187D02*
X66717Y-38225D01*
X66698Y-38244D01*
X66660Y-38263D01*
X66641Y-38263D01*
X66603Y-38244D01*
X66584Y-38225D01*
X66565Y-38187D01*
X66565Y-38111D01*
X66584Y-38073D01*
X66603Y-38054D01*
X66641Y-38035D01*
X66660Y-38035D01*
X66698Y-38054D01*
X66717Y-38073D01*
X66736Y-38111D01*
X66736Y-38187D01*
X66755Y-38225D01*
X66774Y-38244D01*
X66812Y-38263D01*
X66888Y-38263D01*
X66926Y-38244D01*
X66946Y-38225D01*
X66965Y-38187D01*
X66965Y-38111D01*
X66946Y-38073D01*
X66926Y-38054D01*
X66888Y-38035D01*
X66812Y-38035D01*
X66774Y-38054D01*
X66755Y-38073D01*
X66736Y-38111D01*
X66565Y-37673D02*
X66565Y-37863D01*
X66755Y-37883D01*
X66736Y-37863D01*
X66717Y-37825D01*
X66717Y-37730D01*
X66736Y-37692D01*
X66755Y-37673D01*
X66793Y-37654D01*
X66888Y-37654D01*
X66926Y-37673D01*
X66946Y-37692D01*
X66965Y-37730D01*
X66965Y-37825D01*
X66946Y-37863D01*
X66926Y-37883D01*
X66565Y-37292D02*
X66565Y-37483D01*
X66755Y-37502D01*
X66736Y-37483D01*
X66717Y-37444D01*
X66717Y-37349D01*
X66736Y-37311D01*
X66755Y-37292D01*
X66793Y-37273D01*
X66888Y-37273D01*
X66926Y-37292D01*
X66946Y-37311D01*
X66965Y-37349D01*
X66965Y-37444D01*
X66946Y-37483D01*
X66926Y-37502D01*
X87814Y-58526D02*
X88179Y-58526D01*
X88221Y-58507D01*
X88243Y-58488D01*
X88264Y-58450D01*
X88264Y-58374D01*
X88243Y-58336D01*
X88221Y-58317D01*
X88179Y-58298D01*
X87814Y-58298D01*
X88264Y-57898D02*
X88264Y-58126D01*
X88264Y-58012D02*
X87814Y-58012D01*
X87879Y-58050D01*
X87921Y-58088D01*
X87943Y-58126D01*
X87814Y-57650D02*
X87814Y-57612D01*
X87836Y-57574D01*
X87857Y-57555D01*
X87900Y-57536D01*
X87986Y-57517D01*
X88093Y-57517D01*
X88179Y-57536D01*
X88221Y-57555D01*
X88243Y-57574D01*
X88264Y-57612D01*
X88264Y-57650D01*
X88243Y-57688D01*
X88221Y-57707D01*
X88179Y-57726D01*
X88093Y-57745D01*
X87986Y-57745D01*
X87900Y-57726D01*
X87857Y-57707D01*
X87836Y-57688D01*
X87814Y-57650D01*
X89244Y-59479D02*
X88844Y-59479D01*
X89130Y-59345D01*
X88844Y-59212D01*
X89244Y-59212D01*
X89130Y-59041D02*
X89130Y-58850D01*
X89244Y-59079D02*
X88844Y-58945D01*
X89244Y-58812D01*
X88844Y-58717D02*
X89244Y-58450D01*
X88844Y-58450D02*
X89244Y-58717D01*
X88844Y-58336D02*
X88844Y-58088D01*
X88996Y-58221D01*
X88996Y-58164D01*
X89016Y-58126D01*
X89035Y-58107D01*
X89073Y-58088D01*
X89168Y-58088D01*
X89206Y-58107D01*
X89225Y-58126D01*
X89244Y-58164D01*
X89244Y-58279D01*
X89225Y-58317D01*
X89206Y-58336D01*
X89244Y-57707D02*
X89244Y-57936D01*
X89244Y-57821D02*
X88844Y-57821D01*
X88901Y-57860D01*
X88939Y-57898D01*
X88958Y-57936D01*
X89016Y-57479D02*
X88996Y-57517D01*
X88977Y-57536D01*
X88939Y-57555D01*
X88920Y-57555D01*
X88882Y-57536D01*
X88863Y-57517D01*
X88844Y-57479D01*
X88844Y-57402D01*
X88863Y-57364D01*
X88882Y-57345D01*
X88920Y-57326D01*
X88939Y-57326D01*
X88977Y-57345D01*
X88996Y-57364D01*
X89016Y-57402D01*
X89016Y-57479D01*
X89035Y-57517D01*
X89054Y-57536D01*
X89092Y-57555D01*
X89168Y-57555D01*
X89206Y-57536D01*
X89225Y-57517D01*
X89244Y-57479D01*
X89244Y-57402D01*
X89225Y-57364D01*
X89206Y-57345D01*
X89168Y-57326D01*
X89092Y-57326D01*
X89054Y-57345D01*
X89035Y-57364D01*
X89016Y-57402D01*
X88844Y-56964D02*
X88844Y-57155D01*
X89035Y-57174D01*
X89016Y-57155D01*
X88996Y-57117D01*
X88996Y-57021D01*
X89016Y-56983D01*
X89035Y-56964D01*
X89073Y-56945D01*
X89168Y-56945D01*
X89206Y-56964D01*
X89225Y-56983D01*
X89244Y-57021D01*
X89244Y-57117D01*
X89225Y-57155D01*
X89206Y-57174D01*
X88844Y-56583D02*
X88844Y-56774D01*
X89035Y-56793D01*
X89016Y-56774D01*
X88996Y-56736D01*
X88996Y-56641D01*
X89016Y-56602D01*
X89035Y-56583D01*
X89073Y-56564D01*
X89168Y-56564D01*
X89206Y-56583D01*
X89225Y-56602D01*
X89244Y-56641D01*
X89244Y-56736D01*
X89225Y-56774D01*
X89206Y-56793D01*
X87893Y-67292D02*
X88257Y-67292D01*
X88300Y-67273D01*
X88322Y-67254D01*
X88343Y-67216D01*
X88343Y-67140D01*
X88322Y-67102D01*
X88300Y-67083D01*
X88257Y-67064D01*
X87893Y-67064D01*
X87893Y-66911D02*
X87893Y-66645D01*
X88343Y-66816D01*
X89323Y-68435D02*
X88923Y-68435D01*
X89209Y-68302D01*
X88923Y-68169D01*
X89323Y-68169D01*
X89209Y-67997D02*
X89209Y-67807D01*
X89323Y-68035D02*
X88923Y-67902D01*
X89323Y-67769D01*
X88923Y-67673D02*
X89323Y-67407D01*
X88923Y-67407D02*
X89323Y-67673D01*
X88923Y-67292D02*
X88923Y-67045D01*
X89075Y-67178D01*
X89075Y-67121D01*
X89094Y-67083D01*
X89113Y-67064D01*
X89151Y-67045D01*
X89247Y-67045D01*
X89285Y-67064D01*
X89304Y-67083D01*
X89323Y-67121D01*
X89323Y-67235D01*
X89304Y-67273D01*
X89285Y-67292D01*
X89323Y-66664D02*
X89323Y-66892D01*
X89323Y-66778D02*
X88923Y-66778D01*
X88980Y-66816D01*
X89018Y-66854D01*
X89037Y-66892D01*
X89094Y-66435D02*
X89075Y-66473D01*
X89056Y-66492D01*
X89018Y-66511D01*
X88999Y-66511D01*
X88961Y-66492D01*
X88942Y-66473D01*
X88923Y-66435D01*
X88923Y-66359D01*
X88942Y-66321D01*
X88961Y-66302D01*
X88999Y-66283D01*
X89018Y-66283D01*
X89056Y-66302D01*
X89075Y-66321D01*
X89094Y-66359D01*
X89094Y-66435D01*
X89113Y-66473D01*
X89132Y-66492D01*
X89170Y-66511D01*
X89247Y-66511D01*
X89285Y-66492D01*
X89304Y-66473D01*
X89323Y-66435D01*
X89323Y-66359D01*
X89304Y-66321D01*
X89285Y-66302D01*
X89247Y-66283D01*
X89170Y-66283D01*
X89132Y-66302D01*
X89113Y-66321D01*
X89094Y-66359D01*
X88923Y-65921D02*
X88923Y-66111D01*
X89113Y-66131D01*
X89094Y-66111D01*
X89075Y-66073D01*
X89075Y-65978D01*
X89094Y-65940D01*
X89113Y-65921D01*
X89151Y-65902D01*
X89247Y-65902D01*
X89285Y-65921D01*
X89304Y-65940D01*
X89323Y-65978D01*
X89323Y-66073D01*
X89304Y-66111D01*
X89285Y-66131D01*
X88923Y-65540D02*
X88923Y-65731D01*
X89113Y-65750D01*
X89094Y-65731D01*
X89075Y-65692D01*
X89075Y-65597D01*
X89094Y-65559D01*
X89113Y-65540D01*
X89151Y-65521D01*
X89247Y-65521D01*
X89285Y-65540D01*
X89304Y-65559D01*
X89323Y-65597D01*
X89323Y-65692D01*
X89304Y-65731D01*
X89285Y-65750D01*
X67535Y-36518D02*
X67899Y-36518D01*
X67942Y-36499D01*
X67963Y-36480D01*
X67985Y-36442D01*
X67985Y-36366D01*
X67963Y-36328D01*
X67942Y-36309D01*
X67899Y-36290D01*
X67535Y-36290D01*
X67985Y-35890D02*
X67985Y-36118D01*
X67985Y-36004D02*
X67535Y-36004D01*
X67599Y-36042D01*
X67642Y-36080D01*
X67663Y-36118D01*
X67685Y-35547D02*
X67985Y-35547D01*
X67513Y-35642D02*
X67835Y-35737D01*
X67835Y-35490D01*
X66965Y-37471D02*
X66565Y-37471D01*
X66850Y-37337D01*
X66565Y-37204D01*
X66965Y-37204D01*
X66850Y-37033D02*
X66850Y-36842D01*
X66965Y-37071D02*
X66565Y-36937D01*
X66965Y-36804D01*
X66565Y-36709D02*
X66965Y-36442D01*
X66565Y-36442D02*
X66965Y-36709D01*
X66565Y-36328D02*
X66565Y-36080D01*
X66717Y-36214D01*
X66717Y-36156D01*
X66736Y-36118D01*
X66755Y-36099D01*
X66793Y-36080D01*
X66888Y-36080D01*
X66926Y-36099D01*
X66946Y-36118D01*
X66965Y-36156D01*
X66965Y-36271D01*
X66946Y-36309D01*
X66926Y-36328D01*
X66965Y-35699D02*
X66965Y-35928D01*
X66965Y-35814D02*
X66565Y-35814D01*
X66622Y-35852D01*
X66660Y-35890D01*
X66679Y-35928D01*
X66736Y-35471D02*
X66717Y-35509D01*
X66698Y-35528D01*
X66660Y-35547D01*
X66641Y-35547D01*
X66603Y-35528D01*
X66584Y-35509D01*
X66565Y-35471D01*
X66565Y-35395D01*
X66584Y-35356D01*
X66603Y-35337D01*
X66641Y-35318D01*
X66660Y-35318D01*
X66698Y-35337D01*
X66717Y-35356D01*
X66736Y-35395D01*
X66736Y-35471D01*
X66755Y-35509D01*
X66774Y-35528D01*
X66812Y-35547D01*
X66888Y-35547D01*
X66926Y-35528D01*
X66946Y-35509D01*
X66965Y-35471D01*
X66965Y-35395D01*
X66946Y-35356D01*
X66926Y-35337D01*
X66888Y-35318D01*
X66812Y-35318D01*
X66774Y-35337D01*
X66755Y-35356D01*
X66736Y-35395D01*
X66565Y-34956D02*
X66565Y-35147D01*
X66755Y-35166D01*
X66736Y-35147D01*
X66717Y-35109D01*
X66717Y-35014D01*
X66736Y-34976D01*
X66755Y-34956D01*
X66793Y-34937D01*
X66888Y-34937D01*
X66926Y-34956D01*
X66946Y-34976D01*
X66965Y-35014D01*
X66965Y-35109D01*
X66946Y-35147D01*
X66926Y-35166D01*
X66565Y-34576D02*
X66565Y-34766D01*
X66755Y-34785D01*
X66736Y-34766D01*
X66717Y-34728D01*
X66717Y-34633D01*
X66736Y-34595D01*
X66755Y-34576D01*
X66793Y-34556D01*
X66888Y-34556D01*
X66926Y-34576D01*
X66946Y-34595D01*
X66965Y-34633D01*
X66965Y-34728D01*
X66946Y-34766D01*
X66926Y-34785D01*
X87913Y-55613D02*
X88277Y-55613D01*
X88320Y-55594D01*
X88341Y-55575D01*
X88363Y-55537D01*
X88363Y-55460D01*
X88341Y-55422D01*
X88320Y-55403D01*
X88277Y-55384D01*
X87913Y-55384D01*
X88363Y-54984D02*
X88363Y-55213D01*
X88363Y-55099D02*
X87913Y-55099D01*
X87977Y-55137D01*
X88020Y-55175D01*
X88041Y-55213D01*
X88363Y-54603D02*
X88363Y-54832D01*
X88363Y-54718D02*
X87913Y-54718D01*
X87977Y-54756D01*
X88020Y-54794D01*
X88041Y-54832D01*
X89343Y-56565D02*
X88943Y-56565D01*
X89228Y-56432D01*
X88943Y-56299D01*
X89343Y-56299D01*
X89228Y-56127D02*
X89228Y-55937D01*
X89343Y-56165D02*
X88943Y-56032D01*
X89343Y-55899D01*
X88943Y-55803D02*
X89343Y-55537D01*
X88943Y-55537D02*
X89343Y-55803D01*
X88943Y-55422D02*
X88943Y-55175D01*
X89095Y-55308D01*
X89095Y-55251D01*
X89114Y-55213D01*
X89133Y-55194D01*
X89171Y-55175D01*
X89266Y-55175D01*
X89304Y-55194D01*
X89323Y-55213D01*
X89343Y-55251D01*
X89343Y-55365D01*
X89323Y-55403D01*
X89304Y-55422D01*
X89343Y-54794D02*
X89343Y-55022D01*
X89343Y-54908D02*
X88943Y-54908D01*
X89000Y-54946D01*
X89038Y-54984D01*
X89057Y-55022D01*
X89114Y-54565D02*
X89095Y-54603D01*
X89076Y-54622D01*
X89038Y-54641D01*
X89019Y-54641D01*
X88981Y-54622D01*
X88962Y-54603D01*
X88943Y-54565D01*
X88943Y-54489D01*
X88962Y-54451D01*
X88981Y-54432D01*
X89019Y-54413D01*
X89038Y-54413D01*
X89076Y-54432D01*
X89095Y-54451D01*
X89114Y-54489D01*
X89114Y-54565D01*
X89133Y-54603D01*
X89152Y-54622D01*
X89190Y-54641D01*
X89266Y-54641D01*
X89304Y-54622D01*
X89323Y-54603D01*
X89343Y-54565D01*
X89343Y-54489D01*
X89323Y-54451D01*
X89304Y-54432D01*
X89266Y-54413D01*
X89190Y-54413D01*
X89152Y-54432D01*
X89133Y-54451D01*
X89114Y-54489D01*
X88943Y-54051D02*
X88943Y-54241D01*
X89133Y-54260D01*
X89114Y-54241D01*
X89095Y-54203D01*
X89095Y-54108D01*
X89114Y-54070D01*
X89133Y-54051D01*
X89171Y-54032D01*
X89266Y-54032D01*
X89304Y-54051D01*
X89323Y-54070D01*
X89343Y-54108D01*
X89343Y-54203D01*
X89323Y-54241D01*
X89304Y-54260D01*
X88943Y-53670D02*
X88943Y-53860D01*
X89133Y-53880D01*
X89114Y-53860D01*
X89095Y-53822D01*
X89095Y-53727D01*
X89114Y-53689D01*
X89133Y-53670D01*
X89171Y-53651D01*
X89266Y-53651D01*
X89304Y-53670D01*
X89323Y-53689D01*
X89343Y-53727D01*
X89343Y-53822D01*
X89323Y-53860D01*
X89304Y-53880D01*
X67554Y-44629D02*
X67919Y-44629D01*
X67962Y-44610D01*
X67983Y-44591D01*
X68004Y-44552D01*
X68004Y-44476D01*
X67983Y-44438D01*
X67962Y-44419D01*
X67919Y-44400D01*
X67554Y-44400D01*
X68004Y-44000D02*
X68004Y-44229D01*
X68004Y-44114D02*
X67554Y-44114D01*
X67619Y-44152D01*
X67662Y-44191D01*
X67683Y-44229D01*
X67554Y-43867D02*
X67554Y-43600D01*
X68004Y-43771D01*
X66984Y-45581D02*
X66584Y-45581D01*
X66870Y-45448D01*
X66584Y-45314D01*
X66984Y-45314D01*
X66870Y-45143D02*
X66870Y-44952D01*
X66984Y-45181D02*
X66584Y-45048D01*
X66984Y-44914D01*
X66584Y-44819D02*
X66984Y-44552D01*
X66584Y-44552D02*
X66984Y-44819D01*
X66584Y-44438D02*
X66584Y-44191D01*
X66737Y-44324D01*
X66737Y-44267D01*
X66756Y-44229D01*
X66775Y-44210D01*
X66813Y-44191D01*
X66908Y-44191D01*
X66946Y-44210D01*
X66965Y-44229D01*
X66984Y-44267D01*
X66984Y-44381D01*
X66965Y-44419D01*
X66946Y-44438D01*
X66984Y-43810D02*
X66984Y-44038D01*
X66984Y-43924D02*
X66584Y-43924D01*
X66641Y-43962D01*
X66679Y-44000D01*
X66699Y-44038D01*
X66756Y-43581D02*
X66737Y-43619D01*
X66718Y-43638D01*
X66679Y-43657D01*
X66660Y-43657D01*
X66622Y-43638D01*
X66603Y-43619D01*
X66584Y-43581D01*
X66584Y-43505D01*
X66603Y-43467D01*
X66622Y-43448D01*
X66660Y-43429D01*
X66679Y-43429D01*
X66718Y-43448D01*
X66737Y-43467D01*
X66756Y-43505D01*
X66756Y-43581D01*
X66775Y-43619D01*
X66794Y-43638D01*
X66832Y-43657D01*
X66908Y-43657D01*
X66946Y-43638D01*
X66965Y-43619D01*
X66984Y-43581D01*
X66984Y-43505D01*
X66965Y-43467D01*
X66946Y-43448D01*
X66908Y-43429D01*
X66832Y-43429D01*
X66794Y-43448D01*
X66775Y-43467D01*
X66756Y-43505D01*
X66584Y-43067D02*
X66584Y-43257D01*
X66775Y-43276D01*
X66756Y-43257D01*
X66737Y-43219D01*
X66737Y-43124D01*
X66756Y-43086D01*
X66775Y-43067D01*
X66813Y-43048D01*
X66908Y-43048D01*
X66946Y-43067D01*
X66965Y-43086D01*
X66984Y-43124D01*
X66984Y-43219D01*
X66965Y-43257D01*
X66946Y-43276D01*
X66584Y-42686D02*
X66584Y-42876D01*
X66775Y-42895D01*
X66756Y-42876D01*
X66737Y-42838D01*
X66737Y-42743D01*
X66756Y-42705D01*
X66775Y-42686D01*
X66813Y-42667D01*
X66908Y-42667D01*
X66946Y-42686D01*
X66965Y-42705D01*
X66984Y-42743D01*
X66984Y-42838D01*
X66965Y-42876D01*
X66946Y-42895D01*
X87873Y-53034D02*
X88238Y-53034D01*
X88281Y-53015D01*
X88302Y-52996D01*
X88323Y-52958D01*
X88323Y-52882D01*
X88302Y-52844D01*
X88281Y-52825D01*
X88238Y-52806D01*
X87873Y-52806D01*
X88323Y-52406D02*
X88323Y-52634D01*
X88323Y-52520D02*
X87873Y-52520D01*
X87938Y-52558D01*
X87981Y-52596D01*
X88002Y-52634D01*
X87916Y-52253D02*
X87895Y-52234D01*
X87873Y-52196D01*
X87873Y-52101D01*
X87895Y-52063D01*
X87916Y-52044D01*
X87959Y-52025D01*
X88002Y-52025D01*
X88066Y-52044D01*
X88323Y-52272D01*
X88323Y-52025D01*
X89303Y-53986D02*
X88903Y-53986D01*
X89189Y-53853D01*
X88903Y-53720D01*
X89303Y-53720D01*
X89189Y-53548D02*
X89189Y-53358D01*
X89303Y-53586D02*
X88903Y-53453D01*
X89303Y-53320D01*
X88903Y-53225D02*
X89303Y-52958D01*
X88903Y-52958D02*
X89303Y-53225D01*
X88903Y-52844D02*
X88903Y-52596D01*
X89056Y-52729D01*
X89056Y-52672D01*
X89075Y-52634D01*
X89094Y-52615D01*
X89132Y-52596D01*
X89227Y-52596D01*
X89265Y-52615D01*
X89284Y-52634D01*
X89303Y-52672D01*
X89303Y-52786D01*
X89284Y-52825D01*
X89265Y-52844D01*
X89303Y-52215D02*
X89303Y-52444D01*
X89303Y-52329D02*
X88903Y-52329D01*
X88960Y-52367D01*
X88998Y-52406D01*
X89017Y-52444D01*
X89075Y-51986D02*
X89056Y-52025D01*
X89036Y-52044D01*
X88998Y-52063D01*
X88979Y-52063D01*
X88941Y-52044D01*
X88922Y-52025D01*
X88903Y-51986D01*
X88903Y-51910D01*
X88922Y-51872D01*
X88941Y-51853D01*
X88979Y-51834D01*
X88998Y-51834D01*
X89036Y-51853D01*
X89056Y-51872D01*
X89075Y-51910D01*
X89075Y-51986D01*
X89094Y-52025D01*
X89113Y-52044D01*
X89151Y-52063D01*
X89227Y-52063D01*
X89265Y-52044D01*
X89284Y-52025D01*
X89303Y-51986D01*
X89303Y-51910D01*
X89284Y-51872D01*
X89265Y-51853D01*
X89227Y-51834D01*
X89151Y-51834D01*
X89113Y-51853D01*
X89094Y-51872D01*
X89075Y-51910D01*
X88903Y-51472D02*
X88903Y-51663D01*
X89094Y-51682D01*
X89075Y-51663D01*
X89056Y-51625D01*
X89056Y-51529D01*
X89075Y-51491D01*
X89094Y-51472D01*
X89132Y-51453D01*
X89227Y-51453D01*
X89265Y-51472D01*
X89284Y-51491D01*
X89303Y-51529D01*
X89303Y-51625D01*
X89284Y-51663D01*
X89265Y-51682D01*
X88903Y-51091D02*
X88903Y-51282D01*
X89094Y-51301D01*
X89075Y-51282D01*
X89056Y-51244D01*
X89056Y-51148D01*
X89075Y-51110D01*
X89094Y-51091D01*
X89132Y-51072D01*
X89227Y-51072D01*
X89265Y-51091D01*
X89284Y-51110D01*
X89303Y-51148D01*
X89303Y-51244D01*
X89284Y-51282D01*
X89265Y-51301D01*
X67633Y-56262D02*
X67998Y-56262D01*
X68040Y-56243D01*
X68062Y-56224D01*
X68083Y-56186D01*
X68083Y-56110D01*
X68062Y-56072D01*
X68040Y-56053D01*
X67998Y-56034D01*
X67633Y-56034D01*
X67676Y-55862D02*
X67655Y-55843D01*
X67633Y-55805D01*
X67633Y-55710D01*
X67655Y-55672D01*
X67676Y-55653D01*
X67719Y-55634D01*
X67762Y-55634D01*
X67826Y-55653D01*
X68083Y-55882D01*
X68083Y-55634D01*
X68083Y-55253D02*
X68083Y-55482D01*
X68083Y-55367D02*
X67633Y-55367D01*
X67698Y-55405D01*
X67740Y-55443D01*
X67762Y-55482D01*
X67063Y-57215D02*
X66663Y-57215D01*
X66949Y-57082D01*
X66663Y-56948D01*
X67063Y-56948D01*
X66949Y-56777D02*
X66949Y-56586D01*
X67063Y-56815D02*
X66663Y-56682D01*
X67063Y-56548D01*
X66663Y-56453D02*
X67063Y-56186D01*
X66663Y-56186D02*
X67063Y-56453D01*
X66663Y-56072D02*
X66663Y-55824D01*
X66815Y-55958D01*
X66815Y-55901D01*
X66834Y-55862D01*
X66853Y-55843D01*
X66892Y-55824D01*
X66987Y-55824D01*
X67025Y-55843D01*
X67044Y-55862D01*
X67063Y-55901D01*
X67063Y-56015D01*
X67044Y-56053D01*
X67025Y-56072D01*
X67063Y-55443D02*
X67063Y-55672D01*
X67063Y-55558D02*
X66663Y-55558D01*
X66720Y-55596D01*
X66758Y-55634D01*
X66777Y-55672D01*
X66834Y-55215D02*
X66815Y-55253D01*
X66796Y-55272D01*
X66758Y-55291D01*
X66739Y-55291D01*
X66701Y-55272D01*
X66682Y-55253D01*
X66663Y-55215D01*
X66663Y-55139D01*
X66682Y-55101D01*
X66701Y-55082D01*
X66739Y-55062D01*
X66758Y-55062D01*
X66796Y-55082D01*
X66815Y-55101D01*
X66834Y-55139D01*
X66834Y-55215D01*
X66853Y-55253D01*
X66873Y-55272D01*
X66911Y-55291D01*
X66987Y-55291D01*
X67025Y-55272D01*
X67044Y-55253D01*
X67063Y-55215D01*
X67063Y-55139D01*
X67044Y-55101D01*
X67025Y-55082D01*
X66987Y-55062D01*
X66911Y-55062D01*
X66873Y-55082D01*
X66853Y-55101D01*
X66834Y-55139D01*
X66663Y-54701D02*
X66663Y-54891D01*
X66853Y-54910D01*
X66834Y-54891D01*
X66815Y-54853D01*
X66815Y-54758D01*
X66834Y-54720D01*
X66853Y-54701D01*
X66892Y-54682D01*
X66987Y-54682D01*
X67025Y-54701D01*
X67044Y-54720D01*
X67063Y-54758D01*
X67063Y-54853D01*
X67044Y-54891D01*
X67025Y-54910D01*
X66663Y-54320D02*
X66663Y-54510D01*
X66853Y-54529D01*
X66834Y-54510D01*
X66815Y-54472D01*
X66815Y-54377D01*
X66834Y-54339D01*
X66853Y-54320D01*
X66892Y-54301D01*
X66987Y-54301D01*
X67025Y-54320D01*
X67044Y-54339D01*
X67063Y-54377D01*
X67063Y-54472D01*
X67044Y-54510D01*
X67025Y-54529D01*
X67614Y-68192D02*
X67978Y-68192D01*
X68021Y-68173D01*
X68042Y-68153D01*
X68064Y-68115D01*
X68064Y-68039D01*
X68042Y-68001D01*
X68021Y-67982D01*
X67978Y-67963D01*
X67614Y-67963D01*
X67656Y-67792D02*
X67635Y-67773D01*
X67614Y-67734D01*
X67614Y-67639D01*
X67635Y-67601D01*
X67656Y-67582D01*
X67699Y-67563D01*
X67742Y-67563D01*
X67806Y-67582D01*
X68064Y-67811D01*
X68064Y-67563D01*
X67614Y-67201D02*
X67614Y-67392D01*
X67828Y-67411D01*
X67806Y-67392D01*
X67785Y-67353D01*
X67785Y-67258D01*
X67806Y-67220D01*
X67828Y-67201D01*
X67871Y-67182D01*
X67978Y-67182D01*
X68021Y-67201D01*
X68042Y-67220D01*
X68064Y-67258D01*
X68064Y-67353D01*
X68042Y-67392D01*
X68021Y-67411D01*
X67043Y-69144D02*
X66643Y-69144D01*
X66929Y-69011D01*
X66643Y-68877D01*
X67043Y-68877D01*
X66929Y-68706D02*
X66929Y-68515D01*
X67043Y-68744D02*
X66643Y-68611D01*
X67043Y-68477D01*
X66643Y-68382D02*
X67043Y-68115D01*
X66643Y-68115D02*
X67043Y-68382D01*
X66643Y-68001D02*
X66643Y-67753D01*
X66796Y-67887D01*
X66796Y-67830D01*
X66815Y-67792D01*
X66834Y-67773D01*
X66872Y-67753D01*
X66967Y-67753D01*
X67005Y-67773D01*
X67024Y-67792D01*
X67043Y-67830D01*
X67043Y-67944D01*
X67024Y-67982D01*
X67005Y-68001D01*
X67043Y-67373D02*
X67043Y-67601D01*
X67043Y-67487D02*
X66643Y-67487D01*
X66700Y-67525D01*
X66739Y-67563D01*
X66758Y-67601D01*
X66815Y-67144D02*
X66796Y-67182D01*
X66777Y-67201D01*
X66739Y-67220D01*
X66719Y-67220D01*
X66681Y-67201D01*
X66662Y-67182D01*
X66643Y-67144D01*
X66643Y-67068D01*
X66662Y-67030D01*
X66681Y-67011D01*
X66719Y-66992D01*
X66739Y-66992D01*
X66777Y-67011D01*
X66796Y-67030D01*
X66815Y-67068D01*
X66815Y-67144D01*
X66834Y-67182D01*
X66853Y-67201D01*
X66891Y-67220D01*
X66967Y-67220D01*
X67005Y-67201D01*
X67024Y-67182D01*
X67043Y-67144D01*
X67043Y-67068D01*
X67024Y-67030D01*
X67005Y-67011D01*
X66967Y-66992D01*
X66891Y-66992D01*
X66853Y-67011D01*
X66834Y-67030D01*
X66815Y-67068D01*
X66643Y-66630D02*
X66643Y-66820D01*
X66834Y-66839D01*
X66815Y-66820D01*
X66796Y-66782D01*
X66796Y-66687D01*
X66815Y-66649D01*
X66834Y-66630D01*
X66872Y-66611D01*
X66967Y-66611D01*
X67005Y-66630D01*
X67024Y-66649D01*
X67043Y-66687D01*
X67043Y-66782D01*
X67024Y-66820D01*
X67005Y-66839D01*
X66643Y-66249D02*
X66643Y-66439D01*
X66834Y-66458D01*
X66815Y-66439D01*
X66796Y-66401D01*
X66796Y-66306D01*
X66815Y-66268D01*
X66834Y-66249D01*
X66872Y-66230D01*
X66967Y-66230D01*
X67005Y-66249D01*
X67024Y-66268D01*
X67043Y-66306D01*
X67043Y-66401D01*
X67024Y-66439D01*
X67005Y-66458D01*
X67614Y-65337D02*
X67978Y-65337D01*
X68021Y-65318D01*
X68042Y-65299D01*
X68064Y-65261D01*
X68064Y-65185D01*
X68042Y-65147D01*
X68021Y-65128D01*
X67978Y-65109D01*
X67614Y-65109D01*
X67656Y-64937D02*
X67635Y-64918D01*
X67614Y-64880D01*
X67614Y-64785D01*
X67635Y-64747D01*
X67656Y-64728D01*
X67699Y-64709D01*
X67742Y-64709D01*
X67806Y-64728D01*
X68064Y-64956D01*
X68064Y-64709D01*
X67764Y-64366D02*
X68064Y-64366D01*
X67592Y-64461D02*
X67914Y-64556D01*
X67914Y-64309D01*
X67043Y-66290D02*
X66643Y-66290D01*
X66929Y-66156D01*
X66643Y-66023D01*
X67043Y-66023D01*
X66929Y-65852D02*
X66929Y-65661D01*
X67043Y-65890D02*
X66643Y-65756D01*
X67043Y-65623D01*
X66643Y-65528D02*
X67043Y-65261D01*
X66643Y-65261D02*
X67043Y-65528D01*
X66643Y-65147D02*
X66643Y-64899D01*
X66796Y-65032D01*
X66796Y-64975D01*
X66815Y-64937D01*
X66834Y-64918D01*
X66872Y-64899D01*
X66967Y-64899D01*
X67005Y-64918D01*
X67024Y-64937D01*
X67043Y-64975D01*
X67043Y-65090D01*
X67024Y-65128D01*
X67005Y-65147D01*
X67043Y-64518D02*
X67043Y-64747D01*
X67043Y-64632D02*
X66643Y-64632D01*
X66700Y-64671D01*
X66739Y-64709D01*
X66758Y-64747D01*
X66815Y-64290D02*
X66796Y-64328D01*
X66777Y-64347D01*
X66739Y-64366D01*
X66719Y-64366D01*
X66681Y-64347D01*
X66662Y-64328D01*
X66643Y-64290D01*
X66643Y-64213D01*
X66662Y-64175D01*
X66681Y-64156D01*
X66719Y-64137D01*
X66739Y-64137D01*
X66777Y-64156D01*
X66796Y-64175D01*
X66815Y-64213D01*
X66815Y-64290D01*
X66834Y-64328D01*
X66853Y-64347D01*
X66891Y-64366D01*
X66967Y-64366D01*
X67005Y-64347D01*
X67024Y-64328D01*
X67043Y-64290D01*
X67043Y-64213D01*
X67024Y-64175D01*
X67005Y-64156D01*
X66967Y-64137D01*
X66891Y-64137D01*
X66853Y-64156D01*
X66834Y-64175D01*
X66815Y-64213D01*
X66643Y-63775D02*
X66643Y-63966D01*
X66834Y-63985D01*
X66815Y-63966D01*
X66796Y-63928D01*
X66796Y-63832D01*
X66815Y-63794D01*
X66834Y-63775D01*
X66872Y-63756D01*
X66967Y-63756D01*
X67005Y-63775D01*
X67024Y-63794D01*
X67043Y-63832D01*
X67043Y-63928D01*
X67024Y-63966D01*
X67005Y-63985D01*
X66643Y-63394D02*
X66643Y-63585D01*
X66834Y-63604D01*
X66815Y-63585D01*
X66796Y-63547D01*
X66796Y-63452D01*
X66815Y-63413D01*
X66834Y-63394D01*
X66872Y-63375D01*
X66967Y-63375D01*
X67005Y-63394D01*
X67024Y-63413D01*
X67043Y-63452D01*
X67043Y-63547D01*
X67024Y-63585D01*
X67005Y-63604D01*
X87873Y-47529D02*
X88238Y-47529D01*
X88281Y-47510D01*
X88302Y-47491D01*
X88323Y-47452D01*
X88323Y-47376D01*
X88302Y-47338D01*
X88281Y-47319D01*
X88238Y-47300D01*
X87873Y-47300D01*
X87916Y-47129D02*
X87895Y-47110D01*
X87873Y-47072D01*
X87873Y-46976D01*
X87895Y-46938D01*
X87916Y-46919D01*
X87959Y-46900D01*
X88002Y-46900D01*
X88066Y-46919D01*
X88323Y-47148D01*
X88323Y-46900D01*
X89303Y-48672D02*
X88903Y-48672D01*
X89189Y-48538D01*
X88903Y-48405D01*
X89303Y-48405D01*
X89189Y-48233D02*
X89189Y-48043D01*
X89303Y-48272D02*
X88903Y-48138D01*
X89303Y-48005D01*
X88903Y-47910D02*
X89303Y-47643D01*
X88903Y-47643D02*
X89303Y-47910D01*
X88903Y-47529D02*
X88903Y-47281D01*
X89056Y-47414D01*
X89056Y-47357D01*
X89075Y-47319D01*
X89094Y-47300D01*
X89132Y-47281D01*
X89227Y-47281D01*
X89265Y-47300D01*
X89284Y-47319D01*
X89303Y-47357D01*
X89303Y-47472D01*
X89284Y-47510D01*
X89265Y-47529D01*
X89303Y-46900D02*
X89303Y-47129D01*
X89303Y-47014D02*
X88903Y-47014D01*
X88960Y-47052D01*
X88998Y-47091D01*
X89017Y-47129D01*
X89075Y-46672D02*
X89056Y-46710D01*
X89036Y-46729D01*
X88998Y-46748D01*
X88979Y-46748D01*
X88941Y-46729D01*
X88922Y-46710D01*
X88903Y-46672D01*
X88903Y-46595D01*
X88922Y-46557D01*
X88941Y-46538D01*
X88979Y-46519D01*
X88998Y-46519D01*
X89036Y-46538D01*
X89056Y-46557D01*
X89075Y-46595D01*
X89075Y-46672D01*
X89094Y-46710D01*
X89113Y-46729D01*
X89151Y-46748D01*
X89227Y-46748D01*
X89265Y-46729D01*
X89284Y-46710D01*
X89303Y-46672D01*
X89303Y-46595D01*
X89284Y-46557D01*
X89265Y-46538D01*
X89227Y-46519D01*
X89151Y-46519D01*
X89113Y-46538D01*
X89094Y-46557D01*
X89075Y-46595D01*
X88903Y-46157D02*
X88903Y-46348D01*
X89094Y-46367D01*
X89075Y-46348D01*
X89056Y-46310D01*
X89056Y-46214D01*
X89075Y-46176D01*
X89094Y-46157D01*
X89132Y-46138D01*
X89227Y-46138D01*
X89265Y-46157D01*
X89284Y-46176D01*
X89303Y-46214D01*
X89303Y-46310D01*
X89284Y-46348D01*
X89265Y-46367D01*
X88903Y-45776D02*
X88903Y-45967D01*
X89094Y-45986D01*
X89075Y-45967D01*
X89056Y-45929D01*
X89056Y-45833D01*
X89075Y-45795D01*
X89094Y-45776D01*
X89132Y-45757D01*
X89227Y-45757D01*
X89265Y-45776D01*
X89284Y-45795D01*
X89303Y-45833D01*
X89303Y-45929D01*
X89284Y-45967D01*
X89265Y-45986D01*
X87893Y-36485D02*
X88257Y-36485D01*
X88300Y-36466D01*
X88322Y-36447D01*
X88343Y-36409D01*
X88343Y-36333D01*
X88322Y-36295D01*
X88300Y-36276D01*
X88257Y-36257D01*
X87893Y-36257D01*
X87893Y-35895D02*
X87893Y-35971D01*
X87914Y-36009D01*
X87936Y-36028D01*
X88000Y-36066D01*
X88086Y-36085D01*
X88257Y-36085D01*
X88300Y-36066D01*
X88322Y-36047D01*
X88343Y-36009D01*
X88343Y-35933D01*
X88322Y-35895D01*
X88300Y-35876D01*
X88257Y-35857D01*
X88150Y-35857D01*
X88107Y-35876D01*
X88086Y-35895D01*
X88064Y-35933D01*
X88064Y-36009D01*
X88086Y-36047D01*
X88107Y-36066D01*
X88150Y-36085D01*
X89323Y-37628D02*
X88923Y-37628D01*
X89209Y-37495D01*
X88923Y-37362D01*
X89323Y-37362D01*
X89209Y-37190D02*
X89209Y-37000D01*
X89323Y-37228D02*
X88923Y-37095D01*
X89323Y-36962D01*
X88923Y-36866D02*
X89323Y-36600D01*
X88923Y-36600D02*
X89323Y-36866D01*
X88923Y-36485D02*
X88923Y-36238D01*
X89075Y-36371D01*
X89075Y-36314D01*
X89094Y-36276D01*
X89113Y-36257D01*
X89151Y-36238D01*
X89247Y-36238D01*
X89285Y-36257D01*
X89304Y-36276D01*
X89323Y-36314D01*
X89323Y-36428D01*
X89304Y-36466D01*
X89285Y-36485D01*
X89323Y-35857D02*
X89323Y-36085D01*
X89323Y-35971D02*
X88923Y-35971D01*
X88980Y-36009D01*
X89018Y-36047D01*
X89037Y-36085D01*
X89094Y-35628D02*
X89075Y-35666D01*
X89056Y-35685D01*
X89018Y-35704D01*
X88999Y-35704D01*
X88961Y-35685D01*
X88942Y-35666D01*
X88923Y-35628D01*
X88923Y-35552D01*
X88942Y-35514D01*
X88961Y-35495D01*
X88999Y-35476D01*
X89018Y-35476D01*
X89056Y-35495D01*
X89075Y-35514D01*
X89094Y-35552D01*
X89094Y-35628D01*
X89113Y-35666D01*
X89132Y-35685D01*
X89170Y-35704D01*
X89247Y-35704D01*
X89285Y-35685D01*
X89304Y-35666D01*
X89323Y-35628D01*
X89323Y-35552D01*
X89304Y-35514D01*
X89285Y-35495D01*
X89247Y-35476D01*
X89170Y-35476D01*
X89132Y-35495D01*
X89113Y-35514D01*
X89094Y-35552D01*
X88923Y-35114D02*
X88923Y-35304D01*
X89113Y-35323D01*
X89094Y-35304D01*
X89075Y-35266D01*
X89075Y-35171D01*
X89094Y-35133D01*
X89113Y-35114D01*
X89151Y-35095D01*
X89247Y-35095D01*
X89285Y-35114D01*
X89304Y-35133D01*
X89323Y-35171D01*
X89323Y-35266D01*
X89304Y-35304D01*
X89285Y-35323D01*
X88923Y-34733D02*
X88923Y-34923D01*
X89113Y-34943D01*
X89094Y-34923D01*
X89075Y-34885D01*
X89075Y-34790D01*
X89094Y-34752D01*
X89113Y-34733D01*
X89151Y-34714D01*
X89247Y-34714D01*
X89285Y-34733D01*
X89304Y-34752D01*
X89323Y-34790D01*
X89323Y-34885D01*
X89304Y-34923D01*
X89285Y-34943D01*
X67574Y-53388D02*
X67938Y-53388D01*
X67981Y-53369D01*
X68003Y-53350D01*
X68024Y-53312D01*
X68024Y-53236D01*
X68003Y-53198D01*
X67981Y-53179D01*
X67938Y-53160D01*
X67574Y-53160D01*
X67617Y-52988D02*
X67596Y-52969D01*
X67574Y-52931D01*
X67574Y-52836D01*
X67596Y-52798D01*
X67617Y-52779D01*
X67660Y-52760D01*
X67703Y-52760D01*
X67767Y-52779D01*
X68024Y-53007D01*
X68024Y-52760D01*
X67574Y-52512D02*
X67574Y-52474D01*
X67596Y-52436D01*
X67617Y-52417D01*
X67660Y-52398D01*
X67746Y-52379D01*
X67853Y-52379D01*
X67938Y-52398D01*
X67981Y-52417D01*
X68003Y-52436D01*
X68024Y-52474D01*
X68024Y-52512D01*
X68003Y-52550D01*
X67981Y-52569D01*
X67938Y-52588D01*
X67853Y-52607D01*
X67746Y-52607D01*
X67660Y-52588D01*
X67617Y-52569D01*
X67596Y-52550D01*
X67574Y-52512D01*
X67004Y-54341D02*
X66604Y-54341D01*
X66890Y-54207D01*
X66604Y-54074D01*
X67004Y-54074D01*
X66890Y-53903D02*
X66890Y-53712D01*
X67004Y-53941D02*
X66604Y-53807D01*
X67004Y-53674D01*
X66604Y-53579D02*
X67004Y-53312D01*
X66604Y-53312D02*
X67004Y-53579D01*
X66604Y-53198D02*
X66604Y-52950D01*
X66756Y-53084D01*
X66756Y-53027D01*
X66775Y-52988D01*
X66794Y-52969D01*
X66832Y-52950D01*
X66928Y-52950D01*
X66966Y-52969D01*
X66985Y-52988D01*
X67004Y-53027D01*
X67004Y-53141D01*
X66985Y-53179D01*
X66966Y-53198D01*
X67004Y-52569D02*
X67004Y-52798D01*
X67004Y-52684D02*
X66604Y-52684D01*
X66661Y-52722D01*
X66699Y-52760D01*
X66718Y-52798D01*
X66775Y-52341D02*
X66756Y-52379D01*
X66737Y-52398D01*
X66699Y-52417D01*
X66680Y-52417D01*
X66642Y-52398D01*
X66623Y-52379D01*
X66604Y-52341D01*
X66604Y-52265D01*
X66623Y-52227D01*
X66642Y-52207D01*
X66680Y-52188D01*
X66699Y-52188D01*
X66737Y-52207D01*
X66756Y-52227D01*
X66775Y-52265D01*
X66775Y-52341D01*
X66794Y-52379D01*
X66813Y-52398D01*
X66852Y-52417D01*
X66928Y-52417D01*
X66966Y-52398D01*
X66985Y-52379D01*
X67004Y-52341D01*
X67004Y-52265D01*
X66985Y-52227D01*
X66966Y-52207D01*
X66928Y-52188D01*
X66852Y-52188D01*
X66813Y-52207D01*
X66794Y-52227D01*
X66775Y-52265D01*
X66604Y-51827D02*
X66604Y-52017D01*
X66794Y-52036D01*
X66775Y-52017D01*
X66756Y-51979D01*
X66756Y-51884D01*
X66775Y-51846D01*
X66794Y-51827D01*
X66832Y-51807D01*
X66928Y-51807D01*
X66966Y-51827D01*
X66985Y-51846D01*
X67004Y-51884D01*
X67004Y-51979D01*
X66985Y-52017D01*
X66966Y-52036D01*
X66604Y-51446D02*
X66604Y-51636D01*
X66794Y-51655D01*
X66775Y-51636D01*
X66756Y-51598D01*
X66756Y-51503D01*
X66775Y-51465D01*
X66794Y-51446D01*
X66832Y-51427D01*
X66928Y-51427D01*
X66966Y-51446D01*
X66985Y-51465D01*
X67004Y-51503D01*
X67004Y-51598D01*
X66985Y-51636D01*
X66966Y-51655D01*
X87873Y-39458D02*
X88238Y-39458D01*
X88281Y-39439D01*
X88302Y-39420D01*
X88323Y-39382D01*
X88323Y-39305D01*
X88302Y-39267D01*
X88281Y-39248D01*
X88238Y-39229D01*
X87873Y-39229D01*
X87873Y-38848D02*
X87873Y-39039D01*
X88088Y-39058D01*
X88066Y-39039D01*
X88045Y-39001D01*
X88045Y-38905D01*
X88066Y-38867D01*
X88088Y-38848D01*
X88131Y-38829D01*
X88238Y-38829D01*
X88281Y-38848D01*
X88302Y-38867D01*
X88323Y-38905D01*
X88323Y-39001D01*
X88302Y-39039D01*
X88281Y-39058D01*
X89303Y-40601D02*
X88903Y-40601D01*
X89189Y-40467D01*
X88903Y-40334D01*
X89303Y-40334D01*
X89189Y-40163D02*
X89189Y-39972D01*
X89303Y-40201D02*
X88903Y-40067D01*
X89303Y-39934D01*
X88903Y-39839D02*
X89303Y-39572D01*
X88903Y-39572D02*
X89303Y-39839D01*
X88903Y-39458D02*
X88903Y-39210D01*
X89056Y-39344D01*
X89056Y-39286D01*
X89075Y-39248D01*
X89094Y-39229D01*
X89132Y-39210D01*
X89227Y-39210D01*
X89265Y-39229D01*
X89284Y-39248D01*
X89303Y-39286D01*
X89303Y-39401D01*
X89284Y-39439D01*
X89265Y-39458D01*
X89303Y-38829D02*
X89303Y-39058D01*
X89303Y-38944D02*
X88903Y-38944D01*
X88960Y-38982D01*
X88998Y-39020D01*
X89017Y-39058D01*
X89075Y-38601D02*
X89056Y-38639D01*
X89036Y-38658D01*
X88998Y-38677D01*
X88979Y-38677D01*
X88941Y-38658D01*
X88922Y-38639D01*
X88903Y-38601D01*
X88903Y-38524D01*
X88922Y-38486D01*
X88941Y-38467D01*
X88979Y-38448D01*
X88998Y-38448D01*
X89036Y-38467D01*
X89056Y-38486D01*
X89075Y-38524D01*
X89075Y-38601D01*
X89094Y-38639D01*
X89113Y-38658D01*
X89151Y-38677D01*
X89227Y-38677D01*
X89265Y-38658D01*
X89284Y-38639D01*
X89303Y-38601D01*
X89303Y-38524D01*
X89284Y-38486D01*
X89265Y-38467D01*
X89227Y-38448D01*
X89151Y-38448D01*
X89113Y-38467D01*
X89094Y-38486D01*
X89075Y-38524D01*
X88903Y-38086D02*
X88903Y-38277D01*
X89094Y-38296D01*
X89075Y-38277D01*
X89056Y-38239D01*
X89056Y-38144D01*
X89075Y-38105D01*
X89094Y-38086D01*
X89132Y-38067D01*
X89227Y-38067D01*
X89265Y-38086D01*
X89284Y-38105D01*
X89303Y-38144D01*
X89303Y-38239D01*
X89284Y-38277D01*
X89265Y-38296D01*
X88903Y-37705D02*
X88903Y-37896D01*
X89094Y-37915D01*
X89075Y-37896D01*
X89056Y-37858D01*
X89056Y-37763D01*
X89075Y-37724D01*
X89094Y-37705D01*
X89132Y-37686D01*
X89227Y-37686D01*
X89265Y-37705D01*
X89284Y-37724D01*
X89303Y-37763D01*
X89303Y-37858D01*
X89284Y-37896D01*
X89265Y-37915D01*
X67614Y-59235D02*
X67978Y-59235D01*
X68021Y-59216D01*
X68042Y-59197D01*
X68064Y-59159D01*
X68064Y-59083D01*
X68042Y-59044D01*
X68021Y-59025D01*
X67978Y-59006D01*
X67614Y-59006D01*
X67656Y-58835D02*
X67635Y-58816D01*
X67614Y-58778D01*
X67614Y-58683D01*
X67635Y-58644D01*
X67656Y-58625D01*
X67699Y-58606D01*
X67742Y-58606D01*
X67806Y-58625D01*
X68064Y-58854D01*
X68064Y-58606D01*
X67656Y-58454D02*
X67635Y-58435D01*
X67614Y-58397D01*
X67614Y-58302D01*
X67635Y-58263D01*
X67656Y-58244D01*
X67699Y-58225D01*
X67742Y-58225D01*
X67806Y-58244D01*
X68064Y-58473D01*
X68064Y-58225D01*
X67043Y-60187D02*
X66643Y-60187D01*
X66929Y-60054D01*
X66643Y-59921D01*
X67043Y-59921D01*
X66929Y-59749D02*
X66929Y-59559D01*
X67043Y-59787D02*
X66643Y-59654D01*
X67043Y-59521D01*
X66643Y-59425D02*
X67043Y-59159D01*
X66643Y-59159D02*
X67043Y-59425D01*
X66643Y-59044D02*
X66643Y-58797D01*
X66796Y-58930D01*
X66796Y-58873D01*
X66815Y-58835D01*
X66834Y-58816D01*
X66872Y-58797D01*
X66967Y-58797D01*
X67005Y-58816D01*
X67024Y-58835D01*
X67043Y-58873D01*
X67043Y-58987D01*
X67024Y-59025D01*
X67005Y-59044D01*
X67043Y-58416D02*
X67043Y-58644D01*
X67043Y-58530D02*
X66643Y-58530D01*
X66700Y-58568D01*
X66739Y-58606D01*
X66758Y-58644D01*
X66815Y-58187D02*
X66796Y-58225D01*
X66777Y-58244D01*
X66739Y-58263D01*
X66719Y-58263D01*
X66681Y-58244D01*
X66662Y-58225D01*
X66643Y-58187D01*
X66643Y-58111D01*
X66662Y-58073D01*
X66681Y-58054D01*
X66719Y-58035D01*
X66739Y-58035D01*
X66777Y-58054D01*
X66796Y-58073D01*
X66815Y-58111D01*
X66815Y-58187D01*
X66834Y-58225D01*
X66853Y-58244D01*
X66891Y-58263D01*
X66967Y-58263D01*
X67005Y-58244D01*
X67024Y-58225D01*
X67043Y-58187D01*
X67043Y-58111D01*
X67024Y-58073D01*
X67005Y-58054D01*
X66967Y-58035D01*
X66891Y-58035D01*
X66853Y-58054D01*
X66834Y-58073D01*
X66815Y-58111D01*
X66643Y-57673D02*
X66643Y-57863D01*
X66834Y-57883D01*
X66815Y-57863D01*
X66796Y-57825D01*
X66796Y-57730D01*
X66815Y-57692D01*
X66834Y-57673D01*
X66872Y-57654D01*
X66967Y-57654D01*
X67005Y-57673D01*
X67024Y-57692D01*
X67043Y-57730D01*
X67043Y-57825D01*
X67024Y-57863D01*
X67005Y-57883D01*
X66643Y-57292D02*
X66643Y-57483D01*
X66834Y-57502D01*
X66815Y-57483D01*
X66796Y-57444D01*
X66796Y-57349D01*
X66815Y-57311D01*
X66834Y-57292D01*
X66872Y-57273D01*
X66967Y-57273D01*
X67005Y-57292D01*
X67024Y-57311D01*
X67043Y-57349D01*
X67043Y-57444D01*
X67024Y-57483D01*
X67005Y-57502D01*
X67554Y-50239D02*
X67919Y-50239D01*
X67962Y-50220D01*
X67983Y-50201D01*
X68004Y-50163D01*
X68004Y-50086D01*
X67983Y-50048D01*
X67962Y-50029D01*
X67919Y-50010D01*
X67554Y-50010D01*
X68004Y-49610D02*
X68004Y-49839D01*
X68004Y-49725D02*
X67554Y-49725D01*
X67619Y-49763D01*
X67662Y-49801D01*
X67683Y-49839D01*
X68004Y-49420D02*
X68004Y-49344D01*
X67983Y-49305D01*
X67962Y-49286D01*
X67897Y-49248D01*
X67812Y-49229D01*
X67640Y-49229D01*
X67597Y-49248D01*
X67576Y-49267D01*
X67554Y-49305D01*
X67554Y-49382D01*
X67576Y-49420D01*
X67597Y-49439D01*
X67640Y-49458D01*
X67747Y-49458D01*
X67790Y-49439D01*
X67812Y-49420D01*
X67833Y-49382D01*
X67833Y-49305D01*
X67812Y-49267D01*
X67790Y-49248D01*
X67747Y-49229D01*
X66984Y-51191D02*
X66584Y-51191D01*
X66870Y-51058D01*
X66584Y-50925D01*
X66984Y-50925D01*
X66870Y-50753D02*
X66870Y-50563D01*
X66984Y-50791D02*
X66584Y-50658D01*
X66984Y-50525D01*
X66584Y-50429D02*
X66984Y-50163D01*
X66584Y-50163D02*
X66984Y-50429D01*
X66584Y-50048D02*
X66584Y-49801D01*
X66737Y-49934D01*
X66737Y-49877D01*
X66756Y-49839D01*
X66775Y-49820D01*
X66813Y-49801D01*
X66908Y-49801D01*
X66946Y-49820D01*
X66965Y-49839D01*
X66984Y-49877D01*
X66984Y-49991D01*
X66965Y-50029D01*
X66946Y-50048D01*
X66984Y-49420D02*
X66984Y-49648D01*
X66984Y-49534D02*
X66584Y-49534D01*
X66641Y-49572D01*
X66679Y-49610D01*
X66699Y-49648D01*
X66756Y-49191D02*
X66737Y-49229D01*
X66718Y-49248D01*
X66679Y-49267D01*
X66660Y-49267D01*
X66622Y-49248D01*
X66603Y-49229D01*
X66584Y-49191D01*
X66584Y-49115D01*
X66603Y-49077D01*
X66622Y-49058D01*
X66660Y-49039D01*
X66679Y-49039D01*
X66718Y-49058D01*
X66737Y-49077D01*
X66756Y-49115D01*
X66756Y-49191D01*
X66775Y-49229D01*
X66794Y-49248D01*
X66832Y-49267D01*
X66908Y-49267D01*
X66946Y-49248D01*
X66965Y-49229D01*
X66984Y-49191D01*
X66984Y-49115D01*
X66965Y-49077D01*
X66946Y-49058D01*
X66908Y-49039D01*
X66832Y-49039D01*
X66794Y-49058D01*
X66775Y-49077D01*
X66756Y-49115D01*
X66584Y-48677D02*
X66584Y-48867D01*
X66775Y-48886D01*
X66756Y-48867D01*
X66737Y-48829D01*
X66737Y-48734D01*
X66756Y-48696D01*
X66775Y-48677D01*
X66813Y-48658D01*
X66908Y-48658D01*
X66946Y-48677D01*
X66965Y-48696D01*
X66984Y-48734D01*
X66984Y-48829D01*
X66965Y-48867D01*
X66946Y-48886D01*
X66584Y-48296D02*
X66584Y-48486D01*
X66775Y-48505D01*
X66756Y-48486D01*
X66737Y-48448D01*
X66737Y-48353D01*
X66756Y-48315D01*
X66775Y-48296D01*
X66813Y-48277D01*
X66908Y-48277D01*
X66946Y-48296D01*
X66965Y-48315D01*
X66984Y-48353D01*
X66984Y-48448D01*
X66965Y-48486D01*
X66946Y-48505D01*
X87873Y-42135D02*
X88238Y-42135D01*
X88281Y-42116D01*
X88302Y-42097D01*
X88323Y-42059D01*
X88323Y-41983D01*
X88302Y-41944D01*
X88281Y-41925D01*
X88238Y-41906D01*
X87873Y-41906D01*
X88023Y-41544D02*
X88323Y-41544D01*
X87852Y-41640D02*
X88173Y-41735D01*
X88173Y-41487D01*
X89303Y-43278D02*
X88903Y-43278D01*
X89189Y-43144D01*
X88903Y-43011D01*
X89303Y-43011D01*
X89189Y-42840D02*
X89189Y-42649D01*
X89303Y-42878D02*
X88903Y-42744D01*
X89303Y-42611D01*
X88903Y-42516D02*
X89303Y-42249D01*
X88903Y-42249D02*
X89303Y-42516D01*
X88903Y-42135D02*
X88903Y-41887D01*
X89056Y-42021D01*
X89056Y-41964D01*
X89075Y-41925D01*
X89094Y-41906D01*
X89132Y-41887D01*
X89227Y-41887D01*
X89265Y-41906D01*
X89284Y-41925D01*
X89303Y-41964D01*
X89303Y-42078D01*
X89284Y-42116D01*
X89265Y-42135D01*
X89303Y-41506D02*
X89303Y-41735D01*
X89303Y-41621D02*
X88903Y-41621D01*
X88960Y-41659D01*
X88998Y-41697D01*
X89017Y-41735D01*
X89075Y-41278D02*
X89056Y-41316D01*
X89036Y-41335D01*
X88998Y-41354D01*
X88979Y-41354D01*
X88941Y-41335D01*
X88922Y-41316D01*
X88903Y-41278D01*
X88903Y-41202D01*
X88922Y-41164D01*
X88941Y-41144D01*
X88979Y-41125D01*
X88998Y-41125D01*
X89036Y-41144D01*
X89056Y-41164D01*
X89075Y-41202D01*
X89075Y-41278D01*
X89094Y-41316D01*
X89113Y-41335D01*
X89151Y-41354D01*
X89227Y-41354D01*
X89265Y-41335D01*
X89284Y-41316D01*
X89303Y-41278D01*
X89303Y-41202D01*
X89284Y-41164D01*
X89265Y-41144D01*
X89227Y-41125D01*
X89151Y-41125D01*
X89113Y-41144D01*
X89094Y-41164D01*
X89075Y-41202D01*
X88903Y-40764D02*
X88903Y-40954D01*
X89094Y-40973D01*
X89075Y-40954D01*
X89056Y-40916D01*
X89056Y-40821D01*
X89075Y-40783D01*
X89094Y-40764D01*
X89132Y-40744D01*
X89227Y-40744D01*
X89265Y-40764D01*
X89284Y-40783D01*
X89303Y-40821D01*
X89303Y-40916D01*
X89284Y-40954D01*
X89265Y-40973D01*
X88903Y-40383D02*
X88903Y-40573D01*
X89094Y-40592D01*
X89075Y-40573D01*
X89056Y-40535D01*
X89056Y-40440D01*
X89075Y-40402D01*
X89094Y-40383D01*
X89132Y-40364D01*
X89227Y-40364D01*
X89265Y-40383D01*
X89284Y-40402D01*
X89303Y-40440D01*
X89303Y-40535D01*
X89284Y-40573D01*
X89265Y-40592D01*
X67574Y-62148D02*
X67938Y-62148D01*
X67981Y-62129D01*
X68003Y-62110D01*
X68024Y-62072D01*
X68024Y-61996D01*
X68003Y-61958D01*
X67981Y-61939D01*
X67938Y-61920D01*
X67574Y-61920D01*
X67617Y-61748D02*
X67596Y-61729D01*
X67574Y-61691D01*
X67574Y-61596D01*
X67596Y-61558D01*
X67617Y-61539D01*
X67660Y-61520D01*
X67703Y-61520D01*
X67767Y-61539D01*
X68024Y-61767D01*
X68024Y-61520D01*
X67574Y-61386D02*
X67574Y-61139D01*
X67746Y-61272D01*
X67746Y-61215D01*
X67767Y-61177D01*
X67788Y-61158D01*
X67831Y-61139D01*
X67938Y-61139D01*
X67981Y-61158D01*
X68003Y-61177D01*
X68024Y-61215D01*
X68024Y-61329D01*
X68003Y-61367D01*
X67981Y-61386D01*
X67004Y-63101D02*
X66604Y-63101D01*
X66890Y-62967D01*
X66604Y-62834D01*
X67004Y-62834D01*
X66890Y-62663D02*
X66890Y-62472D01*
X67004Y-62701D02*
X66604Y-62567D01*
X67004Y-62434D01*
X66604Y-62339D02*
X67004Y-62072D01*
X66604Y-62072D02*
X67004Y-62339D01*
X66604Y-61958D02*
X66604Y-61710D01*
X66756Y-61844D01*
X66756Y-61786D01*
X66775Y-61748D01*
X66794Y-61729D01*
X66832Y-61710D01*
X66928Y-61710D01*
X66966Y-61729D01*
X66985Y-61748D01*
X67004Y-61786D01*
X67004Y-61901D01*
X66985Y-61939D01*
X66966Y-61958D01*
X67004Y-61329D02*
X67004Y-61558D01*
X67004Y-61444D02*
X66604Y-61444D01*
X66661Y-61482D01*
X66699Y-61520D01*
X66718Y-61558D01*
X66775Y-61101D02*
X66756Y-61139D01*
X66737Y-61158D01*
X66699Y-61177D01*
X66680Y-61177D01*
X66642Y-61158D01*
X66623Y-61139D01*
X66604Y-61101D01*
X66604Y-61024D01*
X66623Y-60986D01*
X66642Y-60967D01*
X66680Y-60948D01*
X66699Y-60948D01*
X66737Y-60967D01*
X66756Y-60986D01*
X66775Y-61024D01*
X66775Y-61101D01*
X66794Y-61139D01*
X66813Y-61158D01*
X66852Y-61177D01*
X66928Y-61177D01*
X66966Y-61158D01*
X66985Y-61139D01*
X67004Y-61101D01*
X67004Y-61024D01*
X66985Y-60986D01*
X66966Y-60967D01*
X66928Y-60948D01*
X66852Y-60948D01*
X66813Y-60967D01*
X66794Y-60986D01*
X66775Y-61024D01*
X66604Y-60586D02*
X66604Y-60777D01*
X66794Y-60796D01*
X66775Y-60777D01*
X66756Y-60739D01*
X66756Y-60644D01*
X66775Y-60605D01*
X66794Y-60586D01*
X66832Y-60567D01*
X66928Y-60567D01*
X66966Y-60586D01*
X66985Y-60605D01*
X67004Y-60644D01*
X67004Y-60739D01*
X66985Y-60777D01*
X66966Y-60796D01*
X66604Y-60205D02*
X66604Y-60396D01*
X66794Y-60415D01*
X66775Y-60396D01*
X66756Y-60358D01*
X66756Y-60263D01*
X66775Y-60224D01*
X66794Y-60205D01*
X66832Y-60186D01*
X66928Y-60186D01*
X66966Y-60205D01*
X66985Y-60224D01*
X67004Y-60263D01*
X67004Y-60358D01*
X66985Y-60396D01*
X66966Y-60415D01*
X87873Y-44773D02*
X88238Y-44773D01*
X88281Y-44754D01*
X88302Y-44735D01*
X88323Y-44697D01*
X88323Y-44620D01*
X88302Y-44582D01*
X88281Y-44563D01*
X88238Y-44544D01*
X87873Y-44544D01*
X87873Y-44392D02*
X87873Y-44144D01*
X88045Y-44278D01*
X88045Y-44220D01*
X88066Y-44182D01*
X88088Y-44163D01*
X88131Y-44144D01*
X88238Y-44144D01*
X88281Y-44163D01*
X88302Y-44182D01*
X88323Y-44220D01*
X88323Y-44335D01*
X88302Y-44373D01*
X88281Y-44392D01*
X89303Y-45916D02*
X88903Y-45916D01*
X89189Y-45782D01*
X88903Y-45649D01*
X89303Y-45649D01*
X89189Y-45478D02*
X89189Y-45287D01*
X89303Y-45516D02*
X88903Y-45382D01*
X89303Y-45249D01*
X88903Y-45154D02*
X89303Y-44887D01*
X88903Y-44887D02*
X89303Y-45154D01*
X88903Y-44773D02*
X88903Y-44525D01*
X89056Y-44658D01*
X89056Y-44601D01*
X89075Y-44563D01*
X89094Y-44544D01*
X89132Y-44525D01*
X89227Y-44525D01*
X89265Y-44544D01*
X89284Y-44563D01*
X89303Y-44601D01*
X89303Y-44716D01*
X89284Y-44754D01*
X89265Y-44773D01*
X89303Y-44144D02*
X89303Y-44373D01*
X89303Y-44258D02*
X88903Y-44258D01*
X88960Y-44297D01*
X88998Y-44335D01*
X89017Y-44373D01*
X89075Y-43916D02*
X89056Y-43954D01*
X89036Y-43973D01*
X88998Y-43992D01*
X88979Y-43992D01*
X88941Y-43973D01*
X88922Y-43954D01*
X88903Y-43916D01*
X88903Y-43839D01*
X88922Y-43801D01*
X88941Y-43782D01*
X88979Y-43763D01*
X88998Y-43763D01*
X89036Y-43782D01*
X89056Y-43801D01*
X89075Y-43839D01*
X89075Y-43916D01*
X89094Y-43954D01*
X89113Y-43973D01*
X89151Y-43992D01*
X89227Y-43992D01*
X89265Y-43973D01*
X89284Y-43954D01*
X89303Y-43916D01*
X89303Y-43839D01*
X89284Y-43801D01*
X89265Y-43782D01*
X89227Y-43763D01*
X89151Y-43763D01*
X89113Y-43782D01*
X89094Y-43801D01*
X89075Y-43839D01*
X88903Y-43401D02*
X88903Y-43592D01*
X89094Y-43611D01*
X89075Y-43592D01*
X89056Y-43554D01*
X89056Y-43458D01*
X89075Y-43420D01*
X89094Y-43401D01*
X89132Y-43382D01*
X89227Y-43382D01*
X89265Y-43401D01*
X89284Y-43420D01*
X89303Y-43458D01*
X89303Y-43554D01*
X89284Y-43592D01*
X89265Y-43611D01*
X88903Y-43020D02*
X88903Y-43211D01*
X89094Y-43230D01*
X89075Y-43211D01*
X89056Y-43173D01*
X89056Y-43078D01*
X89075Y-43039D01*
X89094Y-43020D01*
X89132Y-43001D01*
X89227Y-43001D01*
X89265Y-43020D01*
X89284Y-43039D01*
X89303Y-43078D01*
X89303Y-43173D01*
X89284Y-43211D01*
X89265Y-43230D01*
X67535Y-47444D02*
X67899Y-47444D01*
X67942Y-47425D01*
X67963Y-47405D01*
X67985Y-47367D01*
X67985Y-47291D01*
X67963Y-47253D01*
X67942Y-47234D01*
X67899Y-47215D01*
X67535Y-47215D01*
X67985Y-46815D02*
X67985Y-47044D01*
X67985Y-46929D02*
X67535Y-46929D01*
X67599Y-46967D01*
X67642Y-47005D01*
X67663Y-47044D01*
X67728Y-46586D02*
X67706Y-46625D01*
X67685Y-46644D01*
X67642Y-46663D01*
X67621Y-46663D01*
X67578Y-46644D01*
X67556Y-46625D01*
X67535Y-46586D01*
X67535Y-46510D01*
X67556Y-46472D01*
X67578Y-46453D01*
X67621Y-46434D01*
X67642Y-46434D01*
X67685Y-46453D01*
X67706Y-46472D01*
X67728Y-46510D01*
X67728Y-46586D01*
X67749Y-46625D01*
X67771Y-46644D01*
X67813Y-46663D01*
X67899Y-46663D01*
X67942Y-46644D01*
X67963Y-46625D01*
X67985Y-46586D01*
X67985Y-46510D01*
X67963Y-46472D01*
X67942Y-46453D01*
X67899Y-46434D01*
X67813Y-46434D01*
X67771Y-46453D01*
X67749Y-46472D01*
X67728Y-46510D01*
X66965Y-48396D02*
X66565Y-48396D01*
X66850Y-48263D01*
X66565Y-48129D01*
X66965Y-48129D01*
X66850Y-47958D02*
X66850Y-47767D01*
X66965Y-47996D02*
X66565Y-47863D01*
X66965Y-47729D01*
X66565Y-47634D02*
X66965Y-47367D01*
X66565Y-47367D02*
X66965Y-47634D01*
X66565Y-47253D02*
X66565Y-47005D01*
X66717Y-47139D01*
X66717Y-47082D01*
X66736Y-47044D01*
X66755Y-47025D01*
X66793Y-47005D01*
X66888Y-47005D01*
X66926Y-47025D01*
X66946Y-47044D01*
X66965Y-47082D01*
X66965Y-47196D01*
X66946Y-47234D01*
X66926Y-47253D01*
X66965Y-46625D02*
X66965Y-46853D01*
X66965Y-46739D02*
X66565Y-46739D01*
X66622Y-46777D01*
X66660Y-46815D01*
X66679Y-46853D01*
X66736Y-46396D02*
X66717Y-46434D01*
X66698Y-46453D01*
X66660Y-46472D01*
X66641Y-46472D01*
X66603Y-46453D01*
X66584Y-46434D01*
X66565Y-46396D01*
X66565Y-46320D01*
X66584Y-46282D01*
X66603Y-46263D01*
X66641Y-46244D01*
X66660Y-46244D01*
X66698Y-46263D01*
X66717Y-46282D01*
X66736Y-46320D01*
X66736Y-46396D01*
X66755Y-46434D01*
X66774Y-46453D01*
X66812Y-46472D01*
X66888Y-46472D01*
X66926Y-46453D01*
X66946Y-46434D01*
X66965Y-46396D01*
X66965Y-46320D01*
X66946Y-46282D01*
X66926Y-46263D01*
X66888Y-46244D01*
X66812Y-46244D01*
X66774Y-46263D01*
X66755Y-46282D01*
X66736Y-46320D01*
X66565Y-45882D02*
X66565Y-46072D01*
X66755Y-46091D01*
X66736Y-46072D01*
X66717Y-46034D01*
X66717Y-45939D01*
X66736Y-45901D01*
X66755Y-45882D01*
X66793Y-45863D01*
X66888Y-45863D01*
X66926Y-45882D01*
X66946Y-45901D01*
X66965Y-45939D01*
X66965Y-46034D01*
X66946Y-46072D01*
X66926Y-46091D01*
X66565Y-45501D02*
X66565Y-45691D01*
X66755Y-45710D01*
X66736Y-45691D01*
X66717Y-45653D01*
X66717Y-45558D01*
X66736Y-45520D01*
X66755Y-45501D01*
X66793Y-45482D01*
X66888Y-45482D01*
X66926Y-45501D01*
X66946Y-45520D01*
X66965Y-45558D01*
X66965Y-45653D01*
X66946Y-45691D01*
X66926Y-45710D01*
X64029Y-46767D02*
X64044Y-46781D01*
X64058Y-46824D01*
X64058Y-46853D01*
X64044Y-46896D01*
X64015Y-46924D01*
X63987Y-46939D01*
X63929Y-46953D01*
X63887Y-46953D01*
X63829Y-46939D01*
X63801Y-46924D01*
X63772Y-46896D01*
X63758Y-46853D01*
X63758Y-46824D01*
X63772Y-46781D01*
X63787Y-46767D01*
X63758Y-46667D02*
X63758Y-46481D01*
X63872Y-46581D01*
X63872Y-46539D01*
X63887Y-46510D01*
X63901Y-46496D01*
X63929Y-46481D01*
X64001Y-46481D01*
X64029Y-46496D01*
X64044Y-46510D01*
X64058Y-46539D01*
X64058Y-46624D01*
X64044Y-46653D01*
X64029Y-46667D01*
X63787Y-46367D02*
X63772Y-46353D01*
X63758Y-46324D01*
X63758Y-46253D01*
X63772Y-46224D01*
X63787Y-46210D01*
X63815Y-46196D01*
X63844Y-46196D01*
X63887Y-46210D01*
X64058Y-46381D01*
X64058Y-46196D01*
X64010Y-50704D02*
X64024Y-50718D01*
X64038Y-50761D01*
X64038Y-50790D01*
X64024Y-50833D01*
X63995Y-50861D01*
X63967Y-50876D01*
X63910Y-50890D01*
X63867Y-50890D01*
X63810Y-50876D01*
X63781Y-50861D01*
X63753Y-50833D01*
X63738Y-50790D01*
X63738Y-50761D01*
X63753Y-50718D01*
X63767Y-50704D01*
X63738Y-50604D02*
X63738Y-50418D01*
X63853Y-50518D01*
X63853Y-50476D01*
X63867Y-50447D01*
X63881Y-50433D01*
X63910Y-50418D01*
X63981Y-50418D01*
X64010Y-50433D01*
X64024Y-50447D01*
X64038Y-50476D01*
X64038Y-50561D01*
X64024Y-50590D01*
X64010Y-50604D01*
X63838Y-50161D02*
X64038Y-50161D01*
X63724Y-50233D02*
X63938Y-50304D01*
X63938Y-50118D01*
X64088Y-55389D02*
X64103Y-55403D01*
X64117Y-55446D01*
X64117Y-55475D01*
X64103Y-55518D01*
X64074Y-55546D01*
X64046Y-55561D01*
X63988Y-55575D01*
X63946Y-55575D01*
X63888Y-55561D01*
X63860Y-55546D01*
X63831Y-55518D01*
X63817Y-55475D01*
X63817Y-55446D01*
X63831Y-55403D01*
X63846Y-55389D01*
X63917Y-55132D02*
X64117Y-55132D01*
X63803Y-55203D02*
X64017Y-55275D01*
X64017Y-55089D01*
X63846Y-54989D02*
X63831Y-54975D01*
X63817Y-54946D01*
X63817Y-54875D01*
X63831Y-54846D01*
X63846Y-54832D01*
X63874Y-54818D01*
X63903Y-54818D01*
X63946Y-54832D01*
X64117Y-55003D01*
X64117Y-54818D01*
X73960Y-37884D02*
X73817Y-37984D01*
X73960Y-38056D02*
X73660Y-38056D01*
X73660Y-37941D01*
X73674Y-37913D01*
X73688Y-37898D01*
X73717Y-37884D01*
X73760Y-37884D01*
X73788Y-37898D01*
X73802Y-37913D01*
X73817Y-37941D01*
X73817Y-38056D01*
X73960Y-37598D02*
X73960Y-37770D01*
X73960Y-37684D02*
X73660Y-37684D01*
X73702Y-37713D01*
X73731Y-37741D01*
X73745Y-37770D01*
X62494Y-48696D02*
X62508Y-48711D01*
X62523Y-48753D01*
X62523Y-48782D01*
X62508Y-48825D01*
X62480Y-48853D01*
X62451Y-48868D01*
X62394Y-48882D01*
X62351Y-48882D01*
X62294Y-48868D01*
X62265Y-48853D01*
X62237Y-48825D01*
X62223Y-48782D01*
X62223Y-48753D01*
X62237Y-48711D01*
X62251Y-48696D01*
X62223Y-48596D02*
X62223Y-48411D01*
X62337Y-48511D01*
X62337Y-48468D01*
X62351Y-48439D01*
X62365Y-48425D01*
X62394Y-48411D01*
X62465Y-48411D01*
X62494Y-48425D01*
X62508Y-48439D01*
X62523Y-48468D01*
X62523Y-48553D01*
X62508Y-48582D01*
X62494Y-48596D01*
X62223Y-48311D02*
X62223Y-48125D01*
X62337Y-48225D01*
X62337Y-48182D01*
X62351Y-48153D01*
X62365Y-48139D01*
X62394Y-48125D01*
X62465Y-48125D01*
X62494Y-48139D01*
X62508Y-48153D01*
X62523Y-48182D01*
X62523Y-48268D01*
X62508Y-48296D01*
X62494Y-48311D01*
X62553Y-44858D02*
X62567Y-44872D01*
X62582Y-44915D01*
X62582Y-44943D01*
X62567Y-44986D01*
X62539Y-45015D01*
X62510Y-45029D01*
X62453Y-45043D01*
X62410Y-45043D01*
X62353Y-45029D01*
X62324Y-45015D01*
X62296Y-44986D01*
X62282Y-44943D01*
X62282Y-44915D01*
X62296Y-44872D01*
X62310Y-44858D01*
X62282Y-44758D02*
X62282Y-44572D01*
X62396Y-44672D01*
X62396Y-44629D01*
X62410Y-44601D01*
X62424Y-44586D01*
X62453Y-44572D01*
X62524Y-44572D01*
X62553Y-44586D01*
X62567Y-44601D01*
X62582Y-44629D01*
X62582Y-44715D01*
X62567Y-44743D01*
X62553Y-44758D01*
X62582Y-44286D02*
X62582Y-44458D01*
X62582Y-44372D02*
X62282Y-44372D01*
X62324Y-44401D01*
X62353Y-44429D01*
X62367Y-44458D01*
X64029Y-42771D02*
X64044Y-42785D01*
X64058Y-42828D01*
X64058Y-42857D01*
X64044Y-42900D01*
X64015Y-42928D01*
X63987Y-42943D01*
X63929Y-42957D01*
X63887Y-42957D01*
X63829Y-42943D01*
X63801Y-42928D01*
X63772Y-42900D01*
X63758Y-42857D01*
X63758Y-42828D01*
X63772Y-42785D01*
X63787Y-42771D01*
X63758Y-42671D02*
X63758Y-42485D01*
X63872Y-42585D01*
X63872Y-42543D01*
X63887Y-42514D01*
X63901Y-42500D01*
X63929Y-42485D01*
X64001Y-42485D01*
X64029Y-42500D01*
X64044Y-42514D01*
X64058Y-42543D01*
X64058Y-42628D01*
X64044Y-42657D01*
X64029Y-42671D01*
X63758Y-42300D02*
X63758Y-42271D01*
X63772Y-42243D01*
X63787Y-42228D01*
X63815Y-42214D01*
X63872Y-42200D01*
X63944Y-42200D01*
X64001Y-42214D01*
X64029Y-42228D01*
X64044Y-42243D01*
X64058Y-42271D01*
X64058Y-42300D01*
X64044Y-42328D01*
X64029Y-42343D01*
X64001Y-42357D01*
X63944Y-42371D01*
X63872Y-42371D01*
X63815Y-42357D01*
X63787Y-42343D01*
X63772Y-42328D01*
X63758Y-42300D01*
X62592Y-40645D02*
X62607Y-40659D01*
X62621Y-40702D01*
X62621Y-40731D01*
X62607Y-40774D01*
X62578Y-40802D01*
X62550Y-40817D01*
X62492Y-40831D01*
X62450Y-40831D01*
X62392Y-40817D01*
X62364Y-40802D01*
X62335Y-40774D01*
X62321Y-40731D01*
X62321Y-40702D01*
X62335Y-40659D01*
X62350Y-40645D01*
X62350Y-40531D02*
X62335Y-40517D01*
X62321Y-40488D01*
X62321Y-40417D01*
X62335Y-40388D01*
X62350Y-40374D01*
X62378Y-40359D01*
X62407Y-40359D01*
X62450Y-40374D01*
X62621Y-40545D01*
X62621Y-40359D01*
X62621Y-40217D02*
X62621Y-40159D01*
X62607Y-40131D01*
X62592Y-40117D01*
X62550Y-40088D01*
X62492Y-40074D01*
X62378Y-40074D01*
X62350Y-40088D01*
X62335Y-40102D01*
X62321Y-40131D01*
X62321Y-40188D01*
X62335Y-40217D01*
X62350Y-40231D01*
X62378Y-40245D01*
X62450Y-40245D01*
X62478Y-40231D01*
X62492Y-40217D01*
X62507Y-40188D01*
X62507Y-40131D01*
X62492Y-40102D01*
X62478Y-40088D01*
X62450Y-40074D01*
X64029Y-63598D02*
X64044Y-63612D01*
X64058Y-63655D01*
X64058Y-63684D01*
X64044Y-63726D01*
X64015Y-63755D01*
X63987Y-63769D01*
X63929Y-63784D01*
X63887Y-63784D01*
X63829Y-63769D01*
X63801Y-63755D01*
X63772Y-63726D01*
X63758Y-63684D01*
X63758Y-63655D01*
X63772Y-63612D01*
X63787Y-63598D01*
X63858Y-63341D02*
X64058Y-63341D01*
X63744Y-63412D02*
X63958Y-63484D01*
X63958Y-63298D01*
X63758Y-63055D02*
X63758Y-63112D01*
X63772Y-63141D01*
X63787Y-63155D01*
X63829Y-63184D01*
X63887Y-63198D01*
X64001Y-63198D01*
X64029Y-63184D01*
X64044Y-63169D01*
X64058Y-63141D01*
X64058Y-63084D01*
X64044Y-63055D01*
X64029Y-63041D01*
X64001Y-63026D01*
X63929Y-63026D01*
X63901Y-63041D01*
X63887Y-63055D01*
X63872Y-63084D01*
X63872Y-63141D01*
X63887Y-63169D01*
X63901Y-63184D01*
X63929Y-63198D01*
X62730Y-61452D02*
X62744Y-61466D01*
X62759Y-61509D01*
X62759Y-61538D01*
X62744Y-61581D01*
X62716Y-61609D01*
X62687Y-61624D01*
X62630Y-61638D01*
X62587Y-61638D01*
X62530Y-61624D01*
X62502Y-61609D01*
X62473Y-61581D01*
X62459Y-61538D01*
X62459Y-61509D01*
X62473Y-61466D01*
X62487Y-61452D01*
X62559Y-61195D02*
X62759Y-61195D01*
X62444Y-61266D02*
X62659Y-61338D01*
X62659Y-61152D01*
X62459Y-60895D02*
X62459Y-61038D01*
X62602Y-61052D01*
X62587Y-61038D01*
X62573Y-61009D01*
X62573Y-60938D01*
X62587Y-60909D01*
X62602Y-60895D01*
X62630Y-60881D01*
X62702Y-60881D01*
X62730Y-60895D01*
X62744Y-60909D01*
X62759Y-60938D01*
X62759Y-61009D01*
X62744Y-61038D01*
X62730Y-61052D01*
X64088Y-59464D02*
X64103Y-59478D01*
X64117Y-59521D01*
X64117Y-59550D01*
X64103Y-59593D01*
X64074Y-59621D01*
X64046Y-59635D01*
X63988Y-59650D01*
X63946Y-59650D01*
X63888Y-59635D01*
X63860Y-59621D01*
X63831Y-59593D01*
X63817Y-59550D01*
X63817Y-59521D01*
X63831Y-59478D01*
X63846Y-59464D01*
X63917Y-59207D02*
X64117Y-59207D01*
X63803Y-59278D02*
X64017Y-59350D01*
X64017Y-59164D01*
X63917Y-58921D02*
X64117Y-58921D01*
X63803Y-58993D02*
X64017Y-59064D01*
X64017Y-58878D01*
X62770Y-57397D02*
X62784Y-57411D01*
X62798Y-57454D01*
X62798Y-57483D01*
X62784Y-57526D01*
X62755Y-57554D01*
X62727Y-57569D01*
X62670Y-57583D01*
X62627Y-57583D01*
X62570Y-57569D01*
X62541Y-57554D01*
X62512Y-57526D01*
X62498Y-57483D01*
X62498Y-57454D01*
X62512Y-57411D01*
X62527Y-57397D01*
X62598Y-57140D02*
X62798Y-57140D01*
X62484Y-57211D02*
X62698Y-57283D01*
X62698Y-57097D01*
X62498Y-57011D02*
X62498Y-56826D01*
X62612Y-56926D01*
X62612Y-56883D01*
X62627Y-56854D01*
X62641Y-56840D01*
X62670Y-56826D01*
X62741Y-56826D01*
X62770Y-56840D01*
X62784Y-56854D01*
X62798Y-56883D01*
X62798Y-56969D01*
X62784Y-56997D01*
X62770Y-57011D01*
X93340Y-56610D02*
X93355Y-56624D01*
X93369Y-56667D01*
X93369Y-56695D01*
X93355Y-56738D01*
X93326Y-56767D01*
X93298Y-56781D01*
X93240Y-56795D01*
X93198Y-56795D01*
X93140Y-56781D01*
X93112Y-56767D01*
X93083Y-56738D01*
X93069Y-56695D01*
X93069Y-56667D01*
X93083Y-56624D01*
X93098Y-56610D01*
X93369Y-56324D02*
X93369Y-56495D01*
X93369Y-56410D02*
X93069Y-56410D01*
X93112Y-56438D01*
X93140Y-56467D01*
X93155Y-56495D01*
X93069Y-56224D02*
X93069Y-56024D01*
X93369Y-56153D01*
X92907Y-40994D02*
X92922Y-41009D01*
X92936Y-41052D01*
X92936Y-41080D01*
X92922Y-41123D01*
X92893Y-41152D01*
X92864Y-41166D01*
X92807Y-41180D01*
X92764Y-41180D01*
X92707Y-41166D01*
X92679Y-41152D01*
X92650Y-41123D01*
X92636Y-41080D01*
X92636Y-41052D01*
X92650Y-41009D01*
X92664Y-40994D01*
X92636Y-40737D02*
X92636Y-40794D01*
X92650Y-40823D01*
X92664Y-40837D01*
X92707Y-40866D01*
X92764Y-40880D01*
X92879Y-40880D01*
X92907Y-40866D01*
X92922Y-40852D01*
X92936Y-40823D01*
X92936Y-40766D01*
X92922Y-40737D01*
X92907Y-40723D01*
X92879Y-40709D01*
X92807Y-40709D01*
X92779Y-40723D01*
X92764Y-40737D01*
X92750Y-40766D01*
X92750Y-40823D01*
X92764Y-40852D01*
X92779Y-40866D01*
X92807Y-40880D01*
X94285Y-43238D02*
X94300Y-43253D01*
X94314Y-43296D01*
X94314Y-43324D01*
X94300Y-43367D01*
X94271Y-43396D01*
X94242Y-43410D01*
X94185Y-43424D01*
X94142Y-43424D01*
X94085Y-43410D01*
X94057Y-43396D01*
X94028Y-43367D01*
X94014Y-43324D01*
X94014Y-43296D01*
X94028Y-43253D01*
X94042Y-43238D01*
X94014Y-42967D02*
X94014Y-43110D01*
X94157Y-43124D01*
X94142Y-43110D01*
X94128Y-43081D01*
X94128Y-43010D01*
X94142Y-42981D01*
X94157Y-42967D01*
X94185Y-42953D01*
X94257Y-42953D01*
X94285Y-42967D01*
X94300Y-42981D01*
X94314Y-43010D01*
X94314Y-43081D01*
X94300Y-43110D01*
X94285Y-43124D01*
X92888Y-45305D02*
X92902Y-45320D01*
X92916Y-45363D01*
X92916Y-45391D01*
X92902Y-45434D01*
X92873Y-45463D01*
X92845Y-45477D01*
X92788Y-45491D01*
X92745Y-45491D01*
X92688Y-45477D01*
X92659Y-45463D01*
X92630Y-45434D01*
X92616Y-45391D01*
X92616Y-45363D01*
X92630Y-45320D01*
X92645Y-45305D01*
X92716Y-45048D02*
X92916Y-45048D01*
X92602Y-45120D02*
X92816Y-45191D01*
X92816Y-45005D01*
X94344Y-47372D02*
X94359Y-47387D01*
X94373Y-47429D01*
X94373Y-47458D01*
X94359Y-47501D01*
X94330Y-47529D01*
X94301Y-47544D01*
X94244Y-47558D01*
X94201Y-47558D01*
X94144Y-47544D01*
X94116Y-47529D01*
X94087Y-47501D01*
X94073Y-47458D01*
X94073Y-47429D01*
X94087Y-47387D01*
X94101Y-47372D01*
X94073Y-47272D02*
X94073Y-47087D01*
X94187Y-47187D01*
X94187Y-47144D01*
X94201Y-47115D01*
X94216Y-47101D01*
X94244Y-47087D01*
X94316Y-47087D01*
X94344Y-47101D01*
X94359Y-47115D01*
X94373Y-47144D01*
X94373Y-47229D01*
X94359Y-47258D01*
X94344Y-47272D01*
X92907Y-49459D02*
X92922Y-49473D01*
X92936Y-49516D01*
X92936Y-49545D01*
X92922Y-49588D01*
X92893Y-49616D01*
X92864Y-49630D01*
X92807Y-49645D01*
X92764Y-49645D01*
X92707Y-49630D01*
X92679Y-49616D01*
X92650Y-49588D01*
X92636Y-49545D01*
X92636Y-49516D01*
X92650Y-49473D01*
X92664Y-49459D01*
X92664Y-49345D02*
X92650Y-49330D01*
X92636Y-49302D01*
X92636Y-49230D01*
X92650Y-49202D01*
X92664Y-49188D01*
X92693Y-49173D01*
X92722Y-49173D01*
X92764Y-49188D01*
X92936Y-49359D01*
X92936Y-49173D01*
X94521Y-51427D02*
X94536Y-51442D01*
X94550Y-51485D01*
X94550Y-51513D01*
X94536Y-51556D01*
X94507Y-51585D01*
X94479Y-51599D01*
X94421Y-51613D01*
X94379Y-51613D01*
X94321Y-51599D01*
X94293Y-51585D01*
X94264Y-51556D01*
X94250Y-51513D01*
X94250Y-51485D01*
X94264Y-51442D01*
X94279Y-51427D01*
X94550Y-51142D02*
X94550Y-51313D01*
X94550Y-51227D02*
X94250Y-51227D01*
X94293Y-51256D01*
X94321Y-51285D01*
X94336Y-51313D01*
X94561Y-54602D02*
X94575Y-54616D01*
X94589Y-54659D01*
X94589Y-54688D01*
X94575Y-54730D01*
X94547Y-54759D01*
X94518Y-54773D01*
X94461Y-54788D01*
X94418Y-54788D01*
X94361Y-54773D01*
X94332Y-54759D01*
X94304Y-54730D01*
X94289Y-54688D01*
X94289Y-54659D01*
X94304Y-54616D01*
X94318Y-54602D01*
X94589Y-54316D02*
X94589Y-54488D01*
X94589Y-54402D02*
X94289Y-54402D01*
X94332Y-54430D01*
X94361Y-54459D01*
X94375Y-54488D01*
X94418Y-54145D02*
X94404Y-54173D01*
X94389Y-54188D01*
X94361Y-54202D01*
X94347Y-54202D01*
X94318Y-54188D01*
X94304Y-54173D01*
X94289Y-54145D01*
X94289Y-54088D01*
X94304Y-54059D01*
X94318Y-54045D01*
X94347Y-54030D01*
X94361Y-54030D01*
X94389Y-54045D01*
X94404Y-54059D01*
X94418Y-54088D01*
X94418Y-54145D01*
X94432Y-54173D01*
X94447Y-54188D01*
X94475Y-54202D01*
X94532Y-54202D01*
X94561Y-54188D01*
X94575Y-54173D01*
X94589Y-54145D01*
X94589Y-54088D01*
X94575Y-54059D01*
X94561Y-54045D01*
X94532Y-54030D01*
X94475Y-54030D01*
X94447Y-54045D01*
X94432Y-54059D01*
X94418Y-54088D01*
X94581Y-58618D02*
X94595Y-58632D01*
X94609Y-58675D01*
X94609Y-58703D01*
X94595Y-58746D01*
X94566Y-58775D01*
X94538Y-58789D01*
X94481Y-58803D01*
X94438Y-58803D01*
X94381Y-58789D01*
X94352Y-58775D01*
X94323Y-58746D01*
X94309Y-58703D01*
X94309Y-58675D01*
X94323Y-58632D01*
X94338Y-58618D01*
X94609Y-58332D02*
X94609Y-58503D01*
X94609Y-58418D02*
X94309Y-58418D01*
X94352Y-58446D01*
X94381Y-58475D01*
X94395Y-58503D01*
X94309Y-58075D02*
X94309Y-58132D01*
X94323Y-58160D01*
X94338Y-58175D01*
X94381Y-58203D01*
X94438Y-58218D01*
X94552Y-58218D01*
X94581Y-58203D01*
X94595Y-58189D01*
X94609Y-58160D01*
X94609Y-58103D01*
X94595Y-58075D01*
X94581Y-58060D01*
X94552Y-58046D01*
X94481Y-58046D01*
X94452Y-58060D01*
X94438Y-58075D01*
X94423Y-58103D01*
X94423Y-58160D01*
X94438Y-58189D01*
X94452Y-58203D01*
X94481Y-58218D01*
X93301Y-60625D02*
X93315Y-60640D01*
X93330Y-60683D01*
X93330Y-60711D01*
X93315Y-60754D01*
X93287Y-60783D01*
X93258Y-60797D01*
X93201Y-60811D01*
X93158Y-60811D01*
X93101Y-60797D01*
X93072Y-60783D01*
X93044Y-60754D01*
X93030Y-60711D01*
X93030Y-60683D01*
X93044Y-60640D01*
X93058Y-60625D01*
X93330Y-60340D02*
X93330Y-60511D01*
X93330Y-60425D02*
X93030Y-60425D01*
X93072Y-60454D01*
X93101Y-60483D01*
X93115Y-60511D01*
X93030Y-60068D02*
X93030Y-60211D01*
X93172Y-60225D01*
X93158Y-60211D01*
X93144Y-60183D01*
X93144Y-60111D01*
X93158Y-60083D01*
X93172Y-60068D01*
X93201Y-60054D01*
X93272Y-60054D01*
X93301Y-60068D01*
X93315Y-60083D01*
X93330Y-60111D01*
X93330Y-60183D01*
X93315Y-60211D01*
X93301Y-60225D01*
X94600Y-62673D02*
X94615Y-62687D01*
X94629Y-62730D01*
X94629Y-62758D01*
X94615Y-62801D01*
X94586Y-62830D01*
X94557Y-62844D01*
X94500Y-62858D01*
X94457Y-62858D01*
X94400Y-62844D01*
X94372Y-62830D01*
X94343Y-62801D01*
X94329Y-62758D01*
X94329Y-62730D01*
X94343Y-62687D01*
X94357Y-62673D01*
X94629Y-62387D02*
X94629Y-62558D01*
X94629Y-62473D02*
X94329Y-62473D01*
X94372Y-62501D01*
X94400Y-62530D01*
X94415Y-62558D01*
X94429Y-62130D02*
X94629Y-62130D01*
X94315Y-62201D02*
X94529Y-62273D01*
X94529Y-62087D01*
X93262Y-64700D02*
X93276Y-64715D01*
X93290Y-64757D01*
X93290Y-64786D01*
X93276Y-64829D01*
X93247Y-64857D01*
X93219Y-64872D01*
X93162Y-64886D01*
X93119Y-64886D01*
X93062Y-64872D01*
X93033Y-64857D01*
X93005Y-64829D01*
X92990Y-64786D01*
X92990Y-64757D01*
X93005Y-64715D01*
X93019Y-64700D01*
X93290Y-64415D02*
X93290Y-64586D01*
X93290Y-64500D02*
X92990Y-64500D01*
X93033Y-64529D01*
X93062Y-64557D01*
X93076Y-64586D01*
X92990Y-64315D02*
X92990Y-64129D01*
X93105Y-64229D01*
X93105Y-64186D01*
X93119Y-64157D01*
X93133Y-64143D01*
X93162Y-64129D01*
X93233Y-64129D01*
X93262Y-64143D01*
X93276Y-64157D01*
X93290Y-64186D01*
X93290Y-64272D01*
X93276Y-64300D01*
X93262Y-64315D01*
X73645Y-63179D02*
X73502Y-63279D01*
X73645Y-63351D02*
X73345Y-63351D01*
X73345Y-63237D01*
X73359Y-63208D01*
X73373Y-63194D01*
X73402Y-63179D01*
X73445Y-63179D01*
X73473Y-63194D01*
X73487Y-63208D01*
X73502Y-63237D01*
X73502Y-63351D01*
X73373Y-63065D02*
X73359Y-63051D01*
X73345Y-63022D01*
X73345Y-62951D01*
X73359Y-62922D01*
X73373Y-62908D01*
X73402Y-62894D01*
X73430Y-62894D01*
X73473Y-62908D01*
X73645Y-63079D01*
X73645Y-62894D01*
X62750Y-53322D02*
X62764Y-53337D01*
X62778Y-53379D01*
X62778Y-53408D01*
X62764Y-53451D01*
X62736Y-53479D01*
X62707Y-53494D01*
X62650Y-53508D01*
X62607Y-53508D01*
X62550Y-53494D01*
X62521Y-53479D01*
X62493Y-53451D01*
X62478Y-53408D01*
X62478Y-53379D01*
X62493Y-53337D01*
X62507Y-53322D01*
X62578Y-53065D02*
X62778Y-53065D01*
X62464Y-53137D02*
X62678Y-53208D01*
X62678Y-53022D01*
X62778Y-52751D02*
X62778Y-52922D01*
X62778Y-52837D02*
X62478Y-52837D01*
X62521Y-52865D01*
X62550Y-52894D01*
X62564Y-52922D01*
G54D15*
X87538Y-69728D02*
X87538Y-69047D01*
X87701Y-69047D01*
X87742Y-69079D01*
X87762Y-69112D01*
X87782Y-69177D01*
X87782Y-69274D01*
X87762Y-69339D01*
X87742Y-69371D01*
X87701Y-69404D01*
X87538Y-69404D01*
X88027Y-69339D02*
X87986Y-69306D01*
X87966Y-69274D01*
X87946Y-69209D01*
X87946Y-69177D01*
X87966Y-69112D01*
X87986Y-69079D01*
X88027Y-69047D01*
X88109Y-69047D01*
X88149Y-69079D01*
X88170Y-69112D01*
X88190Y-69177D01*
X88190Y-69209D01*
X88170Y-69274D01*
X88149Y-69306D01*
X88109Y-69339D01*
X88027Y-69339D01*
X87986Y-69371D01*
X87966Y-69404D01*
X87946Y-69468D01*
X87946Y-69598D01*
X87966Y-69663D01*
X87986Y-69695D01*
X88027Y-69728D01*
X88109Y-69728D01*
X88149Y-69695D01*
X88170Y-69663D01*
X88190Y-69598D01*
X88190Y-69468D01*
X88170Y-69404D01*
X88149Y-69371D01*
X88109Y-69339D01*
G54D13*
G54D15*
X76967Y-33645D02*
X76967Y-32964D01*
X77130Y-32964D01*
X77171Y-32997D01*
X77191Y-33029D01*
X77212Y-33094D01*
X77212Y-33191D01*
X77191Y-33256D01*
X77171Y-33289D01*
X77130Y-33321D01*
X76967Y-33321D01*
X77578Y-33191D02*
X77578Y-33645D01*
X77477Y-32932D02*
X77375Y-33418D01*
X77640Y-33418D01*
G54D13*
G54D15*
X97653Y-43516D02*
X96972Y-43516D01*
X96972Y-43353D01*
X97005Y-43312D01*
X97037Y-43292D01*
X97102Y-43272D01*
X97199Y-43272D01*
X97264Y-43292D01*
X97296Y-43312D01*
X97329Y-43353D01*
X97329Y-43516D01*
X97653Y-42864D02*
X97653Y-43109D01*
X97653Y-42986D02*
X96972Y-42986D01*
X97069Y-43027D01*
X97134Y-43068D01*
X97167Y-43109D01*
G54D13*
G54D16*
X97563Y-50238D02*
X97592Y-50257D01*
X97620Y-50315D01*
X97620Y-50353D01*
X97592Y-50410D01*
X97535Y-50448D01*
X97477Y-50467D01*
X97363Y-50486D01*
X97277Y-50486D01*
X97163Y-50467D01*
X97106Y-50448D01*
X97049Y-50410D01*
X97020Y-50353D01*
X97020Y-50315D01*
X97049Y-50257D01*
X97077Y-50238D01*
X97020Y-49991D02*
X97020Y-49915D01*
X97049Y-49876D01*
X97106Y-49838D01*
X97220Y-49819D01*
X97420Y-49819D01*
X97535Y-49838D01*
X97592Y-49876D01*
X97620Y-49915D01*
X97620Y-49991D01*
X97592Y-50029D01*
X97535Y-50067D01*
X97420Y-50086D01*
X97220Y-50086D01*
X97106Y-50067D01*
X97049Y-50029D01*
X97020Y-49991D01*
X97620Y-49648D02*
X97020Y-49648D01*
X97620Y-49419D01*
X97020Y-49419D01*
X97620Y-49229D02*
X97020Y-49229D01*
X97620Y-49000D01*
X97020Y-49000D01*
X97677Y-48905D02*
X97677Y-48600D01*
X97620Y-48296D02*
X97620Y-48524D01*
X97620Y-48410D02*
X97020Y-48410D01*
X97106Y-48448D01*
X97163Y-48486D01*
X97192Y-48524D01*
X97077Y-48143D02*
X97049Y-48124D01*
X97020Y-48086D01*
X97020Y-47991D01*
X97049Y-47953D01*
X97077Y-47934D01*
X97135Y-47915D01*
X97192Y-47915D01*
X97277Y-47934D01*
X97620Y-48162D01*
X97620Y-47915D01*
G54D13*
G54D15*
X60082Y-62154D02*
X59401Y-62154D01*
X59401Y-61991D01*
X59434Y-61950D01*
X59466Y-61930D01*
X59531Y-61909D01*
X59628Y-61909D01*
X59693Y-61930D01*
X59726Y-61950D01*
X59758Y-61991D01*
X59758Y-62154D01*
X59401Y-61543D02*
X59401Y-61624D01*
X59434Y-61665D01*
X59466Y-61685D01*
X59563Y-61726D01*
X59693Y-61746D01*
X59953Y-61746D01*
X60017Y-61726D01*
X60050Y-61706D01*
X60082Y-61665D01*
X60082Y-61583D01*
X60050Y-61543D01*
X60017Y-61522D01*
X59953Y-61502D01*
X59790Y-61502D01*
X59726Y-61522D01*
X59693Y-61543D01*
X59661Y-61583D01*
X59661Y-61665D01*
X59693Y-61706D01*
X59726Y-61726D01*
X59790Y-61746D01*
G54D13*
G54D16*
X59992Y-56876D02*
X60021Y-56895D01*
X60049Y-56952D01*
X60049Y-56990D01*
X60021Y-57048D01*
X59964Y-57086D01*
X59907Y-57105D01*
X59792Y-57124D01*
X59707Y-57124D01*
X59592Y-57105D01*
X59535Y-57086D01*
X59478Y-57048D01*
X59449Y-56990D01*
X59449Y-56952D01*
X59478Y-56895D01*
X59507Y-56876D01*
X59449Y-56629D02*
X59449Y-56552D01*
X59478Y-56514D01*
X59535Y-56476D01*
X59649Y-56457D01*
X59849Y-56457D01*
X59964Y-56476D01*
X60021Y-56514D01*
X60049Y-56552D01*
X60049Y-56629D01*
X60021Y-56667D01*
X59964Y-56705D01*
X59849Y-56724D01*
X59649Y-56724D01*
X59535Y-56705D01*
X59478Y-56667D01*
X59449Y-56629D01*
X60049Y-56286D02*
X59449Y-56286D01*
X60049Y-56057D01*
X59449Y-56057D01*
X60049Y-55867D02*
X59449Y-55867D01*
X60049Y-55638D01*
X59449Y-55638D01*
X60107Y-55543D02*
X60107Y-55238D01*
X60049Y-54933D02*
X60049Y-55162D01*
X60049Y-55048D02*
X59449Y-55048D01*
X59535Y-55086D01*
X59592Y-55124D01*
X59621Y-55162D01*
X59507Y-54781D02*
X59478Y-54762D01*
X59449Y-54724D01*
X59449Y-54629D01*
X59478Y-54590D01*
X59507Y-54571D01*
X59564Y-54552D01*
X59621Y-54552D01*
X59707Y-54571D01*
X60049Y-54800D01*
X60049Y-54552D01*
G54D13*
G54D15*
X60063Y-48611D02*
X59382Y-48611D01*
X59382Y-48448D01*
X59414Y-48407D01*
X59446Y-48386D01*
X59511Y-48366D01*
X59609Y-48366D01*
X59673Y-48386D01*
X59706Y-48407D01*
X59738Y-48448D01*
X59738Y-48611D01*
X59382Y-47979D02*
X59382Y-48183D01*
X59706Y-48203D01*
X59673Y-48183D01*
X59641Y-48142D01*
X59641Y-48040D01*
X59673Y-47999D01*
X59706Y-47979D01*
X59771Y-47958D01*
X59933Y-47958D01*
X59998Y-47979D01*
X60030Y-47999D01*
X60063Y-48040D01*
X60063Y-48142D01*
X60030Y-48183D01*
X59998Y-48203D01*
G54D13*
G54D16*
X59973Y-43333D02*
X60001Y-43352D01*
X60030Y-43409D01*
X60030Y-43447D01*
X60001Y-43504D01*
X59944Y-43542D01*
X59887Y-43561D01*
X59773Y-43580D01*
X59687Y-43580D01*
X59573Y-43561D01*
X59515Y-43542D01*
X59458Y-43504D01*
X59430Y-43447D01*
X59430Y-43409D01*
X59458Y-43352D01*
X59487Y-43333D01*
X59430Y-43085D02*
X59430Y-43009D01*
X59458Y-42971D01*
X59515Y-42933D01*
X59630Y-42914D01*
X59830Y-42914D01*
X59944Y-42933D01*
X60001Y-42971D01*
X60030Y-43009D01*
X60030Y-43085D01*
X60001Y-43123D01*
X59944Y-43161D01*
X59830Y-43180D01*
X59630Y-43180D01*
X59515Y-43161D01*
X59458Y-43123D01*
X59430Y-43085D01*
X60030Y-42742D02*
X59430Y-42742D01*
X60030Y-42514D01*
X59430Y-42514D01*
X60030Y-42323D02*
X59430Y-42323D01*
X60030Y-42095D01*
X59430Y-42095D01*
X60087Y-42000D02*
X60087Y-41695D01*
X60030Y-41390D02*
X60030Y-41619D01*
X60030Y-41504D02*
X59430Y-41504D01*
X59515Y-41542D01*
X59573Y-41580D01*
X59601Y-41619D01*
X59487Y-41238D02*
X59458Y-41219D01*
X59430Y-41180D01*
X59430Y-41085D01*
X59458Y-41047D01*
X59487Y-41028D01*
X59544Y-41009D01*
X59601Y-41009D01*
X59687Y-41028D01*
X60030Y-41257D01*
X60030Y-41009D01*
G54D13*
G54D15*
X73928Y-69728D02*
X73928Y-69047D01*
X74091Y-69047D01*
X74131Y-69079D01*
X74152Y-69112D01*
X74172Y-69177D01*
X74172Y-69274D01*
X74152Y-69339D01*
X74131Y-69371D01*
X74091Y-69404D01*
X73928Y-69404D01*
X74315Y-69047D02*
X74580Y-69047D01*
X74437Y-69306D01*
X74498Y-69306D01*
X74539Y-69339D01*
X74559Y-69371D01*
X74580Y-69436D01*
X74580Y-69598D01*
X74559Y-69663D01*
X74539Y-69695D01*
X74498Y-69728D01*
X74376Y-69728D01*
X74335Y-69695D01*
X74315Y-69663D01*
G54D13*
G54D16*
X79205Y-69638D02*
X79186Y-69667D01*
X79129Y-69695D01*
X79091Y-69695D01*
X79034Y-69667D01*
X78996Y-69609D01*
X78977Y-69552D01*
X78958Y-69438D01*
X78958Y-69352D01*
X78977Y-69238D01*
X78996Y-69181D01*
X79034Y-69124D01*
X79091Y-69095D01*
X79129Y-69095D01*
X79186Y-69124D01*
X79205Y-69152D01*
X79453Y-69095D02*
X79529Y-69095D01*
X79567Y-69124D01*
X79605Y-69181D01*
X79625Y-69295D01*
X79625Y-69495D01*
X79605Y-69609D01*
X79567Y-69667D01*
X79529Y-69695D01*
X79453Y-69695D01*
X79415Y-69667D01*
X79377Y-69609D01*
X79358Y-69495D01*
X79358Y-69295D01*
X79377Y-69181D01*
X79415Y-69124D01*
X79453Y-69095D01*
X79796Y-69695D02*
X79796Y-69095D01*
X80025Y-69695D01*
X80025Y-69095D01*
X80215Y-69695D02*
X80215Y-69095D01*
X80444Y-69695D01*
X80444Y-69095D01*
X80539Y-69752D02*
X80844Y-69752D01*
X81148Y-69695D02*
X80920Y-69695D01*
X81034Y-69695D02*
X81034Y-69095D01*
X80996Y-69181D01*
X80958Y-69238D01*
X80920Y-69267D01*
X81529Y-69695D02*
X81301Y-69695D01*
X81415Y-69695D02*
X81415Y-69095D01*
X81377Y-69181D01*
X81339Y-69238D01*
X81301Y-69267D01*
G54D13*
G54D15*
X97633Y-57276D02*
X96952Y-57276D01*
X96952Y-57113D01*
X96985Y-57072D01*
X97017Y-57052D01*
X97082Y-57031D01*
X97179Y-57031D01*
X97244Y-57052D01*
X97277Y-57072D01*
X97309Y-57113D01*
X97309Y-57276D01*
X97017Y-56868D02*
X96985Y-56848D01*
X96952Y-56807D01*
X96952Y-56705D01*
X96985Y-56665D01*
X97017Y-56644D01*
X97082Y-56624D01*
X97147Y-56624D01*
X97244Y-56644D01*
X97633Y-56889D01*
X97633Y-56624D01*
G54D13*
G54D16*
X97543Y-63998D02*
X97572Y-64017D01*
X97601Y-64074D01*
X97601Y-64113D01*
X97572Y-64170D01*
X97515Y-64208D01*
X97458Y-64227D01*
X97343Y-64246D01*
X97258Y-64246D01*
X97143Y-64227D01*
X97086Y-64208D01*
X97029Y-64170D01*
X97001Y-64113D01*
X97001Y-64074D01*
X97029Y-64017D01*
X97058Y-63998D01*
X97001Y-63751D02*
X97001Y-63674D01*
X97029Y-63636D01*
X97086Y-63598D01*
X97201Y-63579D01*
X97401Y-63579D01*
X97515Y-63598D01*
X97572Y-63636D01*
X97601Y-63674D01*
X97601Y-63751D01*
X97572Y-63789D01*
X97515Y-63827D01*
X97401Y-63846D01*
X97201Y-63846D01*
X97086Y-63827D01*
X97029Y-63789D01*
X97001Y-63751D01*
X97601Y-63408D02*
X97001Y-63408D01*
X97601Y-63179D01*
X97001Y-63179D01*
X97601Y-62989D02*
X97001Y-62989D01*
X97601Y-62760D01*
X97001Y-62760D01*
X97658Y-62665D02*
X97658Y-62360D01*
X97601Y-62055D02*
X97601Y-62284D01*
X97601Y-62170D02*
X97001Y-62170D01*
X97086Y-62208D01*
X97143Y-62246D01*
X97172Y-62284D01*
X97058Y-61903D02*
X97029Y-61884D01*
X97001Y-61846D01*
X97001Y-61751D01*
X97029Y-61713D01*
X97058Y-61693D01*
X97115Y-61674D01*
X97172Y-61674D01*
X97258Y-61693D01*
X97601Y-61922D01*
X97601Y-61674D01*
G54D13*
G54D10*
X76722Y-64916D02*
X77041Y-64916D01*
X77078Y-64897D01*
X77097Y-64879D01*
X77116Y-64841D01*
X77116Y-64766D01*
X77097Y-64729D01*
X77078Y-64710D01*
X77041Y-64691D01*
X76722Y-64691D01*
X76759Y-64522D02*
X76741Y-64504D01*
X76722Y-64466D01*
X76722Y-64372D01*
X76741Y-64335D01*
X76759Y-64316D01*
X76797Y-64297D01*
X76834Y-64297D01*
X76891Y-64316D01*
X77116Y-64541D01*
X77116Y-64297D01*
X76722Y-63960D02*
X76722Y-64035D01*
X76741Y-64072D01*
X76759Y-64091D01*
X76816Y-64129D01*
X76891Y-64147D01*
X77041Y-64147D01*
X77078Y-64129D01*
X77097Y-64110D01*
X77116Y-64072D01*
X77116Y-63997D01*
X77097Y-63960D01*
X77078Y-63941D01*
X77041Y-63922D01*
X76947Y-63922D01*
X76909Y-63941D01*
X76891Y-63960D01*
X76872Y-63997D01*
X76872Y-64072D01*
X76891Y-64110D01*
X76909Y-64129D01*
X76947Y-64147D01*
X78336Y-65921D02*
X77942Y-65921D01*
X77942Y-65771D01*
X77961Y-65733D01*
X77980Y-65714D01*
X78017Y-65696D01*
X78074Y-65696D01*
X78111Y-65714D01*
X78130Y-65733D01*
X78149Y-65771D01*
X78149Y-65921D01*
X78336Y-65527D02*
X77942Y-65527D01*
X78299Y-65114D02*
X78317Y-65133D01*
X78336Y-65189D01*
X78336Y-65227D01*
X78317Y-65283D01*
X78280Y-65321D01*
X78242Y-65339D01*
X78167Y-65358D01*
X78111Y-65358D01*
X78036Y-65339D01*
X77999Y-65321D01*
X77961Y-65283D01*
X77942Y-65227D01*
X77942Y-65189D01*
X77961Y-65133D01*
X77980Y-65114D01*
X78336Y-64739D02*
X78336Y-64964D01*
X78336Y-64852D02*
X77942Y-64852D01*
X77999Y-64889D01*
X78036Y-64927D01*
X78055Y-64964D01*
X77942Y-64402D02*
X77942Y-64477D01*
X77961Y-64514D01*
X77980Y-64533D01*
X78036Y-64571D01*
X78111Y-64589D01*
X78261Y-64589D01*
X78299Y-64571D01*
X78317Y-64552D01*
X78336Y-64514D01*
X78336Y-64440D01*
X78317Y-64402D01*
X78299Y-64383D01*
X78261Y-64365D01*
X78167Y-64365D01*
X78130Y-64383D01*
X78111Y-64402D01*
X78092Y-64440D01*
X78092Y-64514D01*
X78111Y-64552D01*
X78130Y-64571D01*
X78167Y-64589D01*
X78130Y-64065D02*
X78130Y-64196D01*
X78336Y-64196D02*
X77942Y-64196D01*
X77942Y-64008D01*
X77942Y-63896D02*
X77942Y-63633D01*
X78336Y-63802D01*
X77980Y-63502D02*
X77961Y-63483D01*
X77942Y-63446D01*
X77942Y-63352D01*
X77961Y-63315D01*
X77980Y-63296D01*
X78017Y-63277D01*
X78055Y-63277D01*
X78111Y-63296D01*
X78336Y-63521D01*
X78336Y-63277D01*
X77942Y-63033D02*
X77942Y-62996D01*
X77961Y-62958D01*
X77980Y-62940D01*
X78017Y-62921D01*
X78092Y-62902D01*
X78186Y-62902D01*
X78261Y-62921D01*
X78299Y-62940D01*
X78317Y-62958D01*
X78336Y-62996D01*
X78336Y-63033D01*
X78317Y-63071D01*
X78299Y-63090D01*
X78261Y-63108D01*
X78186Y-63127D01*
X78092Y-63127D01*
X78017Y-63108D01*
X77980Y-63090D01*
X77961Y-63071D01*
X77942Y-63033D01*
X76702Y-39621D02*
X77021Y-39621D01*
X77058Y-39602D01*
X77077Y-39583D01*
X77096Y-39546D01*
X77096Y-39471D01*
X77077Y-39433D01*
X77058Y-39415D01*
X77021Y-39396D01*
X76702Y-39396D01*
X77096Y-39002D02*
X77096Y-39227D01*
X77096Y-39115D02*
X76702Y-39115D01*
X76758Y-39152D01*
X76796Y-39190D01*
X76815Y-39227D01*
X76702Y-38871D02*
X76702Y-38627D01*
X76852Y-38758D01*
X76852Y-38702D01*
X76871Y-38665D01*
X76890Y-38646D01*
X76927Y-38627D01*
X77021Y-38627D01*
X77058Y-38646D01*
X77077Y-38665D01*
X77096Y-38702D01*
X77096Y-38815D01*
X77077Y-38852D01*
X77058Y-38871D01*
X78316Y-40625D02*
X77923Y-40625D01*
X77923Y-40475D01*
X77941Y-40438D01*
X77960Y-40419D01*
X77998Y-40400D01*
X78054Y-40400D01*
X78091Y-40419D01*
X78110Y-40438D01*
X78129Y-40475D01*
X78129Y-40625D01*
X78316Y-40232D02*
X77923Y-40232D01*
X78279Y-39819D02*
X78298Y-39838D01*
X78316Y-39894D01*
X78316Y-39932D01*
X78298Y-39988D01*
X78260Y-40025D01*
X78223Y-40044D01*
X78148Y-40063D01*
X78091Y-40063D01*
X78016Y-40044D01*
X77979Y-40025D01*
X77941Y-39988D01*
X77923Y-39932D01*
X77923Y-39894D01*
X77941Y-39838D01*
X77960Y-39819D01*
X78316Y-39444D02*
X78316Y-39669D01*
X78316Y-39557D02*
X77923Y-39557D01*
X77979Y-39594D01*
X78016Y-39632D01*
X78035Y-39669D01*
X77923Y-39107D02*
X77923Y-39182D01*
X77941Y-39219D01*
X77960Y-39238D01*
X78016Y-39275D01*
X78091Y-39294D01*
X78241Y-39294D01*
X78279Y-39275D01*
X78298Y-39257D01*
X78316Y-39219D01*
X78316Y-39144D01*
X78298Y-39107D01*
X78279Y-39088D01*
X78241Y-39069D01*
X78148Y-39069D01*
X78110Y-39088D01*
X78091Y-39107D01*
X78073Y-39144D01*
X78073Y-39219D01*
X78091Y-39257D01*
X78110Y-39275D01*
X78148Y-39294D01*
X78110Y-38769D02*
X78110Y-38901D01*
X78316Y-38901D02*
X77923Y-38901D01*
X77923Y-38713D01*
X77923Y-38601D02*
X77923Y-38338D01*
X78316Y-38507D01*
X77960Y-38207D02*
X77941Y-38188D01*
X77923Y-38151D01*
X77923Y-38057D01*
X77941Y-38019D01*
X77960Y-38001D01*
X77998Y-37982D01*
X78035Y-37982D01*
X78091Y-38001D01*
X78316Y-38226D01*
X78316Y-37982D01*
X77923Y-37738D02*
X77923Y-37701D01*
X77941Y-37663D01*
X77960Y-37644D01*
X77998Y-37626D01*
X78073Y-37607D01*
X78166Y-37607D01*
X78241Y-37626D01*
X78279Y-37644D01*
X78298Y-37663D01*
X78316Y-37701D01*
X78316Y-37738D01*
X78298Y-37776D01*
X78279Y-37794D01*
X78241Y-37813D01*
X78166Y-37832D01*
X78073Y-37832D01*
X77998Y-37813D01*
X77960Y-37794D01*
X77941Y-37776D01*
X77923Y-37738D01*
G54D15*
X83896Y-35094D02*
X83896Y-34413D01*
X84059Y-34413D01*
X84100Y-34445D01*
X84120Y-34478D01*
X84141Y-34543D01*
X84141Y-34640D01*
X84120Y-34705D01*
X84100Y-34737D01*
X84059Y-34770D01*
X83896Y-34770D01*
X84283Y-34413D02*
X84569Y-34413D01*
X84385Y-35094D01*
G54D13*
G54D15*
X70727Y-35074D02*
X70727Y-34393D01*
X70890Y-34393D01*
X70931Y-34426D01*
X70951Y-34458D01*
X70971Y-34523D01*
X70971Y-34620D01*
X70951Y-34685D01*
X70931Y-34718D01*
X70890Y-34750D01*
X70727Y-34750D01*
X71175Y-35074D02*
X71257Y-35074D01*
X71298Y-35042D01*
X71318Y-35009D01*
X71359Y-34912D01*
X71379Y-34782D01*
X71379Y-34523D01*
X71359Y-34458D01*
X71338Y-34426D01*
X71298Y-34393D01*
X71216Y-34393D01*
X71175Y-34426D01*
X71155Y-34458D01*
X71135Y-34523D01*
X71135Y-34685D01*
X71155Y-34750D01*
X71175Y-34782D01*
X71216Y-34815D01*
X71298Y-34815D01*
X71338Y-34782D01*
X71359Y-34750D01*
X71379Y-34685D01*
G54D13*
G54D15*
X64342Y-69708D02*
X64342Y-69027D01*
X64505Y-69027D01*
X64546Y-69060D01*
X64566Y-69092D01*
X64587Y-69157D01*
X64587Y-69254D01*
X64566Y-69319D01*
X64546Y-69351D01*
X64505Y-69384D01*
X64342Y-69384D01*
X64994Y-69708D02*
X64750Y-69708D01*
X64872Y-69708D02*
X64872Y-69027D01*
X64831Y-69124D01*
X64790Y-69189D01*
X64750Y-69222D01*
X65157Y-69092D02*
X65178Y-69060D01*
X65218Y-69027D01*
X65320Y-69027D01*
X65361Y-69060D01*
X65381Y-69092D01*
X65402Y-69157D01*
X65402Y-69222D01*
X65381Y-69319D01*
X65137Y-69708D01*
X65402Y-69708D01*
X91704Y-69708D02*
X91704Y-69027D01*
X91867Y-69027D01*
X91908Y-69060D01*
X91928Y-69092D01*
X91949Y-69157D01*
X91949Y-69254D01*
X91928Y-69319D01*
X91908Y-69351D01*
X91867Y-69384D01*
X91704Y-69384D01*
X92356Y-69708D02*
X92112Y-69708D01*
X92234Y-69708D02*
X92234Y-69027D01*
X92193Y-69124D01*
X92153Y-69189D01*
X92112Y-69222D01*
X92621Y-69027D02*
X92662Y-69027D01*
X92703Y-69060D01*
X92723Y-69092D01*
X92744Y-69157D01*
X92764Y-69287D01*
X92764Y-69449D01*
X92744Y-69578D01*
X92723Y-69643D01*
X92703Y-69676D01*
X92662Y-69708D01*
X92621Y-69708D01*
X92581Y-69676D01*
X92560Y-69643D01*
X92540Y-69578D01*
X92519Y-69449D01*
X92519Y-69287D01*
X92540Y-69157D01*
X92560Y-69092D01*
X92581Y-69060D01*
X92621Y-69027D01*
X63122Y-33818D02*
X63122Y-33137D01*
X63285Y-33137D01*
X63325Y-33170D01*
X63346Y-33202D01*
X63366Y-33267D01*
X63366Y-33364D01*
X63346Y-33429D01*
X63325Y-33462D01*
X63285Y-33494D01*
X63122Y-33494D01*
X63774Y-33818D02*
X63529Y-33818D01*
X63651Y-33818D02*
X63651Y-33137D01*
X63611Y-33235D01*
X63570Y-33300D01*
X63529Y-33332D01*
X63916Y-33137D02*
X64181Y-33137D01*
X64039Y-33397D01*
X64100Y-33397D01*
X64141Y-33429D01*
X64161Y-33462D01*
X64181Y-33527D01*
X64181Y-33689D01*
X64161Y-33754D01*
X64141Y-33786D01*
X64100Y-33818D01*
X63978Y-33818D01*
X63937Y-33786D01*
X63916Y-33754D01*
X90523Y-33759D02*
X90523Y-33078D01*
X90686Y-33078D01*
X90727Y-33111D01*
X90747Y-33143D01*
X90768Y-33208D01*
X90768Y-33305D01*
X90747Y-33370D01*
X90727Y-33403D01*
X90686Y-33435D01*
X90523Y-33435D01*
X91175Y-33759D02*
X90931Y-33759D01*
X91053Y-33759D02*
X91053Y-33078D01*
X91012Y-33176D01*
X90971Y-33241D01*
X90931Y-33273D01*
X91583Y-33759D02*
X91338Y-33759D01*
X91461Y-33759D02*
X91461Y-33078D01*
X91420Y-33176D01*
X91379Y-33241D01*
X91338Y-33273D01*
X78633Y-50378D02*
X78633Y-49697D01*
X78796Y-49697D01*
X78837Y-49729D01*
X78858Y-49761D01*
X78878Y-49826D01*
X78878Y-49924D01*
X78858Y-49988D01*
X78837Y-50021D01*
X78796Y-50053D01*
X78633Y-50053D01*
X79286Y-50378D02*
X79041Y-50378D01*
X79163Y-50378D02*
X79163Y-49697D01*
X79122Y-49794D01*
X79082Y-49859D01*
X79041Y-49891D01*
X79652Y-49924D02*
X79652Y-50378D01*
X79550Y-49664D02*
X79449Y-50151D01*
X79714Y-50151D01*
X65622Y-50594D02*
X65622Y-49913D01*
X65785Y-49913D01*
X65825Y-49945D01*
X65846Y-49978D01*
X65866Y-50043D01*
X65866Y-50140D01*
X65846Y-50205D01*
X65825Y-50237D01*
X65785Y-50270D01*
X65622Y-50270D01*
X66274Y-50594D02*
X66029Y-50594D01*
X66151Y-50594D02*
X66151Y-49913D01*
X66111Y-50010D01*
X66070Y-50075D01*
X66029Y-50108D01*
X66641Y-49913D02*
X66559Y-49913D01*
X66518Y-49945D01*
X66498Y-49978D01*
X66457Y-50075D01*
X66437Y-50205D01*
X66437Y-50464D01*
X66457Y-50529D01*
X66478Y-50562D01*
X66518Y-50594D01*
X66600Y-50594D01*
X66641Y-50562D01*
X66661Y-50529D01*
X66681Y-50464D01*
X66681Y-50302D01*
X66661Y-50237D01*
X66641Y-50205D01*
X66600Y-50172D01*
X66518Y-50172D01*
X66478Y-50205D01*
X66457Y-50237D01*
X66437Y-50302D01*
X88397Y-47878D02*
X88397Y-47197D01*
X88560Y-47197D01*
X88601Y-47229D01*
X88621Y-47261D01*
X88642Y-47326D01*
X88642Y-47424D01*
X88621Y-47488D01*
X88601Y-47521D01*
X88560Y-47553D01*
X88397Y-47553D01*
X89049Y-47878D02*
X88805Y-47878D01*
X88927Y-47878D02*
X88927Y-47197D01*
X88886Y-47294D01*
X88845Y-47359D01*
X88805Y-47391D01*
X89437Y-47197D02*
X89233Y-47197D01*
X89212Y-47521D01*
X89233Y-47488D01*
X89273Y-47456D01*
X89375Y-47456D01*
X89416Y-47488D01*
X89437Y-47521D01*
X89457Y-47586D01*
X89457Y-47748D01*
X89437Y-47813D01*
X89416Y-47845D01*
X89375Y-47878D01*
X89273Y-47878D01*
X89233Y-47845D01*
X89212Y-47813D01*
M02*
