G04 (created by PCBNEW (2013-07-07 BZR 4022)-stable) date 03/03/2017 11:17:35 AM*
%MOIN*%
G04 Gerber Fmt 3.4, Leading zero omitted, Abs format*
%FSLAX34Y34*%
G01*
G70*
G90*
G04 APERTURE LIST*
%ADD10C,0.00590551*%
%ADD11R,0.08X0.06*%
%ADD12R,0.06X0.08*%
%ADD13R,0.055X0.055*%
%ADD14C,0.055*%
%ADD15C,0.0787402*%
%ADD16C,0.035*%
%ADD17C,0.01*%
%ADD18C,0.023622*%
%ADD19C,0.0393701*%
G04 APERTURE END LIST*
G54D10*
G54D11*
X64488Y-59508D03*
X64488Y-58208D03*
X64429Y-65236D03*
X64429Y-63936D03*
X64468Y-62264D03*
X64468Y-60964D03*
X64527Y-50453D03*
X64527Y-49153D03*
X64527Y-44882D03*
X64527Y-43582D03*
X64488Y-42146D03*
X64488Y-40846D03*
G54D12*
X66101Y-69625D03*
X67401Y-69625D03*
X66062Y-34074D03*
X67362Y-34074D03*
G54D11*
X64468Y-56398D03*
X64468Y-55098D03*
X64507Y-53583D03*
X64507Y-52283D03*
X91673Y-46515D03*
X91673Y-47815D03*
X91673Y-49192D03*
X91673Y-50492D03*
X91673Y-43739D03*
X91673Y-45039D03*
X91653Y-41101D03*
X91653Y-42401D03*
X91653Y-38483D03*
X91653Y-39783D03*
G54D12*
X89901Y-34251D03*
X88601Y-34251D03*
G54D11*
X91751Y-66259D03*
X91751Y-67559D03*
X64468Y-47716D03*
X64468Y-46416D03*
X91732Y-63444D03*
X91732Y-64744D03*
X91732Y-57381D03*
X91732Y-58681D03*
X91732Y-60275D03*
X91732Y-61575D03*
X91732Y-54468D03*
X91732Y-55768D03*
X91712Y-51889D03*
X91712Y-53189D03*
X64507Y-39488D03*
X64507Y-38188D03*
G54D13*
X85354Y-70452D03*
G54D14*
X86354Y-70452D03*
X87354Y-70452D03*
X88354Y-70452D03*
X89354Y-70452D03*
X90354Y-70452D03*
G54D13*
X74783Y-34370D03*
G54D14*
X75783Y-34370D03*
X76783Y-34370D03*
X77783Y-34370D03*
X78783Y-34370D03*
X79783Y-34370D03*
G54D13*
X96377Y-40700D03*
G54D14*
X96377Y-41700D03*
X96377Y-42700D03*
X96377Y-43700D03*
X96377Y-44700D03*
X96377Y-45700D03*
X96377Y-46700D03*
X96377Y-47700D03*
X96377Y-48700D03*
X96377Y-49700D03*
X96377Y-50700D03*
X96377Y-51700D03*
G54D13*
X60807Y-64338D03*
G54D14*
X60807Y-63338D03*
X60807Y-62338D03*
X60807Y-61338D03*
X60807Y-60338D03*
X60807Y-59338D03*
X60807Y-58338D03*
X60807Y-57338D03*
X60807Y-56338D03*
X60807Y-55338D03*
X60807Y-54338D03*
X60807Y-53338D03*
G54D13*
X60787Y-50795D03*
G54D14*
X60787Y-49795D03*
X60787Y-48795D03*
X60787Y-47795D03*
X60787Y-46795D03*
X60787Y-45795D03*
X60787Y-44795D03*
X60787Y-43795D03*
X60787Y-42795D03*
X60787Y-41795D03*
X60787Y-40795D03*
X60787Y-39795D03*
G54D13*
X71744Y-70452D03*
G54D14*
X72744Y-70452D03*
X73744Y-70452D03*
X74744Y-70452D03*
X75744Y-70452D03*
X76744Y-70452D03*
X77744Y-70452D03*
X78744Y-70452D03*
X79744Y-70452D03*
X80744Y-70452D03*
X81744Y-70452D03*
X82744Y-70452D03*
G54D13*
X96358Y-54460D03*
G54D14*
X96358Y-55460D03*
X96358Y-56460D03*
X96358Y-57460D03*
X96358Y-58460D03*
X96358Y-59460D03*
X96358Y-60460D03*
X96358Y-61460D03*
X96358Y-62460D03*
X96358Y-63460D03*
X96358Y-64460D03*
X96358Y-65460D03*
G54D15*
X73925Y-42980D03*
X81019Y-42972D03*
X73925Y-58984D03*
X81019Y-58976D03*
X73925Y-48275D03*
X81019Y-48267D03*
X73925Y-53767D03*
X81019Y-53759D03*
G54D13*
X84712Y-33818D03*
G54D14*
X83712Y-33818D03*
G54D13*
X71543Y-33799D03*
G54D14*
X70543Y-33799D03*
G54D13*
X64862Y-70433D03*
X92224Y-70433D03*
X64862Y-33405D03*
X92224Y-33425D03*
X79153Y-51102D03*
X66141Y-51318D03*
X88917Y-48602D03*
G54D16*
X86358Y-69311D03*
X90669Y-69153D03*
X90708Y-66240D03*
X90728Y-63326D03*
X90885Y-60216D03*
X90885Y-57283D03*
X90885Y-35413D03*
X90885Y-38425D03*
X90866Y-41082D03*
X90866Y-43740D03*
X90885Y-46476D03*
X90885Y-49232D03*
X90885Y-51791D03*
X90885Y-56535D03*
X90905Y-54370D03*
X74645Y-56515D03*
X74527Y-62027D03*
X75098Y-37007D03*
X75157Y-43188D03*
X79389Y-43149D03*
X79763Y-56535D03*
X65472Y-68464D03*
X65472Y-65629D03*
X65846Y-62913D03*
X65374Y-59488D03*
X65374Y-56515D03*
X65354Y-53661D03*
X65354Y-50472D03*
X65354Y-47952D03*
X65354Y-44881D03*
X65354Y-42185D03*
X65374Y-39488D03*
X65374Y-37342D03*
X78700Y-38051D03*
X77775Y-37578D03*
X74763Y-36023D03*
X76437Y-36062D03*
X76417Y-38562D03*
X84114Y-38622D03*
X83877Y-68070D03*
X78740Y-68070D03*
X77578Y-38031D03*
X76751Y-37539D03*
X83799Y-49744D03*
X83661Y-40610D03*
X83425Y-46988D03*
X83405Y-41102D03*
X83090Y-44212D03*
X83090Y-41574D03*
X83661Y-35925D03*
X83700Y-39586D03*
X82992Y-66751D03*
X83700Y-40059D03*
X83405Y-63838D03*
X83405Y-60374D03*
X77972Y-60196D03*
X77933Y-40039D03*
X77381Y-60688D03*
X77342Y-39547D03*
X77047Y-57696D03*
X77125Y-38779D03*
X78307Y-54881D03*
X78287Y-40531D03*
X78641Y-52303D03*
X78622Y-41043D03*
X89311Y-68622D03*
X81476Y-68405D03*
X81279Y-63444D03*
X88346Y-68956D03*
X81791Y-68976D03*
X81476Y-62972D03*
X85314Y-69311D03*
X83346Y-69291D03*
X83484Y-67755D03*
X74291Y-67755D03*
X74188Y-63834D03*
X73759Y-68759D03*
X81003Y-68444D03*
X80964Y-63877D03*
X72736Y-68070D03*
X76397Y-68070D03*
X76437Y-63346D03*
X72047Y-68385D03*
X77066Y-68346D03*
X77066Y-62834D03*
X72480Y-36259D03*
X72460Y-44251D03*
X75669Y-44232D03*
X75905Y-61358D03*
X78326Y-61397D03*
X78346Y-65826D03*
X72145Y-39055D03*
X72145Y-44586D03*
X76003Y-44625D03*
X76181Y-61003D03*
X78011Y-61043D03*
X78011Y-66338D03*
X71811Y-41673D03*
X71811Y-44960D03*
X76338Y-45019D03*
X76397Y-58248D03*
X77066Y-58248D03*
X77381Y-66850D03*
X71456Y-44448D03*
X72283Y-66259D03*
X75354Y-47263D03*
X75039Y-59350D03*
X80649Y-59606D03*
X80669Y-64330D03*
X75354Y-49960D03*
X75354Y-59803D03*
X80334Y-60019D03*
X80374Y-64842D03*
X78622Y-53188D03*
X78661Y-65334D03*
X71811Y-56043D03*
X72027Y-65295D03*
X72125Y-59015D03*
X72303Y-64940D03*
X72460Y-61929D03*
X72618Y-64606D03*
X72303Y-68011D03*
X72795Y-66338D03*
X86082Y-36417D03*
X86062Y-39409D03*
X86043Y-42303D03*
X86043Y-44744D03*
X86062Y-47460D03*
X86062Y-50255D03*
X86102Y-52795D03*
X86082Y-55374D03*
X86122Y-58287D03*
X86141Y-61200D03*
X86141Y-64389D03*
X86141Y-67204D03*
X74763Y-67401D03*
X69547Y-67421D03*
X69547Y-64586D03*
X69586Y-61417D03*
X69527Y-58484D03*
X69547Y-55511D03*
X69547Y-52657D03*
X69547Y-49488D03*
X69547Y-46673D03*
X69527Y-43897D03*
X69527Y-41161D03*
X69507Y-38503D03*
X69507Y-35787D03*
X86456Y-35452D03*
X86417Y-38385D03*
X86417Y-41102D03*
X86417Y-43700D03*
X86437Y-46456D03*
X86397Y-49251D03*
X86456Y-51791D03*
X86437Y-54370D03*
X86476Y-57283D03*
X86496Y-60196D03*
X86515Y-63346D03*
X86496Y-66259D03*
X80629Y-66299D03*
X80511Y-68425D03*
X78051Y-68405D03*
X78031Y-69094D03*
X75728Y-69074D03*
X69940Y-68444D03*
X69921Y-65590D03*
X69921Y-62401D03*
X69881Y-59488D03*
X69901Y-56535D03*
X69881Y-53641D03*
X69881Y-50492D03*
X69881Y-47696D03*
X69842Y-44881D03*
X69862Y-42165D03*
X69842Y-39507D03*
X69881Y-36771D03*
X73917Y-57165D03*
X82342Y-57185D03*
G54D17*
X75098Y-37007D02*
X75098Y-36417D01*
X75783Y-35732D02*
X75783Y-34370D01*
X75098Y-36417D02*
X75783Y-35732D01*
X90708Y-66240D02*
X90708Y-69114D01*
X86354Y-69314D02*
X86354Y-70452D01*
X86358Y-69311D02*
X86354Y-69314D01*
X90708Y-69114D02*
X90669Y-69153D01*
X90708Y-66240D02*
X91732Y-66240D01*
X91732Y-66240D02*
X91751Y-66259D01*
X90728Y-63326D02*
X90728Y-66220D01*
X90728Y-66220D02*
X90708Y-66240D01*
X90728Y-63326D02*
X91614Y-63326D01*
X91614Y-63326D02*
X91732Y-63444D01*
X90885Y-60216D02*
X90885Y-63169D01*
X90885Y-63169D02*
X90728Y-63326D01*
X90885Y-60216D02*
X91673Y-60216D01*
X91673Y-60216D02*
X91732Y-60275D01*
X90885Y-57283D02*
X90885Y-60216D01*
X90885Y-57283D02*
X91634Y-57283D01*
X91634Y-57283D02*
X91732Y-57381D01*
X90885Y-56535D02*
X90885Y-57283D01*
X90885Y-35413D02*
X90885Y-35235D01*
X90885Y-35235D02*
X89901Y-34251D01*
X90885Y-38425D02*
X90885Y-35413D01*
X90885Y-38425D02*
X91594Y-38425D01*
X91594Y-38425D02*
X91653Y-38483D01*
X90866Y-41082D02*
X90866Y-38444D01*
X90866Y-38444D02*
X90885Y-38425D01*
X90866Y-41082D02*
X91634Y-41082D01*
X91634Y-41082D02*
X91653Y-41101D01*
X90866Y-43740D02*
X90866Y-41082D01*
X90866Y-43740D02*
X91672Y-43740D01*
X91672Y-43740D02*
X91673Y-43739D01*
X90885Y-46476D02*
X90885Y-43759D01*
X90885Y-43759D02*
X90866Y-43740D01*
X90885Y-46476D02*
X91634Y-46476D01*
X91634Y-46476D02*
X91673Y-46515D01*
X90885Y-49232D02*
X90885Y-46476D01*
X90885Y-49232D02*
X91633Y-49232D01*
X91633Y-49232D02*
X91673Y-49192D01*
X90885Y-51791D02*
X90885Y-49232D01*
X90885Y-51791D02*
X91614Y-51791D01*
X91614Y-51791D02*
X91712Y-51889D01*
X90905Y-54370D02*
X90905Y-51811D01*
X90905Y-51811D02*
X90885Y-51791D01*
X90905Y-54370D02*
X91634Y-54370D01*
X91634Y-54370D02*
X91732Y-54468D01*
X90885Y-56535D02*
X90885Y-54389D01*
X90885Y-54389D02*
X90905Y-54370D01*
G54D18*
X74645Y-61909D02*
X74645Y-56515D01*
X74527Y-62027D02*
X74645Y-61909D01*
X79763Y-56535D02*
X79763Y-43523D01*
X75098Y-43129D02*
X75098Y-37007D01*
X75157Y-43188D02*
X75098Y-43129D01*
X79763Y-43523D02*
X79389Y-43149D01*
X79744Y-70452D02*
X79744Y-56555D01*
X79744Y-56555D02*
X79763Y-56535D01*
G54D17*
X65472Y-68464D02*
X65472Y-68996D01*
X65472Y-68996D02*
X66101Y-69625D01*
X65472Y-65629D02*
X65472Y-68464D01*
X65472Y-65629D02*
X64822Y-65629D01*
X64822Y-65629D02*
X64429Y-65236D01*
X65846Y-62913D02*
X65846Y-65255D01*
X65846Y-65255D02*
X65472Y-65629D01*
X65374Y-62303D02*
X64507Y-62303D01*
X64507Y-62303D02*
X64468Y-62264D01*
X65374Y-59488D02*
X65374Y-62303D01*
X65374Y-62303D02*
X65374Y-62440D01*
X65374Y-62440D02*
X65846Y-62913D01*
X65374Y-59488D02*
X64508Y-59488D01*
X64508Y-59488D02*
X64488Y-59508D01*
X65374Y-56515D02*
X65374Y-59488D01*
X65374Y-56515D02*
X64586Y-56515D01*
X64586Y-56515D02*
X64468Y-56398D01*
X65354Y-53661D02*
X65354Y-56496D01*
X65354Y-56496D02*
X65374Y-56515D01*
X65354Y-53661D02*
X64586Y-53661D01*
X64586Y-53661D02*
X64507Y-53583D01*
X65354Y-50472D02*
X65354Y-53661D01*
X65354Y-50472D02*
X64546Y-50472D01*
X64546Y-50472D02*
X64527Y-50453D01*
X65354Y-47952D02*
X65354Y-50472D01*
X65354Y-47952D02*
X64704Y-47952D01*
X64704Y-47952D02*
X64468Y-47716D01*
X65354Y-44881D02*
X65354Y-47952D01*
X65354Y-44881D02*
X64527Y-44881D01*
X64527Y-44881D02*
X64527Y-44882D01*
X65354Y-42185D02*
X65354Y-44881D01*
X65354Y-42185D02*
X64527Y-42185D01*
X64527Y-42185D02*
X64488Y-42146D01*
X65374Y-39488D02*
X65374Y-42165D01*
X65374Y-42165D02*
X65354Y-42185D01*
X65374Y-39488D02*
X64508Y-39488D01*
X64508Y-39488D02*
X64507Y-39488D01*
X65374Y-37342D02*
X65374Y-39488D01*
X66062Y-34074D02*
X65610Y-34074D01*
X65374Y-34311D02*
X65374Y-37342D01*
X65610Y-34074D02*
X65374Y-34311D01*
X78783Y-37968D02*
X78783Y-34370D01*
X78700Y-38051D02*
X78783Y-37968D01*
X77783Y-37570D02*
X77783Y-34370D01*
X77775Y-37578D02*
X77783Y-37570D01*
X74783Y-36003D02*
X74783Y-34370D01*
X74763Y-36023D02*
X74783Y-36003D01*
X76437Y-38543D02*
X76437Y-36062D01*
X76417Y-38562D02*
X76437Y-38543D01*
X78744Y-70452D02*
X78744Y-68074D01*
X84114Y-67834D02*
X84114Y-38622D01*
X83877Y-68070D02*
X84114Y-67834D01*
X78744Y-68074D02*
X78740Y-68070D01*
X77696Y-70405D02*
X77744Y-70452D01*
X77696Y-60551D02*
X77696Y-70405D01*
X77618Y-60472D02*
X77696Y-60551D01*
X77618Y-39822D02*
X77618Y-60472D01*
X77657Y-39783D02*
X77618Y-39822D01*
X77657Y-39330D02*
X77657Y-39783D01*
X77578Y-39251D02*
X77657Y-39330D01*
X77578Y-38031D02*
X77578Y-39251D01*
X76744Y-38059D02*
X76744Y-38267D01*
X76744Y-38267D02*
X76744Y-70452D01*
X76751Y-37539D02*
X76744Y-38059D01*
X83799Y-40748D02*
X83799Y-49744D01*
X83661Y-40610D02*
X83799Y-40748D01*
X83425Y-41122D02*
X83425Y-46988D01*
X83405Y-41102D02*
X83425Y-41122D01*
X83090Y-41574D02*
X83090Y-44212D01*
X83661Y-39547D02*
X83661Y-35925D01*
X83700Y-39586D02*
X83661Y-39547D01*
X82992Y-47185D02*
X82992Y-66751D01*
X83090Y-47086D02*
X82992Y-47185D01*
X83090Y-44665D02*
X83090Y-47086D01*
X82716Y-44291D02*
X83090Y-44665D01*
X82716Y-41043D02*
X82716Y-44291D01*
X83700Y-40059D02*
X82716Y-41043D01*
X83405Y-60374D02*
X83405Y-63838D01*
X77972Y-40078D02*
X77972Y-60196D01*
X77933Y-40039D02*
X77972Y-40078D01*
X77381Y-39586D02*
X77381Y-60688D01*
X77342Y-39547D02*
X77381Y-39586D01*
X77007Y-57657D02*
X77047Y-57696D01*
X77007Y-38897D02*
X77007Y-57657D01*
X77125Y-38779D02*
X77007Y-38897D01*
X78307Y-40551D02*
X78307Y-54881D01*
X78287Y-40531D02*
X78307Y-40551D01*
X78641Y-41062D02*
X78641Y-52303D01*
X78622Y-41043D02*
X78641Y-41062D01*
X89354Y-68665D02*
X89354Y-70452D01*
X89311Y-68622D02*
X89354Y-68665D01*
X81476Y-63641D02*
X81476Y-68405D01*
X81279Y-63444D02*
X81476Y-63641D01*
X88354Y-68964D02*
X88354Y-70452D01*
X88346Y-68956D02*
X88354Y-68964D01*
X81767Y-63273D02*
X81791Y-68976D01*
X81476Y-62972D02*
X81767Y-63273D01*
X85354Y-69350D02*
X85354Y-70452D01*
X85314Y-69311D02*
X85354Y-69350D01*
X83346Y-67893D02*
X83346Y-69291D01*
X83484Y-67755D02*
X83346Y-67893D01*
X74291Y-63937D02*
X74291Y-67755D01*
X74188Y-63834D02*
X74291Y-63937D01*
X73744Y-68775D02*
X73744Y-70452D01*
X73759Y-68759D02*
X73744Y-68775D01*
X81003Y-63917D02*
X81003Y-68444D01*
X80964Y-63877D02*
X81003Y-63917D01*
X72744Y-68433D02*
X72744Y-70452D01*
X72736Y-68070D02*
X72744Y-68433D01*
X76397Y-63385D02*
X76397Y-68070D01*
X76437Y-63346D02*
X76397Y-63385D01*
X71744Y-68688D02*
X71744Y-70452D01*
X72047Y-68385D02*
X71744Y-68688D01*
X77086Y-62854D02*
X77066Y-68346D01*
X77066Y-62834D02*
X77086Y-62854D01*
X72480Y-44232D02*
X72480Y-36259D01*
X72460Y-44251D02*
X72480Y-44232D01*
X75669Y-61122D02*
X75669Y-44232D01*
X75905Y-61358D02*
X75669Y-61122D01*
X78326Y-65807D02*
X78326Y-61397D01*
X78346Y-65826D02*
X78326Y-65807D01*
X72145Y-44586D02*
X72145Y-39055D01*
X76003Y-60826D02*
X76003Y-44625D01*
X76181Y-61003D02*
X76003Y-60826D01*
X78011Y-66338D02*
X78011Y-61043D01*
X71811Y-44960D02*
X71811Y-41673D01*
X76338Y-58188D02*
X76338Y-45019D01*
X76397Y-58248D02*
X76338Y-58188D01*
X77027Y-58287D02*
X77066Y-58248D01*
X77027Y-61003D02*
X77027Y-58287D01*
X77381Y-61358D02*
X77027Y-61003D01*
X77381Y-66850D02*
X77381Y-61358D01*
X71456Y-65433D02*
X71456Y-44448D01*
X72283Y-66259D02*
X71456Y-65433D01*
X75354Y-49468D02*
X75354Y-47263D01*
X75019Y-49803D02*
X75354Y-49468D01*
X75019Y-50177D02*
X75019Y-49803D01*
X75157Y-50314D02*
X75019Y-50177D01*
X75157Y-59232D02*
X75157Y-50314D01*
X75039Y-59350D02*
X75157Y-59232D01*
X80649Y-64311D02*
X80649Y-59606D01*
X80669Y-64330D02*
X80649Y-64311D01*
X75354Y-59803D02*
X75354Y-49960D01*
X80334Y-64803D02*
X80334Y-60019D01*
X80374Y-64842D02*
X80334Y-64803D01*
X78622Y-61003D02*
X78622Y-53188D01*
X78681Y-61062D02*
X78622Y-61003D01*
X78681Y-65314D02*
X78681Y-61062D01*
X78661Y-65334D02*
X78681Y-65314D01*
X71811Y-65078D02*
X71811Y-56043D01*
X72027Y-65295D02*
X71811Y-65078D01*
X72125Y-64763D02*
X72125Y-59015D01*
X72303Y-64940D02*
X72125Y-64763D01*
X72460Y-64448D02*
X72460Y-61929D01*
X72618Y-64606D02*
X72460Y-64448D01*
X72303Y-66830D02*
X72303Y-68011D01*
X72795Y-66338D02*
X72303Y-66830D01*
X86062Y-39409D02*
X86062Y-36437D01*
X86062Y-36437D02*
X86082Y-36417D01*
X86043Y-42303D02*
X86043Y-39429D01*
X86043Y-39429D02*
X86062Y-39409D01*
X86043Y-44744D02*
X86043Y-42303D01*
X86062Y-47460D02*
X86062Y-44763D01*
X86062Y-44763D02*
X86043Y-44744D01*
X86062Y-50255D02*
X86062Y-47460D01*
X86102Y-52795D02*
X86102Y-50295D01*
X86102Y-50295D02*
X86062Y-50255D01*
X86082Y-55374D02*
X86082Y-52814D01*
X86082Y-52814D02*
X86102Y-52795D01*
X86122Y-58287D02*
X86122Y-55413D01*
X86122Y-55413D02*
X86082Y-55374D01*
X86141Y-61200D02*
X86141Y-58307D01*
X86141Y-58307D02*
X86122Y-58287D01*
X86141Y-64389D02*
X86141Y-61200D01*
X86141Y-67204D02*
X86141Y-64389D01*
X74744Y-67421D02*
X74744Y-70452D01*
X74763Y-67401D02*
X74744Y-67421D01*
X69547Y-64586D02*
X69547Y-67421D01*
X69586Y-61417D02*
X69586Y-64547D01*
X69586Y-64547D02*
X69547Y-64586D01*
X69527Y-58484D02*
X69527Y-61358D01*
X69527Y-61358D02*
X69586Y-61417D01*
X69547Y-55511D02*
X69547Y-58464D01*
X69547Y-58464D02*
X69527Y-58484D01*
X69547Y-52657D02*
X69547Y-55511D01*
X69547Y-49488D02*
X69547Y-52657D01*
X69547Y-46673D02*
X69547Y-49488D01*
X69527Y-43897D02*
X69527Y-46653D01*
X69527Y-46653D02*
X69547Y-46673D01*
X69527Y-41161D02*
X69527Y-43897D01*
X69507Y-38503D02*
X69507Y-41141D01*
X69507Y-41141D02*
X69527Y-41161D01*
X69507Y-35787D02*
X69507Y-38503D01*
X86417Y-38385D02*
X86417Y-35492D01*
X86417Y-35492D02*
X86456Y-35452D01*
X86417Y-41102D02*
X86417Y-38385D01*
X86417Y-43700D02*
X86417Y-41102D01*
X86437Y-46456D02*
X86437Y-43720D01*
X86437Y-43720D02*
X86417Y-43700D01*
X86397Y-49251D02*
X86397Y-46496D01*
X86397Y-46496D02*
X86437Y-46456D01*
X86456Y-51791D02*
X86456Y-49311D01*
X86456Y-49311D02*
X86397Y-49251D01*
X86437Y-54370D02*
X86437Y-51811D01*
X86437Y-51811D02*
X86456Y-51791D01*
X86476Y-57283D02*
X86476Y-54409D01*
X86476Y-54409D02*
X86437Y-54370D01*
X86496Y-60196D02*
X86496Y-57303D01*
X86496Y-57303D02*
X86476Y-57283D01*
X86515Y-63346D02*
X86515Y-60216D01*
X86515Y-60216D02*
X86496Y-60196D01*
X86515Y-66240D02*
X86515Y-63346D01*
X86496Y-66259D02*
X86515Y-66240D01*
X80629Y-68307D02*
X80629Y-66299D01*
X80511Y-68425D02*
X80629Y-68307D01*
X78051Y-69074D02*
X78051Y-68405D01*
X78031Y-69094D02*
X78051Y-69074D01*
X75744Y-69090D02*
X75744Y-70452D01*
X75728Y-69074D02*
X75744Y-69090D01*
X69921Y-65590D02*
X69921Y-68425D01*
X69921Y-68425D02*
X69940Y-68444D01*
X69921Y-62401D02*
X69921Y-65590D01*
X69881Y-59488D02*
X69881Y-59685D01*
X69921Y-59724D02*
X69921Y-62401D01*
X69881Y-59685D02*
X69921Y-59724D01*
X69901Y-56535D02*
X69901Y-59468D01*
X69901Y-59468D02*
X69881Y-59488D01*
X69881Y-53641D02*
X69881Y-56515D01*
X69881Y-56515D02*
X69901Y-56535D01*
X69881Y-50492D02*
X69881Y-53641D01*
X69881Y-47696D02*
X69881Y-50492D01*
X69842Y-44881D02*
X69842Y-45039D01*
X69881Y-45078D02*
X69881Y-47696D01*
X69842Y-45039D02*
X69881Y-45078D01*
X69862Y-42165D02*
X69862Y-44862D01*
X69862Y-44862D02*
X69842Y-44881D01*
X69842Y-39507D02*
X69842Y-42145D01*
X69842Y-42145D02*
X69862Y-42165D01*
X69842Y-36811D02*
X69842Y-39507D01*
X69881Y-36771D02*
X69842Y-36811D01*
G54D19*
X81744Y-70452D02*
X81744Y-69732D01*
X73925Y-57173D02*
X73925Y-58968D01*
X73917Y-57165D02*
X73925Y-57173D01*
X82342Y-69133D02*
X82342Y-57185D01*
X81744Y-69732D02*
X82342Y-69133D01*
X73917Y-57401D02*
X73917Y-58960D01*
X73917Y-58960D02*
X73925Y-58968D01*
X73925Y-53751D02*
X73925Y-57393D01*
X73925Y-57393D02*
X73917Y-57401D01*
X73925Y-48259D02*
X73925Y-53751D01*
X73925Y-48259D02*
X73925Y-42964D01*
G54D10*
G36*
X97584Y-71147D02*
X96903Y-71147D01*
X96903Y-51596D01*
X96823Y-51403D01*
X96675Y-51255D01*
X96542Y-51200D01*
X96674Y-51146D01*
X96822Y-50998D01*
X96902Y-50805D01*
X96903Y-50596D01*
X96823Y-50403D01*
X96675Y-50255D01*
X96542Y-50200D01*
X96674Y-50146D01*
X96822Y-49998D01*
X96902Y-49805D01*
X96903Y-49596D01*
X96823Y-49403D01*
X96675Y-49255D01*
X96542Y-49200D01*
X96674Y-49146D01*
X96822Y-48998D01*
X96902Y-48805D01*
X96903Y-48596D01*
X96823Y-48403D01*
X96675Y-48255D01*
X96542Y-48200D01*
X96674Y-48146D01*
X96822Y-47998D01*
X96902Y-47805D01*
X96903Y-47596D01*
X96823Y-47403D01*
X96675Y-47255D01*
X96542Y-47200D01*
X96674Y-47146D01*
X96822Y-46998D01*
X96902Y-46805D01*
X96903Y-46596D01*
X96823Y-46403D01*
X96675Y-46255D01*
X96542Y-46200D01*
X96674Y-46146D01*
X96822Y-45998D01*
X96902Y-45805D01*
X96903Y-45596D01*
X96823Y-45403D01*
X96675Y-45255D01*
X96542Y-45200D01*
X96674Y-45146D01*
X96822Y-44998D01*
X96902Y-44805D01*
X96903Y-44596D01*
X96823Y-44403D01*
X96675Y-44255D01*
X96542Y-44200D01*
X96674Y-44146D01*
X96822Y-43998D01*
X96902Y-43805D01*
X96903Y-43596D01*
X96823Y-43403D01*
X96675Y-43255D01*
X96542Y-43200D01*
X96674Y-43146D01*
X96822Y-42998D01*
X96902Y-42805D01*
X96903Y-42596D01*
X96823Y-42403D01*
X96675Y-42255D01*
X96542Y-42200D01*
X96674Y-42146D01*
X96822Y-41998D01*
X96902Y-41805D01*
X96903Y-41596D01*
X96823Y-41403D01*
X96675Y-41255D01*
X96603Y-41225D01*
X96702Y-41225D01*
X96794Y-41187D01*
X96864Y-41117D01*
X96902Y-41025D01*
X96902Y-40926D01*
X96902Y-40376D01*
X96865Y-40284D01*
X96794Y-40213D01*
X96702Y-40175D01*
X96603Y-40175D01*
X96053Y-40175D01*
X95961Y-40213D01*
X95955Y-40219D01*
X95955Y-35725D01*
X95895Y-35347D01*
X95895Y-35345D01*
X95859Y-35247D01*
X95659Y-34920D01*
X95658Y-34919D01*
X95587Y-34841D01*
X95277Y-34616D01*
X95276Y-34615D01*
X95180Y-34571D01*
X94808Y-34482D01*
X94807Y-34481D01*
X94701Y-34477D01*
X94323Y-34537D01*
X94322Y-34537D01*
X94223Y-34573D01*
X93896Y-34773D01*
X93895Y-34774D01*
X93818Y-34845D01*
X93592Y-35155D01*
X93592Y-35156D01*
X93547Y-35252D01*
X93458Y-35626D01*
X93454Y-35731D01*
X93514Y-36109D01*
X93513Y-36110D01*
X93550Y-36209D01*
X93750Y-36536D01*
X93750Y-36537D01*
X93822Y-36614D01*
X94132Y-36839D01*
X94133Y-36840D01*
X94228Y-36884D01*
X94601Y-36974D01*
X94602Y-36974D01*
X94707Y-36978D01*
X95085Y-36919D01*
X95087Y-36919D01*
X95185Y-36882D01*
X95512Y-36682D01*
X95513Y-36682D01*
X95591Y-36610D01*
X95816Y-36300D01*
X95817Y-36299D01*
X95861Y-36204D01*
X95950Y-35833D01*
X95951Y-35830D01*
X95955Y-35725D01*
X95955Y-40219D01*
X95891Y-40283D01*
X95852Y-40375D01*
X95852Y-40475D01*
X95852Y-41025D01*
X95890Y-41117D01*
X95961Y-41187D01*
X96053Y-41225D01*
X96152Y-41225D01*
X96152Y-41225D01*
X96080Y-41255D01*
X95933Y-41403D01*
X95853Y-41595D01*
X95852Y-41804D01*
X95932Y-41997D01*
X96080Y-42145D01*
X96213Y-42200D01*
X96080Y-42255D01*
X95933Y-42403D01*
X95853Y-42595D01*
X95852Y-42804D01*
X95932Y-42997D01*
X96080Y-43145D01*
X96213Y-43200D01*
X96080Y-43255D01*
X95933Y-43403D01*
X95853Y-43595D01*
X95852Y-43804D01*
X95932Y-43997D01*
X96080Y-44145D01*
X96213Y-44200D01*
X96080Y-44255D01*
X95933Y-44403D01*
X95853Y-44595D01*
X95852Y-44804D01*
X95932Y-44997D01*
X96080Y-45145D01*
X96213Y-45200D01*
X96080Y-45255D01*
X95933Y-45403D01*
X95853Y-45595D01*
X95852Y-45804D01*
X95932Y-45997D01*
X96080Y-46145D01*
X96213Y-46200D01*
X96080Y-46255D01*
X95933Y-46403D01*
X95853Y-46595D01*
X95852Y-46804D01*
X95932Y-46997D01*
X96080Y-47145D01*
X96213Y-47200D01*
X96080Y-47255D01*
X95933Y-47403D01*
X95853Y-47595D01*
X95852Y-47804D01*
X95932Y-47997D01*
X96080Y-48145D01*
X96213Y-48200D01*
X96080Y-48255D01*
X95933Y-48403D01*
X95853Y-48595D01*
X95852Y-48804D01*
X95932Y-48997D01*
X96080Y-49145D01*
X96213Y-49200D01*
X96080Y-49255D01*
X95933Y-49403D01*
X95853Y-49595D01*
X95852Y-49804D01*
X95932Y-49997D01*
X96080Y-50145D01*
X96213Y-50200D01*
X96080Y-50255D01*
X95933Y-50403D01*
X95853Y-50595D01*
X95852Y-50804D01*
X95932Y-50997D01*
X96080Y-51145D01*
X96213Y-51200D01*
X96080Y-51255D01*
X95933Y-51403D01*
X95853Y-51595D01*
X95852Y-51804D01*
X95932Y-51997D01*
X96080Y-52145D01*
X96273Y-52225D01*
X96481Y-52225D01*
X96674Y-52146D01*
X96822Y-51998D01*
X96902Y-51805D01*
X96903Y-51596D01*
X96903Y-71147D01*
X96883Y-71147D01*
X96883Y-65356D01*
X96803Y-65163D01*
X96656Y-65015D01*
X96523Y-64960D01*
X96655Y-64905D01*
X96803Y-64758D01*
X96883Y-64565D01*
X96883Y-64356D01*
X96803Y-64163D01*
X96656Y-64015D01*
X96523Y-63960D01*
X96655Y-63905D01*
X96803Y-63758D01*
X96883Y-63565D01*
X96883Y-63356D01*
X96803Y-63163D01*
X96656Y-63015D01*
X96523Y-62960D01*
X96655Y-62905D01*
X96803Y-62758D01*
X96883Y-62565D01*
X96883Y-62356D01*
X96803Y-62163D01*
X96656Y-62015D01*
X96523Y-61960D01*
X96655Y-61905D01*
X96803Y-61758D01*
X96883Y-61565D01*
X96883Y-61356D01*
X96803Y-61163D01*
X96656Y-61015D01*
X96523Y-60960D01*
X96655Y-60905D01*
X96803Y-60758D01*
X96883Y-60565D01*
X96883Y-60356D01*
X96803Y-60163D01*
X96656Y-60015D01*
X96523Y-59960D01*
X96655Y-59905D01*
X96803Y-59758D01*
X96883Y-59565D01*
X96883Y-59356D01*
X96803Y-59163D01*
X96656Y-59015D01*
X96523Y-58960D01*
X96655Y-58905D01*
X96803Y-58758D01*
X96883Y-58565D01*
X96883Y-58356D01*
X96803Y-58163D01*
X96656Y-58015D01*
X96523Y-57960D01*
X96655Y-57905D01*
X96803Y-57758D01*
X96883Y-57565D01*
X96883Y-57356D01*
X96803Y-57163D01*
X96656Y-57015D01*
X96523Y-56960D01*
X96655Y-56905D01*
X96803Y-56758D01*
X96883Y-56565D01*
X96883Y-56356D01*
X96803Y-56163D01*
X96656Y-56015D01*
X96523Y-55960D01*
X96655Y-55905D01*
X96803Y-55758D01*
X96883Y-55565D01*
X96883Y-55356D01*
X96803Y-55163D01*
X96656Y-55015D01*
X96583Y-54985D01*
X96682Y-54985D01*
X96774Y-54947D01*
X96845Y-54877D01*
X96883Y-54785D01*
X96883Y-54686D01*
X96883Y-54136D01*
X96845Y-54044D01*
X96775Y-53973D01*
X96683Y-53935D01*
X96583Y-53935D01*
X96033Y-53935D01*
X95941Y-53973D01*
X95871Y-54043D01*
X95833Y-54135D01*
X95833Y-54235D01*
X95833Y-54785D01*
X95871Y-54877D01*
X95941Y-54947D01*
X96033Y-54985D01*
X96132Y-54985D01*
X96132Y-54985D01*
X96061Y-55015D01*
X95913Y-55162D01*
X95833Y-55355D01*
X95833Y-55564D01*
X95912Y-55757D01*
X96060Y-55905D01*
X96193Y-55960D01*
X96061Y-56015D01*
X95913Y-56162D01*
X95833Y-56355D01*
X95833Y-56564D01*
X95912Y-56757D01*
X96060Y-56905D01*
X96193Y-56960D01*
X96061Y-57015D01*
X95913Y-57162D01*
X95833Y-57355D01*
X95833Y-57564D01*
X95912Y-57757D01*
X96060Y-57905D01*
X96193Y-57960D01*
X96061Y-58015D01*
X95913Y-58162D01*
X95833Y-58355D01*
X95833Y-58564D01*
X95912Y-58757D01*
X96060Y-58905D01*
X96193Y-58960D01*
X96061Y-59015D01*
X95913Y-59162D01*
X95833Y-59355D01*
X95833Y-59564D01*
X95912Y-59757D01*
X96060Y-59905D01*
X96193Y-59960D01*
X96061Y-60015D01*
X95913Y-60162D01*
X95833Y-60355D01*
X95833Y-60564D01*
X95912Y-60757D01*
X96060Y-60905D01*
X96193Y-60960D01*
X96061Y-61015D01*
X95913Y-61162D01*
X95833Y-61355D01*
X95833Y-61564D01*
X95912Y-61757D01*
X96060Y-61905D01*
X96193Y-61960D01*
X96061Y-62015D01*
X95913Y-62162D01*
X95833Y-62355D01*
X95833Y-62564D01*
X95912Y-62757D01*
X96060Y-62905D01*
X96193Y-62960D01*
X96061Y-63015D01*
X95913Y-63162D01*
X95833Y-63355D01*
X95833Y-63564D01*
X95912Y-63757D01*
X96060Y-63905D01*
X96193Y-63960D01*
X96061Y-64015D01*
X95913Y-64162D01*
X95833Y-64355D01*
X95833Y-64564D01*
X95912Y-64757D01*
X96060Y-64905D01*
X96193Y-64960D01*
X96061Y-65015D01*
X95913Y-65162D01*
X95833Y-65355D01*
X95833Y-65564D01*
X95912Y-65757D01*
X96060Y-65905D01*
X96253Y-65985D01*
X96462Y-65985D01*
X96655Y-65905D01*
X96803Y-65758D01*
X96883Y-65565D01*
X96883Y-65356D01*
X96883Y-71147D01*
X95956Y-71147D01*
X95956Y-68245D01*
X95949Y-68140D01*
X95852Y-67768D01*
X95852Y-67767D01*
X95806Y-67673D01*
X95574Y-67367D01*
X95573Y-67366D01*
X95495Y-67297D01*
X95163Y-67103D01*
X95162Y-67102D01*
X95063Y-67068D01*
X94682Y-67016D01*
X94682Y-67016D01*
X94577Y-67022D01*
X94205Y-67120D01*
X94205Y-67120D01*
X94110Y-67166D01*
X93804Y-67398D01*
X93803Y-67398D01*
X93734Y-67477D01*
X93540Y-67809D01*
X93539Y-67809D01*
X93505Y-67909D01*
X93453Y-68290D01*
X93459Y-68395D01*
X93557Y-68766D01*
X93557Y-68767D01*
X93603Y-68861D01*
X93835Y-69167D01*
X93835Y-69168D01*
X93914Y-69238D01*
X94246Y-69432D01*
X94246Y-69432D01*
X94346Y-69466D01*
X94726Y-69518D01*
X94727Y-69519D01*
X94832Y-69512D01*
X95203Y-69415D01*
X95204Y-69415D01*
X95298Y-69369D01*
X95604Y-69136D01*
X95605Y-69136D01*
X95675Y-69057D01*
X95869Y-68726D01*
X95869Y-68725D01*
X95903Y-68626D01*
X95955Y-68246D01*
X95956Y-68245D01*
X95956Y-71147D01*
X92749Y-71147D01*
X92749Y-70658D01*
X92749Y-70207D01*
X92749Y-33650D01*
X92749Y-33199D01*
X92749Y-33100D01*
X92711Y-33008D01*
X92640Y-32938D01*
X92548Y-32900D01*
X92336Y-32900D01*
X92274Y-32962D01*
X92274Y-33375D01*
X92686Y-33375D01*
X92749Y-33312D01*
X92749Y-33199D01*
X92749Y-33650D01*
X92749Y-33537D01*
X92686Y-33475D01*
X92274Y-33475D01*
X92274Y-33887D01*
X92336Y-33950D01*
X92548Y-33950D01*
X92640Y-33912D01*
X92711Y-33841D01*
X92749Y-33750D01*
X92749Y-33650D01*
X92749Y-70207D01*
X92749Y-70108D01*
X92711Y-70016D01*
X92640Y-69946D01*
X92548Y-69908D01*
X92402Y-69908D01*
X92402Y-67908D01*
X92402Y-67209D01*
X92402Y-66509D01*
X92402Y-65909D01*
X92382Y-65862D01*
X92382Y-65093D01*
X92382Y-64394D01*
X92344Y-64303D01*
X92274Y-64232D01*
X92182Y-64194D01*
X92082Y-64194D01*
X91844Y-64194D01*
X91782Y-64256D01*
X91782Y-64694D01*
X92319Y-64694D01*
X92382Y-64631D01*
X92382Y-64394D01*
X92382Y-65093D01*
X92382Y-64856D01*
X92319Y-64794D01*
X91782Y-64794D01*
X91782Y-65231D01*
X91844Y-65294D01*
X92082Y-65294D01*
X92182Y-65294D01*
X92274Y-65256D01*
X92344Y-65185D01*
X92382Y-65093D01*
X92382Y-65862D01*
X92364Y-65818D01*
X92293Y-65747D01*
X92201Y-65709D01*
X92102Y-65709D01*
X91682Y-65709D01*
X91682Y-65231D01*
X91682Y-64794D01*
X91682Y-64694D01*
X91682Y-64256D01*
X91619Y-64194D01*
X91381Y-64194D01*
X91282Y-64194D01*
X91190Y-64232D01*
X91120Y-64303D01*
X91082Y-64394D01*
X91082Y-64631D01*
X91144Y-64694D01*
X91682Y-64694D01*
X91682Y-64794D01*
X91144Y-64794D01*
X91082Y-64856D01*
X91082Y-65093D01*
X91120Y-65185D01*
X91190Y-65256D01*
X91282Y-65294D01*
X91381Y-65294D01*
X91619Y-65294D01*
X91682Y-65231D01*
X91682Y-65709D01*
X91302Y-65709D01*
X91210Y-65747D01*
X91140Y-65817D01*
X91102Y-65909D01*
X91101Y-65940D01*
X91028Y-65940D01*
X91028Y-63627D01*
X91029Y-63626D01*
X91082Y-63626D01*
X91082Y-63793D01*
X91120Y-63885D01*
X91190Y-63956D01*
X91282Y-63994D01*
X91381Y-63994D01*
X92181Y-63994D01*
X92273Y-63956D01*
X92344Y-63886D01*
X92382Y-63794D01*
X92382Y-63694D01*
X92382Y-63094D01*
X92382Y-61924D01*
X92382Y-61225D01*
X92344Y-61133D01*
X92274Y-61063D01*
X92182Y-61025D01*
X92082Y-61025D01*
X91844Y-61025D01*
X91782Y-61087D01*
X91782Y-61525D01*
X92319Y-61525D01*
X92382Y-61462D01*
X92382Y-61225D01*
X92382Y-61924D01*
X92382Y-61687D01*
X92319Y-61625D01*
X91782Y-61625D01*
X91782Y-62062D01*
X91844Y-62125D01*
X92082Y-62125D01*
X92182Y-62125D01*
X92274Y-62087D01*
X92344Y-62016D01*
X92382Y-61924D01*
X92382Y-63094D01*
X92344Y-63003D01*
X92274Y-62932D01*
X92182Y-62894D01*
X92082Y-62894D01*
X91282Y-62894D01*
X91190Y-62932D01*
X91185Y-62937D01*
X91185Y-62082D01*
X91190Y-62087D01*
X91282Y-62125D01*
X91381Y-62125D01*
X91619Y-62125D01*
X91682Y-62062D01*
X91682Y-61625D01*
X91674Y-61625D01*
X91674Y-61525D01*
X91682Y-61525D01*
X91682Y-61087D01*
X91619Y-61025D01*
X91381Y-61025D01*
X91282Y-61025D01*
X91190Y-61063D01*
X91185Y-61068D01*
X91185Y-60782D01*
X91190Y-60787D01*
X91282Y-60825D01*
X91381Y-60825D01*
X92181Y-60825D01*
X92273Y-60787D01*
X92344Y-60716D01*
X92382Y-60625D01*
X92382Y-60525D01*
X92382Y-59925D01*
X92382Y-59031D01*
X92382Y-58331D01*
X92344Y-58240D01*
X92274Y-58169D01*
X92182Y-58131D01*
X92082Y-58131D01*
X91844Y-58131D01*
X91782Y-58193D01*
X91782Y-58631D01*
X92319Y-58631D01*
X92382Y-58568D01*
X92382Y-58331D01*
X92382Y-59031D01*
X92382Y-58793D01*
X92319Y-58731D01*
X91782Y-58731D01*
X91782Y-59168D01*
X91844Y-59231D01*
X92082Y-59231D01*
X92182Y-59231D01*
X92274Y-59193D01*
X92344Y-59122D01*
X92382Y-59031D01*
X92382Y-59925D01*
X92344Y-59833D01*
X92274Y-59763D01*
X92182Y-59725D01*
X92082Y-59725D01*
X91282Y-59725D01*
X91190Y-59763D01*
X91185Y-59768D01*
X91185Y-59188D01*
X91190Y-59193D01*
X91282Y-59231D01*
X91381Y-59231D01*
X91619Y-59231D01*
X91682Y-59168D01*
X91682Y-58731D01*
X91674Y-58731D01*
X91674Y-58631D01*
X91682Y-58631D01*
X91682Y-58193D01*
X91619Y-58131D01*
X91381Y-58131D01*
X91282Y-58131D01*
X91190Y-58169D01*
X91185Y-58174D01*
X91185Y-57888D01*
X91190Y-57893D01*
X91282Y-57931D01*
X91381Y-57931D01*
X92181Y-57931D01*
X92273Y-57893D01*
X92344Y-57823D01*
X92382Y-57731D01*
X92382Y-57631D01*
X92382Y-57031D01*
X92382Y-56117D01*
X92382Y-55418D01*
X92344Y-55326D01*
X92274Y-55256D01*
X92182Y-55218D01*
X92082Y-55218D01*
X91844Y-55218D01*
X91782Y-55280D01*
X91782Y-55718D01*
X92319Y-55718D01*
X92382Y-55655D01*
X92382Y-55418D01*
X92382Y-56117D01*
X92382Y-55880D01*
X92319Y-55818D01*
X91782Y-55818D01*
X91782Y-56255D01*
X91844Y-56318D01*
X92082Y-56318D01*
X92182Y-56318D01*
X92274Y-56279D01*
X92344Y-56209D01*
X92382Y-56117D01*
X92382Y-57031D01*
X92344Y-56940D01*
X92274Y-56869D01*
X92182Y-56831D01*
X92082Y-56831D01*
X91282Y-56831D01*
X91190Y-56869D01*
X91185Y-56874D01*
X91185Y-56836D01*
X91245Y-56776D01*
X91310Y-56620D01*
X91310Y-56451D01*
X91250Y-56304D01*
X91282Y-56318D01*
X91381Y-56318D01*
X91619Y-56318D01*
X91682Y-56255D01*
X91682Y-55818D01*
X91674Y-55818D01*
X91674Y-55718D01*
X91682Y-55718D01*
X91682Y-55280D01*
X91619Y-55218D01*
X91381Y-55218D01*
X91282Y-55218D01*
X91190Y-55256D01*
X91185Y-55260D01*
X91185Y-54975D01*
X91190Y-54979D01*
X91282Y-55018D01*
X91381Y-55018D01*
X92181Y-55018D01*
X92273Y-54980D01*
X92344Y-54909D01*
X92382Y-54818D01*
X92382Y-54718D01*
X92382Y-54118D01*
X92362Y-54070D01*
X92362Y-53538D01*
X92362Y-52839D01*
X92324Y-52747D01*
X92254Y-52677D01*
X92162Y-52639D01*
X92063Y-52639D01*
X91825Y-52639D01*
X91762Y-52701D01*
X91762Y-53139D01*
X92300Y-53139D01*
X92362Y-53076D01*
X92362Y-52839D01*
X92362Y-53538D01*
X92362Y-53301D01*
X92300Y-53239D01*
X91762Y-53239D01*
X91762Y-53676D01*
X91825Y-53739D01*
X92063Y-53739D01*
X92162Y-53739D01*
X92254Y-53701D01*
X92324Y-53630D01*
X92362Y-53538D01*
X92362Y-54070D01*
X92344Y-54026D01*
X92274Y-53956D01*
X92182Y-53918D01*
X92082Y-53918D01*
X91282Y-53918D01*
X91205Y-53949D01*
X91205Y-53715D01*
X91262Y-53739D01*
X91362Y-53739D01*
X91600Y-53739D01*
X91662Y-53676D01*
X91662Y-53239D01*
X91654Y-53239D01*
X91654Y-53139D01*
X91662Y-53139D01*
X91662Y-52701D01*
X91600Y-52639D01*
X91362Y-52639D01*
X91262Y-52639D01*
X91205Y-52663D01*
X91205Y-52415D01*
X91262Y-52439D01*
X91362Y-52439D01*
X92162Y-52439D01*
X92254Y-52401D01*
X92324Y-52331D01*
X92362Y-52239D01*
X92362Y-52139D01*
X92362Y-51539D01*
X92324Y-51447D01*
X92323Y-51446D01*
X92323Y-50842D01*
X92323Y-50143D01*
X92285Y-50051D01*
X92215Y-49980D01*
X92123Y-49942D01*
X92023Y-49942D01*
X91785Y-49942D01*
X91723Y-50005D01*
X91723Y-50442D01*
X92260Y-50442D01*
X92323Y-50380D01*
X92323Y-50143D01*
X92323Y-50842D01*
X92323Y-50605D01*
X92260Y-50542D01*
X91723Y-50542D01*
X91723Y-50980D01*
X91785Y-51042D01*
X92023Y-51042D01*
X92123Y-51042D01*
X92215Y-51004D01*
X92285Y-50933D01*
X92323Y-50842D01*
X92323Y-51446D01*
X92254Y-51377D01*
X92162Y-51339D01*
X92063Y-51339D01*
X91263Y-51339D01*
X91185Y-51371D01*
X91185Y-51026D01*
X91223Y-51042D01*
X91322Y-51042D01*
X91560Y-51042D01*
X91623Y-50980D01*
X91623Y-50542D01*
X91615Y-50542D01*
X91615Y-50442D01*
X91623Y-50442D01*
X91623Y-50005D01*
X91560Y-49942D01*
X91322Y-49942D01*
X91223Y-49942D01*
X91185Y-49958D01*
X91185Y-49726D01*
X91223Y-49742D01*
X91322Y-49742D01*
X92122Y-49742D01*
X92214Y-49704D01*
X92285Y-49634D01*
X92323Y-49542D01*
X92323Y-49443D01*
X92323Y-48843D01*
X92323Y-48164D01*
X92323Y-47465D01*
X92285Y-47373D01*
X92215Y-47303D01*
X92123Y-47265D01*
X92023Y-47265D01*
X91785Y-47265D01*
X91723Y-47327D01*
X91723Y-47765D01*
X92260Y-47765D01*
X92323Y-47702D01*
X92323Y-47465D01*
X92323Y-48164D01*
X92323Y-47927D01*
X92260Y-47865D01*
X91723Y-47865D01*
X91723Y-48302D01*
X91785Y-48365D01*
X92023Y-48365D01*
X92123Y-48365D01*
X92215Y-48327D01*
X92285Y-48256D01*
X92323Y-48164D01*
X92323Y-48843D01*
X92285Y-48751D01*
X92215Y-48680D01*
X92123Y-48642D01*
X92023Y-48642D01*
X91223Y-48642D01*
X91185Y-48658D01*
X91185Y-48349D01*
X91223Y-48365D01*
X91322Y-48365D01*
X91560Y-48365D01*
X91623Y-48302D01*
X91623Y-47865D01*
X91615Y-47865D01*
X91615Y-47765D01*
X91623Y-47765D01*
X91623Y-47327D01*
X91560Y-47265D01*
X91322Y-47265D01*
X91223Y-47265D01*
X91185Y-47280D01*
X91185Y-47049D01*
X91223Y-47065D01*
X91322Y-47065D01*
X92122Y-47065D01*
X92214Y-47027D01*
X92285Y-46957D01*
X92323Y-46865D01*
X92323Y-46765D01*
X92323Y-46165D01*
X92323Y-45389D01*
X92323Y-44690D01*
X92285Y-44598D01*
X92215Y-44527D01*
X92123Y-44489D01*
X92023Y-44489D01*
X91785Y-44489D01*
X91723Y-44552D01*
X91723Y-44989D01*
X92260Y-44989D01*
X92323Y-44927D01*
X92323Y-44690D01*
X92323Y-45389D01*
X92323Y-45152D01*
X92260Y-45089D01*
X91723Y-45089D01*
X91723Y-45527D01*
X91785Y-45589D01*
X92023Y-45589D01*
X92123Y-45589D01*
X92215Y-45551D01*
X92285Y-45481D01*
X92323Y-45389D01*
X92323Y-46165D01*
X92285Y-46073D01*
X92215Y-46003D01*
X92123Y-45965D01*
X92023Y-45965D01*
X91223Y-45965D01*
X91185Y-45980D01*
X91185Y-45574D01*
X91223Y-45589D01*
X91322Y-45589D01*
X91560Y-45589D01*
X91623Y-45527D01*
X91623Y-45089D01*
X91615Y-45089D01*
X91615Y-44989D01*
X91623Y-44989D01*
X91623Y-44552D01*
X91560Y-44489D01*
X91322Y-44489D01*
X91223Y-44489D01*
X91185Y-44505D01*
X91185Y-44274D01*
X91223Y-44289D01*
X91322Y-44289D01*
X92122Y-44289D01*
X92214Y-44251D01*
X92285Y-44181D01*
X92323Y-44089D01*
X92323Y-43990D01*
X92323Y-43390D01*
X92303Y-43342D01*
X92303Y-42751D01*
X92303Y-42052D01*
X92265Y-41960D01*
X92195Y-41890D01*
X92103Y-41852D01*
X92004Y-41851D01*
X91766Y-41851D01*
X91703Y-41914D01*
X91703Y-42351D01*
X92241Y-42351D01*
X92303Y-42289D01*
X92303Y-42052D01*
X92303Y-42751D01*
X92303Y-42514D01*
X92241Y-42451D01*
X91703Y-42451D01*
X91703Y-42889D01*
X91766Y-42951D01*
X92004Y-42952D01*
X92103Y-42951D01*
X92195Y-42913D01*
X92265Y-42843D01*
X92303Y-42751D01*
X92303Y-43342D01*
X92285Y-43298D01*
X92215Y-43227D01*
X92123Y-43189D01*
X92023Y-43189D01*
X91223Y-43189D01*
X91166Y-43213D01*
X91166Y-42936D01*
X91203Y-42951D01*
X91303Y-42952D01*
X91541Y-42951D01*
X91603Y-42889D01*
X91603Y-42451D01*
X91595Y-42451D01*
X91595Y-42351D01*
X91603Y-42351D01*
X91603Y-41914D01*
X91541Y-41851D01*
X91303Y-41851D01*
X91203Y-41852D01*
X91166Y-41867D01*
X91166Y-41636D01*
X91203Y-41651D01*
X91303Y-41652D01*
X92103Y-41652D01*
X92194Y-41614D01*
X92265Y-41543D01*
X92303Y-41451D01*
X92303Y-41352D01*
X92303Y-40752D01*
X92303Y-40133D01*
X92303Y-39434D01*
X92265Y-39342D01*
X92195Y-39272D01*
X92103Y-39233D01*
X92004Y-39233D01*
X91766Y-39233D01*
X91703Y-39296D01*
X91703Y-39733D01*
X92241Y-39733D01*
X92303Y-39671D01*
X92303Y-39434D01*
X92303Y-40133D01*
X92303Y-39896D01*
X92241Y-39833D01*
X91703Y-39833D01*
X91703Y-40271D01*
X91766Y-40333D01*
X92004Y-40333D01*
X92103Y-40333D01*
X92195Y-40295D01*
X92265Y-40225D01*
X92303Y-40133D01*
X92303Y-40752D01*
X92265Y-40660D01*
X92195Y-40590D01*
X92103Y-40552D01*
X92004Y-40551D01*
X91204Y-40551D01*
X91166Y-40567D01*
X91166Y-40318D01*
X91203Y-40333D01*
X91303Y-40333D01*
X91541Y-40333D01*
X91603Y-40271D01*
X91603Y-39833D01*
X91595Y-39833D01*
X91595Y-39733D01*
X91603Y-39733D01*
X91603Y-39296D01*
X91541Y-39233D01*
X91303Y-39233D01*
X91203Y-39233D01*
X91166Y-39249D01*
X91166Y-39018D01*
X91203Y-39033D01*
X91303Y-39033D01*
X92103Y-39033D01*
X92194Y-38995D01*
X92265Y-38925D01*
X92303Y-38833D01*
X92303Y-38734D01*
X92303Y-38134D01*
X92265Y-38042D01*
X92195Y-37972D01*
X92174Y-37963D01*
X92174Y-33887D01*
X92174Y-33475D01*
X92174Y-33375D01*
X92174Y-32962D01*
X92111Y-32900D01*
X91899Y-32900D01*
X91807Y-32938D01*
X91737Y-33008D01*
X91699Y-33100D01*
X91699Y-33199D01*
X91699Y-33312D01*
X91761Y-33375D01*
X92174Y-33375D01*
X92174Y-33475D01*
X91761Y-33475D01*
X91699Y-33537D01*
X91699Y-33650D01*
X91699Y-33750D01*
X91737Y-33841D01*
X91807Y-33912D01*
X91899Y-33950D01*
X92111Y-33950D01*
X92174Y-33887D01*
X92174Y-37963D01*
X92103Y-37933D01*
X92004Y-37933D01*
X91204Y-37933D01*
X91185Y-37941D01*
X91185Y-35714D01*
X91245Y-35654D01*
X91310Y-35498D01*
X91310Y-35329D01*
X91246Y-35172D01*
X91126Y-35053D01*
X91114Y-35048D01*
X91114Y-35048D01*
X91097Y-35023D01*
X91097Y-35023D01*
X90452Y-34377D01*
X90452Y-33802D01*
X90414Y-33710D01*
X90343Y-33640D01*
X90251Y-33602D01*
X90152Y-33601D01*
X89552Y-33601D01*
X89460Y-33639D01*
X89390Y-33710D01*
X89352Y-33802D01*
X89351Y-33901D01*
X89351Y-34701D01*
X89389Y-34793D01*
X89460Y-34863D01*
X89552Y-34901D01*
X89651Y-34902D01*
X90127Y-34902D01*
X90488Y-35262D01*
X90460Y-35328D01*
X90460Y-35497D01*
X90525Y-35653D01*
X90585Y-35714D01*
X90585Y-38124D01*
X90525Y-38184D01*
X90460Y-38340D01*
X90460Y-38509D01*
X90525Y-38665D01*
X90566Y-38706D01*
X90566Y-40781D01*
X90506Y-40841D01*
X90441Y-40997D01*
X90441Y-41166D01*
X90505Y-41323D01*
X90566Y-41383D01*
X90566Y-43439D01*
X90506Y-43499D01*
X90441Y-43655D01*
X90441Y-43824D01*
X90505Y-43980D01*
X90585Y-44060D01*
X90585Y-46175D01*
X90525Y-46235D01*
X90460Y-46391D01*
X90460Y-46560D01*
X90525Y-46716D01*
X90585Y-46777D01*
X90585Y-48931D01*
X90525Y-48991D01*
X90460Y-49147D01*
X90460Y-49316D01*
X90525Y-49472D01*
X90585Y-49533D01*
X90585Y-51490D01*
X90525Y-51550D01*
X90460Y-51706D01*
X90460Y-51875D01*
X90525Y-52031D01*
X90605Y-52112D01*
X90605Y-54069D01*
X90545Y-54129D01*
X90480Y-54285D01*
X90480Y-54454D01*
X90545Y-54610D01*
X90585Y-54651D01*
X90585Y-56234D01*
X90525Y-56294D01*
X90460Y-56450D01*
X90460Y-56619D01*
X90525Y-56775D01*
X90585Y-56836D01*
X90585Y-56982D01*
X90525Y-57042D01*
X90460Y-57198D01*
X90460Y-57367D01*
X90525Y-57523D01*
X90585Y-57584D01*
X90585Y-59915D01*
X90525Y-59975D01*
X90460Y-60131D01*
X90460Y-60300D01*
X90525Y-60456D01*
X90585Y-60517D01*
X90585Y-62925D01*
X90487Y-62966D01*
X90368Y-63085D01*
X90303Y-63241D01*
X90303Y-63410D01*
X90367Y-63567D01*
X90428Y-63627D01*
X90428Y-65919D01*
X90348Y-65999D01*
X90283Y-66155D01*
X90283Y-66324D01*
X90348Y-66480D01*
X90408Y-66541D01*
X90408Y-68813D01*
X90309Y-68912D01*
X90244Y-69068D01*
X90244Y-69237D01*
X90308Y-69393D01*
X90428Y-69513D01*
X90584Y-69578D01*
X90753Y-69578D01*
X90909Y-69514D01*
X91029Y-69394D01*
X91094Y-69238D01*
X91094Y-69069D01*
X91029Y-68913D01*
X91008Y-68891D01*
X91008Y-66541D01*
X91009Y-66540D01*
X91101Y-66540D01*
X91101Y-66608D01*
X91139Y-66700D01*
X91210Y-66771D01*
X91302Y-66809D01*
X91401Y-66809D01*
X92201Y-66809D01*
X92293Y-66771D01*
X92363Y-66701D01*
X92401Y-66609D01*
X92402Y-66509D01*
X92402Y-67209D01*
X92364Y-67118D01*
X92293Y-67047D01*
X92201Y-67009D01*
X92102Y-67009D01*
X91864Y-67009D01*
X91801Y-67071D01*
X91801Y-67509D01*
X92339Y-67509D01*
X92401Y-67446D01*
X92402Y-67209D01*
X92402Y-67908D01*
X92401Y-67671D01*
X92339Y-67609D01*
X91801Y-67609D01*
X91801Y-68046D01*
X91864Y-68109D01*
X92102Y-68109D01*
X92201Y-68109D01*
X92293Y-68071D01*
X92364Y-68000D01*
X92402Y-67908D01*
X92402Y-69908D01*
X92336Y-69908D01*
X92274Y-69970D01*
X92274Y-70383D01*
X92686Y-70383D01*
X92749Y-70320D01*
X92749Y-70207D01*
X92749Y-70658D01*
X92749Y-70545D01*
X92686Y-70483D01*
X92274Y-70483D01*
X92274Y-70895D01*
X92336Y-70958D01*
X92548Y-70958D01*
X92640Y-70920D01*
X92711Y-70849D01*
X92749Y-70758D01*
X92749Y-70658D01*
X92749Y-71147D01*
X92174Y-71147D01*
X92174Y-70895D01*
X92174Y-70483D01*
X92174Y-70383D01*
X92174Y-69970D01*
X92111Y-69908D01*
X91899Y-69908D01*
X91807Y-69946D01*
X91737Y-70016D01*
X91701Y-70102D01*
X91701Y-68046D01*
X91701Y-67609D01*
X91701Y-67509D01*
X91701Y-67071D01*
X91639Y-67009D01*
X91401Y-67009D01*
X91302Y-67009D01*
X91210Y-67047D01*
X91139Y-67118D01*
X91101Y-67209D01*
X91101Y-67446D01*
X91164Y-67509D01*
X91701Y-67509D01*
X91701Y-67609D01*
X91164Y-67609D01*
X91101Y-67671D01*
X91101Y-67908D01*
X91139Y-68000D01*
X91210Y-68071D01*
X91302Y-68109D01*
X91401Y-68109D01*
X91639Y-68109D01*
X91701Y-68046D01*
X91701Y-70102D01*
X91699Y-70108D01*
X91699Y-70207D01*
X91699Y-70320D01*
X91761Y-70383D01*
X92174Y-70383D01*
X92174Y-70483D01*
X91761Y-70483D01*
X91699Y-70545D01*
X91699Y-70658D01*
X91699Y-70758D01*
X91737Y-70849D01*
X91807Y-70920D01*
X91899Y-70958D01*
X92111Y-70958D01*
X92174Y-70895D01*
X92174Y-71147D01*
X90879Y-71147D01*
X90879Y-70348D01*
X90799Y-70155D01*
X90652Y-70007D01*
X90459Y-69927D01*
X90250Y-69927D01*
X90057Y-70007D01*
X89909Y-70154D01*
X89854Y-70287D01*
X89799Y-70155D01*
X89654Y-70010D01*
X89654Y-68879D01*
X89671Y-68863D01*
X89735Y-68706D01*
X89736Y-68537D01*
X89671Y-68381D01*
X89552Y-68261D01*
X89442Y-68216D01*
X89442Y-48827D01*
X89442Y-48376D01*
X89442Y-48277D01*
X89404Y-48185D01*
X89333Y-48115D01*
X89241Y-48077D01*
X89152Y-48077D01*
X89152Y-34602D01*
X89152Y-33901D01*
X89151Y-33802D01*
X89113Y-33710D01*
X89043Y-33639D01*
X88951Y-33601D01*
X88714Y-33601D01*
X88651Y-33664D01*
X88651Y-34201D01*
X89089Y-34201D01*
X89151Y-34139D01*
X89152Y-33901D01*
X89152Y-34602D01*
X89151Y-34364D01*
X89089Y-34301D01*
X88651Y-34301D01*
X88651Y-34839D01*
X88714Y-34901D01*
X88951Y-34902D01*
X89043Y-34864D01*
X89113Y-34793D01*
X89151Y-34701D01*
X89152Y-34602D01*
X89152Y-48077D01*
X89029Y-48077D01*
X88967Y-48139D01*
X88967Y-48552D01*
X89379Y-48552D01*
X89442Y-48489D01*
X89442Y-48376D01*
X89442Y-48827D01*
X89442Y-48714D01*
X89379Y-48652D01*
X88967Y-48652D01*
X88967Y-49064D01*
X89029Y-49127D01*
X89241Y-49127D01*
X89333Y-49089D01*
X89404Y-49019D01*
X89442Y-48927D01*
X89442Y-48827D01*
X89442Y-68216D01*
X89395Y-68197D01*
X89226Y-68196D01*
X89070Y-68261D01*
X88950Y-68380D01*
X88886Y-68537D01*
X88885Y-68706D01*
X88950Y-68862D01*
X89054Y-68966D01*
X89054Y-70010D01*
X88909Y-70154D01*
X88867Y-70256D01*
X88867Y-49064D01*
X88867Y-48652D01*
X88867Y-48552D01*
X88867Y-48139D01*
X88804Y-48077D01*
X88592Y-48077D01*
X88551Y-48094D01*
X88551Y-34839D01*
X88551Y-34301D01*
X88551Y-34201D01*
X88551Y-33664D01*
X88489Y-33601D01*
X88252Y-33601D01*
X88160Y-33639D01*
X88090Y-33710D01*
X88052Y-33802D01*
X88051Y-33901D01*
X88051Y-34139D01*
X88114Y-34201D01*
X88551Y-34201D01*
X88551Y-34301D01*
X88114Y-34301D01*
X88051Y-34364D01*
X88051Y-34602D01*
X88052Y-34701D01*
X88090Y-34793D01*
X88160Y-34864D01*
X88252Y-34902D01*
X88489Y-34901D01*
X88551Y-34839D01*
X88551Y-48094D01*
X88500Y-48115D01*
X88430Y-48185D01*
X88392Y-48277D01*
X88392Y-48376D01*
X88392Y-48489D01*
X88454Y-48552D01*
X88867Y-48552D01*
X88867Y-48652D01*
X88454Y-48652D01*
X88392Y-48714D01*
X88392Y-48827D01*
X88392Y-48927D01*
X88430Y-49019D01*
X88500Y-49089D01*
X88592Y-49127D01*
X88804Y-49127D01*
X88867Y-49064D01*
X88867Y-70256D01*
X88854Y-70287D01*
X88799Y-70155D01*
X88654Y-70010D01*
X88654Y-69249D01*
X88706Y-69197D01*
X88771Y-69041D01*
X88771Y-68872D01*
X88706Y-68716D01*
X88587Y-68596D01*
X88431Y-68531D01*
X88262Y-68531D01*
X88106Y-68596D01*
X87986Y-68715D01*
X87921Y-68871D01*
X87921Y-69040D01*
X87985Y-69197D01*
X88054Y-69265D01*
X88054Y-70010D01*
X87909Y-70154D01*
X87856Y-70281D01*
X87814Y-70179D01*
X87722Y-70155D01*
X87651Y-70226D01*
X87651Y-70084D01*
X87627Y-69992D01*
X87430Y-69922D01*
X87221Y-69934D01*
X87081Y-69992D01*
X87057Y-70084D01*
X87354Y-70382D01*
X87651Y-70084D01*
X87651Y-70226D01*
X87425Y-70452D01*
X87722Y-70749D01*
X87814Y-70725D01*
X87853Y-70615D01*
X87908Y-70749D01*
X88056Y-70897D01*
X88249Y-70977D01*
X88458Y-70977D01*
X88651Y-70898D01*
X88799Y-70750D01*
X88854Y-70617D01*
X88908Y-70749D01*
X89056Y-70897D01*
X89249Y-70977D01*
X89458Y-70977D01*
X89651Y-70898D01*
X89799Y-70750D01*
X89854Y-70617D01*
X89908Y-70749D01*
X90056Y-70897D01*
X90249Y-70977D01*
X90458Y-70977D01*
X90651Y-70898D01*
X90799Y-70750D01*
X90879Y-70557D01*
X90879Y-70348D01*
X90879Y-71147D01*
X87651Y-71147D01*
X87651Y-70820D01*
X87354Y-70523D01*
X87283Y-70594D01*
X87283Y-70452D01*
X86986Y-70155D01*
X86940Y-70167D01*
X86940Y-63262D01*
X86876Y-63106D01*
X86815Y-63045D01*
X86815Y-60478D01*
X86856Y-60437D01*
X86920Y-60281D01*
X86921Y-60112D01*
X86856Y-59956D01*
X86796Y-59895D01*
X86796Y-57564D01*
X86836Y-57524D01*
X86901Y-57368D01*
X86901Y-57199D01*
X86836Y-57043D01*
X86776Y-56982D01*
X86776Y-54631D01*
X86797Y-54611D01*
X86861Y-54454D01*
X86862Y-54285D01*
X86797Y-54129D01*
X86737Y-54069D01*
X86737Y-52112D01*
X86816Y-52032D01*
X86881Y-51876D01*
X86881Y-51707D01*
X86817Y-51550D01*
X86756Y-51490D01*
X86756Y-49494D01*
X86757Y-49493D01*
X86822Y-49336D01*
X86822Y-49167D01*
X86758Y-49011D01*
X86697Y-48950D01*
X86697Y-46797D01*
X86797Y-46697D01*
X86861Y-46541D01*
X86862Y-46372D01*
X86797Y-46216D01*
X86737Y-46155D01*
X86737Y-43982D01*
X86777Y-43941D01*
X86842Y-43785D01*
X86842Y-43616D01*
X86777Y-43460D01*
X86717Y-43399D01*
X86717Y-41403D01*
X86777Y-41343D01*
X86842Y-41187D01*
X86842Y-41018D01*
X86777Y-40861D01*
X86717Y-40801D01*
X86717Y-38686D01*
X86777Y-38626D01*
X86842Y-38470D01*
X86842Y-38301D01*
X86777Y-38145D01*
X86717Y-38084D01*
X86717Y-35793D01*
X86816Y-35693D01*
X86881Y-35537D01*
X86881Y-35368D01*
X86817Y-35212D01*
X86697Y-35092D01*
X86541Y-35027D01*
X86372Y-35027D01*
X86216Y-35092D01*
X86096Y-35211D01*
X86031Y-35367D01*
X86031Y-35536D01*
X86096Y-35693D01*
X86117Y-35714D01*
X86117Y-35992D01*
X85998Y-35992D01*
X85842Y-36056D01*
X85722Y-36176D01*
X85657Y-36332D01*
X85657Y-36501D01*
X85722Y-36657D01*
X85762Y-36698D01*
X85762Y-39108D01*
X85702Y-39168D01*
X85638Y-39324D01*
X85637Y-39493D01*
X85702Y-39649D01*
X85743Y-39690D01*
X85743Y-42002D01*
X85683Y-42062D01*
X85618Y-42218D01*
X85618Y-42387D01*
X85682Y-42543D01*
X85743Y-42604D01*
X85743Y-44443D01*
X85683Y-44503D01*
X85618Y-44659D01*
X85618Y-44828D01*
X85682Y-44984D01*
X85762Y-45064D01*
X85762Y-47159D01*
X85702Y-47219D01*
X85638Y-47375D01*
X85637Y-47544D01*
X85702Y-47701D01*
X85762Y-47761D01*
X85762Y-49954D01*
X85702Y-50014D01*
X85638Y-50170D01*
X85637Y-50340D01*
X85702Y-50496D01*
X85802Y-50596D01*
X85802Y-52494D01*
X85742Y-52554D01*
X85677Y-52710D01*
X85677Y-52879D01*
X85741Y-53035D01*
X85782Y-53076D01*
X85782Y-55072D01*
X85722Y-55132D01*
X85657Y-55289D01*
X85657Y-55458D01*
X85722Y-55614D01*
X85822Y-55714D01*
X85822Y-57986D01*
X85761Y-58046D01*
X85697Y-58202D01*
X85696Y-58371D01*
X85761Y-58527D01*
X85841Y-58608D01*
X85841Y-60899D01*
X85781Y-60959D01*
X85716Y-61115D01*
X85716Y-61284D01*
X85781Y-61441D01*
X85841Y-61501D01*
X85841Y-64088D01*
X85781Y-64148D01*
X85716Y-64304D01*
X85716Y-64473D01*
X85781Y-64630D01*
X85841Y-64690D01*
X85841Y-66903D01*
X85781Y-66963D01*
X85716Y-67119D01*
X85716Y-67288D01*
X85781Y-67445D01*
X85900Y-67564D01*
X86056Y-67629D01*
X86225Y-67629D01*
X86382Y-67565D01*
X86501Y-67445D01*
X86566Y-67289D01*
X86566Y-67120D01*
X86502Y-66964D01*
X86441Y-66903D01*
X86441Y-66684D01*
X86580Y-66684D01*
X86736Y-66620D01*
X86856Y-66500D01*
X86920Y-66344D01*
X86921Y-66175D01*
X86856Y-66019D01*
X86815Y-65978D01*
X86815Y-63647D01*
X86875Y-63587D01*
X86940Y-63431D01*
X86940Y-63262D01*
X86940Y-70167D01*
X86893Y-70179D01*
X86855Y-70289D01*
X86799Y-70155D01*
X86654Y-70010D01*
X86654Y-69615D01*
X86718Y-69552D01*
X86783Y-69395D01*
X86783Y-69226D01*
X86718Y-69070D01*
X86599Y-68950D01*
X86443Y-68886D01*
X86274Y-68885D01*
X86117Y-68950D01*
X85998Y-69069D01*
X85933Y-69226D01*
X85933Y-69395D01*
X85997Y-69551D01*
X86054Y-69608D01*
X86054Y-70010D01*
X85909Y-70154D01*
X85879Y-70227D01*
X85879Y-70128D01*
X85841Y-70036D01*
X85771Y-69965D01*
X85679Y-69927D01*
X85654Y-69927D01*
X85654Y-69572D01*
X85675Y-69552D01*
X85739Y-69395D01*
X85740Y-69226D01*
X85675Y-69070D01*
X85556Y-68950D01*
X85399Y-68886D01*
X85237Y-68885D01*
X85237Y-34044D01*
X85237Y-33593D01*
X85237Y-33493D01*
X85199Y-33402D01*
X85129Y-33331D01*
X85037Y-33293D01*
X84825Y-33293D01*
X84762Y-33356D01*
X84762Y-33768D01*
X85175Y-33768D01*
X85237Y-33706D01*
X85237Y-33593D01*
X85237Y-34044D01*
X85237Y-33931D01*
X85175Y-33868D01*
X84762Y-33868D01*
X84762Y-34281D01*
X84825Y-34343D01*
X85037Y-34343D01*
X85129Y-34305D01*
X85199Y-34235D01*
X85237Y-34143D01*
X85237Y-34044D01*
X85237Y-68885D01*
X85230Y-68885D01*
X85074Y-68950D01*
X84954Y-69069D01*
X84890Y-69226D01*
X84889Y-69395D01*
X84954Y-69551D01*
X85054Y-69651D01*
X85054Y-69927D01*
X85029Y-69927D01*
X84937Y-69965D01*
X84867Y-70035D01*
X84829Y-70127D01*
X84829Y-70227D01*
X84829Y-70777D01*
X84867Y-70869D01*
X84937Y-70939D01*
X85029Y-70977D01*
X85128Y-70977D01*
X85678Y-70977D01*
X85770Y-70939D01*
X85841Y-70869D01*
X85879Y-70777D01*
X85879Y-70678D01*
X85879Y-70678D01*
X85908Y-70749D01*
X86056Y-70897D01*
X86249Y-70977D01*
X86458Y-70977D01*
X86651Y-70898D01*
X86799Y-70750D01*
X86851Y-70623D01*
X86893Y-70725D01*
X86986Y-70749D01*
X87283Y-70452D01*
X87283Y-70594D01*
X87057Y-70820D01*
X87081Y-70913D01*
X87278Y-70982D01*
X87487Y-70971D01*
X87627Y-70913D01*
X87651Y-70820D01*
X87651Y-71147D01*
X84662Y-71147D01*
X84662Y-34281D01*
X84662Y-33868D01*
X84654Y-33868D01*
X84654Y-33768D01*
X84662Y-33768D01*
X84662Y-33356D01*
X84600Y-33293D01*
X84388Y-33293D01*
X84296Y-33331D01*
X84225Y-33402D01*
X84187Y-33493D01*
X84187Y-33593D01*
X84187Y-33593D01*
X84157Y-33521D01*
X84010Y-33374D01*
X83817Y-33293D01*
X83608Y-33293D01*
X83415Y-33373D01*
X83267Y-33521D01*
X83187Y-33714D01*
X83187Y-33922D01*
X83267Y-34115D01*
X83414Y-34263D01*
X83607Y-34343D01*
X83816Y-34343D01*
X84009Y-34264D01*
X84157Y-34116D01*
X84187Y-34044D01*
X84187Y-34044D01*
X84187Y-34143D01*
X84225Y-34235D01*
X84296Y-34305D01*
X84388Y-34343D01*
X84600Y-34343D01*
X84662Y-34281D01*
X84662Y-71147D01*
X84539Y-71147D01*
X84539Y-38537D01*
X84474Y-38381D01*
X84355Y-38261D01*
X84199Y-38197D01*
X84030Y-38196D01*
X83961Y-38225D01*
X83961Y-36226D01*
X84021Y-36166D01*
X84086Y-36010D01*
X84086Y-35841D01*
X84021Y-35684D01*
X83902Y-35565D01*
X83746Y-35500D01*
X83577Y-35500D01*
X83420Y-35564D01*
X83301Y-35684D01*
X83236Y-35840D01*
X83236Y-36009D01*
X83300Y-36165D01*
X83361Y-36226D01*
X83361Y-39324D01*
X83340Y-39345D01*
X83275Y-39501D01*
X83275Y-39670D01*
X83338Y-39823D01*
X83275Y-39974D01*
X83275Y-40059D01*
X82504Y-40831D01*
X82439Y-40928D01*
X82416Y-41043D01*
X82416Y-44291D01*
X82439Y-44406D01*
X82504Y-44503D01*
X82790Y-44789D01*
X82790Y-46962D01*
X82779Y-46972D01*
X82714Y-47070D01*
X82692Y-47185D01*
X82692Y-56919D01*
X82658Y-56869D01*
X82513Y-56772D01*
X82342Y-56738D01*
X82171Y-56772D01*
X82026Y-56869D01*
X81929Y-57014D01*
X81895Y-57185D01*
X81895Y-62874D01*
X81836Y-62732D01*
X81717Y-62612D01*
X81667Y-62591D01*
X81667Y-59080D01*
X81667Y-53863D01*
X81667Y-48371D01*
X81667Y-43076D01*
X81658Y-42820D01*
X81578Y-42628D01*
X81473Y-42589D01*
X81402Y-42660D01*
X81402Y-42518D01*
X81363Y-42413D01*
X81123Y-42324D01*
X80867Y-42333D01*
X80675Y-42413D01*
X80636Y-42518D01*
X81019Y-42901D01*
X81402Y-42518D01*
X81402Y-42660D01*
X81090Y-42972D01*
X81473Y-43355D01*
X81578Y-43316D01*
X81667Y-43076D01*
X81667Y-48371D01*
X81658Y-48115D01*
X81578Y-47923D01*
X81473Y-47884D01*
X81402Y-47955D01*
X81402Y-47813D01*
X81402Y-43426D01*
X81019Y-43043D01*
X80948Y-43113D01*
X80948Y-42972D01*
X80565Y-42589D01*
X80460Y-42628D01*
X80371Y-42868D01*
X80381Y-43124D01*
X80460Y-43316D01*
X80565Y-43355D01*
X80948Y-42972D01*
X80948Y-43113D01*
X80636Y-43426D01*
X80675Y-43531D01*
X80915Y-43620D01*
X81171Y-43610D01*
X81363Y-43531D01*
X81402Y-43426D01*
X81402Y-47813D01*
X81363Y-47708D01*
X81123Y-47619D01*
X80867Y-47629D01*
X80675Y-47708D01*
X80636Y-47813D01*
X81019Y-48197D01*
X81402Y-47813D01*
X81402Y-47955D01*
X81090Y-48267D01*
X81473Y-48650D01*
X81578Y-48611D01*
X81667Y-48371D01*
X81667Y-53863D01*
X81658Y-53608D01*
X81578Y-53415D01*
X81473Y-53376D01*
X81402Y-53447D01*
X81402Y-53306D01*
X81402Y-48721D01*
X81019Y-48338D01*
X80948Y-48409D01*
X80948Y-48267D01*
X80565Y-47884D01*
X80460Y-47923D01*
X80371Y-48163D01*
X80381Y-48419D01*
X80460Y-48611D01*
X80565Y-48650D01*
X80948Y-48267D01*
X80948Y-48409D01*
X80636Y-48721D01*
X80675Y-48826D01*
X80915Y-48915D01*
X81171Y-48906D01*
X81363Y-48826D01*
X81402Y-48721D01*
X81402Y-53306D01*
X81363Y-53201D01*
X81123Y-53111D01*
X80867Y-53121D01*
X80675Y-53201D01*
X80636Y-53306D01*
X81019Y-53689D01*
X81402Y-53306D01*
X81402Y-53447D01*
X81090Y-53759D01*
X81473Y-54142D01*
X81578Y-54104D01*
X81667Y-53863D01*
X81667Y-59080D01*
X81658Y-58824D01*
X81578Y-58632D01*
X81473Y-58593D01*
X81402Y-58664D01*
X81402Y-58522D01*
X81402Y-54213D01*
X81019Y-53830D01*
X80948Y-53901D01*
X80948Y-53759D01*
X80565Y-53376D01*
X80460Y-53415D01*
X80371Y-53655D01*
X80381Y-53911D01*
X80460Y-54104D01*
X80565Y-54142D01*
X80948Y-53759D01*
X80948Y-53901D01*
X80636Y-54213D01*
X80675Y-54318D01*
X80915Y-54407D01*
X81171Y-54398D01*
X81363Y-54318D01*
X81402Y-54213D01*
X81402Y-58522D01*
X81363Y-58417D01*
X81123Y-58328D01*
X80867Y-58337D01*
X80675Y-58417D01*
X80636Y-58522D01*
X81019Y-58905D01*
X81402Y-58522D01*
X81402Y-58664D01*
X81090Y-58976D01*
X81473Y-59359D01*
X81578Y-59320D01*
X81667Y-59080D01*
X81667Y-62591D01*
X81561Y-62547D01*
X81392Y-62547D01*
X81235Y-62611D01*
X81116Y-62731D01*
X81051Y-62887D01*
X81051Y-63056D01*
X81059Y-63076D01*
X81039Y-63084D01*
X80949Y-63173D01*
X80949Y-59907D01*
X81009Y-59847D01*
X81074Y-59691D01*
X81074Y-59618D01*
X81171Y-59614D01*
X81363Y-59535D01*
X81402Y-59430D01*
X81019Y-59047D01*
X81014Y-59052D01*
X80943Y-58981D01*
X80948Y-58976D01*
X80565Y-58593D01*
X80460Y-58632D01*
X80371Y-58872D01*
X80381Y-59128D01*
X80426Y-59238D01*
X80409Y-59245D01*
X80289Y-59365D01*
X80224Y-59521D01*
X80224Y-59605D01*
X80112Y-59651D01*
X80112Y-56788D01*
X80123Y-56776D01*
X80188Y-56620D01*
X80188Y-56451D01*
X80131Y-56313D01*
X80131Y-43523D01*
X80131Y-43523D01*
X80131Y-43523D01*
X80127Y-43500D01*
X80103Y-43382D01*
X80024Y-43263D01*
X80024Y-43263D01*
X79806Y-43046D01*
X79750Y-42909D01*
X79630Y-42789D01*
X79474Y-42724D01*
X79305Y-42724D01*
X79149Y-42789D01*
X79029Y-42908D01*
X78964Y-43064D01*
X78964Y-43233D01*
X79029Y-43390D01*
X79148Y-43509D01*
X79286Y-43566D01*
X79395Y-43676D01*
X79395Y-50577D01*
X79266Y-50577D01*
X79203Y-50639D01*
X79203Y-51052D01*
X79211Y-51052D01*
X79211Y-51152D01*
X79203Y-51152D01*
X79203Y-51564D01*
X79266Y-51627D01*
X79395Y-51627D01*
X79395Y-56313D01*
X79338Y-56450D01*
X79338Y-56619D01*
X79375Y-56709D01*
X79375Y-70078D01*
X79299Y-70154D01*
X79244Y-70287D01*
X79189Y-70155D01*
X79044Y-70010D01*
X79044Y-68367D01*
X79100Y-68311D01*
X79165Y-68155D01*
X79165Y-67986D01*
X79100Y-67830D01*
X78981Y-67710D01*
X78825Y-67645D01*
X78655Y-67645D01*
X78499Y-67710D01*
X78380Y-67829D01*
X78315Y-67985D01*
X78315Y-68068D01*
X78292Y-68045D01*
X78136Y-67980D01*
X77996Y-67980D01*
X77996Y-66763D01*
X78095Y-66763D01*
X78252Y-66699D01*
X78371Y-66579D01*
X78436Y-66423D01*
X78436Y-66254D01*
X78435Y-66250D01*
X78586Y-66187D01*
X78706Y-66067D01*
X78771Y-65911D01*
X78771Y-65749D01*
X78901Y-65695D01*
X79021Y-65575D01*
X79086Y-65419D01*
X79086Y-65250D01*
X79021Y-65094D01*
X78981Y-65053D01*
X78981Y-61062D01*
X78958Y-60948D01*
X78958Y-60948D01*
X78922Y-60893D01*
X78922Y-60893D01*
X78922Y-53490D01*
X78982Y-53430D01*
X79046Y-53273D01*
X79047Y-53104D01*
X78982Y-52948D01*
X78863Y-52828D01*
X78706Y-52764D01*
X78607Y-52763D01*
X78607Y-52728D01*
X78725Y-52728D01*
X78882Y-52663D01*
X79001Y-52544D01*
X79066Y-52388D01*
X79066Y-52218D01*
X79002Y-52062D01*
X78941Y-52002D01*
X78941Y-51627D01*
X79041Y-51627D01*
X79103Y-51564D01*
X79103Y-51152D01*
X79095Y-51152D01*
X79095Y-51052D01*
X79103Y-51052D01*
X79103Y-50639D01*
X79041Y-50577D01*
X78941Y-50577D01*
X78941Y-41324D01*
X78982Y-41284D01*
X79046Y-41128D01*
X79047Y-40959D01*
X78982Y-40802D01*
X78863Y-40683D01*
X78710Y-40619D01*
X78712Y-40616D01*
X78712Y-40447D01*
X78647Y-40291D01*
X78528Y-40171D01*
X78372Y-40106D01*
X78358Y-40106D01*
X78358Y-39955D01*
X78293Y-39798D01*
X78174Y-39679D01*
X78017Y-39614D01*
X77957Y-39614D01*
X77957Y-39330D01*
X77957Y-39330D01*
X77934Y-39215D01*
X77878Y-39132D01*
X77878Y-39132D01*
X77878Y-38332D01*
X77938Y-38272D01*
X78003Y-38116D01*
X78003Y-37947D01*
X78002Y-37944D01*
X78016Y-37939D01*
X78135Y-37819D01*
X78200Y-37663D01*
X78200Y-37494D01*
X78136Y-37338D01*
X78083Y-37285D01*
X78083Y-34812D01*
X78228Y-34667D01*
X78283Y-34534D01*
X78338Y-34667D01*
X78483Y-34812D01*
X78483Y-37681D01*
X78460Y-37690D01*
X78340Y-37810D01*
X78275Y-37966D01*
X78275Y-38135D01*
X78340Y-38291D01*
X78459Y-38411D01*
X78615Y-38476D01*
X78784Y-38476D01*
X78941Y-38411D01*
X79060Y-38292D01*
X79125Y-38136D01*
X79125Y-37967D01*
X79083Y-37864D01*
X79083Y-34812D01*
X79228Y-34667D01*
X79283Y-34534D01*
X79338Y-34667D01*
X79485Y-34814D01*
X79678Y-34894D01*
X79887Y-34895D01*
X80080Y-34815D01*
X80228Y-34667D01*
X80308Y-34474D01*
X80308Y-34266D01*
X80228Y-34073D01*
X80081Y-33925D01*
X79888Y-33845D01*
X79679Y-33844D01*
X79486Y-33924D01*
X79338Y-34072D01*
X79283Y-34205D01*
X79228Y-34073D01*
X79081Y-33925D01*
X78888Y-33845D01*
X78679Y-33844D01*
X78486Y-33924D01*
X78338Y-34072D01*
X78283Y-34205D01*
X78228Y-34073D01*
X78081Y-33925D01*
X77888Y-33845D01*
X77679Y-33844D01*
X77486Y-33924D01*
X77338Y-34072D01*
X77286Y-34198D01*
X77244Y-34097D01*
X77151Y-34072D01*
X77080Y-34143D01*
X77080Y-34002D01*
X77056Y-33909D01*
X76859Y-33840D01*
X76650Y-33851D01*
X76510Y-33909D01*
X76486Y-34002D01*
X76783Y-34299D01*
X77080Y-34002D01*
X77080Y-34143D01*
X76854Y-34370D01*
X77151Y-34667D01*
X77244Y-34642D01*
X77282Y-34532D01*
X77338Y-34667D01*
X77483Y-34812D01*
X77483Y-37269D01*
X77415Y-37337D01*
X77350Y-37493D01*
X77350Y-37662D01*
X77351Y-37665D01*
X77338Y-37670D01*
X77218Y-37790D01*
X77153Y-37946D01*
X77153Y-38115D01*
X77218Y-38271D01*
X77278Y-38332D01*
X77278Y-38382D01*
X77210Y-38354D01*
X77044Y-38354D01*
X77044Y-38267D01*
X77044Y-38061D01*
X77047Y-37844D01*
X77112Y-37780D01*
X77176Y-37624D01*
X77177Y-37455D01*
X77112Y-37298D01*
X77080Y-37266D01*
X77080Y-34737D01*
X76783Y-34440D01*
X76712Y-34511D01*
X76712Y-34370D01*
X76415Y-34072D01*
X76322Y-34097D01*
X76284Y-34207D01*
X76228Y-34073D01*
X76081Y-33925D01*
X75888Y-33845D01*
X75679Y-33844D01*
X75486Y-33924D01*
X75338Y-34072D01*
X75308Y-34144D01*
X75308Y-34045D01*
X75270Y-33953D01*
X75200Y-33883D01*
X75108Y-33845D01*
X75008Y-33845D01*
X74458Y-33845D01*
X74367Y-33883D01*
X74296Y-33953D01*
X74258Y-34045D01*
X74258Y-34144D01*
X74258Y-34694D01*
X74296Y-34786D01*
X74366Y-34856D01*
X74458Y-34895D01*
X74483Y-34895D01*
X74483Y-35702D01*
X74403Y-35782D01*
X74338Y-35938D01*
X74338Y-36107D01*
X74403Y-36264D01*
X74522Y-36383D01*
X74678Y-36448D01*
X74798Y-36448D01*
X74798Y-36706D01*
X74738Y-36766D01*
X74673Y-36922D01*
X74673Y-37092D01*
X74730Y-37229D01*
X74730Y-43129D01*
X74732Y-43141D01*
X74732Y-43273D01*
X74796Y-43429D01*
X74916Y-43549D01*
X75072Y-43613D01*
X75241Y-43614D01*
X75397Y-43549D01*
X75517Y-43430D01*
X75582Y-43273D01*
X75582Y-43104D01*
X75517Y-42948D01*
X75466Y-42897D01*
X75466Y-37229D01*
X75523Y-37092D01*
X75523Y-36923D01*
X75458Y-36767D01*
X75398Y-36706D01*
X75398Y-36541D01*
X75995Y-35944D01*
X75995Y-35944D01*
X76060Y-35847D01*
X76083Y-35732D01*
X76083Y-35732D01*
X76083Y-34812D01*
X76228Y-34667D01*
X76280Y-34541D01*
X76322Y-34642D01*
X76415Y-34667D01*
X76712Y-34370D01*
X76712Y-34511D01*
X76486Y-34737D01*
X76510Y-34830D01*
X76707Y-34899D01*
X76916Y-34888D01*
X77056Y-34830D01*
X77080Y-34737D01*
X77080Y-37266D01*
X76993Y-37179D01*
X76836Y-37114D01*
X76737Y-37114D01*
X76737Y-36364D01*
X76797Y-36304D01*
X76861Y-36147D01*
X76862Y-35978D01*
X76797Y-35822D01*
X76678Y-35702D01*
X76521Y-35638D01*
X76352Y-35637D01*
X76196Y-35702D01*
X76076Y-35821D01*
X76012Y-35978D01*
X76011Y-36147D01*
X76076Y-36303D01*
X76137Y-36364D01*
X76137Y-38242D01*
X76057Y-38321D01*
X75992Y-38478D01*
X75992Y-38647D01*
X76056Y-38803D01*
X76176Y-38923D01*
X76332Y-38987D01*
X76444Y-38988D01*
X76444Y-44603D01*
X76428Y-44597D01*
X76429Y-44541D01*
X76364Y-44385D01*
X76244Y-44265D01*
X76094Y-44203D01*
X76094Y-44148D01*
X76029Y-43991D01*
X75910Y-43872D01*
X75754Y-43807D01*
X75585Y-43807D01*
X75428Y-43871D01*
X75309Y-43991D01*
X75244Y-44147D01*
X75244Y-44316D01*
X75308Y-44472D01*
X75369Y-44533D01*
X75369Y-46838D01*
X75270Y-46838D01*
X75113Y-46903D01*
X74994Y-47022D01*
X74929Y-47178D01*
X74929Y-47347D01*
X74993Y-47504D01*
X75054Y-47564D01*
X75054Y-49344D01*
X74807Y-49591D01*
X74742Y-49688D01*
X74719Y-49803D01*
X74719Y-50177D01*
X74742Y-50291D01*
X74807Y-50389D01*
X74857Y-50439D01*
X74857Y-56143D01*
X74730Y-56090D01*
X74561Y-56090D01*
X74405Y-56155D01*
X74372Y-56188D01*
X74372Y-54231D01*
X74470Y-54132D01*
X74568Y-53896D01*
X74569Y-53640D01*
X74471Y-53403D01*
X74372Y-53304D01*
X74372Y-48739D01*
X74470Y-48640D01*
X74568Y-48404D01*
X74569Y-48148D01*
X74471Y-47911D01*
X74372Y-47812D01*
X74372Y-43443D01*
X74470Y-43345D01*
X74568Y-43108D01*
X74569Y-42852D01*
X74471Y-42616D01*
X74290Y-42434D01*
X74053Y-42336D01*
X73797Y-42336D01*
X73561Y-42434D01*
X73379Y-42615D01*
X73281Y-42851D01*
X73281Y-43107D01*
X73379Y-43344D01*
X73478Y-43443D01*
X73478Y-47812D01*
X73379Y-47910D01*
X73281Y-48146D01*
X73281Y-48403D01*
X73379Y-48639D01*
X73478Y-48739D01*
X73478Y-53304D01*
X73379Y-53402D01*
X73281Y-53639D01*
X73281Y-53895D01*
X73379Y-54131D01*
X73478Y-54231D01*
X73478Y-57125D01*
X73470Y-57165D01*
X73478Y-57204D01*
X73478Y-57361D01*
X73470Y-57401D01*
X73470Y-58528D01*
X73379Y-58619D01*
X73281Y-58855D01*
X73281Y-59111D01*
X73379Y-59348D01*
X73560Y-59529D01*
X73796Y-59627D01*
X74052Y-59628D01*
X74277Y-59535D01*
X74277Y-61676D01*
X74167Y-61786D01*
X74102Y-61942D01*
X74102Y-62111D01*
X74167Y-62267D01*
X74286Y-62387D01*
X74442Y-62452D01*
X74611Y-62452D01*
X74767Y-62388D01*
X74887Y-62268D01*
X74952Y-62112D01*
X74952Y-62100D01*
X74985Y-62050D01*
X75013Y-61909D01*
X75013Y-60063D01*
X75113Y-60163D01*
X75269Y-60228D01*
X75369Y-60228D01*
X75369Y-61122D01*
X75392Y-61236D01*
X75457Y-61334D01*
X75480Y-61357D01*
X75480Y-61442D01*
X75545Y-61598D01*
X75664Y-61718D01*
X75820Y-61783D01*
X75989Y-61783D01*
X76145Y-61718D01*
X76265Y-61599D01*
X76330Y-61443D01*
X76330Y-61402D01*
X76421Y-61364D01*
X76444Y-61341D01*
X76444Y-62921D01*
X76352Y-62921D01*
X76196Y-62985D01*
X76076Y-63105D01*
X76012Y-63261D01*
X76011Y-63430D01*
X76076Y-63586D01*
X76097Y-63608D01*
X76097Y-67769D01*
X76037Y-67829D01*
X75972Y-67985D01*
X75972Y-68155D01*
X76037Y-68311D01*
X76156Y-68430D01*
X76312Y-68495D01*
X76444Y-68495D01*
X76444Y-70010D01*
X76299Y-70154D01*
X76244Y-70287D01*
X76189Y-70155D01*
X76044Y-70010D01*
X76044Y-69360D01*
X76088Y-69315D01*
X76153Y-69159D01*
X76153Y-68990D01*
X76088Y-68834D01*
X75969Y-68714D01*
X75813Y-68649D01*
X75644Y-68649D01*
X75487Y-68714D01*
X75368Y-68833D01*
X75303Y-68989D01*
X75303Y-69158D01*
X75367Y-69315D01*
X75444Y-69391D01*
X75444Y-70010D01*
X75299Y-70154D01*
X75244Y-70287D01*
X75189Y-70155D01*
X75044Y-70010D01*
X75044Y-67722D01*
X75123Y-67642D01*
X75188Y-67486D01*
X75188Y-67317D01*
X75124Y-67161D01*
X75004Y-67041D01*
X74848Y-66976D01*
X74679Y-66976D01*
X74591Y-67012D01*
X74591Y-63973D01*
X74613Y-63919D01*
X74614Y-63750D01*
X74549Y-63594D01*
X74430Y-63474D01*
X74273Y-63409D01*
X74104Y-63409D01*
X73948Y-63474D01*
X73828Y-63593D01*
X73764Y-63749D01*
X73763Y-63918D01*
X73828Y-64075D01*
X73947Y-64194D01*
X73991Y-64212D01*
X73991Y-67454D01*
X73931Y-67514D01*
X73866Y-67670D01*
X73866Y-67840D01*
X73930Y-67996D01*
X74050Y-68115D01*
X74206Y-68180D01*
X74375Y-68180D01*
X74444Y-68152D01*
X74444Y-70010D01*
X74299Y-70154D01*
X74244Y-70287D01*
X74189Y-70155D01*
X74044Y-70010D01*
X74044Y-69076D01*
X74119Y-69000D01*
X74184Y-68844D01*
X74184Y-68675D01*
X74120Y-68519D01*
X74000Y-68399D01*
X73844Y-68334D01*
X73675Y-68334D01*
X73519Y-68399D01*
X73399Y-68518D01*
X73334Y-68674D01*
X73334Y-68844D01*
X73399Y-69000D01*
X73444Y-69045D01*
X73444Y-70010D01*
X73299Y-70154D01*
X73244Y-70287D01*
X73189Y-70155D01*
X73044Y-70010D01*
X73044Y-68433D01*
X73043Y-68429D01*
X73043Y-68426D01*
X73042Y-68365D01*
X73096Y-68311D01*
X73161Y-68155D01*
X73161Y-67986D01*
X73096Y-67830D01*
X72977Y-67710D01*
X72821Y-67645D01*
X72652Y-67645D01*
X72603Y-67665D01*
X72603Y-66954D01*
X72794Y-66763D01*
X72879Y-66763D01*
X73035Y-66699D01*
X73155Y-66579D01*
X73220Y-66423D01*
X73220Y-66254D01*
X73155Y-66098D01*
X73036Y-65978D01*
X72880Y-65913D01*
X72711Y-65913D01*
X72588Y-65964D01*
X72524Y-65899D01*
X72368Y-65834D01*
X72282Y-65834D01*
X72151Y-65703D01*
X72267Y-65655D01*
X72387Y-65536D01*
X72452Y-65380D01*
X72452Y-65339D01*
X72543Y-65301D01*
X72663Y-65182D01*
X72728Y-65025D01*
X72728Y-65020D01*
X72858Y-64966D01*
X72978Y-64847D01*
X73043Y-64691D01*
X73043Y-64522D01*
X72978Y-64365D01*
X72859Y-64246D01*
X72760Y-64205D01*
X72760Y-62230D01*
X72820Y-62170D01*
X72885Y-62014D01*
X72885Y-61844D01*
X72821Y-61688D01*
X72701Y-61569D01*
X72545Y-61504D01*
X72425Y-61504D01*
X72425Y-59316D01*
X72486Y-59256D01*
X72550Y-59100D01*
X72551Y-58931D01*
X72486Y-58775D01*
X72367Y-58655D01*
X72210Y-58590D01*
X72111Y-58590D01*
X72111Y-56344D01*
X72171Y-56284D01*
X72235Y-56128D01*
X72236Y-55959D01*
X72171Y-55802D01*
X72052Y-55683D01*
X71895Y-55618D01*
X71756Y-55618D01*
X71756Y-45385D01*
X71895Y-45385D01*
X72051Y-45321D01*
X72171Y-45201D01*
X72235Y-45045D01*
X72235Y-45009D01*
X72386Y-44947D01*
X72505Y-44827D01*
X72570Y-44671D01*
X72570Y-44666D01*
X72701Y-44612D01*
X72820Y-44493D01*
X72885Y-44336D01*
X72885Y-44167D01*
X72821Y-44011D01*
X72780Y-43970D01*
X72780Y-36560D01*
X72840Y-36500D01*
X72905Y-36344D01*
X72905Y-36175D01*
X72840Y-36019D01*
X72721Y-35899D01*
X72565Y-35834D01*
X72396Y-35834D01*
X72239Y-35899D01*
X72120Y-36018D01*
X72068Y-36143D01*
X72068Y-34024D01*
X72068Y-33474D01*
X72030Y-33382D01*
X71960Y-33312D01*
X71868Y-33274D01*
X71768Y-33274D01*
X71218Y-33274D01*
X71126Y-33312D01*
X71056Y-33382D01*
X71018Y-33474D01*
X71018Y-33561D01*
X71003Y-33526D01*
X70911Y-33502D01*
X70840Y-33572D01*
X70840Y-33431D01*
X70816Y-33338D01*
X70619Y-33269D01*
X70410Y-33280D01*
X70270Y-33338D01*
X70246Y-33431D01*
X70543Y-33728D01*
X70840Y-33431D01*
X70840Y-33572D01*
X70614Y-33799D01*
X70911Y-34096D01*
X71003Y-34072D01*
X71018Y-34031D01*
X71018Y-34123D01*
X71056Y-34215D01*
X71126Y-34286D01*
X71218Y-34324D01*
X71317Y-34324D01*
X71867Y-34324D01*
X71959Y-34286D01*
X72030Y-34216D01*
X72068Y-34124D01*
X72068Y-34024D01*
X72068Y-36143D01*
X72055Y-36174D01*
X72055Y-36344D01*
X72119Y-36500D01*
X72180Y-36560D01*
X72180Y-38630D01*
X72061Y-38630D01*
X71905Y-38694D01*
X71785Y-38814D01*
X71720Y-38970D01*
X71720Y-39139D01*
X71785Y-39295D01*
X71845Y-39356D01*
X71845Y-41248D01*
X71726Y-41248D01*
X71570Y-41312D01*
X71450Y-41432D01*
X71386Y-41588D01*
X71385Y-41757D01*
X71450Y-41913D01*
X71511Y-41974D01*
X71511Y-44023D01*
X71372Y-44023D01*
X71216Y-44088D01*
X71096Y-44207D01*
X71031Y-44363D01*
X71031Y-44532D01*
X71096Y-44689D01*
X71156Y-44749D01*
X71156Y-65433D01*
X71179Y-65547D01*
X71244Y-65645D01*
X71858Y-66259D01*
X71858Y-66344D01*
X71922Y-66500D01*
X72042Y-66619D01*
X72079Y-66635D01*
X72025Y-66715D01*
X72003Y-66830D01*
X72003Y-67710D01*
X71943Y-67770D01*
X71878Y-67926D01*
X71878Y-67995D01*
X71806Y-68025D01*
X71687Y-68144D01*
X71622Y-68300D01*
X71622Y-68386D01*
X71531Y-68476D01*
X71466Y-68574D01*
X71444Y-68688D01*
X71444Y-69927D01*
X71419Y-69927D01*
X71327Y-69965D01*
X71257Y-70035D01*
X71219Y-70127D01*
X71219Y-70227D01*
X71219Y-70777D01*
X71257Y-70869D01*
X71327Y-70939D01*
X71419Y-70977D01*
X71518Y-70977D01*
X72068Y-70977D01*
X72160Y-70939D01*
X72230Y-70869D01*
X72269Y-70777D01*
X72269Y-70678D01*
X72269Y-70678D01*
X72298Y-70749D01*
X72446Y-70897D01*
X72639Y-70977D01*
X72848Y-70977D01*
X73041Y-70898D01*
X73188Y-70750D01*
X73244Y-70617D01*
X73298Y-70749D01*
X73446Y-70897D01*
X73639Y-70977D01*
X73848Y-70977D01*
X74041Y-70898D01*
X74188Y-70750D01*
X74244Y-70617D01*
X74298Y-70749D01*
X74446Y-70897D01*
X74639Y-70977D01*
X74848Y-70977D01*
X75041Y-70898D01*
X75188Y-70750D01*
X75244Y-70617D01*
X75298Y-70749D01*
X75446Y-70897D01*
X75639Y-70977D01*
X75848Y-70977D01*
X76041Y-70898D01*
X76188Y-70750D01*
X76244Y-70617D01*
X76298Y-70749D01*
X76446Y-70897D01*
X76639Y-70977D01*
X76848Y-70977D01*
X77041Y-70898D01*
X77188Y-70750D01*
X77244Y-70617D01*
X77298Y-70749D01*
X77446Y-70897D01*
X77639Y-70977D01*
X77848Y-70977D01*
X78041Y-70898D01*
X78188Y-70750D01*
X78244Y-70617D01*
X78298Y-70749D01*
X78446Y-70897D01*
X78639Y-70977D01*
X78848Y-70977D01*
X79041Y-70898D01*
X79188Y-70750D01*
X79244Y-70617D01*
X79298Y-70749D01*
X79446Y-70897D01*
X79639Y-70977D01*
X79848Y-70977D01*
X80041Y-70898D01*
X80188Y-70750D01*
X80241Y-70623D01*
X80283Y-70725D01*
X80376Y-70749D01*
X80673Y-70452D01*
X80376Y-70155D01*
X80283Y-70179D01*
X80244Y-70289D01*
X80189Y-70155D01*
X80112Y-70078D01*
X80112Y-68570D01*
X80151Y-68665D01*
X80270Y-68785D01*
X80426Y-68850D01*
X80595Y-68850D01*
X80746Y-68788D01*
X80762Y-68804D01*
X80919Y-68869D01*
X81088Y-68869D01*
X81244Y-68805D01*
X81269Y-68779D01*
X81391Y-68830D01*
X81391Y-68830D01*
X81366Y-68891D01*
X81366Y-69060D01*
X81430Y-69216D01*
X81529Y-69315D01*
X81428Y-69416D01*
X81331Y-69561D01*
X81297Y-69732D01*
X81297Y-70159D01*
X81246Y-70281D01*
X81204Y-70179D01*
X81111Y-70155D01*
X81041Y-70226D01*
X81041Y-70084D01*
X81016Y-69992D01*
X80819Y-69922D01*
X80611Y-69934D01*
X80471Y-69992D01*
X80447Y-70084D01*
X80744Y-70382D01*
X81041Y-70084D01*
X81041Y-70226D01*
X80814Y-70452D01*
X81111Y-70749D01*
X81204Y-70725D01*
X81243Y-70615D01*
X81298Y-70749D01*
X81446Y-70897D01*
X81639Y-70977D01*
X81848Y-70977D01*
X82041Y-70898D01*
X82188Y-70750D01*
X82244Y-70617D01*
X82298Y-70749D01*
X82446Y-70897D01*
X82639Y-70977D01*
X82848Y-70977D01*
X83041Y-70898D01*
X83188Y-70750D01*
X83269Y-70557D01*
X83269Y-70348D01*
X83189Y-70155D01*
X83041Y-70007D01*
X82848Y-69927D01*
X82640Y-69927D01*
X82447Y-70007D01*
X82299Y-70154D01*
X82244Y-70287D01*
X82190Y-70159D01*
X82190Y-69917D01*
X82658Y-69449D01*
X82658Y-69449D01*
X82755Y-69304D01*
X82789Y-69133D01*
X82789Y-69133D01*
X82789Y-67127D01*
X82907Y-67176D01*
X83076Y-67177D01*
X83232Y-67112D01*
X83352Y-66993D01*
X83417Y-66836D01*
X83417Y-66667D01*
X83352Y-66511D01*
X83292Y-66450D01*
X83292Y-64251D01*
X83320Y-64263D01*
X83489Y-64263D01*
X83645Y-64199D01*
X83765Y-64079D01*
X83814Y-63962D01*
X83814Y-67484D01*
X83725Y-67395D01*
X83569Y-67330D01*
X83400Y-67330D01*
X83243Y-67395D01*
X83124Y-67514D01*
X83059Y-67670D01*
X83059Y-67829D01*
X83059Y-67829D01*
X83046Y-67893D01*
X83046Y-68990D01*
X82986Y-69050D01*
X82921Y-69206D01*
X82921Y-69375D01*
X82985Y-69531D01*
X83105Y-69651D01*
X83261Y-69716D01*
X83430Y-69716D01*
X83586Y-69651D01*
X83706Y-69532D01*
X83771Y-69376D01*
X83771Y-69207D01*
X83706Y-69050D01*
X83646Y-68990D01*
X83646Y-68434D01*
X83793Y-68495D01*
X83962Y-68495D01*
X84118Y-68431D01*
X84238Y-68311D01*
X84302Y-68155D01*
X84302Y-68070D01*
X84326Y-68046D01*
X84391Y-67949D01*
X84414Y-67834D01*
X84414Y-67834D01*
X84414Y-38923D01*
X84474Y-38863D01*
X84539Y-38706D01*
X84539Y-38537D01*
X84539Y-71147D01*
X81041Y-71147D01*
X81041Y-70820D01*
X80744Y-70523D01*
X80447Y-70820D01*
X80471Y-70913D01*
X80668Y-70982D01*
X80876Y-70971D01*
X81016Y-70913D01*
X81041Y-70820D01*
X81041Y-71147D01*
X70840Y-71147D01*
X70840Y-34167D01*
X70543Y-33869D01*
X70472Y-33940D01*
X70472Y-33799D01*
X70175Y-33502D01*
X70082Y-33526D01*
X70013Y-33723D01*
X70024Y-33931D01*
X70082Y-34072D01*
X70175Y-34096D01*
X70472Y-33799D01*
X70472Y-33940D01*
X70246Y-34167D01*
X70270Y-34259D01*
X70467Y-34329D01*
X70676Y-34317D01*
X70816Y-34259D01*
X70840Y-34167D01*
X70840Y-71147D01*
X70366Y-71147D01*
X70366Y-68360D01*
X70301Y-68204D01*
X70221Y-68124D01*
X70221Y-65891D01*
X70281Y-65831D01*
X70346Y-65675D01*
X70346Y-65506D01*
X70281Y-65350D01*
X70221Y-65289D01*
X70221Y-62702D01*
X70281Y-62642D01*
X70346Y-62486D01*
X70346Y-62317D01*
X70281Y-62161D01*
X70221Y-62100D01*
X70221Y-59749D01*
X70241Y-59729D01*
X70306Y-59573D01*
X70306Y-59404D01*
X70242Y-59247D01*
X70201Y-59206D01*
X70201Y-56836D01*
X70261Y-56776D01*
X70326Y-56620D01*
X70326Y-56451D01*
X70262Y-56295D01*
X70181Y-56214D01*
X70181Y-53942D01*
X70241Y-53882D01*
X70306Y-53726D01*
X70306Y-53557D01*
X70242Y-53401D01*
X70181Y-53340D01*
X70181Y-50793D01*
X70241Y-50733D01*
X70306Y-50577D01*
X70306Y-50407D01*
X70242Y-50251D01*
X70181Y-50191D01*
X70181Y-47997D01*
X70241Y-47937D01*
X70306Y-47781D01*
X70306Y-47612D01*
X70242Y-47456D01*
X70181Y-47395D01*
X70181Y-45143D01*
X70202Y-45122D01*
X70267Y-44966D01*
X70267Y-44797D01*
X70203Y-44641D01*
X70162Y-44600D01*
X70162Y-42466D01*
X70222Y-42406D01*
X70287Y-42250D01*
X70287Y-42081D01*
X70222Y-41924D01*
X70142Y-41844D01*
X70142Y-39808D01*
X70202Y-39748D01*
X70267Y-39592D01*
X70267Y-39423D01*
X70203Y-39267D01*
X70142Y-39206D01*
X70142Y-37111D01*
X70241Y-37012D01*
X70306Y-36856D01*
X70306Y-36687D01*
X70242Y-36531D01*
X70122Y-36411D01*
X69966Y-36346D01*
X69807Y-36346D01*
X69807Y-36088D01*
X69867Y-36028D01*
X69932Y-35872D01*
X69932Y-35703D01*
X69868Y-35546D01*
X69748Y-35427D01*
X69592Y-35362D01*
X69423Y-35362D01*
X69267Y-35426D01*
X69147Y-35546D01*
X69082Y-35702D01*
X69082Y-35871D01*
X69147Y-36027D01*
X69207Y-36088D01*
X69207Y-38202D01*
X69147Y-38262D01*
X69082Y-38419D01*
X69082Y-38588D01*
X69147Y-38744D01*
X69207Y-38804D01*
X69207Y-40880D01*
X69167Y-40920D01*
X69102Y-41076D01*
X69102Y-41245D01*
X69167Y-41401D01*
X69227Y-41462D01*
X69227Y-43596D01*
X69167Y-43656D01*
X69102Y-43812D01*
X69102Y-43981D01*
X69167Y-44138D01*
X69227Y-44198D01*
X69227Y-46391D01*
X69187Y-46432D01*
X69122Y-46588D01*
X69122Y-46757D01*
X69186Y-46913D01*
X69247Y-46974D01*
X69247Y-49187D01*
X69187Y-49247D01*
X69122Y-49403D01*
X69122Y-49572D01*
X69186Y-49728D01*
X69247Y-49789D01*
X69247Y-52356D01*
X69187Y-52416D01*
X69122Y-52572D01*
X69122Y-52741D01*
X69186Y-52897D01*
X69247Y-52958D01*
X69247Y-55210D01*
X69187Y-55270D01*
X69122Y-55426D01*
X69122Y-55595D01*
X69186Y-55752D01*
X69247Y-55812D01*
X69247Y-58163D01*
X69167Y-58243D01*
X69102Y-58399D01*
X69102Y-58568D01*
X69167Y-58724D01*
X69227Y-58785D01*
X69227Y-61175D01*
X69226Y-61176D01*
X69161Y-61332D01*
X69161Y-61501D01*
X69226Y-61657D01*
X69286Y-61718D01*
X69286Y-64246D01*
X69187Y-64345D01*
X69122Y-64501D01*
X69122Y-64670D01*
X69186Y-64827D01*
X69247Y-64887D01*
X69247Y-67120D01*
X69187Y-67180D01*
X69122Y-67336D01*
X69122Y-67505D01*
X69186Y-67661D01*
X69306Y-67781D01*
X69462Y-67846D01*
X69621Y-67846D01*
X69621Y-68163D01*
X69580Y-68203D01*
X69516Y-68359D01*
X69515Y-68529D01*
X69580Y-68685D01*
X69699Y-68804D01*
X69856Y-68869D01*
X70025Y-68869D01*
X70181Y-68805D01*
X70301Y-68685D01*
X70365Y-68529D01*
X70366Y-68360D01*
X70366Y-71147D01*
X67952Y-71147D01*
X67952Y-69976D01*
X67952Y-69275D01*
X67951Y-69176D01*
X67913Y-69084D01*
X67912Y-69083D01*
X67912Y-34425D01*
X67912Y-33724D01*
X67912Y-33624D01*
X67874Y-33533D01*
X67804Y-33462D01*
X67712Y-33424D01*
X67475Y-33424D01*
X67412Y-33487D01*
X67412Y-34024D01*
X67850Y-34024D01*
X67912Y-33962D01*
X67912Y-33724D01*
X67912Y-34425D01*
X67912Y-34187D01*
X67850Y-34124D01*
X67412Y-34124D01*
X67412Y-34662D01*
X67475Y-34724D01*
X67712Y-34724D01*
X67804Y-34686D01*
X67874Y-34616D01*
X67912Y-34524D01*
X67912Y-34425D01*
X67912Y-69083D01*
X67843Y-69013D01*
X67751Y-68975D01*
X67514Y-68975D01*
X67451Y-69038D01*
X67451Y-69575D01*
X67889Y-69575D01*
X67951Y-69513D01*
X67952Y-69275D01*
X67952Y-69976D01*
X67951Y-69738D01*
X67889Y-69675D01*
X67451Y-69675D01*
X67451Y-70213D01*
X67514Y-70275D01*
X67751Y-70276D01*
X67843Y-70238D01*
X67913Y-70167D01*
X67951Y-70075D01*
X67952Y-69976D01*
X67952Y-71147D01*
X67351Y-71147D01*
X67351Y-70213D01*
X67351Y-69675D01*
X67351Y-69575D01*
X67351Y-69038D01*
X67312Y-68999D01*
X67312Y-34662D01*
X67312Y-34124D01*
X67312Y-34024D01*
X67312Y-33487D01*
X67250Y-33424D01*
X67013Y-33424D01*
X66921Y-33462D01*
X66850Y-33533D01*
X66812Y-33624D01*
X66812Y-33724D01*
X66812Y-33962D01*
X66875Y-34024D01*
X67312Y-34024D01*
X67312Y-34124D01*
X66875Y-34124D01*
X66812Y-34187D01*
X66812Y-34425D01*
X66812Y-34524D01*
X66850Y-34616D01*
X66921Y-34686D01*
X67013Y-34724D01*
X67250Y-34724D01*
X67312Y-34662D01*
X67312Y-68999D01*
X67289Y-68975D01*
X67052Y-68975D01*
X66960Y-69013D01*
X66890Y-69084D01*
X66852Y-69176D01*
X66851Y-69275D01*
X66851Y-69513D01*
X66914Y-69575D01*
X67351Y-69575D01*
X67351Y-69675D01*
X66914Y-69675D01*
X66851Y-69738D01*
X66851Y-69976D01*
X66852Y-70075D01*
X66890Y-70167D01*
X66960Y-70238D01*
X67052Y-70276D01*
X67289Y-70275D01*
X67351Y-70213D01*
X67351Y-71147D01*
X66666Y-71147D01*
X66666Y-51544D01*
X66666Y-51093D01*
X66666Y-50993D01*
X66628Y-50902D01*
X66558Y-50831D01*
X66466Y-50793D01*
X66254Y-50793D01*
X66191Y-50856D01*
X66191Y-51268D01*
X66604Y-51268D01*
X66666Y-51206D01*
X66666Y-51093D01*
X66666Y-51544D01*
X66666Y-51431D01*
X66604Y-51368D01*
X66191Y-51368D01*
X66191Y-51781D01*
X66254Y-51843D01*
X66466Y-51843D01*
X66558Y-51805D01*
X66628Y-51735D01*
X66666Y-51643D01*
X66666Y-51544D01*
X66666Y-71147D01*
X66652Y-71147D01*
X66652Y-69976D01*
X66652Y-69176D01*
X66614Y-69084D01*
X66543Y-69014D01*
X66451Y-68976D01*
X66352Y-68975D01*
X65876Y-68975D01*
X65772Y-68872D01*
X65772Y-68765D01*
X65832Y-68705D01*
X65897Y-68549D01*
X65897Y-68380D01*
X65832Y-68224D01*
X65772Y-68163D01*
X65772Y-65930D01*
X65832Y-65870D01*
X65897Y-65714D01*
X65897Y-65629D01*
X66058Y-65468D01*
X66058Y-65468D01*
X66123Y-65370D01*
X66146Y-65255D01*
X66146Y-65255D01*
X66146Y-63214D01*
X66206Y-63154D01*
X66271Y-62998D01*
X66271Y-62829D01*
X66206Y-62672D01*
X66087Y-62553D01*
X65931Y-62488D01*
X65845Y-62488D01*
X65674Y-62316D01*
X65674Y-62303D01*
X65674Y-59789D01*
X65734Y-59729D01*
X65798Y-59573D01*
X65799Y-59404D01*
X65734Y-59247D01*
X65674Y-59187D01*
X65674Y-56816D01*
X65734Y-56756D01*
X65798Y-56600D01*
X65799Y-56431D01*
X65734Y-56275D01*
X65654Y-56194D01*
X65654Y-53962D01*
X65714Y-53902D01*
X65779Y-53746D01*
X65779Y-53577D01*
X65714Y-53420D01*
X65654Y-53360D01*
X65654Y-51734D01*
X65654Y-51735D01*
X65725Y-51805D01*
X65817Y-51843D01*
X66029Y-51843D01*
X66091Y-51781D01*
X66091Y-51368D01*
X66083Y-51368D01*
X66083Y-51268D01*
X66091Y-51268D01*
X66091Y-50856D01*
X66029Y-50793D01*
X65817Y-50793D01*
X65725Y-50831D01*
X65654Y-50902D01*
X65654Y-50903D01*
X65654Y-50773D01*
X65714Y-50713D01*
X65779Y-50557D01*
X65779Y-50388D01*
X65714Y-50232D01*
X65654Y-50171D01*
X65654Y-48253D01*
X65714Y-48193D01*
X65779Y-48037D01*
X65779Y-47868D01*
X65714Y-47712D01*
X65654Y-47651D01*
X65654Y-45182D01*
X65714Y-45122D01*
X65779Y-44966D01*
X65779Y-44797D01*
X65714Y-44641D01*
X65654Y-44580D01*
X65654Y-42486D01*
X65714Y-42426D01*
X65779Y-42269D01*
X65779Y-42100D01*
X65714Y-41944D01*
X65674Y-41903D01*
X65674Y-39789D01*
X65734Y-39729D01*
X65798Y-39573D01*
X65799Y-39404D01*
X65734Y-39247D01*
X65674Y-39187D01*
X65674Y-37643D01*
X65734Y-37583D01*
X65798Y-37427D01*
X65799Y-37258D01*
X65734Y-37102D01*
X65674Y-37041D01*
X65674Y-34708D01*
X65712Y-34724D01*
X65812Y-34724D01*
X66412Y-34724D01*
X66504Y-34686D01*
X66574Y-34616D01*
X66612Y-34524D01*
X66612Y-34425D01*
X66612Y-33625D01*
X66574Y-33533D01*
X66504Y-33462D01*
X66412Y-33424D01*
X66313Y-33424D01*
X65713Y-33424D01*
X65621Y-33462D01*
X65550Y-33533D01*
X65512Y-33624D01*
X65512Y-33724D01*
X65512Y-33794D01*
X65495Y-33797D01*
X65398Y-33862D01*
X65387Y-33873D01*
X65387Y-33631D01*
X65387Y-33180D01*
X65387Y-33080D01*
X65349Y-32988D01*
X65278Y-32918D01*
X65186Y-32880D01*
X64974Y-32880D01*
X64912Y-32943D01*
X64912Y-33355D01*
X65324Y-33355D01*
X65387Y-33293D01*
X65387Y-33180D01*
X65387Y-33631D01*
X65387Y-33518D01*
X65324Y-33455D01*
X64912Y-33455D01*
X64912Y-33868D01*
X64974Y-33930D01*
X65186Y-33930D01*
X65278Y-33892D01*
X65349Y-33822D01*
X65387Y-33730D01*
X65387Y-33631D01*
X65387Y-33873D01*
X65161Y-34098D01*
X65096Y-34196D01*
X65074Y-34311D01*
X65074Y-37041D01*
X65013Y-37101D01*
X64949Y-37257D01*
X64948Y-37426D01*
X65013Y-37582D01*
X65074Y-37643D01*
X65074Y-37701D01*
X65049Y-37676D01*
X64957Y-37638D01*
X64858Y-37638D01*
X64812Y-37638D01*
X64812Y-33868D01*
X64812Y-33455D01*
X64812Y-33355D01*
X64812Y-32943D01*
X64749Y-32880D01*
X64537Y-32880D01*
X64445Y-32918D01*
X64375Y-32988D01*
X64337Y-33080D01*
X64337Y-33180D01*
X64337Y-33293D01*
X64399Y-33355D01*
X64812Y-33355D01*
X64812Y-33455D01*
X64399Y-33455D01*
X64337Y-33518D01*
X64337Y-33631D01*
X64337Y-33730D01*
X64375Y-33822D01*
X64445Y-33892D01*
X64537Y-33930D01*
X64749Y-33930D01*
X64812Y-33868D01*
X64812Y-37638D01*
X64620Y-37638D01*
X64557Y-37701D01*
X64557Y-38138D01*
X64565Y-38138D01*
X64565Y-38238D01*
X64557Y-38238D01*
X64557Y-38676D01*
X64620Y-38738D01*
X64858Y-38738D01*
X64957Y-38738D01*
X65049Y-38700D01*
X65074Y-38676D01*
X65074Y-39001D01*
X65049Y-38976D01*
X64957Y-38938D01*
X64858Y-38938D01*
X64457Y-38938D01*
X64457Y-38676D01*
X64457Y-38238D01*
X64457Y-38138D01*
X64457Y-37701D01*
X64395Y-37638D01*
X64157Y-37638D01*
X64057Y-37638D01*
X63966Y-37676D01*
X63895Y-37747D01*
X63857Y-37839D01*
X63857Y-38076D01*
X63920Y-38138D01*
X64457Y-38138D01*
X64457Y-38238D01*
X63920Y-38238D01*
X63857Y-38301D01*
X63857Y-38538D01*
X63895Y-38630D01*
X63966Y-38700D01*
X64057Y-38738D01*
X64157Y-38738D01*
X64395Y-38738D01*
X64457Y-38676D01*
X64457Y-38938D01*
X64058Y-38938D01*
X63966Y-38976D01*
X63896Y-39046D01*
X63857Y-39138D01*
X63857Y-39238D01*
X63857Y-39838D01*
X63895Y-39930D01*
X63966Y-40000D01*
X64057Y-40038D01*
X64157Y-40038D01*
X64957Y-40038D01*
X65049Y-40000D01*
X65074Y-39975D01*
X65074Y-40378D01*
X65029Y-40334D01*
X64938Y-40296D01*
X64838Y-40296D01*
X64600Y-40296D01*
X64538Y-40358D01*
X64538Y-40796D01*
X64546Y-40796D01*
X64546Y-40896D01*
X64538Y-40896D01*
X64538Y-41333D01*
X64600Y-41396D01*
X64838Y-41396D01*
X64938Y-41396D01*
X65029Y-41357D01*
X65074Y-41313D01*
X65074Y-41678D01*
X65029Y-41634D01*
X64938Y-41596D01*
X64838Y-41596D01*
X64438Y-41596D01*
X64438Y-41333D01*
X64438Y-40896D01*
X64438Y-40796D01*
X64438Y-40358D01*
X64375Y-40296D01*
X64137Y-40296D01*
X64038Y-40296D01*
X63946Y-40334D01*
X63876Y-40404D01*
X63838Y-40496D01*
X63838Y-40733D01*
X63900Y-40796D01*
X64438Y-40796D01*
X64438Y-40896D01*
X63900Y-40896D01*
X63838Y-40958D01*
X63838Y-41195D01*
X63876Y-41287D01*
X63946Y-41357D01*
X64038Y-41396D01*
X64137Y-41396D01*
X64375Y-41396D01*
X64438Y-41333D01*
X64438Y-41596D01*
X64038Y-41596D01*
X63946Y-41633D01*
X63876Y-41704D01*
X63838Y-41796D01*
X63838Y-41895D01*
X63838Y-42495D01*
X63876Y-42587D01*
X63946Y-42657D01*
X64038Y-42696D01*
X64137Y-42696D01*
X64937Y-42696D01*
X65029Y-42658D01*
X65054Y-42633D01*
X65054Y-43064D01*
X64977Y-43032D01*
X64878Y-43032D01*
X64640Y-43032D01*
X64577Y-43094D01*
X64577Y-43532D01*
X64585Y-43532D01*
X64585Y-43632D01*
X64577Y-43632D01*
X64577Y-44069D01*
X64640Y-44132D01*
X64878Y-44132D01*
X64977Y-44132D01*
X65054Y-44100D01*
X65054Y-44364D01*
X64977Y-44332D01*
X64878Y-44332D01*
X64477Y-44332D01*
X64477Y-44069D01*
X64477Y-43632D01*
X64477Y-43532D01*
X64477Y-43094D01*
X64415Y-43032D01*
X64177Y-43032D01*
X64077Y-43032D01*
X63985Y-43070D01*
X63915Y-43140D01*
X63877Y-43232D01*
X63877Y-43469D01*
X63940Y-43532D01*
X64477Y-43532D01*
X64477Y-43632D01*
X63940Y-43632D01*
X63877Y-43694D01*
X63877Y-43931D01*
X63915Y-44023D01*
X63985Y-44094D01*
X64077Y-44132D01*
X64177Y-44132D01*
X64415Y-44132D01*
X64477Y-44069D01*
X64477Y-44332D01*
X64078Y-44332D01*
X63986Y-44370D01*
X63915Y-44440D01*
X63877Y-44532D01*
X63877Y-44631D01*
X63877Y-45231D01*
X63915Y-45323D01*
X63985Y-45394D01*
X64077Y-45432D01*
X64177Y-45432D01*
X64977Y-45432D01*
X65054Y-45400D01*
X65054Y-45949D01*
X65010Y-45905D01*
X64918Y-45866D01*
X64818Y-45866D01*
X64581Y-45866D01*
X64518Y-45929D01*
X64518Y-46366D01*
X64526Y-46366D01*
X64526Y-46466D01*
X64518Y-46466D01*
X64518Y-46904D01*
X64581Y-46966D01*
X64818Y-46966D01*
X64918Y-46966D01*
X65010Y-46928D01*
X65054Y-46884D01*
X65054Y-47249D01*
X65010Y-47205D01*
X64918Y-47166D01*
X64818Y-47166D01*
X64418Y-47166D01*
X64418Y-46904D01*
X64418Y-46466D01*
X64418Y-46366D01*
X64418Y-45929D01*
X64356Y-45866D01*
X64118Y-45866D01*
X64018Y-45866D01*
X63926Y-45905D01*
X63856Y-45975D01*
X63818Y-46067D01*
X63818Y-46304D01*
X63881Y-46366D01*
X64418Y-46366D01*
X64418Y-46466D01*
X63881Y-46466D01*
X63818Y-46529D01*
X63818Y-46766D01*
X63856Y-46858D01*
X63926Y-46928D01*
X64018Y-46966D01*
X64118Y-46966D01*
X64356Y-46966D01*
X64418Y-46904D01*
X64418Y-47166D01*
X64018Y-47166D01*
X63927Y-47204D01*
X63856Y-47275D01*
X63818Y-47366D01*
X63818Y-47466D01*
X63818Y-48066D01*
X63856Y-48158D01*
X63926Y-48228D01*
X64018Y-48266D01*
X64118Y-48266D01*
X64918Y-48266D01*
X64952Y-48252D01*
X65053Y-48252D01*
X65054Y-48253D01*
X65054Y-48635D01*
X64977Y-48603D01*
X64878Y-48603D01*
X64640Y-48603D01*
X64577Y-48665D01*
X64577Y-49103D01*
X64585Y-49103D01*
X64585Y-49203D01*
X64577Y-49203D01*
X64577Y-49640D01*
X64640Y-49703D01*
X64878Y-49703D01*
X64977Y-49703D01*
X65054Y-49671D01*
X65054Y-49935D01*
X64977Y-49903D01*
X64878Y-49903D01*
X64477Y-49903D01*
X64477Y-49640D01*
X64477Y-49203D01*
X64477Y-49103D01*
X64477Y-48665D01*
X64415Y-48603D01*
X64177Y-48603D01*
X64077Y-48603D01*
X63985Y-48641D01*
X63915Y-48711D01*
X63877Y-48803D01*
X63877Y-49040D01*
X63940Y-49103D01*
X64477Y-49103D01*
X64477Y-49203D01*
X63940Y-49203D01*
X63877Y-49265D01*
X63877Y-49502D01*
X63915Y-49594D01*
X63985Y-49664D01*
X64077Y-49703D01*
X64177Y-49703D01*
X64415Y-49703D01*
X64477Y-49640D01*
X64477Y-49903D01*
X64078Y-49903D01*
X63986Y-49941D01*
X63915Y-50011D01*
X63877Y-50103D01*
X63877Y-50202D01*
X63877Y-50802D01*
X63915Y-50894D01*
X63985Y-50964D01*
X64077Y-51003D01*
X64177Y-51003D01*
X64977Y-51003D01*
X65054Y-50971D01*
X65054Y-51775D01*
X65049Y-51771D01*
X64957Y-51733D01*
X64858Y-51733D01*
X64620Y-51733D01*
X64557Y-51795D01*
X64557Y-52233D01*
X64565Y-52233D01*
X64565Y-52333D01*
X64557Y-52333D01*
X64557Y-52770D01*
X64620Y-52833D01*
X64858Y-52833D01*
X64957Y-52833D01*
X65049Y-52794D01*
X65054Y-52790D01*
X65054Y-53075D01*
X65049Y-53071D01*
X64957Y-53033D01*
X64858Y-53033D01*
X64457Y-53033D01*
X64457Y-52770D01*
X64457Y-52333D01*
X64457Y-52233D01*
X64457Y-51795D01*
X64395Y-51733D01*
X64157Y-51733D01*
X64057Y-51733D01*
X63966Y-51771D01*
X63895Y-51841D01*
X63857Y-51933D01*
X63857Y-52170D01*
X63920Y-52233D01*
X64457Y-52233D01*
X64457Y-52333D01*
X63920Y-52333D01*
X63857Y-52395D01*
X63857Y-52632D01*
X63895Y-52724D01*
X63966Y-52794D01*
X64057Y-52833D01*
X64157Y-52833D01*
X64395Y-52833D01*
X64457Y-52770D01*
X64457Y-53033D01*
X64058Y-53033D01*
X63966Y-53071D01*
X63896Y-53141D01*
X63857Y-53233D01*
X63857Y-53332D01*
X63857Y-53932D01*
X63895Y-54024D01*
X63966Y-54094D01*
X64057Y-54133D01*
X64157Y-54133D01*
X64957Y-54133D01*
X65049Y-54095D01*
X65054Y-54090D01*
X65054Y-54630D01*
X65010Y-54586D01*
X64918Y-54548D01*
X64818Y-54547D01*
X64581Y-54548D01*
X64518Y-54610D01*
X64518Y-55048D01*
X64526Y-55048D01*
X64526Y-55148D01*
X64518Y-55148D01*
X64518Y-55585D01*
X64581Y-55648D01*
X64818Y-55648D01*
X64918Y-55647D01*
X65010Y-55609D01*
X65054Y-55565D01*
X65054Y-55930D01*
X65010Y-55886D01*
X64918Y-55848D01*
X64818Y-55847D01*
X64418Y-55847D01*
X64418Y-55585D01*
X64418Y-55148D01*
X64418Y-55048D01*
X64418Y-54610D01*
X64356Y-54548D01*
X64118Y-54547D01*
X64018Y-54548D01*
X63926Y-54586D01*
X63856Y-54656D01*
X63818Y-54748D01*
X63818Y-54985D01*
X63881Y-55048D01*
X64418Y-55048D01*
X64418Y-55148D01*
X63881Y-55148D01*
X63818Y-55210D01*
X63818Y-55447D01*
X63856Y-55539D01*
X63926Y-55609D01*
X64018Y-55647D01*
X64118Y-55648D01*
X64356Y-55648D01*
X64418Y-55585D01*
X64418Y-55847D01*
X64018Y-55847D01*
X63927Y-55885D01*
X63856Y-55956D01*
X63818Y-56048D01*
X63818Y-56147D01*
X63818Y-56747D01*
X63856Y-56839D01*
X63926Y-56909D01*
X64018Y-56947D01*
X64118Y-56948D01*
X64918Y-56948D01*
X65009Y-56910D01*
X65074Y-56846D01*
X65074Y-57740D01*
X65029Y-57696D01*
X64938Y-57658D01*
X64838Y-57658D01*
X64600Y-57658D01*
X64538Y-57720D01*
X64538Y-58158D01*
X64546Y-58158D01*
X64546Y-58258D01*
X64538Y-58258D01*
X64538Y-58695D01*
X64600Y-58758D01*
X64838Y-58758D01*
X64938Y-58758D01*
X65029Y-58720D01*
X65074Y-58675D01*
X65074Y-59040D01*
X65029Y-58996D01*
X64938Y-58958D01*
X64838Y-58958D01*
X64438Y-58958D01*
X64438Y-58695D01*
X64438Y-58258D01*
X64438Y-58158D01*
X64438Y-57720D01*
X64375Y-57658D01*
X64137Y-57658D01*
X64038Y-57658D01*
X63946Y-57696D01*
X63876Y-57766D01*
X63838Y-57858D01*
X63838Y-58095D01*
X63900Y-58158D01*
X64438Y-58158D01*
X64438Y-58258D01*
X63900Y-58258D01*
X63838Y-58320D01*
X63838Y-58557D01*
X63876Y-58649D01*
X63946Y-58720D01*
X64038Y-58758D01*
X64137Y-58758D01*
X64375Y-58758D01*
X64438Y-58695D01*
X64438Y-58958D01*
X64038Y-58958D01*
X63946Y-58996D01*
X63876Y-59066D01*
X63838Y-59158D01*
X63838Y-59257D01*
X63838Y-59857D01*
X63876Y-59949D01*
X63946Y-60020D01*
X64038Y-60058D01*
X64137Y-60058D01*
X64937Y-60058D01*
X65029Y-60020D01*
X65074Y-59976D01*
X65074Y-60516D01*
X65010Y-60452D01*
X64918Y-60414D01*
X64818Y-60414D01*
X64581Y-60414D01*
X64518Y-60476D01*
X64518Y-60914D01*
X64526Y-60914D01*
X64526Y-61014D01*
X64518Y-61014D01*
X64518Y-61451D01*
X64581Y-61514D01*
X64818Y-61514D01*
X64918Y-61514D01*
X65010Y-61475D01*
X65074Y-61412D01*
X65074Y-61816D01*
X65010Y-61752D01*
X64918Y-61714D01*
X64818Y-61714D01*
X64418Y-61714D01*
X64418Y-61451D01*
X64418Y-61014D01*
X64418Y-60914D01*
X64418Y-60476D01*
X64356Y-60414D01*
X64118Y-60414D01*
X64018Y-60414D01*
X63926Y-60452D01*
X63856Y-60522D01*
X63818Y-60614D01*
X63818Y-60851D01*
X63881Y-60914D01*
X64418Y-60914D01*
X64418Y-61014D01*
X63881Y-61014D01*
X63818Y-61076D01*
X63818Y-61313D01*
X63856Y-61405D01*
X63926Y-61475D01*
X64018Y-61514D01*
X64118Y-61514D01*
X64356Y-61514D01*
X64418Y-61451D01*
X64418Y-61714D01*
X64018Y-61714D01*
X63927Y-61752D01*
X63856Y-61822D01*
X63818Y-61914D01*
X63818Y-62013D01*
X63818Y-62613D01*
X63856Y-62705D01*
X63926Y-62775D01*
X64018Y-62814D01*
X64118Y-62814D01*
X64918Y-62814D01*
X65009Y-62776D01*
X65080Y-62705D01*
X65118Y-62614D01*
X65118Y-62603D01*
X65128Y-62603D01*
X65161Y-62653D01*
X65421Y-62912D01*
X65421Y-62997D01*
X65485Y-63153D01*
X65546Y-63214D01*
X65546Y-65131D01*
X65473Y-65204D01*
X65388Y-65204D01*
X65232Y-65269D01*
X65171Y-65329D01*
X65079Y-65329D01*
X65079Y-64887D01*
X65079Y-64286D01*
X65079Y-63587D01*
X65041Y-63495D01*
X64970Y-63424D01*
X64879Y-63386D01*
X64779Y-63386D01*
X64541Y-63386D01*
X64479Y-63449D01*
X64479Y-63886D01*
X65016Y-63886D01*
X65079Y-63824D01*
X65079Y-63587D01*
X65079Y-64286D01*
X65079Y-64049D01*
X65016Y-63986D01*
X64479Y-63986D01*
X64479Y-64424D01*
X64541Y-64486D01*
X64779Y-64486D01*
X64879Y-64486D01*
X64970Y-64448D01*
X65041Y-64378D01*
X65079Y-64286D01*
X65079Y-64887D01*
X65041Y-64795D01*
X64970Y-64724D01*
X64879Y-64686D01*
X64779Y-64686D01*
X64379Y-64686D01*
X64379Y-64424D01*
X64379Y-63986D01*
X64379Y-63886D01*
X64379Y-63449D01*
X64316Y-63386D01*
X64078Y-63386D01*
X63979Y-63386D01*
X63887Y-63424D01*
X63817Y-63495D01*
X63779Y-63587D01*
X63779Y-63824D01*
X63841Y-63886D01*
X64379Y-63886D01*
X64379Y-63986D01*
X63841Y-63986D01*
X63779Y-64049D01*
X63779Y-64286D01*
X63817Y-64378D01*
X63887Y-64448D01*
X63979Y-64486D01*
X64078Y-64486D01*
X64316Y-64486D01*
X64379Y-64424D01*
X64379Y-64686D01*
X63979Y-64686D01*
X63887Y-64724D01*
X63817Y-64794D01*
X63779Y-64886D01*
X63779Y-64986D01*
X63779Y-65586D01*
X63817Y-65678D01*
X63887Y-65748D01*
X63979Y-65786D01*
X64078Y-65786D01*
X64554Y-65786D01*
X64610Y-65842D01*
X64610Y-65842D01*
X64707Y-65907D01*
X64822Y-65929D01*
X65171Y-65929D01*
X65172Y-65930D01*
X65172Y-68163D01*
X65112Y-68223D01*
X65047Y-68379D01*
X65047Y-68548D01*
X65111Y-68704D01*
X65172Y-68765D01*
X65172Y-68996D01*
X65195Y-69111D01*
X65260Y-69208D01*
X65551Y-69500D01*
X65551Y-70075D01*
X65589Y-70167D01*
X65660Y-70237D01*
X65752Y-70275D01*
X65851Y-70276D01*
X66451Y-70276D01*
X66543Y-70238D01*
X66613Y-70167D01*
X66651Y-70075D01*
X66652Y-69976D01*
X66652Y-71147D01*
X65387Y-71147D01*
X65387Y-70658D01*
X65387Y-70207D01*
X65387Y-70108D01*
X65349Y-70016D01*
X65278Y-69946D01*
X65186Y-69908D01*
X64974Y-69908D01*
X64912Y-69970D01*
X64912Y-70383D01*
X65324Y-70383D01*
X65387Y-70320D01*
X65387Y-70207D01*
X65387Y-70658D01*
X65387Y-70545D01*
X65324Y-70483D01*
X64912Y-70483D01*
X64912Y-70895D01*
X64974Y-70958D01*
X65186Y-70958D01*
X65278Y-70920D01*
X65349Y-70849D01*
X65387Y-70758D01*
X65387Y-70658D01*
X65387Y-71147D01*
X64812Y-71147D01*
X64812Y-70895D01*
X64812Y-70483D01*
X64812Y-70383D01*
X64812Y-69970D01*
X64749Y-69908D01*
X64537Y-69908D01*
X64445Y-69946D01*
X64375Y-70016D01*
X64337Y-70108D01*
X64337Y-70207D01*
X64337Y-70320D01*
X64399Y-70383D01*
X64812Y-70383D01*
X64812Y-70483D01*
X64399Y-70483D01*
X64337Y-70545D01*
X64337Y-70658D01*
X64337Y-70758D01*
X64375Y-70849D01*
X64445Y-70920D01*
X64537Y-70958D01*
X64749Y-70958D01*
X64812Y-70895D01*
X64812Y-71147D01*
X63555Y-71147D01*
X63555Y-68220D01*
X63551Y-68172D01*
X63551Y-35780D01*
X63551Y-35728D01*
X63551Y-35676D01*
X63551Y-35675D01*
X63551Y-35675D01*
X63551Y-35675D01*
X63477Y-35300D01*
X63477Y-35298D01*
X63436Y-35201D01*
X63223Y-34882D01*
X63148Y-34808D01*
X63147Y-34807D01*
X62830Y-34595D01*
X62829Y-34594D01*
X62732Y-34554D01*
X62355Y-34479D01*
X62250Y-34479D01*
X62248Y-34480D01*
X61875Y-34554D01*
X61873Y-34554D01*
X61776Y-34594D01*
X61457Y-34808D01*
X61382Y-34882D01*
X61382Y-34884D01*
X61170Y-35200D01*
X61169Y-35201D01*
X61128Y-35299D01*
X61054Y-35675D01*
X61054Y-35728D01*
X61054Y-35780D01*
X61128Y-36157D01*
X61169Y-36254D01*
X61170Y-36255D01*
X61382Y-36572D01*
X61382Y-36573D01*
X61457Y-36648D01*
X61776Y-36862D01*
X61873Y-36902D01*
X61875Y-36902D01*
X62248Y-36976D01*
X62250Y-36977D01*
X62355Y-36977D01*
X62732Y-36902D01*
X62829Y-36862D01*
X62830Y-36861D01*
X63147Y-36649D01*
X63148Y-36648D01*
X63223Y-36574D01*
X63436Y-36255D01*
X63477Y-36158D01*
X63477Y-36156D01*
X63551Y-35781D01*
X63551Y-35781D01*
X63551Y-35781D01*
X63551Y-35780D01*
X63551Y-68172D01*
X63547Y-68115D01*
X63546Y-68114D01*
X63441Y-67744D01*
X63393Y-67651D01*
X63393Y-67650D01*
X63155Y-67348D01*
X63075Y-67280D01*
X63074Y-67280D01*
X62738Y-67092D01*
X62638Y-67060D01*
X62637Y-67060D01*
X62255Y-67015D01*
X62150Y-67023D01*
X62150Y-67024D01*
X61780Y-67129D01*
X61686Y-67176D01*
X61686Y-67177D01*
X61384Y-67415D01*
X61332Y-67476D01*
X61332Y-63234D01*
X61252Y-63041D01*
X61104Y-62893D01*
X60971Y-62838D01*
X61104Y-62783D01*
X61251Y-62636D01*
X61331Y-62443D01*
X61332Y-62234D01*
X61252Y-62041D01*
X61104Y-61893D01*
X60971Y-61838D01*
X61104Y-61783D01*
X61251Y-61636D01*
X61331Y-61443D01*
X61332Y-61234D01*
X61252Y-61041D01*
X61104Y-60893D01*
X60971Y-60838D01*
X61104Y-60783D01*
X61251Y-60636D01*
X61331Y-60443D01*
X61332Y-60234D01*
X61252Y-60041D01*
X61104Y-59893D01*
X60971Y-59838D01*
X61104Y-59783D01*
X61251Y-59636D01*
X61331Y-59443D01*
X61332Y-59234D01*
X61252Y-59041D01*
X61104Y-58893D01*
X60971Y-58838D01*
X61104Y-58783D01*
X61251Y-58636D01*
X61331Y-58443D01*
X61332Y-58234D01*
X61252Y-58041D01*
X61104Y-57893D01*
X60971Y-57838D01*
X61104Y-57783D01*
X61251Y-57636D01*
X61331Y-57443D01*
X61332Y-57234D01*
X61252Y-57041D01*
X61104Y-56893D01*
X60971Y-56838D01*
X61104Y-56783D01*
X61251Y-56636D01*
X61331Y-56443D01*
X61332Y-56234D01*
X61252Y-56041D01*
X61104Y-55893D01*
X60971Y-55838D01*
X61104Y-55783D01*
X61251Y-55636D01*
X61331Y-55443D01*
X61332Y-55234D01*
X61252Y-55041D01*
X61104Y-54893D01*
X60971Y-54838D01*
X61104Y-54783D01*
X61251Y-54636D01*
X61331Y-54443D01*
X61332Y-54234D01*
X61252Y-54041D01*
X61104Y-53893D01*
X60971Y-53838D01*
X61104Y-53783D01*
X61251Y-53636D01*
X61331Y-53443D01*
X61332Y-53234D01*
X61312Y-53186D01*
X61312Y-49691D01*
X61232Y-49498D01*
X61085Y-49350D01*
X60952Y-49295D01*
X61084Y-49240D01*
X61232Y-49093D01*
X61312Y-48900D01*
X61312Y-48691D01*
X61232Y-48498D01*
X61085Y-48350D01*
X60952Y-48295D01*
X61084Y-48240D01*
X61232Y-48093D01*
X61312Y-47900D01*
X61312Y-47691D01*
X61232Y-47498D01*
X61085Y-47350D01*
X60952Y-47295D01*
X61084Y-47240D01*
X61232Y-47093D01*
X61312Y-46900D01*
X61312Y-46691D01*
X61232Y-46498D01*
X61085Y-46350D01*
X60952Y-46295D01*
X61084Y-46240D01*
X61232Y-46093D01*
X61312Y-45900D01*
X61312Y-45691D01*
X61232Y-45498D01*
X61085Y-45350D01*
X60952Y-45295D01*
X61084Y-45240D01*
X61232Y-45093D01*
X61312Y-44900D01*
X61312Y-44691D01*
X61232Y-44498D01*
X61085Y-44350D01*
X60952Y-44295D01*
X61084Y-44240D01*
X61232Y-44093D01*
X61312Y-43900D01*
X61312Y-43691D01*
X61232Y-43498D01*
X61085Y-43350D01*
X60952Y-43295D01*
X61084Y-43240D01*
X61232Y-43093D01*
X61312Y-42900D01*
X61312Y-42691D01*
X61232Y-42498D01*
X61085Y-42350D01*
X60952Y-42295D01*
X61084Y-42240D01*
X61232Y-42093D01*
X61312Y-41900D01*
X61312Y-41691D01*
X61232Y-41498D01*
X61085Y-41350D01*
X60952Y-41295D01*
X61084Y-41240D01*
X61232Y-41093D01*
X61312Y-40900D01*
X61312Y-40691D01*
X61232Y-40498D01*
X61085Y-40350D01*
X60952Y-40295D01*
X61084Y-40240D01*
X61232Y-40093D01*
X61312Y-39900D01*
X61312Y-39691D01*
X61232Y-39498D01*
X61085Y-39350D01*
X60892Y-39270D01*
X60683Y-39270D01*
X60490Y-39349D01*
X60342Y-39497D01*
X60262Y-39690D01*
X60262Y-39899D01*
X60342Y-40092D01*
X60489Y-40240D01*
X60622Y-40295D01*
X60490Y-40349D01*
X60342Y-40497D01*
X60262Y-40690D01*
X60262Y-40899D01*
X60342Y-41092D01*
X60489Y-41240D01*
X60622Y-41295D01*
X60490Y-41349D01*
X60342Y-41497D01*
X60262Y-41690D01*
X60262Y-41899D01*
X60342Y-42092D01*
X60489Y-42240D01*
X60622Y-42295D01*
X60490Y-42349D01*
X60342Y-42497D01*
X60262Y-42690D01*
X60262Y-42899D01*
X60342Y-43092D01*
X60489Y-43240D01*
X60622Y-43295D01*
X60490Y-43349D01*
X60342Y-43497D01*
X60262Y-43690D01*
X60262Y-43899D01*
X60342Y-44092D01*
X60489Y-44240D01*
X60622Y-44295D01*
X60490Y-44349D01*
X60342Y-44497D01*
X60262Y-44690D01*
X60262Y-44899D01*
X60342Y-45092D01*
X60489Y-45240D01*
X60622Y-45295D01*
X60490Y-45349D01*
X60342Y-45497D01*
X60262Y-45690D01*
X60262Y-45899D01*
X60342Y-46092D01*
X60489Y-46240D01*
X60622Y-46295D01*
X60490Y-46349D01*
X60342Y-46497D01*
X60262Y-46690D01*
X60262Y-46899D01*
X60342Y-47092D01*
X60489Y-47240D01*
X60622Y-47295D01*
X60490Y-47349D01*
X60342Y-47497D01*
X60262Y-47690D01*
X60262Y-47899D01*
X60342Y-48092D01*
X60489Y-48240D01*
X60622Y-48295D01*
X60490Y-48349D01*
X60342Y-48497D01*
X60262Y-48690D01*
X60262Y-48899D01*
X60342Y-49092D01*
X60489Y-49240D01*
X60622Y-49295D01*
X60490Y-49349D01*
X60342Y-49497D01*
X60262Y-49690D01*
X60262Y-49899D01*
X60342Y-50092D01*
X60489Y-50240D01*
X60562Y-50270D01*
X60462Y-50270D01*
X60370Y-50308D01*
X60300Y-50378D01*
X60262Y-50470D01*
X60262Y-50569D01*
X60262Y-51119D01*
X60300Y-51211D01*
X60370Y-51282D01*
X60462Y-51320D01*
X60561Y-51320D01*
X61111Y-51320D01*
X61203Y-51282D01*
X61274Y-51212D01*
X61312Y-51120D01*
X61312Y-51020D01*
X61312Y-50470D01*
X61274Y-50378D01*
X61204Y-50308D01*
X61112Y-50270D01*
X61012Y-50270D01*
X61012Y-50270D01*
X61084Y-50240D01*
X61232Y-50093D01*
X61312Y-49900D01*
X61312Y-49691D01*
X61312Y-53186D01*
X61252Y-53041D01*
X61104Y-52893D01*
X60911Y-52813D01*
X60703Y-52813D01*
X60510Y-52893D01*
X60362Y-53040D01*
X60282Y-53233D01*
X60281Y-53442D01*
X60361Y-53635D01*
X60509Y-53783D01*
X60642Y-53838D01*
X60510Y-53893D01*
X60362Y-54040D01*
X60282Y-54233D01*
X60281Y-54442D01*
X60361Y-54635D01*
X60509Y-54783D01*
X60642Y-54838D01*
X60510Y-54893D01*
X60362Y-55040D01*
X60282Y-55233D01*
X60281Y-55442D01*
X60361Y-55635D01*
X60509Y-55783D01*
X60642Y-55838D01*
X60510Y-55893D01*
X60362Y-56040D01*
X60282Y-56233D01*
X60281Y-56442D01*
X60361Y-56635D01*
X60509Y-56783D01*
X60642Y-56838D01*
X60510Y-56893D01*
X60362Y-57040D01*
X60282Y-57233D01*
X60281Y-57442D01*
X60361Y-57635D01*
X60509Y-57783D01*
X60642Y-57838D01*
X60510Y-57893D01*
X60362Y-58040D01*
X60282Y-58233D01*
X60281Y-58442D01*
X60361Y-58635D01*
X60509Y-58783D01*
X60642Y-58838D01*
X60510Y-58893D01*
X60362Y-59040D01*
X60282Y-59233D01*
X60281Y-59442D01*
X60361Y-59635D01*
X60509Y-59783D01*
X60642Y-59838D01*
X60510Y-59893D01*
X60362Y-60040D01*
X60282Y-60233D01*
X60281Y-60442D01*
X60361Y-60635D01*
X60509Y-60783D01*
X60642Y-60838D01*
X60510Y-60893D01*
X60362Y-61040D01*
X60282Y-61233D01*
X60281Y-61442D01*
X60361Y-61635D01*
X60509Y-61783D01*
X60642Y-61838D01*
X60510Y-61893D01*
X60362Y-62040D01*
X60282Y-62233D01*
X60281Y-62442D01*
X60361Y-62635D01*
X60509Y-62783D01*
X60642Y-62838D01*
X60510Y-62893D01*
X60362Y-63040D01*
X60282Y-63233D01*
X60281Y-63442D01*
X60361Y-63635D01*
X60509Y-63783D01*
X60581Y-63813D01*
X60482Y-63813D01*
X60390Y-63851D01*
X60320Y-63921D01*
X60282Y-64013D01*
X60282Y-64113D01*
X60282Y-64663D01*
X60320Y-64755D01*
X60390Y-64825D01*
X60482Y-64863D01*
X60581Y-64863D01*
X61131Y-64863D01*
X61223Y-64825D01*
X61293Y-64755D01*
X61332Y-64663D01*
X61332Y-64564D01*
X61332Y-64014D01*
X61294Y-63922D01*
X61223Y-63851D01*
X61132Y-63813D01*
X61032Y-63813D01*
X61032Y-63813D01*
X61104Y-63783D01*
X61251Y-63636D01*
X61331Y-63443D01*
X61332Y-63234D01*
X61332Y-67476D01*
X61316Y-67495D01*
X61315Y-67496D01*
X61128Y-67832D01*
X61095Y-67932D01*
X61095Y-67933D01*
X61051Y-68314D01*
X61059Y-68419D01*
X61164Y-68790D01*
X61212Y-68884D01*
X61212Y-68884D01*
X61451Y-69186D01*
X61531Y-69254D01*
X61531Y-69255D01*
X61867Y-69442D01*
X61967Y-69475D01*
X61968Y-69475D01*
X62350Y-69519D01*
X62455Y-69511D01*
X62455Y-69511D01*
X62826Y-69406D01*
X62919Y-69358D01*
X62920Y-69358D01*
X63222Y-69119D01*
X63290Y-69039D01*
X63290Y-69038D01*
X63478Y-68703D01*
X63510Y-68603D01*
X63510Y-68602D01*
X63555Y-68220D01*
X63555Y-71147D01*
X59423Y-71147D01*
X59423Y-51309D01*
X59498Y-32893D01*
X59498Y-32848D01*
X97584Y-32848D01*
X97584Y-71147D01*
X97584Y-71147D01*
G37*
G54D17*
X97584Y-71147D02*
X96903Y-71147D01*
X96903Y-51596D01*
X96823Y-51403D01*
X96675Y-51255D01*
X96542Y-51200D01*
X96674Y-51146D01*
X96822Y-50998D01*
X96902Y-50805D01*
X96903Y-50596D01*
X96823Y-50403D01*
X96675Y-50255D01*
X96542Y-50200D01*
X96674Y-50146D01*
X96822Y-49998D01*
X96902Y-49805D01*
X96903Y-49596D01*
X96823Y-49403D01*
X96675Y-49255D01*
X96542Y-49200D01*
X96674Y-49146D01*
X96822Y-48998D01*
X96902Y-48805D01*
X96903Y-48596D01*
X96823Y-48403D01*
X96675Y-48255D01*
X96542Y-48200D01*
X96674Y-48146D01*
X96822Y-47998D01*
X96902Y-47805D01*
X96903Y-47596D01*
X96823Y-47403D01*
X96675Y-47255D01*
X96542Y-47200D01*
X96674Y-47146D01*
X96822Y-46998D01*
X96902Y-46805D01*
X96903Y-46596D01*
X96823Y-46403D01*
X96675Y-46255D01*
X96542Y-46200D01*
X96674Y-46146D01*
X96822Y-45998D01*
X96902Y-45805D01*
X96903Y-45596D01*
X96823Y-45403D01*
X96675Y-45255D01*
X96542Y-45200D01*
X96674Y-45146D01*
X96822Y-44998D01*
X96902Y-44805D01*
X96903Y-44596D01*
X96823Y-44403D01*
X96675Y-44255D01*
X96542Y-44200D01*
X96674Y-44146D01*
X96822Y-43998D01*
X96902Y-43805D01*
X96903Y-43596D01*
X96823Y-43403D01*
X96675Y-43255D01*
X96542Y-43200D01*
X96674Y-43146D01*
X96822Y-42998D01*
X96902Y-42805D01*
X96903Y-42596D01*
X96823Y-42403D01*
X96675Y-42255D01*
X96542Y-42200D01*
X96674Y-42146D01*
X96822Y-41998D01*
X96902Y-41805D01*
X96903Y-41596D01*
X96823Y-41403D01*
X96675Y-41255D01*
X96603Y-41225D01*
X96702Y-41225D01*
X96794Y-41187D01*
X96864Y-41117D01*
X96902Y-41025D01*
X96902Y-40926D01*
X96902Y-40376D01*
X96865Y-40284D01*
X96794Y-40213D01*
X96702Y-40175D01*
X96603Y-40175D01*
X96053Y-40175D01*
X95961Y-40213D01*
X95955Y-40219D01*
X95955Y-35725D01*
X95895Y-35347D01*
X95895Y-35345D01*
X95859Y-35247D01*
X95659Y-34920D01*
X95658Y-34919D01*
X95587Y-34841D01*
X95277Y-34616D01*
X95276Y-34615D01*
X95180Y-34571D01*
X94808Y-34482D01*
X94807Y-34481D01*
X94701Y-34477D01*
X94323Y-34537D01*
X94322Y-34537D01*
X94223Y-34573D01*
X93896Y-34773D01*
X93895Y-34774D01*
X93818Y-34845D01*
X93592Y-35155D01*
X93592Y-35156D01*
X93547Y-35252D01*
X93458Y-35626D01*
X93454Y-35731D01*
X93514Y-36109D01*
X93513Y-36110D01*
X93550Y-36209D01*
X93750Y-36536D01*
X93750Y-36537D01*
X93822Y-36614D01*
X94132Y-36839D01*
X94133Y-36840D01*
X94228Y-36884D01*
X94601Y-36974D01*
X94602Y-36974D01*
X94707Y-36978D01*
X95085Y-36919D01*
X95087Y-36919D01*
X95185Y-36882D01*
X95512Y-36682D01*
X95513Y-36682D01*
X95591Y-36610D01*
X95816Y-36300D01*
X95817Y-36299D01*
X95861Y-36204D01*
X95950Y-35833D01*
X95951Y-35830D01*
X95955Y-35725D01*
X95955Y-40219D01*
X95891Y-40283D01*
X95852Y-40375D01*
X95852Y-40475D01*
X95852Y-41025D01*
X95890Y-41117D01*
X95961Y-41187D01*
X96053Y-41225D01*
X96152Y-41225D01*
X96152Y-41225D01*
X96080Y-41255D01*
X95933Y-41403D01*
X95853Y-41595D01*
X95852Y-41804D01*
X95932Y-41997D01*
X96080Y-42145D01*
X96213Y-42200D01*
X96080Y-42255D01*
X95933Y-42403D01*
X95853Y-42595D01*
X95852Y-42804D01*
X95932Y-42997D01*
X96080Y-43145D01*
X96213Y-43200D01*
X96080Y-43255D01*
X95933Y-43403D01*
X95853Y-43595D01*
X95852Y-43804D01*
X95932Y-43997D01*
X96080Y-44145D01*
X96213Y-44200D01*
X96080Y-44255D01*
X95933Y-44403D01*
X95853Y-44595D01*
X95852Y-44804D01*
X95932Y-44997D01*
X96080Y-45145D01*
X96213Y-45200D01*
X96080Y-45255D01*
X95933Y-45403D01*
X95853Y-45595D01*
X95852Y-45804D01*
X95932Y-45997D01*
X96080Y-46145D01*
X96213Y-46200D01*
X96080Y-46255D01*
X95933Y-46403D01*
X95853Y-46595D01*
X95852Y-46804D01*
X95932Y-46997D01*
X96080Y-47145D01*
X96213Y-47200D01*
X96080Y-47255D01*
X95933Y-47403D01*
X95853Y-47595D01*
X95852Y-47804D01*
X95932Y-47997D01*
X96080Y-48145D01*
X96213Y-48200D01*
X96080Y-48255D01*
X95933Y-48403D01*
X95853Y-48595D01*
X95852Y-48804D01*
X95932Y-48997D01*
X96080Y-49145D01*
X96213Y-49200D01*
X96080Y-49255D01*
X95933Y-49403D01*
X95853Y-49595D01*
X95852Y-49804D01*
X95932Y-49997D01*
X96080Y-50145D01*
X96213Y-50200D01*
X96080Y-50255D01*
X95933Y-50403D01*
X95853Y-50595D01*
X95852Y-50804D01*
X95932Y-50997D01*
X96080Y-51145D01*
X96213Y-51200D01*
X96080Y-51255D01*
X95933Y-51403D01*
X95853Y-51595D01*
X95852Y-51804D01*
X95932Y-51997D01*
X96080Y-52145D01*
X96273Y-52225D01*
X96481Y-52225D01*
X96674Y-52146D01*
X96822Y-51998D01*
X96902Y-51805D01*
X96903Y-51596D01*
X96903Y-71147D01*
X96883Y-71147D01*
X96883Y-65356D01*
X96803Y-65163D01*
X96656Y-65015D01*
X96523Y-64960D01*
X96655Y-64905D01*
X96803Y-64758D01*
X96883Y-64565D01*
X96883Y-64356D01*
X96803Y-64163D01*
X96656Y-64015D01*
X96523Y-63960D01*
X96655Y-63905D01*
X96803Y-63758D01*
X96883Y-63565D01*
X96883Y-63356D01*
X96803Y-63163D01*
X96656Y-63015D01*
X96523Y-62960D01*
X96655Y-62905D01*
X96803Y-62758D01*
X96883Y-62565D01*
X96883Y-62356D01*
X96803Y-62163D01*
X96656Y-62015D01*
X96523Y-61960D01*
X96655Y-61905D01*
X96803Y-61758D01*
X96883Y-61565D01*
X96883Y-61356D01*
X96803Y-61163D01*
X96656Y-61015D01*
X96523Y-60960D01*
X96655Y-60905D01*
X96803Y-60758D01*
X96883Y-60565D01*
X96883Y-60356D01*
X96803Y-60163D01*
X96656Y-60015D01*
X96523Y-59960D01*
X96655Y-59905D01*
X96803Y-59758D01*
X96883Y-59565D01*
X96883Y-59356D01*
X96803Y-59163D01*
X96656Y-59015D01*
X96523Y-58960D01*
X96655Y-58905D01*
X96803Y-58758D01*
X96883Y-58565D01*
X96883Y-58356D01*
X96803Y-58163D01*
X96656Y-58015D01*
X96523Y-57960D01*
X96655Y-57905D01*
X96803Y-57758D01*
X96883Y-57565D01*
X96883Y-57356D01*
X96803Y-57163D01*
X96656Y-57015D01*
X96523Y-56960D01*
X96655Y-56905D01*
X96803Y-56758D01*
X96883Y-56565D01*
X96883Y-56356D01*
X96803Y-56163D01*
X96656Y-56015D01*
X96523Y-55960D01*
X96655Y-55905D01*
X96803Y-55758D01*
X96883Y-55565D01*
X96883Y-55356D01*
X96803Y-55163D01*
X96656Y-55015D01*
X96583Y-54985D01*
X96682Y-54985D01*
X96774Y-54947D01*
X96845Y-54877D01*
X96883Y-54785D01*
X96883Y-54686D01*
X96883Y-54136D01*
X96845Y-54044D01*
X96775Y-53973D01*
X96683Y-53935D01*
X96583Y-53935D01*
X96033Y-53935D01*
X95941Y-53973D01*
X95871Y-54043D01*
X95833Y-54135D01*
X95833Y-54235D01*
X95833Y-54785D01*
X95871Y-54877D01*
X95941Y-54947D01*
X96033Y-54985D01*
X96132Y-54985D01*
X96132Y-54985D01*
X96061Y-55015D01*
X95913Y-55162D01*
X95833Y-55355D01*
X95833Y-55564D01*
X95912Y-55757D01*
X96060Y-55905D01*
X96193Y-55960D01*
X96061Y-56015D01*
X95913Y-56162D01*
X95833Y-56355D01*
X95833Y-56564D01*
X95912Y-56757D01*
X96060Y-56905D01*
X96193Y-56960D01*
X96061Y-57015D01*
X95913Y-57162D01*
X95833Y-57355D01*
X95833Y-57564D01*
X95912Y-57757D01*
X96060Y-57905D01*
X96193Y-57960D01*
X96061Y-58015D01*
X95913Y-58162D01*
X95833Y-58355D01*
X95833Y-58564D01*
X95912Y-58757D01*
X96060Y-58905D01*
X96193Y-58960D01*
X96061Y-59015D01*
X95913Y-59162D01*
X95833Y-59355D01*
X95833Y-59564D01*
X95912Y-59757D01*
X96060Y-59905D01*
X96193Y-59960D01*
X96061Y-60015D01*
X95913Y-60162D01*
X95833Y-60355D01*
X95833Y-60564D01*
X95912Y-60757D01*
X96060Y-60905D01*
X96193Y-60960D01*
X96061Y-61015D01*
X95913Y-61162D01*
X95833Y-61355D01*
X95833Y-61564D01*
X95912Y-61757D01*
X96060Y-61905D01*
X96193Y-61960D01*
X96061Y-62015D01*
X95913Y-62162D01*
X95833Y-62355D01*
X95833Y-62564D01*
X95912Y-62757D01*
X96060Y-62905D01*
X96193Y-62960D01*
X96061Y-63015D01*
X95913Y-63162D01*
X95833Y-63355D01*
X95833Y-63564D01*
X95912Y-63757D01*
X96060Y-63905D01*
X96193Y-63960D01*
X96061Y-64015D01*
X95913Y-64162D01*
X95833Y-64355D01*
X95833Y-64564D01*
X95912Y-64757D01*
X96060Y-64905D01*
X96193Y-64960D01*
X96061Y-65015D01*
X95913Y-65162D01*
X95833Y-65355D01*
X95833Y-65564D01*
X95912Y-65757D01*
X96060Y-65905D01*
X96253Y-65985D01*
X96462Y-65985D01*
X96655Y-65905D01*
X96803Y-65758D01*
X96883Y-65565D01*
X96883Y-65356D01*
X96883Y-71147D01*
X95956Y-71147D01*
X95956Y-68245D01*
X95949Y-68140D01*
X95852Y-67768D01*
X95852Y-67767D01*
X95806Y-67673D01*
X95574Y-67367D01*
X95573Y-67366D01*
X95495Y-67297D01*
X95163Y-67103D01*
X95162Y-67102D01*
X95063Y-67068D01*
X94682Y-67016D01*
X94682Y-67016D01*
X94577Y-67022D01*
X94205Y-67120D01*
X94205Y-67120D01*
X94110Y-67166D01*
X93804Y-67398D01*
X93803Y-67398D01*
X93734Y-67477D01*
X93540Y-67809D01*
X93539Y-67809D01*
X93505Y-67909D01*
X93453Y-68290D01*
X93459Y-68395D01*
X93557Y-68766D01*
X93557Y-68767D01*
X93603Y-68861D01*
X93835Y-69167D01*
X93835Y-69168D01*
X93914Y-69238D01*
X94246Y-69432D01*
X94246Y-69432D01*
X94346Y-69466D01*
X94726Y-69518D01*
X94727Y-69519D01*
X94832Y-69512D01*
X95203Y-69415D01*
X95204Y-69415D01*
X95298Y-69369D01*
X95604Y-69136D01*
X95605Y-69136D01*
X95675Y-69057D01*
X95869Y-68726D01*
X95869Y-68725D01*
X95903Y-68626D01*
X95955Y-68246D01*
X95956Y-68245D01*
X95956Y-71147D01*
X92749Y-71147D01*
X92749Y-70658D01*
X92749Y-70207D01*
X92749Y-33650D01*
X92749Y-33199D01*
X92749Y-33100D01*
X92711Y-33008D01*
X92640Y-32938D01*
X92548Y-32900D01*
X92336Y-32900D01*
X92274Y-32962D01*
X92274Y-33375D01*
X92686Y-33375D01*
X92749Y-33312D01*
X92749Y-33199D01*
X92749Y-33650D01*
X92749Y-33537D01*
X92686Y-33475D01*
X92274Y-33475D01*
X92274Y-33887D01*
X92336Y-33950D01*
X92548Y-33950D01*
X92640Y-33912D01*
X92711Y-33841D01*
X92749Y-33750D01*
X92749Y-33650D01*
X92749Y-70207D01*
X92749Y-70108D01*
X92711Y-70016D01*
X92640Y-69946D01*
X92548Y-69908D01*
X92402Y-69908D01*
X92402Y-67908D01*
X92402Y-67209D01*
X92402Y-66509D01*
X92402Y-65909D01*
X92382Y-65862D01*
X92382Y-65093D01*
X92382Y-64394D01*
X92344Y-64303D01*
X92274Y-64232D01*
X92182Y-64194D01*
X92082Y-64194D01*
X91844Y-64194D01*
X91782Y-64256D01*
X91782Y-64694D01*
X92319Y-64694D01*
X92382Y-64631D01*
X92382Y-64394D01*
X92382Y-65093D01*
X92382Y-64856D01*
X92319Y-64794D01*
X91782Y-64794D01*
X91782Y-65231D01*
X91844Y-65294D01*
X92082Y-65294D01*
X92182Y-65294D01*
X92274Y-65256D01*
X92344Y-65185D01*
X92382Y-65093D01*
X92382Y-65862D01*
X92364Y-65818D01*
X92293Y-65747D01*
X92201Y-65709D01*
X92102Y-65709D01*
X91682Y-65709D01*
X91682Y-65231D01*
X91682Y-64794D01*
X91682Y-64694D01*
X91682Y-64256D01*
X91619Y-64194D01*
X91381Y-64194D01*
X91282Y-64194D01*
X91190Y-64232D01*
X91120Y-64303D01*
X91082Y-64394D01*
X91082Y-64631D01*
X91144Y-64694D01*
X91682Y-64694D01*
X91682Y-64794D01*
X91144Y-64794D01*
X91082Y-64856D01*
X91082Y-65093D01*
X91120Y-65185D01*
X91190Y-65256D01*
X91282Y-65294D01*
X91381Y-65294D01*
X91619Y-65294D01*
X91682Y-65231D01*
X91682Y-65709D01*
X91302Y-65709D01*
X91210Y-65747D01*
X91140Y-65817D01*
X91102Y-65909D01*
X91101Y-65940D01*
X91028Y-65940D01*
X91028Y-63627D01*
X91029Y-63626D01*
X91082Y-63626D01*
X91082Y-63793D01*
X91120Y-63885D01*
X91190Y-63956D01*
X91282Y-63994D01*
X91381Y-63994D01*
X92181Y-63994D01*
X92273Y-63956D01*
X92344Y-63886D01*
X92382Y-63794D01*
X92382Y-63694D01*
X92382Y-63094D01*
X92382Y-61924D01*
X92382Y-61225D01*
X92344Y-61133D01*
X92274Y-61063D01*
X92182Y-61025D01*
X92082Y-61025D01*
X91844Y-61025D01*
X91782Y-61087D01*
X91782Y-61525D01*
X92319Y-61525D01*
X92382Y-61462D01*
X92382Y-61225D01*
X92382Y-61924D01*
X92382Y-61687D01*
X92319Y-61625D01*
X91782Y-61625D01*
X91782Y-62062D01*
X91844Y-62125D01*
X92082Y-62125D01*
X92182Y-62125D01*
X92274Y-62087D01*
X92344Y-62016D01*
X92382Y-61924D01*
X92382Y-63094D01*
X92344Y-63003D01*
X92274Y-62932D01*
X92182Y-62894D01*
X92082Y-62894D01*
X91282Y-62894D01*
X91190Y-62932D01*
X91185Y-62937D01*
X91185Y-62082D01*
X91190Y-62087D01*
X91282Y-62125D01*
X91381Y-62125D01*
X91619Y-62125D01*
X91682Y-62062D01*
X91682Y-61625D01*
X91674Y-61625D01*
X91674Y-61525D01*
X91682Y-61525D01*
X91682Y-61087D01*
X91619Y-61025D01*
X91381Y-61025D01*
X91282Y-61025D01*
X91190Y-61063D01*
X91185Y-61068D01*
X91185Y-60782D01*
X91190Y-60787D01*
X91282Y-60825D01*
X91381Y-60825D01*
X92181Y-60825D01*
X92273Y-60787D01*
X92344Y-60716D01*
X92382Y-60625D01*
X92382Y-60525D01*
X92382Y-59925D01*
X92382Y-59031D01*
X92382Y-58331D01*
X92344Y-58240D01*
X92274Y-58169D01*
X92182Y-58131D01*
X92082Y-58131D01*
X91844Y-58131D01*
X91782Y-58193D01*
X91782Y-58631D01*
X92319Y-58631D01*
X92382Y-58568D01*
X92382Y-58331D01*
X92382Y-59031D01*
X92382Y-58793D01*
X92319Y-58731D01*
X91782Y-58731D01*
X91782Y-59168D01*
X91844Y-59231D01*
X92082Y-59231D01*
X92182Y-59231D01*
X92274Y-59193D01*
X92344Y-59122D01*
X92382Y-59031D01*
X92382Y-59925D01*
X92344Y-59833D01*
X92274Y-59763D01*
X92182Y-59725D01*
X92082Y-59725D01*
X91282Y-59725D01*
X91190Y-59763D01*
X91185Y-59768D01*
X91185Y-59188D01*
X91190Y-59193D01*
X91282Y-59231D01*
X91381Y-59231D01*
X91619Y-59231D01*
X91682Y-59168D01*
X91682Y-58731D01*
X91674Y-58731D01*
X91674Y-58631D01*
X91682Y-58631D01*
X91682Y-58193D01*
X91619Y-58131D01*
X91381Y-58131D01*
X91282Y-58131D01*
X91190Y-58169D01*
X91185Y-58174D01*
X91185Y-57888D01*
X91190Y-57893D01*
X91282Y-57931D01*
X91381Y-57931D01*
X92181Y-57931D01*
X92273Y-57893D01*
X92344Y-57823D01*
X92382Y-57731D01*
X92382Y-57631D01*
X92382Y-57031D01*
X92382Y-56117D01*
X92382Y-55418D01*
X92344Y-55326D01*
X92274Y-55256D01*
X92182Y-55218D01*
X92082Y-55218D01*
X91844Y-55218D01*
X91782Y-55280D01*
X91782Y-55718D01*
X92319Y-55718D01*
X92382Y-55655D01*
X92382Y-55418D01*
X92382Y-56117D01*
X92382Y-55880D01*
X92319Y-55818D01*
X91782Y-55818D01*
X91782Y-56255D01*
X91844Y-56318D01*
X92082Y-56318D01*
X92182Y-56318D01*
X92274Y-56279D01*
X92344Y-56209D01*
X92382Y-56117D01*
X92382Y-57031D01*
X92344Y-56940D01*
X92274Y-56869D01*
X92182Y-56831D01*
X92082Y-56831D01*
X91282Y-56831D01*
X91190Y-56869D01*
X91185Y-56874D01*
X91185Y-56836D01*
X91245Y-56776D01*
X91310Y-56620D01*
X91310Y-56451D01*
X91250Y-56304D01*
X91282Y-56318D01*
X91381Y-56318D01*
X91619Y-56318D01*
X91682Y-56255D01*
X91682Y-55818D01*
X91674Y-55818D01*
X91674Y-55718D01*
X91682Y-55718D01*
X91682Y-55280D01*
X91619Y-55218D01*
X91381Y-55218D01*
X91282Y-55218D01*
X91190Y-55256D01*
X91185Y-55260D01*
X91185Y-54975D01*
X91190Y-54979D01*
X91282Y-55018D01*
X91381Y-55018D01*
X92181Y-55018D01*
X92273Y-54980D01*
X92344Y-54909D01*
X92382Y-54818D01*
X92382Y-54718D01*
X92382Y-54118D01*
X92362Y-54070D01*
X92362Y-53538D01*
X92362Y-52839D01*
X92324Y-52747D01*
X92254Y-52677D01*
X92162Y-52639D01*
X92063Y-52639D01*
X91825Y-52639D01*
X91762Y-52701D01*
X91762Y-53139D01*
X92300Y-53139D01*
X92362Y-53076D01*
X92362Y-52839D01*
X92362Y-53538D01*
X92362Y-53301D01*
X92300Y-53239D01*
X91762Y-53239D01*
X91762Y-53676D01*
X91825Y-53739D01*
X92063Y-53739D01*
X92162Y-53739D01*
X92254Y-53701D01*
X92324Y-53630D01*
X92362Y-53538D01*
X92362Y-54070D01*
X92344Y-54026D01*
X92274Y-53956D01*
X92182Y-53918D01*
X92082Y-53918D01*
X91282Y-53918D01*
X91205Y-53949D01*
X91205Y-53715D01*
X91262Y-53739D01*
X91362Y-53739D01*
X91600Y-53739D01*
X91662Y-53676D01*
X91662Y-53239D01*
X91654Y-53239D01*
X91654Y-53139D01*
X91662Y-53139D01*
X91662Y-52701D01*
X91600Y-52639D01*
X91362Y-52639D01*
X91262Y-52639D01*
X91205Y-52663D01*
X91205Y-52415D01*
X91262Y-52439D01*
X91362Y-52439D01*
X92162Y-52439D01*
X92254Y-52401D01*
X92324Y-52331D01*
X92362Y-52239D01*
X92362Y-52139D01*
X92362Y-51539D01*
X92324Y-51447D01*
X92323Y-51446D01*
X92323Y-50842D01*
X92323Y-50143D01*
X92285Y-50051D01*
X92215Y-49980D01*
X92123Y-49942D01*
X92023Y-49942D01*
X91785Y-49942D01*
X91723Y-50005D01*
X91723Y-50442D01*
X92260Y-50442D01*
X92323Y-50380D01*
X92323Y-50143D01*
X92323Y-50842D01*
X92323Y-50605D01*
X92260Y-50542D01*
X91723Y-50542D01*
X91723Y-50980D01*
X91785Y-51042D01*
X92023Y-51042D01*
X92123Y-51042D01*
X92215Y-51004D01*
X92285Y-50933D01*
X92323Y-50842D01*
X92323Y-51446D01*
X92254Y-51377D01*
X92162Y-51339D01*
X92063Y-51339D01*
X91263Y-51339D01*
X91185Y-51371D01*
X91185Y-51026D01*
X91223Y-51042D01*
X91322Y-51042D01*
X91560Y-51042D01*
X91623Y-50980D01*
X91623Y-50542D01*
X91615Y-50542D01*
X91615Y-50442D01*
X91623Y-50442D01*
X91623Y-50005D01*
X91560Y-49942D01*
X91322Y-49942D01*
X91223Y-49942D01*
X91185Y-49958D01*
X91185Y-49726D01*
X91223Y-49742D01*
X91322Y-49742D01*
X92122Y-49742D01*
X92214Y-49704D01*
X92285Y-49634D01*
X92323Y-49542D01*
X92323Y-49443D01*
X92323Y-48843D01*
X92323Y-48164D01*
X92323Y-47465D01*
X92285Y-47373D01*
X92215Y-47303D01*
X92123Y-47265D01*
X92023Y-47265D01*
X91785Y-47265D01*
X91723Y-47327D01*
X91723Y-47765D01*
X92260Y-47765D01*
X92323Y-47702D01*
X92323Y-47465D01*
X92323Y-48164D01*
X92323Y-47927D01*
X92260Y-47865D01*
X91723Y-47865D01*
X91723Y-48302D01*
X91785Y-48365D01*
X92023Y-48365D01*
X92123Y-48365D01*
X92215Y-48327D01*
X92285Y-48256D01*
X92323Y-48164D01*
X92323Y-48843D01*
X92285Y-48751D01*
X92215Y-48680D01*
X92123Y-48642D01*
X92023Y-48642D01*
X91223Y-48642D01*
X91185Y-48658D01*
X91185Y-48349D01*
X91223Y-48365D01*
X91322Y-48365D01*
X91560Y-48365D01*
X91623Y-48302D01*
X91623Y-47865D01*
X91615Y-47865D01*
X91615Y-47765D01*
X91623Y-47765D01*
X91623Y-47327D01*
X91560Y-47265D01*
X91322Y-47265D01*
X91223Y-47265D01*
X91185Y-47280D01*
X91185Y-47049D01*
X91223Y-47065D01*
X91322Y-47065D01*
X92122Y-47065D01*
X92214Y-47027D01*
X92285Y-46957D01*
X92323Y-46865D01*
X92323Y-46765D01*
X92323Y-46165D01*
X92323Y-45389D01*
X92323Y-44690D01*
X92285Y-44598D01*
X92215Y-44527D01*
X92123Y-44489D01*
X92023Y-44489D01*
X91785Y-44489D01*
X91723Y-44552D01*
X91723Y-44989D01*
X92260Y-44989D01*
X92323Y-44927D01*
X92323Y-44690D01*
X92323Y-45389D01*
X92323Y-45152D01*
X92260Y-45089D01*
X91723Y-45089D01*
X91723Y-45527D01*
X91785Y-45589D01*
X92023Y-45589D01*
X92123Y-45589D01*
X92215Y-45551D01*
X92285Y-45481D01*
X92323Y-45389D01*
X92323Y-46165D01*
X92285Y-46073D01*
X92215Y-46003D01*
X92123Y-45965D01*
X92023Y-45965D01*
X91223Y-45965D01*
X91185Y-45980D01*
X91185Y-45574D01*
X91223Y-45589D01*
X91322Y-45589D01*
X91560Y-45589D01*
X91623Y-45527D01*
X91623Y-45089D01*
X91615Y-45089D01*
X91615Y-44989D01*
X91623Y-44989D01*
X91623Y-44552D01*
X91560Y-44489D01*
X91322Y-44489D01*
X91223Y-44489D01*
X91185Y-44505D01*
X91185Y-44274D01*
X91223Y-44289D01*
X91322Y-44289D01*
X92122Y-44289D01*
X92214Y-44251D01*
X92285Y-44181D01*
X92323Y-44089D01*
X92323Y-43990D01*
X92323Y-43390D01*
X92303Y-43342D01*
X92303Y-42751D01*
X92303Y-42052D01*
X92265Y-41960D01*
X92195Y-41890D01*
X92103Y-41852D01*
X92004Y-41851D01*
X91766Y-41851D01*
X91703Y-41914D01*
X91703Y-42351D01*
X92241Y-42351D01*
X92303Y-42289D01*
X92303Y-42052D01*
X92303Y-42751D01*
X92303Y-42514D01*
X92241Y-42451D01*
X91703Y-42451D01*
X91703Y-42889D01*
X91766Y-42951D01*
X92004Y-42952D01*
X92103Y-42951D01*
X92195Y-42913D01*
X92265Y-42843D01*
X92303Y-42751D01*
X92303Y-43342D01*
X92285Y-43298D01*
X92215Y-43227D01*
X92123Y-43189D01*
X92023Y-43189D01*
X91223Y-43189D01*
X91166Y-43213D01*
X91166Y-42936D01*
X91203Y-42951D01*
X91303Y-42952D01*
X91541Y-42951D01*
X91603Y-42889D01*
X91603Y-42451D01*
X91595Y-42451D01*
X91595Y-42351D01*
X91603Y-42351D01*
X91603Y-41914D01*
X91541Y-41851D01*
X91303Y-41851D01*
X91203Y-41852D01*
X91166Y-41867D01*
X91166Y-41636D01*
X91203Y-41651D01*
X91303Y-41652D01*
X92103Y-41652D01*
X92194Y-41614D01*
X92265Y-41543D01*
X92303Y-41451D01*
X92303Y-41352D01*
X92303Y-40752D01*
X92303Y-40133D01*
X92303Y-39434D01*
X92265Y-39342D01*
X92195Y-39272D01*
X92103Y-39233D01*
X92004Y-39233D01*
X91766Y-39233D01*
X91703Y-39296D01*
X91703Y-39733D01*
X92241Y-39733D01*
X92303Y-39671D01*
X92303Y-39434D01*
X92303Y-40133D01*
X92303Y-39896D01*
X92241Y-39833D01*
X91703Y-39833D01*
X91703Y-40271D01*
X91766Y-40333D01*
X92004Y-40333D01*
X92103Y-40333D01*
X92195Y-40295D01*
X92265Y-40225D01*
X92303Y-40133D01*
X92303Y-40752D01*
X92265Y-40660D01*
X92195Y-40590D01*
X92103Y-40552D01*
X92004Y-40551D01*
X91204Y-40551D01*
X91166Y-40567D01*
X91166Y-40318D01*
X91203Y-40333D01*
X91303Y-40333D01*
X91541Y-40333D01*
X91603Y-40271D01*
X91603Y-39833D01*
X91595Y-39833D01*
X91595Y-39733D01*
X91603Y-39733D01*
X91603Y-39296D01*
X91541Y-39233D01*
X91303Y-39233D01*
X91203Y-39233D01*
X91166Y-39249D01*
X91166Y-39018D01*
X91203Y-39033D01*
X91303Y-39033D01*
X92103Y-39033D01*
X92194Y-38995D01*
X92265Y-38925D01*
X92303Y-38833D01*
X92303Y-38734D01*
X92303Y-38134D01*
X92265Y-38042D01*
X92195Y-37972D01*
X92174Y-37963D01*
X92174Y-33887D01*
X92174Y-33475D01*
X92174Y-33375D01*
X92174Y-32962D01*
X92111Y-32900D01*
X91899Y-32900D01*
X91807Y-32938D01*
X91737Y-33008D01*
X91699Y-33100D01*
X91699Y-33199D01*
X91699Y-33312D01*
X91761Y-33375D01*
X92174Y-33375D01*
X92174Y-33475D01*
X91761Y-33475D01*
X91699Y-33537D01*
X91699Y-33650D01*
X91699Y-33750D01*
X91737Y-33841D01*
X91807Y-33912D01*
X91899Y-33950D01*
X92111Y-33950D01*
X92174Y-33887D01*
X92174Y-37963D01*
X92103Y-37933D01*
X92004Y-37933D01*
X91204Y-37933D01*
X91185Y-37941D01*
X91185Y-35714D01*
X91245Y-35654D01*
X91310Y-35498D01*
X91310Y-35329D01*
X91246Y-35172D01*
X91126Y-35053D01*
X91114Y-35048D01*
X91114Y-35048D01*
X91097Y-35023D01*
X91097Y-35023D01*
X90452Y-34377D01*
X90452Y-33802D01*
X90414Y-33710D01*
X90343Y-33640D01*
X90251Y-33602D01*
X90152Y-33601D01*
X89552Y-33601D01*
X89460Y-33639D01*
X89390Y-33710D01*
X89352Y-33802D01*
X89351Y-33901D01*
X89351Y-34701D01*
X89389Y-34793D01*
X89460Y-34863D01*
X89552Y-34901D01*
X89651Y-34902D01*
X90127Y-34902D01*
X90488Y-35262D01*
X90460Y-35328D01*
X90460Y-35497D01*
X90525Y-35653D01*
X90585Y-35714D01*
X90585Y-38124D01*
X90525Y-38184D01*
X90460Y-38340D01*
X90460Y-38509D01*
X90525Y-38665D01*
X90566Y-38706D01*
X90566Y-40781D01*
X90506Y-40841D01*
X90441Y-40997D01*
X90441Y-41166D01*
X90505Y-41323D01*
X90566Y-41383D01*
X90566Y-43439D01*
X90506Y-43499D01*
X90441Y-43655D01*
X90441Y-43824D01*
X90505Y-43980D01*
X90585Y-44060D01*
X90585Y-46175D01*
X90525Y-46235D01*
X90460Y-46391D01*
X90460Y-46560D01*
X90525Y-46716D01*
X90585Y-46777D01*
X90585Y-48931D01*
X90525Y-48991D01*
X90460Y-49147D01*
X90460Y-49316D01*
X90525Y-49472D01*
X90585Y-49533D01*
X90585Y-51490D01*
X90525Y-51550D01*
X90460Y-51706D01*
X90460Y-51875D01*
X90525Y-52031D01*
X90605Y-52112D01*
X90605Y-54069D01*
X90545Y-54129D01*
X90480Y-54285D01*
X90480Y-54454D01*
X90545Y-54610D01*
X90585Y-54651D01*
X90585Y-56234D01*
X90525Y-56294D01*
X90460Y-56450D01*
X90460Y-56619D01*
X90525Y-56775D01*
X90585Y-56836D01*
X90585Y-56982D01*
X90525Y-57042D01*
X90460Y-57198D01*
X90460Y-57367D01*
X90525Y-57523D01*
X90585Y-57584D01*
X90585Y-59915D01*
X90525Y-59975D01*
X90460Y-60131D01*
X90460Y-60300D01*
X90525Y-60456D01*
X90585Y-60517D01*
X90585Y-62925D01*
X90487Y-62966D01*
X90368Y-63085D01*
X90303Y-63241D01*
X90303Y-63410D01*
X90367Y-63567D01*
X90428Y-63627D01*
X90428Y-65919D01*
X90348Y-65999D01*
X90283Y-66155D01*
X90283Y-66324D01*
X90348Y-66480D01*
X90408Y-66541D01*
X90408Y-68813D01*
X90309Y-68912D01*
X90244Y-69068D01*
X90244Y-69237D01*
X90308Y-69393D01*
X90428Y-69513D01*
X90584Y-69578D01*
X90753Y-69578D01*
X90909Y-69514D01*
X91029Y-69394D01*
X91094Y-69238D01*
X91094Y-69069D01*
X91029Y-68913D01*
X91008Y-68891D01*
X91008Y-66541D01*
X91009Y-66540D01*
X91101Y-66540D01*
X91101Y-66608D01*
X91139Y-66700D01*
X91210Y-66771D01*
X91302Y-66809D01*
X91401Y-66809D01*
X92201Y-66809D01*
X92293Y-66771D01*
X92363Y-66701D01*
X92401Y-66609D01*
X92402Y-66509D01*
X92402Y-67209D01*
X92364Y-67118D01*
X92293Y-67047D01*
X92201Y-67009D01*
X92102Y-67009D01*
X91864Y-67009D01*
X91801Y-67071D01*
X91801Y-67509D01*
X92339Y-67509D01*
X92401Y-67446D01*
X92402Y-67209D01*
X92402Y-67908D01*
X92401Y-67671D01*
X92339Y-67609D01*
X91801Y-67609D01*
X91801Y-68046D01*
X91864Y-68109D01*
X92102Y-68109D01*
X92201Y-68109D01*
X92293Y-68071D01*
X92364Y-68000D01*
X92402Y-67908D01*
X92402Y-69908D01*
X92336Y-69908D01*
X92274Y-69970D01*
X92274Y-70383D01*
X92686Y-70383D01*
X92749Y-70320D01*
X92749Y-70207D01*
X92749Y-70658D01*
X92749Y-70545D01*
X92686Y-70483D01*
X92274Y-70483D01*
X92274Y-70895D01*
X92336Y-70958D01*
X92548Y-70958D01*
X92640Y-70920D01*
X92711Y-70849D01*
X92749Y-70758D01*
X92749Y-70658D01*
X92749Y-71147D01*
X92174Y-71147D01*
X92174Y-70895D01*
X92174Y-70483D01*
X92174Y-70383D01*
X92174Y-69970D01*
X92111Y-69908D01*
X91899Y-69908D01*
X91807Y-69946D01*
X91737Y-70016D01*
X91701Y-70102D01*
X91701Y-68046D01*
X91701Y-67609D01*
X91701Y-67509D01*
X91701Y-67071D01*
X91639Y-67009D01*
X91401Y-67009D01*
X91302Y-67009D01*
X91210Y-67047D01*
X91139Y-67118D01*
X91101Y-67209D01*
X91101Y-67446D01*
X91164Y-67509D01*
X91701Y-67509D01*
X91701Y-67609D01*
X91164Y-67609D01*
X91101Y-67671D01*
X91101Y-67908D01*
X91139Y-68000D01*
X91210Y-68071D01*
X91302Y-68109D01*
X91401Y-68109D01*
X91639Y-68109D01*
X91701Y-68046D01*
X91701Y-70102D01*
X91699Y-70108D01*
X91699Y-70207D01*
X91699Y-70320D01*
X91761Y-70383D01*
X92174Y-70383D01*
X92174Y-70483D01*
X91761Y-70483D01*
X91699Y-70545D01*
X91699Y-70658D01*
X91699Y-70758D01*
X91737Y-70849D01*
X91807Y-70920D01*
X91899Y-70958D01*
X92111Y-70958D01*
X92174Y-70895D01*
X92174Y-71147D01*
X90879Y-71147D01*
X90879Y-70348D01*
X90799Y-70155D01*
X90652Y-70007D01*
X90459Y-69927D01*
X90250Y-69927D01*
X90057Y-70007D01*
X89909Y-70154D01*
X89854Y-70287D01*
X89799Y-70155D01*
X89654Y-70010D01*
X89654Y-68879D01*
X89671Y-68863D01*
X89735Y-68706D01*
X89736Y-68537D01*
X89671Y-68381D01*
X89552Y-68261D01*
X89442Y-68216D01*
X89442Y-48827D01*
X89442Y-48376D01*
X89442Y-48277D01*
X89404Y-48185D01*
X89333Y-48115D01*
X89241Y-48077D01*
X89152Y-48077D01*
X89152Y-34602D01*
X89152Y-33901D01*
X89151Y-33802D01*
X89113Y-33710D01*
X89043Y-33639D01*
X88951Y-33601D01*
X88714Y-33601D01*
X88651Y-33664D01*
X88651Y-34201D01*
X89089Y-34201D01*
X89151Y-34139D01*
X89152Y-33901D01*
X89152Y-34602D01*
X89151Y-34364D01*
X89089Y-34301D01*
X88651Y-34301D01*
X88651Y-34839D01*
X88714Y-34901D01*
X88951Y-34902D01*
X89043Y-34864D01*
X89113Y-34793D01*
X89151Y-34701D01*
X89152Y-34602D01*
X89152Y-48077D01*
X89029Y-48077D01*
X88967Y-48139D01*
X88967Y-48552D01*
X89379Y-48552D01*
X89442Y-48489D01*
X89442Y-48376D01*
X89442Y-48827D01*
X89442Y-48714D01*
X89379Y-48652D01*
X88967Y-48652D01*
X88967Y-49064D01*
X89029Y-49127D01*
X89241Y-49127D01*
X89333Y-49089D01*
X89404Y-49019D01*
X89442Y-48927D01*
X89442Y-48827D01*
X89442Y-68216D01*
X89395Y-68197D01*
X89226Y-68196D01*
X89070Y-68261D01*
X88950Y-68380D01*
X88886Y-68537D01*
X88885Y-68706D01*
X88950Y-68862D01*
X89054Y-68966D01*
X89054Y-70010D01*
X88909Y-70154D01*
X88867Y-70256D01*
X88867Y-49064D01*
X88867Y-48652D01*
X88867Y-48552D01*
X88867Y-48139D01*
X88804Y-48077D01*
X88592Y-48077D01*
X88551Y-48094D01*
X88551Y-34839D01*
X88551Y-34301D01*
X88551Y-34201D01*
X88551Y-33664D01*
X88489Y-33601D01*
X88252Y-33601D01*
X88160Y-33639D01*
X88090Y-33710D01*
X88052Y-33802D01*
X88051Y-33901D01*
X88051Y-34139D01*
X88114Y-34201D01*
X88551Y-34201D01*
X88551Y-34301D01*
X88114Y-34301D01*
X88051Y-34364D01*
X88051Y-34602D01*
X88052Y-34701D01*
X88090Y-34793D01*
X88160Y-34864D01*
X88252Y-34902D01*
X88489Y-34901D01*
X88551Y-34839D01*
X88551Y-48094D01*
X88500Y-48115D01*
X88430Y-48185D01*
X88392Y-48277D01*
X88392Y-48376D01*
X88392Y-48489D01*
X88454Y-48552D01*
X88867Y-48552D01*
X88867Y-48652D01*
X88454Y-48652D01*
X88392Y-48714D01*
X88392Y-48827D01*
X88392Y-48927D01*
X88430Y-49019D01*
X88500Y-49089D01*
X88592Y-49127D01*
X88804Y-49127D01*
X88867Y-49064D01*
X88867Y-70256D01*
X88854Y-70287D01*
X88799Y-70155D01*
X88654Y-70010D01*
X88654Y-69249D01*
X88706Y-69197D01*
X88771Y-69041D01*
X88771Y-68872D01*
X88706Y-68716D01*
X88587Y-68596D01*
X88431Y-68531D01*
X88262Y-68531D01*
X88106Y-68596D01*
X87986Y-68715D01*
X87921Y-68871D01*
X87921Y-69040D01*
X87985Y-69197D01*
X88054Y-69265D01*
X88054Y-70010D01*
X87909Y-70154D01*
X87856Y-70281D01*
X87814Y-70179D01*
X87722Y-70155D01*
X87651Y-70226D01*
X87651Y-70084D01*
X87627Y-69992D01*
X87430Y-69922D01*
X87221Y-69934D01*
X87081Y-69992D01*
X87057Y-70084D01*
X87354Y-70382D01*
X87651Y-70084D01*
X87651Y-70226D01*
X87425Y-70452D01*
X87722Y-70749D01*
X87814Y-70725D01*
X87853Y-70615D01*
X87908Y-70749D01*
X88056Y-70897D01*
X88249Y-70977D01*
X88458Y-70977D01*
X88651Y-70898D01*
X88799Y-70750D01*
X88854Y-70617D01*
X88908Y-70749D01*
X89056Y-70897D01*
X89249Y-70977D01*
X89458Y-70977D01*
X89651Y-70898D01*
X89799Y-70750D01*
X89854Y-70617D01*
X89908Y-70749D01*
X90056Y-70897D01*
X90249Y-70977D01*
X90458Y-70977D01*
X90651Y-70898D01*
X90799Y-70750D01*
X90879Y-70557D01*
X90879Y-70348D01*
X90879Y-71147D01*
X87651Y-71147D01*
X87651Y-70820D01*
X87354Y-70523D01*
X87283Y-70594D01*
X87283Y-70452D01*
X86986Y-70155D01*
X86940Y-70167D01*
X86940Y-63262D01*
X86876Y-63106D01*
X86815Y-63045D01*
X86815Y-60478D01*
X86856Y-60437D01*
X86920Y-60281D01*
X86921Y-60112D01*
X86856Y-59956D01*
X86796Y-59895D01*
X86796Y-57564D01*
X86836Y-57524D01*
X86901Y-57368D01*
X86901Y-57199D01*
X86836Y-57043D01*
X86776Y-56982D01*
X86776Y-54631D01*
X86797Y-54611D01*
X86861Y-54454D01*
X86862Y-54285D01*
X86797Y-54129D01*
X86737Y-54069D01*
X86737Y-52112D01*
X86816Y-52032D01*
X86881Y-51876D01*
X86881Y-51707D01*
X86817Y-51550D01*
X86756Y-51490D01*
X86756Y-49494D01*
X86757Y-49493D01*
X86822Y-49336D01*
X86822Y-49167D01*
X86758Y-49011D01*
X86697Y-48950D01*
X86697Y-46797D01*
X86797Y-46697D01*
X86861Y-46541D01*
X86862Y-46372D01*
X86797Y-46216D01*
X86737Y-46155D01*
X86737Y-43982D01*
X86777Y-43941D01*
X86842Y-43785D01*
X86842Y-43616D01*
X86777Y-43460D01*
X86717Y-43399D01*
X86717Y-41403D01*
X86777Y-41343D01*
X86842Y-41187D01*
X86842Y-41018D01*
X86777Y-40861D01*
X86717Y-40801D01*
X86717Y-38686D01*
X86777Y-38626D01*
X86842Y-38470D01*
X86842Y-38301D01*
X86777Y-38145D01*
X86717Y-38084D01*
X86717Y-35793D01*
X86816Y-35693D01*
X86881Y-35537D01*
X86881Y-35368D01*
X86817Y-35212D01*
X86697Y-35092D01*
X86541Y-35027D01*
X86372Y-35027D01*
X86216Y-35092D01*
X86096Y-35211D01*
X86031Y-35367D01*
X86031Y-35536D01*
X86096Y-35693D01*
X86117Y-35714D01*
X86117Y-35992D01*
X85998Y-35992D01*
X85842Y-36056D01*
X85722Y-36176D01*
X85657Y-36332D01*
X85657Y-36501D01*
X85722Y-36657D01*
X85762Y-36698D01*
X85762Y-39108D01*
X85702Y-39168D01*
X85638Y-39324D01*
X85637Y-39493D01*
X85702Y-39649D01*
X85743Y-39690D01*
X85743Y-42002D01*
X85683Y-42062D01*
X85618Y-42218D01*
X85618Y-42387D01*
X85682Y-42543D01*
X85743Y-42604D01*
X85743Y-44443D01*
X85683Y-44503D01*
X85618Y-44659D01*
X85618Y-44828D01*
X85682Y-44984D01*
X85762Y-45064D01*
X85762Y-47159D01*
X85702Y-47219D01*
X85638Y-47375D01*
X85637Y-47544D01*
X85702Y-47701D01*
X85762Y-47761D01*
X85762Y-49954D01*
X85702Y-50014D01*
X85638Y-50170D01*
X85637Y-50340D01*
X85702Y-50496D01*
X85802Y-50596D01*
X85802Y-52494D01*
X85742Y-52554D01*
X85677Y-52710D01*
X85677Y-52879D01*
X85741Y-53035D01*
X85782Y-53076D01*
X85782Y-55072D01*
X85722Y-55132D01*
X85657Y-55289D01*
X85657Y-55458D01*
X85722Y-55614D01*
X85822Y-55714D01*
X85822Y-57986D01*
X85761Y-58046D01*
X85697Y-58202D01*
X85696Y-58371D01*
X85761Y-58527D01*
X85841Y-58608D01*
X85841Y-60899D01*
X85781Y-60959D01*
X85716Y-61115D01*
X85716Y-61284D01*
X85781Y-61441D01*
X85841Y-61501D01*
X85841Y-64088D01*
X85781Y-64148D01*
X85716Y-64304D01*
X85716Y-64473D01*
X85781Y-64630D01*
X85841Y-64690D01*
X85841Y-66903D01*
X85781Y-66963D01*
X85716Y-67119D01*
X85716Y-67288D01*
X85781Y-67445D01*
X85900Y-67564D01*
X86056Y-67629D01*
X86225Y-67629D01*
X86382Y-67565D01*
X86501Y-67445D01*
X86566Y-67289D01*
X86566Y-67120D01*
X86502Y-66964D01*
X86441Y-66903D01*
X86441Y-66684D01*
X86580Y-66684D01*
X86736Y-66620D01*
X86856Y-66500D01*
X86920Y-66344D01*
X86921Y-66175D01*
X86856Y-66019D01*
X86815Y-65978D01*
X86815Y-63647D01*
X86875Y-63587D01*
X86940Y-63431D01*
X86940Y-63262D01*
X86940Y-70167D01*
X86893Y-70179D01*
X86855Y-70289D01*
X86799Y-70155D01*
X86654Y-70010D01*
X86654Y-69615D01*
X86718Y-69552D01*
X86783Y-69395D01*
X86783Y-69226D01*
X86718Y-69070D01*
X86599Y-68950D01*
X86443Y-68886D01*
X86274Y-68885D01*
X86117Y-68950D01*
X85998Y-69069D01*
X85933Y-69226D01*
X85933Y-69395D01*
X85997Y-69551D01*
X86054Y-69608D01*
X86054Y-70010D01*
X85909Y-70154D01*
X85879Y-70227D01*
X85879Y-70128D01*
X85841Y-70036D01*
X85771Y-69965D01*
X85679Y-69927D01*
X85654Y-69927D01*
X85654Y-69572D01*
X85675Y-69552D01*
X85739Y-69395D01*
X85740Y-69226D01*
X85675Y-69070D01*
X85556Y-68950D01*
X85399Y-68886D01*
X85237Y-68885D01*
X85237Y-34044D01*
X85237Y-33593D01*
X85237Y-33493D01*
X85199Y-33402D01*
X85129Y-33331D01*
X85037Y-33293D01*
X84825Y-33293D01*
X84762Y-33356D01*
X84762Y-33768D01*
X85175Y-33768D01*
X85237Y-33706D01*
X85237Y-33593D01*
X85237Y-34044D01*
X85237Y-33931D01*
X85175Y-33868D01*
X84762Y-33868D01*
X84762Y-34281D01*
X84825Y-34343D01*
X85037Y-34343D01*
X85129Y-34305D01*
X85199Y-34235D01*
X85237Y-34143D01*
X85237Y-34044D01*
X85237Y-68885D01*
X85230Y-68885D01*
X85074Y-68950D01*
X84954Y-69069D01*
X84890Y-69226D01*
X84889Y-69395D01*
X84954Y-69551D01*
X85054Y-69651D01*
X85054Y-69927D01*
X85029Y-69927D01*
X84937Y-69965D01*
X84867Y-70035D01*
X84829Y-70127D01*
X84829Y-70227D01*
X84829Y-70777D01*
X84867Y-70869D01*
X84937Y-70939D01*
X85029Y-70977D01*
X85128Y-70977D01*
X85678Y-70977D01*
X85770Y-70939D01*
X85841Y-70869D01*
X85879Y-70777D01*
X85879Y-70678D01*
X85879Y-70678D01*
X85908Y-70749D01*
X86056Y-70897D01*
X86249Y-70977D01*
X86458Y-70977D01*
X86651Y-70898D01*
X86799Y-70750D01*
X86851Y-70623D01*
X86893Y-70725D01*
X86986Y-70749D01*
X87283Y-70452D01*
X87283Y-70594D01*
X87057Y-70820D01*
X87081Y-70913D01*
X87278Y-70982D01*
X87487Y-70971D01*
X87627Y-70913D01*
X87651Y-70820D01*
X87651Y-71147D01*
X84662Y-71147D01*
X84662Y-34281D01*
X84662Y-33868D01*
X84654Y-33868D01*
X84654Y-33768D01*
X84662Y-33768D01*
X84662Y-33356D01*
X84600Y-33293D01*
X84388Y-33293D01*
X84296Y-33331D01*
X84225Y-33402D01*
X84187Y-33493D01*
X84187Y-33593D01*
X84187Y-33593D01*
X84157Y-33521D01*
X84010Y-33374D01*
X83817Y-33293D01*
X83608Y-33293D01*
X83415Y-33373D01*
X83267Y-33521D01*
X83187Y-33714D01*
X83187Y-33922D01*
X83267Y-34115D01*
X83414Y-34263D01*
X83607Y-34343D01*
X83816Y-34343D01*
X84009Y-34264D01*
X84157Y-34116D01*
X84187Y-34044D01*
X84187Y-34044D01*
X84187Y-34143D01*
X84225Y-34235D01*
X84296Y-34305D01*
X84388Y-34343D01*
X84600Y-34343D01*
X84662Y-34281D01*
X84662Y-71147D01*
X84539Y-71147D01*
X84539Y-38537D01*
X84474Y-38381D01*
X84355Y-38261D01*
X84199Y-38197D01*
X84030Y-38196D01*
X83961Y-38225D01*
X83961Y-36226D01*
X84021Y-36166D01*
X84086Y-36010D01*
X84086Y-35841D01*
X84021Y-35684D01*
X83902Y-35565D01*
X83746Y-35500D01*
X83577Y-35500D01*
X83420Y-35564D01*
X83301Y-35684D01*
X83236Y-35840D01*
X83236Y-36009D01*
X83300Y-36165D01*
X83361Y-36226D01*
X83361Y-39324D01*
X83340Y-39345D01*
X83275Y-39501D01*
X83275Y-39670D01*
X83338Y-39823D01*
X83275Y-39974D01*
X83275Y-40059D01*
X82504Y-40831D01*
X82439Y-40928D01*
X82416Y-41043D01*
X82416Y-44291D01*
X82439Y-44406D01*
X82504Y-44503D01*
X82790Y-44789D01*
X82790Y-46962D01*
X82779Y-46972D01*
X82714Y-47070D01*
X82692Y-47185D01*
X82692Y-56919D01*
X82658Y-56869D01*
X82513Y-56772D01*
X82342Y-56738D01*
X82171Y-56772D01*
X82026Y-56869D01*
X81929Y-57014D01*
X81895Y-57185D01*
X81895Y-62874D01*
X81836Y-62732D01*
X81717Y-62612D01*
X81667Y-62591D01*
X81667Y-59080D01*
X81667Y-53863D01*
X81667Y-48371D01*
X81667Y-43076D01*
X81658Y-42820D01*
X81578Y-42628D01*
X81473Y-42589D01*
X81402Y-42660D01*
X81402Y-42518D01*
X81363Y-42413D01*
X81123Y-42324D01*
X80867Y-42333D01*
X80675Y-42413D01*
X80636Y-42518D01*
X81019Y-42901D01*
X81402Y-42518D01*
X81402Y-42660D01*
X81090Y-42972D01*
X81473Y-43355D01*
X81578Y-43316D01*
X81667Y-43076D01*
X81667Y-48371D01*
X81658Y-48115D01*
X81578Y-47923D01*
X81473Y-47884D01*
X81402Y-47955D01*
X81402Y-47813D01*
X81402Y-43426D01*
X81019Y-43043D01*
X80948Y-43113D01*
X80948Y-42972D01*
X80565Y-42589D01*
X80460Y-42628D01*
X80371Y-42868D01*
X80381Y-43124D01*
X80460Y-43316D01*
X80565Y-43355D01*
X80948Y-42972D01*
X80948Y-43113D01*
X80636Y-43426D01*
X80675Y-43531D01*
X80915Y-43620D01*
X81171Y-43610D01*
X81363Y-43531D01*
X81402Y-43426D01*
X81402Y-47813D01*
X81363Y-47708D01*
X81123Y-47619D01*
X80867Y-47629D01*
X80675Y-47708D01*
X80636Y-47813D01*
X81019Y-48197D01*
X81402Y-47813D01*
X81402Y-47955D01*
X81090Y-48267D01*
X81473Y-48650D01*
X81578Y-48611D01*
X81667Y-48371D01*
X81667Y-53863D01*
X81658Y-53608D01*
X81578Y-53415D01*
X81473Y-53376D01*
X81402Y-53447D01*
X81402Y-53306D01*
X81402Y-48721D01*
X81019Y-48338D01*
X80948Y-48409D01*
X80948Y-48267D01*
X80565Y-47884D01*
X80460Y-47923D01*
X80371Y-48163D01*
X80381Y-48419D01*
X80460Y-48611D01*
X80565Y-48650D01*
X80948Y-48267D01*
X80948Y-48409D01*
X80636Y-48721D01*
X80675Y-48826D01*
X80915Y-48915D01*
X81171Y-48906D01*
X81363Y-48826D01*
X81402Y-48721D01*
X81402Y-53306D01*
X81363Y-53201D01*
X81123Y-53111D01*
X80867Y-53121D01*
X80675Y-53201D01*
X80636Y-53306D01*
X81019Y-53689D01*
X81402Y-53306D01*
X81402Y-53447D01*
X81090Y-53759D01*
X81473Y-54142D01*
X81578Y-54104D01*
X81667Y-53863D01*
X81667Y-59080D01*
X81658Y-58824D01*
X81578Y-58632D01*
X81473Y-58593D01*
X81402Y-58664D01*
X81402Y-58522D01*
X81402Y-54213D01*
X81019Y-53830D01*
X80948Y-53901D01*
X80948Y-53759D01*
X80565Y-53376D01*
X80460Y-53415D01*
X80371Y-53655D01*
X80381Y-53911D01*
X80460Y-54104D01*
X80565Y-54142D01*
X80948Y-53759D01*
X80948Y-53901D01*
X80636Y-54213D01*
X80675Y-54318D01*
X80915Y-54407D01*
X81171Y-54398D01*
X81363Y-54318D01*
X81402Y-54213D01*
X81402Y-58522D01*
X81363Y-58417D01*
X81123Y-58328D01*
X80867Y-58337D01*
X80675Y-58417D01*
X80636Y-58522D01*
X81019Y-58905D01*
X81402Y-58522D01*
X81402Y-58664D01*
X81090Y-58976D01*
X81473Y-59359D01*
X81578Y-59320D01*
X81667Y-59080D01*
X81667Y-62591D01*
X81561Y-62547D01*
X81392Y-62547D01*
X81235Y-62611D01*
X81116Y-62731D01*
X81051Y-62887D01*
X81051Y-63056D01*
X81059Y-63076D01*
X81039Y-63084D01*
X80949Y-63173D01*
X80949Y-59907D01*
X81009Y-59847D01*
X81074Y-59691D01*
X81074Y-59618D01*
X81171Y-59614D01*
X81363Y-59535D01*
X81402Y-59430D01*
X81019Y-59047D01*
X81014Y-59052D01*
X80943Y-58981D01*
X80948Y-58976D01*
X80565Y-58593D01*
X80460Y-58632D01*
X80371Y-58872D01*
X80381Y-59128D01*
X80426Y-59238D01*
X80409Y-59245D01*
X80289Y-59365D01*
X80224Y-59521D01*
X80224Y-59605D01*
X80112Y-59651D01*
X80112Y-56788D01*
X80123Y-56776D01*
X80188Y-56620D01*
X80188Y-56451D01*
X80131Y-56313D01*
X80131Y-43523D01*
X80131Y-43523D01*
X80131Y-43523D01*
X80127Y-43500D01*
X80103Y-43382D01*
X80024Y-43263D01*
X80024Y-43263D01*
X79806Y-43046D01*
X79750Y-42909D01*
X79630Y-42789D01*
X79474Y-42724D01*
X79305Y-42724D01*
X79149Y-42789D01*
X79029Y-42908D01*
X78964Y-43064D01*
X78964Y-43233D01*
X79029Y-43390D01*
X79148Y-43509D01*
X79286Y-43566D01*
X79395Y-43676D01*
X79395Y-50577D01*
X79266Y-50577D01*
X79203Y-50639D01*
X79203Y-51052D01*
X79211Y-51052D01*
X79211Y-51152D01*
X79203Y-51152D01*
X79203Y-51564D01*
X79266Y-51627D01*
X79395Y-51627D01*
X79395Y-56313D01*
X79338Y-56450D01*
X79338Y-56619D01*
X79375Y-56709D01*
X79375Y-70078D01*
X79299Y-70154D01*
X79244Y-70287D01*
X79189Y-70155D01*
X79044Y-70010D01*
X79044Y-68367D01*
X79100Y-68311D01*
X79165Y-68155D01*
X79165Y-67986D01*
X79100Y-67830D01*
X78981Y-67710D01*
X78825Y-67645D01*
X78655Y-67645D01*
X78499Y-67710D01*
X78380Y-67829D01*
X78315Y-67985D01*
X78315Y-68068D01*
X78292Y-68045D01*
X78136Y-67980D01*
X77996Y-67980D01*
X77996Y-66763D01*
X78095Y-66763D01*
X78252Y-66699D01*
X78371Y-66579D01*
X78436Y-66423D01*
X78436Y-66254D01*
X78435Y-66250D01*
X78586Y-66187D01*
X78706Y-66067D01*
X78771Y-65911D01*
X78771Y-65749D01*
X78901Y-65695D01*
X79021Y-65575D01*
X79086Y-65419D01*
X79086Y-65250D01*
X79021Y-65094D01*
X78981Y-65053D01*
X78981Y-61062D01*
X78958Y-60948D01*
X78958Y-60948D01*
X78922Y-60893D01*
X78922Y-60893D01*
X78922Y-53490D01*
X78982Y-53430D01*
X79046Y-53273D01*
X79047Y-53104D01*
X78982Y-52948D01*
X78863Y-52828D01*
X78706Y-52764D01*
X78607Y-52763D01*
X78607Y-52728D01*
X78725Y-52728D01*
X78882Y-52663D01*
X79001Y-52544D01*
X79066Y-52388D01*
X79066Y-52218D01*
X79002Y-52062D01*
X78941Y-52002D01*
X78941Y-51627D01*
X79041Y-51627D01*
X79103Y-51564D01*
X79103Y-51152D01*
X79095Y-51152D01*
X79095Y-51052D01*
X79103Y-51052D01*
X79103Y-50639D01*
X79041Y-50577D01*
X78941Y-50577D01*
X78941Y-41324D01*
X78982Y-41284D01*
X79046Y-41128D01*
X79047Y-40959D01*
X78982Y-40802D01*
X78863Y-40683D01*
X78710Y-40619D01*
X78712Y-40616D01*
X78712Y-40447D01*
X78647Y-40291D01*
X78528Y-40171D01*
X78372Y-40106D01*
X78358Y-40106D01*
X78358Y-39955D01*
X78293Y-39798D01*
X78174Y-39679D01*
X78017Y-39614D01*
X77957Y-39614D01*
X77957Y-39330D01*
X77957Y-39330D01*
X77934Y-39215D01*
X77878Y-39132D01*
X77878Y-39132D01*
X77878Y-38332D01*
X77938Y-38272D01*
X78003Y-38116D01*
X78003Y-37947D01*
X78002Y-37944D01*
X78016Y-37939D01*
X78135Y-37819D01*
X78200Y-37663D01*
X78200Y-37494D01*
X78136Y-37338D01*
X78083Y-37285D01*
X78083Y-34812D01*
X78228Y-34667D01*
X78283Y-34534D01*
X78338Y-34667D01*
X78483Y-34812D01*
X78483Y-37681D01*
X78460Y-37690D01*
X78340Y-37810D01*
X78275Y-37966D01*
X78275Y-38135D01*
X78340Y-38291D01*
X78459Y-38411D01*
X78615Y-38476D01*
X78784Y-38476D01*
X78941Y-38411D01*
X79060Y-38292D01*
X79125Y-38136D01*
X79125Y-37967D01*
X79083Y-37864D01*
X79083Y-34812D01*
X79228Y-34667D01*
X79283Y-34534D01*
X79338Y-34667D01*
X79485Y-34814D01*
X79678Y-34894D01*
X79887Y-34895D01*
X80080Y-34815D01*
X80228Y-34667D01*
X80308Y-34474D01*
X80308Y-34266D01*
X80228Y-34073D01*
X80081Y-33925D01*
X79888Y-33845D01*
X79679Y-33844D01*
X79486Y-33924D01*
X79338Y-34072D01*
X79283Y-34205D01*
X79228Y-34073D01*
X79081Y-33925D01*
X78888Y-33845D01*
X78679Y-33844D01*
X78486Y-33924D01*
X78338Y-34072D01*
X78283Y-34205D01*
X78228Y-34073D01*
X78081Y-33925D01*
X77888Y-33845D01*
X77679Y-33844D01*
X77486Y-33924D01*
X77338Y-34072D01*
X77286Y-34198D01*
X77244Y-34097D01*
X77151Y-34072D01*
X77080Y-34143D01*
X77080Y-34002D01*
X77056Y-33909D01*
X76859Y-33840D01*
X76650Y-33851D01*
X76510Y-33909D01*
X76486Y-34002D01*
X76783Y-34299D01*
X77080Y-34002D01*
X77080Y-34143D01*
X76854Y-34370D01*
X77151Y-34667D01*
X77244Y-34642D01*
X77282Y-34532D01*
X77338Y-34667D01*
X77483Y-34812D01*
X77483Y-37269D01*
X77415Y-37337D01*
X77350Y-37493D01*
X77350Y-37662D01*
X77351Y-37665D01*
X77338Y-37670D01*
X77218Y-37790D01*
X77153Y-37946D01*
X77153Y-38115D01*
X77218Y-38271D01*
X77278Y-38332D01*
X77278Y-38382D01*
X77210Y-38354D01*
X77044Y-38354D01*
X77044Y-38267D01*
X77044Y-38061D01*
X77047Y-37844D01*
X77112Y-37780D01*
X77176Y-37624D01*
X77177Y-37455D01*
X77112Y-37298D01*
X77080Y-37266D01*
X77080Y-34737D01*
X76783Y-34440D01*
X76712Y-34511D01*
X76712Y-34370D01*
X76415Y-34072D01*
X76322Y-34097D01*
X76284Y-34207D01*
X76228Y-34073D01*
X76081Y-33925D01*
X75888Y-33845D01*
X75679Y-33844D01*
X75486Y-33924D01*
X75338Y-34072D01*
X75308Y-34144D01*
X75308Y-34045D01*
X75270Y-33953D01*
X75200Y-33883D01*
X75108Y-33845D01*
X75008Y-33845D01*
X74458Y-33845D01*
X74367Y-33883D01*
X74296Y-33953D01*
X74258Y-34045D01*
X74258Y-34144D01*
X74258Y-34694D01*
X74296Y-34786D01*
X74366Y-34856D01*
X74458Y-34895D01*
X74483Y-34895D01*
X74483Y-35702D01*
X74403Y-35782D01*
X74338Y-35938D01*
X74338Y-36107D01*
X74403Y-36264D01*
X74522Y-36383D01*
X74678Y-36448D01*
X74798Y-36448D01*
X74798Y-36706D01*
X74738Y-36766D01*
X74673Y-36922D01*
X74673Y-37092D01*
X74730Y-37229D01*
X74730Y-43129D01*
X74732Y-43141D01*
X74732Y-43273D01*
X74796Y-43429D01*
X74916Y-43549D01*
X75072Y-43613D01*
X75241Y-43614D01*
X75397Y-43549D01*
X75517Y-43430D01*
X75582Y-43273D01*
X75582Y-43104D01*
X75517Y-42948D01*
X75466Y-42897D01*
X75466Y-37229D01*
X75523Y-37092D01*
X75523Y-36923D01*
X75458Y-36767D01*
X75398Y-36706D01*
X75398Y-36541D01*
X75995Y-35944D01*
X75995Y-35944D01*
X76060Y-35847D01*
X76083Y-35732D01*
X76083Y-35732D01*
X76083Y-34812D01*
X76228Y-34667D01*
X76280Y-34541D01*
X76322Y-34642D01*
X76415Y-34667D01*
X76712Y-34370D01*
X76712Y-34511D01*
X76486Y-34737D01*
X76510Y-34830D01*
X76707Y-34899D01*
X76916Y-34888D01*
X77056Y-34830D01*
X77080Y-34737D01*
X77080Y-37266D01*
X76993Y-37179D01*
X76836Y-37114D01*
X76737Y-37114D01*
X76737Y-36364D01*
X76797Y-36304D01*
X76861Y-36147D01*
X76862Y-35978D01*
X76797Y-35822D01*
X76678Y-35702D01*
X76521Y-35638D01*
X76352Y-35637D01*
X76196Y-35702D01*
X76076Y-35821D01*
X76012Y-35978D01*
X76011Y-36147D01*
X76076Y-36303D01*
X76137Y-36364D01*
X76137Y-38242D01*
X76057Y-38321D01*
X75992Y-38478D01*
X75992Y-38647D01*
X76056Y-38803D01*
X76176Y-38923D01*
X76332Y-38987D01*
X76444Y-38988D01*
X76444Y-44603D01*
X76428Y-44597D01*
X76429Y-44541D01*
X76364Y-44385D01*
X76244Y-44265D01*
X76094Y-44203D01*
X76094Y-44148D01*
X76029Y-43991D01*
X75910Y-43872D01*
X75754Y-43807D01*
X75585Y-43807D01*
X75428Y-43871D01*
X75309Y-43991D01*
X75244Y-44147D01*
X75244Y-44316D01*
X75308Y-44472D01*
X75369Y-44533D01*
X75369Y-46838D01*
X75270Y-46838D01*
X75113Y-46903D01*
X74994Y-47022D01*
X74929Y-47178D01*
X74929Y-47347D01*
X74993Y-47504D01*
X75054Y-47564D01*
X75054Y-49344D01*
X74807Y-49591D01*
X74742Y-49688D01*
X74719Y-49803D01*
X74719Y-50177D01*
X74742Y-50291D01*
X74807Y-50389D01*
X74857Y-50439D01*
X74857Y-56143D01*
X74730Y-56090D01*
X74561Y-56090D01*
X74405Y-56155D01*
X74372Y-56188D01*
X74372Y-54231D01*
X74470Y-54132D01*
X74568Y-53896D01*
X74569Y-53640D01*
X74471Y-53403D01*
X74372Y-53304D01*
X74372Y-48739D01*
X74470Y-48640D01*
X74568Y-48404D01*
X74569Y-48148D01*
X74471Y-47911D01*
X74372Y-47812D01*
X74372Y-43443D01*
X74470Y-43345D01*
X74568Y-43108D01*
X74569Y-42852D01*
X74471Y-42616D01*
X74290Y-42434D01*
X74053Y-42336D01*
X73797Y-42336D01*
X73561Y-42434D01*
X73379Y-42615D01*
X73281Y-42851D01*
X73281Y-43107D01*
X73379Y-43344D01*
X73478Y-43443D01*
X73478Y-47812D01*
X73379Y-47910D01*
X73281Y-48146D01*
X73281Y-48403D01*
X73379Y-48639D01*
X73478Y-48739D01*
X73478Y-53304D01*
X73379Y-53402D01*
X73281Y-53639D01*
X73281Y-53895D01*
X73379Y-54131D01*
X73478Y-54231D01*
X73478Y-57125D01*
X73470Y-57165D01*
X73478Y-57204D01*
X73478Y-57361D01*
X73470Y-57401D01*
X73470Y-58528D01*
X73379Y-58619D01*
X73281Y-58855D01*
X73281Y-59111D01*
X73379Y-59348D01*
X73560Y-59529D01*
X73796Y-59627D01*
X74052Y-59628D01*
X74277Y-59535D01*
X74277Y-61676D01*
X74167Y-61786D01*
X74102Y-61942D01*
X74102Y-62111D01*
X74167Y-62267D01*
X74286Y-62387D01*
X74442Y-62452D01*
X74611Y-62452D01*
X74767Y-62388D01*
X74887Y-62268D01*
X74952Y-62112D01*
X74952Y-62100D01*
X74985Y-62050D01*
X75013Y-61909D01*
X75013Y-60063D01*
X75113Y-60163D01*
X75269Y-60228D01*
X75369Y-60228D01*
X75369Y-61122D01*
X75392Y-61236D01*
X75457Y-61334D01*
X75480Y-61357D01*
X75480Y-61442D01*
X75545Y-61598D01*
X75664Y-61718D01*
X75820Y-61783D01*
X75989Y-61783D01*
X76145Y-61718D01*
X76265Y-61599D01*
X76330Y-61443D01*
X76330Y-61402D01*
X76421Y-61364D01*
X76444Y-61341D01*
X76444Y-62921D01*
X76352Y-62921D01*
X76196Y-62985D01*
X76076Y-63105D01*
X76012Y-63261D01*
X76011Y-63430D01*
X76076Y-63586D01*
X76097Y-63608D01*
X76097Y-67769D01*
X76037Y-67829D01*
X75972Y-67985D01*
X75972Y-68155D01*
X76037Y-68311D01*
X76156Y-68430D01*
X76312Y-68495D01*
X76444Y-68495D01*
X76444Y-70010D01*
X76299Y-70154D01*
X76244Y-70287D01*
X76189Y-70155D01*
X76044Y-70010D01*
X76044Y-69360D01*
X76088Y-69315D01*
X76153Y-69159D01*
X76153Y-68990D01*
X76088Y-68834D01*
X75969Y-68714D01*
X75813Y-68649D01*
X75644Y-68649D01*
X75487Y-68714D01*
X75368Y-68833D01*
X75303Y-68989D01*
X75303Y-69158D01*
X75367Y-69315D01*
X75444Y-69391D01*
X75444Y-70010D01*
X75299Y-70154D01*
X75244Y-70287D01*
X75189Y-70155D01*
X75044Y-70010D01*
X75044Y-67722D01*
X75123Y-67642D01*
X75188Y-67486D01*
X75188Y-67317D01*
X75124Y-67161D01*
X75004Y-67041D01*
X74848Y-66976D01*
X74679Y-66976D01*
X74591Y-67012D01*
X74591Y-63973D01*
X74613Y-63919D01*
X74614Y-63750D01*
X74549Y-63594D01*
X74430Y-63474D01*
X74273Y-63409D01*
X74104Y-63409D01*
X73948Y-63474D01*
X73828Y-63593D01*
X73764Y-63749D01*
X73763Y-63918D01*
X73828Y-64075D01*
X73947Y-64194D01*
X73991Y-64212D01*
X73991Y-67454D01*
X73931Y-67514D01*
X73866Y-67670D01*
X73866Y-67840D01*
X73930Y-67996D01*
X74050Y-68115D01*
X74206Y-68180D01*
X74375Y-68180D01*
X74444Y-68152D01*
X74444Y-70010D01*
X74299Y-70154D01*
X74244Y-70287D01*
X74189Y-70155D01*
X74044Y-70010D01*
X74044Y-69076D01*
X74119Y-69000D01*
X74184Y-68844D01*
X74184Y-68675D01*
X74120Y-68519D01*
X74000Y-68399D01*
X73844Y-68334D01*
X73675Y-68334D01*
X73519Y-68399D01*
X73399Y-68518D01*
X73334Y-68674D01*
X73334Y-68844D01*
X73399Y-69000D01*
X73444Y-69045D01*
X73444Y-70010D01*
X73299Y-70154D01*
X73244Y-70287D01*
X73189Y-70155D01*
X73044Y-70010D01*
X73044Y-68433D01*
X73043Y-68429D01*
X73043Y-68426D01*
X73042Y-68365D01*
X73096Y-68311D01*
X73161Y-68155D01*
X73161Y-67986D01*
X73096Y-67830D01*
X72977Y-67710D01*
X72821Y-67645D01*
X72652Y-67645D01*
X72603Y-67665D01*
X72603Y-66954D01*
X72794Y-66763D01*
X72879Y-66763D01*
X73035Y-66699D01*
X73155Y-66579D01*
X73220Y-66423D01*
X73220Y-66254D01*
X73155Y-66098D01*
X73036Y-65978D01*
X72880Y-65913D01*
X72711Y-65913D01*
X72588Y-65964D01*
X72524Y-65899D01*
X72368Y-65834D01*
X72282Y-65834D01*
X72151Y-65703D01*
X72267Y-65655D01*
X72387Y-65536D01*
X72452Y-65380D01*
X72452Y-65339D01*
X72543Y-65301D01*
X72663Y-65182D01*
X72728Y-65025D01*
X72728Y-65020D01*
X72858Y-64966D01*
X72978Y-64847D01*
X73043Y-64691D01*
X73043Y-64522D01*
X72978Y-64365D01*
X72859Y-64246D01*
X72760Y-64205D01*
X72760Y-62230D01*
X72820Y-62170D01*
X72885Y-62014D01*
X72885Y-61844D01*
X72821Y-61688D01*
X72701Y-61569D01*
X72545Y-61504D01*
X72425Y-61504D01*
X72425Y-59316D01*
X72486Y-59256D01*
X72550Y-59100D01*
X72551Y-58931D01*
X72486Y-58775D01*
X72367Y-58655D01*
X72210Y-58590D01*
X72111Y-58590D01*
X72111Y-56344D01*
X72171Y-56284D01*
X72235Y-56128D01*
X72236Y-55959D01*
X72171Y-55802D01*
X72052Y-55683D01*
X71895Y-55618D01*
X71756Y-55618D01*
X71756Y-45385D01*
X71895Y-45385D01*
X72051Y-45321D01*
X72171Y-45201D01*
X72235Y-45045D01*
X72235Y-45009D01*
X72386Y-44947D01*
X72505Y-44827D01*
X72570Y-44671D01*
X72570Y-44666D01*
X72701Y-44612D01*
X72820Y-44493D01*
X72885Y-44336D01*
X72885Y-44167D01*
X72821Y-44011D01*
X72780Y-43970D01*
X72780Y-36560D01*
X72840Y-36500D01*
X72905Y-36344D01*
X72905Y-36175D01*
X72840Y-36019D01*
X72721Y-35899D01*
X72565Y-35834D01*
X72396Y-35834D01*
X72239Y-35899D01*
X72120Y-36018D01*
X72068Y-36143D01*
X72068Y-34024D01*
X72068Y-33474D01*
X72030Y-33382D01*
X71960Y-33312D01*
X71868Y-33274D01*
X71768Y-33274D01*
X71218Y-33274D01*
X71126Y-33312D01*
X71056Y-33382D01*
X71018Y-33474D01*
X71018Y-33561D01*
X71003Y-33526D01*
X70911Y-33502D01*
X70840Y-33572D01*
X70840Y-33431D01*
X70816Y-33338D01*
X70619Y-33269D01*
X70410Y-33280D01*
X70270Y-33338D01*
X70246Y-33431D01*
X70543Y-33728D01*
X70840Y-33431D01*
X70840Y-33572D01*
X70614Y-33799D01*
X70911Y-34096D01*
X71003Y-34072D01*
X71018Y-34031D01*
X71018Y-34123D01*
X71056Y-34215D01*
X71126Y-34286D01*
X71218Y-34324D01*
X71317Y-34324D01*
X71867Y-34324D01*
X71959Y-34286D01*
X72030Y-34216D01*
X72068Y-34124D01*
X72068Y-34024D01*
X72068Y-36143D01*
X72055Y-36174D01*
X72055Y-36344D01*
X72119Y-36500D01*
X72180Y-36560D01*
X72180Y-38630D01*
X72061Y-38630D01*
X71905Y-38694D01*
X71785Y-38814D01*
X71720Y-38970D01*
X71720Y-39139D01*
X71785Y-39295D01*
X71845Y-39356D01*
X71845Y-41248D01*
X71726Y-41248D01*
X71570Y-41312D01*
X71450Y-41432D01*
X71386Y-41588D01*
X71385Y-41757D01*
X71450Y-41913D01*
X71511Y-41974D01*
X71511Y-44023D01*
X71372Y-44023D01*
X71216Y-44088D01*
X71096Y-44207D01*
X71031Y-44363D01*
X71031Y-44532D01*
X71096Y-44689D01*
X71156Y-44749D01*
X71156Y-65433D01*
X71179Y-65547D01*
X71244Y-65645D01*
X71858Y-66259D01*
X71858Y-66344D01*
X71922Y-66500D01*
X72042Y-66619D01*
X72079Y-66635D01*
X72025Y-66715D01*
X72003Y-66830D01*
X72003Y-67710D01*
X71943Y-67770D01*
X71878Y-67926D01*
X71878Y-67995D01*
X71806Y-68025D01*
X71687Y-68144D01*
X71622Y-68300D01*
X71622Y-68386D01*
X71531Y-68476D01*
X71466Y-68574D01*
X71444Y-68688D01*
X71444Y-69927D01*
X71419Y-69927D01*
X71327Y-69965D01*
X71257Y-70035D01*
X71219Y-70127D01*
X71219Y-70227D01*
X71219Y-70777D01*
X71257Y-70869D01*
X71327Y-70939D01*
X71419Y-70977D01*
X71518Y-70977D01*
X72068Y-70977D01*
X72160Y-70939D01*
X72230Y-70869D01*
X72269Y-70777D01*
X72269Y-70678D01*
X72269Y-70678D01*
X72298Y-70749D01*
X72446Y-70897D01*
X72639Y-70977D01*
X72848Y-70977D01*
X73041Y-70898D01*
X73188Y-70750D01*
X73244Y-70617D01*
X73298Y-70749D01*
X73446Y-70897D01*
X73639Y-70977D01*
X73848Y-70977D01*
X74041Y-70898D01*
X74188Y-70750D01*
X74244Y-70617D01*
X74298Y-70749D01*
X74446Y-70897D01*
X74639Y-70977D01*
X74848Y-70977D01*
X75041Y-70898D01*
X75188Y-70750D01*
X75244Y-70617D01*
X75298Y-70749D01*
X75446Y-70897D01*
X75639Y-70977D01*
X75848Y-70977D01*
X76041Y-70898D01*
X76188Y-70750D01*
X76244Y-70617D01*
X76298Y-70749D01*
X76446Y-70897D01*
X76639Y-70977D01*
X76848Y-70977D01*
X77041Y-70898D01*
X77188Y-70750D01*
X77244Y-70617D01*
X77298Y-70749D01*
X77446Y-70897D01*
X77639Y-70977D01*
X77848Y-70977D01*
X78041Y-70898D01*
X78188Y-70750D01*
X78244Y-70617D01*
X78298Y-70749D01*
X78446Y-70897D01*
X78639Y-70977D01*
X78848Y-70977D01*
X79041Y-70898D01*
X79188Y-70750D01*
X79244Y-70617D01*
X79298Y-70749D01*
X79446Y-70897D01*
X79639Y-70977D01*
X79848Y-70977D01*
X80041Y-70898D01*
X80188Y-70750D01*
X80241Y-70623D01*
X80283Y-70725D01*
X80376Y-70749D01*
X80673Y-70452D01*
X80376Y-70155D01*
X80283Y-70179D01*
X80244Y-70289D01*
X80189Y-70155D01*
X80112Y-70078D01*
X80112Y-68570D01*
X80151Y-68665D01*
X80270Y-68785D01*
X80426Y-68850D01*
X80595Y-68850D01*
X80746Y-68788D01*
X80762Y-68804D01*
X80919Y-68869D01*
X81088Y-68869D01*
X81244Y-68805D01*
X81269Y-68779D01*
X81391Y-68830D01*
X81391Y-68830D01*
X81366Y-68891D01*
X81366Y-69060D01*
X81430Y-69216D01*
X81529Y-69315D01*
X81428Y-69416D01*
X81331Y-69561D01*
X81297Y-69732D01*
X81297Y-70159D01*
X81246Y-70281D01*
X81204Y-70179D01*
X81111Y-70155D01*
X81041Y-70226D01*
X81041Y-70084D01*
X81016Y-69992D01*
X80819Y-69922D01*
X80611Y-69934D01*
X80471Y-69992D01*
X80447Y-70084D01*
X80744Y-70382D01*
X81041Y-70084D01*
X81041Y-70226D01*
X80814Y-70452D01*
X81111Y-70749D01*
X81204Y-70725D01*
X81243Y-70615D01*
X81298Y-70749D01*
X81446Y-70897D01*
X81639Y-70977D01*
X81848Y-70977D01*
X82041Y-70898D01*
X82188Y-70750D01*
X82244Y-70617D01*
X82298Y-70749D01*
X82446Y-70897D01*
X82639Y-70977D01*
X82848Y-70977D01*
X83041Y-70898D01*
X83188Y-70750D01*
X83269Y-70557D01*
X83269Y-70348D01*
X83189Y-70155D01*
X83041Y-70007D01*
X82848Y-69927D01*
X82640Y-69927D01*
X82447Y-70007D01*
X82299Y-70154D01*
X82244Y-70287D01*
X82190Y-70159D01*
X82190Y-69917D01*
X82658Y-69449D01*
X82658Y-69449D01*
X82755Y-69304D01*
X82789Y-69133D01*
X82789Y-69133D01*
X82789Y-67127D01*
X82907Y-67176D01*
X83076Y-67177D01*
X83232Y-67112D01*
X83352Y-66993D01*
X83417Y-66836D01*
X83417Y-66667D01*
X83352Y-66511D01*
X83292Y-66450D01*
X83292Y-64251D01*
X83320Y-64263D01*
X83489Y-64263D01*
X83645Y-64199D01*
X83765Y-64079D01*
X83814Y-63962D01*
X83814Y-67484D01*
X83725Y-67395D01*
X83569Y-67330D01*
X83400Y-67330D01*
X83243Y-67395D01*
X83124Y-67514D01*
X83059Y-67670D01*
X83059Y-67829D01*
X83059Y-67829D01*
X83046Y-67893D01*
X83046Y-68990D01*
X82986Y-69050D01*
X82921Y-69206D01*
X82921Y-69375D01*
X82985Y-69531D01*
X83105Y-69651D01*
X83261Y-69716D01*
X83430Y-69716D01*
X83586Y-69651D01*
X83706Y-69532D01*
X83771Y-69376D01*
X83771Y-69207D01*
X83706Y-69050D01*
X83646Y-68990D01*
X83646Y-68434D01*
X83793Y-68495D01*
X83962Y-68495D01*
X84118Y-68431D01*
X84238Y-68311D01*
X84302Y-68155D01*
X84302Y-68070D01*
X84326Y-68046D01*
X84391Y-67949D01*
X84414Y-67834D01*
X84414Y-67834D01*
X84414Y-38923D01*
X84474Y-38863D01*
X84539Y-38706D01*
X84539Y-38537D01*
X84539Y-71147D01*
X81041Y-71147D01*
X81041Y-70820D01*
X80744Y-70523D01*
X80447Y-70820D01*
X80471Y-70913D01*
X80668Y-70982D01*
X80876Y-70971D01*
X81016Y-70913D01*
X81041Y-70820D01*
X81041Y-71147D01*
X70840Y-71147D01*
X70840Y-34167D01*
X70543Y-33869D01*
X70472Y-33940D01*
X70472Y-33799D01*
X70175Y-33502D01*
X70082Y-33526D01*
X70013Y-33723D01*
X70024Y-33931D01*
X70082Y-34072D01*
X70175Y-34096D01*
X70472Y-33799D01*
X70472Y-33940D01*
X70246Y-34167D01*
X70270Y-34259D01*
X70467Y-34329D01*
X70676Y-34317D01*
X70816Y-34259D01*
X70840Y-34167D01*
X70840Y-71147D01*
X70366Y-71147D01*
X70366Y-68360D01*
X70301Y-68204D01*
X70221Y-68124D01*
X70221Y-65891D01*
X70281Y-65831D01*
X70346Y-65675D01*
X70346Y-65506D01*
X70281Y-65350D01*
X70221Y-65289D01*
X70221Y-62702D01*
X70281Y-62642D01*
X70346Y-62486D01*
X70346Y-62317D01*
X70281Y-62161D01*
X70221Y-62100D01*
X70221Y-59749D01*
X70241Y-59729D01*
X70306Y-59573D01*
X70306Y-59404D01*
X70242Y-59247D01*
X70201Y-59206D01*
X70201Y-56836D01*
X70261Y-56776D01*
X70326Y-56620D01*
X70326Y-56451D01*
X70262Y-56295D01*
X70181Y-56214D01*
X70181Y-53942D01*
X70241Y-53882D01*
X70306Y-53726D01*
X70306Y-53557D01*
X70242Y-53401D01*
X70181Y-53340D01*
X70181Y-50793D01*
X70241Y-50733D01*
X70306Y-50577D01*
X70306Y-50407D01*
X70242Y-50251D01*
X70181Y-50191D01*
X70181Y-47997D01*
X70241Y-47937D01*
X70306Y-47781D01*
X70306Y-47612D01*
X70242Y-47456D01*
X70181Y-47395D01*
X70181Y-45143D01*
X70202Y-45122D01*
X70267Y-44966D01*
X70267Y-44797D01*
X70203Y-44641D01*
X70162Y-44600D01*
X70162Y-42466D01*
X70222Y-42406D01*
X70287Y-42250D01*
X70287Y-42081D01*
X70222Y-41924D01*
X70142Y-41844D01*
X70142Y-39808D01*
X70202Y-39748D01*
X70267Y-39592D01*
X70267Y-39423D01*
X70203Y-39267D01*
X70142Y-39206D01*
X70142Y-37111D01*
X70241Y-37012D01*
X70306Y-36856D01*
X70306Y-36687D01*
X70242Y-36531D01*
X70122Y-36411D01*
X69966Y-36346D01*
X69807Y-36346D01*
X69807Y-36088D01*
X69867Y-36028D01*
X69932Y-35872D01*
X69932Y-35703D01*
X69868Y-35546D01*
X69748Y-35427D01*
X69592Y-35362D01*
X69423Y-35362D01*
X69267Y-35426D01*
X69147Y-35546D01*
X69082Y-35702D01*
X69082Y-35871D01*
X69147Y-36027D01*
X69207Y-36088D01*
X69207Y-38202D01*
X69147Y-38262D01*
X69082Y-38419D01*
X69082Y-38588D01*
X69147Y-38744D01*
X69207Y-38804D01*
X69207Y-40880D01*
X69167Y-40920D01*
X69102Y-41076D01*
X69102Y-41245D01*
X69167Y-41401D01*
X69227Y-41462D01*
X69227Y-43596D01*
X69167Y-43656D01*
X69102Y-43812D01*
X69102Y-43981D01*
X69167Y-44138D01*
X69227Y-44198D01*
X69227Y-46391D01*
X69187Y-46432D01*
X69122Y-46588D01*
X69122Y-46757D01*
X69186Y-46913D01*
X69247Y-46974D01*
X69247Y-49187D01*
X69187Y-49247D01*
X69122Y-49403D01*
X69122Y-49572D01*
X69186Y-49728D01*
X69247Y-49789D01*
X69247Y-52356D01*
X69187Y-52416D01*
X69122Y-52572D01*
X69122Y-52741D01*
X69186Y-52897D01*
X69247Y-52958D01*
X69247Y-55210D01*
X69187Y-55270D01*
X69122Y-55426D01*
X69122Y-55595D01*
X69186Y-55752D01*
X69247Y-55812D01*
X69247Y-58163D01*
X69167Y-58243D01*
X69102Y-58399D01*
X69102Y-58568D01*
X69167Y-58724D01*
X69227Y-58785D01*
X69227Y-61175D01*
X69226Y-61176D01*
X69161Y-61332D01*
X69161Y-61501D01*
X69226Y-61657D01*
X69286Y-61718D01*
X69286Y-64246D01*
X69187Y-64345D01*
X69122Y-64501D01*
X69122Y-64670D01*
X69186Y-64827D01*
X69247Y-64887D01*
X69247Y-67120D01*
X69187Y-67180D01*
X69122Y-67336D01*
X69122Y-67505D01*
X69186Y-67661D01*
X69306Y-67781D01*
X69462Y-67846D01*
X69621Y-67846D01*
X69621Y-68163D01*
X69580Y-68203D01*
X69516Y-68359D01*
X69515Y-68529D01*
X69580Y-68685D01*
X69699Y-68804D01*
X69856Y-68869D01*
X70025Y-68869D01*
X70181Y-68805D01*
X70301Y-68685D01*
X70365Y-68529D01*
X70366Y-68360D01*
X70366Y-71147D01*
X67952Y-71147D01*
X67952Y-69976D01*
X67952Y-69275D01*
X67951Y-69176D01*
X67913Y-69084D01*
X67912Y-69083D01*
X67912Y-34425D01*
X67912Y-33724D01*
X67912Y-33624D01*
X67874Y-33533D01*
X67804Y-33462D01*
X67712Y-33424D01*
X67475Y-33424D01*
X67412Y-33487D01*
X67412Y-34024D01*
X67850Y-34024D01*
X67912Y-33962D01*
X67912Y-33724D01*
X67912Y-34425D01*
X67912Y-34187D01*
X67850Y-34124D01*
X67412Y-34124D01*
X67412Y-34662D01*
X67475Y-34724D01*
X67712Y-34724D01*
X67804Y-34686D01*
X67874Y-34616D01*
X67912Y-34524D01*
X67912Y-34425D01*
X67912Y-69083D01*
X67843Y-69013D01*
X67751Y-68975D01*
X67514Y-68975D01*
X67451Y-69038D01*
X67451Y-69575D01*
X67889Y-69575D01*
X67951Y-69513D01*
X67952Y-69275D01*
X67952Y-69976D01*
X67951Y-69738D01*
X67889Y-69675D01*
X67451Y-69675D01*
X67451Y-70213D01*
X67514Y-70275D01*
X67751Y-70276D01*
X67843Y-70238D01*
X67913Y-70167D01*
X67951Y-70075D01*
X67952Y-69976D01*
X67952Y-71147D01*
X67351Y-71147D01*
X67351Y-70213D01*
X67351Y-69675D01*
X67351Y-69575D01*
X67351Y-69038D01*
X67312Y-68999D01*
X67312Y-34662D01*
X67312Y-34124D01*
X67312Y-34024D01*
X67312Y-33487D01*
X67250Y-33424D01*
X67013Y-33424D01*
X66921Y-33462D01*
X66850Y-33533D01*
X66812Y-33624D01*
X66812Y-33724D01*
X66812Y-33962D01*
X66875Y-34024D01*
X67312Y-34024D01*
X67312Y-34124D01*
X66875Y-34124D01*
X66812Y-34187D01*
X66812Y-34425D01*
X66812Y-34524D01*
X66850Y-34616D01*
X66921Y-34686D01*
X67013Y-34724D01*
X67250Y-34724D01*
X67312Y-34662D01*
X67312Y-68999D01*
X67289Y-68975D01*
X67052Y-68975D01*
X66960Y-69013D01*
X66890Y-69084D01*
X66852Y-69176D01*
X66851Y-69275D01*
X66851Y-69513D01*
X66914Y-69575D01*
X67351Y-69575D01*
X67351Y-69675D01*
X66914Y-69675D01*
X66851Y-69738D01*
X66851Y-69976D01*
X66852Y-70075D01*
X66890Y-70167D01*
X66960Y-70238D01*
X67052Y-70276D01*
X67289Y-70275D01*
X67351Y-70213D01*
X67351Y-71147D01*
X66666Y-71147D01*
X66666Y-51544D01*
X66666Y-51093D01*
X66666Y-50993D01*
X66628Y-50902D01*
X66558Y-50831D01*
X66466Y-50793D01*
X66254Y-50793D01*
X66191Y-50856D01*
X66191Y-51268D01*
X66604Y-51268D01*
X66666Y-51206D01*
X66666Y-51093D01*
X66666Y-51544D01*
X66666Y-51431D01*
X66604Y-51368D01*
X66191Y-51368D01*
X66191Y-51781D01*
X66254Y-51843D01*
X66466Y-51843D01*
X66558Y-51805D01*
X66628Y-51735D01*
X66666Y-51643D01*
X66666Y-51544D01*
X66666Y-71147D01*
X66652Y-71147D01*
X66652Y-69976D01*
X66652Y-69176D01*
X66614Y-69084D01*
X66543Y-69014D01*
X66451Y-68976D01*
X66352Y-68975D01*
X65876Y-68975D01*
X65772Y-68872D01*
X65772Y-68765D01*
X65832Y-68705D01*
X65897Y-68549D01*
X65897Y-68380D01*
X65832Y-68224D01*
X65772Y-68163D01*
X65772Y-65930D01*
X65832Y-65870D01*
X65897Y-65714D01*
X65897Y-65629D01*
X66058Y-65468D01*
X66058Y-65468D01*
X66123Y-65370D01*
X66146Y-65255D01*
X66146Y-65255D01*
X66146Y-63214D01*
X66206Y-63154D01*
X66271Y-62998D01*
X66271Y-62829D01*
X66206Y-62672D01*
X66087Y-62553D01*
X65931Y-62488D01*
X65845Y-62488D01*
X65674Y-62316D01*
X65674Y-62303D01*
X65674Y-59789D01*
X65734Y-59729D01*
X65798Y-59573D01*
X65799Y-59404D01*
X65734Y-59247D01*
X65674Y-59187D01*
X65674Y-56816D01*
X65734Y-56756D01*
X65798Y-56600D01*
X65799Y-56431D01*
X65734Y-56275D01*
X65654Y-56194D01*
X65654Y-53962D01*
X65714Y-53902D01*
X65779Y-53746D01*
X65779Y-53577D01*
X65714Y-53420D01*
X65654Y-53360D01*
X65654Y-51734D01*
X65654Y-51735D01*
X65725Y-51805D01*
X65817Y-51843D01*
X66029Y-51843D01*
X66091Y-51781D01*
X66091Y-51368D01*
X66083Y-51368D01*
X66083Y-51268D01*
X66091Y-51268D01*
X66091Y-50856D01*
X66029Y-50793D01*
X65817Y-50793D01*
X65725Y-50831D01*
X65654Y-50902D01*
X65654Y-50903D01*
X65654Y-50773D01*
X65714Y-50713D01*
X65779Y-50557D01*
X65779Y-50388D01*
X65714Y-50232D01*
X65654Y-50171D01*
X65654Y-48253D01*
X65714Y-48193D01*
X65779Y-48037D01*
X65779Y-47868D01*
X65714Y-47712D01*
X65654Y-47651D01*
X65654Y-45182D01*
X65714Y-45122D01*
X65779Y-44966D01*
X65779Y-44797D01*
X65714Y-44641D01*
X65654Y-44580D01*
X65654Y-42486D01*
X65714Y-42426D01*
X65779Y-42269D01*
X65779Y-42100D01*
X65714Y-41944D01*
X65674Y-41903D01*
X65674Y-39789D01*
X65734Y-39729D01*
X65798Y-39573D01*
X65799Y-39404D01*
X65734Y-39247D01*
X65674Y-39187D01*
X65674Y-37643D01*
X65734Y-37583D01*
X65798Y-37427D01*
X65799Y-37258D01*
X65734Y-37102D01*
X65674Y-37041D01*
X65674Y-34708D01*
X65712Y-34724D01*
X65812Y-34724D01*
X66412Y-34724D01*
X66504Y-34686D01*
X66574Y-34616D01*
X66612Y-34524D01*
X66612Y-34425D01*
X66612Y-33625D01*
X66574Y-33533D01*
X66504Y-33462D01*
X66412Y-33424D01*
X66313Y-33424D01*
X65713Y-33424D01*
X65621Y-33462D01*
X65550Y-33533D01*
X65512Y-33624D01*
X65512Y-33724D01*
X65512Y-33794D01*
X65495Y-33797D01*
X65398Y-33862D01*
X65387Y-33873D01*
X65387Y-33631D01*
X65387Y-33180D01*
X65387Y-33080D01*
X65349Y-32988D01*
X65278Y-32918D01*
X65186Y-32880D01*
X64974Y-32880D01*
X64912Y-32943D01*
X64912Y-33355D01*
X65324Y-33355D01*
X65387Y-33293D01*
X65387Y-33180D01*
X65387Y-33631D01*
X65387Y-33518D01*
X65324Y-33455D01*
X64912Y-33455D01*
X64912Y-33868D01*
X64974Y-33930D01*
X65186Y-33930D01*
X65278Y-33892D01*
X65349Y-33822D01*
X65387Y-33730D01*
X65387Y-33631D01*
X65387Y-33873D01*
X65161Y-34098D01*
X65096Y-34196D01*
X65074Y-34311D01*
X65074Y-37041D01*
X65013Y-37101D01*
X64949Y-37257D01*
X64948Y-37426D01*
X65013Y-37582D01*
X65074Y-37643D01*
X65074Y-37701D01*
X65049Y-37676D01*
X64957Y-37638D01*
X64858Y-37638D01*
X64812Y-37638D01*
X64812Y-33868D01*
X64812Y-33455D01*
X64812Y-33355D01*
X64812Y-32943D01*
X64749Y-32880D01*
X64537Y-32880D01*
X64445Y-32918D01*
X64375Y-32988D01*
X64337Y-33080D01*
X64337Y-33180D01*
X64337Y-33293D01*
X64399Y-33355D01*
X64812Y-33355D01*
X64812Y-33455D01*
X64399Y-33455D01*
X64337Y-33518D01*
X64337Y-33631D01*
X64337Y-33730D01*
X64375Y-33822D01*
X64445Y-33892D01*
X64537Y-33930D01*
X64749Y-33930D01*
X64812Y-33868D01*
X64812Y-37638D01*
X64620Y-37638D01*
X64557Y-37701D01*
X64557Y-38138D01*
X64565Y-38138D01*
X64565Y-38238D01*
X64557Y-38238D01*
X64557Y-38676D01*
X64620Y-38738D01*
X64858Y-38738D01*
X64957Y-38738D01*
X65049Y-38700D01*
X65074Y-38676D01*
X65074Y-39001D01*
X65049Y-38976D01*
X64957Y-38938D01*
X64858Y-38938D01*
X64457Y-38938D01*
X64457Y-38676D01*
X64457Y-38238D01*
X64457Y-38138D01*
X64457Y-37701D01*
X64395Y-37638D01*
X64157Y-37638D01*
X64057Y-37638D01*
X63966Y-37676D01*
X63895Y-37747D01*
X63857Y-37839D01*
X63857Y-38076D01*
X63920Y-38138D01*
X64457Y-38138D01*
X64457Y-38238D01*
X63920Y-38238D01*
X63857Y-38301D01*
X63857Y-38538D01*
X63895Y-38630D01*
X63966Y-38700D01*
X64057Y-38738D01*
X64157Y-38738D01*
X64395Y-38738D01*
X64457Y-38676D01*
X64457Y-38938D01*
X64058Y-38938D01*
X63966Y-38976D01*
X63896Y-39046D01*
X63857Y-39138D01*
X63857Y-39238D01*
X63857Y-39838D01*
X63895Y-39930D01*
X63966Y-40000D01*
X64057Y-40038D01*
X64157Y-40038D01*
X64957Y-40038D01*
X65049Y-40000D01*
X65074Y-39975D01*
X65074Y-40378D01*
X65029Y-40334D01*
X64938Y-40296D01*
X64838Y-40296D01*
X64600Y-40296D01*
X64538Y-40358D01*
X64538Y-40796D01*
X64546Y-40796D01*
X64546Y-40896D01*
X64538Y-40896D01*
X64538Y-41333D01*
X64600Y-41396D01*
X64838Y-41396D01*
X64938Y-41396D01*
X65029Y-41357D01*
X65074Y-41313D01*
X65074Y-41678D01*
X65029Y-41634D01*
X64938Y-41596D01*
X64838Y-41596D01*
X64438Y-41596D01*
X64438Y-41333D01*
X64438Y-40896D01*
X64438Y-40796D01*
X64438Y-40358D01*
X64375Y-40296D01*
X64137Y-40296D01*
X64038Y-40296D01*
X63946Y-40334D01*
X63876Y-40404D01*
X63838Y-40496D01*
X63838Y-40733D01*
X63900Y-40796D01*
X64438Y-40796D01*
X64438Y-40896D01*
X63900Y-40896D01*
X63838Y-40958D01*
X63838Y-41195D01*
X63876Y-41287D01*
X63946Y-41357D01*
X64038Y-41396D01*
X64137Y-41396D01*
X64375Y-41396D01*
X64438Y-41333D01*
X64438Y-41596D01*
X64038Y-41596D01*
X63946Y-41633D01*
X63876Y-41704D01*
X63838Y-41796D01*
X63838Y-41895D01*
X63838Y-42495D01*
X63876Y-42587D01*
X63946Y-42657D01*
X64038Y-42696D01*
X64137Y-42696D01*
X64937Y-42696D01*
X65029Y-42658D01*
X65054Y-42633D01*
X65054Y-43064D01*
X64977Y-43032D01*
X64878Y-43032D01*
X64640Y-43032D01*
X64577Y-43094D01*
X64577Y-43532D01*
X64585Y-43532D01*
X64585Y-43632D01*
X64577Y-43632D01*
X64577Y-44069D01*
X64640Y-44132D01*
X64878Y-44132D01*
X64977Y-44132D01*
X65054Y-44100D01*
X65054Y-44364D01*
X64977Y-44332D01*
X64878Y-44332D01*
X64477Y-44332D01*
X64477Y-44069D01*
X64477Y-43632D01*
X64477Y-43532D01*
X64477Y-43094D01*
X64415Y-43032D01*
X64177Y-43032D01*
X64077Y-43032D01*
X63985Y-43070D01*
X63915Y-43140D01*
X63877Y-43232D01*
X63877Y-43469D01*
X63940Y-43532D01*
X64477Y-43532D01*
X64477Y-43632D01*
X63940Y-43632D01*
X63877Y-43694D01*
X63877Y-43931D01*
X63915Y-44023D01*
X63985Y-44094D01*
X64077Y-44132D01*
X64177Y-44132D01*
X64415Y-44132D01*
X64477Y-44069D01*
X64477Y-44332D01*
X64078Y-44332D01*
X63986Y-44370D01*
X63915Y-44440D01*
X63877Y-44532D01*
X63877Y-44631D01*
X63877Y-45231D01*
X63915Y-45323D01*
X63985Y-45394D01*
X64077Y-45432D01*
X64177Y-45432D01*
X64977Y-45432D01*
X65054Y-45400D01*
X65054Y-45949D01*
X65010Y-45905D01*
X64918Y-45866D01*
X64818Y-45866D01*
X64581Y-45866D01*
X64518Y-45929D01*
X64518Y-46366D01*
X64526Y-46366D01*
X64526Y-46466D01*
X64518Y-46466D01*
X64518Y-46904D01*
X64581Y-46966D01*
X64818Y-46966D01*
X64918Y-46966D01*
X65010Y-46928D01*
X65054Y-46884D01*
X65054Y-47249D01*
X65010Y-47205D01*
X64918Y-47166D01*
X64818Y-47166D01*
X64418Y-47166D01*
X64418Y-46904D01*
X64418Y-46466D01*
X64418Y-46366D01*
X64418Y-45929D01*
X64356Y-45866D01*
X64118Y-45866D01*
X64018Y-45866D01*
X63926Y-45905D01*
X63856Y-45975D01*
X63818Y-46067D01*
X63818Y-46304D01*
X63881Y-46366D01*
X64418Y-46366D01*
X64418Y-46466D01*
X63881Y-46466D01*
X63818Y-46529D01*
X63818Y-46766D01*
X63856Y-46858D01*
X63926Y-46928D01*
X64018Y-46966D01*
X64118Y-46966D01*
X64356Y-46966D01*
X64418Y-46904D01*
X64418Y-47166D01*
X64018Y-47166D01*
X63927Y-47204D01*
X63856Y-47275D01*
X63818Y-47366D01*
X63818Y-47466D01*
X63818Y-48066D01*
X63856Y-48158D01*
X63926Y-48228D01*
X64018Y-48266D01*
X64118Y-48266D01*
X64918Y-48266D01*
X64952Y-48252D01*
X65053Y-48252D01*
X65054Y-48253D01*
X65054Y-48635D01*
X64977Y-48603D01*
X64878Y-48603D01*
X64640Y-48603D01*
X64577Y-48665D01*
X64577Y-49103D01*
X64585Y-49103D01*
X64585Y-49203D01*
X64577Y-49203D01*
X64577Y-49640D01*
X64640Y-49703D01*
X64878Y-49703D01*
X64977Y-49703D01*
X65054Y-49671D01*
X65054Y-49935D01*
X64977Y-49903D01*
X64878Y-49903D01*
X64477Y-49903D01*
X64477Y-49640D01*
X64477Y-49203D01*
X64477Y-49103D01*
X64477Y-48665D01*
X64415Y-48603D01*
X64177Y-48603D01*
X64077Y-48603D01*
X63985Y-48641D01*
X63915Y-48711D01*
X63877Y-48803D01*
X63877Y-49040D01*
X63940Y-49103D01*
X64477Y-49103D01*
X64477Y-49203D01*
X63940Y-49203D01*
X63877Y-49265D01*
X63877Y-49502D01*
X63915Y-49594D01*
X63985Y-49664D01*
X64077Y-49703D01*
X64177Y-49703D01*
X64415Y-49703D01*
X64477Y-49640D01*
X64477Y-49903D01*
X64078Y-49903D01*
X63986Y-49941D01*
X63915Y-50011D01*
X63877Y-50103D01*
X63877Y-50202D01*
X63877Y-50802D01*
X63915Y-50894D01*
X63985Y-50964D01*
X64077Y-51003D01*
X64177Y-51003D01*
X64977Y-51003D01*
X65054Y-50971D01*
X65054Y-51775D01*
X65049Y-51771D01*
X64957Y-51733D01*
X64858Y-51733D01*
X64620Y-51733D01*
X64557Y-51795D01*
X64557Y-52233D01*
X64565Y-52233D01*
X64565Y-52333D01*
X64557Y-52333D01*
X64557Y-52770D01*
X64620Y-52833D01*
X64858Y-52833D01*
X64957Y-52833D01*
X65049Y-52794D01*
X65054Y-52790D01*
X65054Y-53075D01*
X65049Y-53071D01*
X64957Y-53033D01*
X64858Y-53033D01*
X64457Y-53033D01*
X64457Y-52770D01*
X64457Y-52333D01*
X64457Y-52233D01*
X64457Y-51795D01*
X64395Y-51733D01*
X64157Y-51733D01*
X64057Y-51733D01*
X63966Y-51771D01*
X63895Y-51841D01*
X63857Y-51933D01*
X63857Y-52170D01*
X63920Y-52233D01*
X64457Y-52233D01*
X64457Y-52333D01*
X63920Y-52333D01*
X63857Y-52395D01*
X63857Y-52632D01*
X63895Y-52724D01*
X63966Y-52794D01*
X64057Y-52833D01*
X64157Y-52833D01*
X64395Y-52833D01*
X64457Y-52770D01*
X64457Y-53033D01*
X64058Y-53033D01*
X63966Y-53071D01*
X63896Y-53141D01*
X63857Y-53233D01*
X63857Y-53332D01*
X63857Y-53932D01*
X63895Y-54024D01*
X63966Y-54094D01*
X64057Y-54133D01*
X64157Y-54133D01*
X64957Y-54133D01*
X65049Y-54095D01*
X65054Y-54090D01*
X65054Y-54630D01*
X65010Y-54586D01*
X64918Y-54548D01*
X64818Y-54547D01*
X64581Y-54548D01*
X64518Y-54610D01*
X64518Y-55048D01*
X64526Y-55048D01*
X64526Y-55148D01*
X64518Y-55148D01*
X64518Y-55585D01*
X64581Y-55648D01*
X64818Y-55648D01*
X64918Y-55647D01*
X65010Y-55609D01*
X65054Y-55565D01*
X65054Y-55930D01*
X65010Y-55886D01*
X64918Y-55848D01*
X64818Y-55847D01*
X64418Y-55847D01*
X64418Y-55585D01*
X64418Y-55148D01*
X64418Y-55048D01*
X64418Y-54610D01*
X64356Y-54548D01*
X64118Y-54547D01*
X64018Y-54548D01*
X63926Y-54586D01*
X63856Y-54656D01*
X63818Y-54748D01*
X63818Y-54985D01*
X63881Y-55048D01*
X64418Y-55048D01*
X64418Y-55148D01*
X63881Y-55148D01*
X63818Y-55210D01*
X63818Y-55447D01*
X63856Y-55539D01*
X63926Y-55609D01*
X64018Y-55647D01*
X64118Y-55648D01*
X64356Y-55648D01*
X64418Y-55585D01*
X64418Y-55847D01*
X64018Y-55847D01*
X63927Y-55885D01*
X63856Y-55956D01*
X63818Y-56048D01*
X63818Y-56147D01*
X63818Y-56747D01*
X63856Y-56839D01*
X63926Y-56909D01*
X64018Y-56947D01*
X64118Y-56948D01*
X64918Y-56948D01*
X65009Y-56910D01*
X65074Y-56846D01*
X65074Y-57740D01*
X65029Y-57696D01*
X64938Y-57658D01*
X64838Y-57658D01*
X64600Y-57658D01*
X64538Y-57720D01*
X64538Y-58158D01*
X64546Y-58158D01*
X64546Y-58258D01*
X64538Y-58258D01*
X64538Y-58695D01*
X64600Y-58758D01*
X64838Y-58758D01*
X64938Y-58758D01*
X65029Y-58720D01*
X65074Y-58675D01*
X65074Y-59040D01*
X65029Y-58996D01*
X64938Y-58958D01*
X64838Y-58958D01*
X64438Y-58958D01*
X64438Y-58695D01*
X64438Y-58258D01*
X64438Y-58158D01*
X64438Y-57720D01*
X64375Y-57658D01*
X64137Y-57658D01*
X64038Y-57658D01*
X63946Y-57696D01*
X63876Y-57766D01*
X63838Y-57858D01*
X63838Y-58095D01*
X63900Y-58158D01*
X64438Y-58158D01*
X64438Y-58258D01*
X63900Y-58258D01*
X63838Y-58320D01*
X63838Y-58557D01*
X63876Y-58649D01*
X63946Y-58720D01*
X64038Y-58758D01*
X64137Y-58758D01*
X64375Y-58758D01*
X64438Y-58695D01*
X64438Y-58958D01*
X64038Y-58958D01*
X63946Y-58996D01*
X63876Y-59066D01*
X63838Y-59158D01*
X63838Y-59257D01*
X63838Y-59857D01*
X63876Y-59949D01*
X63946Y-60020D01*
X64038Y-60058D01*
X64137Y-60058D01*
X64937Y-60058D01*
X65029Y-60020D01*
X65074Y-59976D01*
X65074Y-60516D01*
X65010Y-60452D01*
X64918Y-60414D01*
X64818Y-60414D01*
X64581Y-60414D01*
X64518Y-60476D01*
X64518Y-60914D01*
X64526Y-60914D01*
X64526Y-61014D01*
X64518Y-61014D01*
X64518Y-61451D01*
X64581Y-61514D01*
X64818Y-61514D01*
X64918Y-61514D01*
X65010Y-61475D01*
X65074Y-61412D01*
X65074Y-61816D01*
X65010Y-61752D01*
X64918Y-61714D01*
X64818Y-61714D01*
X64418Y-61714D01*
X64418Y-61451D01*
X64418Y-61014D01*
X64418Y-60914D01*
X64418Y-60476D01*
X64356Y-60414D01*
X64118Y-60414D01*
X64018Y-60414D01*
X63926Y-60452D01*
X63856Y-60522D01*
X63818Y-60614D01*
X63818Y-60851D01*
X63881Y-60914D01*
X64418Y-60914D01*
X64418Y-61014D01*
X63881Y-61014D01*
X63818Y-61076D01*
X63818Y-61313D01*
X63856Y-61405D01*
X63926Y-61475D01*
X64018Y-61514D01*
X64118Y-61514D01*
X64356Y-61514D01*
X64418Y-61451D01*
X64418Y-61714D01*
X64018Y-61714D01*
X63927Y-61752D01*
X63856Y-61822D01*
X63818Y-61914D01*
X63818Y-62013D01*
X63818Y-62613D01*
X63856Y-62705D01*
X63926Y-62775D01*
X64018Y-62814D01*
X64118Y-62814D01*
X64918Y-62814D01*
X65009Y-62776D01*
X65080Y-62705D01*
X65118Y-62614D01*
X65118Y-62603D01*
X65128Y-62603D01*
X65161Y-62653D01*
X65421Y-62912D01*
X65421Y-62997D01*
X65485Y-63153D01*
X65546Y-63214D01*
X65546Y-65131D01*
X65473Y-65204D01*
X65388Y-65204D01*
X65232Y-65269D01*
X65171Y-65329D01*
X65079Y-65329D01*
X65079Y-64887D01*
X65079Y-64286D01*
X65079Y-63587D01*
X65041Y-63495D01*
X64970Y-63424D01*
X64879Y-63386D01*
X64779Y-63386D01*
X64541Y-63386D01*
X64479Y-63449D01*
X64479Y-63886D01*
X65016Y-63886D01*
X65079Y-63824D01*
X65079Y-63587D01*
X65079Y-64286D01*
X65079Y-64049D01*
X65016Y-63986D01*
X64479Y-63986D01*
X64479Y-64424D01*
X64541Y-64486D01*
X64779Y-64486D01*
X64879Y-64486D01*
X64970Y-64448D01*
X65041Y-64378D01*
X65079Y-64286D01*
X65079Y-64887D01*
X65041Y-64795D01*
X64970Y-64724D01*
X64879Y-64686D01*
X64779Y-64686D01*
X64379Y-64686D01*
X64379Y-64424D01*
X64379Y-63986D01*
X64379Y-63886D01*
X64379Y-63449D01*
X64316Y-63386D01*
X64078Y-63386D01*
X63979Y-63386D01*
X63887Y-63424D01*
X63817Y-63495D01*
X63779Y-63587D01*
X63779Y-63824D01*
X63841Y-63886D01*
X64379Y-63886D01*
X64379Y-63986D01*
X63841Y-63986D01*
X63779Y-64049D01*
X63779Y-64286D01*
X63817Y-64378D01*
X63887Y-64448D01*
X63979Y-64486D01*
X64078Y-64486D01*
X64316Y-64486D01*
X64379Y-64424D01*
X64379Y-64686D01*
X63979Y-64686D01*
X63887Y-64724D01*
X63817Y-64794D01*
X63779Y-64886D01*
X63779Y-64986D01*
X63779Y-65586D01*
X63817Y-65678D01*
X63887Y-65748D01*
X63979Y-65786D01*
X64078Y-65786D01*
X64554Y-65786D01*
X64610Y-65842D01*
X64610Y-65842D01*
X64707Y-65907D01*
X64822Y-65929D01*
X65171Y-65929D01*
X65172Y-65930D01*
X65172Y-68163D01*
X65112Y-68223D01*
X65047Y-68379D01*
X65047Y-68548D01*
X65111Y-68704D01*
X65172Y-68765D01*
X65172Y-68996D01*
X65195Y-69111D01*
X65260Y-69208D01*
X65551Y-69500D01*
X65551Y-70075D01*
X65589Y-70167D01*
X65660Y-70237D01*
X65752Y-70275D01*
X65851Y-70276D01*
X66451Y-70276D01*
X66543Y-70238D01*
X66613Y-70167D01*
X66651Y-70075D01*
X66652Y-69976D01*
X66652Y-71147D01*
X65387Y-71147D01*
X65387Y-70658D01*
X65387Y-70207D01*
X65387Y-70108D01*
X65349Y-70016D01*
X65278Y-69946D01*
X65186Y-69908D01*
X64974Y-69908D01*
X64912Y-69970D01*
X64912Y-70383D01*
X65324Y-70383D01*
X65387Y-70320D01*
X65387Y-70207D01*
X65387Y-70658D01*
X65387Y-70545D01*
X65324Y-70483D01*
X64912Y-70483D01*
X64912Y-70895D01*
X64974Y-70958D01*
X65186Y-70958D01*
X65278Y-70920D01*
X65349Y-70849D01*
X65387Y-70758D01*
X65387Y-70658D01*
X65387Y-71147D01*
X64812Y-71147D01*
X64812Y-70895D01*
X64812Y-70483D01*
X64812Y-70383D01*
X64812Y-69970D01*
X64749Y-69908D01*
X64537Y-69908D01*
X64445Y-69946D01*
X64375Y-70016D01*
X64337Y-70108D01*
X64337Y-70207D01*
X64337Y-70320D01*
X64399Y-70383D01*
X64812Y-70383D01*
X64812Y-70483D01*
X64399Y-70483D01*
X64337Y-70545D01*
X64337Y-70658D01*
X64337Y-70758D01*
X64375Y-70849D01*
X64445Y-70920D01*
X64537Y-70958D01*
X64749Y-70958D01*
X64812Y-70895D01*
X64812Y-71147D01*
X63555Y-71147D01*
X63555Y-68220D01*
X63551Y-68172D01*
X63551Y-35780D01*
X63551Y-35728D01*
X63551Y-35676D01*
X63551Y-35675D01*
X63551Y-35675D01*
X63551Y-35675D01*
X63477Y-35300D01*
X63477Y-35298D01*
X63436Y-35201D01*
X63223Y-34882D01*
X63148Y-34808D01*
X63147Y-34807D01*
X62830Y-34595D01*
X62829Y-34594D01*
X62732Y-34554D01*
X62355Y-34479D01*
X62250Y-34479D01*
X62248Y-34480D01*
X61875Y-34554D01*
X61873Y-34554D01*
X61776Y-34594D01*
X61457Y-34808D01*
X61382Y-34882D01*
X61382Y-34884D01*
X61170Y-35200D01*
X61169Y-35201D01*
X61128Y-35299D01*
X61054Y-35675D01*
X61054Y-35728D01*
X61054Y-35780D01*
X61128Y-36157D01*
X61169Y-36254D01*
X61170Y-36255D01*
X61382Y-36572D01*
X61382Y-36573D01*
X61457Y-36648D01*
X61776Y-36862D01*
X61873Y-36902D01*
X61875Y-36902D01*
X62248Y-36976D01*
X62250Y-36977D01*
X62355Y-36977D01*
X62732Y-36902D01*
X62829Y-36862D01*
X62830Y-36861D01*
X63147Y-36649D01*
X63148Y-36648D01*
X63223Y-36574D01*
X63436Y-36255D01*
X63477Y-36158D01*
X63477Y-36156D01*
X63551Y-35781D01*
X63551Y-35781D01*
X63551Y-35781D01*
X63551Y-35780D01*
X63551Y-68172D01*
X63547Y-68115D01*
X63546Y-68114D01*
X63441Y-67744D01*
X63393Y-67651D01*
X63393Y-67650D01*
X63155Y-67348D01*
X63075Y-67280D01*
X63074Y-67280D01*
X62738Y-67092D01*
X62638Y-67060D01*
X62637Y-67060D01*
X62255Y-67015D01*
X62150Y-67023D01*
X62150Y-67024D01*
X61780Y-67129D01*
X61686Y-67176D01*
X61686Y-67177D01*
X61384Y-67415D01*
X61332Y-67476D01*
X61332Y-63234D01*
X61252Y-63041D01*
X61104Y-62893D01*
X60971Y-62838D01*
X61104Y-62783D01*
X61251Y-62636D01*
X61331Y-62443D01*
X61332Y-62234D01*
X61252Y-62041D01*
X61104Y-61893D01*
X60971Y-61838D01*
X61104Y-61783D01*
X61251Y-61636D01*
X61331Y-61443D01*
X61332Y-61234D01*
X61252Y-61041D01*
X61104Y-60893D01*
X60971Y-60838D01*
X61104Y-60783D01*
X61251Y-60636D01*
X61331Y-60443D01*
X61332Y-60234D01*
X61252Y-60041D01*
X61104Y-59893D01*
X60971Y-59838D01*
X61104Y-59783D01*
X61251Y-59636D01*
X61331Y-59443D01*
X61332Y-59234D01*
X61252Y-59041D01*
X61104Y-58893D01*
X60971Y-58838D01*
X61104Y-58783D01*
X61251Y-58636D01*
X61331Y-58443D01*
X61332Y-58234D01*
X61252Y-58041D01*
X61104Y-57893D01*
X60971Y-57838D01*
X61104Y-57783D01*
X61251Y-57636D01*
X61331Y-57443D01*
X61332Y-57234D01*
X61252Y-57041D01*
X61104Y-56893D01*
X60971Y-56838D01*
X61104Y-56783D01*
X61251Y-56636D01*
X61331Y-56443D01*
X61332Y-56234D01*
X61252Y-56041D01*
X61104Y-55893D01*
X60971Y-55838D01*
X61104Y-55783D01*
X61251Y-55636D01*
X61331Y-55443D01*
X61332Y-55234D01*
X61252Y-55041D01*
X61104Y-54893D01*
X60971Y-54838D01*
X61104Y-54783D01*
X61251Y-54636D01*
X61331Y-54443D01*
X61332Y-54234D01*
X61252Y-54041D01*
X61104Y-53893D01*
X60971Y-53838D01*
X61104Y-53783D01*
X61251Y-53636D01*
X61331Y-53443D01*
X61332Y-53234D01*
X61312Y-53186D01*
X61312Y-49691D01*
X61232Y-49498D01*
X61085Y-49350D01*
X60952Y-49295D01*
X61084Y-49240D01*
X61232Y-49093D01*
X61312Y-48900D01*
X61312Y-48691D01*
X61232Y-48498D01*
X61085Y-48350D01*
X60952Y-48295D01*
X61084Y-48240D01*
X61232Y-48093D01*
X61312Y-47900D01*
X61312Y-47691D01*
X61232Y-47498D01*
X61085Y-47350D01*
X60952Y-47295D01*
X61084Y-47240D01*
X61232Y-47093D01*
X61312Y-46900D01*
X61312Y-46691D01*
X61232Y-46498D01*
X61085Y-46350D01*
X60952Y-46295D01*
X61084Y-46240D01*
X61232Y-46093D01*
X61312Y-45900D01*
X61312Y-45691D01*
X61232Y-45498D01*
X61085Y-45350D01*
X60952Y-45295D01*
X61084Y-45240D01*
X61232Y-45093D01*
X61312Y-44900D01*
X61312Y-44691D01*
X61232Y-44498D01*
X61085Y-44350D01*
X60952Y-44295D01*
X61084Y-44240D01*
X61232Y-44093D01*
X61312Y-43900D01*
X61312Y-43691D01*
X61232Y-43498D01*
X61085Y-43350D01*
X60952Y-43295D01*
X61084Y-43240D01*
X61232Y-43093D01*
X61312Y-42900D01*
X61312Y-42691D01*
X61232Y-42498D01*
X61085Y-42350D01*
X60952Y-42295D01*
X61084Y-42240D01*
X61232Y-42093D01*
X61312Y-41900D01*
X61312Y-41691D01*
X61232Y-41498D01*
X61085Y-41350D01*
X60952Y-41295D01*
X61084Y-41240D01*
X61232Y-41093D01*
X61312Y-40900D01*
X61312Y-40691D01*
X61232Y-40498D01*
X61085Y-40350D01*
X60952Y-40295D01*
X61084Y-40240D01*
X61232Y-40093D01*
X61312Y-39900D01*
X61312Y-39691D01*
X61232Y-39498D01*
X61085Y-39350D01*
X60892Y-39270D01*
X60683Y-39270D01*
X60490Y-39349D01*
X60342Y-39497D01*
X60262Y-39690D01*
X60262Y-39899D01*
X60342Y-40092D01*
X60489Y-40240D01*
X60622Y-40295D01*
X60490Y-40349D01*
X60342Y-40497D01*
X60262Y-40690D01*
X60262Y-40899D01*
X60342Y-41092D01*
X60489Y-41240D01*
X60622Y-41295D01*
X60490Y-41349D01*
X60342Y-41497D01*
X60262Y-41690D01*
X60262Y-41899D01*
X60342Y-42092D01*
X60489Y-42240D01*
X60622Y-42295D01*
X60490Y-42349D01*
X60342Y-42497D01*
X60262Y-42690D01*
X60262Y-42899D01*
X60342Y-43092D01*
X60489Y-43240D01*
X60622Y-43295D01*
X60490Y-43349D01*
X60342Y-43497D01*
X60262Y-43690D01*
X60262Y-43899D01*
X60342Y-44092D01*
X60489Y-44240D01*
X60622Y-44295D01*
X60490Y-44349D01*
X60342Y-44497D01*
X60262Y-44690D01*
X60262Y-44899D01*
X60342Y-45092D01*
X60489Y-45240D01*
X60622Y-45295D01*
X60490Y-45349D01*
X60342Y-45497D01*
X60262Y-45690D01*
X60262Y-45899D01*
X60342Y-46092D01*
X60489Y-46240D01*
X60622Y-46295D01*
X60490Y-46349D01*
X60342Y-46497D01*
X60262Y-46690D01*
X60262Y-46899D01*
X60342Y-47092D01*
X60489Y-47240D01*
X60622Y-47295D01*
X60490Y-47349D01*
X60342Y-47497D01*
X60262Y-47690D01*
X60262Y-47899D01*
X60342Y-48092D01*
X60489Y-48240D01*
X60622Y-48295D01*
X60490Y-48349D01*
X60342Y-48497D01*
X60262Y-48690D01*
X60262Y-48899D01*
X60342Y-49092D01*
X60489Y-49240D01*
X60622Y-49295D01*
X60490Y-49349D01*
X60342Y-49497D01*
X60262Y-49690D01*
X60262Y-49899D01*
X60342Y-50092D01*
X60489Y-50240D01*
X60562Y-50270D01*
X60462Y-50270D01*
X60370Y-50308D01*
X60300Y-50378D01*
X60262Y-50470D01*
X60262Y-50569D01*
X60262Y-51119D01*
X60300Y-51211D01*
X60370Y-51282D01*
X60462Y-51320D01*
X60561Y-51320D01*
X61111Y-51320D01*
X61203Y-51282D01*
X61274Y-51212D01*
X61312Y-51120D01*
X61312Y-51020D01*
X61312Y-50470D01*
X61274Y-50378D01*
X61204Y-50308D01*
X61112Y-50270D01*
X61012Y-50270D01*
X61012Y-50270D01*
X61084Y-50240D01*
X61232Y-50093D01*
X61312Y-49900D01*
X61312Y-49691D01*
X61312Y-53186D01*
X61252Y-53041D01*
X61104Y-52893D01*
X60911Y-52813D01*
X60703Y-52813D01*
X60510Y-52893D01*
X60362Y-53040D01*
X60282Y-53233D01*
X60281Y-53442D01*
X60361Y-53635D01*
X60509Y-53783D01*
X60642Y-53838D01*
X60510Y-53893D01*
X60362Y-54040D01*
X60282Y-54233D01*
X60281Y-54442D01*
X60361Y-54635D01*
X60509Y-54783D01*
X60642Y-54838D01*
X60510Y-54893D01*
X60362Y-55040D01*
X60282Y-55233D01*
X60281Y-55442D01*
X60361Y-55635D01*
X60509Y-55783D01*
X60642Y-55838D01*
X60510Y-55893D01*
X60362Y-56040D01*
X60282Y-56233D01*
X60281Y-56442D01*
X60361Y-56635D01*
X60509Y-56783D01*
X60642Y-56838D01*
X60510Y-56893D01*
X60362Y-57040D01*
X60282Y-57233D01*
X60281Y-57442D01*
X60361Y-57635D01*
X60509Y-57783D01*
X60642Y-57838D01*
X60510Y-57893D01*
X60362Y-58040D01*
X60282Y-58233D01*
X60281Y-58442D01*
X60361Y-58635D01*
X60509Y-58783D01*
X60642Y-58838D01*
X60510Y-58893D01*
X60362Y-59040D01*
X60282Y-59233D01*
X60281Y-59442D01*
X60361Y-59635D01*
X60509Y-59783D01*
X60642Y-59838D01*
X60510Y-59893D01*
X60362Y-60040D01*
X60282Y-60233D01*
X60281Y-60442D01*
X60361Y-60635D01*
X60509Y-60783D01*
X60642Y-60838D01*
X60510Y-60893D01*
X60362Y-61040D01*
X60282Y-61233D01*
X60281Y-61442D01*
X60361Y-61635D01*
X60509Y-61783D01*
X60642Y-61838D01*
X60510Y-61893D01*
X60362Y-62040D01*
X60282Y-62233D01*
X60281Y-62442D01*
X60361Y-62635D01*
X60509Y-62783D01*
X60642Y-62838D01*
X60510Y-62893D01*
X60362Y-63040D01*
X60282Y-63233D01*
X60281Y-63442D01*
X60361Y-63635D01*
X60509Y-63783D01*
X60581Y-63813D01*
X60482Y-63813D01*
X60390Y-63851D01*
X60320Y-63921D01*
X60282Y-64013D01*
X60282Y-64113D01*
X60282Y-64663D01*
X60320Y-64755D01*
X60390Y-64825D01*
X60482Y-64863D01*
X60581Y-64863D01*
X61131Y-64863D01*
X61223Y-64825D01*
X61293Y-64755D01*
X61332Y-64663D01*
X61332Y-64564D01*
X61332Y-64014D01*
X61294Y-63922D01*
X61223Y-63851D01*
X61132Y-63813D01*
X61032Y-63813D01*
X61032Y-63813D01*
X61104Y-63783D01*
X61251Y-63636D01*
X61331Y-63443D01*
X61332Y-63234D01*
X61332Y-67476D01*
X61316Y-67495D01*
X61315Y-67496D01*
X61128Y-67832D01*
X61095Y-67932D01*
X61095Y-67933D01*
X61051Y-68314D01*
X61059Y-68419D01*
X61164Y-68790D01*
X61212Y-68884D01*
X61212Y-68884D01*
X61451Y-69186D01*
X61531Y-69254D01*
X61531Y-69255D01*
X61867Y-69442D01*
X61967Y-69475D01*
X61968Y-69475D01*
X62350Y-69519D01*
X62455Y-69511D01*
X62455Y-69511D01*
X62826Y-69406D01*
X62919Y-69358D01*
X62920Y-69358D01*
X63222Y-69119D01*
X63290Y-69039D01*
X63290Y-69038D01*
X63478Y-68703D01*
X63510Y-68603D01*
X63510Y-68602D01*
X63555Y-68220D01*
X63555Y-71147D01*
X59423Y-71147D01*
X59423Y-51309D01*
X59498Y-32893D01*
X59498Y-32848D01*
X97584Y-32848D01*
X97584Y-71147D01*
M02*
