%
M48
M72
T01C0.01200
T02C0.02400
T03C0.03200
T04C0.03937
T05C0.04000
T06C0.11024
%
T01
X117375Y258875
X148000Y253875
X166125Y262000
X237375Y282000
X278625Y204500
X278625Y174500
X288625Y144500
X288625Y114500
X288625Y84500
X288625Y54500
X206125Y143875
X190500Y142000
X187375Y142000
X184250Y142000
X175500Y143875
X173625Y146375
X174250Y162625
X180500Y172000
X180500Y175125
X187375Y187625
X181750Y192000
X184250Y193875
X178000Y192000
X174250Y192000
X171125Y192000
X166125Y188875
X165500Y177000
X149875Y162625
X143000Y174500
X143625Y192625
X143625Y198875
X174250Y198875
X178000Y197000
X181750Y198875
X227375Y164500
X174875Y125125
X171125Y122625
X169875Y117625
X167375Y115750
X193625Y112625
X148625Y75750
X143625Y80750
X169875Y58875
X167375Y52625
X164875Y50750
X162375Y8250
X124250Y134500
X57375Y160125
X44875Y213875
T02
X78000Y39500
X88000Y39500
X98000Y39500
X193000Y39500
X203000Y39500
X213000Y39500
T03
X73000Y304500
X73000Y294500
X73000Y274500
X73000Y264500
X73000Y244500
X73000Y234500
X103000Y234500
X103000Y244500
X103000Y264500
X103000Y274500
X103000Y294500
X103000Y304500
X298000Y294500
X298000Y284500
X298000Y264500
X298000Y254500
X298000Y234500
X298000Y224500
X298000Y204500
X298000Y194500
X298000Y174500
X298000Y164500
X298000Y144500
X298000Y134500
X298000Y114500
X298000Y104500
X298000Y84500
X298000Y74500
X298000Y54500
X298000Y44500
X328000Y44500
X328000Y54500
X328000Y74500
X328000Y84500
X328000Y104500
X328000Y114500
X328000Y134500
X328000Y144500
X328000Y164500
X328000Y174500
X328000Y194500
X328000Y204500
X328000Y224500
X328000Y234500
X328000Y254500
X328000Y264500
X328000Y284500
X328000Y294500
X151536Y125964
X144464Y133036
X143000Y44500
X143000Y34500
X173000Y34500
X173000Y44500
T04
X23000Y39500
X23000Y49500
X23000Y59500
X23000Y69500
X23000Y84500
X23000Y94500
X23000Y104500
X23000Y114500
X23000Y124500
X23000Y134500
X23000Y144500
X23000Y154500
X23000Y164500
X23000Y174500
X23000Y194500
X23000Y204500
X23000Y214500
X23000Y224500
X23000Y234500
X23000Y244500
X23000Y254500
X23000Y264500
X23000Y274500
X23000Y284500
X373000Y279500
X373000Y269500
X373000Y259500
X373000Y249500
X373000Y239500
X373000Y229500
X373000Y219500
X373000Y209500
X373000Y199500
X373000Y189500
X373000Y134500
X373000Y124500
X373000Y114500
X373000Y104500
X373000Y94500
X373000Y84500
X373000Y74500
X373000Y64500
X373000Y54500
X373000Y44500
T05
X68000Y14500
X78000Y14500
X88000Y14500
X98000Y14500
X108000Y14500
X118000Y14500
X128000Y14500
X138000Y14500
X148000Y14500
X158000Y14500
X168000Y14500
X178000Y14500
X188000Y14500
X198000Y14500
X208000Y14500
X218000Y14500
X228000Y14500
X238000Y14500
X248000Y14500
X258000Y14500
X208000Y254500
X208000Y264500
X208000Y274500
X208000Y284500
X208000Y294500
X208000Y304500
T06
X23000Y304500
X23000Y19500
X373000Y19500
X373000Y304500
M30
