G75*
%MOIN*%
%OFA0B0*%
%FSLAX25Y25*%
%IPPOS*%
%LPD*%
%AMOC8*
5,1,8,0,0,1.08239X$1,22.5*
%
%ADD10C,0.00000*%
%ADD11R,0.05906X0.01969*%
%ADD12R,0.01969X0.05906*%
%ADD13R,0.07087X0.06299*%
%ADD14R,0.06299X0.07087*%
%ADD15R,0.07098X0.06299*%
%ADD16C,0.05200*%
%ADD17R,0.06299X0.07098*%
%ADD18C,0.06000*%
%ADD19C,0.04400*%
%ADD20R,0.02362X0.03937*%
%ADD21C,0.05200*%
%ADD22R,0.04331X0.03937*%
%ADD23C,0.05937*%
%ADD24C,0.00600*%
%ADD25C,0.02400*%
%ADD26C,0.01600*%
D10*
X0008000Y0004500D02*
X0008000Y0319461D01*
X0391701Y0319461D01*
X0391701Y0004500D01*
X0008000Y0004500D01*
X0017488Y0019500D02*
X0017490Y0019648D01*
X0017496Y0019796D01*
X0017506Y0019944D01*
X0017520Y0020091D01*
X0017538Y0020238D01*
X0017559Y0020384D01*
X0017585Y0020530D01*
X0017615Y0020675D01*
X0017648Y0020819D01*
X0017686Y0020962D01*
X0017727Y0021104D01*
X0017772Y0021245D01*
X0017820Y0021385D01*
X0017873Y0021524D01*
X0017929Y0021661D01*
X0017989Y0021796D01*
X0018052Y0021930D01*
X0018119Y0022062D01*
X0018190Y0022192D01*
X0018264Y0022320D01*
X0018341Y0022446D01*
X0018422Y0022570D01*
X0018506Y0022692D01*
X0018593Y0022811D01*
X0018684Y0022928D01*
X0018778Y0023043D01*
X0018874Y0023155D01*
X0018974Y0023265D01*
X0019076Y0023371D01*
X0019182Y0023475D01*
X0019290Y0023576D01*
X0019401Y0023674D01*
X0019514Y0023770D01*
X0019630Y0023862D01*
X0019748Y0023951D01*
X0019869Y0024036D01*
X0019992Y0024119D01*
X0020117Y0024198D01*
X0020244Y0024274D01*
X0020373Y0024346D01*
X0020504Y0024415D01*
X0020637Y0024480D01*
X0020772Y0024541D01*
X0020908Y0024599D01*
X0021045Y0024654D01*
X0021184Y0024704D01*
X0021325Y0024751D01*
X0021466Y0024794D01*
X0021609Y0024834D01*
X0021753Y0024869D01*
X0021897Y0024901D01*
X0022043Y0024928D01*
X0022189Y0024952D01*
X0022336Y0024972D01*
X0022483Y0024988D01*
X0022630Y0025000D01*
X0022778Y0025008D01*
X0022926Y0025012D01*
X0023074Y0025012D01*
X0023222Y0025008D01*
X0023370Y0025000D01*
X0023517Y0024988D01*
X0023664Y0024972D01*
X0023811Y0024952D01*
X0023957Y0024928D01*
X0024103Y0024901D01*
X0024247Y0024869D01*
X0024391Y0024834D01*
X0024534Y0024794D01*
X0024675Y0024751D01*
X0024816Y0024704D01*
X0024955Y0024654D01*
X0025092Y0024599D01*
X0025228Y0024541D01*
X0025363Y0024480D01*
X0025496Y0024415D01*
X0025627Y0024346D01*
X0025756Y0024274D01*
X0025883Y0024198D01*
X0026008Y0024119D01*
X0026131Y0024036D01*
X0026252Y0023951D01*
X0026370Y0023862D01*
X0026486Y0023770D01*
X0026599Y0023674D01*
X0026710Y0023576D01*
X0026818Y0023475D01*
X0026924Y0023371D01*
X0027026Y0023265D01*
X0027126Y0023155D01*
X0027222Y0023043D01*
X0027316Y0022928D01*
X0027407Y0022811D01*
X0027494Y0022692D01*
X0027578Y0022570D01*
X0027659Y0022446D01*
X0027736Y0022320D01*
X0027810Y0022192D01*
X0027881Y0022062D01*
X0027948Y0021930D01*
X0028011Y0021796D01*
X0028071Y0021661D01*
X0028127Y0021524D01*
X0028180Y0021385D01*
X0028228Y0021245D01*
X0028273Y0021104D01*
X0028314Y0020962D01*
X0028352Y0020819D01*
X0028385Y0020675D01*
X0028415Y0020530D01*
X0028441Y0020384D01*
X0028462Y0020238D01*
X0028480Y0020091D01*
X0028494Y0019944D01*
X0028504Y0019796D01*
X0028510Y0019648D01*
X0028512Y0019500D01*
X0028510Y0019352D01*
X0028504Y0019204D01*
X0028494Y0019056D01*
X0028480Y0018909D01*
X0028462Y0018762D01*
X0028441Y0018616D01*
X0028415Y0018470D01*
X0028385Y0018325D01*
X0028352Y0018181D01*
X0028314Y0018038D01*
X0028273Y0017896D01*
X0028228Y0017755D01*
X0028180Y0017615D01*
X0028127Y0017476D01*
X0028071Y0017339D01*
X0028011Y0017204D01*
X0027948Y0017070D01*
X0027881Y0016938D01*
X0027810Y0016808D01*
X0027736Y0016680D01*
X0027659Y0016554D01*
X0027578Y0016430D01*
X0027494Y0016308D01*
X0027407Y0016189D01*
X0027316Y0016072D01*
X0027222Y0015957D01*
X0027126Y0015845D01*
X0027026Y0015735D01*
X0026924Y0015629D01*
X0026818Y0015525D01*
X0026710Y0015424D01*
X0026599Y0015326D01*
X0026486Y0015230D01*
X0026370Y0015138D01*
X0026252Y0015049D01*
X0026131Y0014964D01*
X0026008Y0014881D01*
X0025883Y0014802D01*
X0025756Y0014726D01*
X0025627Y0014654D01*
X0025496Y0014585D01*
X0025363Y0014520D01*
X0025228Y0014459D01*
X0025092Y0014401D01*
X0024955Y0014346D01*
X0024816Y0014296D01*
X0024675Y0014249D01*
X0024534Y0014206D01*
X0024391Y0014166D01*
X0024247Y0014131D01*
X0024103Y0014099D01*
X0023957Y0014072D01*
X0023811Y0014048D01*
X0023664Y0014028D01*
X0023517Y0014012D01*
X0023370Y0014000D01*
X0023222Y0013992D01*
X0023074Y0013988D01*
X0022926Y0013988D01*
X0022778Y0013992D01*
X0022630Y0014000D01*
X0022483Y0014012D01*
X0022336Y0014028D01*
X0022189Y0014048D01*
X0022043Y0014072D01*
X0021897Y0014099D01*
X0021753Y0014131D01*
X0021609Y0014166D01*
X0021466Y0014206D01*
X0021325Y0014249D01*
X0021184Y0014296D01*
X0021045Y0014346D01*
X0020908Y0014401D01*
X0020772Y0014459D01*
X0020637Y0014520D01*
X0020504Y0014585D01*
X0020373Y0014654D01*
X0020244Y0014726D01*
X0020117Y0014802D01*
X0019992Y0014881D01*
X0019869Y0014964D01*
X0019748Y0015049D01*
X0019630Y0015138D01*
X0019514Y0015230D01*
X0019401Y0015326D01*
X0019290Y0015424D01*
X0019182Y0015525D01*
X0019076Y0015629D01*
X0018974Y0015735D01*
X0018874Y0015845D01*
X0018778Y0015957D01*
X0018684Y0016072D01*
X0018593Y0016189D01*
X0018506Y0016308D01*
X0018422Y0016430D01*
X0018341Y0016554D01*
X0018264Y0016680D01*
X0018190Y0016808D01*
X0018119Y0016938D01*
X0018052Y0017070D01*
X0017989Y0017204D01*
X0017929Y0017339D01*
X0017873Y0017476D01*
X0017820Y0017615D01*
X0017772Y0017755D01*
X0017727Y0017896D01*
X0017686Y0018038D01*
X0017648Y0018181D01*
X0017615Y0018325D01*
X0017585Y0018470D01*
X0017559Y0018616D01*
X0017538Y0018762D01*
X0017520Y0018909D01*
X0017506Y0019056D01*
X0017496Y0019204D01*
X0017490Y0019352D01*
X0017488Y0019500D01*
X0017488Y0304500D02*
X0017490Y0304648D01*
X0017496Y0304796D01*
X0017506Y0304944D01*
X0017520Y0305091D01*
X0017538Y0305238D01*
X0017559Y0305384D01*
X0017585Y0305530D01*
X0017615Y0305675D01*
X0017648Y0305819D01*
X0017686Y0305962D01*
X0017727Y0306104D01*
X0017772Y0306245D01*
X0017820Y0306385D01*
X0017873Y0306524D01*
X0017929Y0306661D01*
X0017989Y0306796D01*
X0018052Y0306930D01*
X0018119Y0307062D01*
X0018190Y0307192D01*
X0018264Y0307320D01*
X0018341Y0307446D01*
X0018422Y0307570D01*
X0018506Y0307692D01*
X0018593Y0307811D01*
X0018684Y0307928D01*
X0018778Y0308043D01*
X0018874Y0308155D01*
X0018974Y0308265D01*
X0019076Y0308371D01*
X0019182Y0308475D01*
X0019290Y0308576D01*
X0019401Y0308674D01*
X0019514Y0308770D01*
X0019630Y0308862D01*
X0019748Y0308951D01*
X0019869Y0309036D01*
X0019992Y0309119D01*
X0020117Y0309198D01*
X0020244Y0309274D01*
X0020373Y0309346D01*
X0020504Y0309415D01*
X0020637Y0309480D01*
X0020772Y0309541D01*
X0020908Y0309599D01*
X0021045Y0309654D01*
X0021184Y0309704D01*
X0021325Y0309751D01*
X0021466Y0309794D01*
X0021609Y0309834D01*
X0021753Y0309869D01*
X0021897Y0309901D01*
X0022043Y0309928D01*
X0022189Y0309952D01*
X0022336Y0309972D01*
X0022483Y0309988D01*
X0022630Y0310000D01*
X0022778Y0310008D01*
X0022926Y0310012D01*
X0023074Y0310012D01*
X0023222Y0310008D01*
X0023370Y0310000D01*
X0023517Y0309988D01*
X0023664Y0309972D01*
X0023811Y0309952D01*
X0023957Y0309928D01*
X0024103Y0309901D01*
X0024247Y0309869D01*
X0024391Y0309834D01*
X0024534Y0309794D01*
X0024675Y0309751D01*
X0024816Y0309704D01*
X0024955Y0309654D01*
X0025092Y0309599D01*
X0025228Y0309541D01*
X0025363Y0309480D01*
X0025496Y0309415D01*
X0025627Y0309346D01*
X0025756Y0309274D01*
X0025883Y0309198D01*
X0026008Y0309119D01*
X0026131Y0309036D01*
X0026252Y0308951D01*
X0026370Y0308862D01*
X0026486Y0308770D01*
X0026599Y0308674D01*
X0026710Y0308576D01*
X0026818Y0308475D01*
X0026924Y0308371D01*
X0027026Y0308265D01*
X0027126Y0308155D01*
X0027222Y0308043D01*
X0027316Y0307928D01*
X0027407Y0307811D01*
X0027494Y0307692D01*
X0027578Y0307570D01*
X0027659Y0307446D01*
X0027736Y0307320D01*
X0027810Y0307192D01*
X0027881Y0307062D01*
X0027948Y0306930D01*
X0028011Y0306796D01*
X0028071Y0306661D01*
X0028127Y0306524D01*
X0028180Y0306385D01*
X0028228Y0306245D01*
X0028273Y0306104D01*
X0028314Y0305962D01*
X0028352Y0305819D01*
X0028385Y0305675D01*
X0028415Y0305530D01*
X0028441Y0305384D01*
X0028462Y0305238D01*
X0028480Y0305091D01*
X0028494Y0304944D01*
X0028504Y0304796D01*
X0028510Y0304648D01*
X0028512Y0304500D01*
X0028510Y0304352D01*
X0028504Y0304204D01*
X0028494Y0304056D01*
X0028480Y0303909D01*
X0028462Y0303762D01*
X0028441Y0303616D01*
X0028415Y0303470D01*
X0028385Y0303325D01*
X0028352Y0303181D01*
X0028314Y0303038D01*
X0028273Y0302896D01*
X0028228Y0302755D01*
X0028180Y0302615D01*
X0028127Y0302476D01*
X0028071Y0302339D01*
X0028011Y0302204D01*
X0027948Y0302070D01*
X0027881Y0301938D01*
X0027810Y0301808D01*
X0027736Y0301680D01*
X0027659Y0301554D01*
X0027578Y0301430D01*
X0027494Y0301308D01*
X0027407Y0301189D01*
X0027316Y0301072D01*
X0027222Y0300957D01*
X0027126Y0300845D01*
X0027026Y0300735D01*
X0026924Y0300629D01*
X0026818Y0300525D01*
X0026710Y0300424D01*
X0026599Y0300326D01*
X0026486Y0300230D01*
X0026370Y0300138D01*
X0026252Y0300049D01*
X0026131Y0299964D01*
X0026008Y0299881D01*
X0025883Y0299802D01*
X0025756Y0299726D01*
X0025627Y0299654D01*
X0025496Y0299585D01*
X0025363Y0299520D01*
X0025228Y0299459D01*
X0025092Y0299401D01*
X0024955Y0299346D01*
X0024816Y0299296D01*
X0024675Y0299249D01*
X0024534Y0299206D01*
X0024391Y0299166D01*
X0024247Y0299131D01*
X0024103Y0299099D01*
X0023957Y0299072D01*
X0023811Y0299048D01*
X0023664Y0299028D01*
X0023517Y0299012D01*
X0023370Y0299000D01*
X0023222Y0298992D01*
X0023074Y0298988D01*
X0022926Y0298988D01*
X0022778Y0298992D01*
X0022630Y0299000D01*
X0022483Y0299012D01*
X0022336Y0299028D01*
X0022189Y0299048D01*
X0022043Y0299072D01*
X0021897Y0299099D01*
X0021753Y0299131D01*
X0021609Y0299166D01*
X0021466Y0299206D01*
X0021325Y0299249D01*
X0021184Y0299296D01*
X0021045Y0299346D01*
X0020908Y0299401D01*
X0020772Y0299459D01*
X0020637Y0299520D01*
X0020504Y0299585D01*
X0020373Y0299654D01*
X0020244Y0299726D01*
X0020117Y0299802D01*
X0019992Y0299881D01*
X0019869Y0299964D01*
X0019748Y0300049D01*
X0019630Y0300138D01*
X0019514Y0300230D01*
X0019401Y0300326D01*
X0019290Y0300424D01*
X0019182Y0300525D01*
X0019076Y0300629D01*
X0018974Y0300735D01*
X0018874Y0300845D01*
X0018778Y0300957D01*
X0018684Y0301072D01*
X0018593Y0301189D01*
X0018506Y0301308D01*
X0018422Y0301430D01*
X0018341Y0301554D01*
X0018264Y0301680D01*
X0018190Y0301808D01*
X0018119Y0301938D01*
X0018052Y0302070D01*
X0017989Y0302204D01*
X0017929Y0302339D01*
X0017873Y0302476D01*
X0017820Y0302615D01*
X0017772Y0302755D01*
X0017727Y0302896D01*
X0017686Y0303038D01*
X0017648Y0303181D01*
X0017615Y0303325D01*
X0017585Y0303470D01*
X0017559Y0303616D01*
X0017538Y0303762D01*
X0017520Y0303909D01*
X0017506Y0304056D01*
X0017496Y0304204D01*
X0017490Y0304352D01*
X0017488Y0304500D01*
X0367488Y0304500D02*
X0367490Y0304648D01*
X0367496Y0304796D01*
X0367506Y0304944D01*
X0367520Y0305091D01*
X0367538Y0305238D01*
X0367559Y0305384D01*
X0367585Y0305530D01*
X0367615Y0305675D01*
X0367648Y0305819D01*
X0367686Y0305962D01*
X0367727Y0306104D01*
X0367772Y0306245D01*
X0367820Y0306385D01*
X0367873Y0306524D01*
X0367929Y0306661D01*
X0367989Y0306796D01*
X0368052Y0306930D01*
X0368119Y0307062D01*
X0368190Y0307192D01*
X0368264Y0307320D01*
X0368341Y0307446D01*
X0368422Y0307570D01*
X0368506Y0307692D01*
X0368593Y0307811D01*
X0368684Y0307928D01*
X0368778Y0308043D01*
X0368874Y0308155D01*
X0368974Y0308265D01*
X0369076Y0308371D01*
X0369182Y0308475D01*
X0369290Y0308576D01*
X0369401Y0308674D01*
X0369514Y0308770D01*
X0369630Y0308862D01*
X0369748Y0308951D01*
X0369869Y0309036D01*
X0369992Y0309119D01*
X0370117Y0309198D01*
X0370244Y0309274D01*
X0370373Y0309346D01*
X0370504Y0309415D01*
X0370637Y0309480D01*
X0370772Y0309541D01*
X0370908Y0309599D01*
X0371045Y0309654D01*
X0371184Y0309704D01*
X0371325Y0309751D01*
X0371466Y0309794D01*
X0371609Y0309834D01*
X0371753Y0309869D01*
X0371897Y0309901D01*
X0372043Y0309928D01*
X0372189Y0309952D01*
X0372336Y0309972D01*
X0372483Y0309988D01*
X0372630Y0310000D01*
X0372778Y0310008D01*
X0372926Y0310012D01*
X0373074Y0310012D01*
X0373222Y0310008D01*
X0373370Y0310000D01*
X0373517Y0309988D01*
X0373664Y0309972D01*
X0373811Y0309952D01*
X0373957Y0309928D01*
X0374103Y0309901D01*
X0374247Y0309869D01*
X0374391Y0309834D01*
X0374534Y0309794D01*
X0374675Y0309751D01*
X0374816Y0309704D01*
X0374955Y0309654D01*
X0375092Y0309599D01*
X0375228Y0309541D01*
X0375363Y0309480D01*
X0375496Y0309415D01*
X0375627Y0309346D01*
X0375756Y0309274D01*
X0375883Y0309198D01*
X0376008Y0309119D01*
X0376131Y0309036D01*
X0376252Y0308951D01*
X0376370Y0308862D01*
X0376486Y0308770D01*
X0376599Y0308674D01*
X0376710Y0308576D01*
X0376818Y0308475D01*
X0376924Y0308371D01*
X0377026Y0308265D01*
X0377126Y0308155D01*
X0377222Y0308043D01*
X0377316Y0307928D01*
X0377407Y0307811D01*
X0377494Y0307692D01*
X0377578Y0307570D01*
X0377659Y0307446D01*
X0377736Y0307320D01*
X0377810Y0307192D01*
X0377881Y0307062D01*
X0377948Y0306930D01*
X0378011Y0306796D01*
X0378071Y0306661D01*
X0378127Y0306524D01*
X0378180Y0306385D01*
X0378228Y0306245D01*
X0378273Y0306104D01*
X0378314Y0305962D01*
X0378352Y0305819D01*
X0378385Y0305675D01*
X0378415Y0305530D01*
X0378441Y0305384D01*
X0378462Y0305238D01*
X0378480Y0305091D01*
X0378494Y0304944D01*
X0378504Y0304796D01*
X0378510Y0304648D01*
X0378512Y0304500D01*
X0378510Y0304352D01*
X0378504Y0304204D01*
X0378494Y0304056D01*
X0378480Y0303909D01*
X0378462Y0303762D01*
X0378441Y0303616D01*
X0378415Y0303470D01*
X0378385Y0303325D01*
X0378352Y0303181D01*
X0378314Y0303038D01*
X0378273Y0302896D01*
X0378228Y0302755D01*
X0378180Y0302615D01*
X0378127Y0302476D01*
X0378071Y0302339D01*
X0378011Y0302204D01*
X0377948Y0302070D01*
X0377881Y0301938D01*
X0377810Y0301808D01*
X0377736Y0301680D01*
X0377659Y0301554D01*
X0377578Y0301430D01*
X0377494Y0301308D01*
X0377407Y0301189D01*
X0377316Y0301072D01*
X0377222Y0300957D01*
X0377126Y0300845D01*
X0377026Y0300735D01*
X0376924Y0300629D01*
X0376818Y0300525D01*
X0376710Y0300424D01*
X0376599Y0300326D01*
X0376486Y0300230D01*
X0376370Y0300138D01*
X0376252Y0300049D01*
X0376131Y0299964D01*
X0376008Y0299881D01*
X0375883Y0299802D01*
X0375756Y0299726D01*
X0375627Y0299654D01*
X0375496Y0299585D01*
X0375363Y0299520D01*
X0375228Y0299459D01*
X0375092Y0299401D01*
X0374955Y0299346D01*
X0374816Y0299296D01*
X0374675Y0299249D01*
X0374534Y0299206D01*
X0374391Y0299166D01*
X0374247Y0299131D01*
X0374103Y0299099D01*
X0373957Y0299072D01*
X0373811Y0299048D01*
X0373664Y0299028D01*
X0373517Y0299012D01*
X0373370Y0299000D01*
X0373222Y0298992D01*
X0373074Y0298988D01*
X0372926Y0298988D01*
X0372778Y0298992D01*
X0372630Y0299000D01*
X0372483Y0299012D01*
X0372336Y0299028D01*
X0372189Y0299048D01*
X0372043Y0299072D01*
X0371897Y0299099D01*
X0371753Y0299131D01*
X0371609Y0299166D01*
X0371466Y0299206D01*
X0371325Y0299249D01*
X0371184Y0299296D01*
X0371045Y0299346D01*
X0370908Y0299401D01*
X0370772Y0299459D01*
X0370637Y0299520D01*
X0370504Y0299585D01*
X0370373Y0299654D01*
X0370244Y0299726D01*
X0370117Y0299802D01*
X0369992Y0299881D01*
X0369869Y0299964D01*
X0369748Y0300049D01*
X0369630Y0300138D01*
X0369514Y0300230D01*
X0369401Y0300326D01*
X0369290Y0300424D01*
X0369182Y0300525D01*
X0369076Y0300629D01*
X0368974Y0300735D01*
X0368874Y0300845D01*
X0368778Y0300957D01*
X0368684Y0301072D01*
X0368593Y0301189D01*
X0368506Y0301308D01*
X0368422Y0301430D01*
X0368341Y0301554D01*
X0368264Y0301680D01*
X0368190Y0301808D01*
X0368119Y0301938D01*
X0368052Y0302070D01*
X0367989Y0302204D01*
X0367929Y0302339D01*
X0367873Y0302476D01*
X0367820Y0302615D01*
X0367772Y0302755D01*
X0367727Y0302896D01*
X0367686Y0303038D01*
X0367648Y0303181D01*
X0367615Y0303325D01*
X0367585Y0303470D01*
X0367559Y0303616D01*
X0367538Y0303762D01*
X0367520Y0303909D01*
X0367506Y0304056D01*
X0367496Y0304204D01*
X0367490Y0304352D01*
X0367488Y0304500D01*
X0367488Y0019500D02*
X0367490Y0019648D01*
X0367496Y0019796D01*
X0367506Y0019944D01*
X0367520Y0020091D01*
X0367538Y0020238D01*
X0367559Y0020384D01*
X0367585Y0020530D01*
X0367615Y0020675D01*
X0367648Y0020819D01*
X0367686Y0020962D01*
X0367727Y0021104D01*
X0367772Y0021245D01*
X0367820Y0021385D01*
X0367873Y0021524D01*
X0367929Y0021661D01*
X0367989Y0021796D01*
X0368052Y0021930D01*
X0368119Y0022062D01*
X0368190Y0022192D01*
X0368264Y0022320D01*
X0368341Y0022446D01*
X0368422Y0022570D01*
X0368506Y0022692D01*
X0368593Y0022811D01*
X0368684Y0022928D01*
X0368778Y0023043D01*
X0368874Y0023155D01*
X0368974Y0023265D01*
X0369076Y0023371D01*
X0369182Y0023475D01*
X0369290Y0023576D01*
X0369401Y0023674D01*
X0369514Y0023770D01*
X0369630Y0023862D01*
X0369748Y0023951D01*
X0369869Y0024036D01*
X0369992Y0024119D01*
X0370117Y0024198D01*
X0370244Y0024274D01*
X0370373Y0024346D01*
X0370504Y0024415D01*
X0370637Y0024480D01*
X0370772Y0024541D01*
X0370908Y0024599D01*
X0371045Y0024654D01*
X0371184Y0024704D01*
X0371325Y0024751D01*
X0371466Y0024794D01*
X0371609Y0024834D01*
X0371753Y0024869D01*
X0371897Y0024901D01*
X0372043Y0024928D01*
X0372189Y0024952D01*
X0372336Y0024972D01*
X0372483Y0024988D01*
X0372630Y0025000D01*
X0372778Y0025008D01*
X0372926Y0025012D01*
X0373074Y0025012D01*
X0373222Y0025008D01*
X0373370Y0025000D01*
X0373517Y0024988D01*
X0373664Y0024972D01*
X0373811Y0024952D01*
X0373957Y0024928D01*
X0374103Y0024901D01*
X0374247Y0024869D01*
X0374391Y0024834D01*
X0374534Y0024794D01*
X0374675Y0024751D01*
X0374816Y0024704D01*
X0374955Y0024654D01*
X0375092Y0024599D01*
X0375228Y0024541D01*
X0375363Y0024480D01*
X0375496Y0024415D01*
X0375627Y0024346D01*
X0375756Y0024274D01*
X0375883Y0024198D01*
X0376008Y0024119D01*
X0376131Y0024036D01*
X0376252Y0023951D01*
X0376370Y0023862D01*
X0376486Y0023770D01*
X0376599Y0023674D01*
X0376710Y0023576D01*
X0376818Y0023475D01*
X0376924Y0023371D01*
X0377026Y0023265D01*
X0377126Y0023155D01*
X0377222Y0023043D01*
X0377316Y0022928D01*
X0377407Y0022811D01*
X0377494Y0022692D01*
X0377578Y0022570D01*
X0377659Y0022446D01*
X0377736Y0022320D01*
X0377810Y0022192D01*
X0377881Y0022062D01*
X0377948Y0021930D01*
X0378011Y0021796D01*
X0378071Y0021661D01*
X0378127Y0021524D01*
X0378180Y0021385D01*
X0378228Y0021245D01*
X0378273Y0021104D01*
X0378314Y0020962D01*
X0378352Y0020819D01*
X0378385Y0020675D01*
X0378415Y0020530D01*
X0378441Y0020384D01*
X0378462Y0020238D01*
X0378480Y0020091D01*
X0378494Y0019944D01*
X0378504Y0019796D01*
X0378510Y0019648D01*
X0378512Y0019500D01*
X0378510Y0019352D01*
X0378504Y0019204D01*
X0378494Y0019056D01*
X0378480Y0018909D01*
X0378462Y0018762D01*
X0378441Y0018616D01*
X0378415Y0018470D01*
X0378385Y0018325D01*
X0378352Y0018181D01*
X0378314Y0018038D01*
X0378273Y0017896D01*
X0378228Y0017755D01*
X0378180Y0017615D01*
X0378127Y0017476D01*
X0378071Y0017339D01*
X0378011Y0017204D01*
X0377948Y0017070D01*
X0377881Y0016938D01*
X0377810Y0016808D01*
X0377736Y0016680D01*
X0377659Y0016554D01*
X0377578Y0016430D01*
X0377494Y0016308D01*
X0377407Y0016189D01*
X0377316Y0016072D01*
X0377222Y0015957D01*
X0377126Y0015845D01*
X0377026Y0015735D01*
X0376924Y0015629D01*
X0376818Y0015525D01*
X0376710Y0015424D01*
X0376599Y0015326D01*
X0376486Y0015230D01*
X0376370Y0015138D01*
X0376252Y0015049D01*
X0376131Y0014964D01*
X0376008Y0014881D01*
X0375883Y0014802D01*
X0375756Y0014726D01*
X0375627Y0014654D01*
X0375496Y0014585D01*
X0375363Y0014520D01*
X0375228Y0014459D01*
X0375092Y0014401D01*
X0374955Y0014346D01*
X0374816Y0014296D01*
X0374675Y0014249D01*
X0374534Y0014206D01*
X0374391Y0014166D01*
X0374247Y0014131D01*
X0374103Y0014099D01*
X0373957Y0014072D01*
X0373811Y0014048D01*
X0373664Y0014028D01*
X0373517Y0014012D01*
X0373370Y0014000D01*
X0373222Y0013992D01*
X0373074Y0013988D01*
X0372926Y0013988D01*
X0372778Y0013992D01*
X0372630Y0014000D01*
X0372483Y0014012D01*
X0372336Y0014028D01*
X0372189Y0014048D01*
X0372043Y0014072D01*
X0371897Y0014099D01*
X0371753Y0014131D01*
X0371609Y0014166D01*
X0371466Y0014206D01*
X0371325Y0014249D01*
X0371184Y0014296D01*
X0371045Y0014346D01*
X0370908Y0014401D01*
X0370772Y0014459D01*
X0370637Y0014520D01*
X0370504Y0014585D01*
X0370373Y0014654D01*
X0370244Y0014726D01*
X0370117Y0014802D01*
X0369992Y0014881D01*
X0369869Y0014964D01*
X0369748Y0015049D01*
X0369630Y0015138D01*
X0369514Y0015230D01*
X0369401Y0015326D01*
X0369290Y0015424D01*
X0369182Y0015525D01*
X0369076Y0015629D01*
X0368974Y0015735D01*
X0368874Y0015845D01*
X0368778Y0015957D01*
X0368684Y0016072D01*
X0368593Y0016189D01*
X0368506Y0016308D01*
X0368422Y0016430D01*
X0368341Y0016554D01*
X0368264Y0016680D01*
X0368190Y0016808D01*
X0368119Y0016938D01*
X0368052Y0017070D01*
X0367989Y0017204D01*
X0367929Y0017339D01*
X0367873Y0017476D01*
X0367820Y0017615D01*
X0367772Y0017755D01*
X0367727Y0017896D01*
X0367686Y0018038D01*
X0367648Y0018181D01*
X0367615Y0018325D01*
X0367585Y0018470D01*
X0367559Y0018616D01*
X0367538Y0018762D01*
X0367520Y0018909D01*
X0367506Y0019056D01*
X0367496Y0019204D01*
X0367490Y0019352D01*
X0367488Y0019500D01*
D11*
X0200835Y0143752D03*
X0200835Y0146902D03*
X0200835Y0150051D03*
X0200835Y0153201D03*
X0200835Y0156350D03*
X0200835Y0159500D03*
X0200835Y0162650D03*
X0200835Y0165799D03*
X0200835Y0168949D03*
X0200835Y0172098D03*
X0200835Y0175248D03*
X0155165Y0175248D03*
X0155165Y0172098D03*
X0155165Y0168949D03*
X0155165Y0165799D03*
X0155165Y0162650D03*
X0155165Y0159500D03*
X0155165Y0156350D03*
X0155165Y0153201D03*
X0155165Y0150051D03*
X0155165Y0146902D03*
X0155165Y0143752D03*
D12*
X0162252Y0136665D03*
X0165402Y0136665D03*
X0168551Y0136665D03*
X0171701Y0136665D03*
X0174850Y0136665D03*
X0178000Y0136665D03*
X0181150Y0136665D03*
X0184299Y0136665D03*
X0187449Y0136665D03*
X0190598Y0136665D03*
X0193748Y0136665D03*
X0193748Y0182335D03*
X0190598Y0182335D03*
X0187449Y0182335D03*
X0184299Y0182335D03*
X0181150Y0182335D03*
X0178000Y0182335D03*
X0174850Y0182335D03*
X0171701Y0182335D03*
X0168551Y0182335D03*
X0165402Y0182335D03*
X0162252Y0182335D03*
D13*
X0138000Y0178988D03*
X0138000Y0190012D03*
X0138000Y0203988D03*
X0138000Y0215012D03*
X0183000Y0215012D03*
X0183000Y0203988D03*
X0218000Y0165012D03*
X0218000Y0153988D03*
X0138000Y0153988D03*
X0138000Y0165012D03*
X0083000Y0170012D03*
X0083000Y0158988D03*
X0083000Y0145012D03*
X0083000Y0133988D03*
X0083000Y0120012D03*
X0083000Y0108988D03*
X0083000Y0095012D03*
X0083000Y0083988D03*
X0083000Y0070012D03*
X0083000Y0058988D03*
X0083000Y0183988D03*
X0083000Y0195012D03*
X0083000Y0208988D03*
X0083000Y0220012D03*
D14*
X0177488Y0119500D03*
X0188512Y0119500D03*
D15*
X0143000Y0070098D03*
X0143000Y0058902D03*
X0063000Y0058902D03*
X0063000Y0070098D03*
X0063000Y0083902D03*
X0063000Y0095098D03*
X0063000Y0108902D03*
X0063000Y0120098D03*
X0063000Y0133902D03*
X0063000Y0145098D03*
X0063000Y0158902D03*
X0063000Y0170098D03*
X0063000Y0183902D03*
X0063000Y0195098D03*
X0063000Y0208902D03*
X0063000Y0220098D03*
X0118000Y0215098D03*
X0118000Y0203902D03*
X0118000Y0190098D03*
X0118000Y0178902D03*
X0173000Y0203902D03*
X0173000Y0215098D03*
X0148000Y0233902D03*
X0138000Y0233902D03*
X0138000Y0245098D03*
X0148000Y0245098D03*
X0148000Y0263902D03*
X0138000Y0263902D03*
X0138000Y0275098D03*
X0148000Y0275098D03*
X0148000Y0293902D03*
X0138000Y0293902D03*
X0138000Y0305098D03*
X0148000Y0305098D03*
X0253000Y0295098D03*
X0263000Y0295098D03*
X0263000Y0283902D03*
X0253000Y0283902D03*
X0253000Y0265098D03*
X0263000Y0265098D03*
X0263000Y0253902D03*
X0253000Y0253902D03*
X0253000Y0235098D03*
X0263000Y0235098D03*
X0263000Y0223902D03*
X0253000Y0223902D03*
X0253000Y0205098D03*
X0263000Y0205098D03*
X0263000Y0193902D03*
X0253000Y0193902D03*
X0253000Y0175098D03*
X0263000Y0175098D03*
X0263000Y0163902D03*
X0253000Y0163902D03*
X0253000Y0145098D03*
X0263000Y0145098D03*
X0263000Y0133902D03*
X0253000Y0133902D03*
X0253000Y0115098D03*
X0263000Y0115098D03*
X0263000Y0103902D03*
X0253000Y0103902D03*
X0253000Y0085098D03*
X0263000Y0085098D03*
X0263000Y0073902D03*
X0253000Y0073902D03*
X0253000Y0055098D03*
X0263000Y0055098D03*
X0263000Y0043902D03*
X0253000Y0043902D03*
D16*
X0295400Y0044500D02*
X0300600Y0044500D01*
X0300600Y0054500D02*
X0295400Y0054500D01*
X0295400Y0074500D02*
X0300600Y0074500D01*
X0300600Y0084500D02*
X0295400Y0084500D01*
X0295400Y0104500D02*
X0300600Y0104500D01*
X0300600Y0114500D02*
X0295400Y0114500D01*
X0295400Y0134500D02*
X0300600Y0134500D01*
X0300600Y0144500D02*
X0295400Y0144500D01*
X0295400Y0164500D02*
X0300600Y0164500D01*
X0300600Y0174500D02*
X0295400Y0174500D01*
X0295400Y0194500D02*
X0300600Y0194500D01*
X0300600Y0204500D02*
X0295400Y0204500D01*
X0295400Y0224500D02*
X0300600Y0224500D01*
X0300600Y0234500D02*
X0295400Y0234500D01*
X0295400Y0254500D02*
X0300600Y0254500D01*
X0300600Y0264500D02*
X0295400Y0264500D01*
X0295400Y0284500D02*
X0300600Y0284500D01*
X0300600Y0294500D02*
X0295400Y0294500D01*
X0325400Y0294500D02*
X0330600Y0294500D01*
X0330600Y0284500D02*
X0325400Y0284500D01*
X0325400Y0264500D02*
X0330600Y0264500D01*
X0330600Y0254500D02*
X0325400Y0254500D01*
X0325400Y0234500D02*
X0330600Y0234500D01*
X0330600Y0224500D02*
X0325400Y0224500D01*
X0325400Y0204500D02*
X0330600Y0204500D01*
X0330600Y0194500D02*
X0325400Y0194500D01*
X0325400Y0174500D02*
X0330600Y0174500D01*
X0330600Y0164500D02*
X0325400Y0164500D01*
X0325400Y0144500D02*
X0330600Y0144500D01*
X0330600Y0134500D02*
X0325400Y0134500D01*
X0325400Y0114500D02*
X0330600Y0114500D01*
X0330600Y0104500D02*
X0325400Y0104500D01*
X0325400Y0084500D02*
X0330600Y0084500D01*
X0330600Y0074500D02*
X0325400Y0074500D01*
X0325400Y0054500D02*
X0330600Y0054500D01*
X0330600Y0044500D02*
X0325400Y0044500D01*
X0175600Y0044500D02*
X0170400Y0044500D01*
X0170400Y0034500D02*
X0175600Y0034500D01*
X0145600Y0034500D02*
X0140400Y0034500D01*
X0140400Y0044500D02*
X0145600Y0044500D01*
X0105600Y0234500D02*
X0100400Y0234500D01*
X0100400Y0244500D02*
X0105600Y0244500D01*
X0105600Y0264500D02*
X0100400Y0264500D01*
X0100400Y0274500D02*
X0105600Y0274500D01*
X0105600Y0294500D02*
X0100400Y0294500D01*
X0100400Y0304500D02*
X0105600Y0304500D01*
X0075600Y0304500D02*
X0070400Y0304500D01*
X0070400Y0294500D02*
X0075600Y0294500D01*
X0075600Y0274500D02*
X0070400Y0274500D01*
X0070400Y0264500D02*
X0075600Y0264500D01*
X0075600Y0244500D02*
X0070400Y0244500D01*
X0070400Y0234500D02*
X0075600Y0234500D01*
D17*
X0058598Y0244500D03*
X0047402Y0244500D03*
X0047402Y0274500D03*
X0058598Y0274500D03*
X0058598Y0299500D03*
X0047402Y0299500D03*
X0117402Y0294500D03*
X0128598Y0294500D03*
X0128598Y0304500D03*
X0117402Y0304500D03*
X0117402Y0274500D03*
X0117402Y0264500D03*
X0128598Y0264500D03*
X0128598Y0274500D03*
X0157402Y0274500D03*
X0168598Y0274500D03*
X0168598Y0244500D03*
X0157402Y0244500D03*
X0128598Y0244500D03*
X0128598Y0234500D03*
X0117402Y0234500D03*
X0117402Y0244500D03*
X0157402Y0304500D03*
X0168598Y0304500D03*
X0232402Y0284500D03*
X0243598Y0284500D03*
X0272402Y0284500D03*
X0283598Y0284500D03*
X0283598Y0294500D03*
X0272402Y0294500D03*
X0272402Y0264500D03*
X0283598Y0264500D03*
X0283598Y0254500D03*
X0272402Y0254500D03*
X0272402Y0234500D03*
X0283598Y0234500D03*
X0283598Y0224500D03*
X0272402Y0224500D03*
X0272402Y0204500D03*
X0283598Y0204500D03*
X0283598Y0194500D03*
X0272402Y0194500D03*
X0272402Y0174500D03*
X0283598Y0174500D03*
X0283598Y0164500D03*
X0272402Y0164500D03*
X0272402Y0144500D03*
X0283598Y0144500D03*
X0283598Y0134500D03*
X0272402Y0134500D03*
X0272402Y0114500D03*
X0283598Y0114500D03*
X0283598Y0104500D03*
X0272402Y0104500D03*
X0272402Y0084500D03*
X0283598Y0084500D03*
X0283598Y0074500D03*
X0272402Y0074500D03*
X0272402Y0054500D03*
X0283598Y0054500D03*
X0283598Y0044500D03*
X0272402Y0044500D03*
X0243598Y0044500D03*
X0232402Y0044500D03*
X0232402Y0074500D03*
X0243598Y0074500D03*
X0243598Y0104500D03*
X0232402Y0104500D03*
X0232402Y0134500D03*
X0243598Y0134500D03*
X0243598Y0164500D03*
X0232402Y0164500D03*
X0232402Y0194500D03*
X0243598Y0194500D03*
X0243598Y0224500D03*
X0232402Y0224500D03*
X0232402Y0254500D03*
X0243598Y0254500D03*
X0342402Y0254500D03*
X0353598Y0254500D03*
X0353598Y0234500D03*
X0342402Y0234500D03*
X0342402Y0214500D03*
X0353598Y0214500D03*
X0353598Y0194500D03*
X0342402Y0194500D03*
X0342402Y0164500D03*
X0353598Y0164500D03*
X0353598Y0134500D03*
X0342402Y0134500D03*
X0342402Y0104500D03*
X0353598Y0104500D03*
X0353598Y0074500D03*
X0342402Y0074500D03*
X0342402Y0044500D03*
X0353598Y0044500D03*
D18*
X0258000Y0017500D02*
X0258000Y0011500D01*
X0248000Y0011500D02*
X0248000Y0017500D01*
X0238000Y0017500D02*
X0238000Y0011500D01*
X0228000Y0011500D02*
X0228000Y0017500D01*
X0218000Y0017500D02*
X0218000Y0011500D01*
X0208000Y0011500D02*
X0208000Y0017500D01*
X0198000Y0017500D02*
X0198000Y0011500D01*
X0188000Y0011500D02*
X0188000Y0017500D01*
X0178000Y0017500D02*
X0178000Y0011500D01*
X0168000Y0011500D02*
X0168000Y0017500D01*
X0158000Y0017500D02*
X0158000Y0011500D01*
X0148000Y0011500D02*
X0148000Y0017500D01*
X0138000Y0017500D02*
X0138000Y0011500D01*
X0128000Y0011500D02*
X0128000Y0017500D01*
X0118000Y0017500D02*
X0118000Y0011500D01*
X0108000Y0011500D02*
X0108000Y0017500D01*
X0098000Y0017500D02*
X0098000Y0011500D01*
X0088000Y0011500D02*
X0088000Y0017500D01*
X0078000Y0017500D02*
X0078000Y0011500D01*
X0068000Y0011500D02*
X0068000Y0017500D01*
X0205000Y0254500D02*
X0211000Y0254500D01*
X0211000Y0264500D02*
X0205000Y0264500D01*
X0205000Y0274500D02*
X0211000Y0274500D01*
X0211000Y0284500D02*
X0205000Y0284500D01*
X0205000Y0294500D02*
X0211000Y0294500D01*
X0211000Y0304500D02*
X0205000Y0304500D01*
D19*
X0203000Y0039500D03*
X0193000Y0039500D03*
X0213000Y0039500D03*
X0098000Y0039500D03*
X0088000Y0039500D03*
X0078000Y0039500D03*
D20*
X0048000Y0060169D03*
X0048000Y0068831D03*
X0048000Y0085169D03*
X0048000Y0093831D03*
X0048000Y0110169D03*
X0048000Y0118831D03*
X0048000Y0135169D03*
X0048000Y0143831D03*
X0048000Y0160169D03*
X0048000Y0168831D03*
X0048000Y0185169D03*
X0048000Y0193831D03*
X0048000Y0210169D03*
X0048000Y0218831D03*
X0098000Y0213831D03*
X0098000Y0205169D03*
X0098000Y0188831D03*
X0098000Y0180169D03*
D21*
X0144464Y0133036D03*
X0151536Y0125964D03*
D22*
G36*
X0155495Y0124788D02*
X0158556Y0121727D01*
X0155773Y0118944D01*
X0152712Y0122005D01*
X0155495Y0124788D01*
G37*
G36*
X0160227Y0120056D02*
X0163288Y0116995D01*
X0160505Y0114212D01*
X0157444Y0117273D01*
X0160227Y0120056D01*
G37*
G36*
X0140505Y0134212D02*
X0137444Y0137273D01*
X0140227Y0140056D01*
X0143288Y0136995D01*
X0140505Y0134212D01*
G37*
G36*
X0135773Y0138944D02*
X0132712Y0142005D01*
X0135495Y0144788D01*
X0138556Y0141727D01*
X0135773Y0138944D01*
G37*
D23*
X0025969Y0134500D02*
X0020031Y0134500D01*
X0020031Y0124500D02*
X0025969Y0124500D01*
X0025969Y0114500D02*
X0020031Y0114500D01*
X0020031Y0104500D02*
X0025969Y0104500D01*
X0025969Y0094500D02*
X0020031Y0094500D01*
X0020031Y0084500D02*
X0025969Y0084500D01*
X0025969Y0069500D02*
X0020031Y0069500D01*
X0020031Y0059500D02*
X0025969Y0059500D01*
X0025969Y0049500D02*
X0020031Y0049500D01*
X0020031Y0039500D02*
X0025969Y0039500D01*
X0025969Y0144500D02*
X0020031Y0144500D01*
X0020031Y0154500D02*
X0025969Y0154500D01*
X0025969Y0164500D02*
X0020031Y0164500D01*
X0020031Y0174500D02*
X0025969Y0174500D01*
X0025969Y0194500D02*
X0020031Y0194500D01*
X0020031Y0204500D02*
X0025969Y0204500D01*
X0025969Y0214500D02*
X0020031Y0214500D01*
X0020031Y0224500D02*
X0025969Y0224500D01*
X0025969Y0234500D02*
X0020031Y0234500D01*
X0020031Y0244500D02*
X0025969Y0244500D01*
X0025969Y0254500D02*
X0020031Y0254500D01*
X0020031Y0264500D02*
X0025969Y0264500D01*
X0025969Y0274500D02*
X0020031Y0274500D01*
X0020031Y0284500D02*
X0025969Y0284500D01*
X0370031Y0279500D02*
X0375969Y0279500D01*
X0375969Y0269500D02*
X0370031Y0269500D01*
X0370031Y0259500D02*
X0375969Y0259500D01*
X0375969Y0249500D02*
X0370031Y0249500D01*
X0370031Y0239500D02*
X0375969Y0239500D01*
X0375969Y0229500D02*
X0370031Y0229500D01*
X0370031Y0219500D02*
X0375969Y0219500D01*
X0375969Y0209500D02*
X0370031Y0209500D01*
X0370031Y0199500D02*
X0375969Y0199500D01*
X0375969Y0189500D02*
X0370031Y0189500D01*
X0370031Y0134500D02*
X0375969Y0134500D01*
X0375969Y0124500D02*
X0370031Y0124500D01*
X0370031Y0114500D02*
X0375969Y0114500D01*
X0375969Y0104500D02*
X0370031Y0104500D01*
X0370031Y0094500D02*
X0375969Y0094500D01*
X0375969Y0084500D02*
X0370031Y0084500D01*
X0370031Y0074500D02*
X0375969Y0074500D01*
X0375969Y0064500D02*
X0370031Y0064500D01*
X0370031Y0054500D02*
X0375969Y0054500D01*
X0375969Y0044500D02*
X0370031Y0044500D01*
D24*
X0373000Y0044500D02*
X0353598Y0044500D01*
X0342402Y0044500D02*
X0328000Y0044500D01*
X0328000Y0054500D02*
X0373000Y0054500D01*
X0373000Y0064500D02*
X0363000Y0074500D01*
X0353598Y0074500D01*
X0342402Y0074500D02*
X0328000Y0074500D01*
X0298000Y0074500D02*
X0291125Y0074500D01*
X0291125Y0104500D01*
X0291125Y0134500D01*
X0291125Y0164500D01*
X0291125Y0194500D01*
X0291125Y0224500D01*
X0283598Y0224500D01*
X0283000Y0224500D01*
X0279250Y0228250D01*
X0279250Y0238250D01*
X0283000Y0242000D01*
X0283000Y0254500D01*
X0283598Y0254500D01*
X0298000Y0254500D01*
X0298000Y0264500D02*
X0283598Y0264500D01*
X0276750Y0268250D02*
X0276750Y0209500D01*
X0250500Y0209500D01*
X0235500Y0224500D01*
X0232402Y0224500D01*
X0234250Y0234500D02*
X0253000Y0234500D01*
X0253000Y0235098D01*
X0253000Y0235125D01*
X0263000Y0235125D01*
X0263000Y0235098D01*
X0263000Y0234500D01*
X0272402Y0234500D01*
X0283598Y0234500D02*
X0298000Y0234500D01*
X0298000Y0224500D02*
X0291125Y0224500D01*
X0272402Y0224500D02*
X0263000Y0224500D01*
X0263000Y0223902D01*
X0263000Y0223875D01*
X0253000Y0223875D01*
X0253000Y0223902D01*
X0253000Y0224500D01*
X0243598Y0224500D01*
X0234250Y0234500D02*
X0191125Y0191375D01*
X0191125Y0182625D01*
X0190598Y0182335D01*
X0187449Y0182335D02*
X0187375Y0182625D01*
X0187375Y0187625D01*
X0181750Y0192000D02*
X0181750Y0182625D01*
X0181150Y0182335D01*
X0184250Y0182625D02*
X0184299Y0182335D01*
X0184250Y0182625D02*
X0184250Y0193875D01*
X0181750Y0194500D02*
X0239250Y0252000D01*
X0239250Y0258250D01*
X0245500Y0264500D01*
X0253000Y0264500D01*
X0253000Y0265098D01*
X0253000Y0265125D01*
X0263000Y0265125D01*
X0263000Y0265098D01*
X0263000Y0264500D01*
X0272402Y0264500D01*
X0276750Y0268250D02*
X0275500Y0269500D01*
X0233000Y0269500D01*
X0233000Y0254500D01*
X0232402Y0254500D01*
X0243598Y0254500D02*
X0253000Y0254500D01*
X0253000Y0253902D01*
X0253000Y0253875D01*
X0263000Y0253875D01*
X0263000Y0253902D01*
X0263000Y0254500D01*
X0272402Y0254500D01*
X0272402Y0284500D02*
X0263000Y0284500D01*
X0263000Y0283902D01*
X0263000Y0283875D01*
X0253000Y0283875D01*
X0253000Y0283902D01*
X0253000Y0284500D01*
X0243598Y0284500D01*
X0237375Y0286375D02*
X0237375Y0282000D01*
X0233000Y0284500D02*
X0232402Y0284500D01*
X0232375Y0284500D01*
X0232375Y0288875D01*
X0212375Y0308875D01*
X0173000Y0308875D01*
X0168625Y0304500D01*
X0168598Y0304500D01*
X0168625Y0304500D02*
X0168625Y0274500D01*
X0168598Y0274500D01*
X0168625Y0274500D02*
X0168625Y0244500D01*
X0168598Y0244500D01*
X0157402Y0244500D02*
X0148000Y0244500D01*
X0148000Y0245098D01*
X0148000Y0245125D01*
X0138000Y0245125D01*
X0138000Y0245098D01*
X0138000Y0244500D01*
X0128598Y0244500D01*
X0128598Y0234500D02*
X0138000Y0234500D01*
X0138000Y0233902D01*
X0138000Y0233875D01*
X0148000Y0233875D01*
X0148000Y0233902D01*
X0148000Y0233875D02*
X0154875Y0227000D01*
X0154875Y0175750D01*
X0155165Y0175248D01*
X0154875Y0172625D02*
X0152375Y0172625D01*
X0146125Y0178875D01*
X0146125Y0203875D01*
X0141125Y0208875D01*
X0083000Y0208875D01*
X0083000Y0208988D01*
X0083000Y0208875D02*
X0063000Y0208875D01*
X0063000Y0208902D01*
X0063000Y0209500D01*
X0062375Y0210125D01*
X0048000Y0210125D01*
X0048000Y0210169D01*
X0048000Y0210750D01*
X0044875Y0213875D01*
X0048000Y0218831D02*
X0048000Y0218875D01*
X0042375Y0224500D01*
X0030500Y0224500D01*
X0030500Y0204500D01*
X0023000Y0204500D01*
X0030500Y0204500D02*
X0037375Y0204500D01*
X0048000Y0193875D01*
X0048000Y0193831D01*
X0048000Y0193875D02*
X0062375Y0193875D01*
X0063000Y0194500D01*
X0063000Y0195098D01*
X0063000Y0195125D01*
X0083000Y0195125D01*
X0083000Y0195012D01*
X0083000Y0194500D01*
X0088625Y0188875D01*
X0088625Y0175750D01*
X0083000Y0170125D01*
X0083000Y0170012D01*
X0083000Y0170125D02*
X0063000Y0170125D01*
X0063000Y0170098D01*
X0063000Y0169500D01*
X0062375Y0168875D01*
X0048000Y0168875D01*
X0048000Y0168831D01*
X0048000Y0168250D01*
X0034250Y0154500D01*
X0023000Y0154500D01*
X0023000Y0164500D02*
X0043625Y0185125D01*
X0048000Y0185125D01*
X0048000Y0185169D01*
X0048000Y0185125D02*
X0062375Y0185125D01*
X0063000Y0184500D01*
X0063000Y0183902D01*
X0063000Y0184500D02*
X0083000Y0184500D01*
X0083000Y0183988D01*
X0088625Y0188875D02*
X0098000Y0188875D01*
X0098000Y0188831D01*
X0098000Y0188875D02*
X0098625Y0189500D01*
X0118000Y0189500D01*
X0118000Y0190098D01*
X0118000Y0190125D01*
X0138000Y0190125D01*
X0138000Y0190012D01*
X0143625Y0192625D02*
X0143625Y0178250D01*
X0152375Y0169500D01*
X0154875Y0169500D01*
X0155165Y0168949D01*
X0154875Y0166375D02*
X0155165Y0165799D01*
X0154875Y0166375D02*
X0144875Y0166375D01*
X0141750Y0169500D01*
X0134250Y0169500D01*
X0124250Y0159500D01*
X0124250Y0134500D01*
X0122375Y0119500D02*
X0122976Y0119380D01*
X0122375Y0119500D02*
X0083000Y0119500D01*
X0083000Y0120012D01*
X0083000Y0120125D01*
X0063000Y0120125D01*
X0063000Y0120098D01*
X0063000Y0119500D01*
X0062375Y0118875D01*
X0048000Y0118875D01*
X0048000Y0118831D01*
X0048000Y0118250D01*
X0026750Y0118250D01*
X0023000Y0114500D01*
X0019250Y0119500D02*
X0016125Y0116375D01*
X0016125Y0111375D01*
X0023000Y0104500D01*
X0019250Y0119500D02*
X0026750Y0119500D01*
X0042375Y0135125D01*
X0048000Y0135125D01*
X0048000Y0135169D01*
X0048000Y0135125D02*
X0062375Y0135125D01*
X0063000Y0134500D01*
X0063000Y0133902D01*
X0063000Y0134500D02*
X0083000Y0134500D01*
X0083000Y0133988D01*
X0083000Y0145012D02*
X0083000Y0145125D01*
X0063000Y0145125D01*
X0063000Y0145098D01*
X0063000Y0144500D01*
X0062375Y0143875D01*
X0048000Y0143875D01*
X0048000Y0143831D01*
X0048000Y0143875D02*
X0037375Y0154500D01*
X0034250Y0154500D01*
X0048000Y0160125D02*
X0048000Y0160169D01*
X0048000Y0160125D02*
X0057375Y0160125D01*
X0062375Y0160125D01*
X0063000Y0159500D01*
X0063000Y0158902D01*
X0063000Y0159500D02*
X0083000Y0159500D01*
X0083000Y0158988D01*
X0098000Y0180125D02*
X0098000Y0180169D01*
X0098000Y0180125D02*
X0117375Y0180125D01*
X0118000Y0179500D01*
X0118000Y0178902D01*
X0118000Y0178875D01*
X0138000Y0178875D01*
X0138000Y0178988D01*
X0138000Y0179500D01*
X0143000Y0174500D01*
X0138000Y0165012D02*
X0138000Y0164500D01*
X0143000Y0159500D01*
X0155165Y0159500D01*
X0157375Y0159500D01*
X0159250Y0161375D01*
X0159250Y0178250D01*
X0158625Y0178875D01*
X0158625Y0186375D01*
X0168625Y0196375D01*
X0174875Y0196375D01*
X0176750Y0198250D01*
X0178000Y0197000D01*
X0176750Y0198250D02*
X0178000Y0199500D01*
X0178000Y0215125D01*
X0183000Y0215125D01*
X0183000Y0215012D01*
X0183000Y0215125D02*
X0183000Y0269500D01*
X0208000Y0294500D01*
X0208000Y0303250D02*
X0174250Y0269500D01*
X0174250Y0224500D01*
X0168000Y0218250D01*
X0168000Y0209500D01*
X0173000Y0204500D01*
X0173000Y0203902D01*
X0173000Y0203875D01*
X0174250Y0202625D01*
X0174250Y0198875D01*
X0168625Y0194500D02*
X0181750Y0194500D01*
X0178000Y0192000D02*
X0178000Y0182335D01*
X0178000Y0142000D01*
X0181125Y0138875D01*
X0181125Y0137000D01*
X0181150Y0136665D01*
X0181750Y0136375D01*
X0181750Y0125750D01*
X0186750Y0120750D01*
X0188512Y0119500D01*
X0188000Y0119500D01*
X0186750Y0120750D01*
X0146750Y0080750D01*
X0143625Y0080750D01*
X0148625Y0075750D02*
X0143000Y0070125D01*
X0143000Y0070098D01*
X0144250Y0063250D02*
X0139250Y0063250D01*
X0098000Y0022000D01*
X0098000Y0014500D01*
X0088000Y0014500D02*
X0088000Y0039500D01*
X0078000Y0039500D02*
X0078000Y0014500D01*
X0118000Y0014500D02*
X0118000Y0017625D01*
X0138625Y0038250D01*
X0144875Y0038250D01*
X0196125Y0089500D01*
X0196125Y0147625D01*
X0198000Y0149500D01*
X0200500Y0149500D01*
X0200835Y0150051D01*
X0201125Y0152625D02*
X0200835Y0153201D01*
X0201125Y0152625D02*
X0203625Y0152625D01*
X0225500Y0130750D01*
X0225500Y0119500D01*
X0238000Y0107000D01*
X0238000Y0070125D01*
X0253000Y0055125D01*
X0253000Y0055098D01*
X0253000Y0055125D02*
X0263000Y0055125D01*
X0263000Y0055098D01*
X0263000Y0054500D01*
X0272402Y0054500D01*
X0276750Y0050750D02*
X0275500Y0049500D01*
X0233000Y0049500D01*
X0233000Y0044500D01*
X0232402Y0044500D01*
X0233000Y0049500D02*
X0233000Y0074500D01*
X0232402Y0074500D01*
X0233000Y0074500D02*
X0233000Y0104500D01*
X0232402Y0104500D01*
X0239250Y0107625D02*
X0239250Y0098875D01*
X0253000Y0085125D01*
X0253000Y0085098D01*
X0253000Y0085125D02*
X0263000Y0085125D01*
X0263000Y0085098D01*
X0263000Y0084500D01*
X0272402Y0084500D01*
X0283598Y0084500D02*
X0288625Y0084500D01*
X0291125Y0074500D02*
X0283598Y0074500D01*
X0291125Y0074500D02*
X0291125Y0044500D01*
X0283598Y0044500D01*
X0291125Y0044500D02*
X0296750Y0044500D01*
X0298000Y0044500D01*
X0296750Y0044500D02*
X0259250Y0007000D01*
X0226750Y0007000D01*
X0219250Y0014500D01*
X0218000Y0014500D01*
X0208000Y0014500D02*
X0188000Y0034500D01*
X0173000Y0034500D01*
X0166750Y0046375D02*
X0166750Y0015750D01*
X0168000Y0014500D01*
X0163625Y0010125D02*
X0166750Y0007000D01*
X0180500Y0007000D01*
X0188000Y0014500D01*
X0164875Y0020125D02*
X0163625Y0018875D01*
X0163625Y0010125D01*
X0162375Y0008250D02*
X0162375Y0051375D01*
X0169875Y0058875D01*
X0167375Y0052625D02*
X0167375Y0047000D01*
X0166750Y0046375D01*
X0164875Y0050750D02*
X0164875Y0020125D01*
X0158000Y0014500D02*
X0148000Y0014500D01*
X0138000Y0014500D02*
X0128000Y0014500D01*
X0143000Y0044500D02*
X0143000Y0058902D01*
X0144250Y0063250D02*
X0193625Y0112625D01*
X0193625Y0116375D02*
X0155500Y0078250D01*
X0101750Y0078250D01*
X0083000Y0059500D01*
X0083000Y0058988D01*
X0083000Y0058875D01*
X0063000Y0058875D01*
X0063000Y0058902D01*
X0063000Y0059500D01*
X0062375Y0060125D01*
X0048000Y0060125D01*
X0048000Y0060169D01*
X0048000Y0060125D02*
X0027375Y0039500D01*
X0023000Y0039500D01*
X0023000Y0049500D02*
X0029250Y0049500D01*
X0048000Y0068250D01*
X0048000Y0068831D01*
X0048000Y0068875D01*
X0062375Y0068875D01*
X0063000Y0069500D01*
X0063000Y0070098D01*
X0063000Y0070125D01*
X0083000Y0070125D01*
X0083000Y0070012D01*
X0083000Y0083988D02*
X0083000Y0084500D01*
X0063000Y0084500D01*
X0063000Y0083902D01*
X0063000Y0084500D02*
X0062375Y0085125D01*
X0048000Y0085125D01*
X0048000Y0085169D01*
X0048000Y0085125D02*
X0023000Y0060125D01*
X0023000Y0059500D01*
X0023000Y0069500D02*
X0024250Y0069500D01*
X0048000Y0093250D01*
X0048000Y0093831D01*
X0048000Y0093875D01*
X0062375Y0093875D01*
X0063000Y0094500D01*
X0063000Y0095098D01*
X0063000Y0095125D01*
X0083000Y0095125D01*
X0083000Y0095012D01*
X0083000Y0108988D02*
X0083000Y0109500D01*
X0063000Y0109500D01*
X0063000Y0108902D01*
X0063000Y0109500D02*
X0062375Y0110125D01*
X0048000Y0110125D01*
X0048000Y0110169D01*
X0048000Y0110125D02*
X0023000Y0085125D01*
X0023000Y0084500D01*
X0138007Y0144500D02*
X0138000Y0145125D01*
X0138000Y0153988D01*
X0138000Y0154500D01*
X0139250Y0155750D01*
X0154875Y0155750D01*
X0155165Y0156350D01*
X0155500Y0153250D02*
X0155165Y0153201D01*
X0155500Y0153250D02*
X0157375Y0153250D01*
X0160500Y0156375D01*
X0160500Y0178875D01*
X0159875Y0179500D01*
X0159875Y0185750D01*
X0168625Y0194500D01*
X0171125Y0192000D02*
X0171125Y0182625D01*
X0171701Y0182335D01*
X0174250Y0182625D02*
X0174850Y0182335D01*
X0174250Y0182625D02*
X0174250Y0192000D01*
X0166125Y0188875D02*
X0162375Y0185125D01*
X0162375Y0182625D01*
X0162252Y0182335D01*
X0165402Y0182335D02*
X0165500Y0182000D01*
X0165500Y0177000D01*
X0168625Y0178250D02*
X0168625Y0182000D01*
X0168551Y0182335D01*
X0168625Y0178250D02*
X0176750Y0170125D01*
X0176750Y0145125D01*
X0175500Y0143875D01*
X0173625Y0146375D02*
X0155500Y0146375D01*
X0155165Y0146902D01*
X0155165Y0150051D02*
X0155500Y0150125D01*
X0161750Y0150125D01*
X0174250Y0162625D01*
X0180500Y0172000D02*
X0200500Y0172000D01*
X0200835Y0172098D01*
X0201125Y0169500D02*
X0200835Y0168949D01*
X0201125Y0169500D02*
X0248000Y0169500D01*
X0253000Y0174500D01*
X0253000Y0175098D01*
X0253000Y0175125D01*
X0263000Y0175125D01*
X0263000Y0175098D01*
X0263000Y0174500D01*
X0272402Y0174500D01*
X0278625Y0174500D02*
X0283598Y0174500D01*
X0288000Y0170750D02*
X0286750Y0169500D01*
X0280500Y0169500D01*
X0276750Y0165750D01*
X0276750Y0148250D01*
X0265500Y0159500D01*
X0238000Y0159500D01*
X0233000Y0164500D01*
X0232402Y0164500D01*
X0227375Y0164500D02*
X0218000Y0164500D01*
X0218000Y0165012D01*
X0216750Y0158250D02*
X0239875Y0158250D01*
X0253000Y0145125D01*
X0253000Y0145098D01*
X0253000Y0145125D02*
X0263000Y0145125D01*
X0263000Y0145098D01*
X0263000Y0144500D01*
X0272402Y0144500D01*
X0276750Y0148250D02*
X0276750Y0140750D01*
X0276750Y0050750D01*
X0272402Y0044500D02*
X0263000Y0044500D01*
X0263000Y0043902D01*
X0263000Y0043875D01*
X0253000Y0043875D01*
X0253000Y0043902D01*
X0253000Y0044500D01*
X0243598Y0044500D01*
X0248000Y0014500D02*
X0201125Y0061375D01*
X0201125Y0143250D01*
X0200835Y0143752D01*
X0201125Y0146375D02*
X0200835Y0146902D01*
X0201125Y0146375D02*
X0203625Y0146375D01*
X0206125Y0143875D01*
X0193748Y0136665D02*
X0193625Y0136375D01*
X0193625Y0116375D01*
X0178000Y0119500D02*
X0177488Y0119500D01*
X0174875Y0119500D01*
X0168625Y0113250D01*
X0163000Y0113250D01*
X0167375Y0115750D02*
X0165500Y0117625D01*
X0165500Y0136375D01*
X0165402Y0136665D01*
X0168551Y0136665D02*
X0168625Y0136375D01*
X0168625Y0118875D01*
X0169875Y0117625D01*
X0171125Y0122625D02*
X0171125Y0136375D01*
X0171701Y0136665D01*
X0174850Y0136665D02*
X0174875Y0136375D01*
X0174875Y0125125D01*
X0178000Y0119500D02*
X0178000Y0136665D01*
X0184250Y0137000D02*
X0184299Y0136665D01*
X0184250Y0137000D02*
X0184250Y0142000D01*
X0187375Y0142000D02*
X0187375Y0137000D01*
X0187449Y0136665D01*
X0190500Y0137000D02*
X0190598Y0136665D01*
X0190500Y0137000D02*
X0190500Y0142000D01*
X0201125Y0155750D02*
X0200835Y0156350D01*
X0201125Y0155750D02*
X0203625Y0155750D01*
X0226750Y0132625D01*
X0226750Y0120125D01*
X0239250Y0107625D01*
X0243598Y0104500D02*
X0253000Y0104500D01*
X0253000Y0103902D01*
X0253000Y0103875D01*
X0263000Y0103875D01*
X0263000Y0103902D01*
X0263000Y0104500D01*
X0272402Y0104500D01*
X0283598Y0104500D02*
X0291125Y0104500D01*
X0298000Y0104500D01*
X0288625Y0114500D02*
X0283598Y0114500D01*
X0272402Y0114500D02*
X0263000Y0114500D01*
X0263000Y0115098D01*
X0263000Y0115125D01*
X0253000Y0115125D01*
X0253000Y0115098D01*
X0253000Y0115125D02*
X0243625Y0115125D01*
X0228000Y0130750D01*
X0228000Y0134500D01*
X0203000Y0159500D01*
X0200835Y0159500D01*
X0201125Y0162625D02*
X0200835Y0162650D01*
X0201125Y0162625D02*
X0209875Y0162625D01*
X0218000Y0154500D01*
X0218000Y0153988D01*
X0216750Y0158250D02*
X0209250Y0165750D01*
X0201125Y0165750D01*
X0200835Y0165799D01*
X0200500Y0175125D02*
X0200835Y0175248D01*
X0200500Y0175125D02*
X0180500Y0175125D01*
X0193748Y0182335D02*
X0194250Y0182625D01*
X0212375Y0182625D01*
X0234250Y0204500D01*
X0253000Y0204500D01*
X0253000Y0205098D01*
X0253000Y0205125D01*
X0263000Y0205125D01*
X0263000Y0205098D01*
X0263000Y0204500D01*
X0272402Y0204500D01*
X0278625Y0204500D02*
X0283598Y0204500D01*
X0288000Y0200750D02*
X0286750Y0199500D01*
X0280500Y0199500D01*
X0279250Y0198250D01*
X0279250Y0179500D01*
X0250500Y0179500D01*
X0235500Y0194500D01*
X0232402Y0194500D01*
X0243598Y0194500D02*
X0253000Y0194500D01*
X0253000Y0193902D01*
X0253000Y0193875D01*
X0263000Y0193875D01*
X0263000Y0193902D01*
X0263000Y0194500D01*
X0272402Y0194500D01*
X0283598Y0194500D02*
X0291125Y0194500D01*
X0298000Y0194500D01*
X0288000Y0200750D02*
X0288000Y0208250D01*
X0286750Y0209500D01*
X0276750Y0209500D01*
X0279250Y0179500D02*
X0286750Y0179500D01*
X0288000Y0178250D01*
X0288000Y0170750D01*
X0291125Y0164500D02*
X0283598Y0164500D01*
X0291125Y0164500D02*
X0298000Y0164500D01*
X0288625Y0144500D02*
X0283598Y0144500D01*
X0276750Y0140750D02*
X0275500Y0139500D01*
X0240500Y0139500D01*
X0235500Y0134500D01*
X0232402Y0134500D01*
X0243598Y0134500D02*
X0253000Y0134500D01*
X0253000Y0133902D01*
X0253000Y0133875D01*
X0263000Y0133875D01*
X0263000Y0133902D01*
X0263000Y0134500D01*
X0272402Y0134500D01*
X0283598Y0134500D02*
X0291125Y0134500D01*
X0298000Y0134500D01*
X0328000Y0134500D02*
X0342402Y0134500D01*
X0353598Y0134500D02*
X0353625Y0134500D01*
X0353625Y0123875D01*
X0373000Y0104500D01*
X0353625Y0104500D02*
X0353598Y0104500D01*
X0353625Y0104500D02*
X0373000Y0085125D01*
X0373000Y0084500D01*
X0342402Y0104500D02*
X0328000Y0104500D01*
X0353625Y0143875D02*
X0373000Y0124500D01*
X0353625Y0143875D02*
X0353625Y0164500D01*
X0353598Y0164500D01*
X0342402Y0164500D02*
X0328000Y0164500D01*
X0328000Y0194500D02*
X0342402Y0194500D01*
X0353598Y0194500D02*
X0368000Y0194500D01*
X0373000Y0189500D01*
X0373000Y0209500D02*
X0368000Y0214500D01*
X0353598Y0214500D01*
X0342402Y0214500D02*
X0338000Y0214500D01*
X0328000Y0224500D01*
X0342375Y0234500D02*
X0342402Y0234500D01*
X0342375Y0234500D02*
X0342375Y0240125D01*
X0328000Y0254500D01*
X0342375Y0254500D02*
X0342402Y0254500D01*
X0342375Y0254500D02*
X0342375Y0270125D01*
X0328000Y0284500D01*
X0332375Y0288250D02*
X0301750Y0288250D01*
X0298000Y0284500D01*
X0283598Y0284500D01*
X0283598Y0294500D02*
X0298000Y0294500D01*
X0272402Y0294500D02*
X0263000Y0294500D01*
X0263000Y0295098D01*
X0263000Y0295125D01*
X0253000Y0295125D01*
X0253000Y0295098D01*
X0253000Y0294500D01*
X0245500Y0294500D01*
X0237375Y0286375D01*
X0233000Y0284500D02*
X0233000Y0269500D01*
X0208000Y0284500D02*
X0200500Y0277000D01*
X0200500Y0224500D01*
X0183000Y0207000D01*
X0183000Y0203988D01*
X0183000Y0203875D01*
X0181750Y0202625D01*
X0181750Y0198875D01*
X0178000Y0215125D02*
X0173000Y0215125D01*
X0173000Y0215098D01*
X0143625Y0198875D02*
X0138000Y0204500D01*
X0138000Y0203988D01*
X0138000Y0203875D01*
X0118000Y0203875D01*
X0118000Y0203902D01*
X0118000Y0204500D01*
X0117375Y0205125D01*
X0098000Y0205125D01*
X0098000Y0205169D01*
X0098000Y0213831D02*
X0098000Y0213875D01*
X0098625Y0214500D01*
X0118000Y0214500D01*
X0118000Y0215098D01*
X0118000Y0215125D01*
X0138000Y0215125D01*
X0138000Y0215012D01*
X0117402Y0234500D02*
X0103000Y0234500D01*
X0103000Y0244500D02*
X0078625Y0220125D01*
X0063000Y0220125D01*
X0063000Y0220098D01*
X0063000Y0219500D01*
X0062375Y0218875D01*
X0048000Y0218875D01*
X0030500Y0224500D02*
X0023000Y0224500D01*
X0023000Y0234500D02*
X0073000Y0234500D01*
X0073000Y0244500D02*
X0058598Y0244500D01*
X0047402Y0244500D02*
X0023000Y0244500D01*
X0023000Y0264500D02*
X0033000Y0274500D01*
X0047402Y0274500D01*
X0058598Y0274500D02*
X0073000Y0274500D01*
X0068000Y0299500D02*
X0058598Y0299500D01*
X0047402Y0299500D02*
X0038625Y0299500D01*
X0023625Y0284500D01*
X0023000Y0284500D01*
X0068000Y0299500D02*
X0073000Y0304500D01*
X0096750Y0306375D02*
X0096750Y0300750D01*
X0103000Y0294500D01*
X0117402Y0294500D02*
X0118000Y0294500D01*
X0118000Y0297000D01*
X0121750Y0300750D01*
X0121750Y0308250D01*
X0120500Y0309500D01*
X0099875Y0309500D01*
X0096750Y0306375D01*
X0103000Y0304500D02*
X0110500Y0304500D01*
X0110500Y0274500D01*
X0110500Y0244500D01*
X0117402Y0244500D01*
X0110500Y0244500D02*
X0103000Y0244500D01*
X0117375Y0258875D02*
X0117375Y0264500D01*
X0117402Y0264500D01*
X0117402Y0274500D02*
X0110500Y0274500D01*
X0103000Y0274500D01*
X0128598Y0274500D02*
X0138000Y0274500D01*
X0138000Y0275098D01*
X0138000Y0275125D01*
X0148000Y0275125D01*
X0148000Y0275098D01*
X0148000Y0274500D01*
X0157402Y0274500D01*
X0161750Y0273250D02*
X0161750Y0280125D01*
X0148000Y0293875D01*
X0148000Y0293902D01*
X0148000Y0293875D02*
X0138000Y0293875D01*
X0138000Y0293902D01*
X0138000Y0294500D01*
X0128598Y0294500D01*
X0128598Y0304500D02*
X0138000Y0304500D01*
X0138000Y0305098D01*
X0138000Y0305125D01*
X0148000Y0305125D01*
X0148000Y0305098D01*
X0148000Y0304500D01*
X0157402Y0304500D01*
X0161750Y0273250D02*
X0166125Y0268875D01*
X0166125Y0262000D01*
X0148000Y0263875D02*
X0148000Y0253875D01*
X0148000Y0263875D02*
X0138000Y0263875D01*
X0138000Y0263902D01*
X0138000Y0264500D01*
X0128598Y0264500D01*
X0148000Y0263902D02*
X0148000Y0263875D01*
X0117402Y0304500D02*
X0110500Y0304500D01*
X0208000Y0304500D02*
X0208000Y0303250D01*
X0098000Y0213875D02*
X0088625Y0213875D01*
X0083000Y0219500D01*
X0083000Y0220012D01*
X0083000Y0220125D01*
X0078625Y0220125D01*
X0149875Y0162625D02*
X0154875Y0162625D01*
X0155165Y0162650D01*
X0155165Y0172098D02*
X0154875Y0172625D01*
X0155165Y0143752D02*
X0154875Y0143250D01*
X0144875Y0133250D01*
X0144464Y0133036D01*
X0144250Y0133250D01*
X0140500Y0137000D01*
X0140366Y0137134D01*
X0151750Y0126375D02*
X0151536Y0125964D01*
X0151750Y0125750D01*
X0155500Y0122000D01*
X0155634Y0121866D01*
X0151750Y0126375D02*
X0161750Y0136375D01*
X0162252Y0136665D01*
X0243598Y0164500D02*
X0253000Y0164500D01*
X0253000Y0163902D01*
X0253000Y0163875D01*
X0263000Y0163875D01*
X0263000Y0163902D01*
X0263000Y0164500D01*
X0272402Y0164500D01*
X0353598Y0234500D02*
X0368000Y0234500D01*
X0373000Y0229500D01*
X0373000Y0249500D02*
X0368000Y0254500D01*
X0353598Y0254500D01*
X0351125Y0269500D02*
X0332375Y0288250D01*
X0351125Y0269500D02*
X0373000Y0269500D01*
X0272402Y0074500D02*
X0263000Y0074500D01*
X0263000Y0073902D01*
X0263000Y0073875D01*
X0253000Y0073875D01*
X0253000Y0073902D01*
X0253000Y0074500D01*
X0243598Y0074500D01*
X0283598Y0054500D02*
X0288625Y0054500D01*
D25*
X0288625Y0054500D03*
X0288625Y0084500D03*
X0288625Y0114500D03*
X0288625Y0144500D03*
X0278625Y0174500D03*
X0278625Y0204500D03*
X0227375Y0164500D03*
X0206125Y0143875D03*
X0190500Y0142000D03*
X0187375Y0142000D03*
X0184250Y0142000D03*
X0175500Y0143875D03*
X0173625Y0146375D03*
X0174250Y0162625D03*
X0180500Y0172000D03*
X0180500Y0175125D03*
X0187375Y0187625D03*
X0181750Y0192000D03*
X0184250Y0193875D03*
X0178000Y0192000D03*
X0174250Y0192000D03*
X0171125Y0192000D03*
X0166125Y0188875D03*
X0165500Y0177000D03*
X0149875Y0162625D03*
X0143000Y0174500D03*
X0143625Y0192625D03*
X0143625Y0198875D03*
X0174250Y0198875D03*
X0178000Y0197000D03*
X0181750Y0198875D03*
X0148000Y0253875D03*
X0166125Y0262000D03*
X0117375Y0258875D03*
X0044875Y0213875D03*
X0057375Y0160125D03*
X0124250Y0134500D03*
X0167375Y0115750D03*
X0169875Y0117625D03*
X0171125Y0122625D03*
X0174875Y0125125D03*
X0193625Y0112625D03*
X0148625Y0075750D03*
X0143625Y0080750D03*
X0169875Y0058875D03*
X0167375Y0052625D03*
X0164875Y0050750D03*
X0162375Y0008250D03*
X0237375Y0282000D03*
D26*
X0163000Y0144500D02*
X0159518Y0144500D01*
X0159518Y0142188D01*
X0158698Y0141368D01*
X0155397Y0141368D01*
X0148288Y0134258D01*
X0148464Y0133831D01*
X0148464Y0132240D01*
X0147855Y0130770D01*
X0146730Y0129644D01*
X0145260Y0129036D01*
X0143669Y0129036D01*
X0142199Y0129644D01*
X0141073Y0130770D01*
X0140464Y0132240D01*
X0140464Y0132811D01*
X0139926Y0132811D01*
X0136043Y0136693D01*
X0136043Y0137152D01*
X0136010Y0137143D01*
X0135536Y0137143D01*
X0135078Y0137266D01*
X0134668Y0137503D01*
X0133099Y0139071D01*
X0135634Y0141606D01*
X0135373Y0141866D01*
X0132839Y0139332D01*
X0131270Y0140900D01*
X0131033Y0141311D01*
X0130911Y0141769D01*
X0130911Y0142242D01*
X0131033Y0142700D01*
X0131270Y0143111D01*
X0132660Y0144500D01*
X0128000Y0144500D01*
X0126321Y0136106D01*
X0126454Y0135973D01*
X0126850Y0135017D01*
X0126850Y0133983D01*
X0126454Y0133027D01*
X0125723Y0132296D01*
X0125544Y0132222D01*
X0118000Y0094500D01*
X0163000Y0109500D01*
X0163000Y0114160D01*
X0161611Y0112770D01*
X0161200Y0112533D01*
X0160742Y0112411D01*
X0160269Y0112411D01*
X0159811Y0112533D01*
X0159400Y0112770D01*
X0157832Y0114339D01*
X0160366Y0116873D01*
X0160106Y0117134D01*
X0157571Y0114599D01*
X0156003Y0116168D01*
X0155766Y0116578D01*
X0155643Y0117036D01*
X0155643Y0117510D01*
X0155652Y0117543D01*
X0155193Y0117543D01*
X0151311Y0121426D01*
X0151311Y0121964D01*
X0150740Y0121964D01*
X0149270Y0122573D01*
X0148144Y0123699D01*
X0147536Y0125169D01*
X0147536Y0126760D01*
X0148144Y0128230D01*
X0149270Y0129355D01*
X0150740Y0129964D01*
X0152331Y0129964D01*
X0152758Y0129787D01*
X0159868Y0136897D01*
X0159868Y0140198D01*
X0160688Y0141018D01*
X0163000Y0141018D01*
X0163000Y0144500D01*
X0163000Y0143570D02*
X0159518Y0143570D01*
X0159302Y0141972D02*
X0163000Y0141972D01*
X0160043Y0140373D02*
X0154403Y0140373D01*
X0152804Y0138775D02*
X0159868Y0138775D01*
X0159868Y0137176D02*
X0151206Y0137176D01*
X0149607Y0135578D02*
X0158549Y0135578D01*
X0156950Y0133979D02*
X0148403Y0133979D01*
X0148464Y0132381D02*
X0155352Y0132381D01*
X0153753Y0130782D02*
X0147861Y0130782D01*
X0149098Y0129184D02*
X0145618Y0129184D01*
X0143311Y0129184D02*
X0124937Y0129184D01*
X0125256Y0130782D02*
X0141068Y0130782D01*
X0140464Y0132381D02*
X0125808Y0132381D01*
X0126849Y0133979D02*
X0138757Y0133979D01*
X0137158Y0135578D02*
X0126618Y0135578D01*
X0126535Y0137176D02*
X0135412Y0137176D01*
X0133396Y0138775D02*
X0126855Y0138775D01*
X0127175Y0140373D02*
X0131797Y0140373D01*
X0130911Y0141972D02*
X0127494Y0141972D01*
X0127814Y0143570D02*
X0131730Y0143570D01*
X0133880Y0140373D02*
X0134401Y0140373D01*
X0135894Y0141866D02*
X0135634Y0142127D01*
X0138007Y0144500D01*
X0150813Y0144500D01*
X0150813Y0142188D01*
X0151111Y0141890D01*
X0145965Y0136744D01*
X0145260Y0137036D01*
X0144689Y0137036D01*
X0144689Y0137574D01*
X0140807Y0141457D01*
X0140348Y0141457D01*
X0140357Y0141490D01*
X0140357Y0141964D01*
X0140234Y0142422D01*
X0139997Y0142832D01*
X0138429Y0144401D01*
X0135894Y0141866D01*
X0135789Y0141972D02*
X0136000Y0141972D01*
X0137077Y0143570D02*
X0137598Y0143570D01*
X0139259Y0143570D02*
X0150813Y0143570D01*
X0151028Y0141972D02*
X0140355Y0141972D01*
X0141890Y0140373D02*
X0149594Y0140373D01*
X0147996Y0138775D02*
X0143489Y0138775D01*
X0144689Y0137176D02*
X0146397Y0137176D01*
X0156963Y0129184D02*
X0163000Y0129184D01*
X0163000Y0130782D02*
X0158562Y0130782D01*
X0160160Y0132381D02*
X0160620Y0132381D01*
X0160688Y0132313D02*
X0163000Y0132313D01*
X0163000Y0119507D01*
X0160627Y0117134D01*
X0160366Y0117394D01*
X0162901Y0119929D01*
X0161332Y0121497D01*
X0160922Y0121734D01*
X0160464Y0121857D01*
X0159990Y0121857D01*
X0159957Y0121848D01*
X0159957Y0122307D01*
X0156074Y0126189D01*
X0155536Y0126189D01*
X0155536Y0126760D01*
X0155244Y0127465D01*
X0160390Y0132611D01*
X0160688Y0132313D01*
X0163000Y0127585D02*
X0155365Y0127585D01*
X0156277Y0125987D02*
X0163000Y0125987D01*
X0163000Y0124388D02*
X0157875Y0124388D01*
X0159474Y0122790D02*
X0163000Y0122790D01*
X0163000Y0121191D02*
X0161638Y0121191D01*
X0162565Y0119593D02*
X0163000Y0119593D01*
X0161488Y0117994D02*
X0160966Y0117994D01*
X0159889Y0116396D02*
X0159368Y0116396D01*
X0158290Y0114797D02*
X0157769Y0114797D01*
X0157373Y0114797D02*
X0122059Y0114797D01*
X0121740Y0113199D02*
X0158972Y0113199D01*
X0162039Y0113199D02*
X0163000Y0113199D01*
X0163000Y0111600D02*
X0121420Y0111600D01*
X0121100Y0110002D02*
X0163000Y0110002D01*
X0159710Y0108403D02*
X0120781Y0108403D01*
X0120461Y0106805D02*
X0154914Y0106805D01*
X0150119Y0105206D02*
X0120141Y0105206D01*
X0119822Y0103608D02*
X0145323Y0103608D01*
X0140528Y0102009D02*
X0119502Y0102009D01*
X0119182Y0100411D02*
X0135732Y0100411D01*
X0130937Y0098812D02*
X0118862Y0098812D01*
X0118543Y0097214D02*
X0126141Y0097214D01*
X0121345Y0095615D02*
X0118223Y0095615D01*
X0122379Y0116396D02*
X0155871Y0116396D01*
X0154742Y0117994D02*
X0122699Y0117994D01*
X0123019Y0119593D02*
X0153143Y0119593D01*
X0151545Y0121191D02*
X0123338Y0121191D01*
X0123658Y0122790D02*
X0149053Y0122790D01*
X0147859Y0124388D02*
X0123978Y0124388D01*
X0124297Y0125987D02*
X0147536Y0125987D01*
X0147877Y0127585D02*
X0124617Y0127585D01*
M02*
