G75*
%MOIN*%
%OFA0B0*%
%FSLAX25Y25*%
%IPPOS*%
%LPD*%
%AMOC8*
5,1,8,0,0,1.08239X$1,22.5*
%
%ADD10C,0.00000*%
D10*
X0008000Y0004500D02*
X0008000Y0319461D01*
X0391701Y0319461D01*
X0391701Y0004500D01*
X0008000Y0004500D01*
X0017488Y0019500D02*
X0017490Y0019648D01*
X0017496Y0019796D01*
X0017506Y0019944D01*
X0017520Y0020091D01*
X0017538Y0020238D01*
X0017559Y0020384D01*
X0017585Y0020530D01*
X0017615Y0020675D01*
X0017648Y0020819D01*
X0017686Y0020962D01*
X0017727Y0021104D01*
X0017772Y0021245D01*
X0017820Y0021385D01*
X0017873Y0021524D01*
X0017929Y0021661D01*
X0017989Y0021796D01*
X0018052Y0021930D01*
X0018119Y0022062D01*
X0018190Y0022192D01*
X0018264Y0022320D01*
X0018341Y0022446D01*
X0018422Y0022570D01*
X0018506Y0022692D01*
X0018593Y0022811D01*
X0018684Y0022928D01*
X0018778Y0023043D01*
X0018874Y0023155D01*
X0018974Y0023265D01*
X0019076Y0023371D01*
X0019182Y0023475D01*
X0019290Y0023576D01*
X0019401Y0023674D01*
X0019514Y0023770D01*
X0019630Y0023862D01*
X0019748Y0023951D01*
X0019869Y0024036D01*
X0019992Y0024119D01*
X0020117Y0024198D01*
X0020244Y0024274D01*
X0020373Y0024346D01*
X0020504Y0024415D01*
X0020637Y0024480D01*
X0020772Y0024541D01*
X0020908Y0024599D01*
X0021045Y0024654D01*
X0021184Y0024704D01*
X0021325Y0024751D01*
X0021466Y0024794D01*
X0021609Y0024834D01*
X0021753Y0024869D01*
X0021897Y0024901D01*
X0022043Y0024928D01*
X0022189Y0024952D01*
X0022336Y0024972D01*
X0022483Y0024988D01*
X0022630Y0025000D01*
X0022778Y0025008D01*
X0022926Y0025012D01*
X0023074Y0025012D01*
X0023222Y0025008D01*
X0023370Y0025000D01*
X0023517Y0024988D01*
X0023664Y0024972D01*
X0023811Y0024952D01*
X0023957Y0024928D01*
X0024103Y0024901D01*
X0024247Y0024869D01*
X0024391Y0024834D01*
X0024534Y0024794D01*
X0024675Y0024751D01*
X0024816Y0024704D01*
X0024955Y0024654D01*
X0025092Y0024599D01*
X0025228Y0024541D01*
X0025363Y0024480D01*
X0025496Y0024415D01*
X0025627Y0024346D01*
X0025756Y0024274D01*
X0025883Y0024198D01*
X0026008Y0024119D01*
X0026131Y0024036D01*
X0026252Y0023951D01*
X0026370Y0023862D01*
X0026486Y0023770D01*
X0026599Y0023674D01*
X0026710Y0023576D01*
X0026818Y0023475D01*
X0026924Y0023371D01*
X0027026Y0023265D01*
X0027126Y0023155D01*
X0027222Y0023043D01*
X0027316Y0022928D01*
X0027407Y0022811D01*
X0027494Y0022692D01*
X0027578Y0022570D01*
X0027659Y0022446D01*
X0027736Y0022320D01*
X0027810Y0022192D01*
X0027881Y0022062D01*
X0027948Y0021930D01*
X0028011Y0021796D01*
X0028071Y0021661D01*
X0028127Y0021524D01*
X0028180Y0021385D01*
X0028228Y0021245D01*
X0028273Y0021104D01*
X0028314Y0020962D01*
X0028352Y0020819D01*
X0028385Y0020675D01*
X0028415Y0020530D01*
X0028441Y0020384D01*
X0028462Y0020238D01*
X0028480Y0020091D01*
X0028494Y0019944D01*
X0028504Y0019796D01*
X0028510Y0019648D01*
X0028512Y0019500D01*
X0028510Y0019352D01*
X0028504Y0019204D01*
X0028494Y0019056D01*
X0028480Y0018909D01*
X0028462Y0018762D01*
X0028441Y0018616D01*
X0028415Y0018470D01*
X0028385Y0018325D01*
X0028352Y0018181D01*
X0028314Y0018038D01*
X0028273Y0017896D01*
X0028228Y0017755D01*
X0028180Y0017615D01*
X0028127Y0017476D01*
X0028071Y0017339D01*
X0028011Y0017204D01*
X0027948Y0017070D01*
X0027881Y0016938D01*
X0027810Y0016808D01*
X0027736Y0016680D01*
X0027659Y0016554D01*
X0027578Y0016430D01*
X0027494Y0016308D01*
X0027407Y0016189D01*
X0027316Y0016072D01*
X0027222Y0015957D01*
X0027126Y0015845D01*
X0027026Y0015735D01*
X0026924Y0015629D01*
X0026818Y0015525D01*
X0026710Y0015424D01*
X0026599Y0015326D01*
X0026486Y0015230D01*
X0026370Y0015138D01*
X0026252Y0015049D01*
X0026131Y0014964D01*
X0026008Y0014881D01*
X0025883Y0014802D01*
X0025756Y0014726D01*
X0025627Y0014654D01*
X0025496Y0014585D01*
X0025363Y0014520D01*
X0025228Y0014459D01*
X0025092Y0014401D01*
X0024955Y0014346D01*
X0024816Y0014296D01*
X0024675Y0014249D01*
X0024534Y0014206D01*
X0024391Y0014166D01*
X0024247Y0014131D01*
X0024103Y0014099D01*
X0023957Y0014072D01*
X0023811Y0014048D01*
X0023664Y0014028D01*
X0023517Y0014012D01*
X0023370Y0014000D01*
X0023222Y0013992D01*
X0023074Y0013988D01*
X0022926Y0013988D01*
X0022778Y0013992D01*
X0022630Y0014000D01*
X0022483Y0014012D01*
X0022336Y0014028D01*
X0022189Y0014048D01*
X0022043Y0014072D01*
X0021897Y0014099D01*
X0021753Y0014131D01*
X0021609Y0014166D01*
X0021466Y0014206D01*
X0021325Y0014249D01*
X0021184Y0014296D01*
X0021045Y0014346D01*
X0020908Y0014401D01*
X0020772Y0014459D01*
X0020637Y0014520D01*
X0020504Y0014585D01*
X0020373Y0014654D01*
X0020244Y0014726D01*
X0020117Y0014802D01*
X0019992Y0014881D01*
X0019869Y0014964D01*
X0019748Y0015049D01*
X0019630Y0015138D01*
X0019514Y0015230D01*
X0019401Y0015326D01*
X0019290Y0015424D01*
X0019182Y0015525D01*
X0019076Y0015629D01*
X0018974Y0015735D01*
X0018874Y0015845D01*
X0018778Y0015957D01*
X0018684Y0016072D01*
X0018593Y0016189D01*
X0018506Y0016308D01*
X0018422Y0016430D01*
X0018341Y0016554D01*
X0018264Y0016680D01*
X0018190Y0016808D01*
X0018119Y0016938D01*
X0018052Y0017070D01*
X0017989Y0017204D01*
X0017929Y0017339D01*
X0017873Y0017476D01*
X0017820Y0017615D01*
X0017772Y0017755D01*
X0017727Y0017896D01*
X0017686Y0018038D01*
X0017648Y0018181D01*
X0017615Y0018325D01*
X0017585Y0018470D01*
X0017559Y0018616D01*
X0017538Y0018762D01*
X0017520Y0018909D01*
X0017506Y0019056D01*
X0017496Y0019204D01*
X0017490Y0019352D01*
X0017488Y0019500D01*
X0017488Y0304500D02*
X0017490Y0304648D01*
X0017496Y0304796D01*
X0017506Y0304944D01*
X0017520Y0305091D01*
X0017538Y0305238D01*
X0017559Y0305384D01*
X0017585Y0305530D01*
X0017615Y0305675D01*
X0017648Y0305819D01*
X0017686Y0305962D01*
X0017727Y0306104D01*
X0017772Y0306245D01*
X0017820Y0306385D01*
X0017873Y0306524D01*
X0017929Y0306661D01*
X0017989Y0306796D01*
X0018052Y0306930D01*
X0018119Y0307062D01*
X0018190Y0307192D01*
X0018264Y0307320D01*
X0018341Y0307446D01*
X0018422Y0307570D01*
X0018506Y0307692D01*
X0018593Y0307811D01*
X0018684Y0307928D01*
X0018778Y0308043D01*
X0018874Y0308155D01*
X0018974Y0308265D01*
X0019076Y0308371D01*
X0019182Y0308475D01*
X0019290Y0308576D01*
X0019401Y0308674D01*
X0019514Y0308770D01*
X0019630Y0308862D01*
X0019748Y0308951D01*
X0019869Y0309036D01*
X0019992Y0309119D01*
X0020117Y0309198D01*
X0020244Y0309274D01*
X0020373Y0309346D01*
X0020504Y0309415D01*
X0020637Y0309480D01*
X0020772Y0309541D01*
X0020908Y0309599D01*
X0021045Y0309654D01*
X0021184Y0309704D01*
X0021325Y0309751D01*
X0021466Y0309794D01*
X0021609Y0309834D01*
X0021753Y0309869D01*
X0021897Y0309901D01*
X0022043Y0309928D01*
X0022189Y0309952D01*
X0022336Y0309972D01*
X0022483Y0309988D01*
X0022630Y0310000D01*
X0022778Y0310008D01*
X0022926Y0310012D01*
X0023074Y0310012D01*
X0023222Y0310008D01*
X0023370Y0310000D01*
X0023517Y0309988D01*
X0023664Y0309972D01*
X0023811Y0309952D01*
X0023957Y0309928D01*
X0024103Y0309901D01*
X0024247Y0309869D01*
X0024391Y0309834D01*
X0024534Y0309794D01*
X0024675Y0309751D01*
X0024816Y0309704D01*
X0024955Y0309654D01*
X0025092Y0309599D01*
X0025228Y0309541D01*
X0025363Y0309480D01*
X0025496Y0309415D01*
X0025627Y0309346D01*
X0025756Y0309274D01*
X0025883Y0309198D01*
X0026008Y0309119D01*
X0026131Y0309036D01*
X0026252Y0308951D01*
X0026370Y0308862D01*
X0026486Y0308770D01*
X0026599Y0308674D01*
X0026710Y0308576D01*
X0026818Y0308475D01*
X0026924Y0308371D01*
X0027026Y0308265D01*
X0027126Y0308155D01*
X0027222Y0308043D01*
X0027316Y0307928D01*
X0027407Y0307811D01*
X0027494Y0307692D01*
X0027578Y0307570D01*
X0027659Y0307446D01*
X0027736Y0307320D01*
X0027810Y0307192D01*
X0027881Y0307062D01*
X0027948Y0306930D01*
X0028011Y0306796D01*
X0028071Y0306661D01*
X0028127Y0306524D01*
X0028180Y0306385D01*
X0028228Y0306245D01*
X0028273Y0306104D01*
X0028314Y0305962D01*
X0028352Y0305819D01*
X0028385Y0305675D01*
X0028415Y0305530D01*
X0028441Y0305384D01*
X0028462Y0305238D01*
X0028480Y0305091D01*
X0028494Y0304944D01*
X0028504Y0304796D01*
X0028510Y0304648D01*
X0028512Y0304500D01*
X0028510Y0304352D01*
X0028504Y0304204D01*
X0028494Y0304056D01*
X0028480Y0303909D01*
X0028462Y0303762D01*
X0028441Y0303616D01*
X0028415Y0303470D01*
X0028385Y0303325D01*
X0028352Y0303181D01*
X0028314Y0303038D01*
X0028273Y0302896D01*
X0028228Y0302755D01*
X0028180Y0302615D01*
X0028127Y0302476D01*
X0028071Y0302339D01*
X0028011Y0302204D01*
X0027948Y0302070D01*
X0027881Y0301938D01*
X0027810Y0301808D01*
X0027736Y0301680D01*
X0027659Y0301554D01*
X0027578Y0301430D01*
X0027494Y0301308D01*
X0027407Y0301189D01*
X0027316Y0301072D01*
X0027222Y0300957D01*
X0027126Y0300845D01*
X0027026Y0300735D01*
X0026924Y0300629D01*
X0026818Y0300525D01*
X0026710Y0300424D01*
X0026599Y0300326D01*
X0026486Y0300230D01*
X0026370Y0300138D01*
X0026252Y0300049D01*
X0026131Y0299964D01*
X0026008Y0299881D01*
X0025883Y0299802D01*
X0025756Y0299726D01*
X0025627Y0299654D01*
X0025496Y0299585D01*
X0025363Y0299520D01*
X0025228Y0299459D01*
X0025092Y0299401D01*
X0024955Y0299346D01*
X0024816Y0299296D01*
X0024675Y0299249D01*
X0024534Y0299206D01*
X0024391Y0299166D01*
X0024247Y0299131D01*
X0024103Y0299099D01*
X0023957Y0299072D01*
X0023811Y0299048D01*
X0023664Y0299028D01*
X0023517Y0299012D01*
X0023370Y0299000D01*
X0023222Y0298992D01*
X0023074Y0298988D01*
X0022926Y0298988D01*
X0022778Y0298992D01*
X0022630Y0299000D01*
X0022483Y0299012D01*
X0022336Y0299028D01*
X0022189Y0299048D01*
X0022043Y0299072D01*
X0021897Y0299099D01*
X0021753Y0299131D01*
X0021609Y0299166D01*
X0021466Y0299206D01*
X0021325Y0299249D01*
X0021184Y0299296D01*
X0021045Y0299346D01*
X0020908Y0299401D01*
X0020772Y0299459D01*
X0020637Y0299520D01*
X0020504Y0299585D01*
X0020373Y0299654D01*
X0020244Y0299726D01*
X0020117Y0299802D01*
X0019992Y0299881D01*
X0019869Y0299964D01*
X0019748Y0300049D01*
X0019630Y0300138D01*
X0019514Y0300230D01*
X0019401Y0300326D01*
X0019290Y0300424D01*
X0019182Y0300525D01*
X0019076Y0300629D01*
X0018974Y0300735D01*
X0018874Y0300845D01*
X0018778Y0300957D01*
X0018684Y0301072D01*
X0018593Y0301189D01*
X0018506Y0301308D01*
X0018422Y0301430D01*
X0018341Y0301554D01*
X0018264Y0301680D01*
X0018190Y0301808D01*
X0018119Y0301938D01*
X0018052Y0302070D01*
X0017989Y0302204D01*
X0017929Y0302339D01*
X0017873Y0302476D01*
X0017820Y0302615D01*
X0017772Y0302755D01*
X0017727Y0302896D01*
X0017686Y0303038D01*
X0017648Y0303181D01*
X0017615Y0303325D01*
X0017585Y0303470D01*
X0017559Y0303616D01*
X0017538Y0303762D01*
X0017520Y0303909D01*
X0017506Y0304056D01*
X0017496Y0304204D01*
X0017490Y0304352D01*
X0017488Y0304500D01*
X0367488Y0304500D02*
X0367490Y0304648D01*
X0367496Y0304796D01*
X0367506Y0304944D01*
X0367520Y0305091D01*
X0367538Y0305238D01*
X0367559Y0305384D01*
X0367585Y0305530D01*
X0367615Y0305675D01*
X0367648Y0305819D01*
X0367686Y0305962D01*
X0367727Y0306104D01*
X0367772Y0306245D01*
X0367820Y0306385D01*
X0367873Y0306524D01*
X0367929Y0306661D01*
X0367989Y0306796D01*
X0368052Y0306930D01*
X0368119Y0307062D01*
X0368190Y0307192D01*
X0368264Y0307320D01*
X0368341Y0307446D01*
X0368422Y0307570D01*
X0368506Y0307692D01*
X0368593Y0307811D01*
X0368684Y0307928D01*
X0368778Y0308043D01*
X0368874Y0308155D01*
X0368974Y0308265D01*
X0369076Y0308371D01*
X0369182Y0308475D01*
X0369290Y0308576D01*
X0369401Y0308674D01*
X0369514Y0308770D01*
X0369630Y0308862D01*
X0369748Y0308951D01*
X0369869Y0309036D01*
X0369992Y0309119D01*
X0370117Y0309198D01*
X0370244Y0309274D01*
X0370373Y0309346D01*
X0370504Y0309415D01*
X0370637Y0309480D01*
X0370772Y0309541D01*
X0370908Y0309599D01*
X0371045Y0309654D01*
X0371184Y0309704D01*
X0371325Y0309751D01*
X0371466Y0309794D01*
X0371609Y0309834D01*
X0371753Y0309869D01*
X0371897Y0309901D01*
X0372043Y0309928D01*
X0372189Y0309952D01*
X0372336Y0309972D01*
X0372483Y0309988D01*
X0372630Y0310000D01*
X0372778Y0310008D01*
X0372926Y0310012D01*
X0373074Y0310012D01*
X0373222Y0310008D01*
X0373370Y0310000D01*
X0373517Y0309988D01*
X0373664Y0309972D01*
X0373811Y0309952D01*
X0373957Y0309928D01*
X0374103Y0309901D01*
X0374247Y0309869D01*
X0374391Y0309834D01*
X0374534Y0309794D01*
X0374675Y0309751D01*
X0374816Y0309704D01*
X0374955Y0309654D01*
X0375092Y0309599D01*
X0375228Y0309541D01*
X0375363Y0309480D01*
X0375496Y0309415D01*
X0375627Y0309346D01*
X0375756Y0309274D01*
X0375883Y0309198D01*
X0376008Y0309119D01*
X0376131Y0309036D01*
X0376252Y0308951D01*
X0376370Y0308862D01*
X0376486Y0308770D01*
X0376599Y0308674D01*
X0376710Y0308576D01*
X0376818Y0308475D01*
X0376924Y0308371D01*
X0377026Y0308265D01*
X0377126Y0308155D01*
X0377222Y0308043D01*
X0377316Y0307928D01*
X0377407Y0307811D01*
X0377494Y0307692D01*
X0377578Y0307570D01*
X0377659Y0307446D01*
X0377736Y0307320D01*
X0377810Y0307192D01*
X0377881Y0307062D01*
X0377948Y0306930D01*
X0378011Y0306796D01*
X0378071Y0306661D01*
X0378127Y0306524D01*
X0378180Y0306385D01*
X0378228Y0306245D01*
X0378273Y0306104D01*
X0378314Y0305962D01*
X0378352Y0305819D01*
X0378385Y0305675D01*
X0378415Y0305530D01*
X0378441Y0305384D01*
X0378462Y0305238D01*
X0378480Y0305091D01*
X0378494Y0304944D01*
X0378504Y0304796D01*
X0378510Y0304648D01*
X0378512Y0304500D01*
X0378510Y0304352D01*
X0378504Y0304204D01*
X0378494Y0304056D01*
X0378480Y0303909D01*
X0378462Y0303762D01*
X0378441Y0303616D01*
X0378415Y0303470D01*
X0378385Y0303325D01*
X0378352Y0303181D01*
X0378314Y0303038D01*
X0378273Y0302896D01*
X0378228Y0302755D01*
X0378180Y0302615D01*
X0378127Y0302476D01*
X0378071Y0302339D01*
X0378011Y0302204D01*
X0377948Y0302070D01*
X0377881Y0301938D01*
X0377810Y0301808D01*
X0377736Y0301680D01*
X0377659Y0301554D01*
X0377578Y0301430D01*
X0377494Y0301308D01*
X0377407Y0301189D01*
X0377316Y0301072D01*
X0377222Y0300957D01*
X0377126Y0300845D01*
X0377026Y0300735D01*
X0376924Y0300629D01*
X0376818Y0300525D01*
X0376710Y0300424D01*
X0376599Y0300326D01*
X0376486Y0300230D01*
X0376370Y0300138D01*
X0376252Y0300049D01*
X0376131Y0299964D01*
X0376008Y0299881D01*
X0375883Y0299802D01*
X0375756Y0299726D01*
X0375627Y0299654D01*
X0375496Y0299585D01*
X0375363Y0299520D01*
X0375228Y0299459D01*
X0375092Y0299401D01*
X0374955Y0299346D01*
X0374816Y0299296D01*
X0374675Y0299249D01*
X0374534Y0299206D01*
X0374391Y0299166D01*
X0374247Y0299131D01*
X0374103Y0299099D01*
X0373957Y0299072D01*
X0373811Y0299048D01*
X0373664Y0299028D01*
X0373517Y0299012D01*
X0373370Y0299000D01*
X0373222Y0298992D01*
X0373074Y0298988D01*
X0372926Y0298988D01*
X0372778Y0298992D01*
X0372630Y0299000D01*
X0372483Y0299012D01*
X0372336Y0299028D01*
X0372189Y0299048D01*
X0372043Y0299072D01*
X0371897Y0299099D01*
X0371753Y0299131D01*
X0371609Y0299166D01*
X0371466Y0299206D01*
X0371325Y0299249D01*
X0371184Y0299296D01*
X0371045Y0299346D01*
X0370908Y0299401D01*
X0370772Y0299459D01*
X0370637Y0299520D01*
X0370504Y0299585D01*
X0370373Y0299654D01*
X0370244Y0299726D01*
X0370117Y0299802D01*
X0369992Y0299881D01*
X0369869Y0299964D01*
X0369748Y0300049D01*
X0369630Y0300138D01*
X0369514Y0300230D01*
X0369401Y0300326D01*
X0369290Y0300424D01*
X0369182Y0300525D01*
X0369076Y0300629D01*
X0368974Y0300735D01*
X0368874Y0300845D01*
X0368778Y0300957D01*
X0368684Y0301072D01*
X0368593Y0301189D01*
X0368506Y0301308D01*
X0368422Y0301430D01*
X0368341Y0301554D01*
X0368264Y0301680D01*
X0368190Y0301808D01*
X0368119Y0301938D01*
X0368052Y0302070D01*
X0367989Y0302204D01*
X0367929Y0302339D01*
X0367873Y0302476D01*
X0367820Y0302615D01*
X0367772Y0302755D01*
X0367727Y0302896D01*
X0367686Y0303038D01*
X0367648Y0303181D01*
X0367615Y0303325D01*
X0367585Y0303470D01*
X0367559Y0303616D01*
X0367538Y0303762D01*
X0367520Y0303909D01*
X0367506Y0304056D01*
X0367496Y0304204D01*
X0367490Y0304352D01*
X0367488Y0304500D01*
X0367488Y0019500D02*
X0367490Y0019648D01*
X0367496Y0019796D01*
X0367506Y0019944D01*
X0367520Y0020091D01*
X0367538Y0020238D01*
X0367559Y0020384D01*
X0367585Y0020530D01*
X0367615Y0020675D01*
X0367648Y0020819D01*
X0367686Y0020962D01*
X0367727Y0021104D01*
X0367772Y0021245D01*
X0367820Y0021385D01*
X0367873Y0021524D01*
X0367929Y0021661D01*
X0367989Y0021796D01*
X0368052Y0021930D01*
X0368119Y0022062D01*
X0368190Y0022192D01*
X0368264Y0022320D01*
X0368341Y0022446D01*
X0368422Y0022570D01*
X0368506Y0022692D01*
X0368593Y0022811D01*
X0368684Y0022928D01*
X0368778Y0023043D01*
X0368874Y0023155D01*
X0368974Y0023265D01*
X0369076Y0023371D01*
X0369182Y0023475D01*
X0369290Y0023576D01*
X0369401Y0023674D01*
X0369514Y0023770D01*
X0369630Y0023862D01*
X0369748Y0023951D01*
X0369869Y0024036D01*
X0369992Y0024119D01*
X0370117Y0024198D01*
X0370244Y0024274D01*
X0370373Y0024346D01*
X0370504Y0024415D01*
X0370637Y0024480D01*
X0370772Y0024541D01*
X0370908Y0024599D01*
X0371045Y0024654D01*
X0371184Y0024704D01*
X0371325Y0024751D01*
X0371466Y0024794D01*
X0371609Y0024834D01*
X0371753Y0024869D01*
X0371897Y0024901D01*
X0372043Y0024928D01*
X0372189Y0024952D01*
X0372336Y0024972D01*
X0372483Y0024988D01*
X0372630Y0025000D01*
X0372778Y0025008D01*
X0372926Y0025012D01*
X0373074Y0025012D01*
X0373222Y0025008D01*
X0373370Y0025000D01*
X0373517Y0024988D01*
X0373664Y0024972D01*
X0373811Y0024952D01*
X0373957Y0024928D01*
X0374103Y0024901D01*
X0374247Y0024869D01*
X0374391Y0024834D01*
X0374534Y0024794D01*
X0374675Y0024751D01*
X0374816Y0024704D01*
X0374955Y0024654D01*
X0375092Y0024599D01*
X0375228Y0024541D01*
X0375363Y0024480D01*
X0375496Y0024415D01*
X0375627Y0024346D01*
X0375756Y0024274D01*
X0375883Y0024198D01*
X0376008Y0024119D01*
X0376131Y0024036D01*
X0376252Y0023951D01*
X0376370Y0023862D01*
X0376486Y0023770D01*
X0376599Y0023674D01*
X0376710Y0023576D01*
X0376818Y0023475D01*
X0376924Y0023371D01*
X0377026Y0023265D01*
X0377126Y0023155D01*
X0377222Y0023043D01*
X0377316Y0022928D01*
X0377407Y0022811D01*
X0377494Y0022692D01*
X0377578Y0022570D01*
X0377659Y0022446D01*
X0377736Y0022320D01*
X0377810Y0022192D01*
X0377881Y0022062D01*
X0377948Y0021930D01*
X0378011Y0021796D01*
X0378071Y0021661D01*
X0378127Y0021524D01*
X0378180Y0021385D01*
X0378228Y0021245D01*
X0378273Y0021104D01*
X0378314Y0020962D01*
X0378352Y0020819D01*
X0378385Y0020675D01*
X0378415Y0020530D01*
X0378441Y0020384D01*
X0378462Y0020238D01*
X0378480Y0020091D01*
X0378494Y0019944D01*
X0378504Y0019796D01*
X0378510Y0019648D01*
X0378512Y0019500D01*
X0378510Y0019352D01*
X0378504Y0019204D01*
X0378494Y0019056D01*
X0378480Y0018909D01*
X0378462Y0018762D01*
X0378441Y0018616D01*
X0378415Y0018470D01*
X0378385Y0018325D01*
X0378352Y0018181D01*
X0378314Y0018038D01*
X0378273Y0017896D01*
X0378228Y0017755D01*
X0378180Y0017615D01*
X0378127Y0017476D01*
X0378071Y0017339D01*
X0378011Y0017204D01*
X0377948Y0017070D01*
X0377881Y0016938D01*
X0377810Y0016808D01*
X0377736Y0016680D01*
X0377659Y0016554D01*
X0377578Y0016430D01*
X0377494Y0016308D01*
X0377407Y0016189D01*
X0377316Y0016072D01*
X0377222Y0015957D01*
X0377126Y0015845D01*
X0377026Y0015735D01*
X0376924Y0015629D01*
X0376818Y0015525D01*
X0376710Y0015424D01*
X0376599Y0015326D01*
X0376486Y0015230D01*
X0376370Y0015138D01*
X0376252Y0015049D01*
X0376131Y0014964D01*
X0376008Y0014881D01*
X0375883Y0014802D01*
X0375756Y0014726D01*
X0375627Y0014654D01*
X0375496Y0014585D01*
X0375363Y0014520D01*
X0375228Y0014459D01*
X0375092Y0014401D01*
X0374955Y0014346D01*
X0374816Y0014296D01*
X0374675Y0014249D01*
X0374534Y0014206D01*
X0374391Y0014166D01*
X0374247Y0014131D01*
X0374103Y0014099D01*
X0373957Y0014072D01*
X0373811Y0014048D01*
X0373664Y0014028D01*
X0373517Y0014012D01*
X0373370Y0014000D01*
X0373222Y0013992D01*
X0373074Y0013988D01*
X0372926Y0013988D01*
X0372778Y0013992D01*
X0372630Y0014000D01*
X0372483Y0014012D01*
X0372336Y0014028D01*
X0372189Y0014048D01*
X0372043Y0014072D01*
X0371897Y0014099D01*
X0371753Y0014131D01*
X0371609Y0014166D01*
X0371466Y0014206D01*
X0371325Y0014249D01*
X0371184Y0014296D01*
X0371045Y0014346D01*
X0370908Y0014401D01*
X0370772Y0014459D01*
X0370637Y0014520D01*
X0370504Y0014585D01*
X0370373Y0014654D01*
X0370244Y0014726D01*
X0370117Y0014802D01*
X0369992Y0014881D01*
X0369869Y0014964D01*
X0369748Y0015049D01*
X0369630Y0015138D01*
X0369514Y0015230D01*
X0369401Y0015326D01*
X0369290Y0015424D01*
X0369182Y0015525D01*
X0369076Y0015629D01*
X0368974Y0015735D01*
X0368874Y0015845D01*
X0368778Y0015957D01*
X0368684Y0016072D01*
X0368593Y0016189D01*
X0368506Y0016308D01*
X0368422Y0016430D01*
X0368341Y0016554D01*
X0368264Y0016680D01*
X0368190Y0016808D01*
X0368119Y0016938D01*
X0368052Y0017070D01*
X0367989Y0017204D01*
X0367929Y0017339D01*
X0367873Y0017476D01*
X0367820Y0017615D01*
X0367772Y0017755D01*
X0367727Y0017896D01*
X0367686Y0018038D01*
X0367648Y0018181D01*
X0367615Y0018325D01*
X0367585Y0018470D01*
X0367559Y0018616D01*
X0367538Y0018762D01*
X0367520Y0018909D01*
X0367506Y0019056D01*
X0367496Y0019204D01*
X0367490Y0019352D01*
X0367488Y0019500D01*
M02*
