G75*
%MOIN*%
%OFA0B0*%
%FSLAX25Y25*%
%IPPOS*%
%LPD*%
%AMOC8*
5,1,8,0,0,1.08239X$1,22.5*
%
%ADD10C,0.00000*%
%ADD11C,0.00700*%
%ADD12C,0.00800*%
%ADD13C,0.05600*%
%ADD14C,0.06000*%
%ADD15C,0.05200*%
%ADD16R,0.04331X0.03937*%
%ADD17C,0.04400*%
%ADD18C,0.05937*%
%ADD19R,0.03937X0.04331*%
%ADD20C,0.05200*%
%ADD21R,0.01100X0.05800*%
%ADD22R,0.05800X0.01100*%
%ADD23R,0.03150X0.03150*%
%ADD24R,0.05000X0.02100*%
%ADD25C,0.08000*%
%ADD26R,0.03000X0.02800*%
%ADD27C,0.01000*%
%ADD28C,0.01200*%
%ADD29R,0.03562X0.03562*%
%ADD30C,0.01600*%
%ADD31C,0.02400*%
D10*
X0008551Y0007554D02*
X0008551Y0322514D01*
X0402252Y0322514D01*
X0402252Y0007554D01*
X0008551Y0007554D01*
X0040047Y0046924D02*
X0040049Y0047077D01*
X0040055Y0047231D01*
X0040065Y0047384D01*
X0040079Y0047536D01*
X0040097Y0047689D01*
X0040119Y0047840D01*
X0040144Y0047991D01*
X0040174Y0048142D01*
X0040208Y0048292D01*
X0040245Y0048440D01*
X0040286Y0048588D01*
X0040331Y0048734D01*
X0040380Y0048880D01*
X0040433Y0049024D01*
X0040489Y0049166D01*
X0040549Y0049307D01*
X0040613Y0049447D01*
X0040680Y0049585D01*
X0040751Y0049721D01*
X0040826Y0049855D01*
X0040903Y0049987D01*
X0040985Y0050117D01*
X0041069Y0050245D01*
X0041157Y0050371D01*
X0041248Y0050494D01*
X0041342Y0050615D01*
X0041440Y0050733D01*
X0041540Y0050849D01*
X0041644Y0050962D01*
X0041750Y0051073D01*
X0041859Y0051181D01*
X0041971Y0051286D01*
X0042085Y0051387D01*
X0042203Y0051486D01*
X0042322Y0051582D01*
X0042444Y0051675D01*
X0042569Y0051764D01*
X0042696Y0051851D01*
X0042825Y0051933D01*
X0042956Y0052013D01*
X0043089Y0052089D01*
X0043224Y0052162D01*
X0043361Y0052231D01*
X0043500Y0052296D01*
X0043640Y0052358D01*
X0043782Y0052416D01*
X0043925Y0052471D01*
X0044070Y0052522D01*
X0044216Y0052569D01*
X0044363Y0052612D01*
X0044511Y0052651D01*
X0044660Y0052687D01*
X0044810Y0052718D01*
X0044961Y0052746D01*
X0045112Y0052770D01*
X0045265Y0052790D01*
X0045417Y0052806D01*
X0045570Y0052818D01*
X0045723Y0052826D01*
X0045876Y0052830D01*
X0046030Y0052830D01*
X0046183Y0052826D01*
X0046336Y0052818D01*
X0046489Y0052806D01*
X0046641Y0052790D01*
X0046794Y0052770D01*
X0046945Y0052746D01*
X0047096Y0052718D01*
X0047246Y0052687D01*
X0047395Y0052651D01*
X0047543Y0052612D01*
X0047690Y0052569D01*
X0047836Y0052522D01*
X0047981Y0052471D01*
X0048124Y0052416D01*
X0048266Y0052358D01*
X0048406Y0052296D01*
X0048545Y0052231D01*
X0048682Y0052162D01*
X0048817Y0052089D01*
X0048950Y0052013D01*
X0049081Y0051933D01*
X0049210Y0051851D01*
X0049337Y0051764D01*
X0049462Y0051675D01*
X0049584Y0051582D01*
X0049703Y0051486D01*
X0049821Y0051387D01*
X0049935Y0051286D01*
X0050047Y0051181D01*
X0050156Y0051073D01*
X0050262Y0050962D01*
X0050366Y0050849D01*
X0050466Y0050733D01*
X0050564Y0050615D01*
X0050658Y0050494D01*
X0050749Y0050371D01*
X0050837Y0050245D01*
X0050921Y0050117D01*
X0051003Y0049987D01*
X0051080Y0049855D01*
X0051155Y0049721D01*
X0051226Y0049585D01*
X0051293Y0049447D01*
X0051357Y0049307D01*
X0051417Y0049166D01*
X0051473Y0049024D01*
X0051526Y0048880D01*
X0051575Y0048734D01*
X0051620Y0048588D01*
X0051661Y0048440D01*
X0051698Y0048292D01*
X0051732Y0048142D01*
X0051762Y0047991D01*
X0051787Y0047840D01*
X0051809Y0047689D01*
X0051827Y0047536D01*
X0051841Y0047384D01*
X0051851Y0047231D01*
X0051857Y0047077D01*
X0051859Y0046924D01*
X0051857Y0046771D01*
X0051851Y0046617D01*
X0051841Y0046464D01*
X0051827Y0046312D01*
X0051809Y0046159D01*
X0051787Y0046008D01*
X0051762Y0045857D01*
X0051732Y0045706D01*
X0051698Y0045556D01*
X0051661Y0045408D01*
X0051620Y0045260D01*
X0051575Y0045114D01*
X0051526Y0044968D01*
X0051473Y0044824D01*
X0051417Y0044682D01*
X0051357Y0044541D01*
X0051293Y0044401D01*
X0051226Y0044263D01*
X0051155Y0044127D01*
X0051080Y0043993D01*
X0051003Y0043861D01*
X0050921Y0043731D01*
X0050837Y0043603D01*
X0050749Y0043477D01*
X0050658Y0043354D01*
X0050564Y0043233D01*
X0050466Y0043115D01*
X0050366Y0042999D01*
X0050262Y0042886D01*
X0050156Y0042775D01*
X0050047Y0042667D01*
X0049935Y0042562D01*
X0049821Y0042461D01*
X0049703Y0042362D01*
X0049584Y0042266D01*
X0049462Y0042173D01*
X0049337Y0042084D01*
X0049210Y0041997D01*
X0049081Y0041915D01*
X0048950Y0041835D01*
X0048817Y0041759D01*
X0048682Y0041686D01*
X0048545Y0041617D01*
X0048406Y0041552D01*
X0048266Y0041490D01*
X0048124Y0041432D01*
X0047981Y0041377D01*
X0047836Y0041326D01*
X0047690Y0041279D01*
X0047543Y0041236D01*
X0047395Y0041197D01*
X0047246Y0041161D01*
X0047096Y0041130D01*
X0046945Y0041102D01*
X0046794Y0041078D01*
X0046641Y0041058D01*
X0046489Y0041042D01*
X0046336Y0041030D01*
X0046183Y0041022D01*
X0046030Y0041018D01*
X0045876Y0041018D01*
X0045723Y0041022D01*
X0045570Y0041030D01*
X0045417Y0041042D01*
X0045265Y0041058D01*
X0045112Y0041078D01*
X0044961Y0041102D01*
X0044810Y0041130D01*
X0044660Y0041161D01*
X0044511Y0041197D01*
X0044363Y0041236D01*
X0044216Y0041279D01*
X0044070Y0041326D01*
X0043925Y0041377D01*
X0043782Y0041432D01*
X0043640Y0041490D01*
X0043500Y0041552D01*
X0043361Y0041617D01*
X0043224Y0041686D01*
X0043089Y0041759D01*
X0042956Y0041835D01*
X0042825Y0041915D01*
X0042696Y0041997D01*
X0042569Y0042084D01*
X0042444Y0042173D01*
X0042322Y0042266D01*
X0042203Y0042362D01*
X0042085Y0042461D01*
X0041971Y0042562D01*
X0041859Y0042667D01*
X0041750Y0042775D01*
X0041644Y0042886D01*
X0041540Y0042999D01*
X0041440Y0043115D01*
X0041342Y0043233D01*
X0041248Y0043354D01*
X0041157Y0043477D01*
X0041069Y0043603D01*
X0040985Y0043731D01*
X0040903Y0043861D01*
X0040826Y0043993D01*
X0040751Y0044127D01*
X0040680Y0044263D01*
X0040613Y0044401D01*
X0040549Y0044541D01*
X0040489Y0044682D01*
X0040433Y0044824D01*
X0040380Y0044968D01*
X0040331Y0045114D01*
X0040286Y0045260D01*
X0040245Y0045408D01*
X0040208Y0045556D01*
X0040174Y0045706D01*
X0040144Y0045857D01*
X0040119Y0046008D01*
X0040097Y0046159D01*
X0040079Y0046312D01*
X0040065Y0046464D01*
X0040055Y0046617D01*
X0040049Y0046771D01*
X0040047Y0046924D01*
X0040047Y0302829D02*
X0040049Y0302982D01*
X0040055Y0303136D01*
X0040065Y0303289D01*
X0040079Y0303441D01*
X0040097Y0303594D01*
X0040119Y0303745D01*
X0040144Y0303896D01*
X0040174Y0304047D01*
X0040208Y0304197D01*
X0040245Y0304345D01*
X0040286Y0304493D01*
X0040331Y0304639D01*
X0040380Y0304785D01*
X0040433Y0304929D01*
X0040489Y0305071D01*
X0040549Y0305212D01*
X0040613Y0305352D01*
X0040680Y0305490D01*
X0040751Y0305626D01*
X0040826Y0305760D01*
X0040903Y0305892D01*
X0040985Y0306022D01*
X0041069Y0306150D01*
X0041157Y0306276D01*
X0041248Y0306399D01*
X0041342Y0306520D01*
X0041440Y0306638D01*
X0041540Y0306754D01*
X0041644Y0306867D01*
X0041750Y0306978D01*
X0041859Y0307086D01*
X0041971Y0307191D01*
X0042085Y0307292D01*
X0042203Y0307391D01*
X0042322Y0307487D01*
X0042444Y0307580D01*
X0042569Y0307669D01*
X0042696Y0307756D01*
X0042825Y0307838D01*
X0042956Y0307918D01*
X0043089Y0307994D01*
X0043224Y0308067D01*
X0043361Y0308136D01*
X0043500Y0308201D01*
X0043640Y0308263D01*
X0043782Y0308321D01*
X0043925Y0308376D01*
X0044070Y0308427D01*
X0044216Y0308474D01*
X0044363Y0308517D01*
X0044511Y0308556D01*
X0044660Y0308592D01*
X0044810Y0308623D01*
X0044961Y0308651D01*
X0045112Y0308675D01*
X0045265Y0308695D01*
X0045417Y0308711D01*
X0045570Y0308723D01*
X0045723Y0308731D01*
X0045876Y0308735D01*
X0046030Y0308735D01*
X0046183Y0308731D01*
X0046336Y0308723D01*
X0046489Y0308711D01*
X0046641Y0308695D01*
X0046794Y0308675D01*
X0046945Y0308651D01*
X0047096Y0308623D01*
X0047246Y0308592D01*
X0047395Y0308556D01*
X0047543Y0308517D01*
X0047690Y0308474D01*
X0047836Y0308427D01*
X0047981Y0308376D01*
X0048124Y0308321D01*
X0048266Y0308263D01*
X0048406Y0308201D01*
X0048545Y0308136D01*
X0048682Y0308067D01*
X0048817Y0307994D01*
X0048950Y0307918D01*
X0049081Y0307838D01*
X0049210Y0307756D01*
X0049337Y0307669D01*
X0049462Y0307580D01*
X0049584Y0307487D01*
X0049703Y0307391D01*
X0049821Y0307292D01*
X0049935Y0307191D01*
X0050047Y0307086D01*
X0050156Y0306978D01*
X0050262Y0306867D01*
X0050366Y0306754D01*
X0050466Y0306638D01*
X0050564Y0306520D01*
X0050658Y0306399D01*
X0050749Y0306276D01*
X0050837Y0306150D01*
X0050921Y0306022D01*
X0051003Y0305892D01*
X0051080Y0305760D01*
X0051155Y0305626D01*
X0051226Y0305490D01*
X0051293Y0305352D01*
X0051357Y0305212D01*
X0051417Y0305071D01*
X0051473Y0304929D01*
X0051526Y0304785D01*
X0051575Y0304639D01*
X0051620Y0304493D01*
X0051661Y0304345D01*
X0051698Y0304197D01*
X0051732Y0304047D01*
X0051762Y0303896D01*
X0051787Y0303745D01*
X0051809Y0303594D01*
X0051827Y0303441D01*
X0051841Y0303289D01*
X0051851Y0303136D01*
X0051857Y0302982D01*
X0051859Y0302829D01*
X0051857Y0302676D01*
X0051851Y0302522D01*
X0051841Y0302369D01*
X0051827Y0302217D01*
X0051809Y0302064D01*
X0051787Y0301913D01*
X0051762Y0301762D01*
X0051732Y0301611D01*
X0051698Y0301461D01*
X0051661Y0301313D01*
X0051620Y0301165D01*
X0051575Y0301019D01*
X0051526Y0300873D01*
X0051473Y0300729D01*
X0051417Y0300587D01*
X0051357Y0300446D01*
X0051293Y0300306D01*
X0051226Y0300168D01*
X0051155Y0300032D01*
X0051080Y0299898D01*
X0051003Y0299766D01*
X0050921Y0299636D01*
X0050837Y0299508D01*
X0050749Y0299382D01*
X0050658Y0299259D01*
X0050564Y0299138D01*
X0050466Y0299020D01*
X0050366Y0298904D01*
X0050262Y0298791D01*
X0050156Y0298680D01*
X0050047Y0298572D01*
X0049935Y0298467D01*
X0049821Y0298366D01*
X0049703Y0298267D01*
X0049584Y0298171D01*
X0049462Y0298078D01*
X0049337Y0297989D01*
X0049210Y0297902D01*
X0049081Y0297820D01*
X0048950Y0297740D01*
X0048817Y0297664D01*
X0048682Y0297591D01*
X0048545Y0297522D01*
X0048406Y0297457D01*
X0048266Y0297395D01*
X0048124Y0297337D01*
X0047981Y0297282D01*
X0047836Y0297231D01*
X0047690Y0297184D01*
X0047543Y0297141D01*
X0047395Y0297102D01*
X0047246Y0297066D01*
X0047096Y0297035D01*
X0046945Y0297007D01*
X0046794Y0296983D01*
X0046641Y0296963D01*
X0046489Y0296947D01*
X0046336Y0296935D01*
X0046183Y0296927D01*
X0046030Y0296923D01*
X0045876Y0296923D01*
X0045723Y0296927D01*
X0045570Y0296935D01*
X0045417Y0296947D01*
X0045265Y0296963D01*
X0045112Y0296983D01*
X0044961Y0297007D01*
X0044810Y0297035D01*
X0044660Y0297066D01*
X0044511Y0297102D01*
X0044363Y0297141D01*
X0044216Y0297184D01*
X0044070Y0297231D01*
X0043925Y0297282D01*
X0043782Y0297337D01*
X0043640Y0297395D01*
X0043500Y0297457D01*
X0043361Y0297522D01*
X0043224Y0297591D01*
X0043089Y0297664D01*
X0042956Y0297740D01*
X0042825Y0297820D01*
X0042696Y0297902D01*
X0042569Y0297989D01*
X0042444Y0298078D01*
X0042322Y0298171D01*
X0042203Y0298267D01*
X0042085Y0298366D01*
X0041971Y0298467D01*
X0041859Y0298572D01*
X0041750Y0298680D01*
X0041644Y0298791D01*
X0041540Y0298904D01*
X0041440Y0299020D01*
X0041342Y0299138D01*
X0041248Y0299259D01*
X0041157Y0299382D01*
X0041069Y0299508D01*
X0040985Y0299636D01*
X0040903Y0299766D01*
X0040826Y0299898D01*
X0040751Y0300032D01*
X0040680Y0300168D01*
X0040613Y0300306D01*
X0040549Y0300446D01*
X0040489Y0300587D01*
X0040433Y0300729D01*
X0040380Y0300873D01*
X0040331Y0301019D01*
X0040286Y0301165D01*
X0040245Y0301313D01*
X0040208Y0301461D01*
X0040174Y0301611D01*
X0040144Y0301762D01*
X0040119Y0301913D01*
X0040097Y0302064D01*
X0040079Y0302217D01*
X0040065Y0302369D01*
X0040055Y0302522D01*
X0040049Y0302676D01*
X0040047Y0302829D01*
X0386503Y0302829D02*
X0386505Y0302982D01*
X0386511Y0303136D01*
X0386521Y0303289D01*
X0386535Y0303441D01*
X0386553Y0303594D01*
X0386575Y0303745D01*
X0386600Y0303896D01*
X0386630Y0304047D01*
X0386664Y0304197D01*
X0386701Y0304345D01*
X0386742Y0304493D01*
X0386787Y0304639D01*
X0386836Y0304785D01*
X0386889Y0304929D01*
X0386945Y0305071D01*
X0387005Y0305212D01*
X0387069Y0305352D01*
X0387136Y0305490D01*
X0387207Y0305626D01*
X0387282Y0305760D01*
X0387359Y0305892D01*
X0387441Y0306022D01*
X0387525Y0306150D01*
X0387613Y0306276D01*
X0387704Y0306399D01*
X0387798Y0306520D01*
X0387896Y0306638D01*
X0387996Y0306754D01*
X0388100Y0306867D01*
X0388206Y0306978D01*
X0388315Y0307086D01*
X0388427Y0307191D01*
X0388541Y0307292D01*
X0388659Y0307391D01*
X0388778Y0307487D01*
X0388900Y0307580D01*
X0389025Y0307669D01*
X0389152Y0307756D01*
X0389281Y0307838D01*
X0389412Y0307918D01*
X0389545Y0307994D01*
X0389680Y0308067D01*
X0389817Y0308136D01*
X0389956Y0308201D01*
X0390096Y0308263D01*
X0390238Y0308321D01*
X0390381Y0308376D01*
X0390526Y0308427D01*
X0390672Y0308474D01*
X0390819Y0308517D01*
X0390967Y0308556D01*
X0391116Y0308592D01*
X0391266Y0308623D01*
X0391417Y0308651D01*
X0391568Y0308675D01*
X0391721Y0308695D01*
X0391873Y0308711D01*
X0392026Y0308723D01*
X0392179Y0308731D01*
X0392332Y0308735D01*
X0392486Y0308735D01*
X0392639Y0308731D01*
X0392792Y0308723D01*
X0392945Y0308711D01*
X0393097Y0308695D01*
X0393250Y0308675D01*
X0393401Y0308651D01*
X0393552Y0308623D01*
X0393702Y0308592D01*
X0393851Y0308556D01*
X0393999Y0308517D01*
X0394146Y0308474D01*
X0394292Y0308427D01*
X0394437Y0308376D01*
X0394580Y0308321D01*
X0394722Y0308263D01*
X0394862Y0308201D01*
X0395001Y0308136D01*
X0395138Y0308067D01*
X0395273Y0307994D01*
X0395406Y0307918D01*
X0395537Y0307838D01*
X0395666Y0307756D01*
X0395793Y0307669D01*
X0395918Y0307580D01*
X0396040Y0307487D01*
X0396159Y0307391D01*
X0396277Y0307292D01*
X0396391Y0307191D01*
X0396503Y0307086D01*
X0396612Y0306978D01*
X0396718Y0306867D01*
X0396822Y0306754D01*
X0396922Y0306638D01*
X0397020Y0306520D01*
X0397114Y0306399D01*
X0397205Y0306276D01*
X0397293Y0306150D01*
X0397377Y0306022D01*
X0397459Y0305892D01*
X0397536Y0305760D01*
X0397611Y0305626D01*
X0397682Y0305490D01*
X0397749Y0305352D01*
X0397813Y0305212D01*
X0397873Y0305071D01*
X0397929Y0304929D01*
X0397982Y0304785D01*
X0398031Y0304639D01*
X0398076Y0304493D01*
X0398117Y0304345D01*
X0398154Y0304197D01*
X0398188Y0304047D01*
X0398218Y0303896D01*
X0398243Y0303745D01*
X0398265Y0303594D01*
X0398283Y0303441D01*
X0398297Y0303289D01*
X0398307Y0303136D01*
X0398313Y0302982D01*
X0398315Y0302829D01*
X0398313Y0302676D01*
X0398307Y0302522D01*
X0398297Y0302369D01*
X0398283Y0302217D01*
X0398265Y0302064D01*
X0398243Y0301913D01*
X0398218Y0301762D01*
X0398188Y0301611D01*
X0398154Y0301461D01*
X0398117Y0301313D01*
X0398076Y0301165D01*
X0398031Y0301019D01*
X0397982Y0300873D01*
X0397929Y0300729D01*
X0397873Y0300587D01*
X0397813Y0300446D01*
X0397749Y0300306D01*
X0397682Y0300168D01*
X0397611Y0300032D01*
X0397536Y0299898D01*
X0397459Y0299766D01*
X0397377Y0299636D01*
X0397293Y0299508D01*
X0397205Y0299382D01*
X0397114Y0299259D01*
X0397020Y0299138D01*
X0396922Y0299020D01*
X0396822Y0298904D01*
X0396718Y0298791D01*
X0396612Y0298680D01*
X0396503Y0298572D01*
X0396391Y0298467D01*
X0396277Y0298366D01*
X0396159Y0298267D01*
X0396040Y0298171D01*
X0395918Y0298078D01*
X0395793Y0297989D01*
X0395666Y0297902D01*
X0395537Y0297820D01*
X0395406Y0297740D01*
X0395273Y0297664D01*
X0395138Y0297591D01*
X0395001Y0297522D01*
X0394862Y0297457D01*
X0394722Y0297395D01*
X0394580Y0297337D01*
X0394437Y0297282D01*
X0394292Y0297231D01*
X0394146Y0297184D01*
X0393999Y0297141D01*
X0393851Y0297102D01*
X0393702Y0297066D01*
X0393552Y0297035D01*
X0393401Y0297007D01*
X0393250Y0296983D01*
X0393097Y0296963D01*
X0392945Y0296947D01*
X0392792Y0296935D01*
X0392639Y0296927D01*
X0392486Y0296923D01*
X0392332Y0296923D01*
X0392179Y0296927D01*
X0392026Y0296935D01*
X0391873Y0296947D01*
X0391721Y0296963D01*
X0391568Y0296983D01*
X0391417Y0297007D01*
X0391266Y0297035D01*
X0391116Y0297066D01*
X0390967Y0297102D01*
X0390819Y0297141D01*
X0390672Y0297184D01*
X0390526Y0297231D01*
X0390381Y0297282D01*
X0390238Y0297337D01*
X0390096Y0297395D01*
X0389956Y0297457D01*
X0389817Y0297522D01*
X0389680Y0297591D01*
X0389545Y0297664D01*
X0389412Y0297740D01*
X0389281Y0297820D01*
X0389152Y0297902D01*
X0389025Y0297989D01*
X0388900Y0298078D01*
X0388778Y0298171D01*
X0388659Y0298267D01*
X0388541Y0298366D01*
X0388427Y0298467D01*
X0388315Y0298572D01*
X0388206Y0298680D01*
X0388100Y0298791D01*
X0387996Y0298904D01*
X0387896Y0299020D01*
X0387798Y0299138D01*
X0387704Y0299259D01*
X0387613Y0299382D01*
X0387525Y0299508D01*
X0387441Y0299636D01*
X0387359Y0299766D01*
X0387282Y0299898D01*
X0387207Y0300032D01*
X0387136Y0300168D01*
X0387069Y0300306D01*
X0387005Y0300446D01*
X0386945Y0300587D01*
X0386889Y0300729D01*
X0386836Y0300873D01*
X0386787Y0301019D01*
X0386742Y0301165D01*
X0386701Y0301313D01*
X0386664Y0301461D01*
X0386630Y0301611D01*
X0386600Y0301762D01*
X0386575Y0301913D01*
X0386553Y0302064D01*
X0386535Y0302217D01*
X0386521Y0302369D01*
X0386511Y0302522D01*
X0386505Y0302676D01*
X0386503Y0302829D01*
X0386503Y0046924D02*
X0386505Y0047077D01*
X0386511Y0047231D01*
X0386521Y0047384D01*
X0386535Y0047536D01*
X0386553Y0047689D01*
X0386575Y0047840D01*
X0386600Y0047991D01*
X0386630Y0048142D01*
X0386664Y0048292D01*
X0386701Y0048440D01*
X0386742Y0048588D01*
X0386787Y0048734D01*
X0386836Y0048880D01*
X0386889Y0049024D01*
X0386945Y0049166D01*
X0387005Y0049307D01*
X0387069Y0049447D01*
X0387136Y0049585D01*
X0387207Y0049721D01*
X0387282Y0049855D01*
X0387359Y0049987D01*
X0387441Y0050117D01*
X0387525Y0050245D01*
X0387613Y0050371D01*
X0387704Y0050494D01*
X0387798Y0050615D01*
X0387896Y0050733D01*
X0387996Y0050849D01*
X0388100Y0050962D01*
X0388206Y0051073D01*
X0388315Y0051181D01*
X0388427Y0051286D01*
X0388541Y0051387D01*
X0388659Y0051486D01*
X0388778Y0051582D01*
X0388900Y0051675D01*
X0389025Y0051764D01*
X0389152Y0051851D01*
X0389281Y0051933D01*
X0389412Y0052013D01*
X0389545Y0052089D01*
X0389680Y0052162D01*
X0389817Y0052231D01*
X0389956Y0052296D01*
X0390096Y0052358D01*
X0390238Y0052416D01*
X0390381Y0052471D01*
X0390526Y0052522D01*
X0390672Y0052569D01*
X0390819Y0052612D01*
X0390967Y0052651D01*
X0391116Y0052687D01*
X0391266Y0052718D01*
X0391417Y0052746D01*
X0391568Y0052770D01*
X0391721Y0052790D01*
X0391873Y0052806D01*
X0392026Y0052818D01*
X0392179Y0052826D01*
X0392332Y0052830D01*
X0392486Y0052830D01*
X0392639Y0052826D01*
X0392792Y0052818D01*
X0392945Y0052806D01*
X0393097Y0052790D01*
X0393250Y0052770D01*
X0393401Y0052746D01*
X0393552Y0052718D01*
X0393702Y0052687D01*
X0393851Y0052651D01*
X0393999Y0052612D01*
X0394146Y0052569D01*
X0394292Y0052522D01*
X0394437Y0052471D01*
X0394580Y0052416D01*
X0394722Y0052358D01*
X0394862Y0052296D01*
X0395001Y0052231D01*
X0395138Y0052162D01*
X0395273Y0052089D01*
X0395406Y0052013D01*
X0395537Y0051933D01*
X0395666Y0051851D01*
X0395793Y0051764D01*
X0395918Y0051675D01*
X0396040Y0051582D01*
X0396159Y0051486D01*
X0396277Y0051387D01*
X0396391Y0051286D01*
X0396503Y0051181D01*
X0396612Y0051073D01*
X0396718Y0050962D01*
X0396822Y0050849D01*
X0396922Y0050733D01*
X0397020Y0050615D01*
X0397114Y0050494D01*
X0397205Y0050371D01*
X0397293Y0050245D01*
X0397377Y0050117D01*
X0397459Y0049987D01*
X0397536Y0049855D01*
X0397611Y0049721D01*
X0397682Y0049585D01*
X0397749Y0049447D01*
X0397813Y0049307D01*
X0397873Y0049166D01*
X0397929Y0049024D01*
X0397982Y0048880D01*
X0398031Y0048734D01*
X0398076Y0048588D01*
X0398117Y0048440D01*
X0398154Y0048292D01*
X0398188Y0048142D01*
X0398218Y0047991D01*
X0398243Y0047840D01*
X0398265Y0047689D01*
X0398283Y0047536D01*
X0398297Y0047384D01*
X0398307Y0047231D01*
X0398313Y0047077D01*
X0398315Y0046924D01*
X0398313Y0046771D01*
X0398307Y0046617D01*
X0398297Y0046464D01*
X0398283Y0046312D01*
X0398265Y0046159D01*
X0398243Y0046008D01*
X0398218Y0045857D01*
X0398188Y0045706D01*
X0398154Y0045556D01*
X0398117Y0045408D01*
X0398076Y0045260D01*
X0398031Y0045114D01*
X0397982Y0044968D01*
X0397929Y0044824D01*
X0397873Y0044682D01*
X0397813Y0044541D01*
X0397749Y0044401D01*
X0397682Y0044263D01*
X0397611Y0044127D01*
X0397536Y0043993D01*
X0397459Y0043861D01*
X0397377Y0043731D01*
X0397293Y0043603D01*
X0397205Y0043477D01*
X0397114Y0043354D01*
X0397020Y0043233D01*
X0396922Y0043115D01*
X0396822Y0042999D01*
X0396718Y0042886D01*
X0396612Y0042775D01*
X0396503Y0042667D01*
X0396391Y0042562D01*
X0396277Y0042461D01*
X0396159Y0042362D01*
X0396040Y0042266D01*
X0395918Y0042173D01*
X0395793Y0042084D01*
X0395666Y0041997D01*
X0395537Y0041915D01*
X0395406Y0041835D01*
X0395273Y0041759D01*
X0395138Y0041686D01*
X0395001Y0041617D01*
X0394862Y0041552D01*
X0394722Y0041490D01*
X0394580Y0041432D01*
X0394437Y0041377D01*
X0394292Y0041326D01*
X0394146Y0041279D01*
X0393999Y0041236D01*
X0393851Y0041197D01*
X0393702Y0041161D01*
X0393552Y0041130D01*
X0393401Y0041102D01*
X0393250Y0041078D01*
X0393097Y0041058D01*
X0392945Y0041042D01*
X0392792Y0041030D01*
X0392639Y0041022D01*
X0392486Y0041018D01*
X0392332Y0041018D01*
X0392179Y0041022D01*
X0392026Y0041030D01*
X0391873Y0041042D01*
X0391721Y0041058D01*
X0391568Y0041078D01*
X0391417Y0041102D01*
X0391266Y0041130D01*
X0391116Y0041161D01*
X0390967Y0041197D01*
X0390819Y0041236D01*
X0390672Y0041279D01*
X0390526Y0041326D01*
X0390381Y0041377D01*
X0390238Y0041432D01*
X0390096Y0041490D01*
X0389956Y0041552D01*
X0389817Y0041617D01*
X0389680Y0041686D01*
X0389545Y0041759D01*
X0389412Y0041835D01*
X0389281Y0041915D01*
X0389152Y0041997D01*
X0389025Y0042084D01*
X0388900Y0042173D01*
X0388778Y0042266D01*
X0388659Y0042362D01*
X0388541Y0042461D01*
X0388427Y0042562D01*
X0388315Y0042667D01*
X0388206Y0042775D01*
X0388100Y0042886D01*
X0387996Y0042999D01*
X0387896Y0043115D01*
X0387798Y0043233D01*
X0387704Y0043354D01*
X0387613Y0043477D01*
X0387525Y0043603D01*
X0387441Y0043731D01*
X0387359Y0043861D01*
X0387282Y0043993D01*
X0387207Y0044127D01*
X0387136Y0044263D01*
X0387069Y0044401D01*
X0387005Y0044541D01*
X0386945Y0044682D01*
X0386889Y0044824D01*
X0386836Y0044968D01*
X0386787Y0045114D01*
X0386742Y0045260D01*
X0386701Y0045408D01*
X0386664Y0045556D01*
X0386630Y0045706D01*
X0386600Y0045857D01*
X0386575Y0046008D01*
X0386553Y0046159D01*
X0386535Y0046312D01*
X0386521Y0046464D01*
X0386511Y0046617D01*
X0386505Y0046771D01*
X0386503Y0046924D01*
D11*
X0129831Y0136502D02*
X0129014Y0136502D01*
X0127379Y0134868D01*
X0127379Y0136502D02*
X0127379Y0133233D01*
X0125492Y0134868D02*
X0125492Y0135685D01*
X0124675Y0136502D01*
X0123040Y0136502D01*
X0122222Y0135685D01*
X0122222Y0134050D01*
X0123040Y0133233D01*
X0124675Y0133233D01*
X0125492Y0134868D02*
X0122222Y0134868D01*
X0120336Y0136502D02*
X0120336Y0132416D01*
X0119518Y0131598D01*
X0118701Y0131598D01*
X0117883Y0133233D02*
X0120336Y0133233D01*
X0117883Y0133233D02*
X0117066Y0134050D01*
X0117066Y0135685D01*
X0117883Y0136502D01*
X0120336Y0136502D01*
X0115221Y0136502D02*
X0114404Y0136502D01*
X0112769Y0134868D01*
X0112769Y0136502D02*
X0112769Y0133233D01*
X0110882Y0134868D02*
X0107613Y0134868D01*
X0107613Y0135685D02*
X0107613Y0134050D01*
X0108430Y0133233D01*
X0110065Y0133233D01*
X0110882Y0134868D02*
X0110882Y0135685D01*
X0110065Y0136502D01*
X0108430Y0136502D01*
X0107613Y0135685D01*
X0105726Y0135685D02*
X0105726Y0134050D01*
X0104908Y0133233D01*
X0102456Y0133233D01*
X0102456Y0138137D01*
X0102456Y0136502D02*
X0104908Y0136502D01*
X0105726Y0135685D01*
X0100569Y0136502D02*
X0098117Y0136502D01*
X0097300Y0135685D01*
X0098117Y0134868D01*
X0099752Y0134868D01*
X0100569Y0134050D01*
X0099752Y0133233D01*
X0097300Y0133233D01*
X0095413Y0133233D02*
X0095413Y0135685D01*
X0094596Y0136502D01*
X0092144Y0136502D01*
X0092144Y0133233D01*
X0090257Y0133233D02*
X0087804Y0133233D01*
X0086987Y0134050D01*
X0087804Y0134868D01*
X0090257Y0134868D01*
X0090257Y0135685D02*
X0090257Y0133233D01*
X0090257Y0135685D02*
X0089439Y0136502D01*
X0087804Y0136502D01*
X0085100Y0136502D02*
X0085100Y0132416D01*
X0084283Y0131598D01*
X0083465Y0131598D01*
X0082648Y0133233D02*
X0081831Y0134050D01*
X0081831Y0135685D01*
X0082648Y0136502D01*
X0085100Y0136502D01*
X0085100Y0133233D02*
X0082648Y0133233D01*
X0080028Y0133233D02*
X0078393Y0133233D01*
X0079210Y0133233D02*
X0079210Y0138137D01*
X0078393Y0138137D01*
X0076506Y0136502D02*
X0076506Y0132416D01*
X0075689Y0131598D01*
X0074871Y0131598D01*
X0074054Y0133233D02*
X0073237Y0134050D01*
X0073237Y0135685D01*
X0074054Y0136502D01*
X0076506Y0136502D01*
X0076506Y0133233D02*
X0074054Y0133233D01*
X0071350Y0134868D02*
X0071350Y0135685D01*
X0070532Y0136502D01*
X0068898Y0136502D01*
X0068080Y0135685D01*
X0068080Y0134050D01*
X0068898Y0133233D01*
X0070532Y0133233D01*
X0071350Y0134868D02*
X0068080Y0134868D01*
X0066277Y0133233D02*
X0064643Y0133233D01*
X0065460Y0133233D02*
X0065460Y0136502D01*
X0064643Y0136502D01*
X0065460Y0138137D02*
X0065460Y0138954D01*
X0062756Y0138137D02*
X0059486Y0138137D01*
X0062756Y0138137D02*
X0062756Y0137320D01*
X0059486Y0134050D01*
X0059486Y0133233D01*
X0062756Y0133233D01*
X0061938Y0129737D02*
X0060304Y0129737D01*
X0059486Y0128920D01*
X0059486Y0125650D01*
X0062756Y0128920D01*
X0062756Y0125650D01*
X0061938Y0124833D01*
X0060304Y0124833D01*
X0059486Y0125650D01*
X0057599Y0124833D02*
X0054330Y0124833D01*
X0057599Y0128102D01*
X0057599Y0128920D01*
X0056782Y0129737D01*
X0055147Y0129737D01*
X0054330Y0128920D01*
X0051626Y0133233D02*
X0049991Y0133233D01*
X0049174Y0134050D01*
X0049174Y0135685D01*
X0049991Y0136502D01*
X0051626Y0136502D01*
X0052443Y0135685D01*
X0052443Y0134868D01*
X0049174Y0134868D01*
X0047287Y0136502D02*
X0045652Y0133233D01*
X0044017Y0136502D01*
X0042130Y0135685D02*
X0042130Y0133233D01*
X0039678Y0133233D01*
X0038861Y0134050D01*
X0039678Y0134868D01*
X0042130Y0134868D01*
X0042130Y0135685D02*
X0041313Y0136502D01*
X0039678Y0136502D01*
X0036974Y0137320D02*
X0036156Y0138137D01*
X0033704Y0138137D01*
X0033704Y0133233D01*
X0036156Y0133233D01*
X0036974Y0134050D01*
X0036974Y0137320D01*
X0035339Y0129737D02*
X0036974Y0128102D01*
X0036974Y0124833D01*
X0038861Y0125650D02*
X0039678Y0124833D01*
X0042130Y0124833D01*
X0042130Y0128102D01*
X0044017Y0127285D02*
X0044017Y0125650D01*
X0044834Y0124833D01*
X0047287Y0124833D01*
X0047287Y0124016D02*
X0047287Y0128102D01*
X0044834Y0128102D01*
X0044017Y0127285D01*
X0045652Y0123198D02*
X0046469Y0123198D01*
X0047287Y0124016D01*
X0038861Y0125650D02*
X0038861Y0128102D01*
X0036974Y0127285D02*
X0033704Y0127285D01*
X0033704Y0128102D02*
X0035339Y0129737D01*
X0033704Y0128102D02*
X0033704Y0124833D01*
X0061938Y0129737D02*
X0062756Y0128920D01*
X0064643Y0128102D02*
X0066277Y0129737D01*
X0066277Y0124833D01*
X0064643Y0124833D02*
X0067912Y0124833D01*
X0069799Y0124833D02*
X0069799Y0125650D01*
X0073069Y0128920D01*
X0073069Y0129737D01*
X0069799Y0129737D01*
X0075773Y0125650D02*
X0075773Y0124833D01*
X0076590Y0124833D01*
X0076590Y0125650D01*
X0075773Y0125650D01*
X0076590Y0124833D02*
X0074956Y0123198D01*
X0083550Y0124833D02*
X0083550Y0129737D01*
X0086002Y0129737D01*
X0086819Y0128920D01*
X0086819Y0127285D01*
X0086002Y0126468D01*
X0083550Y0126468D01*
X0085184Y0126468D02*
X0086819Y0124833D01*
X0088706Y0125650D02*
X0089523Y0124833D01*
X0091158Y0124833D01*
X0091975Y0126468D02*
X0088706Y0126468D01*
X0088706Y0127285D02*
X0089523Y0128102D01*
X0091158Y0128102D01*
X0091975Y0127285D01*
X0091975Y0126468D01*
X0093862Y0128102D02*
X0095497Y0124833D01*
X0097132Y0128102D01*
X0104175Y0128102D02*
X0105810Y0129737D01*
X0105810Y0124833D01*
X0104175Y0124833D02*
X0107445Y0124833D01*
X0109331Y0124833D02*
X0110149Y0124833D01*
X0110149Y0125650D01*
X0109331Y0125650D01*
X0109331Y0124833D01*
X0111910Y0125650D02*
X0115179Y0128920D01*
X0115179Y0125650D01*
X0114362Y0124833D01*
X0112727Y0124833D01*
X0111910Y0125650D01*
X0111910Y0128920D01*
X0112727Y0129737D01*
X0114362Y0129737D01*
X0115179Y0128920D01*
X0088706Y0127285D02*
X0088706Y0125650D01*
D12*
X0175487Y0181970D02*
X0177622Y0181970D01*
X0176554Y0181970D02*
X0176554Y0185172D01*
X0175487Y0184105D01*
D13*
X0064181Y0162559D02*
X0064181Y0156959D01*
X0054181Y0156959D02*
X0054181Y0162559D01*
D14*
X0022781Y0162554D02*
X0016781Y0162554D01*
X0016781Y0152554D02*
X0022781Y0152554D01*
X0022781Y0142554D02*
X0016781Y0142554D01*
X0016781Y0132554D02*
X0022781Y0132554D01*
X0022781Y0122554D02*
X0016781Y0122554D01*
X0016781Y0112554D02*
X0022781Y0112554D01*
X0312528Y0134318D02*
X0312528Y0140318D01*
X0322528Y0140318D02*
X0322528Y0134318D01*
X0332528Y0134318D02*
X0332528Y0140318D01*
X0332213Y0163924D02*
X0332213Y0169924D01*
X0322213Y0169924D02*
X0322213Y0163924D01*
X0312213Y0163924D02*
X0312213Y0169924D01*
X0312528Y0194357D02*
X0312528Y0200357D01*
X0322528Y0200357D02*
X0322528Y0194357D01*
X0332528Y0194357D02*
X0332528Y0200357D01*
D15*
X0183965Y0137062D03*
X0183965Y0127062D03*
D16*
X0193118Y0124562D03*
X0199811Y0124562D03*
X0199811Y0139070D03*
X0193118Y0139070D03*
X0190559Y0106235D03*
X0190559Y0099542D03*
X0180559Y0099542D03*
X0180559Y0106235D03*
X0170559Y0106235D03*
X0170559Y0099542D03*
X0160559Y0099542D03*
X0160559Y0106235D03*
X0150067Y0106235D03*
X0150067Y0099542D03*
X0140067Y0099542D03*
X0140067Y0106235D03*
X0130067Y0106235D03*
X0130067Y0099542D03*
X0120067Y0099542D03*
X0120067Y0106235D03*
X0110067Y0106235D03*
X0110067Y0099542D03*
X0100067Y0099542D03*
X0100067Y0106235D03*
X0090067Y0106235D03*
X0090067Y0099542D03*
X0080067Y0099542D03*
X0080067Y0106235D03*
X0069575Y0106235D03*
X0069575Y0099542D03*
X0060067Y0099542D03*
X0060067Y0106235D03*
X0044496Y0170566D03*
X0044496Y0177259D03*
X0037508Y0177022D03*
X0030815Y0177022D03*
X0051661Y0177514D03*
X0058354Y0177514D03*
X0070657Y0177731D03*
X0070657Y0184424D03*
X0098118Y0204995D03*
X0098118Y0211688D03*
X0114358Y0211688D03*
X0114358Y0204995D03*
X0115736Y0228518D03*
X0109043Y0228518D03*
X0099496Y0228518D03*
X0092803Y0228518D03*
X0077350Y0228518D03*
X0070657Y0228518D03*
X0058000Y0235625D03*
X0058000Y0242318D03*
X0038630Y0237475D03*
X0038630Y0230782D03*
X0129713Y0228518D03*
X0136406Y0228518D03*
X0143394Y0219070D03*
X0143394Y0212377D03*
X0153335Y0228518D03*
X0160028Y0228518D03*
X0167016Y0219070D03*
X0167016Y0212377D03*
X0175972Y0228026D03*
X0182665Y0228026D03*
X0189654Y0219070D03*
X0189654Y0212377D03*
X0198118Y0228518D03*
X0204811Y0228518D03*
X0215835Y0228518D03*
X0222528Y0228518D03*
X0235520Y0228026D03*
X0242213Y0228026D03*
X0255205Y0228026D03*
X0261898Y0228026D03*
X0260559Y0106235D03*
X0260559Y0099542D03*
X0250559Y0099542D03*
X0250559Y0106235D03*
X0240559Y0106235D03*
X0240559Y0099542D03*
X0230559Y0099542D03*
X0230559Y0106235D03*
X0220559Y0106235D03*
X0220559Y0099542D03*
X0210559Y0099542D03*
X0210559Y0106235D03*
X0200559Y0106235D03*
X0200559Y0099542D03*
X0270559Y0099542D03*
X0270559Y0106235D03*
X0281051Y0106235D03*
X0281051Y0099542D03*
X0289476Y0099542D03*
X0289476Y0106235D03*
X0298689Y0106235D03*
X0298689Y0099542D03*
X0307114Y0099542D03*
X0307114Y0106235D03*
X0316327Y0106235D03*
X0316327Y0099542D03*
X0324752Y0099542D03*
X0324752Y0106235D03*
X0334161Y0106235D03*
X0334161Y0099542D03*
X0342390Y0099542D03*
X0342390Y0106235D03*
D17*
X0387685Y0253656D03*
X0387685Y0263656D03*
X0387685Y0273656D03*
X0018551Y0093656D03*
X0018551Y0083656D03*
X0018551Y0073656D03*
D18*
X0060008Y0024302D02*
X0060008Y0018365D01*
X0070008Y0018365D02*
X0070008Y0024302D01*
X0080008Y0024302D02*
X0080008Y0018365D01*
X0090008Y0018365D02*
X0090008Y0024302D01*
X0100008Y0024302D02*
X0100008Y0018365D01*
X0110008Y0018365D02*
X0110008Y0024302D01*
X0120008Y0024302D02*
X0120008Y0018365D01*
X0130008Y0018365D02*
X0130008Y0024302D01*
X0140008Y0024302D02*
X0140008Y0018365D01*
X0150008Y0018365D02*
X0150008Y0024302D01*
X0160402Y0024302D02*
X0160402Y0018365D01*
X0170402Y0018365D02*
X0170402Y0024302D01*
X0180402Y0024302D02*
X0180402Y0018365D01*
X0190402Y0018365D02*
X0190402Y0024302D01*
X0200402Y0024302D02*
X0200402Y0018365D01*
X0210402Y0018365D02*
X0210402Y0024302D01*
X0220402Y0024302D02*
X0220402Y0018365D01*
X0230402Y0018365D02*
X0230402Y0024302D01*
X0240402Y0024302D02*
X0240402Y0018365D01*
X0250402Y0018365D02*
X0250402Y0024302D01*
X0260795Y0024302D02*
X0260795Y0018365D01*
X0270795Y0018365D02*
X0270795Y0024302D01*
X0280795Y0024302D02*
X0280795Y0018365D01*
X0290795Y0018365D02*
X0290795Y0024302D01*
X0300795Y0024302D02*
X0300795Y0018365D01*
X0310795Y0018365D02*
X0310795Y0024302D01*
X0320795Y0024302D02*
X0320795Y0018365D01*
X0330795Y0018365D02*
X0330795Y0024302D01*
X0340795Y0024302D02*
X0340795Y0018365D01*
X0350795Y0018365D02*
X0350795Y0024302D01*
X0361858Y0024302D02*
X0361858Y0018365D01*
X0371858Y0018365D02*
X0371858Y0024302D01*
X0381858Y0024302D02*
X0381858Y0018365D01*
X0391858Y0018365D02*
X0391858Y0024302D01*
X0364575Y0305766D02*
X0364575Y0311703D01*
X0354575Y0311703D02*
X0354575Y0305766D01*
X0344575Y0305766D02*
X0344575Y0311703D01*
X0334575Y0311703D02*
X0334575Y0305766D01*
X0324575Y0305766D02*
X0324575Y0311703D01*
X0314575Y0311703D02*
X0314575Y0305766D01*
X0304575Y0305766D02*
X0304575Y0311703D01*
X0294575Y0311703D02*
X0294575Y0305766D01*
X0284575Y0305766D02*
X0284575Y0311703D01*
X0274575Y0311703D02*
X0274575Y0305766D01*
X0264181Y0305766D02*
X0264181Y0311703D01*
X0254181Y0311703D02*
X0254181Y0305766D01*
X0244181Y0305766D02*
X0244181Y0311703D01*
X0234181Y0311703D02*
X0234181Y0305766D01*
X0224181Y0305766D02*
X0224181Y0311703D01*
X0214181Y0311703D02*
X0214181Y0305766D01*
X0204181Y0305766D02*
X0204181Y0311703D01*
X0194181Y0311703D02*
X0194181Y0305766D01*
X0184181Y0305766D02*
X0184181Y0311703D01*
X0174181Y0311703D02*
X0174181Y0305766D01*
X0162921Y0305766D02*
X0162921Y0311703D01*
X0152921Y0311703D02*
X0152921Y0305766D01*
X0142921Y0305766D02*
X0142921Y0311703D01*
X0132921Y0311703D02*
X0132921Y0305766D01*
X0024709Y0307318D02*
X0018772Y0307318D01*
X0018772Y0317318D02*
X0024709Y0317318D01*
X0024709Y0297318D02*
X0018772Y0297318D01*
X0018772Y0287318D02*
X0024709Y0287318D01*
X0024709Y0277318D02*
X0018772Y0277318D01*
X0018772Y0267318D02*
X0024709Y0267318D01*
X0024709Y0257318D02*
X0018772Y0257318D01*
X0018772Y0247318D02*
X0024709Y0247318D01*
X0024709Y0237318D02*
X0018772Y0237318D01*
X0018772Y0227318D02*
X0024709Y0227318D01*
D19*
X0070657Y0218676D03*
X0077350Y0218676D03*
X0077350Y0208341D03*
X0070657Y0208341D03*
X0092803Y0218676D03*
X0099496Y0218676D03*
X0109043Y0218676D03*
X0115736Y0218676D03*
X0129713Y0218676D03*
X0136406Y0218676D03*
X0153335Y0218676D03*
X0160028Y0218676D03*
X0175972Y0218184D03*
X0182665Y0218184D03*
X0198610Y0218676D03*
X0205303Y0218676D03*
X0215835Y0218676D03*
X0222528Y0218676D03*
X0221740Y0209916D03*
X0228433Y0209916D03*
X0235520Y0218184D03*
X0242213Y0218184D03*
X0242016Y0209424D03*
X0248709Y0209424D03*
X0255205Y0218184D03*
X0261898Y0218184D03*
X0261701Y0209424D03*
X0268394Y0209424D03*
X0284732Y0178814D03*
X0291425Y0178814D03*
X0291425Y0169955D03*
X0284732Y0169955D03*
X0284732Y0157160D03*
X0291425Y0157160D03*
X0291425Y0148302D03*
X0284732Y0148302D03*
X0284732Y0135507D03*
X0291425Y0135507D03*
X0291425Y0126648D03*
X0284732Y0126648D03*
X0318787Y0117199D03*
X0325480Y0117199D03*
X0250087Y0135507D03*
X0243394Y0135507D03*
X0243394Y0150270D03*
X0250087Y0150270D03*
X0250087Y0165034D03*
X0243394Y0165034D03*
X0209831Y0209916D03*
X0203138Y0209916D03*
X0200087Y0289050D03*
X0206780Y0289050D03*
X0221740Y0289050D03*
X0228433Y0289050D03*
X0241425Y0289050D03*
X0248118Y0289050D03*
X0261110Y0289050D03*
X0267803Y0289050D03*
X0280795Y0289050D03*
X0287488Y0289050D03*
X0300480Y0289050D03*
X0307173Y0289050D03*
X0320165Y0289050D03*
X0326858Y0289050D03*
X0339850Y0289050D03*
X0346543Y0289050D03*
X0359535Y0289050D03*
X0366228Y0289050D03*
X0185126Y0289050D03*
X0178433Y0289050D03*
X0166898Y0289522D03*
X0160205Y0289522D03*
X0146898Y0289522D03*
X0140205Y0289522D03*
X0126898Y0289522D03*
X0120205Y0289522D03*
X0106898Y0289522D03*
X0100205Y0289522D03*
X0086898Y0289522D03*
X0080205Y0289522D03*
D20*
X0083551Y0280154D02*
X0083551Y0274954D01*
X0093551Y0274954D02*
X0093551Y0280154D01*
X0103551Y0280154D02*
X0103551Y0274954D01*
X0113551Y0274954D02*
X0113551Y0280154D01*
X0123551Y0280154D02*
X0123551Y0274954D01*
X0133551Y0274954D02*
X0133551Y0280154D01*
X0143551Y0280154D02*
X0143551Y0274954D01*
X0153551Y0274954D02*
X0153551Y0280154D01*
X0163551Y0280154D02*
X0163551Y0274954D01*
X0173551Y0274954D02*
X0173551Y0280154D01*
X0183551Y0280154D02*
X0183551Y0274954D01*
X0193551Y0274954D02*
X0193551Y0280154D01*
X0203551Y0280154D02*
X0203551Y0274954D01*
X0213551Y0274954D02*
X0213551Y0280154D01*
X0223551Y0280154D02*
X0223551Y0274954D01*
X0233551Y0274954D02*
X0233551Y0280154D01*
X0243551Y0280154D02*
X0243551Y0274954D01*
X0253551Y0274954D02*
X0253551Y0280154D01*
X0263551Y0280154D02*
X0263551Y0274954D01*
X0273551Y0274954D02*
X0273551Y0280154D01*
X0283551Y0280154D02*
X0283551Y0274954D01*
X0293551Y0274954D02*
X0293551Y0280154D01*
X0303551Y0280154D02*
X0303551Y0274954D01*
X0313551Y0274954D02*
X0313551Y0280154D01*
X0323551Y0280154D02*
X0323551Y0274954D01*
X0333551Y0274954D02*
X0333551Y0280154D01*
X0343551Y0280154D02*
X0343551Y0274954D01*
X0353551Y0274954D02*
X0353551Y0280154D01*
X0363551Y0280154D02*
X0363551Y0274954D01*
X0363551Y0250154D02*
X0363551Y0244954D01*
X0353551Y0244954D02*
X0353551Y0250154D01*
X0343551Y0250154D02*
X0343551Y0244954D01*
X0333551Y0244954D02*
X0333551Y0250154D01*
X0323551Y0250154D02*
X0323551Y0244954D01*
X0313551Y0244954D02*
X0313551Y0250154D01*
X0303551Y0250154D02*
X0303551Y0244954D01*
X0293551Y0244954D02*
X0293551Y0250154D01*
X0283551Y0250154D02*
X0283551Y0244954D01*
X0273551Y0244954D02*
X0273551Y0250154D01*
X0263551Y0250154D02*
X0263551Y0244954D01*
X0253551Y0244954D02*
X0253551Y0250154D01*
X0243551Y0250154D02*
X0243551Y0244954D01*
X0233551Y0244954D02*
X0233551Y0250154D01*
X0223551Y0250154D02*
X0223551Y0244954D01*
X0213551Y0244954D02*
X0213551Y0250154D01*
X0203551Y0250154D02*
X0203551Y0244954D01*
X0193551Y0244954D02*
X0193551Y0250154D01*
X0183551Y0250154D02*
X0183551Y0244954D01*
X0173551Y0244954D02*
X0173551Y0250154D01*
X0163551Y0250154D02*
X0163551Y0244954D01*
X0153551Y0244954D02*
X0153551Y0250154D01*
X0143551Y0250154D02*
X0143551Y0244954D01*
X0133551Y0244954D02*
X0133551Y0250154D01*
X0123551Y0250154D02*
X0123551Y0244954D01*
X0113551Y0244954D02*
X0113551Y0250154D01*
X0103551Y0250154D02*
X0103551Y0244954D01*
X0093551Y0244954D02*
X0093551Y0250154D01*
X0083551Y0250154D02*
X0083551Y0244954D01*
X0073551Y0244954D02*
X0073551Y0250154D01*
X0073551Y0274954D02*
X0073551Y0280154D01*
X0058551Y0219799D02*
X0058551Y0214599D01*
X0048551Y0214599D02*
X0048551Y0219799D01*
X0038551Y0219799D02*
X0038551Y0214599D01*
X0028551Y0214599D02*
X0028551Y0219799D01*
X0028551Y0189799D02*
X0028551Y0184599D01*
X0038551Y0184599D02*
X0038551Y0189799D01*
X0048551Y0189799D02*
X0048551Y0184599D01*
X0058551Y0184599D02*
X0058551Y0189799D01*
X0060008Y0092083D02*
X0060008Y0086883D01*
X0070008Y0086883D02*
X0070008Y0092083D01*
X0080008Y0092083D02*
X0080008Y0086883D01*
X0090008Y0086883D02*
X0090008Y0092083D01*
X0100008Y0092083D02*
X0100008Y0086883D01*
X0110008Y0086883D02*
X0110008Y0092083D01*
X0120008Y0092083D02*
X0120008Y0086883D01*
X0130008Y0086883D02*
X0130008Y0092083D01*
X0140008Y0092083D02*
X0140008Y0086883D01*
X0150008Y0086883D02*
X0150008Y0092083D01*
X0160402Y0092083D02*
X0160402Y0086883D01*
X0170402Y0086883D02*
X0170402Y0092083D01*
X0180402Y0092083D02*
X0180402Y0086883D01*
X0190402Y0086883D02*
X0190402Y0092083D01*
X0200402Y0092083D02*
X0200402Y0086883D01*
X0210402Y0086883D02*
X0210402Y0092083D01*
X0220402Y0092083D02*
X0220402Y0086883D01*
X0230402Y0086883D02*
X0230402Y0092083D01*
X0240402Y0092083D02*
X0240402Y0086883D01*
X0250402Y0086883D02*
X0250402Y0092083D01*
X0260795Y0092083D02*
X0260795Y0086883D01*
X0270795Y0086883D02*
X0270795Y0092083D01*
X0280795Y0092083D02*
X0280795Y0086883D01*
X0290795Y0086883D02*
X0290795Y0092083D01*
X0300795Y0092083D02*
X0300795Y0086883D01*
X0310795Y0086883D02*
X0310795Y0092083D01*
X0320795Y0092083D02*
X0320795Y0086883D01*
X0330795Y0086883D02*
X0330795Y0092083D01*
X0340795Y0092083D02*
X0340795Y0086883D01*
X0350795Y0086883D02*
X0350795Y0092083D01*
X0350795Y0062083D02*
X0350795Y0056883D01*
X0340795Y0056883D02*
X0340795Y0062083D01*
X0330795Y0062083D02*
X0330795Y0056883D01*
X0320795Y0056883D02*
X0320795Y0062083D01*
X0310795Y0062083D02*
X0310795Y0056883D01*
X0300795Y0056883D02*
X0300795Y0062083D01*
X0290795Y0062083D02*
X0290795Y0056883D01*
X0287646Y0047555D02*
X0287646Y0042355D01*
X0297646Y0042355D02*
X0297646Y0047555D01*
X0307646Y0047555D02*
X0307646Y0042355D01*
X0317646Y0042355D02*
X0317646Y0047555D01*
X0327646Y0047555D02*
X0327646Y0042355D01*
X0337646Y0042355D02*
X0337646Y0047555D01*
X0347646Y0047555D02*
X0347646Y0042355D01*
X0280795Y0056883D02*
X0280795Y0062083D01*
X0270795Y0062083D02*
X0270795Y0056883D01*
X0267646Y0047555D02*
X0267646Y0042355D01*
X0277646Y0042355D02*
X0277646Y0047555D01*
X0260795Y0056883D02*
X0260795Y0062083D01*
X0250402Y0062083D02*
X0250402Y0056883D01*
X0247646Y0047555D02*
X0247646Y0042355D01*
X0257646Y0042355D02*
X0257646Y0047555D01*
X0240402Y0056883D02*
X0240402Y0062083D01*
X0230402Y0062083D02*
X0230402Y0056883D01*
X0227646Y0047555D02*
X0227646Y0042355D01*
X0217646Y0042355D02*
X0217646Y0047555D01*
X0220402Y0056883D02*
X0220402Y0062083D01*
X0210402Y0062083D02*
X0210402Y0056883D01*
X0207646Y0047555D02*
X0207646Y0042355D01*
X0197646Y0042355D02*
X0197646Y0047555D01*
X0200402Y0056883D02*
X0200402Y0062083D01*
X0190402Y0062083D02*
X0190402Y0056883D01*
X0180402Y0056883D02*
X0180402Y0062083D01*
X0170402Y0062083D02*
X0170402Y0056883D01*
X0160402Y0056883D02*
X0160402Y0062083D01*
X0150008Y0062083D02*
X0150008Y0056883D01*
X0140008Y0056883D02*
X0140008Y0062083D01*
X0130008Y0062083D02*
X0130008Y0056883D01*
X0120008Y0056883D02*
X0120008Y0062083D01*
X0110008Y0062083D02*
X0110008Y0056883D01*
X0100008Y0056883D02*
X0100008Y0062083D01*
X0090008Y0062083D02*
X0090008Y0056883D01*
X0080008Y0056883D02*
X0080008Y0062083D01*
X0070008Y0062083D02*
X0070008Y0056883D01*
X0060008Y0056883D02*
X0060008Y0062083D01*
X0157646Y0047555D02*
X0157646Y0042355D01*
X0167646Y0042355D02*
X0167646Y0047555D01*
X0177646Y0047555D02*
X0177646Y0042355D01*
X0187646Y0042355D02*
X0187646Y0047555D01*
X0237646Y0047555D02*
X0237646Y0042355D01*
D21*
X0172921Y0138997D03*
X0170953Y0138997D03*
X0168984Y0138997D03*
X0167016Y0138997D03*
X0165047Y0138997D03*
X0163079Y0138997D03*
X0161110Y0138997D03*
X0159142Y0138997D03*
X0157173Y0138997D03*
X0155205Y0138997D03*
X0153236Y0138997D03*
X0151268Y0138997D03*
X0149299Y0138997D03*
X0147331Y0138997D03*
X0145362Y0138997D03*
X0143394Y0138997D03*
X0143394Y0183197D03*
X0145362Y0183197D03*
X0147331Y0183197D03*
X0149299Y0183197D03*
X0151268Y0183197D03*
X0153236Y0183197D03*
X0155205Y0183197D03*
X0157173Y0183197D03*
X0159142Y0183197D03*
X0161110Y0183197D03*
X0163079Y0183197D03*
X0165047Y0183197D03*
X0167016Y0183197D03*
X0168984Y0183197D03*
X0170953Y0183197D03*
X0172921Y0183197D03*
D22*
X0180257Y0175861D03*
X0180257Y0173892D03*
X0180257Y0171924D03*
X0180257Y0169955D03*
X0180257Y0167987D03*
X0180257Y0166018D03*
X0180257Y0164050D03*
X0180257Y0162081D03*
X0180257Y0160113D03*
X0180257Y0158144D03*
X0180257Y0156176D03*
X0180257Y0154207D03*
X0180257Y0152239D03*
X0180257Y0150270D03*
X0180257Y0148302D03*
X0180257Y0146333D03*
X0136057Y0146333D03*
X0136057Y0148302D03*
X0136057Y0150270D03*
X0136057Y0152239D03*
X0136057Y0154207D03*
X0136057Y0156176D03*
X0136057Y0158144D03*
X0136057Y0160113D03*
X0136057Y0162081D03*
X0136057Y0164050D03*
X0136057Y0166018D03*
X0136057Y0167987D03*
X0136057Y0169955D03*
X0136057Y0171924D03*
X0136057Y0173892D03*
X0136057Y0175861D03*
D23*
X0140047Y0111510D03*
X0145953Y0111510D03*
X0160539Y0111314D03*
X0166445Y0111314D03*
X0180441Y0111510D03*
X0186346Y0111510D03*
X0200539Y0111658D03*
X0206445Y0111658D03*
X0220638Y0111510D03*
X0226543Y0111510D03*
X0240441Y0111510D03*
X0246346Y0111510D03*
X0260441Y0111510D03*
X0266346Y0111510D03*
X0280933Y0111314D03*
X0286839Y0111314D03*
X0298374Y0111314D03*
X0304280Y0111314D03*
X0316209Y0111314D03*
X0322114Y0111314D03*
X0332272Y0111314D03*
X0338177Y0111314D03*
X0125854Y0111609D03*
X0119949Y0111609D03*
X0105854Y0111510D03*
X0099949Y0111510D03*
X0086051Y0111707D03*
X0080146Y0111707D03*
X0066051Y0111707D03*
X0060146Y0111707D03*
D24*
X0261625Y0131757D03*
X0261625Y0135507D03*
X0261625Y0139257D03*
X0261625Y0146520D03*
X0261625Y0150270D03*
X0261625Y0154020D03*
X0261625Y0161284D03*
X0261625Y0165034D03*
X0261625Y0168784D03*
X0271225Y0168784D03*
X0271225Y0165034D03*
X0271225Y0161284D03*
X0271225Y0154020D03*
X0271225Y0150270D03*
X0271225Y0146520D03*
X0271225Y0139257D03*
X0271225Y0135507D03*
X0271225Y0131757D03*
D25*
X0365835Y0133420D03*
X0365835Y0153420D03*
X0365835Y0174837D03*
X0365835Y0194837D03*
X0365835Y0214837D03*
X0365835Y0113420D03*
D26*
X0262595Y0235900D03*
X0255295Y0235900D03*
X0242122Y0235900D03*
X0234822Y0235900D03*
X0222437Y0235900D03*
X0215137Y0235900D03*
X0205115Y0235900D03*
X0197815Y0235900D03*
X0183067Y0235900D03*
X0175767Y0235900D03*
X0160233Y0235900D03*
X0152933Y0235900D03*
X0136758Y0236196D03*
X0129458Y0236196D03*
X0116138Y0235703D03*
X0108838Y0235703D03*
X0099800Y0236097D03*
X0092500Y0236097D03*
X0077359Y0235507D03*
X0070059Y0235507D03*
D27*
X0098118Y0211688D02*
X0099496Y0213066D01*
X0114260Y0211786D02*
X0114358Y0211688D01*
X0114358Y0217298D02*
X0115736Y0218676D01*
X0114752Y0204995D02*
X0114358Y0204995D01*
X0114752Y0204995D02*
X0114850Y0204896D01*
X0118787Y0194070D02*
X0118787Y0167003D01*
X0129614Y0156176D01*
X0136057Y0156176D01*
X0136057Y0156176D01*
X0136057Y0154207D02*
X0136057Y0154207D01*
X0128630Y0154207D01*
X0116819Y0166018D01*
X0116819Y0183735D01*
X0114850Y0182751D02*
X0114850Y0165034D01*
X0127646Y0152239D01*
X0136057Y0152239D01*
X0136057Y0152239D01*
X0136057Y0150270D02*
X0136057Y0150270D01*
X0126661Y0150270D01*
X0112882Y0164050D01*
X0112882Y0176058D01*
X0109142Y0179798D01*
X0080598Y0179798D01*
X0070657Y0177731D02*
X0108650Y0177731D01*
X0110913Y0175467D01*
X0110913Y0163066D01*
X0125677Y0148302D01*
X0136057Y0148302D02*
X0136057Y0148302D01*
X0136057Y0146333D02*
X0050087Y0146333D01*
X0043492Y0142888D02*
X0030913Y0143164D01*
X0037793Y0170566D02*
X0044496Y0170566D01*
X0044555Y0177259D02*
X0044496Y0177259D01*
X0038551Y0178066D02*
X0037508Y0177022D01*
X0037764Y0177259D01*
X0029339Y0178499D02*
X0028551Y0179286D01*
X0048315Y0187436D02*
X0048551Y0187199D01*
X0058354Y0177514D02*
X0058551Y0177711D01*
X0069772Y0177514D02*
X0070657Y0177731D01*
X0077449Y0208243D02*
X0077350Y0208341D01*
X0038630Y0217278D02*
X0038551Y0217199D01*
X0028551Y0217199D02*
X0028433Y0217318D01*
X0038472Y0237318D02*
X0038630Y0237475D01*
X0021740Y0257318D02*
X0021780Y0257357D01*
X0041268Y0267790D02*
X0021740Y0287318D01*
X0021740Y0297318D02*
X0021937Y0297318D01*
X0034535Y0284719D01*
X0061110Y0284719D01*
X0065638Y0289247D01*
X0065638Y0298105D01*
X0068000Y0300467D01*
X0104811Y0300467D01*
X0106976Y0298302D01*
X0106976Y0289601D01*
X0106898Y0289522D01*
X0093551Y0277554D02*
X0093551Y0271491D01*
X0089850Y0267790D01*
X0041268Y0267790D01*
X0069378Y0295940D02*
X0084535Y0295940D01*
X0086898Y0293577D01*
X0086898Y0289522D01*
X0126898Y0289522D02*
X0126898Y0314995D01*
X0121346Y0320546D01*
X0024969Y0320546D01*
X0021740Y0317318D01*
X0129458Y0236196D02*
X0129713Y0235941D01*
X0136406Y0235843D02*
X0136758Y0236196D01*
X0143295Y0220152D02*
X0143394Y0219070D01*
X0143492Y0213262D02*
X0143394Y0212377D01*
X0136504Y0211786D02*
X0118787Y0194070D01*
X0120756Y0193085D02*
X0120756Y0167987D01*
X0126661Y0162081D01*
X0136057Y0162081D01*
X0136057Y0162081D01*
X0136057Y0164050D02*
X0136057Y0164050D01*
X0127646Y0164050D01*
X0122724Y0168971D01*
X0122724Y0192101D01*
X0137488Y0206865D01*
X0180500Y0206865D01*
X0182665Y0218184D02*
X0183551Y0219129D01*
X0198118Y0219168D02*
X0198610Y0218676D01*
X0203748Y0218538D02*
X0205303Y0218676D01*
X0204811Y0219168D01*
X0204811Y0228518D01*
X0203138Y0209916D02*
X0203236Y0209818D01*
X0201465Y0204798D02*
X0138276Y0204798D01*
X0124693Y0191215D01*
X0124693Y0170152D01*
X0128827Y0166018D01*
X0136057Y0166018D01*
X0136057Y0167987D02*
X0130008Y0167987D01*
X0126661Y0171333D01*
X0126661Y0190231D01*
X0139260Y0202829D01*
X0218591Y0202829D01*
X0238276Y0200861D02*
X0242213Y0204798D01*
X0242213Y0209227D01*
X0242016Y0209424D01*
X0242016Y0217987D02*
X0242213Y0218184D01*
X0255205Y0218184D02*
X0255205Y0228026D01*
X0261898Y0228026D02*
X0261898Y0218184D01*
X0261701Y0217987D01*
X0261701Y0209424D01*
X0261602Y0209325D01*
X0257764Y0209325D02*
X0247331Y0198892D01*
X0141228Y0198892D01*
X0130598Y0188262D01*
X0130598Y0177042D01*
X0131780Y0175861D01*
X0136057Y0175861D01*
X0136057Y0173892D02*
X0130598Y0173892D01*
X0128630Y0175861D01*
X0128630Y0189247D01*
X0140244Y0200861D01*
X0238276Y0200861D01*
X0264457Y0196924D02*
X0272528Y0204995D01*
X0272528Y0231570D01*
X0282961Y0241018D01*
X0394181Y0241018D01*
X0400677Y0234916D01*
X0400677Y0068184D01*
X0396543Y0064050D01*
X0361504Y0064050D01*
X0357961Y0060507D01*
X0357961Y0054207D01*
X0357567Y0044955D02*
X0366819Y0044955D01*
X0381858Y0029916D01*
X0381858Y0021333D01*
X0394969Y0066018D02*
X0309142Y0066018D01*
X0305992Y0062869D01*
X0305992Y0054010D01*
X0307567Y0052436D01*
X0307567Y0045034D01*
X0307646Y0044955D01*
X0297724Y0045034D02*
X0297646Y0044955D01*
X0297724Y0045034D02*
X0297724Y0052436D01*
X0295953Y0054207D01*
X0295953Y0063853D01*
X0300087Y0067987D01*
X0393197Y0067987D01*
X0396346Y0070940D01*
X0396346Y0232948D01*
X0392016Y0237081D01*
X0284535Y0237081D01*
X0276465Y0229798D01*
X0276465Y0203617D01*
X0266031Y0192987D01*
X0168984Y0192987D01*
X0167016Y0191018D01*
X0167016Y0183197D01*
X0168984Y0183197D02*
X0168984Y0189640D01*
X0170362Y0191018D01*
X0267016Y0191018D01*
X0278433Y0202633D01*
X0278433Y0228814D01*
X0285323Y0235113D01*
X0390835Y0235113D01*
X0394378Y0231570D01*
X0394378Y0072514D01*
X0391819Y0069955D01*
X0290047Y0069955D01*
X0285717Y0065231D01*
X0285717Y0054798D01*
X0287685Y0053026D01*
X0287685Y0044995D01*
X0287646Y0044955D01*
X0277646Y0044955D02*
X0277646Y0053026D01*
X0275874Y0054601D01*
X0275874Y0066412D01*
X0281583Y0072121D01*
X0390441Y0072121D01*
X0392213Y0073892D01*
X0392213Y0230388D01*
X0389457Y0233144D01*
X0286110Y0233144D01*
X0280402Y0227829D01*
X0280402Y0201845D01*
X0268394Y0189050D01*
X0172134Y0189050D01*
X0170953Y0187869D01*
X0170953Y0183197D01*
X0172921Y0183197D02*
X0172921Y0185703D01*
X0174299Y0187081D01*
X0269378Y0187081D01*
X0282370Y0201255D01*
X0282370Y0226845D01*
X0287094Y0231176D01*
X0387882Y0231176D01*
X0390244Y0228814D01*
X0390244Y0075467D01*
X0388866Y0074089D01*
X0272134Y0074089D01*
X0266031Y0067987D01*
X0266031Y0054404D01*
X0267646Y0052790D01*
X0267646Y0044955D01*
X0257646Y0044955D02*
X0257646Y0052554D01*
X0255992Y0054207D01*
X0255992Y0067987D01*
X0264063Y0076058D01*
X0386701Y0076058D01*
X0388079Y0077436D01*
X0388079Y0227239D01*
X0386110Y0229207D01*
X0287882Y0229207D01*
X0284339Y0225861D01*
X0284339Y0200467D01*
X0270165Y0184916D01*
X0193000Y0184916D01*
X0183945Y0175861D01*
X0180257Y0175861D01*
X0180257Y0173892D02*
X0184929Y0173892D01*
X0193984Y0182948D01*
X0271150Y0182948D01*
X0286307Y0199483D01*
X0286307Y0224680D01*
X0288866Y0227239D01*
X0384339Y0227239D01*
X0385913Y0225467D01*
X0385913Y0079404D01*
X0384535Y0078026D01*
X0255795Y0078026D01*
X0245953Y0068184D01*
X0245953Y0054404D01*
X0247724Y0052633D01*
X0247724Y0052436D01*
X0247646Y0052357D01*
X0247646Y0044955D01*
X0237685Y0044995D02*
X0237685Y0052436D01*
X0235520Y0054601D01*
X0235520Y0071924D01*
X0243394Y0079995D01*
X0382370Y0079995D01*
X0383551Y0081176D01*
X0383551Y0224089D01*
X0382370Y0225270D01*
X0290441Y0225270D01*
X0288276Y0223302D01*
X0288276Y0198696D01*
X0271937Y0180979D01*
X0195165Y0180979D01*
X0186110Y0171924D01*
X0180257Y0171924D01*
X0180257Y0169955D02*
X0187095Y0169955D01*
X0196150Y0179010D01*
X0273315Y0179010D01*
X0290244Y0197514D01*
X0290244Y0221727D01*
X0292016Y0223302D01*
X0380992Y0223302D01*
X0381583Y0222711D01*
X0381583Y0083341D01*
X0380402Y0082160D01*
X0236110Y0082160D01*
X0226071Y0072121D01*
X0226071Y0054404D01*
X0227646Y0052829D01*
X0227646Y0044955D01*
X0237646Y0044955D02*
X0237685Y0044995D01*
X0197646Y0044955D02*
X0195165Y0047436D01*
X0195165Y0063656D01*
X0176465Y0081176D01*
X0176465Y0110113D01*
X0163079Y0123695D01*
X0163079Y0138997D01*
X0161110Y0138997D02*
X0161110Y0138505D01*
X0161110Y0122121D01*
X0174398Y0109129D01*
X0174398Y0078814D01*
X0186209Y0067003D01*
X0186209Y0054306D01*
X0187646Y0052869D01*
X0187646Y0044955D01*
X0177646Y0044955D02*
X0175874Y0046727D01*
X0175874Y0065133D01*
X0162094Y0078912D01*
X0023315Y0078912D01*
X0018571Y0083656D01*
X0018551Y0083656D01*
X0060008Y0089483D02*
X0060008Y0099483D01*
X0060067Y0106235D02*
X0060146Y0106235D01*
X0060146Y0111707D01*
X0060067Y0112810D01*
X0066051Y0111707D02*
X0066071Y0111688D01*
X0068197Y0111688D01*
X0078039Y0121530D01*
X0142213Y0121530D01*
X0143394Y0122711D01*
X0143394Y0138997D01*
X0145362Y0138997D02*
X0145362Y0121333D01*
X0143591Y0119562D01*
X0095953Y0119562D01*
X0088079Y0111688D01*
X0086071Y0111688D01*
X0086051Y0111707D01*
X0088079Y0111688D02*
X0090067Y0109699D01*
X0090067Y0106235D01*
X0090067Y0099542D02*
X0090067Y0089542D01*
X0090008Y0089483D01*
X0080008Y0089483D02*
X0080008Y0099483D01*
X0080067Y0106235D02*
X0080146Y0106235D01*
X0080146Y0111707D01*
X0069575Y0110310D02*
X0069575Y0106235D01*
X0069575Y0110310D02*
X0068197Y0111688D01*
X0069575Y0099542D02*
X0069575Y0089916D01*
X0070008Y0089483D01*
X0100008Y0089483D02*
X0100008Y0099483D01*
X0100067Y0099542D01*
X0100067Y0106235D02*
X0099949Y0106235D01*
X0099949Y0111510D01*
X0105854Y0111510D02*
X0108728Y0111510D01*
X0114614Y0117396D01*
X0147724Y0117396D01*
X0149299Y0118971D01*
X0149299Y0138997D01*
X0147331Y0138997D02*
X0147331Y0138997D01*
X0151268Y0138997D02*
X0151268Y0117593D01*
X0148512Y0114837D01*
X0131976Y0114837D01*
X0128827Y0111688D01*
X0125933Y0111688D01*
X0125854Y0111609D01*
X0128827Y0111688D02*
X0130067Y0110448D01*
X0130067Y0106235D01*
X0130067Y0099542D02*
X0130067Y0089542D01*
X0130008Y0089483D01*
X0120008Y0089483D02*
X0120008Y0099483D01*
X0120067Y0099542D01*
X0120067Y0106235D02*
X0119949Y0106235D01*
X0119949Y0111609D01*
X0110126Y0110113D02*
X0110126Y0106294D01*
X0110067Y0106235D01*
X0110126Y0110113D02*
X0108728Y0111510D01*
X0110067Y0099542D02*
X0110008Y0099483D01*
X0110008Y0089483D01*
X0140008Y0089483D02*
X0140008Y0099483D01*
X0140067Y0099542D01*
X0140067Y0106235D02*
X0140047Y0106235D01*
X0140047Y0111510D01*
X0145953Y0111510D02*
X0150067Y0111510D01*
X0150087Y0111491D01*
X0150087Y0106255D01*
X0150067Y0106235D01*
X0150087Y0111491D02*
X0155205Y0116609D01*
X0155205Y0138997D01*
X0157173Y0138997D02*
X0157173Y0116609D01*
X0159142Y0114640D01*
X0165441Y0114640D01*
X0166425Y0113656D01*
X0166425Y0111333D01*
X0166445Y0111314D01*
X0166465Y0111294D01*
X0168591Y0111294D01*
X0170559Y0109325D01*
X0170559Y0106235D01*
X0170559Y0099542D02*
X0170559Y0089640D01*
X0170402Y0089483D01*
X0160402Y0089483D02*
X0160402Y0099385D01*
X0160559Y0099542D01*
X0160559Y0106235D02*
X0160539Y0106235D01*
X0160539Y0111314D01*
X0160638Y0106314D02*
X0160559Y0106235D01*
X0150067Y0099542D02*
X0150067Y0089542D01*
X0150008Y0089483D01*
X0175480Y0114640D02*
X0185913Y0114640D01*
X0186504Y0114050D01*
X0186504Y0111668D01*
X0186346Y0111510D01*
X0186366Y0111491D01*
X0188866Y0111491D01*
X0190559Y0109798D01*
X0190559Y0106235D01*
X0190559Y0099542D02*
X0190559Y0089640D01*
X0190402Y0089483D01*
X0188128Y0082160D02*
X0180805Y0089483D01*
X0180402Y0089483D01*
X0180402Y0099385D01*
X0180559Y0099542D01*
X0180559Y0106235D02*
X0180441Y0106235D01*
X0180441Y0111510D01*
X0175480Y0114640D02*
X0167016Y0123105D01*
X0167016Y0138997D01*
X0168984Y0138997D02*
X0168984Y0124286D01*
X0176661Y0116609D01*
X0204024Y0116609D01*
X0206386Y0114247D01*
X0206386Y0111717D01*
X0206445Y0111658D01*
X0206474Y0111688D01*
X0208748Y0111688D01*
X0210559Y0109877D01*
X0210559Y0106235D01*
X0210559Y0099542D02*
X0210559Y0089640D01*
X0210402Y0089483D01*
X0220402Y0089483D02*
X0220402Y0099385D01*
X0220559Y0099542D01*
X0220559Y0106235D02*
X0220638Y0106235D01*
X0220638Y0111510D01*
X0226543Y0111510D02*
X0226661Y0111629D01*
X0226661Y0114444D01*
X0220362Y0120743D01*
X0220362Y0143971D01*
X0218000Y0146333D01*
X0180257Y0146333D01*
X0180257Y0148302D02*
X0218787Y0148302D01*
X0222331Y0144759D01*
X0222331Y0121530D01*
X0228433Y0115428D01*
X0244575Y0115428D01*
X0246346Y0113656D01*
X0246346Y0111510D01*
X0246366Y0111491D01*
X0248709Y0111491D01*
X0250559Y0109640D01*
X0250559Y0106235D01*
X0250559Y0099542D02*
X0250559Y0089640D01*
X0250402Y0089483D01*
X0260795Y0089483D02*
X0260795Y0099306D01*
X0260559Y0099542D01*
X0260559Y0106235D02*
X0260441Y0106235D01*
X0260441Y0111510D01*
X0265441Y0114837D02*
X0266622Y0113656D01*
X0266622Y0111786D01*
X0266346Y0111510D01*
X0266366Y0111491D01*
X0268984Y0111491D01*
X0270559Y0109916D01*
X0270559Y0106235D01*
X0270559Y0099542D02*
X0270795Y0099306D01*
X0270795Y0089483D01*
X0280795Y0089483D02*
X0280795Y0099286D01*
X0281051Y0099542D01*
X0281051Y0106235D02*
X0280933Y0106235D01*
X0280933Y0111314D01*
X0286701Y0111451D02*
X0286701Y0113459D01*
X0283157Y0117003D01*
X0249102Y0117003D01*
X0246740Y0119365D01*
X0230402Y0119365D01*
X0226661Y0123105D01*
X0226661Y0146530D01*
X0220953Y0152239D01*
X0180257Y0152239D01*
X0180257Y0154207D02*
X0221740Y0154207D01*
X0228630Y0147318D01*
X0228630Y0124286D01*
X0231583Y0121333D01*
X0247921Y0121333D01*
X0250283Y0118971D01*
X0302449Y0118971D01*
X0307114Y0114306D01*
X0307114Y0111491D01*
X0306937Y0111314D01*
X0304280Y0111314D01*
X0307114Y0111491D02*
X0307114Y0106235D01*
X0307114Y0099542D02*
X0310795Y0095861D01*
X0310795Y0089483D01*
X0300795Y0089483D02*
X0300795Y0097436D01*
X0298689Y0099542D01*
X0290795Y0098223D02*
X0289476Y0099542D01*
X0290795Y0098223D02*
X0290795Y0089483D01*
X0289476Y0106235D02*
X0289476Y0108676D01*
X0286839Y0111314D01*
X0286701Y0111451D01*
X0298374Y0111314D02*
X0298689Y0110999D01*
X0298689Y0106235D01*
X0316327Y0106235D02*
X0316327Y0111196D01*
X0316209Y0111314D01*
X0322114Y0111314D02*
X0324752Y0108676D01*
X0324752Y0106235D01*
X0322114Y0111314D02*
X0322134Y0122318D01*
X0323512Y0123696D01*
X0376858Y0123696D01*
X0379417Y0126255D01*
X0379417Y0220546D01*
X0378630Y0221333D01*
X0293394Y0221333D01*
X0292213Y0220152D01*
X0292213Y0196727D01*
X0274496Y0177042D01*
X0197331Y0177042D01*
X0186307Y0166018D01*
X0180258Y0166018D01*
X0180257Y0166018D01*
X0180257Y0164050D02*
X0242409Y0164050D01*
X0243394Y0165034D01*
X0248709Y0161097D02*
X0246740Y0159129D01*
X0246740Y0146333D01*
X0246740Y0132554D01*
X0247537Y0131757D01*
X0261625Y0131757D01*
X0261625Y0131691D01*
X0261504Y0131570D01*
X0258551Y0131570D01*
X0254614Y0127633D01*
X0249299Y0123302D02*
X0251465Y0121136D01*
X0317016Y0121136D01*
X0318787Y0119365D01*
X0318787Y0117199D01*
X0325480Y0117199D02*
X0336110Y0117199D01*
X0338079Y0115231D01*
X0338079Y0111412D01*
X0338177Y0111314D01*
X0340815Y0111314D01*
X0342409Y0109719D01*
X0342409Y0106255D01*
X0342390Y0106235D01*
X0342390Y0099542D02*
X0342390Y0097888D01*
X0350795Y0089483D01*
X0340795Y0089483D02*
X0334161Y0096117D01*
X0334161Y0099542D01*
X0334161Y0106235D02*
X0334161Y0109424D01*
X0332272Y0111314D01*
X0324752Y0099542D02*
X0330795Y0093499D01*
X0330795Y0089483D01*
X0320795Y0089483D02*
X0320795Y0095073D01*
X0316327Y0099542D01*
X0266425Y0141412D02*
X0266425Y0152239D01*
X0264457Y0154207D01*
X0261812Y0154207D01*
X0261625Y0154020D01*
X0264457Y0154207D02*
X0266425Y0156176D01*
X0266425Y0167003D01*
X0264644Y0168784D01*
X0261625Y0168784D01*
X0255785Y0168784D01*
X0252646Y0171924D01*
X0202449Y0171924D01*
X0200480Y0173892D01*
X0180257Y0167987D02*
X0180257Y0167987D01*
X0175874Y0160113D02*
X0175874Y0160113D01*
X0180257Y0158144D02*
X0224102Y0158144D01*
X0231976Y0150270D01*
X0243394Y0150270D01*
X0246740Y0146333D02*
X0261438Y0146333D01*
X0261625Y0146520D01*
X0261625Y0150270D02*
X0250087Y0150270D01*
X0248709Y0161097D02*
X0261504Y0161097D01*
X0261625Y0161218D01*
X0261625Y0161284D01*
X0261625Y0165034D02*
X0250087Y0165034D01*
X0230795Y0147908D02*
X0230795Y0138459D01*
X0233748Y0135507D01*
X0243394Y0135507D01*
X0250087Y0135507D02*
X0261625Y0135507D01*
X0261625Y0139257D02*
X0264270Y0139257D01*
X0266425Y0141412D01*
X0249299Y0123302D02*
X0232764Y0123302D01*
X0230795Y0125270D01*
X0230795Y0138459D01*
X0230795Y0147908D02*
X0222528Y0156176D01*
X0180257Y0156176D01*
X0180257Y0150270D02*
X0219772Y0150270D01*
X0224496Y0145546D01*
X0224496Y0122318D01*
X0229417Y0117396D01*
X0245559Y0117396D01*
X0248118Y0114837D01*
X0265441Y0114837D01*
X0240441Y0111510D02*
X0240441Y0106235D01*
X0240559Y0106235D01*
X0240559Y0099542D02*
X0240402Y0099385D01*
X0240402Y0089483D01*
X0230402Y0089483D02*
X0230402Y0099385D01*
X0230559Y0099542D01*
X0230559Y0106235D02*
X0230559Y0109955D01*
X0229024Y0111491D01*
X0226563Y0111491D01*
X0226543Y0111510D01*
X0200539Y0111658D02*
X0200539Y0106235D01*
X0200559Y0106235D01*
X0200559Y0099542D02*
X0200402Y0099385D01*
X0200402Y0089483D01*
X0193079Y0082160D01*
X0188128Y0082160D01*
X0167646Y0044955D02*
X0167508Y0044818D01*
X0167508Y0029207D01*
X0165536Y0027236D01*
X0165536Y0011282D01*
X0188177Y0124188D02*
X0193118Y0124188D01*
X0193118Y0124562D01*
X0188177Y0124188D02*
X0184240Y0127062D01*
X0183965Y0127062D01*
X0183945Y0127042D01*
X0175874Y0127042D01*
X0170953Y0131963D01*
X0170953Y0138997D01*
X0172921Y0138997D02*
X0172921Y0133538D01*
X0175283Y0131176D01*
X0178039Y0131176D01*
X0178236Y0131373D01*
X0178276Y0131373D01*
X0183965Y0137062D01*
X0186209Y0138951D01*
X0193610Y0138951D01*
X0168000Y0149631D02*
X0168000Y0151255D01*
X0165047Y0144857D02*
X0165047Y0144857D01*
X0165047Y0144857D01*
X0159142Y0138997D02*
X0159142Y0138997D01*
X0153236Y0138997D02*
X0153236Y0138997D01*
X0136057Y0146333D02*
X0136057Y0146333D01*
X0141425Y0160113D02*
X0141425Y0160113D01*
X0144870Y0166510D02*
X0145362Y0167003D01*
X0155205Y0173302D02*
X0156583Y0171924D01*
X0162242Y0178666D02*
X0161110Y0179699D01*
X0161110Y0183197D02*
X0161110Y0183197D01*
X0159142Y0183197D02*
X0159142Y0189148D01*
X0159142Y0189148D01*
X0159142Y0189148D01*
X0159142Y0193577D02*
X0158157Y0193577D01*
X0153236Y0188656D01*
X0153236Y0183197D01*
X0151268Y0183197D02*
X0151268Y0192593D01*
X0153236Y0194562D01*
X0149299Y0192790D02*
X0147724Y0194562D01*
X0149299Y0192790D02*
X0149299Y0183197D01*
X0147331Y0183197D02*
X0147331Y0188459D01*
X0141819Y0193971D01*
X0143787Y0189247D02*
X0138571Y0189247D01*
X0138472Y0189148D01*
X0139260Y0184522D02*
X0142068Y0184522D01*
X0143394Y0183197D01*
X0145362Y0183197D02*
X0145362Y0187672D01*
X0143787Y0189247D01*
X0155205Y0183197D02*
X0155205Y0183197D01*
X0157173Y0183197D02*
X0157173Y0183197D01*
X0163079Y0183197D02*
X0163079Y0194168D01*
X0165835Y0196924D01*
X0264457Y0196924D01*
X0265244Y0194955D02*
X0274496Y0204207D01*
X0274496Y0230782D01*
X0283748Y0239050D01*
X0393197Y0239050D01*
X0398315Y0234129D01*
X0398512Y0233932D01*
X0398512Y0069562D01*
X0394969Y0066018D01*
X0265244Y0194955D02*
X0167409Y0194955D01*
X0165047Y0192593D01*
X0165047Y0183197D01*
X0157665Y0208833D02*
X0136504Y0208833D01*
X0120756Y0193085D01*
X0136504Y0218577D02*
X0136406Y0218676D01*
X0160028Y0218676D02*
X0160126Y0218577D01*
X0165638Y0218676D02*
X0167016Y0219070D01*
X0228433Y0252534D02*
X0228531Y0252633D01*
X0261898Y0218184D02*
X0262980Y0218932D01*
X0273551Y0247554D02*
X0273650Y0247554D01*
X0293551Y0247554D02*
X0293551Y0247770D01*
X0313551Y0247593D02*
X0313551Y0247554D01*
X0333551Y0247554D02*
X0333689Y0247554D01*
X0166898Y0289522D02*
X0166898Y0304759D01*
X0162921Y0308735D01*
X0153551Y0308105D02*
X0152921Y0308735D01*
X0153551Y0308105D02*
X0153551Y0277554D01*
X0146898Y0289522D02*
X0146898Y0304759D01*
X0142921Y0308735D01*
X0133551Y0308105D02*
X0132921Y0308735D01*
X0133551Y0308105D02*
X0133551Y0277554D01*
D28*
X0126169Y0255093D02*
X0128138Y0253125D01*
X0128138Y0243282D01*
X0119772Y0234916D01*
X0119772Y0206373D01*
X0118295Y0204896D01*
X0114850Y0204896D01*
X0114358Y0211688D02*
X0114358Y0217298D01*
X0115736Y0218676D02*
X0115736Y0228518D01*
X0116138Y0228920D01*
X0116138Y0235703D01*
X0116138Y0240141D01*
X0123551Y0247554D01*
X0126169Y0255093D02*
X0088276Y0255093D01*
X0068591Y0255093D01*
X0066130Y0253125D01*
X0066130Y0212869D01*
X0070657Y0208341D01*
X0070657Y0184424D01*
X0077449Y0182948D02*
X0077449Y0208243D01*
X0077350Y0208341D02*
X0077350Y0218676D01*
X0077350Y0228518D01*
X0077350Y0235498D01*
X0077359Y0235507D01*
X0077359Y0241361D01*
X0083551Y0247554D01*
X0088276Y0255093D02*
X0088276Y0207062D01*
X0090343Y0204995D01*
X0098118Y0204995D01*
X0098118Y0211688D02*
X0101169Y0211688D01*
X0103039Y0210014D01*
X0103039Y0194562D01*
X0114850Y0182751D01*
X0116819Y0183735D02*
X0111406Y0189148D01*
X0108453Y0192003D01*
X0108453Y0209818D01*
X0110421Y0211786D01*
X0114260Y0211786D01*
X0109043Y0218676D02*
X0109043Y0228518D01*
X0109043Y0235498D01*
X0108838Y0235703D01*
X0108838Y0242841D01*
X0113551Y0247554D01*
X0103551Y0247554D02*
X0099800Y0243802D01*
X0099800Y0236097D01*
X0099800Y0228822D01*
X0099496Y0228518D01*
X0099496Y0218676D01*
X0099496Y0213066D01*
X0092803Y0218676D02*
X0092803Y0228518D01*
X0092500Y0228822D01*
X0092500Y0236097D01*
X0092500Y0246502D01*
X0093551Y0247554D01*
X0073551Y0247554D02*
X0070059Y0244061D01*
X0070059Y0235507D01*
X0070059Y0229117D01*
X0070657Y0228518D01*
X0070657Y0218676D01*
X0070657Y0208341D02*
X0064555Y0202239D01*
X0026858Y0202239D01*
X0023709Y0199089D01*
X0023709Y0174680D01*
X0027823Y0170566D01*
X0044496Y0170566D01*
X0048118Y0173696D02*
X0044555Y0177259D01*
X0044496Y0177259D02*
X0037764Y0177259D01*
X0038551Y0178066D02*
X0038551Y0187199D01*
X0048315Y0187436D02*
X0048315Y0193577D01*
X0046346Y0195546D01*
X0030992Y0195546D01*
X0028551Y0193499D01*
X0028551Y0187199D01*
X0028551Y0179286D01*
X0029339Y0178499D02*
X0030815Y0177022D01*
X0037793Y0170566D02*
X0019781Y0152554D01*
X0048118Y0148302D02*
X0048118Y0173696D01*
X0051661Y0177514D02*
X0051661Y0168971D01*
X0053827Y0166806D01*
X0070756Y0166806D01*
X0072528Y0165034D01*
X0069772Y0177514D02*
X0058354Y0177514D01*
X0058551Y0177711D02*
X0058551Y0187199D01*
X0048551Y0187199D02*
X0048551Y0180625D01*
X0051661Y0177514D01*
X0077449Y0182948D02*
X0080598Y0179798D01*
X0048118Y0148302D02*
X0050087Y0146333D01*
X0125677Y0148302D02*
X0136057Y0148302D01*
X0144378Y0156176D02*
X0146346Y0154207D01*
X0147331Y0153223D02*
X0147331Y0138997D01*
X0153236Y0138997D02*
X0153236Y0148302D01*
X0159142Y0146105D02*
X0161038Y0148149D01*
X0164895Y0148149D01*
X0168000Y0151255D01*
X0165047Y0144857D02*
X0165047Y0138997D01*
X0159142Y0138997D02*
X0159142Y0146105D01*
X0144378Y0156176D02*
X0142409Y0158144D01*
X0136057Y0158144D01*
X0136057Y0160113D02*
X0141425Y0160113D01*
X0144870Y0163558D01*
X0143886Y0168479D02*
X0142409Y0169955D01*
X0136057Y0169955D01*
X0136057Y0171924D02*
X0143394Y0171924D01*
X0143886Y0174877D01*
X0155205Y0173302D02*
X0155205Y0183197D01*
X0157173Y0183197D02*
X0157173Y0176599D01*
X0168000Y0176599D01*
X0168000Y0175369D01*
X0170953Y0171924D02*
X0156583Y0171924D01*
X0162242Y0178666D02*
X0180697Y0178617D01*
X0181780Y0179798D01*
X0173906Y0173892D02*
X0172921Y0173892D01*
X0170953Y0171924D01*
X0173906Y0167987D02*
X0180257Y0167987D01*
X0180257Y0160113D02*
X0175874Y0160113D01*
X0174890Y0161097D01*
X0172921Y0163066D01*
X0161110Y0179699D02*
X0161110Y0183197D01*
X0180500Y0206865D02*
X0182665Y0209030D01*
X0182665Y0218184D01*
X0182665Y0228026D01*
X0183067Y0228428D01*
X0183067Y0235900D01*
X0183551Y0236384D01*
X0183551Y0247554D01*
X0188669Y0252633D02*
X0185717Y0255093D01*
X0205894Y0255093D01*
X0226071Y0255093D01*
X0246248Y0255093D01*
X0266425Y0255093D01*
X0271839Y0255093D01*
X0273807Y0257062D01*
X0268394Y0253125D02*
X0268394Y0209424D01*
X0261602Y0209325D02*
X0257764Y0209325D01*
X0248709Y0209424D02*
X0248709Y0252633D01*
X0246248Y0255093D01*
X0243551Y0247554D02*
X0243551Y0237329D01*
X0242122Y0235900D01*
X0242122Y0228116D01*
X0242213Y0228026D01*
X0242213Y0218184D01*
X0242016Y0217987D02*
X0242016Y0209424D01*
X0235520Y0218184D02*
X0235520Y0228026D01*
X0235520Y0235203D01*
X0234822Y0235900D01*
X0233551Y0237172D01*
X0233551Y0247554D01*
X0228531Y0252633D02*
X0226071Y0255093D01*
X0228433Y0252534D02*
X0228433Y0209916D01*
X0221740Y0209916D02*
X0221740Y0205979D01*
X0218591Y0202829D01*
X0221740Y0209916D02*
X0221740Y0214247D01*
X0222528Y0215034D01*
X0222528Y0218676D01*
X0222528Y0228518D01*
X0222437Y0228609D01*
X0222437Y0235900D01*
X0223551Y0237014D01*
X0223551Y0247554D01*
X0213551Y0247554D02*
X0213551Y0237486D01*
X0215137Y0235900D01*
X0215137Y0229216D01*
X0215835Y0228518D01*
X0215835Y0218676D01*
X0205303Y0218676D02*
X0203138Y0216510D01*
X0203138Y0209916D01*
X0203236Y0209818D02*
X0203236Y0206570D01*
X0201465Y0204798D01*
X0209831Y0209916D02*
X0209831Y0241806D01*
X0208354Y0243282D01*
X0208354Y0252633D01*
X0205894Y0255093D01*
X0203551Y0247554D02*
X0205115Y0245990D01*
X0205115Y0235900D01*
X0205115Y0228822D01*
X0204811Y0228518D01*
X0198118Y0228518D02*
X0197815Y0228822D01*
X0197815Y0235900D01*
X0193551Y0240164D01*
X0193551Y0247554D01*
X0188669Y0252633D02*
X0188669Y0228518D01*
X0194575Y0222711D01*
X0194575Y0216314D01*
X0189654Y0212377D01*
X0189654Y0219070D02*
X0183551Y0219129D01*
X0175972Y0218184D02*
X0175972Y0228026D01*
X0175767Y0228231D01*
X0175767Y0235900D01*
X0173551Y0238116D01*
X0173551Y0247554D01*
X0168492Y0252633D02*
X0166031Y0255093D01*
X0185717Y0255093D01*
X0168492Y0252633D02*
X0168492Y0228026D01*
X0171937Y0224581D01*
X0171937Y0216806D01*
X0167016Y0212377D01*
X0160126Y0211294D02*
X0160126Y0218577D01*
X0160028Y0218676D02*
X0165638Y0218676D01*
X0160028Y0218676D02*
X0160028Y0228518D01*
X0160233Y0228723D01*
X0160233Y0235900D01*
X0163551Y0239219D01*
X0163551Y0247554D01*
X0166031Y0255093D02*
X0146346Y0255093D01*
X0148315Y0252633D01*
X0148315Y0215723D01*
X0145854Y0213262D01*
X0143492Y0213262D01*
X0139457Y0218676D02*
X0136406Y0218676D01*
X0136406Y0228518D01*
X0136406Y0235843D01*
X0136758Y0236196D02*
X0136758Y0240761D01*
X0143551Y0247554D01*
X0146346Y0255093D02*
X0126169Y0255093D01*
X0133551Y0247554D02*
X0133551Y0240288D01*
X0129458Y0236196D01*
X0129713Y0235941D02*
X0129713Y0228518D01*
X0129713Y0218676D01*
X0136504Y0218577D02*
X0136504Y0211786D01*
X0139457Y0218676D02*
X0140933Y0220152D01*
X0143295Y0220152D01*
X0153335Y0218676D02*
X0153335Y0228518D01*
X0152933Y0228920D01*
X0152933Y0235900D01*
X0153551Y0236519D01*
X0153551Y0247554D01*
X0160126Y0211294D02*
X0157665Y0208833D01*
X0198118Y0219168D02*
X0198118Y0228518D01*
X0253551Y0237644D02*
X0255295Y0235900D01*
X0255295Y0228116D01*
X0255205Y0228026D01*
X0261898Y0228026D02*
X0262595Y0228723D01*
X0262595Y0235900D01*
X0263551Y0236857D01*
X0263551Y0247554D01*
X0268394Y0253125D02*
X0266425Y0255093D01*
X0273650Y0247554D02*
X0281189Y0255093D01*
X0286012Y0255093D01*
X0293551Y0247554D01*
X0293551Y0247770D02*
X0300874Y0255093D01*
X0306051Y0255093D01*
X0313551Y0247593D01*
X0321051Y0255093D01*
X0326012Y0255093D01*
X0333551Y0247554D01*
X0333689Y0247554D02*
X0341228Y0255093D01*
X0346012Y0255093D01*
X0353551Y0247554D01*
X0312528Y0197357D02*
X0293984Y0178814D01*
X0291425Y0178814D01*
X0291425Y0169955D01*
X0284732Y0169955D02*
X0276061Y0161284D01*
X0271225Y0161284D01*
X0271225Y0154020D02*
X0281593Y0154020D01*
X0284732Y0157160D01*
X0291425Y0157160D02*
X0302449Y0157160D01*
X0312213Y0166924D01*
X0291425Y0157160D02*
X0291425Y0148302D01*
X0284732Y0148302D02*
X0282951Y0146520D01*
X0271225Y0146520D01*
X0271225Y0139257D02*
X0280982Y0139257D01*
X0284732Y0135507D01*
X0279811Y0131570D02*
X0284732Y0126648D01*
X0279811Y0131570D02*
X0271346Y0131570D01*
X0271346Y0131757D01*
X0271225Y0131757D01*
X0291425Y0135507D02*
X0291425Y0126648D01*
X0291425Y0135507D02*
X0310717Y0135507D01*
X0312528Y0137318D01*
X0274703Y0168784D02*
X0271225Y0168784D01*
X0274703Y0168784D02*
X0284732Y0178814D01*
X0253551Y0237644D02*
X0253551Y0247554D01*
X0199496Y0142888D02*
X0199811Y0142573D01*
X0199811Y0139070D01*
X0058551Y0217199D02*
X0058000Y0217751D01*
X0058000Y0235625D01*
X0058000Y0242318D02*
X0058000Y0252396D01*
X0053039Y0257357D01*
X0021780Y0257357D01*
X0021740Y0247318D02*
X0043787Y0247318D01*
X0048551Y0242554D01*
X0048551Y0217199D01*
X0038630Y0217278D02*
X0038630Y0230782D01*
X0038472Y0237318D02*
X0021740Y0237318D01*
X0021740Y0227318D02*
X0026780Y0227318D01*
X0028433Y0225664D01*
X0028433Y0217318D01*
D29*
X0072528Y0165034D03*
X0138472Y0189148D03*
X0141819Y0193971D03*
X0147724Y0194562D03*
X0153236Y0194562D03*
X0159142Y0193577D03*
X0159142Y0189148D03*
X0168000Y0175369D03*
X0173906Y0173892D03*
X0173906Y0167987D03*
X0172921Y0163066D03*
X0168000Y0151255D03*
X0165047Y0144857D03*
X0156189Y0152239D03*
X0146346Y0154207D03*
X0145362Y0167003D03*
X0143886Y0174877D03*
X0155205Y0173302D03*
X0139260Y0184522D03*
X0181780Y0179798D03*
X0200480Y0173892D03*
X0254614Y0127633D03*
X0211799Y0124680D03*
X0357961Y0054207D03*
X0357567Y0044955D03*
X0273807Y0257062D03*
X0069378Y0295940D03*
D30*
X0080205Y0289522D02*
X0083551Y0286176D01*
X0083551Y0277554D01*
X0100205Y0289522D02*
X0103551Y0286176D01*
X0103551Y0277554D01*
X0120205Y0289522D02*
X0123551Y0286176D01*
X0123551Y0277554D01*
X0140205Y0289522D02*
X0143551Y0286176D01*
X0143551Y0277554D01*
X0163551Y0277554D02*
X0163551Y0286176D01*
X0160205Y0289522D01*
X0173551Y0277554D02*
X0173551Y0308105D01*
X0174181Y0308735D01*
X0184181Y0308735D02*
X0184181Y0289995D01*
X0185126Y0289050D01*
X0183551Y0283932D02*
X0178433Y0289050D01*
X0183551Y0283932D02*
X0183551Y0277554D01*
X0193551Y0277554D02*
X0193551Y0308105D01*
X0194181Y0308735D01*
X0204181Y0308735D02*
X0204181Y0291648D01*
X0206780Y0289050D01*
X0203551Y0285585D02*
X0200087Y0289050D01*
X0203551Y0285585D02*
X0203551Y0277554D01*
X0213551Y0277554D02*
X0213551Y0308105D01*
X0214181Y0308735D01*
X0224181Y0308735D02*
X0224181Y0293302D01*
X0228433Y0289050D01*
X0223551Y0287239D02*
X0221740Y0289050D01*
X0223551Y0287239D02*
X0223551Y0277554D01*
X0233551Y0277554D02*
X0233551Y0308105D01*
X0234181Y0308735D01*
X0244181Y0308735D02*
X0244181Y0292987D01*
X0248118Y0289050D01*
X0243551Y0286924D02*
X0241425Y0289050D01*
X0243551Y0286924D02*
X0243551Y0277554D01*
X0253551Y0277554D02*
X0253551Y0308105D01*
X0254181Y0308735D01*
X0264181Y0308735D02*
X0264181Y0292672D01*
X0267803Y0289050D01*
X0263551Y0286609D02*
X0261110Y0289050D01*
X0263551Y0286609D02*
X0263551Y0277554D01*
X0273551Y0277554D02*
X0273551Y0307711D01*
X0274575Y0308735D01*
X0284575Y0308735D02*
X0284575Y0291963D01*
X0287488Y0289050D01*
X0283551Y0286294D02*
X0280795Y0289050D01*
X0283551Y0286294D02*
X0283551Y0277554D01*
X0293551Y0277554D02*
X0293551Y0307711D01*
X0294575Y0308735D01*
X0304575Y0308735D02*
X0304575Y0291648D01*
X0307173Y0289050D01*
X0303551Y0285979D02*
X0300480Y0289050D01*
X0303551Y0285979D02*
X0303551Y0277554D01*
X0313551Y0277554D02*
X0313551Y0307711D01*
X0314575Y0308735D01*
X0324575Y0308735D02*
X0324575Y0291333D01*
X0326858Y0289050D01*
X0323551Y0285664D02*
X0320165Y0289050D01*
X0323551Y0285664D02*
X0323551Y0277554D01*
X0333551Y0277554D02*
X0333551Y0307711D01*
X0334575Y0308735D01*
X0344575Y0308735D02*
X0344575Y0291018D01*
X0346543Y0289050D01*
X0343551Y0285349D02*
X0339850Y0289050D01*
X0343551Y0285349D02*
X0343551Y0277554D01*
X0353551Y0277554D02*
X0353551Y0307711D01*
X0354575Y0308735D01*
X0364575Y0308735D02*
X0364575Y0290703D01*
X0366228Y0289050D01*
X0363551Y0285034D02*
X0359535Y0289050D01*
X0363551Y0285034D02*
X0363551Y0277554D01*
X0218255Y0143098D02*
X0218255Y0119870D01*
X0218587Y0119538D01*
X0218571Y0118479D01*
X0205087Y0118525D01*
X0204896Y0118716D01*
X0178237Y0118716D01*
X0178296Y0124935D01*
X0180292Y0124935D01*
X0180398Y0124679D01*
X0181581Y0123495D01*
X0183128Y0122855D01*
X0184801Y0122855D01*
X0185840Y0123285D01*
X0186803Y0122582D01*
X0187304Y0122081D01*
X0187490Y0122081D01*
X0187640Y0121971D01*
X0188341Y0122081D01*
X0189346Y0122081D01*
X0189346Y0121927D01*
X0190287Y0120986D01*
X0195949Y0120986D01*
X0196328Y0121365D01*
X0196540Y0121153D01*
X0196951Y0120916D01*
X0197409Y0120793D01*
X0199627Y0120793D01*
X0199627Y0124377D01*
X0199995Y0124377D01*
X0199995Y0120793D01*
X0202213Y0120793D01*
X0202671Y0120916D01*
X0203082Y0121153D01*
X0203417Y0121488D01*
X0203654Y0121898D01*
X0203776Y0122356D01*
X0203776Y0124377D01*
X0199995Y0124377D01*
X0199995Y0124746D01*
X0199627Y0124746D01*
X0199627Y0128330D01*
X0197409Y0128330D01*
X0196951Y0128208D01*
X0196540Y0127971D01*
X0196328Y0127758D01*
X0195949Y0128137D01*
X0190287Y0128137D01*
X0189346Y0127196D01*
X0189346Y0126295D01*
X0188864Y0126295D01*
X0188172Y0126800D01*
X0188172Y0127899D01*
X0187531Y0129445D01*
X0186348Y0130628D01*
X0184801Y0131269D01*
X0183128Y0131269D01*
X0181581Y0130628D01*
X0180398Y0129445D01*
X0180275Y0129149D01*
X0178992Y0129149D01*
X0179109Y0129266D01*
X0179148Y0129266D01*
X0182852Y0132969D01*
X0183128Y0132855D01*
X0184801Y0132855D01*
X0186348Y0133495D01*
X0187531Y0134679D01*
X0188172Y0136225D01*
X0188172Y0136844D01*
X0189346Y0136844D01*
X0189346Y0136435D01*
X0190287Y0135494D01*
X0195949Y0135494D01*
X0196328Y0135873D01*
X0196540Y0135661D01*
X0196951Y0135424D01*
X0197409Y0135301D01*
X0199627Y0135301D01*
X0199627Y0138885D01*
X0199995Y0138885D01*
X0199995Y0135301D01*
X0202213Y0135301D01*
X0202671Y0135424D01*
X0203082Y0135661D01*
X0203417Y0135996D01*
X0203654Y0136406D01*
X0203776Y0136864D01*
X0203776Y0138885D01*
X0199995Y0138885D01*
X0199995Y0139254D01*
X0199627Y0139254D01*
X0199627Y0142838D01*
X0197409Y0142838D01*
X0196951Y0142715D01*
X0196540Y0142478D01*
X0196328Y0142266D01*
X0195949Y0142645D01*
X0190287Y0142645D01*
X0189346Y0141704D01*
X0189346Y0141059D01*
X0186299Y0141059D01*
X0185519Y0141125D01*
X0185440Y0141059D01*
X0185336Y0141059D01*
X0185328Y0141051D01*
X0184801Y0141269D01*
X0183128Y0141269D01*
X0181581Y0140628D01*
X0180398Y0139445D01*
X0179757Y0137899D01*
X0179757Y0136225D01*
X0179872Y0135949D01*
X0178386Y0134463D01*
X0178472Y0143577D01*
X0217776Y0143577D01*
X0218255Y0143098D01*
X0217926Y0143427D02*
X0178471Y0143427D01*
X0178456Y0141829D02*
X0189471Y0141829D01*
X0193118Y0139070D02*
X0193610Y0138951D01*
X0196932Y0135435D02*
X0187844Y0135435D01*
X0186689Y0133836D02*
X0218255Y0133836D01*
X0218255Y0132238D02*
X0182120Y0132238D01*
X0181608Y0130639D02*
X0180522Y0130639D01*
X0186321Y0130639D02*
X0218255Y0130639D01*
X0218255Y0129041D02*
X0187699Y0129041D01*
X0188172Y0127442D02*
X0189592Y0127442D01*
X0186714Y0122647D02*
X0178274Y0122647D01*
X0178289Y0124245D02*
X0180831Y0124245D01*
X0178259Y0121048D02*
X0190225Y0121048D01*
X0196011Y0121048D02*
X0196722Y0121048D01*
X0199627Y0121048D02*
X0199995Y0121048D01*
X0199995Y0122647D02*
X0199627Y0122647D01*
X0199627Y0124245D02*
X0199995Y0124245D01*
X0199995Y0124746D02*
X0203776Y0124746D01*
X0203776Y0126767D01*
X0203654Y0127225D01*
X0203417Y0127635D01*
X0203082Y0127971D01*
X0202671Y0128208D01*
X0202213Y0128330D01*
X0199995Y0128330D01*
X0199995Y0124746D01*
X0199995Y0125844D02*
X0199627Y0125844D01*
X0199627Y0127442D02*
X0199995Y0127442D01*
X0203528Y0127442D02*
X0218255Y0127442D01*
X0218255Y0125844D02*
X0203776Y0125844D01*
X0203776Y0124245D02*
X0218255Y0124245D01*
X0218255Y0122647D02*
X0203776Y0122647D01*
X0202900Y0121048D02*
X0218255Y0121048D01*
X0218586Y0119450D02*
X0178244Y0119450D01*
X0178395Y0135435D02*
X0179358Y0135435D01*
X0179757Y0137033D02*
X0178410Y0137033D01*
X0178426Y0138632D02*
X0180061Y0138632D01*
X0181183Y0140230D02*
X0178441Y0140230D01*
X0176858Y0142888D02*
X0199496Y0142888D01*
X0199995Y0142838D02*
X0199995Y0139254D01*
X0203776Y0139254D01*
X0203776Y0141275D01*
X0203654Y0141733D01*
X0203417Y0142143D01*
X0203082Y0142478D01*
X0202671Y0142715D01*
X0202213Y0142838D01*
X0199995Y0142838D01*
X0199995Y0141829D02*
X0199627Y0141829D01*
X0199627Y0140230D02*
X0199995Y0140230D01*
X0199995Y0138632D02*
X0199627Y0138632D01*
X0199627Y0137033D02*
X0199995Y0137033D01*
X0199995Y0135435D02*
X0199627Y0135435D01*
X0202690Y0135435D02*
X0218255Y0135435D01*
X0218255Y0137033D02*
X0203776Y0137033D01*
X0203776Y0138632D02*
X0218255Y0138632D01*
X0218255Y0140230D02*
X0203776Y0140230D01*
X0203598Y0141829D02*
X0218255Y0141829D01*
X0176858Y0142888D02*
X0169969Y0148302D01*
X0156189Y0152239D02*
X0156189Y0172318D01*
X0155205Y0173302D01*
X0145362Y0167003D02*
X0143886Y0168479D01*
X0144870Y0166510D02*
X0144870Y0163558D01*
X0146346Y0154207D02*
X0147331Y0153223D01*
X0153236Y0148302D02*
X0156189Y0152239D01*
X0080067Y0099542D02*
X0080008Y0099483D01*
X0060067Y0099542D02*
X0060008Y0099483D01*
X0371740Y0014936D02*
X0371858Y0014936D01*
D31*
X0371858Y0021333D01*
X0371740Y0014936D02*
X0368295Y0011392D01*
X0165536Y0011282D01*
X0015933Y0011491D01*
X0011504Y0016412D01*
X0011504Y0144857D01*
X0019201Y0152554D01*
X0019781Y0152554D01*
X0020539Y0152554D01*
X0030205Y0142888D01*
X0043492Y0142888D01*
X0139949Y0142888D01*
X0143394Y0146333D01*
X0143394Y0151255D01*
X0146346Y0154207D01*
X0168000Y0151255D02*
X0168000Y0148302D01*
X0169969Y0148302D01*
X0199811Y0139070D02*
X0199929Y0138951D01*
X0211799Y0138951D01*
X0211799Y0124680D01*
X0211681Y0124562D01*
X0199811Y0124562D01*
X0200402Y0059483D02*
X0200402Y0059306D01*
X0202449Y0057259D01*
X0202449Y0023381D01*
X0200402Y0021333D01*
X0192606Y0023538D02*
X0192606Y0057259D01*
X0190402Y0059463D01*
X0190402Y0059483D01*
X0182764Y0056766D02*
X0180402Y0059129D01*
X0180402Y0059483D01*
X0182764Y0056766D02*
X0182764Y0023696D01*
X0180402Y0021333D01*
X0172921Y0024286D02*
X0170402Y0021766D01*
X0170402Y0021333D01*
X0172921Y0024286D02*
X0172921Y0056963D01*
X0170402Y0059483D01*
X0162587Y0057298D02*
X0162587Y0023302D01*
X0160618Y0021333D01*
X0160402Y0021333D01*
X0150008Y0021333D02*
X0145362Y0027239D01*
X0145362Y0053814D01*
X0150008Y0059483D01*
X0140008Y0059483D02*
X0140008Y0021333D01*
X0130008Y0021333D02*
X0130008Y0059483D01*
X0120008Y0059483D02*
X0120008Y0021333D01*
X0110008Y0021333D02*
X0110008Y0059483D01*
X0100008Y0059483D02*
X0100008Y0021333D01*
X0090008Y0021333D02*
X0090008Y0059483D01*
X0080008Y0059483D02*
X0080008Y0021333D01*
X0070008Y0021333D02*
X0070008Y0059483D01*
X0064654Y0055782D02*
X0060953Y0059483D01*
X0060008Y0059483D01*
X0064654Y0055782D02*
X0064654Y0025979D01*
X0060008Y0021333D01*
X0160402Y0059483D02*
X0162587Y0057298D01*
X0192606Y0023538D02*
X0190402Y0021333D01*
X0210402Y0021333D02*
X0212783Y0023715D01*
X0212783Y0057259D01*
X0210559Y0059483D01*
X0210402Y0059483D01*
X0220402Y0059483D02*
X0222626Y0057259D01*
X0222626Y0023558D01*
X0220402Y0021333D01*
X0230402Y0021333D02*
X0232469Y0023400D01*
X0232469Y0056766D01*
X0230402Y0058833D01*
X0230402Y0059483D01*
X0240402Y0059483D02*
X0240579Y0059483D01*
X0242803Y0057259D01*
X0242803Y0023735D01*
X0240402Y0021333D01*
X0250402Y0021333D02*
X0252646Y0023577D01*
X0252646Y0057259D01*
X0250421Y0059483D01*
X0250402Y0059483D01*
X0260795Y0059444D02*
X0260795Y0059483D01*
X0260795Y0059444D02*
X0262488Y0057751D01*
X0262488Y0023026D01*
X0260795Y0021333D01*
X0270795Y0021333D02*
X0272823Y0023361D01*
X0272823Y0057259D01*
X0270795Y0059286D01*
X0270795Y0059483D01*
X0280795Y0059483D02*
X0280795Y0059129D01*
X0282665Y0057259D01*
X0282665Y0023203D01*
X0280795Y0021333D01*
X0290795Y0021333D02*
X0292508Y0023046D01*
X0292508Y0057751D01*
X0290795Y0059463D01*
X0290795Y0059483D01*
X0300795Y0059483D02*
X0301110Y0059483D01*
X0302843Y0057751D01*
X0302843Y0023381D01*
X0300795Y0021333D01*
X0310795Y0021333D02*
X0312685Y0023223D01*
X0312685Y0057751D01*
X0310953Y0059483D01*
X0310795Y0059483D01*
X0320795Y0059483D02*
X0322528Y0057751D01*
X0322528Y0023066D01*
X0320795Y0021333D01*
X0330795Y0021333D02*
X0332862Y0023400D01*
X0332862Y0057751D01*
X0331130Y0059483D01*
X0330795Y0059483D01*
X0340795Y0059483D02*
X0340972Y0059483D01*
X0342705Y0057751D01*
X0342705Y0023243D01*
X0340795Y0021333D01*
X0350795Y0021333D02*
X0353039Y0023577D01*
X0353039Y0057259D01*
X0350815Y0059483D01*
X0350795Y0059483D01*
X0360835Y0128420D02*
X0326465Y0128420D01*
X0322528Y0132357D01*
X0322528Y0137318D01*
X0322213Y0166924D02*
X0322213Y0177318D01*
X0325480Y0180585D01*
X0360087Y0180585D01*
X0365835Y0174837D01*
X0338276Y0187278D02*
X0365835Y0214837D01*
X0338276Y0187278D02*
X0325480Y0187278D01*
X0322528Y0190231D01*
X0322528Y0197357D01*
X0365835Y0133420D02*
X0360835Y0128420D01*
M02*
