G75*
%MOIN*%
%OFA0B0*%
%FSLAX25Y25*%
%IPPOS*%
%LPD*%
%AMOC8*
5,1,8,0,0,1.08239X$1,22.5*
%
%ADD10C,0.00000*%
%ADD11C,0.06000*%
%ADD12C,0.06400*%
%ADD13C,0.05600*%
%ADD14R,0.04731X0.04337*%
%ADD15C,0.04800*%
%ADD16C,0.06337*%
%ADD17R,0.04337X0.04731*%
%ADD18C,0.05600*%
%ADD19R,0.01500X0.06200*%
%ADD20R,0.06200X0.01500*%
%ADD21C,0.12211*%
%ADD22R,0.03550X0.03550*%
%ADD23R,0.05400X0.02500*%
%ADD24C,0.08400*%
%ADD25R,0.03400X0.03200*%
D10*
X0008551Y0007554D02*
X0008551Y0322514D01*
X0402252Y0322514D01*
X0402252Y0007554D01*
X0008551Y0007554D01*
X0040047Y0046924D02*
X0040049Y0047077D01*
X0040055Y0047231D01*
X0040065Y0047384D01*
X0040079Y0047536D01*
X0040097Y0047689D01*
X0040119Y0047840D01*
X0040144Y0047991D01*
X0040174Y0048142D01*
X0040208Y0048292D01*
X0040245Y0048440D01*
X0040286Y0048588D01*
X0040331Y0048734D01*
X0040380Y0048880D01*
X0040433Y0049024D01*
X0040489Y0049166D01*
X0040549Y0049307D01*
X0040613Y0049447D01*
X0040680Y0049585D01*
X0040751Y0049721D01*
X0040826Y0049855D01*
X0040903Y0049987D01*
X0040985Y0050117D01*
X0041069Y0050245D01*
X0041157Y0050371D01*
X0041248Y0050494D01*
X0041342Y0050615D01*
X0041440Y0050733D01*
X0041540Y0050849D01*
X0041644Y0050962D01*
X0041750Y0051073D01*
X0041859Y0051181D01*
X0041971Y0051286D01*
X0042085Y0051387D01*
X0042203Y0051486D01*
X0042322Y0051582D01*
X0042444Y0051675D01*
X0042569Y0051764D01*
X0042696Y0051851D01*
X0042825Y0051933D01*
X0042956Y0052013D01*
X0043089Y0052089D01*
X0043224Y0052162D01*
X0043361Y0052231D01*
X0043500Y0052296D01*
X0043640Y0052358D01*
X0043782Y0052416D01*
X0043925Y0052471D01*
X0044070Y0052522D01*
X0044216Y0052569D01*
X0044363Y0052612D01*
X0044511Y0052651D01*
X0044660Y0052687D01*
X0044810Y0052718D01*
X0044961Y0052746D01*
X0045112Y0052770D01*
X0045265Y0052790D01*
X0045417Y0052806D01*
X0045570Y0052818D01*
X0045723Y0052826D01*
X0045876Y0052830D01*
X0046030Y0052830D01*
X0046183Y0052826D01*
X0046336Y0052818D01*
X0046489Y0052806D01*
X0046641Y0052790D01*
X0046794Y0052770D01*
X0046945Y0052746D01*
X0047096Y0052718D01*
X0047246Y0052687D01*
X0047395Y0052651D01*
X0047543Y0052612D01*
X0047690Y0052569D01*
X0047836Y0052522D01*
X0047981Y0052471D01*
X0048124Y0052416D01*
X0048266Y0052358D01*
X0048406Y0052296D01*
X0048545Y0052231D01*
X0048682Y0052162D01*
X0048817Y0052089D01*
X0048950Y0052013D01*
X0049081Y0051933D01*
X0049210Y0051851D01*
X0049337Y0051764D01*
X0049462Y0051675D01*
X0049584Y0051582D01*
X0049703Y0051486D01*
X0049821Y0051387D01*
X0049935Y0051286D01*
X0050047Y0051181D01*
X0050156Y0051073D01*
X0050262Y0050962D01*
X0050366Y0050849D01*
X0050466Y0050733D01*
X0050564Y0050615D01*
X0050658Y0050494D01*
X0050749Y0050371D01*
X0050837Y0050245D01*
X0050921Y0050117D01*
X0051003Y0049987D01*
X0051080Y0049855D01*
X0051155Y0049721D01*
X0051226Y0049585D01*
X0051293Y0049447D01*
X0051357Y0049307D01*
X0051417Y0049166D01*
X0051473Y0049024D01*
X0051526Y0048880D01*
X0051575Y0048734D01*
X0051620Y0048588D01*
X0051661Y0048440D01*
X0051698Y0048292D01*
X0051732Y0048142D01*
X0051762Y0047991D01*
X0051787Y0047840D01*
X0051809Y0047689D01*
X0051827Y0047536D01*
X0051841Y0047384D01*
X0051851Y0047231D01*
X0051857Y0047077D01*
X0051859Y0046924D01*
X0051857Y0046771D01*
X0051851Y0046617D01*
X0051841Y0046464D01*
X0051827Y0046312D01*
X0051809Y0046159D01*
X0051787Y0046008D01*
X0051762Y0045857D01*
X0051732Y0045706D01*
X0051698Y0045556D01*
X0051661Y0045408D01*
X0051620Y0045260D01*
X0051575Y0045114D01*
X0051526Y0044968D01*
X0051473Y0044824D01*
X0051417Y0044682D01*
X0051357Y0044541D01*
X0051293Y0044401D01*
X0051226Y0044263D01*
X0051155Y0044127D01*
X0051080Y0043993D01*
X0051003Y0043861D01*
X0050921Y0043731D01*
X0050837Y0043603D01*
X0050749Y0043477D01*
X0050658Y0043354D01*
X0050564Y0043233D01*
X0050466Y0043115D01*
X0050366Y0042999D01*
X0050262Y0042886D01*
X0050156Y0042775D01*
X0050047Y0042667D01*
X0049935Y0042562D01*
X0049821Y0042461D01*
X0049703Y0042362D01*
X0049584Y0042266D01*
X0049462Y0042173D01*
X0049337Y0042084D01*
X0049210Y0041997D01*
X0049081Y0041915D01*
X0048950Y0041835D01*
X0048817Y0041759D01*
X0048682Y0041686D01*
X0048545Y0041617D01*
X0048406Y0041552D01*
X0048266Y0041490D01*
X0048124Y0041432D01*
X0047981Y0041377D01*
X0047836Y0041326D01*
X0047690Y0041279D01*
X0047543Y0041236D01*
X0047395Y0041197D01*
X0047246Y0041161D01*
X0047096Y0041130D01*
X0046945Y0041102D01*
X0046794Y0041078D01*
X0046641Y0041058D01*
X0046489Y0041042D01*
X0046336Y0041030D01*
X0046183Y0041022D01*
X0046030Y0041018D01*
X0045876Y0041018D01*
X0045723Y0041022D01*
X0045570Y0041030D01*
X0045417Y0041042D01*
X0045265Y0041058D01*
X0045112Y0041078D01*
X0044961Y0041102D01*
X0044810Y0041130D01*
X0044660Y0041161D01*
X0044511Y0041197D01*
X0044363Y0041236D01*
X0044216Y0041279D01*
X0044070Y0041326D01*
X0043925Y0041377D01*
X0043782Y0041432D01*
X0043640Y0041490D01*
X0043500Y0041552D01*
X0043361Y0041617D01*
X0043224Y0041686D01*
X0043089Y0041759D01*
X0042956Y0041835D01*
X0042825Y0041915D01*
X0042696Y0041997D01*
X0042569Y0042084D01*
X0042444Y0042173D01*
X0042322Y0042266D01*
X0042203Y0042362D01*
X0042085Y0042461D01*
X0041971Y0042562D01*
X0041859Y0042667D01*
X0041750Y0042775D01*
X0041644Y0042886D01*
X0041540Y0042999D01*
X0041440Y0043115D01*
X0041342Y0043233D01*
X0041248Y0043354D01*
X0041157Y0043477D01*
X0041069Y0043603D01*
X0040985Y0043731D01*
X0040903Y0043861D01*
X0040826Y0043993D01*
X0040751Y0044127D01*
X0040680Y0044263D01*
X0040613Y0044401D01*
X0040549Y0044541D01*
X0040489Y0044682D01*
X0040433Y0044824D01*
X0040380Y0044968D01*
X0040331Y0045114D01*
X0040286Y0045260D01*
X0040245Y0045408D01*
X0040208Y0045556D01*
X0040174Y0045706D01*
X0040144Y0045857D01*
X0040119Y0046008D01*
X0040097Y0046159D01*
X0040079Y0046312D01*
X0040065Y0046464D01*
X0040055Y0046617D01*
X0040049Y0046771D01*
X0040047Y0046924D01*
X0040047Y0302829D02*
X0040049Y0302982D01*
X0040055Y0303136D01*
X0040065Y0303289D01*
X0040079Y0303441D01*
X0040097Y0303594D01*
X0040119Y0303745D01*
X0040144Y0303896D01*
X0040174Y0304047D01*
X0040208Y0304197D01*
X0040245Y0304345D01*
X0040286Y0304493D01*
X0040331Y0304639D01*
X0040380Y0304785D01*
X0040433Y0304929D01*
X0040489Y0305071D01*
X0040549Y0305212D01*
X0040613Y0305352D01*
X0040680Y0305490D01*
X0040751Y0305626D01*
X0040826Y0305760D01*
X0040903Y0305892D01*
X0040985Y0306022D01*
X0041069Y0306150D01*
X0041157Y0306276D01*
X0041248Y0306399D01*
X0041342Y0306520D01*
X0041440Y0306638D01*
X0041540Y0306754D01*
X0041644Y0306867D01*
X0041750Y0306978D01*
X0041859Y0307086D01*
X0041971Y0307191D01*
X0042085Y0307292D01*
X0042203Y0307391D01*
X0042322Y0307487D01*
X0042444Y0307580D01*
X0042569Y0307669D01*
X0042696Y0307756D01*
X0042825Y0307838D01*
X0042956Y0307918D01*
X0043089Y0307994D01*
X0043224Y0308067D01*
X0043361Y0308136D01*
X0043500Y0308201D01*
X0043640Y0308263D01*
X0043782Y0308321D01*
X0043925Y0308376D01*
X0044070Y0308427D01*
X0044216Y0308474D01*
X0044363Y0308517D01*
X0044511Y0308556D01*
X0044660Y0308592D01*
X0044810Y0308623D01*
X0044961Y0308651D01*
X0045112Y0308675D01*
X0045265Y0308695D01*
X0045417Y0308711D01*
X0045570Y0308723D01*
X0045723Y0308731D01*
X0045876Y0308735D01*
X0046030Y0308735D01*
X0046183Y0308731D01*
X0046336Y0308723D01*
X0046489Y0308711D01*
X0046641Y0308695D01*
X0046794Y0308675D01*
X0046945Y0308651D01*
X0047096Y0308623D01*
X0047246Y0308592D01*
X0047395Y0308556D01*
X0047543Y0308517D01*
X0047690Y0308474D01*
X0047836Y0308427D01*
X0047981Y0308376D01*
X0048124Y0308321D01*
X0048266Y0308263D01*
X0048406Y0308201D01*
X0048545Y0308136D01*
X0048682Y0308067D01*
X0048817Y0307994D01*
X0048950Y0307918D01*
X0049081Y0307838D01*
X0049210Y0307756D01*
X0049337Y0307669D01*
X0049462Y0307580D01*
X0049584Y0307487D01*
X0049703Y0307391D01*
X0049821Y0307292D01*
X0049935Y0307191D01*
X0050047Y0307086D01*
X0050156Y0306978D01*
X0050262Y0306867D01*
X0050366Y0306754D01*
X0050466Y0306638D01*
X0050564Y0306520D01*
X0050658Y0306399D01*
X0050749Y0306276D01*
X0050837Y0306150D01*
X0050921Y0306022D01*
X0051003Y0305892D01*
X0051080Y0305760D01*
X0051155Y0305626D01*
X0051226Y0305490D01*
X0051293Y0305352D01*
X0051357Y0305212D01*
X0051417Y0305071D01*
X0051473Y0304929D01*
X0051526Y0304785D01*
X0051575Y0304639D01*
X0051620Y0304493D01*
X0051661Y0304345D01*
X0051698Y0304197D01*
X0051732Y0304047D01*
X0051762Y0303896D01*
X0051787Y0303745D01*
X0051809Y0303594D01*
X0051827Y0303441D01*
X0051841Y0303289D01*
X0051851Y0303136D01*
X0051857Y0302982D01*
X0051859Y0302829D01*
X0051857Y0302676D01*
X0051851Y0302522D01*
X0051841Y0302369D01*
X0051827Y0302217D01*
X0051809Y0302064D01*
X0051787Y0301913D01*
X0051762Y0301762D01*
X0051732Y0301611D01*
X0051698Y0301461D01*
X0051661Y0301313D01*
X0051620Y0301165D01*
X0051575Y0301019D01*
X0051526Y0300873D01*
X0051473Y0300729D01*
X0051417Y0300587D01*
X0051357Y0300446D01*
X0051293Y0300306D01*
X0051226Y0300168D01*
X0051155Y0300032D01*
X0051080Y0299898D01*
X0051003Y0299766D01*
X0050921Y0299636D01*
X0050837Y0299508D01*
X0050749Y0299382D01*
X0050658Y0299259D01*
X0050564Y0299138D01*
X0050466Y0299020D01*
X0050366Y0298904D01*
X0050262Y0298791D01*
X0050156Y0298680D01*
X0050047Y0298572D01*
X0049935Y0298467D01*
X0049821Y0298366D01*
X0049703Y0298267D01*
X0049584Y0298171D01*
X0049462Y0298078D01*
X0049337Y0297989D01*
X0049210Y0297902D01*
X0049081Y0297820D01*
X0048950Y0297740D01*
X0048817Y0297664D01*
X0048682Y0297591D01*
X0048545Y0297522D01*
X0048406Y0297457D01*
X0048266Y0297395D01*
X0048124Y0297337D01*
X0047981Y0297282D01*
X0047836Y0297231D01*
X0047690Y0297184D01*
X0047543Y0297141D01*
X0047395Y0297102D01*
X0047246Y0297066D01*
X0047096Y0297035D01*
X0046945Y0297007D01*
X0046794Y0296983D01*
X0046641Y0296963D01*
X0046489Y0296947D01*
X0046336Y0296935D01*
X0046183Y0296927D01*
X0046030Y0296923D01*
X0045876Y0296923D01*
X0045723Y0296927D01*
X0045570Y0296935D01*
X0045417Y0296947D01*
X0045265Y0296963D01*
X0045112Y0296983D01*
X0044961Y0297007D01*
X0044810Y0297035D01*
X0044660Y0297066D01*
X0044511Y0297102D01*
X0044363Y0297141D01*
X0044216Y0297184D01*
X0044070Y0297231D01*
X0043925Y0297282D01*
X0043782Y0297337D01*
X0043640Y0297395D01*
X0043500Y0297457D01*
X0043361Y0297522D01*
X0043224Y0297591D01*
X0043089Y0297664D01*
X0042956Y0297740D01*
X0042825Y0297820D01*
X0042696Y0297902D01*
X0042569Y0297989D01*
X0042444Y0298078D01*
X0042322Y0298171D01*
X0042203Y0298267D01*
X0042085Y0298366D01*
X0041971Y0298467D01*
X0041859Y0298572D01*
X0041750Y0298680D01*
X0041644Y0298791D01*
X0041540Y0298904D01*
X0041440Y0299020D01*
X0041342Y0299138D01*
X0041248Y0299259D01*
X0041157Y0299382D01*
X0041069Y0299508D01*
X0040985Y0299636D01*
X0040903Y0299766D01*
X0040826Y0299898D01*
X0040751Y0300032D01*
X0040680Y0300168D01*
X0040613Y0300306D01*
X0040549Y0300446D01*
X0040489Y0300587D01*
X0040433Y0300729D01*
X0040380Y0300873D01*
X0040331Y0301019D01*
X0040286Y0301165D01*
X0040245Y0301313D01*
X0040208Y0301461D01*
X0040174Y0301611D01*
X0040144Y0301762D01*
X0040119Y0301913D01*
X0040097Y0302064D01*
X0040079Y0302217D01*
X0040065Y0302369D01*
X0040055Y0302522D01*
X0040049Y0302676D01*
X0040047Y0302829D01*
X0386503Y0302829D02*
X0386505Y0302982D01*
X0386511Y0303136D01*
X0386521Y0303289D01*
X0386535Y0303441D01*
X0386553Y0303594D01*
X0386575Y0303745D01*
X0386600Y0303896D01*
X0386630Y0304047D01*
X0386664Y0304197D01*
X0386701Y0304345D01*
X0386742Y0304493D01*
X0386787Y0304639D01*
X0386836Y0304785D01*
X0386889Y0304929D01*
X0386945Y0305071D01*
X0387005Y0305212D01*
X0387069Y0305352D01*
X0387136Y0305490D01*
X0387207Y0305626D01*
X0387282Y0305760D01*
X0387359Y0305892D01*
X0387441Y0306022D01*
X0387525Y0306150D01*
X0387613Y0306276D01*
X0387704Y0306399D01*
X0387798Y0306520D01*
X0387896Y0306638D01*
X0387996Y0306754D01*
X0388100Y0306867D01*
X0388206Y0306978D01*
X0388315Y0307086D01*
X0388427Y0307191D01*
X0388541Y0307292D01*
X0388659Y0307391D01*
X0388778Y0307487D01*
X0388900Y0307580D01*
X0389025Y0307669D01*
X0389152Y0307756D01*
X0389281Y0307838D01*
X0389412Y0307918D01*
X0389545Y0307994D01*
X0389680Y0308067D01*
X0389817Y0308136D01*
X0389956Y0308201D01*
X0390096Y0308263D01*
X0390238Y0308321D01*
X0390381Y0308376D01*
X0390526Y0308427D01*
X0390672Y0308474D01*
X0390819Y0308517D01*
X0390967Y0308556D01*
X0391116Y0308592D01*
X0391266Y0308623D01*
X0391417Y0308651D01*
X0391568Y0308675D01*
X0391721Y0308695D01*
X0391873Y0308711D01*
X0392026Y0308723D01*
X0392179Y0308731D01*
X0392332Y0308735D01*
X0392486Y0308735D01*
X0392639Y0308731D01*
X0392792Y0308723D01*
X0392945Y0308711D01*
X0393097Y0308695D01*
X0393250Y0308675D01*
X0393401Y0308651D01*
X0393552Y0308623D01*
X0393702Y0308592D01*
X0393851Y0308556D01*
X0393999Y0308517D01*
X0394146Y0308474D01*
X0394292Y0308427D01*
X0394437Y0308376D01*
X0394580Y0308321D01*
X0394722Y0308263D01*
X0394862Y0308201D01*
X0395001Y0308136D01*
X0395138Y0308067D01*
X0395273Y0307994D01*
X0395406Y0307918D01*
X0395537Y0307838D01*
X0395666Y0307756D01*
X0395793Y0307669D01*
X0395918Y0307580D01*
X0396040Y0307487D01*
X0396159Y0307391D01*
X0396277Y0307292D01*
X0396391Y0307191D01*
X0396503Y0307086D01*
X0396612Y0306978D01*
X0396718Y0306867D01*
X0396822Y0306754D01*
X0396922Y0306638D01*
X0397020Y0306520D01*
X0397114Y0306399D01*
X0397205Y0306276D01*
X0397293Y0306150D01*
X0397377Y0306022D01*
X0397459Y0305892D01*
X0397536Y0305760D01*
X0397611Y0305626D01*
X0397682Y0305490D01*
X0397749Y0305352D01*
X0397813Y0305212D01*
X0397873Y0305071D01*
X0397929Y0304929D01*
X0397982Y0304785D01*
X0398031Y0304639D01*
X0398076Y0304493D01*
X0398117Y0304345D01*
X0398154Y0304197D01*
X0398188Y0304047D01*
X0398218Y0303896D01*
X0398243Y0303745D01*
X0398265Y0303594D01*
X0398283Y0303441D01*
X0398297Y0303289D01*
X0398307Y0303136D01*
X0398313Y0302982D01*
X0398315Y0302829D01*
X0398313Y0302676D01*
X0398307Y0302522D01*
X0398297Y0302369D01*
X0398283Y0302217D01*
X0398265Y0302064D01*
X0398243Y0301913D01*
X0398218Y0301762D01*
X0398188Y0301611D01*
X0398154Y0301461D01*
X0398117Y0301313D01*
X0398076Y0301165D01*
X0398031Y0301019D01*
X0397982Y0300873D01*
X0397929Y0300729D01*
X0397873Y0300587D01*
X0397813Y0300446D01*
X0397749Y0300306D01*
X0397682Y0300168D01*
X0397611Y0300032D01*
X0397536Y0299898D01*
X0397459Y0299766D01*
X0397377Y0299636D01*
X0397293Y0299508D01*
X0397205Y0299382D01*
X0397114Y0299259D01*
X0397020Y0299138D01*
X0396922Y0299020D01*
X0396822Y0298904D01*
X0396718Y0298791D01*
X0396612Y0298680D01*
X0396503Y0298572D01*
X0396391Y0298467D01*
X0396277Y0298366D01*
X0396159Y0298267D01*
X0396040Y0298171D01*
X0395918Y0298078D01*
X0395793Y0297989D01*
X0395666Y0297902D01*
X0395537Y0297820D01*
X0395406Y0297740D01*
X0395273Y0297664D01*
X0395138Y0297591D01*
X0395001Y0297522D01*
X0394862Y0297457D01*
X0394722Y0297395D01*
X0394580Y0297337D01*
X0394437Y0297282D01*
X0394292Y0297231D01*
X0394146Y0297184D01*
X0393999Y0297141D01*
X0393851Y0297102D01*
X0393702Y0297066D01*
X0393552Y0297035D01*
X0393401Y0297007D01*
X0393250Y0296983D01*
X0393097Y0296963D01*
X0392945Y0296947D01*
X0392792Y0296935D01*
X0392639Y0296927D01*
X0392486Y0296923D01*
X0392332Y0296923D01*
X0392179Y0296927D01*
X0392026Y0296935D01*
X0391873Y0296947D01*
X0391721Y0296963D01*
X0391568Y0296983D01*
X0391417Y0297007D01*
X0391266Y0297035D01*
X0391116Y0297066D01*
X0390967Y0297102D01*
X0390819Y0297141D01*
X0390672Y0297184D01*
X0390526Y0297231D01*
X0390381Y0297282D01*
X0390238Y0297337D01*
X0390096Y0297395D01*
X0389956Y0297457D01*
X0389817Y0297522D01*
X0389680Y0297591D01*
X0389545Y0297664D01*
X0389412Y0297740D01*
X0389281Y0297820D01*
X0389152Y0297902D01*
X0389025Y0297989D01*
X0388900Y0298078D01*
X0388778Y0298171D01*
X0388659Y0298267D01*
X0388541Y0298366D01*
X0388427Y0298467D01*
X0388315Y0298572D01*
X0388206Y0298680D01*
X0388100Y0298791D01*
X0387996Y0298904D01*
X0387896Y0299020D01*
X0387798Y0299138D01*
X0387704Y0299259D01*
X0387613Y0299382D01*
X0387525Y0299508D01*
X0387441Y0299636D01*
X0387359Y0299766D01*
X0387282Y0299898D01*
X0387207Y0300032D01*
X0387136Y0300168D01*
X0387069Y0300306D01*
X0387005Y0300446D01*
X0386945Y0300587D01*
X0386889Y0300729D01*
X0386836Y0300873D01*
X0386787Y0301019D01*
X0386742Y0301165D01*
X0386701Y0301313D01*
X0386664Y0301461D01*
X0386630Y0301611D01*
X0386600Y0301762D01*
X0386575Y0301913D01*
X0386553Y0302064D01*
X0386535Y0302217D01*
X0386521Y0302369D01*
X0386511Y0302522D01*
X0386505Y0302676D01*
X0386503Y0302829D01*
X0386503Y0046924D02*
X0386505Y0047077D01*
X0386511Y0047231D01*
X0386521Y0047384D01*
X0386535Y0047536D01*
X0386553Y0047689D01*
X0386575Y0047840D01*
X0386600Y0047991D01*
X0386630Y0048142D01*
X0386664Y0048292D01*
X0386701Y0048440D01*
X0386742Y0048588D01*
X0386787Y0048734D01*
X0386836Y0048880D01*
X0386889Y0049024D01*
X0386945Y0049166D01*
X0387005Y0049307D01*
X0387069Y0049447D01*
X0387136Y0049585D01*
X0387207Y0049721D01*
X0387282Y0049855D01*
X0387359Y0049987D01*
X0387441Y0050117D01*
X0387525Y0050245D01*
X0387613Y0050371D01*
X0387704Y0050494D01*
X0387798Y0050615D01*
X0387896Y0050733D01*
X0387996Y0050849D01*
X0388100Y0050962D01*
X0388206Y0051073D01*
X0388315Y0051181D01*
X0388427Y0051286D01*
X0388541Y0051387D01*
X0388659Y0051486D01*
X0388778Y0051582D01*
X0388900Y0051675D01*
X0389025Y0051764D01*
X0389152Y0051851D01*
X0389281Y0051933D01*
X0389412Y0052013D01*
X0389545Y0052089D01*
X0389680Y0052162D01*
X0389817Y0052231D01*
X0389956Y0052296D01*
X0390096Y0052358D01*
X0390238Y0052416D01*
X0390381Y0052471D01*
X0390526Y0052522D01*
X0390672Y0052569D01*
X0390819Y0052612D01*
X0390967Y0052651D01*
X0391116Y0052687D01*
X0391266Y0052718D01*
X0391417Y0052746D01*
X0391568Y0052770D01*
X0391721Y0052790D01*
X0391873Y0052806D01*
X0392026Y0052818D01*
X0392179Y0052826D01*
X0392332Y0052830D01*
X0392486Y0052830D01*
X0392639Y0052826D01*
X0392792Y0052818D01*
X0392945Y0052806D01*
X0393097Y0052790D01*
X0393250Y0052770D01*
X0393401Y0052746D01*
X0393552Y0052718D01*
X0393702Y0052687D01*
X0393851Y0052651D01*
X0393999Y0052612D01*
X0394146Y0052569D01*
X0394292Y0052522D01*
X0394437Y0052471D01*
X0394580Y0052416D01*
X0394722Y0052358D01*
X0394862Y0052296D01*
X0395001Y0052231D01*
X0395138Y0052162D01*
X0395273Y0052089D01*
X0395406Y0052013D01*
X0395537Y0051933D01*
X0395666Y0051851D01*
X0395793Y0051764D01*
X0395918Y0051675D01*
X0396040Y0051582D01*
X0396159Y0051486D01*
X0396277Y0051387D01*
X0396391Y0051286D01*
X0396503Y0051181D01*
X0396612Y0051073D01*
X0396718Y0050962D01*
X0396822Y0050849D01*
X0396922Y0050733D01*
X0397020Y0050615D01*
X0397114Y0050494D01*
X0397205Y0050371D01*
X0397293Y0050245D01*
X0397377Y0050117D01*
X0397459Y0049987D01*
X0397536Y0049855D01*
X0397611Y0049721D01*
X0397682Y0049585D01*
X0397749Y0049447D01*
X0397813Y0049307D01*
X0397873Y0049166D01*
X0397929Y0049024D01*
X0397982Y0048880D01*
X0398031Y0048734D01*
X0398076Y0048588D01*
X0398117Y0048440D01*
X0398154Y0048292D01*
X0398188Y0048142D01*
X0398218Y0047991D01*
X0398243Y0047840D01*
X0398265Y0047689D01*
X0398283Y0047536D01*
X0398297Y0047384D01*
X0398307Y0047231D01*
X0398313Y0047077D01*
X0398315Y0046924D01*
X0398313Y0046771D01*
X0398307Y0046617D01*
X0398297Y0046464D01*
X0398283Y0046312D01*
X0398265Y0046159D01*
X0398243Y0046008D01*
X0398218Y0045857D01*
X0398188Y0045706D01*
X0398154Y0045556D01*
X0398117Y0045408D01*
X0398076Y0045260D01*
X0398031Y0045114D01*
X0397982Y0044968D01*
X0397929Y0044824D01*
X0397873Y0044682D01*
X0397813Y0044541D01*
X0397749Y0044401D01*
X0397682Y0044263D01*
X0397611Y0044127D01*
X0397536Y0043993D01*
X0397459Y0043861D01*
X0397377Y0043731D01*
X0397293Y0043603D01*
X0397205Y0043477D01*
X0397114Y0043354D01*
X0397020Y0043233D01*
X0396922Y0043115D01*
X0396822Y0042999D01*
X0396718Y0042886D01*
X0396612Y0042775D01*
X0396503Y0042667D01*
X0396391Y0042562D01*
X0396277Y0042461D01*
X0396159Y0042362D01*
X0396040Y0042266D01*
X0395918Y0042173D01*
X0395793Y0042084D01*
X0395666Y0041997D01*
X0395537Y0041915D01*
X0395406Y0041835D01*
X0395273Y0041759D01*
X0395138Y0041686D01*
X0395001Y0041617D01*
X0394862Y0041552D01*
X0394722Y0041490D01*
X0394580Y0041432D01*
X0394437Y0041377D01*
X0394292Y0041326D01*
X0394146Y0041279D01*
X0393999Y0041236D01*
X0393851Y0041197D01*
X0393702Y0041161D01*
X0393552Y0041130D01*
X0393401Y0041102D01*
X0393250Y0041078D01*
X0393097Y0041058D01*
X0392945Y0041042D01*
X0392792Y0041030D01*
X0392639Y0041022D01*
X0392486Y0041018D01*
X0392332Y0041018D01*
X0392179Y0041022D01*
X0392026Y0041030D01*
X0391873Y0041042D01*
X0391721Y0041058D01*
X0391568Y0041078D01*
X0391417Y0041102D01*
X0391266Y0041130D01*
X0391116Y0041161D01*
X0390967Y0041197D01*
X0390819Y0041236D01*
X0390672Y0041279D01*
X0390526Y0041326D01*
X0390381Y0041377D01*
X0390238Y0041432D01*
X0390096Y0041490D01*
X0389956Y0041552D01*
X0389817Y0041617D01*
X0389680Y0041686D01*
X0389545Y0041759D01*
X0389412Y0041835D01*
X0389281Y0041915D01*
X0389152Y0041997D01*
X0389025Y0042084D01*
X0388900Y0042173D01*
X0388778Y0042266D01*
X0388659Y0042362D01*
X0388541Y0042461D01*
X0388427Y0042562D01*
X0388315Y0042667D01*
X0388206Y0042775D01*
X0388100Y0042886D01*
X0387996Y0042999D01*
X0387896Y0043115D01*
X0387798Y0043233D01*
X0387704Y0043354D01*
X0387613Y0043477D01*
X0387525Y0043603D01*
X0387441Y0043731D01*
X0387359Y0043861D01*
X0387282Y0043993D01*
X0387207Y0044127D01*
X0387136Y0044263D01*
X0387069Y0044401D01*
X0387005Y0044541D01*
X0386945Y0044682D01*
X0386889Y0044824D01*
X0386836Y0044968D01*
X0386787Y0045114D01*
X0386742Y0045260D01*
X0386701Y0045408D01*
X0386664Y0045556D01*
X0386630Y0045706D01*
X0386600Y0045857D01*
X0386575Y0046008D01*
X0386553Y0046159D01*
X0386535Y0046312D01*
X0386521Y0046464D01*
X0386511Y0046617D01*
X0386505Y0046771D01*
X0386503Y0046924D01*
D11*
X0064181Y0156959D02*
X0064181Y0162559D01*
X0054181Y0162559D02*
X0054181Y0156959D01*
D12*
X0022781Y0152554D02*
X0016781Y0152554D01*
X0016781Y0162554D02*
X0022781Y0162554D01*
X0022781Y0142554D02*
X0016781Y0142554D01*
X0016781Y0132554D02*
X0022781Y0132554D01*
X0022781Y0122554D02*
X0016781Y0122554D01*
X0016781Y0112554D02*
X0022781Y0112554D01*
X0312528Y0134318D02*
X0312528Y0140318D01*
X0322528Y0140318D02*
X0322528Y0134318D01*
X0332528Y0134318D02*
X0332528Y0140318D01*
X0332213Y0163924D02*
X0332213Y0169924D01*
X0322213Y0169924D02*
X0322213Y0163924D01*
X0312213Y0163924D02*
X0312213Y0169924D01*
X0312528Y0194357D02*
X0312528Y0200357D01*
X0322528Y0200357D02*
X0322528Y0194357D01*
X0332528Y0194357D02*
X0332528Y0200357D01*
D13*
X0183965Y0137062D03*
X0183965Y0127062D03*
D14*
X0193118Y0124562D03*
X0199811Y0124562D03*
X0199811Y0139070D03*
X0193118Y0139070D03*
X0190559Y0106235D03*
X0190559Y0099542D03*
X0180559Y0099542D03*
X0180559Y0106235D03*
X0170559Y0106235D03*
X0170559Y0099542D03*
X0160559Y0099542D03*
X0160559Y0106235D03*
X0150067Y0106235D03*
X0150067Y0099542D03*
X0140067Y0099542D03*
X0140067Y0106235D03*
X0130067Y0106235D03*
X0130067Y0099542D03*
X0120067Y0099542D03*
X0120067Y0106235D03*
X0110067Y0106235D03*
X0110067Y0099542D03*
X0100067Y0099542D03*
X0100067Y0106235D03*
X0090067Y0106235D03*
X0090067Y0099542D03*
X0080067Y0099542D03*
X0080067Y0106235D03*
X0069575Y0106235D03*
X0069575Y0099542D03*
X0060067Y0099542D03*
X0060067Y0106235D03*
X0044496Y0170566D03*
X0044496Y0177259D03*
X0037508Y0177022D03*
X0030815Y0177022D03*
X0051661Y0177514D03*
X0058354Y0177514D03*
X0070657Y0177731D03*
X0070657Y0184424D03*
X0098118Y0204995D03*
X0098118Y0211688D03*
X0114358Y0211688D03*
X0114358Y0204995D03*
X0115736Y0228518D03*
X0109043Y0228518D03*
X0099496Y0228518D03*
X0092803Y0228518D03*
X0077350Y0228518D03*
X0070657Y0228518D03*
X0058000Y0235625D03*
X0058000Y0242318D03*
X0038630Y0237475D03*
X0038630Y0230782D03*
X0129713Y0228518D03*
X0136406Y0228518D03*
X0143394Y0219070D03*
X0143394Y0212377D03*
X0153335Y0228518D03*
X0160028Y0228518D03*
X0167016Y0219070D03*
X0167016Y0212377D03*
X0175972Y0228026D03*
X0182665Y0228026D03*
X0189654Y0219070D03*
X0189654Y0212377D03*
X0198118Y0228518D03*
X0204811Y0228518D03*
X0215835Y0228518D03*
X0222528Y0228518D03*
X0235520Y0228026D03*
X0242213Y0228026D03*
X0255205Y0228026D03*
X0261898Y0228026D03*
X0260559Y0106235D03*
X0260559Y0099542D03*
X0250559Y0099542D03*
X0250559Y0106235D03*
X0240559Y0106235D03*
X0240559Y0099542D03*
X0230559Y0099542D03*
X0230559Y0106235D03*
X0220559Y0106235D03*
X0220559Y0099542D03*
X0210559Y0099542D03*
X0210559Y0106235D03*
X0200559Y0106235D03*
X0200559Y0099542D03*
X0270559Y0099542D03*
X0270559Y0106235D03*
X0281051Y0106235D03*
X0281051Y0099542D03*
X0289476Y0099542D03*
X0289476Y0106235D03*
X0298689Y0106235D03*
X0298689Y0099542D03*
X0307114Y0099542D03*
X0307114Y0106235D03*
X0316327Y0106235D03*
X0316327Y0099542D03*
X0324752Y0099542D03*
X0324752Y0106235D03*
X0334161Y0106235D03*
X0334161Y0099542D03*
X0342390Y0099542D03*
X0342390Y0106235D03*
D15*
X0387685Y0253656D03*
X0387685Y0263656D03*
X0387685Y0273656D03*
X0018551Y0093656D03*
X0018551Y0083656D03*
X0018551Y0073656D03*
D16*
X0060008Y0024302D02*
X0060008Y0018365D01*
X0070008Y0018365D02*
X0070008Y0024302D01*
X0080008Y0024302D02*
X0080008Y0018365D01*
X0090008Y0018365D02*
X0090008Y0024302D01*
X0100008Y0024302D02*
X0100008Y0018365D01*
X0110008Y0018365D02*
X0110008Y0024302D01*
X0120008Y0024302D02*
X0120008Y0018365D01*
X0130008Y0018365D02*
X0130008Y0024302D01*
X0140008Y0024302D02*
X0140008Y0018365D01*
X0150008Y0018365D02*
X0150008Y0024302D01*
X0160402Y0024302D02*
X0160402Y0018365D01*
X0170402Y0018365D02*
X0170402Y0024302D01*
X0180402Y0024302D02*
X0180402Y0018365D01*
X0190402Y0018365D02*
X0190402Y0024302D01*
X0200402Y0024302D02*
X0200402Y0018365D01*
X0210402Y0018365D02*
X0210402Y0024302D01*
X0220402Y0024302D02*
X0220402Y0018365D01*
X0230402Y0018365D02*
X0230402Y0024302D01*
X0240402Y0024302D02*
X0240402Y0018365D01*
X0250402Y0018365D02*
X0250402Y0024302D01*
X0260795Y0024302D02*
X0260795Y0018365D01*
X0270795Y0018365D02*
X0270795Y0024302D01*
X0280795Y0024302D02*
X0280795Y0018365D01*
X0290795Y0018365D02*
X0290795Y0024302D01*
X0300795Y0024302D02*
X0300795Y0018365D01*
X0310795Y0018365D02*
X0310795Y0024302D01*
X0320795Y0024302D02*
X0320795Y0018365D01*
X0330795Y0018365D02*
X0330795Y0024302D01*
X0340795Y0024302D02*
X0340795Y0018365D01*
X0350795Y0018365D02*
X0350795Y0024302D01*
X0361858Y0024302D02*
X0361858Y0018365D01*
X0371858Y0018365D02*
X0371858Y0024302D01*
X0381858Y0024302D02*
X0381858Y0018365D01*
X0391858Y0018365D02*
X0391858Y0024302D01*
X0364575Y0305766D02*
X0364575Y0311703D01*
X0354575Y0311703D02*
X0354575Y0305766D01*
X0344575Y0305766D02*
X0344575Y0311703D01*
X0334575Y0311703D02*
X0334575Y0305766D01*
X0324575Y0305766D02*
X0324575Y0311703D01*
X0314575Y0311703D02*
X0314575Y0305766D01*
X0304575Y0305766D02*
X0304575Y0311703D01*
X0294575Y0311703D02*
X0294575Y0305766D01*
X0284575Y0305766D02*
X0284575Y0311703D01*
X0274575Y0311703D02*
X0274575Y0305766D01*
X0264181Y0305766D02*
X0264181Y0311703D01*
X0254181Y0311703D02*
X0254181Y0305766D01*
X0244181Y0305766D02*
X0244181Y0311703D01*
X0234181Y0311703D02*
X0234181Y0305766D01*
X0224181Y0305766D02*
X0224181Y0311703D01*
X0214181Y0311703D02*
X0214181Y0305766D01*
X0204181Y0305766D02*
X0204181Y0311703D01*
X0194181Y0311703D02*
X0194181Y0305766D01*
X0184181Y0305766D02*
X0184181Y0311703D01*
X0174181Y0311703D02*
X0174181Y0305766D01*
X0162921Y0305766D02*
X0162921Y0311703D01*
X0152921Y0311703D02*
X0152921Y0305766D01*
X0142921Y0305766D02*
X0142921Y0311703D01*
X0132921Y0311703D02*
X0132921Y0305766D01*
X0024709Y0307318D02*
X0018772Y0307318D01*
X0018772Y0317318D02*
X0024709Y0317318D01*
X0024709Y0297318D02*
X0018772Y0297318D01*
X0018772Y0287318D02*
X0024709Y0287318D01*
X0024709Y0277318D02*
X0018772Y0277318D01*
X0018772Y0267318D02*
X0024709Y0267318D01*
X0024709Y0257318D02*
X0018772Y0257318D01*
X0018772Y0247318D02*
X0024709Y0247318D01*
X0024709Y0237318D02*
X0018772Y0237318D01*
X0018772Y0227318D02*
X0024709Y0227318D01*
D17*
X0070657Y0218676D03*
X0077350Y0218676D03*
X0077350Y0208341D03*
X0070657Y0208341D03*
X0092803Y0218676D03*
X0099496Y0218676D03*
X0109043Y0218676D03*
X0115736Y0218676D03*
X0129713Y0218676D03*
X0136406Y0218676D03*
X0153335Y0218676D03*
X0160028Y0218676D03*
X0175972Y0218184D03*
X0182665Y0218184D03*
X0198610Y0218676D03*
X0205303Y0218676D03*
X0215835Y0218676D03*
X0222528Y0218676D03*
X0221740Y0209916D03*
X0228433Y0209916D03*
X0235520Y0218184D03*
X0242213Y0218184D03*
X0242016Y0209424D03*
X0248709Y0209424D03*
X0255205Y0218184D03*
X0261898Y0218184D03*
X0261701Y0209424D03*
X0268394Y0209424D03*
X0284732Y0178814D03*
X0291425Y0178814D03*
X0291425Y0169955D03*
X0284732Y0169955D03*
X0284732Y0157160D03*
X0291425Y0157160D03*
X0291425Y0148302D03*
X0284732Y0148302D03*
X0284732Y0135507D03*
X0291425Y0135507D03*
X0291425Y0126648D03*
X0284732Y0126648D03*
X0318787Y0117199D03*
X0325480Y0117199D03*
X0250087Y0135507D03*
X0243394Y0135507D03*
X0243394Y0150270D03*
X0250087Y0150270D03*
X0250087Y0165034D03*
X0243394Y0165034D03*
X0209831Y0209916D03*
X0203138Y0209916D03*
X0200087Y0289050D03*
X0206780Y0289050D03*
X0221740Y0289050D03*
X0228433Y0289050D03*
X0241425Y0289050D03*
X0248118Y0289050D03*
X0261110Y0289050D03*
X0267803Y0289050D03*
X0280795Y0289050D03*
X0287488Y0289050D03*
X0300480Y0289050D03*
X0307173Y0289050D03*
X0320165Y0289050D03*
X0326858Y0289050D03*
X0339850Y0289050D03*
X0346543Y0289050D03*
X0359535Y0289050D03*
X0366228Y0289050D03*
X0185126Y0289050D03*
X0178433Y0289050D03*
X0166898Y0289522D03*
X0160205Y0289522D03*
X0146898Y0289522D03*
X0140205Y0289522D03*
X0126898Y0289522D03*
X0120205Y0289522D03*
X0106898Y0289522D03*
X0100205Y0289522D03*
X0086898Y0289522D03*
X0080205Y0289522D03*
D18*
X0083551Y0280154D02*
X0083551Y0274954D01*
X0093551Y0274954D02*
X0093551Y0280154D01*
X0103551Y0280154D02*
X0103551Y0274954D01*
X0113551Y0274954D02*
X0113551Y0280154D01*
X0123551Y0280154D02*
X0123551Y0274954D01*
X0133551Y0274954D02*
X0133551Y0280154D01*
X0143551Y0280154D02*
X0143551Y0274954D01*
X0153551Y0274954D02*
X0153551Y0280154D01*
X0163551Y0280154D02*
X0163551Y0274954D01*
X0173551Y0274954D02*
X0173551Y0280154D01*
X0183551Y0280154D02*
X0183551Y0274954D01*
X0193551Y0274954D02*
X0193551Y0280154D01*
X0203551Y0280154D02*
X0203551Y0274954D01*
X0213551Y0274954D02*
X0213551Y0280154D01*
X0223551Y0280154D02*
X0223551Y0274954D01*
X0233551Y0274954D02*
X0233551Y0280154D01*
X0243551Y0280154D02*
X0243551Y0274954D01*
X0253551Y0274954D02*
X0253551Y0280154D01*
X0263551Y0280154D02*
X0263551Y0274954D01*
X0273551Y0274954D02*
X0273551Y0280154D01*
X0283551Y0280154D02*
X0283551Y0274954D01*
X0293551Y0274954D02*
X0293551Y0280154D01*
X0303551Y0280154D02*
X0303551Y0274954D01*
X0313551Y0274954D02*
X0313551Y0280154D01*
X0323551Y0280154D02*
X0323551Y0274954D01*
X0333551Y0274954D02*
X0333551Y0280154D01*
X0343551Y0280154D02*
X0343551Y0274954D01*
X0353551Y0274954D02*
X0353551Y0280154D01*
X0363551Y0280154D02*
X0363551Y0274954D01*
X0363551Y0250154D02*
X0363551Y0244954D01*
X0353551Y0244954D02*
X0353551Y0250154D01*
X0343551Y0250154D02*
X0343551Y0244954D01*
X0333551Y0244954D02*
X0333551Y0250154D01*
X0323551Y0250154D02*
X0323551Y0244954D01*
X0313551Y0244954D02*
X0313551Y0250154D01*
X0303551Y0250154D02*
X0303551Y0244954D01*
X0293551Y0244954D02*
X0293551Y0250154D01*
X0283551Y0250154D02*
X0283551Y0244954D01*
X0273551Y0244954D02*
X0273551Y0250154D01*
X0263551Y0250154D02*
X0263551Y0244954D01*
X0253551Y0244954D02*
X0253551Y0250154D01*
X0243551Y0250154D02*
X0243551Y0244954D01*
X0233551Y0244954D02*
X0233551Y0250154D01*
X0223551Y0250154D02*
X0223551Y0244954D01*
X0213551Y0244954D02*
X0213551Y0250154D01*
X0203551Y0250154D02*
X0203551Y0244954D01*
X0193551Y0244954D02*
X0193551Y0250154D01*
X0183551Y0250154D02*
X0183551Y0244954D01*
X0173551Y0244954D02*
X0173551Y0250154D01*
X0163551Y0250154D02*
X0163551Y0244954D01*
X0153551Y0244954D02*
X0153551Y0250154D01*
X0143551Y0250154D02*
X0143551Y0244954D01*
X0133551Y0244954D02*
X0133551Y0250154D01*
X0123551Y0250154D02*
X0123551Y0244954D01*
X0113551Y0244954D02*
X0113551Y0250154D01*
X0103551Y0250154D02*
X0103551Y0244954D01*
X0093551Y0244954D02*
X0093551Y0250154D01*
X0083551Y0250154D02*
X0083551Y0244954D01*
X0073551Y0244954D02*
X0073551Y0250154D01*
X0073551Y0274954D02*
X0073551Y0280154D01*
X0058551Y0219799D02*
X0058551Y0214599D01*
X0048551Y0214599D02*
X0048551Y0219799D01*
X0038551Y0219799D02*
X0038551Y0214599D01*
X0028551Y0214599D02*
X0028551Y0219799D01*
X0028551Y0189799D02*
X0028551Y0184599D01*
X0038551Y0184599D02*
X0038551Y0189799D01*
X0048551Y0189799D02*
X0048551Y0184599D01*
X0058551Y0184599D02*
X0058551Y0189799D01*
X0060008Y0092083D02*
X0060008Y0086883D01*
X0070008Y0086883D02*
X0070008Y0092083D01*
X0080008Y0092083D02*
X0080008Y0086883D01*
X0090008Y0086883D02*
X0090008Y0092083D01*
X0100008Y0092083D02*
X0100008Y0086883D01*
X0110008Y0086883D02*
X0110008Y0092083D01*
X0120008Y0092083D02*
X0120008Y0086883D01*
X0130008Y0086883D02*
X0130008Y0092083D01*
X0140008Y0092083D02*
X0140008Y0086883D01*
X0150008Y0086883D02*
X0150008Y0092083D01*
X0160402Y0092083D02*
X0160402Y0086883D01*
X0170402Y0086883D02*
X0170402Y0092083D01*
X0180402Y0092083D02*
X0180402Y0086883D01*
X0190402Y0086883D02*
X0190402Y0092083D01*
X0200402Y0092083D02*
X0200402Y0086883D01*
X0210402Y0086883D02*
X0210402Y0092083D01*
X0220402Y0092083D02*
X0220402Y0086883D01*
X0230402Y0086883D02*
X0230402Y0092083D01*
X0240402Y0092083D02*
X0240402Y0086883D01*
X0250402Y0086883D02*
X0250402Y0092083D01*
X0260795Y0092083D02*
X0260795Y0086883D01*
X0270795Y0086883D02*
X0270795Y0092083D01*
X0280795Y0092083D02*
X0280795Y0086883D01*
X0290795Y0086883D02*
X0290795Y0092083D01*
X0300795Y0092083D02*
X0300795Y0086883D01*
X0310795Y0086883D02*
X0310795Y0092083D01*
X0320795Y0092083D02*
X0320795Y0086883D01*
X0330795Y0086883D02*
X0330795Y0092083D01*
X0340795Y0092083D02*
X0340795Y0086883D01*
X0350795Y0086883D02*
X0350795Y0092083D01*
X0350795Y0062083D02*
X0350795Y0056883D01*
X0340795Y0056883D02*
X0340795Y0062083D01*
X0330795Y0062083D02*
X0330795Y0056883D01*
X0320795Y0056883D02*
X0320795Y0062083D01*
X0310795Y0062083D02*
X0310795Y0056883D01*
X0300795Y0056883D02*
X0300795Y0062083D01*
X0290795Y0062083D02*
X0290795Y0056883D01*
X0287646Y0047555D02*
X0287646Y0042355D01*
X0297646Y0042355D02*
X0297646Y0047555D01*
X0307646Y0047555D02*
X0307646Y0042355D01*
X0317646Y0042355D02*
X0317646Y0047555D01*
X0327646Y0047555D02*
X0327646Y0042355D01*
X0337646Y0042355D02*
X0337646Y0047555D01*
X0347646Y0047555D02*
X0347646Y0042355D01*
X0280795Y0056883D02*
X0280795Y0062083D01*
X0270795Y0062083D02*
X0270795Y0056883D01*
X0267646Y0047555D02*
X0267646Y0042355D01*
X0277646Y0042355D02*
X0277646Y0047555D01*
X0260795Y0056883D02*
X0260795Y0062083D01*
X0250402Y0062083D02*
X0250402Y0056883D01*
X0247646Y0047555D02*
X0247646Y0042355D01*
X0257646Y0042355D02*
X0257646Y0047555D01*
X0240402Y0056883D02*
X0240402Y0062083D01*
X0230402Y0062083D02*
X0230402Y0056883D01*
X0227646Y0047555D02*
X0227646Y0042355D01*
X0217646Y0042355D02*
X0217646Y0047555D01*
X0220402Y0056883D02*
X0220402Y0062083D01*
X0210402Y0062083D02*
X0210402Y0056883D01*
X0207646Y0047555D02*
X0207646Y0042355D01*
X0197646Y0042355D02*
X0197646Y0047555D01*
X0200402Y0056883D02*
X0200402Y0062083D01*
X0190402Y0062083D02*
X0190402Y0056883D01*
X0180402Y0056883D02*
X0180402Y0062083D01*
X0170402Y0062083D02*
X0170402Y0056883D01*
X0160402Y0056883D02*
X0160402Y0062083D01*
X0150008Y0062083D02*
X0150008Y0056883D01*
X0140008Y0056883D02*
X0140008Y0062083D01*
X0130008Y0062083D02*
X0130008Y0056883D01*
X0120008Y0056883D02*
X0120008Y0062083D01*
X0110008Y0062083D02*
X0110008Y0056883D01*
X0100008Y0056883D02*
X0100008Y0062083D01*
X0090008Y0062083D02*
X0090008Y0056883D01*
X0080008Y0056883D02*
X0080008Y0062083D01*
X0070008Y0062083D02*
X0070008Y0056883D01*
X0060008Y0056883D02*
X0060008Y0062083D01*
X0157646Y0047555D02*
X0157646Y0042355D01*
X0167646Y0042355D02*
X0167646Y0047555D01*
X0177646Y0047555D02*
X0177646Y0042355D01*
X0187646Y0042355D02*
X0187646Y0047555D01*
X0237646Y0047555D02*
X0237646Y0042355D01*
D19*
X0172921Y0138997D03*
X0170953Y0138997D03*
X0168984Y0138997D03*
X0167016Y0138997D03*
X0165047Y0138997D03*
X0163079Y0138997D03*
X0161110Y0138997D03*
X0159142Y0138997D03*
X0157173Y0138997D03*
X0155205Y0138997D03*
X0153236Y0138997D03*
X0151268Y0138997D03*
X0149299Y0138997D03*
X0147331Y0138997D03*
X0145362Y0138997D03*
X0143394Y0138997D03*
X0143394Y0183197D03*
X0145362Y0183197D03*
X0147331Y0183197D03*
X0149299Y0183197D03*
X0151268Y0183197D03*
X0153236Y0183197D03*
X0155205Y0183197D03*
X0157173Y0183197D03*
X0159142Y0183197D03*
X0161110Y0183197D03*
X0163079Y0183197D03*
X0165047Y0183197D03*
X0167016Y0183197D03*
X0168984Y0183197D03*
X0170953Y0183197D03*
X0172921Y0183197D03*
D20*
X0180257Y0175861D03*
X0180257Y0173892D03*
X0180257Y0171924D03*
X0180257Y0169955D03*
X0180257Y0167987D03*
X0180257Y0166018D03*
X0180257Y0164050D03*
X0180257Y0162081D03*
X0180257Y0160113D03*
X0180257Y0158144D03*
X0180257Y0156176D03*
X0180257Y0154207D03*
X0180257Y0152239D03*
X0180257Y0150270D03*
X0180257Y0148302D03*
X0180257Y0146333D03*
X0136057Y0146333D03*
X0136057Y0148302D03*
X0136057Y0150270D03*
X0136057Y0152239D03*
X0136057Y0154207D03*
X0136057Y0156176D03*
X0136057Y0158144D03*
X0136057Y0160113D03*
X0136057Y0162081D03*
X0136057Y0164050D03*
X0136057Y0166018D03*
X0136057Y0167987D03*
X0136057Y0169955D03*
X0136057Y0171924D03*
X0136057Y0173892D03*
X0136057Y0175861D03*
D21*
X0045953Y0302829D03*
X0045953Y0046924D03*
X0392409Y0046924D03*
X0392409Y0302829D03*
D22*
X0338177Y0111314D03*
X0332272Y0111314D03*
X0322114Y0111314D03*
X0316209Y0111314D03*
X0304280Y0111314D03*
X0298374Y0111314D03*
X0286839Y0111314D03*
X0280933Y0111314D03*
X0266346Y0111510D03*
X0260441Y0111510D03*
X0246346Y0111510D03*
X0240441Y0111510D03*
X0226543Y0111510D03*
X0220638Y0111510D03*
X0206445Y0111658D03*
X0200539Y0111658D03*
X0186346Y0111510D03*
X0180441Y0111510D03*
X0166445Y0111314D03*
X0160539Y0111314D03*
X0145953Y0111510D03*
X0140047Y0111510D03*
X0125854Y0111609D03*
X0119949Y0111609D03*
X0105854Y0111510D03*
X0099949Y0111510D03*
X0086051Y0111707D03*
X0080146Y0111707D03*
X0066051Y0111707D03*
X0060146Y0111707D03*
D23*
X0261625Y0131757D03*
X0261625Y0135507D03*
X0261625Y0139257D03*
X0261625Y0146520D03*
X0261625Y0150270D03*
X0261625Y0154020D03*
X0261625Y0161284D03*
X0261625Y0165034D03*
X0261625Y0168784D03*
X0271225Y0168784D03*
X0271225Y0165034D03*
X0271225Y0161284D03*
X0271225Y0154020D03*
X0271225Y0150270D03*
X0271225Y0146520D03*
X0271225Y0139257D03*
X0271225Y0135507D03*
X0271225Y0131757D03*
D24*
X0365835Y0133420D03*
X0365835Y0153420D03*
X0365835Y0174837D03*
X0365835Y0194837D03*
X0365835Y0214837D03*
X0365835Y0113420D03*
D25*
X0262595Y0235900D03*
X0255295Y0235900D03*
X0242122Y0235900D03*
X0234822Y0235900D03*
X0222437Y0235900D03*
X0215137Y0235900D03*
X0205115Y0235900D03*
X0197815Y0235900D03*
X0183067Y0235900D03*
X0175767Y0235900D03*
X0160233Y0235900D03*
X0152933Y0235900D03*
X0136758Y0236196D03*
X0129458Y0236196D03*
X0116138Y0235703D03*
X0108838Y0235703D03*
X0099800Y0236097D03*
X0092500Y0236097D03*
X0077359Y0235507D03*
X0070059Y0235507D03*
M02*
