G75*
%MOIN*%
%OFA0B0*%
%FSLAX25Y25*%
%IPPOS*%
%LPD*%
%AMOC8*
5,1,8,0,0,1.08239X$1,22.5*
%
%ADD10C,0.00000*%
D10*
X0008551Y0007554D02*
X0008551Y0322514D01*
X0402252Y0322514D01*
X0402252Y0007554D01*
X0008551Y0007554D01*
X0040047Y0046924D02*
X0040049Y0047077D01*
X0040055Y0047231D01*
X0040065Y0047384D01*
X0040079Y0047536D01*
X0040097Y0047689D01*
X0040119Y0047840D01*
X0040144Y0047991D01*
X0040174Y0048142D01*
X0040208Y0048292D01*
X0040245Y0048440D01*
X0040286Y0048588D01*
X0040331Y0048734D01*
X0040380Y0048880D01*
X0040433Y0049024D01*
X0040489Y0049166D01*
X0040549Y0049307D01*
X0040613Y0049447D01*
X0040680Y0049585D01*
X0040751Y0049721D01*
X0040826Y0049855D01*
X0040903Y0049987D01*
X0040985Y0050117D01*
X0041069Y0050245D01*
X0041157Y0050371D01*
X0041248Y0050494D01*
X0041342Y0050615D01*
X0041440Y0050733D01*
X0041540Y0050849D01*
X0041644Y0050962D01*
X0041750Y0051073D01*
X0041859Y0051181D01*
X0041971Y0051286D01*
X0042085Y0051387D01*
X0042203Y0051486D01*
X0042322Y0051582D01*
X0042444Y0051675D01*
X0042569Y0051764D01*
X0042696Y0051851D01*
X0042825Y0051933D01*
X0042956Y0052013D01*
X0043089Y0052089D01*
X0043224Y0052162D01*
X0043361Y0052231D01*
X0043500Y0052296D01*
X0043640Y0052358D01*
X0043782Y0052416D01*
X0043925Y0052471D01*
X0044070Y0052522D01*
X0044216Y0052569D01*
X0044363Y0052612D01*
X0044511Y0052651D01*
X0044660Y0052687D01*
X0044810Y0052718D01*
X0044961Y0052746D01*
X0045112Y0052770D01*
X0045265Y0052790D01*
X0045417Y0052806D01*
X0045570Y0052818D01*
X0045723Y0052826D01*
X0045876Y0052830D01*
X0046030Y0052830D01*
X0046183Y0052826D01*
X0046336Y0052818D01*
X0046489Y0052806D01*
X0046641Y0052790D01*
X0046794Y0052770D01*
X0046945Y0052746D01*
X0047096Y0052718D01*
X0047246Y0052687D01*
X0047395Y0052651D01*
X0047543Y0052612D01*
X0047690Y0052569D01*
X0047836Y0052522D01*
X0047981Y0052471D01*
X0048124Y0052416D01*
X0048266Y0052358D01*
X0048406Y0052296D01*
X0048545Y0052231D01*
X0048682Y0052162D01*
X0048817Y0052089D01*
X0048950Y0052013D01*
X0049081Y0051933D01*
X0049210Y0051851D01*
X0049337Y0051764D01*
X0049462Y0051675D01*
X0049584Y0051582D01*
X0049703Y0051486D01*
X0049821Y0051387D01*
X0049935Y0051286D01*
X0050047Y0051181D01*
X0050156Y0051073D01*
X0050262Y0050962D01*
X0050366Y0050849D01*
X0050466Y0050733D01*
X0050564Y0050615D01*
X0050658Y0050494D01*
X0050749Y0050371D01*
X0050837Y0050245D01*
X0050921Y0050117D01*
X0051003Y0049987D01*
X0051080Y0049855D01*
X0051155Y0049721D01*
X0051226Y0049585D01*
X0051293Y0049447D01*
X0051357Y0049307D01*
X0051417Y0049166D01*
X0051473Y0049024D01*
X0051526Y0048880D01*
X0051575Y0048734D01*
X0051620Y0048588D01*
X0051661Y0048440D01*
X0051698Y0048292D01*
X0051732Y0048142D01*
X0051762Y0047991D01*
X0051787Y0047840D01*
X0051809Y0047689D01*
X0051827Y0047536D01*
X0051841Y0047384D01*
X0051851Y0047231D01*
X0051857Y0047077D01*
X0051859Y0046924D01*
X0051857Y0046771D01*
X0051851Y0046617D01*
X0051841Y0046464D01*
X0051827Y0046312D01*
X0051809Y0046159D01*
X0051787Y0046008D01*
X0051762Y0045857D01*
X0051732Y0045706D01*
X0051698Y0045556D01*
X0051661Y0045408D01*
X0051620Y0045260D01*
X0051575Y0045114D01*
X0051526Y0044968D01*
X0051473Y0044824D01*
X0051417Y0044682D01*
X0051357Y0044541D01*
X0051293Y0044401D01*
X0051226Y0044263D01*
X0051155Y0044127D01*
X0051080Y0043993D01*
X0051003Y0043861D01*
X0050921Y0043731D01*
X0050837Y0043603D01*
X0050749Y0043477D01*
X0050658Y0043354D01*
X0050564Y0043233D01*
X0050466Y0043115D01*
X0050366Y0042999D01*
X0050262Y0042886D01*
X0050156Y0042775D01*
X0050047Y0042667D01*
X0049935Y0042562D01*
X0049821Y0042461D01*
X0049703Y0042362D01*
X0049584Y0042266D01*
X0049462Y0042173D01*
X0049337Y0042084D01*
X0049210Y0041997D01*
X0049081Y0041915D01*
X0048950Y0041835D01*
X0048817Y0041759D01*
X0048682Y0041686D01*
X0048545Y0041617D01*
X0048406Y0041552D01*
X0048266Y0041490D01*
X0048124Y0041432D01*
X0047981Y0041377D01*
X0047836Y0041326D01*
X0047690Y0041279D01*
X0047543Y0041236D01*
X0047395Y0041197D01*
X0047246Y0041161D01*
X0047096Y0041130D01*
X0046945Y0041102D01*
X0046794Y0041078D01*
X0046641Y0041058D01*
X0046489Y0041042D01*
X0046336Y0041030D01*
X0046183Y0041022D01*
X0046030Y0041018D01*
X0045876Y0041018D01*
X0045723Y0041022D01*
X0045570Y0041030D01*
X0045417Y0041042D01*
X0045265Y0041058D01*
X0045112Y0041078D01*
X0044961Y0041102D01*
X0044810Y0041130D01*
X0044660Y0041161D01*
X0044511Y0041197D01*
X0044363Y0041236D01*
X0044216Y0041279D01*
X0044070Y0041326D01*
X0043925Y0041377D01*
X0043782Y0041432D01*
X0043640Y0041490D01*
X0043500Y0041552D01*
X0043361Y0041617D01*
X0043224Y0041686D01*
X0043089Y0041759D01*
X0042956Y0041835D01*
X0042825Y0041915D01*
X0042696Y0041997D01*
X0042569Y0042084D01*
X0042444Y0042173D01*
X0042322Y0042266D01*
X0042203Y0042362D01*
X0042085Y0042461D01*
X0041971Y0042562D01*
X0041859Y0042667D01*
X0041750Y0042775D01*
X0041644Y0042886D01*
X0041540Y0042999D01*
X0041440Y0043115D01*
X0041342Y0043233D01*
X0041248Y0043354D01*
X0041157Y0043477D01*
X0041069Y0043603D01*
X0040985Y0043731D01*
X0040903Y0043861D01*
X0040826Y0043993D01*
X0040751Y0044127D01*
X0040680Y0044263D01*
X0040613Y0044401D01*
X0040549Y0044541D01*
X0040489Y0044682D01*
X0040433Y0044824D01*
X0040380Y0044968D01*
X0040331Y0045114D01*
X0040286Y0045260D01*
X0040245Y0045408D01*
X0040208Y0045556D01*
X0040174Y0045706D01*
X0040144Y0045857D01*
X0040119Y0046008D01*
X0040097Y0046159D01*
X0040079Y0046312D01*
X0040065Y0046464D01*
X0040055Y0046617D01*
X0040049Y0046771D01*
X0040047Y0046924D01*
X0040047Y0302829D02*
X0040049Y0302982D01*
X0040055Y0303136D01*
X0040065Y0303289D01*
X0040079Y0303441D01*
X0040097Y0303594D01*
X0040119Y0303745D01*
X0040144Y0303896D01*
X0040174Y0304047D01*
X0040208Y0304197D01*
X0040245Y0304345D01*
X0040286Y0304493D01*
X0040331Y0304639D01*
X0040380Y0304785D01*
X0040433Y0304929D01*
X0040489Y0305071D01*
X0040549Y0305212D01*
X0040613Y0305352D01*
X0040680Y0305490D01*
X0040751Y0305626D01*
X0040826Y0305760D01*
X0040903Y0305892D01*
X0040985Y0306022D01*
X0041069Y0306150D01*
X0041157Y0306276D01*
X0041248Y0306399D01*
X0041342Y0306520D01*
X0041440Y0306638D01*
X0041540Y0306754D01*
X0041644Y0306867D01*
X0041750Y0306978D01*
X0041859Y0307086D01*
X0041971Y0307191D01*
X0042085Y0307292D01*
X0042203Y0307391D01*
X0042322Y0307487D01*
X0042444Y0307580D01*
X0042569Y0307669D01*
X0042696Y0307756D01*
X0042825Y0307838D01*
X0042956Y0307918D01*
X0043089Y0307994D01*
X0043224Y0308067D01*
X0043361Y0308136D01*
X0043500Y0308201D01*
X0043640Y0308263D01*
X0043782Y0308321D01*
X0043925Y0308376D01*
X0044070Y0308427D01*
X0044216Y0308474D01*
X0044363Y0308517D01*
X0044511Y0308556D01*
X0044660Y0308592D01*
X0044810Y0308623D01*
X0044961Y0308651D01*
X0045112Y0308675D01*
X0045265Y0308695D01*
X0045417Y0308711D01*
X0045570Y0308723D01*
X0045723Y0308731D01*
X0045876Y0308735D01*
X0046030Y0308735D01*
X0046183Y0308731D01*
X0046336Y0308723D01*
X0046489Y0308711D01*
X0046641Y0308695D01*
X0046794Y0308675D01*
X0046945Y0308651D01*
X0047096Y0308623D01*
X0047246Y0308592D01*
X0047395Y0308556D01*
X0047543Y0308517D01*
X0047690Y0308474D01*
X0047836Y0308427D01*
X0047981Y0308376D01*
X0048124Y0308321D01*
X0048266Y0308263D01*
X0048406Y0308201D01*
X0048545Y0308136D01*
X0048682Y0308067D01*
X0048817Y0307994D01*
X0048950Y0307918D01*
X0049081Y0307838D01*
X0049210Y0307756D01*
X0049337Y0307669D01*
X0049462Y0307580D01*
X0049584Y0307487D01*
X0049703Y0307391D01*
X0049821Y0307292D01*
X0049935Y0307191D01*
X0050047Y0307086D01*
X0050156Y0306978D01*
X0050262Y0306867D01*
X0050366Y0306754D01*
X0050466Y0306638D01*
X0050564Y0306520D01*
X0050658Y0306399D01*
X0050749Y0306276D01*
X0050837Y0306150D01*
X0050921Y0306022D01*
X0051003Y0305892D01*
X0051080Y0305760D01*
X0051155Y0305626D01*
X0051226Y0305490D01*
X0051293Y0305352D01*
X0051357Y0305212D01*
X0051417Y0305071D01*
X0051473Y0304929D01*
X0051526Y0304785D01*
X0051575Y0304639D01*
X0051620Y0304493D01*
X0051661Y0304345D01*
X0051698Y0304197D01*
X0051732Y0304047D01*
X0051762Y0303896D01*
X0051787Y0303745D01*
X0051809Y0303594D01*
X0051827Y0303441D01*
X0051841Y0303289D01*
X0051851Y0303136D01*
X0051857Y0302982D01*
X0051859Y0302829D01*
X0051857Y0302676D01*
X0051851Y0302522D01*
X0051841Y0302369D01*
X0051827Y0302217D01*
X0051809Y0302064D01*
X0051787Y0301913D01*
X0051762Y0301762D01*
X0051732Y0301611D01*
X0051698Y0301461D01*
X0051661Y0301313D01*
X0051620Y0301165D01*
X0051575Y0301019D01*
X0051526Y0300873D01*
X0051473Y0300729D01*
X0051417Y0300587D01*
X0051357Y0300446D01*
X0051293Y0300306D01*
X0051226Y0300168D01*
X0051155Y0300032D01*
X0051080Y0299898D01*
X0051003Y0299766D01*
X0050921Y0299636D01*
X0050837Y0299508D01*
X0050749Y0299382D01*
X0050658Y0299259D01*
X0050564Y0299138D01*
X0050466Y0299020D01*
X0050366Y0298904D01*
X0050262Y0298791D01*
X0050156Y0298680D01*
X0050047Y0298572D01*
X0049935Y0298467D01*
X0049821Y0298366D01*
X0049703Y0298267D01*
X0049584Y0298171D01*
X0049462Y0298078D01*
X0049337Y0297989D01*
X0049210Y0297902D01*
X0049081Y0297820D01*
X0048950Y0297740D01*
X0048817Y0297664D01*
X0048682Y0297591D01*
X0048545Y0297522D01*
X0048406Y0297457D01*
X0048266Y0297395D01*
X0048124Y0297337D01*
X0047981Y0297282D01*
X0047836Y0297231D01*
X0047690Y0297184D01*
X0047543Y0297141D01*
X0047395Y0297102D01*
X0047246Y0297066D01*
X0047096Y0297035D01*
X0046945Y0297007D01*
X0046794Y0296983D01*
X0046641Y0296963D01*
X0046489Y0296947D01*
X0046336Y0296935D01*
X0046183Y0296927D01*
X0046030Y0296923D01*
X0045876Y0296923D01*
X0045723Y0296927D01*
X0045570Y0296935D01*
X0045417Y0296947D01*
X0045265Y0296963D01*
X0045112Y0296983D01*
X0044961Y0297007D01*
X0044810Y0297035D01*
X0044660Y0297066D01*
X0044511Y0297102D01*
X0044363Y0297141D01*
X0044216Y0297184D01*
X0044070Y0297231D01*
X0043925Y0297282D01*
X0043782Y0297337D01*
X0043640Y0297395D01*
X0043500Y0297457D01*
X0043361Y0297522D01*
X0043224Y0297591D01*
X0043089Y0297664D01*
X0042956Y0297740D01*
X0042825Y0297820D01*
X0042696Y0297902D01*
X0042569Y0297989D01*
X0042444Y0298078D01*
X0042322Y0298171D01*
X0042203Y0298267D01*
X0042085Y0298366D01*
X0041971Y0298467D01*
X0041859Y0298572D01*
X0041750Y0298680D01*
X0041644Y0298791D01*
X0041540Y0298904D01*
X0041440Y0299020D01*
X0041342Y0299138D01*
X0041248Y0299259D01*
X0041157Y0299382D01*
X0041069Y0299508D01*
X0040985Y0299636D01*
X0040903Y0299766D01*
X0040826Y0299898D01*
X0040751Y0300032D01*
X0040680Y0300168D01*
X0040613Y0300306D01*
X0040549Y0300446D01*
X0040489Y0300587D01*
X0040433Y0300729D01*
X0040380Y0300873D01*
X0040331Y0301019D01*
X0040286Y0301165D01*
X0040245Y0301313D01*
X0040208Y0301461D01*
X0040174Y0301611D01*
X0040144Y0301762D01*
X0040119Y0301913D01*
X0040097Y0302064D01*
X0040079Y0302217D01*
X0040065Y0302369D01*
X0040055Y0302522D01*
X0040049Y0302676D01*
X0040047Y0302829D01*
X0386503Y0302829D02*
X0386505Y0302982D01*
X0386511Y0303136D01*
X0386521Y0303289D01*
X0386535Y0303441D01*
X0386553Y0303594D01*
X0386575Y0303745D01*
X0386600Y0303896D01*
X0386630Y0304047D01*
X0386664Y0304197D01*
X0386701Y0304345D01*
X0386742Y0304493D01*
X0386787Y0304639D01*
X0386836Y0304785D01*
X0386889Y0304929D01*
X0386945Y0305071D01*
X0387005Y0305212D01*
X0387069Y0305352D01*
X0387136Y0305490D01*
X0387207Y0305626D01*
X0387282Y0305760D01*
X0387359Y0305892D01*
X0387441Y0306022D01*
X0387525Y0306150D01*
X0387613Y0306276D01*
X0387704Y0306399D01*
X0387798Y0306520D01*
X0387896Y0306638D01*
X0387996Y0306754D01*
X0388100Y0306867D01*
X0388206Y0306978D01*
X0388315Y0307086D01*
X0388427Y0307191D01*
X0388541Y0307292D01*
X0388659Y0307391D01*
X0388778Y0307487D01*
X0388900Y0307580D01*
X0389025Y0307669D01*
X0389152Y0307756D01*
X0389281Y0307838D01*
X0389412Y0307918D01*
X0389545Y0307994D01*
X0389680Y0308067D01*
X0389817Y0308136D01*
X0389956Y0308201D01*
X0390096Y0308263D01*
X0390238Y0308321D01*
X0390381Y0308376D01*
X0390526Y0308427D01*
X0390672Y0308474D01*
X0390819Y0308517D01*
X0390967Y0308556D01*
X0391116Y0308592D01*
X0391266Y0308623D01*
X0391417Y0308651D01*
X0391568Y0308675D01*
X0391721Y0308695D01*
X0391873Y0308711D01*
X0392026Y0308723D01*
X0392179Y0308731D01*
X0392332Y0308735D01*
X0392486Y0308735D01*
X0392639Y0308731D01*
X0392792Y0308723D01*
X0392945Y0308711D01*
X0393097Y0308695D01*
X0393250Y0308675D01*
X0393401Y0308651D01*
X0393552Y0308623D01*
X0393702Y0308592D01*
X0393851Y0308556D01*
X0393999Y0308517D01*
X0394146Y0308474D01*
X0394292Y0308427D01*
X0394437Y0308376D01*
X0394580Y0308321D01*
X0394722Y0308263D01*
X0394862Y0308201D01*
X0395001Y0308136D01*
X0395138Y0308067D01*
X0395273Y0307994D01*
X0395406Y0307918D01*
X0395537Y0307838D01*
X0395666Y0307756D01*
X0395793Y0307669D01*
X0395918Y0307580D01*
X0396040Y0307487D01*
X0396159Y0307391D01*
X0396277Y0307292D01*
X0396391Y0307191D01*
X0396503Y0307086D01*
X0396612Y0306978D01*
X0396718Y0306867D01*
X0396822Y0306754D01*
X0396922Y0306638D01*
X0397020Y0306520D01*
X0397114Y0306399D01*
X0397205Y0306276D01*
X0397293Y0306150D01*
X0397377Y0306022D01*
X0397459Y0305892D01*
X0397536Y0305760D01*
X0397611Y0305626D01*
X0397682Y0305490D01*
X0397749Y0305352D01*
X0397813Y0305212D01*
X0397873Y0305071D01*
X0397929Y0304929D01*
X0397982Y0304785D01*
X0398031Y0304639D01*
X0398076Y0304493D01*
X0398117Y0304345D01*
X0398154Y0304197D01*
X0398188Y0304047D01*
X0398218Y0303896D01*
X0398243Y0303745D01*
X0398265Y0303594D01*
X0398283Y0303441D01*
X0398297Y0303289D01*
X0398307Y0303136D01*
X0398313Y0302982D01*
X0398315Y0302829D01*
X0398313Y0302676D01*
X0398307Y0302522D01*
X0398297Y0302369D01*
X0398283Y0302217D01*
X0398265Y0302064D01*
X0398243Y0301913D01*
X0398218Y0301762D01*
X0398188Y0301611D01*
X0398154Y0301461D01*
X0398117Y0301313D01*
X0398076Y0301165D01*
X0398031Y0301019D01*
X0397982Y0300873D01*
X0397929Y0300729D01*
X0397873Y0300587D01*
X0397813Y0300446D01*
X0397749Y0300306D01*
X0397682Y0300168D01*
X0397611Y0300032D01*
X0397536Y0299898D01*
X0397459Y0299766D01*
X0397377Y0299636D01*
X0397293Y0299508D01*
X0397205Y0299382D01*
X0397114Y0299259D01*
X0397020Y0299138D01*
X0396922Y0299020D01*
X0396822Y0298904D01*
X0396718Y0298791D01*
X0396612Y0298680D01*
X0396503Y0298572D01*
X0396391Y0298467D01*
X0396277Y0298366D01*
X0396159Y0298267D01*
X0396040Y0298171D01*
X0395918Y0298078D01*
X0395793Y0297989D01*
X0395666Y0297902D01*
X0395537Y0297820D01*
X0395406Y0297740D01*
X0395273Y0297664D01*
X0395138Y0297591D01*
X0395001Y0297522D01*
X0394862Y0297457D01*
X0394722Y0297395D01*
X0394580Y0297337D01*
X0394437Y0297282D01*
X0394292Y0297231D01*
X0394146Y0297184D01*
X0393999Y0297141D01*
X0393851Y0297102D01*
X0393702Y0297066D01*
X0393552Y0297035D01*
X0393401Y0297007D01*
X0393250Y0296983D01*
X0393097Y0296963D01*
X0392945Y0296947D01*
X0392792Y0296935D01*
X0392639Y0296927D01*
X0392486Y0296923D01*
X0392332Y0296923D01*
X0392179Y0296927D01*
X0392026Y0296935D01*
X0391873Y0296947D01*
X0391721Y0296963D01*
X0391568Y0296983D01*
X0391417Y0297007D01*
X0391266Y0297035D01*
X0391116Y0297066D01*
X0390967Y0297102D01*
X0390819Y0297141D01*
X0390672Y0297184D01*
X0390526Y0297231D01*
X0390381Y0297282D01*
X0390238Y0297337D01*
X0390096Y0297395D01*
X0389956Y0297457D01*
X0389817Y0297522D01*
X0389680Y0297591D01*
X0389545Y0297664D01*
X0389412Y0297740D01*
X0389281Y0297820D01*
X0389152Y0297902D01*
X0389025Y0297989D01*
X0388900Y0298078D01*
X0388778Y0298171D01*
X0388659Y0298267D01*
X0388541Y0298366D01*
X0388427Y0298467D01*
X0388315Y0298572D01*
X0388206Y0298680D01*
X0388100Y0298791D01*
X0387996Y0298904D01*
X0387896Y0299020D01*
X0387798Y0299138D01*
X0387704Y0299259D01*
X0387613Y0299382D01*
X0387525Y0299508D01*
X0387441Y0299636D01*
X0387359Y0299766D01*
X0387282Y0299898D01*
X0387207Y0300032D01*
X0387136Y0300168D01*
X0387069Y0300306D01*
X0387005Y0300446D01*
X0386945Y0300587D01*
X0386889Y0300729D01*
X0386836Y0300873D01*
X0386787Y0301019D01*
X0386742Y0301165D01*
X0386701Y0301313D01*
X0386664Y0301461D01*
X0386630Y0301611D01*
X0386600Y0301762D01*
X0386575Y0301913D01*
X0386553Y0302064D01*
X0386535Y0302217D01*
X0386521Y0302369D01*
X0386511Y0302522D01*
X0386505Y0302676D01*
X0386503Y0302829D01*
X0386503Y0046924D02*
X0386505Y0047077D01*
X0386511Y0047231D01*
X0386521Y0047384D01*
X0386535Y0047536D01*
X0386553Y0047689D01*
X0386575Y0047840D01*
X0386600Y0047991D01*
X0386630Y0048142D01*
X0386664Y0048292D01*
X0386701Y0048440D01*
X0386742Y0048588D01*
X0386787Y0048734D01*
X0386836Y0048880D01*
X0386889Y0049024D01*
X0386945Y0049166D01*
X0387005Y0049307D01*
X0387069Y0049447D01*
X0387136Y0049585D01*
X0387207Y0049721D01*
X0387282Y0049855D01*
X0387359Y0049987D01*
X0387441Y0050117D01*
X0387525Y0050245D01*
X0387613Y0050371D01*
X0387704Y0050494D01*
X0387798Y0050615D01*
X0387896Y0050733D01*
X0387996Y0050849D01*
X0388100Y0050962D01*
X0388206Y0051073D01*
X0388315Y0051181D01*
X0388427Y0051286D01*
X0388541Y0051387D01*
X0388659Y0051486D01*
X0388778Y0051582D01*
X0388900Y0051675D01*
X0389025Y0051764D01*
X0389152Y0051851D01*
X0389281Y0051933D01*
X0389412Y0052013D01*
X0389545Y0052089D01*
X0389680Y0052162D01*
X0389817Y0052231D01*
X0389956Y0052296D01*
X0390096Y0052358D01*
X0390238Y0052416D01*
X0390381Y0052471D01*
X0390526Y0052522D01*
X0390672Y0052569D01*
X0390819Y0052612D01*
X0390967Y0052651D01*
X0391116Y0052687D01*
X0391266Y0052718D01*
X0391417Y0052746D01*
X0391568Y0052770D01*
X0391721Y0052790D01*
X0391873Y0052806D01*
X0392026Y0052818D01*
X0392179Y0052826D01*
X0392332Y0052830D01*
X0392486Y0052830D01*
X0392639Y0052826D01*
X0392792Y0052818D01*
X0392945Y0052806D01*
X0393097Y0052790D01*
X0393250Y0052770D01*
X0393401Y0052746D01*
X0393552Y0052718D01*
X0393702Y0052687D01*
X0393851Y0052651D01*
X0393999Y0052612D01*
X0394146Y0052569D01*
X0394292Y0052522D01*
X0394437Y0052471D01*
X0394580Y0052416D01*
X0394722Y0052358D01*
X0394862Y0052296D01*
X0395001Y0052231D01*
X0395138Y0052162D01*
X0395273Y0052089D01*
X0395406Y0052013D01*
X0395537Y0051933D01*
X0395666Y0051851D01*
X0395793Y0051764D01*
X0395918Y0051675D01*
X0396040Y0051582D01*
X0396159Y0051486D01*
X0396277Y0051387D01*
X0396391Y0051286D01*
X0396503Y0051181D01*
X0396612Y0051073D01*
X0396718Y0050962D01*
X0396822Y0050849D01*
X0396922Y0050733D01*
X0397020Y0050615D01*
X0397114Y0050494D01*
X0397205Y0050371D01*
X0397293Y0050245D01*
X0397377Y0050117D01*
X0397459Y0049987D01*
X0397536Y0049855D01*
X0397611Y0049721D01*
X0397682Y0049585D01*
X0397749Y0049447D01*
X0397813Y0049307D01*
X0397873Y0049166D01*
X0397929Y0049024D01*
X0397982Y0048880D01*
X0398031Y0048734D01*
X0398076Y0048588D01*
X0398117Y0048440D01*
X0398154Y0048292D01*
X0398188Y0048142D01*
X0398218Y0047991D01*
X0398243Y0047840D01*
X0398265Y0047689D01*
X0398283Y0047536D01*
X0398297Y0047384D01*
X0398307Y0047231D01*
X0398313Y0047077D01*
X0398315Y0046924D01*
X0398313Y0046771D01*
X0398307Y0046617D01*
X0398297Y0046464D01*
X0398283Y0046312D01*
X0398265Y0046159D01*
X0398243Y0046008D01*
X0398218Y0045857D01*
X0398188Y0045706D01*
X0398154Y0045556D01*
X0398117Y0045408D01*
X0398076Y0045260D01*
X0398031Y0045114D01*
X0397982Y0044968D01*
X0397929Y0044824D01*
X0397873Y0044682D01*
X0397813Y0044541D01*
X0397749Y0044401D01*
X0397682Y0044263D01*
X0397611Y0044127D01*
X0397536Y0043993D01*
X0397459Y0043861D01*
X0397377Y0043731D01*
X0397293Y0043603D01*
X0397205Y0043477D01*
X0397114Y0043354D01*
X0397020Y0043233D01*
X0396922Y0043115D01*
X0396822Y0042999D01*
X0396718Y0042886D01*
X0396612Y0042775D01*
X0396503Y0042667D01*
X0396391Y0042562D01*
X0396277Y0042461D01*
X0396159Y0042362D01*
X0396040Y0042266D01*
X0395918Y0042173D01*
X0395793Y0042084D01*
X0395666Y0041997D01*
X0395537Y0041915D01*
X0395406Y0041835D01*
X0395273Y0041759D01*
X0395138Y0041686D01*
X0395001Y0041617D01*
X0394862Y0041552D01*
X0394722Y0041490D01*
X0394580Y0041432D01*
X0394437Y0041377D01*
X0394292Y0041326D01*
X0394146Y0041279D01*
X0393999Y0041236D01*
X0393851Y0041197D01*
X0393702Y0041161D01*
X0393552Y0041130D01*
X0393401Y0041102D01*
X0393250Y0041078D01*
X0393097Y0041058D01*
X0392945Y0041042D01*
X0392792Y0041030D01*
X0392639Y0041022D01*
X0392486Y0041018D01*
X0392332Y0041018D01*
X0392179Y0041022D01*
X0392026Y0041030D01*
X0391873Y0041042D01*
X0391721Y0041058D01*
X0391568Y0041078D01*
X0391417Y0041102D01*
X0391266Y0041130D01*
X0391116Y0041161D01*
X0390967Y0041197D01*
X0390819Y0041236D01*
X0390672Y0041279D01*
X0390526Y0041326D01*
X0390381Y0041377D01*
X0390238Y0041432D01*
X0390096Y0041490D01*
X0389956Y0041552D01*
X0389817Y0041617D01*
X0389680Y0041686D01*
X0389545Y0041759D01*
X0389412Y0041835D01*
X0389281Y0041915D01*
X0389152Y0041997D01*
X0389025Y0042084D01*
X0388900Y0042173D01*
X0388778Y0042266D01*
X0388659Y0042362D01*
X0388541Y0042461D01*
X0388427Y0042562D01*
X0388315Y0042667D01*
X0388206Y0042775D01*
X0388100Y0042886D01*
X0387996Y0042999D01*
X0387896Y0043115D01*
X0387798Y0043233D01*
X0387704Y0043354D01*
X0387613Y0043477D01*
X0387525Y0043603D01*
X0387441Y0043731D01*
X0387359Y0043861D01*
X0387282Y0043993D01*
X0387207Y0044127D01*
X0387136Y0044263D01*
X0387069Y0044401D01*
X0387005Y0044541D01*
X0386945Y0044682D01*
X0386889Y0044824D01*
X0386836Y0044968D01*
X0386787Y0045114D01*
X0386742Y0045260D01*
X0386701Y0045408D01*
X0386664Y0045556D01*
X0386630Y0045706D01*
X0386600Y0045857D01*
X0386575Y0046008D01*
X0386553Y0046159D01*
X0386535Y0046312D01*
X0386521Y0046464D01*
X0386511Y0046617D01*
X0386505Y0046771D01*
X0386503Y0046924D01*
M02*
