G75*
%MOIN*%
%OFA0B0*%
%FSLAX25Y25*%
%IPPOS*%
%LPD*%
%AMOC8*
5,1,8,0,0,1.08239X$1,22.5*
%
%ADD10C,0.00000*%
%ADD11C,0.00600*%
%ADD12C,0.00500*%
%ADD13C,0.01000*%
%ADD14C,0.00400*%
%ADD15C,0.00300*%
%ADD16C,0.00800*%
%ADD17R,0.00984X0.00886*%
%ADD18C,0.02000*%
%ADD19R,0.42000X0.03000*%
%ADD20R,0.07500X0.02000*%
%ADD21R,0.03000X0.02000*%
%ADD22C,0.02000*%
D10*
X0008551Y0007554D02*
X0008551Y0322514D01*
X0402252Y0322514D01*
X0402252Y0007554D01*
X0008551Y0007554D01*
X0040047Y0046924D02*
X0040049Y0047077D01*
X0040055Y0047231D01*
X0040065Y0047384D01*
X0040079Y0047536D01*
X0040097Y0047689D01*
X0040119Y0047840D01*
X0040144Y0047991D01*
X0040174Y0048142D01*
X0040208Y0048292D01*
X0040245Y0048440D01*
X0040286Y0048588D01*
X0040331Y0048734D01*
X0040380Y0048880D01*
X0040433Y0049024D01*
X0040489Y0049166D01*
X0040549Y0049307D01*
X0040613Y0049447D01*
X0040680Y0049585D01*
X0040751Y0049721D01*
X0040826Y0049855D01*
X0040903Y0049987D01*
X0040985Y0050117D01*
X0041069Y0050245D01*
X0041157Y0050371D01*
X0041248Y0050494D01*
X0041342Y0050615D01*
X0041440Y0050733D01*
X0041540Y0050849D01*
X0041644Y0050962D01*
X0041750Y0051073D01*
X0041859Y0051181D01*
X0041971Y0051286D01*
X0042085Y0051387D01*
X0042203Y0051486D01*
X0042322Y0051582D01*
X0042444Y0051675D01*
X0042569Y0051764D01*
X0042696Y0051851D01*
X0042825Y0051933D01*
X0042956Y0052013D01*
X0043089Y0052089D01*
X0043224Y0052162D01*
X0043361Y0052231D01*
X0043500Y0052296D01*
X0043640Y0052358D01*
X0043782Y0052416D01*
X0043925Y0052471D01*
X0044070Y0052522D01*
X0044216Y0052569D01*
X0044363Y0052612D01*
X0044511Y0052651D01*
X0044660Y0052687D01*
X0044810Y0052718D01*
X0044961Y0052746D01*
X0045112Y0052770D01*
X0045265Y0052790D01*
X0045417Y0052806D01*
X0045570Y0052818D01*
X0045723Y0052826D01*
X0045876Y0052830D01*
X0046030Y0052830D01*
X0046183Y0052826D01*
X0046336Y0052818D01*
X0046489Y0052806D01*
X0046641Y0052790D01*
X0046794Y0052770D01*
X0046945Y0052746D01*
X0047096Y0052718D01*
X0047246Y0052687D01*
X0047395Y0052651D01*
X0047543Y0052612D01*
X0047690Y0052569D01*
X0047836Y0052522D01*
X0047981Y0052471D01*
X0048124Y0052416D01*
X0048266Y0052358D01*
X0048406Y0052296D01*
X0048545Y0052231D01*
X0048682Y0052162D01*
X0048817Y0052089D01*
X0048950Y0052013D01*
X0049081Y0051933D01*
X0049210Y0051851D01*
X0049337Y0051764D01*
X0049462Y0051675D01*
X0049584Y0051582D01*
X0049703Y0051486D01*
X0049821Y0051387D01*
X0049935Y0051286D01*
X0050047Y0051181D01*
X0050156Y0051073D01*
X0050262Y0050962D01*
X0050366Y0050849D01*
X0050466Y0050733D01*
X0050564Y0050615D01*
X0050658Y0050494D01*
X0050749Y0050371D01*
X0050837Y0050245D01*
X0050921Y0050117D01*
X0051003Y0049987D01*
X0051080Y0049855D01*
X0051155Y0049721D01*
X0051226Y0049585D01*
X0051293Y0049447D01*
X0051357Y0049307D01*
X0051417Y0049166D01*
X0051473Y0049024D01*
X0051526Y0048880D01*
X0051575Y0048734D01*
X0051620Y0048588D01*
X0051661Y0048440D01*
X0051698Y0048292D01*
X0051732Y0048142D01*
X0051762Y0047991D01*
X0051787Y0047840D01*
X0051809Y0047689D01*
X0051827Y0047536D01*
X0051841Y0047384D01*
X0051851Y0047231D01*
X0051857Y0047077D01*
X0051859Y0046924D01*
X0051857Y0046771D01*
X0051851Y0046617D01*
X0051841Y0046464D01*
X0051827Y0046312D01*
X0051809Y0046159D01*
X0051787Y0046008D01*
X0051762Y0045857D01*
X0051732Y0045706D01*
X0051698Y0045556D01*
X0051661Y0045408D01*
X0051620Y0045260D01*
X0051575Y0045114D01*
X0051526Y0044968D01*
X0051473Y0044824D01*
X0051417Y0044682D01*
X0051357Y0044541D01*
X0051293Y0044401D01*
X0051226Y0044263D01*
X0051155Y0044127D01*
X0051080Y0043993D01*
X0051003Y0043861D01*
X0050921Y0043731D01*
X0050837Y0043603D01*
X0050749Y0043477D01*
X0050658Y0043354D01*
X0050564Y0043233D01*
X0050466Y0043115D01*
X0050366Y0042999D01*
X0050262Y0042886D01*
X0050156Y0042775D01*
X0050047Y0042667D01*
X0049935Y0042562D01*
X0049821Y0042461D01*
X0049703Y0042362D01*
X0049584Y0042266D01*
X0049462Y0042173D01*
X0049337Y0042084D01*
X0049210Y0041997D01*
X0049081Y0041915D01*
X0048950Y0041835D01*
X0048817Y0041759D01*
X0048682Y0041686D01*
X0048545Y0041617D01*
X0048406Y0041552D01*
X0048266Y0041490D01*
X0048124Y0041432D01*
X0047981Y0041377D01*
X0047836Y0041326D01*
X0047690Y0041279D01*
X0047543Y0041236D01*
X0047395Y0041197D01*
X0047246Y0041161D01*
X0047096Y0041130D01*
X0046945Y0041102D01*
X0046794Y0041078D01*
X0046641Y0041058D01*
X0046489Y0041042D01*
X0046336Y0041030D01*
X0046183Y0041022D01*
X0046030Y0041018D01*
X0045876Y0041018D01*
X0045723Y0041022D01*
X0045570Y0041030D01*
X0045417Y0041042D01*
X0045265Y0041058D01*
X0045112Y0041078D01*
X0044961Y0041102D01*
X0044810Y0041130D01*
X0044660Y0041161D01*
X0044511Y0041197D01*
X0044363Y0041236D01*
X0044216Y0041279D01*
X0044070Y0041326D01*
X0043925Y0041377D01*
X0043782Y0041432D01*
X0043640Y0041490D01*
X0043500Y0041552D01*
X0043361Y0041617D01*
X0043224Y0041686D01*
X0043089Y0041759D01*
X0042956Y0041835D01*
X0042825Y0041915D01*
X0042696Y0041997D01*
X0042569Y0042084D01*
X0042444Y0042173D01*
X0042322Y0042266D01*
X0042203Y0042362D01*
X0042085Y0042461D01*
X0041971Y0042562D01*
X0041859Y0042667D01*
X0041750Y0042775D01*
X0041644Y0042886D01*
X0041540Y0042999D01*
X0041440Y0043115D01*
X0041342Y0043233D01*
X0041248Y0043354D01*
X0041157Y0043477D01*
X0041069Y0043603D01*
X0040985Y0043731D01*
X0040903Y0043861D01*
X0040826Y0043993D01*
X0040751Y0044127D01*
X0040680Y0044263D01*
X0040613Y0044401D01*
X0040549Y0044541D01*
X0040489Y0044682D01*
X0040433Y0044824D01*
X0040380Y0044968D01*
X0040331Y0045114D01*
X0040286Y0045260D01*
X0040245Y0045408D01*
X0040208Y0045556D01*
X0040174Y0045706D01*
X0040144Y0045857D01*
X0040119Y0046008D01*
X0040097Y0046159D01*
X0040079Y0046312D01*
X0040065Y0046464D01*
X0040055Y0046617D01*
X0040049Y0046771D01*
X0040047Y0046924D01*
X0040047Y0302829D02*
X0040049Y0302982D01*
X0040055Y0303136D01*
X0040065Y0303289D01*
X0040079Y0303441D01*
X0040097Y0303594D01*
X0040119Y0303745D01*
X0040144Y0303896D01*
X0040174Y0304047D01*
X0040208Y0304197D01*
X0040245Y0304345D01*
X0040286Y0304493D01*
X0040331Y0304639D01*
X0040380Y0304785D01*
X0040433Y0304929D01*
X0040489Y0305071D01*
X0040549Y0305212D01*
X0040613Y0305352D01*
X0040680Y0305490D01*
X0040751Y0305626D01*
X0040826Y0305760D01*
X0040903Y0305892D01*
X0040985Y0306022D01*
X0041069Y0306150D01*
X0041157Y0306276D01*
X0041248Y0306399D01*
X0041342Y0306520D01*
X0041440Y0306638D01*
X0041540Y0306754D01*
X0041644Y0306867D01*
X0041750Y0306978D01*
X0041859Y0307086D01*
X0041971Y0307191D01*
X0042085Y0307292D01*
X0042203Y0307391D01*
X0042322Y0307487D01*
X0042444Y0307580D01*
X0042569Y0307669D01*
X0042696Y0307756D01*
X0042825Y0307838D01*
X0042956Y0307918D01*
X0043089Y0307994D01*
X0043224Y0308067D01*
X0043361Y0308136D01*
X0043500Y0308201D01*
X0043640Y0308263D01*
X0043782Y0308321D01*
X0043925Y0308376D01*
X0044070Y0308427D01*
X0044216Y0308474D01*
X0044363Y0308517D01*
X0044511Y0308556D01*
X0044660Y0308592D01*
X0044810Y0308623D01*
X0044961Y0308651D01*
X0045112Y0308675D01*
X0045265Y0308695D01*
X0045417Y0308711D01*
X0045570Y0308723D01*
X0045723Y0308731D01*
X0045876Y0308735D01*
X0046030Y0308735D01*
X0046183Y0308731D01*
X0046336Y0308723D01*
X0046489Y0308711D01*
X0046641Y0308695D01*
X0046794Y0308675D01*
X0046945Y0308651D01*
X0047096Y0308623D01*
X0047246Y0308592D01*
X0047395Y0308556D01*
X0047543Y0308517D01*
X0047690Y0308474D01*
X0047836Y0308427D01*
X0047981Y0308376D01*
X0048124Y0308321D01*
X0048266Y0308263D01*
X0048406Y0308201D01*
X0048545Y0308136D01*
X0048682Y0308067D01*
X0048817Y0307994D01*
X0048950Y0307918D01*
X0049081Y0307838D01*
X0049210Y0307756D01*
X0049337Y0307669D01*
X0049462Y0307580D01*
X0049584Y0307487D01*
X0049703Y0307391D01*
X0049821Y0307292D01*
X0049935Y0307191D01*
X0050047Y0307086D01*
X0050156Y0306978D01*
X0050262Y0306867D01*
X0050366Y0306754D01*
X0050466Y0306638D01*
X0050564Y0306520D01*
X0050658Y0306399D01*
X0050749Y0306276D01*
X0050837Y0306150D01*
X0050921Y0306022D01*
X0051003Y0305892D01*
X0051080Y0305760D01*
X0051155Y0305626D01*
X0051226Y0305490D01*
X0051293Y0305352D01*
X0051357Y0305212D01*
X0051417Y0305071D01*
X0051473Y0304929D01*
X0051526Y0304785D01*
X0051575Y0304639D01*
X0051620Y0304493D01*
X0051661Y0304345D01*
X0051698Y0304197D01*
X0051732Y0304047D01*
X0051762Y0303896D01*
X0051787Y0303745D01*
X0051809Y0303594D01*
X0051827Y0303441D01*
X0051841Y0303289D01*
X0051851Y0303136D01*
X0051857Y0302982D01*
X0051859Y0302829D01*
X0051857Y0302676D01*
X0051851Y0302522D01*
X0051841Y0302369D01*
X0051827Y0302217D01*
X0051809Y0302064D01*
X0051787Y0301913D01*
X0051762Y0301762D01*
X0051732Y0301611D01*
X0051698Y0301461D01*
X0051661Y0301313D01*
X0051620Y0301165D01*
X0051575Y0301019D01*
X0051526Y0300873D01*
X0051473Y0300729D01*
X0051417Y0300587D01*
X0051357Y0300446D01*
X0051293Y0300306D01*
X0051226Y0300168D01*
X0051155Y0300032D01*
X0051080Y0299898D01*
X0051003Y0299766D01*
X0050921Y0299636D01*
X0050837Y0299508D01*
X0050749Y0299382D01*
X0050658Y0299259D01*
X0050564Y0299138D01*
X0050466Y0299020D01*
X0050366Y0298904D01*
X0050262Y0298791D01*
X0050156Y0298680D01*
X0050047Y0298572D01*
X0049935Y0298467D01*
X0049821Y0298366D01*
X0049703Y0298267D01*
X0049584Y0298171D01*
X0049462Y0298078D01*
X0049337Y0297989D01*
X0049210Y0297902D01*
X0049081Y0297820D01*
X0048950Y0297740D01*
X0048817Y0297664D01*
X0048682Y0297591D01*
X0048545Y0297522D01*
X0048406Y0297457D01*
X0048266Y0297395D01*
X0048124Y0297337D01*
X0047981Y0297282D01*
X0047836Y0297231D01*
X0047690Y0297184D01*
X0047543Y0297141D01*
X0047395Y0297102D01*
X0047246Y0297066D01*
X0047096Y0297035D01*
X0046945Y0297007D01*
X0046794Y0296983D01*
X0046641Y0296963D01*
X0046489Y0296947D01*
X0046336Y0296935D01*
X0046183Y0296927D01*
X0046030Y0296923D01*
X0045876Y0296923D01*
X0045723Y0296927D01*
X0045570Y0296935D01*
X0045417Y0296947D01*
X0045265Y0296963D01*
X0045112Y0296983D01*
X0044961Y0297007D01*
X0044810Y0297035D01*
X0044660Y0297066D01*
X0044511Y0297102D01*
X0044363Y0297141D01*
X0044216Y0297184D01*
X0044070Y0297231D01*
X0043925Y0297282D01*
X0043782Y0297337D01*
X0043640Y0297395D01*
X0043500Y0297457D01*
X0043361Y0297522D01*
X0043224Y0297591D01*
X0043089Y0297664D01*
X0042956Y0297740D01*
X0042825Y0297820D01*
X0042696Y0297902D01*
X0042569Y0297989D01*
X0042444Y0298078D01*
X0042322Y0298171D01*
X0042203Y0298267D01*
X0042085Y0298366D01*
X0041971Y0298467D01*
X0041859Y0298572D01*
X0041750Y0298680D01*
X0041644Y0298791D01*
X0041540Y0298904D01*
X0041440Y0299020D01*
X0041342Y0299138D01*
X0041248Y0299259D01*
X0041157Y0299382D01*
X0041069Y0299508D01*
X0040985Y0299636D01*
X0040903Y0299766D01*
X0040826Y0299898D01*
X0040751Y0300032D01*
X0040680Y0300168D01*
X0040613Y0300306D01*
X0040549Y0300446D01*
X0040489Y0300587D01*
X0040433Y0300729D01*
X0040380Y0300873D01*
X0040331Y0301019D01*
X0040286Y0301165D01*
X0040245Y0301313D01*
X0040208Y0301461D01*
X0040174Y0301611D01*
X0040144Y0301762D01*
X0040119Y0301913D01*
X0040097Y0302064D01*
X0040079Y0302217D01*
X0040065Y0302369D01*
X0040055Y0302522D01*
X0040049Y0302676D01*
X0040047Y0302829D01*
X0386503Y0302829D02*
X0386505Y0302982D01*
X0386511Y0303136D01*
X0386521Y0303289D01*
X0386535Y0303441D01*
X0386553Y0303594D01*
X0386575Y0303745D01*
X0386600Y0303896D01*
X0386630Y0304047D01*
X0386664Y0304197D01*
X0386701Y0304345D01*
X0386742Y0304493D01*
X0386787Y0304639D01*
X0386836Y0304785D01*
X0386889Y0304929D01*
X0386945Y0305071D01*
X0387005Y0305212D01*
X0387069Y0305352D01*
X0387136Y0305490D01*
X0387207Y0305626D01*
X0387282Y0305760D01*
X0387359Y0305892D01*
X0387441Y0306022D01*
X0387525Y0306150D01*
X0387613Y0306276D01*
X0387704Y0306399D01*
X0387798Y0306520D01*
X0387896Y0306638D01*
X0387996Y0306754D01*
X0388100Y0306867D01*
X0388206Y0306978D01*
X0388315Y0307086D01*
X0388427Y0307191D01*
X0388541Y0307292D01*
X0388659Y0307391D01*
X0388778Y0307487D01*
X0388900Y0307580D01*
X0389025Y0307669D01*
X0389152Y0307756D01*
X0389281Y0307838D01*
X0389412Y0307918D01*
X0389545Y0307994D01*
X0389680Y0308067D01*
X0389817Y0308136D01*
X0389956Y0308201D01*
X0390096Y0308263D01*
X0390238Y0308321D01*
X0390381Y0308376D01*
X0390526Y0308427D01*
X0390672Y0308474D01*
X0390819Y0308517D01*
X0390967Y0308556D01*
X0391116Y0308592D01*
X0391266Y0308623D01*
X0391417Y0308651D01*
X0391568Y0308675D01*
X0391721Y0308695D01*
X0391873Y0308711D01*
X0392026Y0308723D01*
X0392179Y0308731D01*
X0392332Y0308735D01*
X0392486Y0308735D01*
X0392639Y0308731D01*
X0392792Y0308723D01*
X0392945Y0308711D01*
X0393097Y0308695D01*
X0393250Y0308675D01*
X0393401Y0308651D01*
X0393552Y0308623D01*
X0393702Y0308592D01*
X0393851Y0308556D01*
X0393999Y0308517D01*
X0394146Y0308474D01*
X0394292Y0308427D01*
X0394437Y0308376D01*
X0394580Y0308321D01*
X0394722Y0308263D01*
X0394862Y0308201D01*
X0395001Y0308136D01*
X0395138Y0308067D01*
X0395273Y0307994D01*
X0395406Y0307918D01*
X0395537Y0307838D01*
X0395666Y0307756D01*
X0395793Y0307669D01*
X0395918Y0307580D01*
X0396040Y0307487D01*
X0396159Y0307391D01*
X0396277Y0307292D01*
X0396391Y0307191D01*
X0396503Y0307086D01*
X0396612Y0306978D01*
X0396718Y0306867D01*
X0396822Y0306754D01*
X0396922Y0306638D01*
X0397020Y0306520D01*
X0397114Y0306399D01*
X0397205Y0306276D01*
X0397293Y0306150D01*
X0397377Y0306022D01*
X0397459Y0305892D01*
X0397536Y0305760D01*
X0397611Y0305626D01*
X0397682Y0305490D01*
X0397749Y0305352D01*
X0397813Y0305212D01*
X0397873Y0305071D01*
X0397929Y0304929D01*
X0397982Y0304785D01*
X0398031Y0304639D01*
X0398076Y0304493D01*
X0398117Y0304345D01*
X0398154Y0304197D01*
X0398188Y0304047D01*
X0398218Y0303896D01*
X0398243Y0303745D01*
X0398265Y0303594D01*
X0398283Y0303441D01*
X0398297Y0303289D01*
X0398307Y0303136D01*
X0398313Y0302982D01*
X0398315Y0302829D01*
X0398313Y0302676D01*
X0398307Y0302522D01*
X0398297Y0302369D01*
X0398283Y0302217D01*
X0398265Y0302064D01*
X0398243Y0301913D01*
X0398218Y0301762D01*
X0398188Y0301611D01*
X0398154Y0301461D01*
X0398117Y0301313D01*
X0398076Y0301165D01*
X0398031Y0301019D01*
X0397982Y0300873D01*
X0397929Y0300729D01*
X0397873Y0300587D01*
X0397813Y0300446D01*
X0397749Y0300306D01*
X0397682Y0300168D01*
X0397611Y0300032D01*
X0397536Y0299898D01*
X0397459Y0299766D01*
X0397377Y0299636D01*
X0397293Y0299508D01*
X0397205Y0299382D01*
X0397114Y0299259D01*
X0397020Y0299138D01*
X0396922Y0299020D01*
X0396822Y0298904D01*
X0396718Y0298791D01*
X0396612Y0298680D01*
X0396503Y0298572D01*
X0396391Y0298467D01*
X0396277Y0298366D01*
X0396159Y0298267D01*
X0396040Y0298171D01*
X0395918Y0298078D01*
X0395793Y0297989D01*
X0395666Y0297902D01*
X0395537Y0297820D01*
X0395406Y0297740D01*
X0395273Y0297664D01*
X0395138Y0297591D01*
X0395001Y0297522D01*
X0394862Y0297457D01*
X0394722Y0297395D01*
X0394580Y0297337D01*
X0394437Y0297282D01*
X0394292Y0297231D01*
X0394146Y0297184D01*
X0393999Y0297141D01*
X0393851Y0297102D01*
X0393702Y0297066D01*
X0393552Y0297035D01*
X0393401Y0297007D01*
X0393250Y0296983D01*
X0393097Y0296963D01*
X0392945Y0296947D01*
X0392792Y0296935D01*
X0392639Y0296927D01*
X0392486Y0296923D01*
X0392332Y0296923D01*
X0392179Y0296927D01*
X0392026Y0296935D01*
X0391873Y0296947D01*
X0391721Y0296963D01*
X0391568Y0296983D01*
X0391417Y0297007D01*
X0391266Y0297035D01*
X0391116Y0297066D01*
X0390967Y0297102D01*
X0390819Y0297141D01*
X0390672Y0297184D01*
X0390526Y0297231D01*
X0390381Y0297282D01*
X0390238Y0297337D01*
X0390096Y0297395D01*
X0389956Y0297457D01*
X0389817Y0297522D01*
X0389680Y0297591D01*
X0389545Y0297664D01*
X0389412Y0297740D01*
X0389281Y0297820D01*
X0389152Y0297902D01*
X0389025Y0297989D01*
X0388900Y0298078D01*
X0388778Y0298171D01*
X0388659Y0298267D01*
X0388541Y0298366D01*
X0388427Y0298467D01*
X0388315Y0298572D01*
X0388206Y0298680D01*
X0388100Y0298791D01*
X0387996Y0298904D01*
X0387896Y0299020D01*
X0387798Y0299138D01*
X0387704Y0299259D01*
X0387613Y0299382D01*
X0387525Y0299508D01*
X0387441Y0299636D01*
X0387359Y0299766D01*
X0387282Y0299898D01*
X0387207Y0300032D01*
X0387136Y0300168D01*
X0387069Y0300306D01*
X0387005Y0300446D01*
X0386945Y0300587D01*
X0386889Y0300729D01*
X0386836Y0300873D01*
X0386787Y0301019D01*
X0386742Y0301165D01*
X0386701Y0301313D01*
X0386664Y0301461D01*
X0386630Y0301611D01*
X0386600Y0301762D01*
X0386575Y0301913D01*
X0386553Y0302064D01*
X0386535Y0302217D01*
X0386521Y0302369D01*
X0386511Y0302522D01*
X0386505Y0302676D01*
X0386503Y0302829D01*
X0386503Y0046924D02*
X0386505Y0047077D01*
X0386511Y0047231D01*
X0386521Y0047384D01*
X0386535Y0047536D01*
X0386553Y0047689D01*
X0386575Y0047840D01*
X0386600Y0047991D01*
X0386630Y0048142D01*
X0386664Y0048292D01*
X0386701Y0048440D01*
X0386742Y0048588D01*
X0386787Y0048734D01*
X0386836Y0048880D01*
X0386889Y0049024D01*
X0386945Y0049166D01*
X0387005Y0049307D01*
X0387069Y0049447D01*
X0387136Y0049585D01*
X0387207Y0049721D01*
X0387282Y0049855D01*
X0387359Y0049987D01*
X0387441Y0050117D01*
X0387525Y0050245D01*
X0387613Y0050371D01*
X0387704Y0050494D01*
X0387798Y0050615D01*
X0387896Y0050733D01*
X0387996Y0050849D01*
X0388100Y0050962D01*
X0388206Y0051073D01*
X0388315Y0051181D01*
X0388427Y0051286D01*
X0388541Y0051387D01*
X0388659Y0051486D01*
X0388778Y0051582D01*
X0388900Y0051675D01*
X0389025Y0051764D01*
X0389152Y0051851D01*
X0389281Y0051933D01*
X0389412Y0052013D01*
X0389545Y0052089D01*
X0389680Y0052162D01*
X0389817Y0052231D01*
X0389956Y0052296D01*
X0390096Y0052358D01*
X0390238Y0052416D01*
X0390381Y0052471D01*
X0390526Y0052522D01*
X0390672Y0052569D01*
X0390819Y0052612D01*
X0390967Y0052651D01*
X0391116Y0052687D01*
X0391266Y0052718D01*
X0391417Y0052746D01*
X0391568Y0052770D01*
X0391721Y0052790D01*
X0391873Y0052806D01*
X0392026Y0052818D01*
X0392179Y0052826D01*
X0392332Y0052830D01*
X0392486Y0052830D01*
X0392639Y0052826D01*
X0392792Y0052818D01*
X0392945Y0052806D01*
X0393097Y0052790D01*
X0393250Y0052770D01*
X0393401Y0052746D01*
X0393552Y0052718D01*
X0393702Y0052687D01*
X0393851Y0052651D01*
X0393999Y0052612D01*
X0394146Y0052569D01*
X0394292Y0052522D01*
X0394437Y0052471D01*
X0394580Y0052416D01*
X0394722Y0052358D01*
X0394862Y0052296D01*
X0395001Y0052231D01*
X0395138Y0052162D01*
X0395273Y0052089D01*
X0395406Y0052013D01*
X0395537Y0051933D01*
X0395666Y0051851D01*
X0395793Y0051764D01*
X0395918Y0051675D01*
X0396040Y0051582D01*
X0396159Y0051486D01*
X0396277Y0051387D01*
X0396391Y0051286D01*
X0396503Y0051181D01*
X0396612Y0051073D01*
X0396718Y0050962D01*
X0396822Y0050849D01*
X0396922Y0050733D01*
X0397020Y0050615D01*
X0397114Y0050494D01*
X0397205Y0050371D01*
X0397293Y0050245D01*
X0397377Y0050117D01*
X0397459Y0049987D01*
X0397536Y0049855D01*
X0397611Y0049721D01*
X0397682Y0049585D01*
X0397749Y0049447D01*
X0397813Y0049307D01*
X0397873Y0049166D01*
X0397929Y0049024D01*
X0397982Y0048880D01*
X0398031Y0048734D01*
X0398076Y0048588D01*
X0398117Y0048440D01*
X0398154Y0048292D01*
X0398188Y0048142D01*
X0398218Y0047991D01*
X0398243Y0047840D01*
X0398265Y0047689D01*
X0398283Y0047536D01*
X0398297Y0047384D01*
X0398307Y0047231D01*
X0398313Y0047077D01*
X0398315Y0046924D01*
X0398313Y0046771D01*
X0398307Y0046617D01*
X0398297Y0046464D01*
X0398283Y0046312D01*
X0398265Y0046159D01*
X0398243Y0046008D01*
X0398218Y0045857D01*
X0398188Y0045706D01*
X0398154Y0045556D01*
X0398117Y0045408D01*
X0398076Y0045260D01*
X0398031Y0045114D01*
X0397982Y0044968D01*
X0397929Y0044824D01*
X0397873Y0044682D01*
X0397813Y0044541D01*
X0397749Y0044401D01*
X0397682Y0044263D01*
X0397611Y0044127D01*
X0397536Y0043993D01*
X0397459Y0043861D01*
X0397377Y0043731D01*
X0397293Y0043603D01*
X0397205Y0043477D01*
X0397114Y0043354D01*
X0397020Y0043233D01*
X0396922Y0043115D01*
X0396822Y0042999D01*
X0396718Y0042886D01*
X0396612Y0042775D01*
X0396503Y0042667D01*
X0396391Y0042562D01*
X0396277Y0042461D01*
X0396159Y0042362D01*
X0396040Y0042266D01*
X0395918Y0042173D01*
X0395793Y0042084D01*
X0395666Y0041997D01*
X0395537Y0041915D01*
X0395406Y0041835D01*
X0395273Y0041759D01*
X0395138Y0041686D01*
X0395001Y0041617D01*
X0394862Y0041552D01*
X0394722Y0041490D01*
X0394580Y0041432D01*
X0394437Y0041377D01*
X0394292Y0041326D01*
X0394146Y0041279D01*
X0393999Y0041236D01*
X0393851Y0041197D01*
X0393702Y0041161D01*
X0393552Y0041130D01*
X0393401Y0041102D01*
X0393250Y0041078D01*
X0393097Y0041058D01*
X0392945Y0041042D01*
X0392792Y0041030D01*
X0392639Y0041022D01*
X0392486Y0041018D01*
X0392332Y0041018D01*
X0392179Y0041022D01*
X0392026Y0041030D01*
X0391873Y0041042D01*
X0391721Y0041058D01*
X0391568Y0041078D01*
X0391417Y0041102D01*
X0391266Y0041130D01*
X0391116Y0041161D01*
X0390967Y0041197D01*
X0390819Y0041236D01*
X0390672Y0041279D01*
X0390526Y0041326D01*
X0390381Y0041377D01*
X0390238Y0041432D01*
X0390096Y0041490D01*
X0389956Y0041552D01*
X0389817Y0041617D01*
X0389680Y0041686D01*
X0389545Y0041759D01*
X0389412Y0041835D01*
X0389281Y0041915D01*
X0389152Y0041997D01*
X0389025Y0042084D01*
X0388900Y0042173D01*
X0388778Y0042266D01*
X0388659Y0042362D01*
X0388541Y0042461D01*
X0388427Y0042562D01*
X0388315Y0042667D01*
X0388206Y0042775D01*
X0388100Y0042886D01*
X0387996Y0042999D01*
X0387896Y0043115D01*
X0387798Y0043233D01*
X0387704Y0043354D01*
X0387613Y0043477D01*
X0387525Y0043603D01*
X0387441Y0043731D01*
X0387359Y0043861D01*
X0387282Y0043993D01*
X0387207Y0044127D01*
X0387136Y0044263D01*
X0387069Y0044401D01*
X0387005Y0044541D01*
X0386945Y0044682D01*
X0386889Y0044824D01*
X0386836Y0044968D01*
X0386787Y0045114D01*
X0386742Y0045260D01*
X0386701Y0045408D01*
X0386664Y0045556D01*
X0386630Y0045706D01*
X0386600Y0045857D01*
X0386575Y0046008D01*
X0386553Y0046159D01*
X0386535Y0046312D01*
X0386521Y0046464D01*
X0386511Y0046617D01*
X0386505Y0046771D01*
X0386503Y0046924D01*
D11*
X0378909Y0046924D02*
X0378913Y0047255D01*
X0378925Y0047586D01*
X0378946Y0047917D01*
X0378974Y0048247D01*
X0379011Y0048577D01*
X0379055Y0048905D01*
X0379108Y0049232D01*
X0379168Y0049558D01*
X0379237Y0049882D01*
X0379314Y0050204D01*
X0379398Y0050525D01*
X0379490Y0050843D01*
X0379590Y0051159D01*
X0379698Y0051472D01*
X0379814Y0051783D01*
X0379937Y0052090D01*
X0380067Y0052395D01*
X0380205Y0052696D01*
X0380350Y0052994D01*
X0380503Y0053288D01*
X0380663Y0053578D01*
X0380830Y0053864D01*
X0381003Y0054146D01*
X0381184Y0054424D01*
X0381372Y0054697D01*
X0381566Y0054966D01*
X0381766Y0055230D01*
X0381973Y0055488D01*
X0382187Y0055742D01*
X0382406Y0055990D01*
X0382632Y0056233D01*
X0382863Y0056470D01*
X0383100Y0056701D01*
X0383343Y0056927D01*
X0383591Y0057146D01*
X0383845Y0057360D01*
X0384103Y0057567D01*
X0384367Y0057767D01*
X0384636Y0057961D01*
X0384909Y0058149D01*
X0385187Y0058330D01*
X0385469Y0058503D01*
X0385755Y0058670D01*
X0386045Y0058830D01*
X0386339Y0058983D01*
X0386637Y0059128D01*
X0386938Y0059266D01*
X0387243Y0059396D01*
X0387550Y0059519D01*
X0387861Y0059635D01*
X0388174Y0059743D01*
X0388490Y0059843D01*
X0388808Y0059935D01*
X0389129Y0060019D01*
X0389451Y0060096D01*
X0389775Y0060165D01*
X0390101Y0060225D01*
X0390428Y0060278D01*
X0390756Y0060322D01*
X0391086Y0060359D01*
X0391416Y0060387D01*
X0391747Y0060408D01*
X0392078Y0060420D01*
X0392409Y0060424D01*
X0392740Y0060420D01*
X0393071Y0060408D01*
X0393402Y0060387D01*
X0393732Y0060359D01*
X0394062Y0060322D01*
X0394390Y0060278D01*
X0394717Y0060225D01*
X0395043Y0060165D01*
X0395367Y0060096D01*
X0395689Y0060019D01*
X0396010Y0059935D01*
X0396328Y0059843D01*
X0396644Y0059743D01*
X0396957Y0059635D01*
X0397268Y0059519D01*
X0397575Y0059396D01*
X0397880Y0059266D01*
X0398181Y0059128D01*
X0398479Y0058983D01*
X0398773Y0058830D01*
X0399063Y0058670D01*
X0399349Y0058503D01*
X0399631Y0058330D01*
X0399909Y0058149D01*
X0400182Y0057961D01*
X0400451Y0057767D01*
X0400715Y0057567D01*
X0400973Y0057360D01*
X0401227Y0057146D01*
X0401475Y0056927D01*
X0401718Y0056701D01*
X0401955Y0056470D01*
X0402186Y0056233D01*
X0402412Y0055990D01*
X0402631Y0055742D01*
X0402845Y0055488D01*
X0403052Y0055230D01*
X0403252Y0054966D01*
X0403446Y0054697D01*
X0403634Y0054424D01*
X0403815Y0054146D01*
X0403988Y0053864D01*
X0404155Y0053578D01*
X0404315Y0053288D01*
X0404468Y0052994D01*
X0404613Y0052696D01*
X0404751Y0052395D01*
X0404881Y0052090D01*
X0405004Y0051783D01*
X0405120Y0051472D01*
X0405228Y0051159D01*
X0405328Y0050843D01*
X0405420Y0050525D01*
X0405504Y0050204D01*
X0405581Y0049882D01*
X0405650Y0049558D01*
X0405710Y0049232D01*
X0405763Y0048905D01*
X0405807Y0048577D01*
X0405844Y0048247D01*
X0405872Y0047917D01*
X0405893Y0047586D01*
X0405905Y0047255D01*
X0405909Y0046924D01*
X0405905Y0046593D01*
X0405893Y0046262D01*
X0405872Y0045931D01*
X0405844Y0045601D01*
X0405807Y0045271D01*
X0405763Y0044943D01*
X0405710Y0044616D01*
X0405650Y0044290D01*
X0405581Y0043966D01*
X0405504Y0043644D01*
X0405420Y0043323D01*
X0405328Y0043005D01*
X0405228Y0042689D01*
X0405120Y0042376D01*
X0405004Y0042065D01*
X0404881Y0041758D01*
X0404751Y0041453D01*
X0404613Y0041152D01*
X0404468Y0040854D01*
X0404315Y0040560D01*
X0404155Y0040270D01*
X0403988Y0039984D01*
X0403815Y0039702D01*
X0403634Y0039424D01*
X0403446Y0039151D01*
X0403252Y0038882D01*
X0403052Y0038618D01*
X0402845Y0038360D01*
X0402631Y0038106D01*
X0402412Y0037858D01*
X0402186Y0037615D01*
X0401955Y0037378D01*
X0401718Y0037147D01*
X0401475Y0036921D01*
X0401227Y0036702D01*
X0400973Y0036488D01*
X0400715Y0036281D01*
X0400451Y0036081D01*
X0400182Y0035887D01*
X0399909Y0035699D01*
X0399631Y0035518D01*
X0399349Y0035345D01*
X0399063Y0035178D01*
X0398773Y0035018D01*
X0398479Y0034865D01*
X0398181Y0034720D01*
X0397880Y0034582D01*
X0397575Y0034452D01*
X0397268Y0034329D01*
X0396957Y0034213D01*
X0396644Y0034105D01*
X0396328Y0034005D01*
X0396010Y0033913D01*
X0395689Y0033829D01*
X0395367Y0033752D01*
X0395043Y0033683D01*
X0394717Y0033623D01*
X0394390Y0033570D01*
X0394062Y0033526D01*
X0393732Y0033489D01*
X0393402Y0033461D01*
X0393071Y0033440D01*
X0392740Y0033428D01*
X0392409Y0033424D01*
X0392078Y0033428D01*
X0391747Y0033440D01*
X0391416Y0033461D01*
X0391086Y0033489D01*
X0390756Y0033526D01*
X0390428Y0033570D01*
X0390101Y0033623D01*
X0389775Y0033683D01*
X0389451Y0033752D01*
X0389129Y0033829D01*
X0388808Y0033913D01*
X0388490Y0034005D01*
X0388174Y0034105D01*
X0387861Y0034213D01*
X0387550Y0034329D01*
X0387243Y0034452D01*
X0386938Y0034582D01*
X0386637Y0034720D01*
X0386339Y0034865D01*
X0386045Y0035018D01*
X0385755Y0035178D01*
X0385469Y0035345D01*
X0385187Y0035518D01*
X0384909Y0035699D01*
X0384636Y0035887D01*
X0384367Y0036081D01*
X0384103Y0036281D01*
X0383845Y0036488D01*
X0383591Y0036702D01*
X0383343Y0036921D01*
X0383100Y0037147D01*
X0382863Y0037378D01*
X0382632Y0037615D01*
X0382406Y0037858D01*
X0382187Y0038106D01*
X0381973Y0038360D01*
X0381766Y0038618D01*
X0381566Y0038882D01*
X0381372Y0039151D01*
X0381184Y0039424D01*
X0381003Y0039702D01*
X0380830Y0039984D01*
X0380663Y0040270D01*
X0380503Y0040560D01*
X0380350Y0040854D01*
X0380205Y0041152D01*
X0380067Y0041453D01*
X0379937Y0041758D01*
X0379814Y0042065D01*
X0379698Y0042376D01*
X0379590Y0042689D01*
X0379490Y0043005D01*
X0379398Y0043323D01*
X0379314Y0043644D01*
X0379237Y0043966D01*
X0379168Y0044290D01*
X0379108Y0044616D01*
X0379055Y0044943D01*
X0379011Y0045271D01*
X0378974Y0045601D01*
X0378946Y0045931D01*
X0378925Y0046262D01*
X0378913Y0046593D01*
X0378909Y0046924D01*
X0352646Y0049955D02*
X0352646Y0039955D01*
X0343646Y0039955D01*
X0342646Y0040955D01*
X0341646Y0039955D01*
X0333646Y0039955D01*
X0332646Y0040955D01*
X0331646Y0039955D01*
X0323646Y0039955D01*
X0322646Y0040955D01*
X0321646Y0039955D01*
X0313646Y0039955D01*
X0312646Y0040955D01*
X0311646Y0039955D01*
X0303646Y0039955D01*
X0302646Y0040955D01*
X0301646Y0039955D01*
X0293646Y0039955D01*
X0292646Y0040955D01*
X0291646Y0039955D01*
X0283646Y0039955D01*
X0282646Y0040955D01*
X0281646Y0039955D01*
X0273646Y0039955D01*
X0272646Y0040955D01*
X0271646Y0039955D01*
X0263646Y0039955D01*
X0262646Y0040955D01*
X0261646Y0039955D01*
X0253646Y0039955D01*
X0252646Y0040955D01*
X0251646Y0039955D01*
X0243646Y0039955D01*
X0242646Y0040955D01*
X0241646Y0039955D01*
X0233646Y0039955D01*
X0232646Y0040955D01*
X0231646Y0039955D01*
X0223646Y0039955D01*
X0222646Y0040955D01*
X0221646Y0039955D01*
X0213646Y0039955D01*
X0212646Y0040955D01*
X0211646Y0039955D01*
X0203646Y0039955D01*
X0202646Y0040955D01*
X0201646Y0039955D01*
X0193646Y0039955D01*
X0192646Y0040955D01*
X0191646Y0039955D01*
X0183646Y0039955D01*
X0182646Y0040955D01*
X0181646Y0039955D01*
X0173646Y0039955D01*
X0172646Y0040955D01*
X0171646Y0039955D01*
X0163646Y0039955D01*
X0162646Y0040955D01*
X0161646Y0039955D01*
X0152646Y0039955D01*
X0152646Y0049955D01*
X0161646Y0049955D01*
X0162646Y0048955D01*
X0163646Y0049955D01*
X0171646Y0049955D01*
X0172646Y0048955D01*
X0173646Y0049955D01*
X0181646Y0049955D01*
X0182646Y0048955D01*
X0183646Y0049955D01*
X0191646Y0049955D01*
X0192646Y0048955D01*
X0193646Y0049955D01*
X0201646Y0049955D01*
X0202646Y0048955D01*
X0203646Y0049955D01*
X0211646Y0049955D01*
X0212646Y0048955D01*
X0213646Y0049955D01*
X0221646Y0049955D01*
X0222646Y0048955D01*
X0223646Y0049955D01*
X0231646Y0049955D01*
X0232646Y0048955D01*
X0233646Y0049955D01*
X0241646Y0049955D01*
X0242646Y0048955D01*
X0243646Y0049955D01*
X0251646Y0049955D01*
X0252646Y0048955D01*
X0253646Y0049955D01*
X0261646Y0049955D01*
X0262646Y0048955D01*
X0263646Y0049955D01*
X0271646Y0049955D01*
X0272646Y0048955D01*
X0273646Y0049955D01*
X0281646Y0049955D01*
X0282646Y0048955D01*
X0283646Y0049955D01*
X0291646Y0049955D01*
X0292646Y0048955D01*
X0293646Y0049955D01*
X0301646Y0049955D01*
X0302646Y0048955D01*
X0303646Y0049955D01*
X0311646Y0049955D01*
X0312646Y0048955D01*
X0313646Y0049955D01*
X0321646Y0049955D01*
X0322646Y0048955D01*
X0323646Y0049955D01*
X0331646Y0049955D01*
X0332646Y0048955D01*
X0333646Y0049955D01*
X0341646Y0049955D01*
X0342646Y0048955D01*
X0343646Y0049955D01*
X0352646Y0049955D01*
X0355795Y0062983D02*
X0355795Y0070483D01*
X0355669Y0070485D01*
X0355544Y0070491D01*
X0355419Y0070501D01*
X0355294Y0070515D01*
X0355169Y0070532D01*
X0355045Y0070554D01*
X0354922Y0070579D01*
X0354800Y0070609D01*
X0354679Y0070642D01*
X0354559Y0070679D01*
X0354440Y0070719D01*
X0354323Y0070764D01*
X0354206Y0070812D01*
X0354092Y0070864D01*
X0353979Y0070919D01*
X0353868Y0070978D01*
X0353759Y0071040D01*
X0353652Y0071106D01*
X0353547Y0071175D01*
X0353444Y0071247D01*
X0353343Y0071322D01*
X0353245Y0071401D01*
X0353150Y0071483D01*
X0353057Y0071567D01*
X0352967Y0071655D01*
X0352879Y0071745D01*
X0352795Y0071838D01*
X0352713Y0071933D01*
X0352634Y0072031D01*
X0352559Y0072132D01*
X0352487Y0072235D01*
X0352418Y0072340D01*
X0352352Y0072447D01*
X0352290Y0072556D01*
X0352231Y0072667D01*
X0352176Y0072780D01*
X0352124Y0072894D01*
X0352076Y0073011D01*
X0352031Y0073128D01*
X0351991Y0073247D01*
X0351954Y0073367D01*
X0351921Y0073488D01*
X0351891Y0073610D01*
X0351866Y0073733D01*
X0351844Y0073857D01*
X0351827Y0073982D01*
X0351813Y0074107D01*
X0351803Y0074232D01*
X0351797Y0074357D01*
X0351795Y0074483D01*
X0351797Y0074609D01*
X0351803Y0074734D01*
X0351813Y0074859D01*
X0351827Y0074984D01*
X0351844Y0075109D01*
X0351866Y0075233D01*
X0351891Y0075356D01*
X0351921Y0075478D01*
X0351954Y0075599D01*
X0351991Y0075719D01*
X0352031Y0075838D01*
X0352076Y0075955D01*
X0352124Y0076072D01*
X0352176Y0076186D01*
X0352231Y0076299D01*
X0352290Y0076410D01*
X0352352Y0076519D01*
X0352418Y0076626D01*
X0352487Y0076731D01*
X0352559Y0076834D01*
X0352634Y0076935D01*
X0352713Y0077033D01*
X0352795Y0077128D01*
X0352879Y0077221D01*
X0352967Y0077311D01*
X0353057Y0077399D01*
X0353150Y0077483D01*
X0353245Y0077565D01*
X0353343Y0077644D01*
X0353444Y0077719D01*
X0353547Y0077791D01*
X0353652Y0077860D01*
X0353759Y0077926D01*
X0353868Y0077988D01*
X0353979Y0078047D01*
X0354092Y0078102D01*
X0354206Y0078154D01*
X0354323Y0078202D01*
X0354440Y0078247D01*
X0354559Y0078287D01*
X0354679Y0078324D01*
X0354800Y0078357D01*
X0354922Y0078387D01*
X0355045Y0078412D01*
X0355169Y0078434D01*
X0355294Y0078451D01*
X0355419Y0078465D01*
X0355544Y0078475D01*
X0355669Y0078481D01*
X0355795Y0078483D01*
X0355795Y0085983D01*
X0255795Y0085983D01*
X0255795Y0062983D01*
X0355795Y0062983D01*
X0349235Y0102920D02*
X0382435Y0102920D01*
X0382435Y0163920D01*
X0349235Y0163920D01*
X0349235Y0102920D01*
X0341028Y0130318D02*
X0304028Y0130318D01*
X0303028Y0131318D01*
X0302528Y0142818D01*
X0303713Y0159924D02*
X0302713Y0160924D01*
X0302213Y0172424D01*
X0303713Y0159924D02*
X0340713Y0159924D01*
X0341713Y0160924D01*
X0342213Y0172424D01*
X0349235Y0164337D02*
X0382435Y0164337D01*
X0382435Y0225337D01*
X0349235Y0225337D01*
X0349235Y0164337D01*
X0342528Y0142818D02*
X0342028Y0131318D01*
X0341028Y0130318D01*
X0270225Y0129107D02*
X0262625Y0129107D01*
X0262625Y0141907D02*
X0270225Y0141907D01*
X0270225Y0143870D02*
X0262625Y0143870D01*
X0262625Y0156670D02*
X0270225Y0156670D01*
X0270225Y0158634D02*
X0262625Y0158634D01*
X0262625Y0171434D02*
X0270225Y0171434D01*
X0303028Y0191357D02*
X0302528Y0202857D01*
X0303028Y0191357D02*
X0304028Y0190357D01*
X0341028Y0190357D01*
X0342028Y0191357D01*
X0342528Y0202857D01*
X0368551Y0251054D02*
X0368551Y0258554D01*
X0368425Y0258556D01*
X0368300Y0258562D01*
X0368175Y0258572D01*
X0368050Y0258586D01*
X0367925Y0258603D01*
X0367801Y0258625D01*
X0367678Y0258650D01*
X0367556Y0258680D01*
X0367435Y0258713D01*
X0367315Y0258750D01*
X0367196Y0258790D01*
X0367079Y0258835D01*
X0366962Y0258883D01*
X0366848Y0258935D01*
X0366735Y0258990D01*
X0366624Y0259049D01*
X0366515Y0259111D01*
X0366408Y0259177D01*
X0366303Y0259246D01*
X0366200Y0259318D01*
X0366099Y0259393D01*
X0366001Y0259472D01*
X0365906Y0259554D01*
X0365813Y0259638D01*
X0365723Y0259726D01*
X0365635Y0259816D01*
X0365551Y0259909D01*
X0365469Y0260004D01*
X0365390Y0260102D01*
X0365315Y0260203D01*
X0365243Y0260306D01*
X0365174Y0260411D01*
X0365108Y0260518D01*
X0365046Y0260627D01*
X0364987Y0260738D01*
X0364932Y0260851D01*
X0364880Y0260965D01*
X0364832Y0261082D01*
X0364787Y0261199D01*
X0364747Y0261318D01*
X0364710Y0261438D01*
X0364677Y0261559D01*
X0364647Y0261681D01*
X0364622Y0261804D01*
X0364600Y0261928D01*
X0364583Y0262053D01*
X0364569Y0262178D01*
X0364559Y0262303D01*
X0364553Y0262428D01*
X0364551Y0262554D01*
X0364553Y0262680D01*
X0364559Y0262805D01*
X0364569Y0262930D01*
X0364583Y0263055D01*
X0364600Y0263180D01*
X0364622Y0263304D01*
X0364647Y0263427D01*
X0364677Y0263549D01*
X0364710Y0263670D01*
X0364747Y0263790D01*
X0364787Y0263909D01*
X0364832Y0264026D01*
X0364880Y0264143D01*
X0364932Y0264257D01*
X0364987Y0264370D01*
X0365046Y0264481D01*
X0365108Y0264590D01*
X0365174Y0264697D01*
X0365243Y0264802D01*
X0365315Y0264905D01*
X0365390Y0265006D01*
X0365469Y0265104D01*
X0365551Y0265199D01*
X0365635Y0265292D01*
X0365723Y0265382D01*
X0365813Y0265470D01*
X0365906Y0265554D01*
X0366001Y0265636D01*
X0366099Y0265715D01*
X0366200Y0265790D01*
X0366303Y0265862D01*
X0366408Y0265931D01*
X0366515Y0265997D01*
X0366624Y0266059D01*
X0366735Y0266118D01*
X0366848Y0266173D01*
X0366962Y0266225D01*
X0367079Y0266273D01*
X0367196Y0266318D01*
X0367315Y0266358D01*
X0367435Y0266395D01*
X0367556Y0266428D01*
X0367678Y0266458D01*
X0367801Y0266483D01*
X0367925Y0266505D01*
X0368050Y0266522D01*
X0368175Y0266536D01*
X0368300Y0266546D01*
X0368425Y0266552D01*
X0368551Y0266554D01*
X0368551Y0274054D01*
X0268551Y0274054D01*
X0268551Y0266554D01*
X0268425Y0266552D01*
X0268300Y0266546D01*
X0268175Y0266536D01*
X0268050Y0266522D01*
X0267925Y0266505D01*
X0267801Y0266483D01*
X0267678Y0266458D01*
X0267556Y0266428D01*
X0267435Y0266395D01*
X0267315Y0266358D01*
X0267196Y0266318D01*
X0267079Y0266273D01*
X0266962Y0266225D01*
X0266848Y0266173D01*
X0266735Y0266118D01*
X0266624Y0266059D01*
X0266515Y0265997D01*
X0266408Y0265931D01*
X0266303Y0265862D01*
X0266200Y0265790D01*
X0266099Y0265715D01*
X0266001Y0265636D01*
X0265906Y0265554D01*
X0265813Y0265470D01*
X0265723Y0265382D01*
X0265635Y0265292D01*
X0265551Y0265199D01*
X0265469Y0265104D01*
X0265390Y0265006D01*
X0265315Y0264905D01*
X0265243Y0264802D01*
X0265174Y0264697D01*
X0265108Y0264590D01*
X0265046Y0264481D01*
X0264987Y0264370D01*
X0264932Y0264257D01*
X0264880Y0264143D01*
X0264832Y0264026D01*
X0264787Y0263909D01*
X0264747Y0263790D01*
X0264710Y0263670D01*
X0264677Y0263549D01*
X0264647Y0263427D01*
X0264622Y0263304D01*
X0264600Y0263180D01*
X0264583Y0263055D01*
X0264569Y0262930D01*
X0264559Y0262805D01*
X0264553Y0262680D01*
X0264551Y0262554D01*
X0264553Y0262428D01*
X0264559Y0262303D01*
X0264569Y0262178D01*
X0264583Y0262053D01*
X0264600Y0261928D01*
X0264622Y0261804D01*
X0264647Y0261681D01*
X0264677Y0261559D01*
X0264710Y0261438D01*
X0264747Y0261318D01*
X0264787Y0261199D01*
X0264832Y0261082D01*
X0264880Y0260965D01*
X0264932Y0260851D01*
X0264987Y0260738D01*
X0265046Y0260627D01*
X0265108Y0260518D01*
X0265174Y0260411D01*
X0265243Y0260306D01*
X0265315Y0260203D01*
X0265390Y0260102D01*
X0265469Y0260004D01*
X0265551Y0259909D01*
X0265635Y0259816D01*
X0265723Y0259726D01*
X0265813Y0259638D01*
X0265906Y0259554D01*
X0266001Y0259472D01*
X0266099Y0259393D01*
X0266200Y0259318D01*
X0266303Y0259246D01*
X0266408Y0259177D01*
X0266515Y0259111D01*
X0266624Y0259049D01*
X0266735Y0258990D01*
X0266848Y0258935D01*
X0266962Y0258883D01*
X0267079Y0258835D01*
X0267196Y0258790D01*
X0267315Y0258750D01*
X0267435Y0258713D01*
X0267556Y0258680D01*
X0267678Y0258650D01*
X0267801Y0258625D01*
X0267925Y0258603D01*
X0268050Y0258586D01*
X0268175Y0258572D01*
X0268300Y0258562D01*
X0268425Y0258556D01*
X0268551Y0258554D01*
X0268551Y0251054D01*
X0168551Y0251054D01*
X0168551Y0258554D01*
X0168425Y0258556D01*
X0168300Y0258562D01*
X0168175Y0258572D01*
X0168050Y0258586D01*
X0167925Y0258603D01*
X0167801Y0258625D01*
X0167678Y0258650D01*
X0167556Y0258680D01*
X0167435Y0258713D01*
X0167315Y0258750D01*
X0167196Y0258790D01*
X0167079Y0258835D01*
X0166962Y0258883D01*
X0166848Y0258935D01*
X0166735Y0258990D01*
X0166624Y0259049D01*
X0166515Y0259111D01*
X0166408Y0259177D01*
X0166303Y0259246D01*
X0166200Y0259318D01*
X0166099Y0259393D01*
X0166001Y0259472D01*
X0165906Y0259554D01*
X0165813Y0259638D01*
X0165723Y0259726D01*
X0165635Y0259816D01*
X0165551Y0259909D01*
X0165469Y0260004D01*
X0165390Y0260102D01*
X0165315Y0260203D01*
X0165243Y0260306D01*
X0165174Y0260411D01*
X0165108Y0260518D01*
X0165046Y0260627D01*
X0164987Y0260738D01*
X0164932Y0260851D01*
X0164880Y0260965D01*
X0164832Y0261082D01*
X0164787Y0261199D01*
X0164747Y0261318D01*
X0164710Y0261438D01*
X0164677Y0261559D01*
X0164647Y0261681D01*
X0164622Y0261804D01*
X0164600Y0261928D01*
X0164583Y0262053D01*
X0164569Y0262178D01*
X0164559Y0262303D01*
X0164553Y0262428D01*
X0164551Y0262554D01*
X0164553Y0262680D01*
X0164559Y0262805D01*
X0164569Y0262930D01*
X0164583Y0263055D01*
X0164600Y0263180D01*
X0164622Y0263304D01*
X0164647Y0263427D01*
X0164677Y0263549D01*
X0164710Y0263670D01*
X0164747Y0263790D01*
X0164787Y0263909D01*
X0164832Y0264026D01*
X0164880Y0264143D01*
X0164932Y0264257D01*
X0164987Y0264370D01*
X0165046Y0264481D01*
X0165108Y0264590D01*
X0165174Y0264697D01*
X0165243Y0264802D01*
X0165315Y0264905D01*
X0165390Y0265006D01*
X0165469Y0265104D01*
X0165551Y0265199D01*
X0165635Y0265292D01*
X0165723Y0265382D01*
X0165813Y0265470D01*
X0165906Y0265554D01*
X0166001Y0265636D01*
X0166099Y0265715D01*
X0166200Y0265790D01*
X0166303Y0265862D01*
X0166408Y0265931D01*
X0166515Y0265997D01*
X0166624Y0266059D01*
X0166735Y0266118D01*
X0166848Y0266173D01*
X0166962Y0266225D01*
X0167079Y0266273D01*
X0167196Y0266318D01*
X0167315Y0266358D01*
X0167435Y0266395D01*
X0167556Y0266428D01*
X0167678Y0266458D01*
X0167801Y0266483D01*
X0167925Y0266505D01*
X0168050Y0266522D01*
X0168175Y0266536D01*
X0168300Y0266546D01*
X0168425Y0266552D01*
X0168551Y0266554D01*
X0168551Y0274054D01*
X0068551Y0274054D01*
X0068551Y0251054D01*
X0168551Y0251054D01*
X0168551Y0274054D01*
X0268551Y0274054D01*
X0268551Y0251054D01*
X0368551Y0251054D01*
X0383350Y0253617D02*
X0383352Y0253749D01*
X0383358Y0253880D01*
X0383368Y0254011D01*
X0383382Y0254142D01*
X0383400Y0254272D01*
X0383422Y0254402D01*
X0383447Y0254531D01*
X0383477Y0254659D01*
X0383511Y0254787D01*
X0383548Y0254913D01*
X0383589Y0255038D01*
X0383634Y0255161D01*
X0383683Y0255284D01*
X0383736Y0255404D01*
X0383792Y0255523D01*
X0383851Y0255641D01*
X0383914Y0255756D01*
X0383981Y0255869D01*
X0384051Y0255981D01*
X0384125Y0256090D01*
X0384201Y0256197D01*
X0384281Y0256301D01*
X0384364Y0256403D01*
X0384450Y0256503D01*
X0384539Y0256600D01*
X0384631Y0256694D01*
X0384726Y0256785D01*
X0384824Y0256874D01*
X0384924Y0256959D01*
X0385026Y0257041D01*
X0385132Y0257120D01*
X0385239Y0257196D01*
X0385349Y0257269D01*
X0385461Y0257338D01*
X0385575Y0257404D01*
X0385691Y0257466D01*
X0385808Y0257525D01*
X0385928Y0257580D01*
X0386049Y0257631D01*
X0386171Y0257679D01*
X0386295Y0257723D01*
X0386421Y0257764D01*
X0386547Y0257800D01*
X0386675Y0257833D01*
X0386803Y0257861D01*
X0386932Y0257886D01*
X0387062Y0257907D01*
X0387193Y0257924D01*
X0387324Y0257937D01*
X0387455Y0257946D01*
X0387586Y0257951D01*
X0387718Y0257952D01*
X0387849Y0257949D01*
X0387981Y0257942D01*
X0388112Y0257931D01*
X0388243Y0257916D01*
X0388373Y0257897D01*
X0388502Y0257874D01*
X0388631Y0257847D01*
X0388759Y0257817D01*
X0388886Y0257782D01*
X0389012Y0257744D01*
X0389137Y0257702D01*
X0389260Y0257656D01*
X0389382Y0257606D01*
X0389502Y0257553D01*
X0389621Y0257496D01*
X0389738Y0257435D01*
X0389852Y0257371D01*
X0389965Y0257304D01*
X0390076Y0257233D01*
X0390185Y0257159D01*
X0390291Y0257081D01*
X0390395Y0257000D01*
X0390497Y0256917D01*
X0390595Y0256830D01*
X0390692Y0256740D01*
X0390785Y0256647D01*
X0390876Y0256552D01*
X0390963Y0256454D01*
X0391048Y0256353D01*
X0391129Y0256249D01*
X0391207Y0256144D01*
X0391283Y0256036D01*
X0391354Y0255925D01*
X0391423Y0255813D01*
X0391488Y0255698D01*
X0391549Y0255582D01*
X0391607Y0255464D01*
X0391661Y0255344D01*
X0391712Y0255223D01*
X0391759Y0255100D01*
X0391802Y0254975D01*
X0391841Y0254850D01*
X0391877Y0254723D01*
X0391908Y0254595D01*
X0391936Y0254467D01*
X0391960Y0254337D01*
X0391980Y0254207D01*
X0391996Y0254077D01*
X0392008Y0253946D01*
X0392016Y0253814D01*
X0392020Y0253683D01*
X0392020Y0253551D01*
X0392016Y0253420D01*
X0392008Y0253288D01*
X0391996Y0253157D01*
X0391980Y0253027D01*
X0391960Y0252897D01*
X0391936Y0252767D01*
X0391908Y0252639D01*
X0391877Y0252511D01*
X0391841Y0252384D01*
X0391802Y0252259D01*
X0391759Y0252134D01*
X0391712Y0252011D01*
X0391661Y0251890D01*
X0391607Y0251770D01*
X0391549Y0251652D01*
X0391488Y0251536D01*
X0391423Y0251421D01*
X0391354Y0251309D01*
X0391283Y0251198D01*
X0391207Y0251090D01*
X0391129Y0250985D01*
X0391048Y0250881D01*
X0390963Y0250780D01*
X0390876Y0250682D01*
X0390785Y0250587D01*
X0390692Y0250494D01*
X0390595Y0250404D01*
X0390497Y0250317D01*
X0390395Y0250234D01*
X0390291Y0250153D01*
X0390185Y0250075D01*
X0390076Y0250001D01*
X0389965Y0249930D01*
X0389853Y0249863D01*
X0389738Y0249799D01*
X0389621Y0249738D01*
X0389502Y0249681D01*
X0389382Y0249628D01*
X0389260Y0249578D01*
X0389137Y0249532D01*
X0389012Y0249490D01*
X0388886Y0249452D01*
X0388759Y0249417D01*
X0388631Y0249387D01*
X0388502Y0249360D01*
X0388373Y0249337D01*
X0388243Y0249318D01*
X0388112Y0249303D01*
X0387981Y0249292D01*
X0387849Y0249285D01*
X0387718Y0249282D01*
X0387586Y0249283D01*
X0387455Y0249288D01*
X0387324Y0249297D01*
X0387193Y0249310D01*
X0387062Y0249327D01*
X0386932Y0249348D01*
X0386803Y0249373D01*
X0386675Y0249401D01*
X0386547Y0249434D01*
X0386421Y0249470D01*
X0386295Y0249511D01*
X0386171Y0249555D01*
X0386049Y0249603D01*
X0385928Y0249654D01*
X0385808Y0249709D01*
X0385691Y0249768D01*
X0385575Y0249830D01*
X0385461Y0249896D01*
X0385349Y0249965D01*
X0385239Y0250038D01*
X0385132Y0250114D01*
X0385026Y0250193D01*
X0384924Y0250275D01*
X0384824Y0250360D01*
X0384726Y0250449D01*
X0384631Y0250540D01*
X0384539Y0250634D01*
X0384450Y0250731D01*
X0384364Y0250831D01*
X0384281Y0250933D01*
X0384201Y0251037D01*
X0384125Y0251144D01*
X0384051Y0251253D01*
X0383981Y0251365D01*
X0383914Y0251478D01*
X0383851Y0251593D01*
X0383792Y0251711D01*
X0383736Y0251830D01*
X0383683Y0251950D01*
X0383634Y0252073D01*
X0383589Y0252196D01*
X0383548Y0252321D01*
X0383511Y0252447D01*
X0383477Y0252575D01*
X0383447Y0252703D01*
X0383422Y0252832D01*
X0383400Y0252962D01*
X0383382Y0253092D01*
X0383368Y0253223D01*
X0383358Y0253354D01*
X0383352Y0253485D01*
X0383350Y0253617D01*
X0378909Y0302829D02*
X0378913Y0303160D01*
X0378925Y0303491D01*
X0378946Y0303822D01*
X0378974Y0304152D01*
X0379011Y0304482D01*
X0379055Y0304810D01*
X0379108Y0305137D01*
X0379168Y0305463D01*
X0379237Y0305787D01*
X0379314Y0306109D01*
X0379398Y0306430D01*
X0379490Y0306748D01*
X0379590Y0307064D01*
X0379698Y0307377D01*
X0379814Y0307688D01*
X0379937Y0307995D01*
X0380067Y0308300D01*
X0380205Y0308601D01*
X0380350Y0308899D01*
X0380503Y0309193D01*
X0380663Y0309483D01*
X0380830Y0309769D01*
X0381003Y0310051D01*
X0381184Y0310329D01*
X0381372Y0310602D01*
X0381566Y0310871D01*
X0381766Y0311135D01*
X0381973Y0311393D01*
X0382187Y0311647D01*
X0382406Y0311895D01*
X0382632Y0312138D01*
X0382863Y0312375D01*
X0383100Y0312606D01*
X0383343Y0312832D01*
X0383591Y0313051D01*
X0383845Y0313265D01*
X0384103Y0313472D01*
X0384367Y0313672D01*
X0384636Y0313866D01*
X0384909Y0314054D01*
X0385187Y0314235D01*
X0385469Y0314408D01*
X0385755Y0314575D01*
X0386045Y0314735D01*
X0386339Y0314888D01*
X0386637Y0315033D01*
X0386938Y0315171D01*
X0387243Y0315301D01*
X0387550Y0315424D01*
X0387861Y0315540D01*
X0388174Y0315648D01*
X0388490Y0315748D01*
X0388808Y0315840D01*
X0389129Y0315924D01*
X0389451Y0316001D01*
X0389775Y0316070D01*
X0390101Y0316130D01*
X0390428Y0316183D01*
X0390756Y0316227D01*
X0391086Y0316264D01*
X0391416Y0316292D01*
X0391747Y0316313D01*
X0392078Y0316325D01*
X0392409Y0316329D01*
X0392740Y0316325D01*
X0393071Y0316313D01*
X0393402Y0316292D01*
X0393732Y0316264D01*
X0394062Y0316227D01*
X0394390Y0316183D01*
X0394717Y0316130D01*
X0395043Y0316070D01*
X0395367Y0316001D01*
X0395689Y0315924D01*
X0396010Y0315840D01*
X0396328Y0315748D01*
X0396644Y0315648D01*
X0396957Y0315540D01*
X0397268Y0315424D01*
X0397575Y0315301D01*
X0397880Y0315171D01*
X0398181Y0315033D01*
X0398479Y0314888D01*
X0398773Y0314735D01*
X0399063Y0314575D01*
X0399349Y0314408D01*
X0399631Y0314235D01*
X0399909Y0314054D01*
X0400182Y0313866D01*
X0400451Y0313672D01*
X0400715Y0313472D01*
X0400973Y0313265D01*
X0401227Y0313051D01*
X0401475Y0312832D01*
X0401718Y0312606D01*
X0401955Y0312375D01*
X0402186Y0312138D01*
X0402412Y0311895D01*
X0402631Y0311647D01*
X0402845Y0311393D01*
X0403052Y0311135D01*
X0403252Y0310871D01*
X0403446Y0310602D01*
X0403634Y0310329D01*
X0403815Y0310051D01*
X0403988Y0309769D01*
X0404155Y0309483D01*
X0404315Y0309193D01*
X0404468Y0308899D01*
X0404613Y0308601D01*
X0404751Y0308300D01*
X0404881Y0307995D01*
X0405004Y0307688D01*
X0405120Y0307377D01*
X0405228Y0307064D01*
X0405328Y0306748D01*
X0405420Y0306430D01*
X0405504Y0306109D01*
X0405581Y0305787D01*
X0405650Y0305463D01*
X0405710Y0305137D01*
X0405763Y0304810D01*
X0405807Y0304482D01*
X0405844Y0304152D01*
X0405872Y0303822D01*
X0405893Y0303491D01*
X0405905Y0303160D01*
X0405909Y0302829D01*
X0405905Y0302498D01*
X0405893Y0302167D01*
X0405872Y0301836D01*
X0405844Y0301506D01*
X0405807Y0301176D01*
X0405763Y0300848D01*
X0405710Y0300521D01*
X0405650Y0300195D01*
X0405581Y0299871D01*
X0405504Y0299549D01*
X0405420Y0299228D01*
X0405328Y0298910D01*
X0405228Y0298594D01*
X0405120Y0298281D01*
X0405004Y0297970D01*
X0404881Y0297663D01*
X0404751Y0297358D01*
X0404613Y0297057D01*
X0404468Y0296759D01*
X0404315Y0296465D01*
X0404155Y0296175D01*
X0403988Y0295889D01*
X0403815Y0295607D01*
X0403634Y0295329D01*
X0403446Y0295056D01*
X0403252Y0294787D01*
X0403052Y0294523D01*
X0402845Y0294265D01*
X0402631Y0294011D01*
X0402412Y0293763D01*
X0402186Y0293520D01*
X0401955Y0293283D01*
X0401718Y0293052D01*
X0401475Y0292826D01*
X0401227Y0292607D01*
X0400973Y0292393D01*
X0400715Y0292186D01*
X0400451Y0291986D01*
X0400182Y0291792D01*
X0399909Y0291604D01*
X0399631Y0291423D01*
X0399349Y0291250D01*
X0399063Y0291083D01*
X0398773Y0290923D01*
X0398479Y0290770D01*
X0398181Y0290625D01*
X0397880Y0290487D01*
X0397575Y0290357D01*
X0397268Y0290234D01*
X0396957Y0290118D01*
X0396644Y0290010D01*
X0396328Y0289910D01*
X0396010Y0289818D01*
X0395689Y0289734D01*
X0395367Y0289657D01*
X0395043Y0289588D01*
X0394717Y0289528D01*
X0394390Y0289475D01*
X0394062Y0289431D01*
X0393732Y0289394D01*
X0393402Y0289366D01*
X0393071Y0289345D01*
X0392740Y0289333D01*
X0392409Y0289329D01*
X0392078Y0289333D01*
X0391747Y0289345D01*
X0391416Y0289366D01*
X0391086Y0289394D01*
X0390756Y0289431D01*
X0390428Y0289475D01*
X0390101Y0289528D01*
X0389775Y0289588D01*
X0389451Y0289657D01*
X0389129Y0289734D01*
X0388808Y0289818D01*
X0388490Y0289910D01*
X0388174Y0290010D01*
X0387861Y0290118D01*
X0387550Y0290234D01*
X0387243Y0290357D01*
X0386938Y0290487D01*
X0386637Y0290625D01*
X0386339Y0290770D01*
X0386045Y0290923D01*
X0385755Y0291083D01*
X0385469Y0291250D01*
X0385187Y0291423D01*
X0384909Y0291604D01*
X0384636Y0291792D01*
X0384367Y0291986D01*
X0384103Y0292186D01*
X0383845Y0292393D01*
X0383591Y0292607D01*
X0383343Y0292826D01*
X0383100Y0293052D01*
X0382863Y0293283D01*
X0382632Y0293520D01*
X0382406Y0293763D01*
X0382187Y0294011D01*
X0381973Y0294265D01*
X0381766Y0294523D01*
X0381566Y0294787D01*
X0381372Y0295056D01*
X0381184Y0295329D01*
X0381003Y0295607D01*
X0380830Y0295889D01*
X0380663Y0296175D01*
X0380503Y0296465D01*
X0380350Y0296759D01*
X0380205Y0297057D01*
X0380067Y0297358D01*
X0379937Y0297663D01*
X0379814Y0297970D01*
X0379698Y0298281D01*
X0379590Y0298594D01*
X0379490Y0298910D01*
X0379398Y0299228D01*
X0379314Y0299549D01*
X0379237Y0299871D01*
X0379168Y0300195D01*
X0379108Y0300521D01*
X0379055Y0300848D01*
X0379011Y0301176D01*
X0378974Y0301506D01*
X0378946Y0301836D01*
X0378925Y0302167D01*
X0378913Y0302498D01*
X0378909Y0302829D01*
X0260345Y0238300D02*
X0257545Y0238300D01*
X0257545Y0233500D02*
X0260345Y0233500D01*
X0239872Y0233500D02*
X0237072Y0233500D01*
X0237072Y0238300D02*
X0239872Y0238300D01*
X0220187Y0238300D02*
X0217387Y0238300D01*
X0217387Y0233500D02*
X0220187Y0233500D01*
X0202865Y0233500D02*
X0200065Y0233500D01*
X0200065Y0238300D02*
X0202865Y0238300D01*
X0180817Y0238300D02*
X0178017Y0238300D01*
X0178017Y0233500D02*
X0180817Y0233500D01*
X0157983Y0233500D02*
X0155183Y0233500D01*
X0155183Y0238300D02*
X0157983Y0238300D01*
X0134508Y0238596D02*
X0131708Y0238596D01*
X0131708Y0233796D02*
X0134508Y0233796D01*
X0113888Y0233303D02*
X0111088Y0233303D01*
X0111088Y0238103D02*
X0113888Y0238103D01*
X0097550Y0238497D02*
X0094750Y0238497D01*
X0094750Y0233697D02*
X0097550Y0233697D01*
X0075109Y0233107D02*
X0072309Y0233107D01*
X0072309Y0237907D02*
X0075109Y0237907D01*
X0063551Y0213699D02*
X0063551Y0206199D01*
X0063425Y0206197D01*
X0063300Y0206191D01*
X0063175Y0206181D01*
X0063050Y0206167D01*
X0062925Y0206150D01*
X0062801Y0206128D01*
X0062678Y0206103D01*
X0062556Y0206073D01*
X0062435Y0206040D01*
X0062315Y0206003D01*
X0062196Y0205963D01*
X0062079Y0205918D01*
X0061962Y0205870D01*
X0061848Y0205818D01*
X0061735Y0205763D01*
X0061624Y0205704D01*
X0061515Y0205642D01*
X0061408Y0205576D01*
X0061303Y0205507D01*
X0061200Y0205435D01*
X0061099Y0205360D01*
X0061001Y0205281D01*
X0060906Y0205199D01*
X0060813Y0205115D01*
X0060723Y0205027D01*
X0060635Y0204937D01*
X0060551Y0204844D01*
X0060469Y0204749D01*
X0060390Y0204651D01*
X0060315Y0204550D01*
X0060243Y0204447D01*
X0060174Y0204342D01*
X0060108Y0204235D01*
X0060046Y0204126D01*
X0059987Y0204015D01*
X0059932Y0203902D01*
X0059880Y0203788D01*
X0059832Y0203671D01*
X0059787Y0203554D01*
X0059747Y0203435D01*
X0059710Y0203315D01*
X0059677Y0203194D01*
X0059647Y0203072D01*
X0059622Y0202949D01*
X0059600Y0202825D01*
X0059583Y0202700D01*
X0059569Y0202575D01*
X0059559Y0202450D01*
X0059553Y0202325D01*
X0059551Y0202199D01*
X0059553Y0202073D01*
X0059559Y0201948D01*
X0059569Y0201823D01*
X0059583Y0201698D01*
X0059600Y0201573D01*
X0059622Y0201449D01*
X0059647Y0201326D01*
X0059677Y0201204D01*
X0059710Y0201083D01*
X0059747Y0200963D01*
X0059787Y0200844D01*
X0059832Y0200727D01*
X0059880Y0200610D01*
X0059932Y0200496D01*
X0059987Y0200383D01*
X0060046Y0200272D01*
X0060108Y0200163D01*
X0060174Y0200056D01*
X0060243Y0199951D01*
X0060315Y0199848D01*
X0060390Y0199747D01*
X0060469Y0199649D01*
X0060551Y0199554D01*
X0060635Y0199461D01*
X0060723Y0199371D01*
X0060813Y0199283D01*
X0060906Y0199199D01*
X0061001Y0199117D01*
X0061099Y0199038D01*
X0061200Y0198963D01*
X0061303Y0198891D01*
X0061408Y0198822D01*
X0061515Y0198756D01*
X0061624Y0198694D01*
X0061735Y0198635D01*
X0061848Y0198580D01*
X0061962Y0198528D01*
X0062079Y0198480D01*
X0062196Y0198435D01*
X0062315Y0198395D01*
X0062435Y0198358D01*
X0062556Y0198325D01*
X0062678Y0198295D01*
X0062801Y0198270D01*
X0062925Y0198248D01*
X0063050Y0198231D01*
X0063175Y0198217D01*
X0063300Y0198207D01*
X0063425Y0198201D01*
X0063551Y0198199D01*
X0063551Y0190699D01*
X0023551Y0190699D01*
X0023551Y0213699D01*
X0063551Y0213699D01*
X0022281Y0167554D02*
X0017281Y0167554D01*
X0014781Y0165054D01*
X0014781Y0160054D01*
X0017281Y0157554D01*
X0014781Y0155054D01*
X0014781Y0150054D01*
X0017281Y0147554D01*
X0014781Y0145054D01*
X0014781Y0140054D01*
X0017281Y0137554D01*
X0014781Y0135054D01*
X0014781Y0130054D01*
X0017281Y0127554D01*
X0014781Y0125054D01*
X0014781Y0120054D01*
X0017281Y0117554D01*
X0014781Y0115054D01*
X0014781Y0110054D01*
X0017281Y0107554D01*
X0022281Y0107554D01*
X0024781Y0110054D01*
X0024781Y0115054D01*
X0022281Y0117554D01*
X0024781Y0120054D01*
X0024781Y0125054D01*
X0022281Y0127554D01*
X0024781Y0130054D01*
X0024781Y0135054D01*
X0022281Y0137554D01*
X0024781Y0140054D01*
X0024781Y0145054D01*
X0022281Y0147554D01*
X0024781Y0150054D01*
X0024781Y0155054D01*
X0022281Y0157554D01*
X0024781Y0160054D01*
X0024781Y0165054D01*
X0022281Y0167554D01*
X0049181Y0163759D02*
X0049181Y0155759D01*
X0050181Y0154759D01*
X0058181Y0154759D01*
X0059181Y0155759D01*
X0060181Y0154759D01*
X0068181Y0154759D01*
X0069181Y0155759D01*
X0069181Y0163759D01*
X0068181Y0164759D01*
X0060181Y0164759D01*
X0059181Y0163759D01*
X0058181Y0164759D01*
X0050181Y0164759D01*
X0049181Y0163759D01*
X0134557Y0163497D02*
X0138457Y0163497D01*
X0138457Y0164597D01*
X0134557Y0164597D01*
X0134557Y0163497D01*
X0134557Y0162597D02*
X0134557Y0161497D01*
X0138457Y0161497D01*
X0138457Y0162597D01*
X0134557Y0162597D01*
X0134557Y0160697D02*
X0134557Y0159597D01*
X0138457Y0159597D01*
X0138457Y0160697D01*
X0134557Y0160697D01*
X0134557Y0158697D02*
X0134557Y0157597D01*
X0138457Y0157597D01*
X0138457Y0158697D01*
X0134557Y0158697D01*
X0134557Y0156697D02*
X0134557Y0155597D01*
X0138457Y0155597D01*
X0138457Y0156697D01*
X0134557Y0156697D01*
X0134557Y0154797D02*
X0134557Y0153697D01*
X0138457Y0153697D01*
X0138457Y0154797D01*
X0134557Y0154797D01*
X0134557Y0152797D02*
X0134557Y0151697D01*
X0138457Y0151697D01*
X0138457Y0152797D01*
X0134557Y0152797D01*
X0134557Y0150797D02*
X0134557Y0149697D01*
X0138457Y0149697D01*
X0138457Y0150797D01*
X0134557Y0150797D01*
X0134557Y0148897D02*
X0134557Y0147797D01*
X0138457Y0147797D01*
X0138457Y0148897D01*
X0134557Y0148897D01*
X0134557Y0146897D02*
X0134557Y0145797D01*
X0138457Y0145797D01*
X0138457Y0146897D01*
X0134557Y0146897D01*
X0138457Y0141397D02*
X0177857Y0141397D01*
X0177857Y0180797D01*
X0138457Y0180797D01*
X0138457Y0141397D01*
X0142857Y0141397D02*
X0142857Y0137497D01*
X0143957Y0137497D01*
X0143957Y0141397D01*
X0142857Y0141397D01*
X0144857Y0141397D02*
X0144857Y0137497D01*
X0145957Y0137497D01*
X0145957Y0141397D01*
X0144857Y0141397D01*
X0146757Y0141397D02*
X0146757Y0137497D01*
X0147857Y0137497D01*
X0147857Y0141397D01*
X0146757Y0141397D01*
X0148757Y0141397D02*
X0148757Y0137497D01*
X0149857Y0137497D01*
X0149857Y0141397D01*
X0148757Y0141397D01*
X0150757Y0141397D02*
X0150757Y0137497D01*
X0151857Y0137497D01*
X0151857Y0141397D01*
X0150757Y0141397D01*
X0152657Y0141397D02*
X0152657Y0137497D01*
X0153757Y0137497D01*
X0153757Y0141397D01*
X0152657Y0141397D01*
X0154657Y0141397D02*
X0154657Y0137497D01*
X0155757Y0137497D01*
X0155757Y0141397D01*
X0154657Y0141397D01*
X0156657Y0141397D02*
X0156657Y0137497D01*
X0157757Y0137497D01*
X0157757Y0141397D01*
X0156657Y0141397D01*
X0158557Y0141397D02*
X0158557Y0137497D01*
X0159657Y0137497D01*
X0159657Y0141397D01*
X0158557Y0141397D01*
X0160557Y0141397D02*
X0160557Y0137497D01*
X0161657Y0137497D01*
X0161657Y0141397D01*
X0160557Y0141397D01*
X0162557Y0141397D02*
X0162557Y0137497D01*
X0163657Y0137497D01*
X0163657Y0141397D01*
X0162557Y0141397D01*
X0164457Y0141397D02*
X0164457Y0137497D01*
X0165557Y0137497D01*
X0165557Y0141397D01*
X0164457Y0141397D01*
X0166457Y0141397D02*
X0166457Y0137497D01*
X0167557Y0137497D01*
X0167557Y0141397D01*
X0166457Y0141397D01*
X0168457Y0141397D02*
X0168457Y0137497D01*
X0169557Y0137497D01*
X0169557Y0141397D01*
X0168457Y0141397D01*
X0170357Y0141397D02*
X0170357Y0137497D01*
X0171457Y0137497D01*
X0171457Y0141397D01*
X0170357Y0141397D01*
X0172357Y0141397D02*
X0172357Y0137497D01*
X0173457Y0137497D01*
X0173457Y0141397D01*
X0172357Y0141397D01*
X0177857Y0145797D02*
X0181757Y0145797D01*
X0181757Y0146897D01*
X0177857Y0146897D01*
X0177857Y0145797D01*
X0177857Y0147797D02*
X0181757Y0147797D01*
X0181757Y0148897D01*
X0177857Y0148897D01*
X0177857Y0147797D01*
X0177857Y0149697D02*
X0181757Y0149697D01*
X0181757Y0150797D01*
X0177857Y0150797D01*
X0177857Y0149697D01*
X0177857Y0151697D02*
X0181757Y0151697D01*
X0181757Y0152797D01*
X0177857Y0152797D01*
X0177857Y0151697D01*
X0177857Y0153697D02*
X0181757Y0153697D01*
X0181757Y0154797D01*
X0177857Y0154797D01*
X0177857Y0153697D01*
X0177857Y0155597D02*
X0181757Y0155597D01*
X0181757Y0156697D01*
X0177857Y0156697D01*
X0177857Y0155597D01*
X0177857Y0157597D02*
X0181757Y0157597D01*
X0181757Y0158697D01*
X0177857Y0158697D01*
X0177857Y0157597D01*
X0177857Y0159597D02*
X0181757Y0159597D01*
X0181757Y0160697D01*
X0177857Y0160697D01*
X0177857Y0159597D01*
X0177857Y0161497D02*
X0181757Y0161497D01*
X0181757Y0162597D01*
X0177857Y0162597D01*
X0177857Y0161497D01*
X0177857Y0163497D02*
X0181757Y0163497D01*
X0181757Y0164597D01*
X0177857Y0164597D01*
X0177857Y0163497D01*
X0177857Y0165497D02*
X0181757Y0165497D01*
X0181757Y0166597D01*
X0177857Y0166597D01*
X0177857Y0165497D01*
X0177857Y0167397D02*
X0181757Y0167397D01*
X0181757Y0168497D01*
X0177857Y0168497D01*
X0177857Y0167397D01*
X0177857Y0169397D02*
X0181757Y0169397D01*
X0181757Y0170497D01*
X0177857Y0170497D01*
X0177857Y0169397D01*
X0177857Y0171397D02*
X0181757Y0171397D01*
X0181757Y0172497D01*
X0177857Y0172497D01*
X0177857Y0171397D01*
X0177857Y0173297D02*
X0181757Y0173297D01*
X0181757Y0174397D01*
X0177857Y0174397D01*
X0177857Y0173297D01*
X0177857Y0175297D02*
X0181757Y0175297D01*
X0181757Y0176397D01*
X0177857Y0176397D01*
X0177857Y0175797D01*
X0172857Y0180797D01*
X0173457Y0180797D01*
X0173457Y0184697D01*
X0172357Y0184697D01*
X0172357Y0180797D01*
X0172857Y0180797D01*
X0171457Y0180797D02*
X0171457Y0184697D01*
X0170357Y0184697D01*
X0170357Y0180797D01*
X0171457Y0180797D01*
X0169557Y0180797D02*
X0169557Y0184697D01*
X0168457Y0184697D01*
X0168457Y0180797D01*
X0169557Y0180797D01*
X0167557Y0180797D02*
X0167557Y0184697D01*
X0166457Y0184697D01*
X0166457Y0180797D01*
X0167557Y0180797D01*
X0165557Y0180797D02*
X0165557Y0184697D01*
X0164457Y0184697D01*
X0164457Y0180797D01*
X0165557Y0180797D01*
X0163657Y0180797D02*
X0163657Y0184697D01*
X0162557Y0184697D01*
X0162557Y0180797D01*
X0163657Y0180797D01*
X0161657Y0180797D02*
X0161657Y0184697D01*
X0160557Y0184697D01*
X0160557Y0180797D01*
X0161657Y0180797D01*
X0159657Y0180797D02*
X0159657Y0184697D01*
X0158557Y0184697D01*
X0158557Y0180797D01*
X0159657Y0180797D01*
X0157757Y0180797D02*
X0157757Y0184697D01*
X0156657Y0184697D01*
X0156657Y0180797D01*
X0157757Y0180797D01*
X0155757Y0180797D02*
X0155757Y0184697D01*
X0154657Y0184697D01*
X0154657Y0180797D01*
X0155757Y0180797D01*
X0153757Y0180797D02*
X0153757Y0184697D01*
X0152657Y0184697D01*
X0152657Y0180797D01*
X0153757Y0180797D01*
X0151857Y0180797D02*
X0151857Y0184697D01*
X0150757Y0184697D01*
X0150757Y0180797D01*
X0151857Y0180797D01*
X0149857Y0180797D02*
X0149857Y0184697D01*
X0148757Y0184697D01*
X0148757Y0180797D01*
X0149857Y0180797D01*
X0147857Y0180797D02*
X0147857Y0184697D01*
X0146757Y0184697D01*
X0146757Y0180797D01*
X0147857Y0180797D01*
X0145957Y0180797D02*
X0145957Y0184697D01*
X0144857Y0184697D01*
X0144857Y0180797D01*
X0145957Y0180797D01*
X0143957Y0180797D02*
X0143957Y0184697D01*
X0142857Y0184697D01*
X0142857Y0180797D01*
X0143957Y0180797D01*
X0138457Y0176397D02*
X0134557Y0176397D01*
X0134557Y0175297D01*
X0138457Y0175297D01*
X0138457Y0176397D01*
X0138457Y0174397D02*
X0134557Y0174397D01*
X0134557Y0173297D01*
X0138457Y0173297D01*
X0138457Y0174397D01*
X0138457Y0172497D02*
X0134557Y0172497D01*
X0134557Y0171397D01*
X0138457Y0171397D01*
X0138457Y0172497D01*
X0138457Y0170497D02*
X0134557Y0170497D01*
X0134557Y0169397D01*
X0138457Y0169397D01*
X0138457Y0170497D01*
X0138457Y0168497D02*
X0134557Y0168497D01*
X0134557Y0167397D01*
X0138457Y0167397D01*
X0138457Y0168497D01*
X0138457Y0166597D02*
X0134557Y0166597D01*
X0134557Y0165497D01*
X0138457Y0165497D01*
X0138457Y0166597D01*
X0177857Y0175297D02*
X0177857Y0175797D01*
X0155402Y0085983D02*
X0155402Y0062983D01*
X0255402Y0062983D01*
X0255402Y0070483D01*
X0255276Y0070485D01*
X0255151Y0070491D01*
X0255026Y0070501D01*
X0254901Y0070515D01*
X0254776Y0070532D01*
X0254652Y0070554D01*
X0254529Y0070579D01*
X0254407Y0070609D01*
X0254286Y0070642D01*
X0254166Y0070679D01*
X0254047Y0070719D01*
X0253930Y0070764D01*
X0253813Y0070812D01*
X0253699Y0070864D01*
X0253586Y0070919D01*
X0253475Y0070978D01*
X0253366Y0071040D01*
X0253259Y0071106D01*
X0253154Y0071175D01*
X0253051Y0071247D01*
X0252950Y0071322D01*
X0252852Y0071401D01*
X0252757Y0071483D01*
X0252664Y0071567D01*
X0252574Y0071655D01*
X0252486Y0071745D01*
X0252402Y0071838D01*
X0252320Y0071933D01*
X0252241Y0072031D01*
X0252166Y0072132D01*
X0252094Y0072235D01*
X0252025Y0072340D01*
X0251959Y0072447D01*
X0251897Y0072556D01*
X0251838Y0072667D01*
X0251783Y0072780D01*
X0251731Y0072894D01*
X0251683Y0073011D01*
X0251638Y0073128D01*
X0251598Y0073247D01*
X0251561Y0073367D01*
X0251528Y0073488D01*
X0251498Y0073610D01*
X0251473Y0073733D01*
X0251451Y0073857D01*
X0251434Y0073982D01*
X0251420Y0074107D01*
X0251410Y0074232D01*
X0251404Y0074357D01*
X0251402Y0074483D01*
X0251404Y0074609D01*
X0251410Y0074734D01*
X0251420Y0074859D01*
X0251434Y0074984D01*
X0251451Y0075109D01*
X0251473Y0075233D01*
X0251498Y0075356D01*
X0251528Y0075478D01*
X0251561Y0075599D01*
X0251598Y0075719D01*
X0251638Y0075838D01*
X0251683Y0075955D01*
X0251731Y0076072D01*
X0251783Y0076186D01*
X0251838Y0076299D01*
X0251897Y0076410D01*
X0251959Y0076519D01*
X0252025Y0076626D01*
X0252094Y0076731D01*
X0252166Y0076834D01*
X0252241Y0076935D01*
X0252320Y0077033D01*
X0252402Y0077128D01*
X0252486Y0077221D01*
X0252574Y0077311D01*
X0252664Y0077399D01*
X0252757Y0077483D01*
X0252852Y0077565D01*
X0252950Y0077644D01*
X0253051Y0077719D01*
X0253154Y0077791D01*
X0253259Y0077860D01*
X0253366Y0077926D01*
X0253475Y0077988D01*
X0253586Y0078047D01*
X0253699Y0078102D01*
X0253813Y0078154D01*
X0253930Y0078202D01*
X0254047Y0078247D01*
X0254166Y0078287D01*
X0254286Y0078324D01*
X0254407Y0078357D01*
X0254529Y0078387D01*
X0254652Y0078412D01*
X0254776Y0078434D01*
X0254901Y0078451D01*
X0255026Y0078465D01*
X0255151Y0078475D01*
X0255276Y0078481D01*
X0255402Y0078483D01*
X0255402Y0085983D01*
X0155402Y0085983D01*
X0155008Y0085983D02*
X0155008Y0078483D01*
X0154882Y0078481D01*
X0154757Y0078475D01*
X0154632Y0078465D01*
X0154507Y0078451D01*
X0154382Y0078434D01*
X0154258Y0078412D01*
X0154135Y0078387D01*
X0154013Y0078357D01*
X0153892Y0078324D01*
X0153772Y0078287D01*
X0153653Y0078247D01*
X0153536Y0078202D01*
X0153419Y0078154D01*
X0153305Y0078102D01*
X0153192Y0078047D01*
X0153081Y0077988D01*
X0152972Y0077926D01*
X0152865Y0077860D01*
X0152760Y0077791D01*
X0152657Y0077719D01*
X0152556Y0077644D01*
X0152458Y0077565D01*
X0152363Y0077483D01*
X0152270Y0077399D01*
X0152180Y0077311D01*
X0152092Y0077221D01*
X0152008Y0077128D01*
X0151926Y0077033D01*
X0151847Y0076935D01*
X0151772Y0076834D01*
X0151700Y0076731D01*
X0151631Y0076626D01*
X0151565Y0076519D01*
X0151503Y0076410D01*
X0151444Y0076299D01*
X0151389Y0076186D01*
X0151337Y0076072D01*
X0151289Y0075955D01*
X0151244Y0075838D01*
X0151204Y0075719D01*
X0151167Y0075599D01*
X0151134Y0075478D01*
X0151104Y0075356D01*
X0151079Y0075233D01*
X0151057Y0075109D01*
X0151040Y0074984D01*
X0151026Y0074859D01*
X0151016Y0074734D01*
X0151010Y0074609D01*
X0151008Y0074483D01*
X0151010Y0074357D01*
X0151016Y0074232D01*
X0151026Y0074107D01*
X0151040Y0073982D01*
X0151057Y0073857D01*
X0151079Y0073733D01*
X0151104Y0073610D01*
X0151134Y0073488D01*
X0151167Y0073367D01*
X0151204Y0073247D01*
X0151244Y0073128D01*
X0151289Y0073011D01*
X0151337Y0072894D01*
X0151389Y0072780D01*
X0151444Y0072667D01*
X0151503Y0072556D01*
X0151565Y0072447D01*
X0151631Y0072340D01*
X0151700Y0072235D01*
X0151772Y0072132D01*
X0151847Y0072031D01*
X0151926Y0071933D01*
X0152008Y0071838D01*
X0152092Y0071745D01*
X0152180Y0071655D01*
X0152270Y0071567D01*
X0152363Y0071483D01*
X0152458Y0071401D01*
X0152556Y0071322D01*
X0152657Y0071247D01*
X0152760Y0071175D01*
X0152865Y0071106D01*
X0152972Y0071040D01*
X0153081Y0070978D01*
X0153192Y0070919D01*
X0153305Y0070864D01*
X0153419Y0070812D01*
X0153536Y0070764D01*
X0153653Y0070719D01*
X0153772Y0070679D01*
X0153892Y0070642D01*
X0154013Y0070609D01*
X0154135Y0070579D01*
X0154258Y0070554D01*
X0154382Y0070532D01*
X0154507Y0070515D01*
X0154632Y0070501D01*
X0154757Y0070491D01*
X0154882Y0070485D01*
X0155008Y0070483D01*
X0155008Y0062983D01*
X0055008Y0062983D01*
X0055008Y0085983D01*
X0155008Y0085983D01*
X0032453Y0046924D02*
X0032457Y0047255D01*
X0032469Y0047586D01*
X0032490Y0047917D01*
X0032518Y0048247D01*
X0032555Y0048577D01*
X0032599Y0048905D01*
X0032652Y0049232D01*
X0032712Y0049558D01*
X0032781Y0049882D01*
X0032858Y0050204D01*
X0032942Y0050525D01*
X0033034Y0050843D01*
X0033134Y0051159D01*
X0033242Y0051472D01*
X0033358Y0051783D01*
X0033481Y0052090D01*
X0033611Y0052395D01*
X0033749Y0052696D01*
X0033894Y0052994D01*
X0034047Y0053288D01*
X0034207Y0053578D01*
X0034374Y0053864D01*
X0034547Y0054146D01*
X0034728Y0054424D01*
X0034916Y0054697D01*
X0035110Y0054966D01*
X0035310Y0055230D01*
X0035517Y0055488D01*
X0035731Y0055742D01*
X0035950Y0055990D01*
X0036176Y0056233D01*
X0036407Y0056470D01*
X0036644Y0056701D01*
X0036887Y0056927D01*
X0037135Y0057146D01*
X0037389Y0057360D01*
X0037647Y0057567D01*
X0037911Y0057767D01*
X0038180Y0057961D01*
X0038453Y0058149D01*
X0038731Y0058330D01*
X0039013Y0058503D01*
X0039299Y0058670D01*
X0039589Y0058830D01*
X0039883Y0058983D01*
X0040181Y0059128D01*
X0040482Y0059266D01*
X0040787Y0059396D01*
X0041094Y0059519D01*
X0041405Y0059635D01*
X0041718Y0059743D01*
X0042034Y0059843D01*
X0042352Y0059935D01*
X0042673Y0060019D01*
X0042995Y0060096D01*
X0043319Y0060165D01*
X0043645Y0060225D01*
X0043972Y0060278D01*
X0044300Y0060322D01*
X0044630Y0060359D01*
X0044960Y0060387D01*
X0045291Y0060408D01*
X0045622Y0060420D01*
X0045953Y0060424D01*
X0046284Y0060420D01*
X0046615Y0060408D01*
X0046946Y0060387D01*
X0047276Y0060359D01*
X0047606Y0060322D01*
X0047934Y0060278D01*
X0048261Y0060225D01*
X0048587Y0060165D01*
X0048911Y0060096D01*
X0049233Y0060019D01*
X0049554Y0059935D01*
X0049872Y0059843D01*
X0050188Y0059743D01*
X0050501Y0059635D01*
X0050812Y0059519D01*
X0051119Y0059396D01*
X0051424Y0059266D01*
X0051725Y0059128D01*
X0052023Y0058983D01*
X0052317Y0058830D01*
X0052607Y0058670D01*
X0052893Y0058503D01*
X0053175Y0058330D01*
X0053453Y0058149D01*
X0053726Y0057961D01*
X0053995Y0057767D01*
X0054259Y0057567D01*
X0054517Y0057360D01*
X0054771Y0057146D01*
X0055019Y0056927D01*
X0055262Y0056701D01*
X0055499Y0056470D01*
X0055730Y0056233D01*
X0055956Y0055990D01*
X0056175Y0055742D01*
X0056389Y0055488D01*
X0056596Y0055230D01*
X0056796Y0054966D01*
X0056990Y0054697D01*
X0057178Y0054424D01*
X0057359Y0054146D01*
X0057532Y0053864D01*
X0057699Y0053578D01*
X0057859Y0053288D01*
X0058012Y0052994D01*
X0058157Y0052696D01*
X0058295Y0052395D01*
X0058425Y0052090D01*
X0058548Y0051783D01*
X0058664Y0051472D01*
X0058772Y0051159D01*
X0058872Y0050843D01*
X0058964Y0050525D01*
X0059048Y0050204D01*
X0059125Y0049882D01*
X0059194Y0049558D01*
X0059254Y0049232D01*
X0059307Y0048905D01*
X0059351Y0048577D01*
X0059388Y0048247D01*
X0059416Y0047917D01*
X0059437Y0047586D01*
X0059449Y0047255D01*
X0059453Y0046924D01*
X0059449Y0046593D01*
X0059437Y0046262D01*
X0059416Y0045931D01*
X0059388Y0045601D01*
X0059351Y0045271D01*
X0059307Y0044943D01*
X0059254Y0044616D01*
X0059194Y0044290D01*
X0059125Y0043966D01*
X0059048Y0043644D01*
X0058964Y0043323D01*
X0058872Y0043005D01*
X0058772Y0042689D01*
X0058664Y0042376D01*
X0058548Y0042065D01*
X0058425Y0041758D01*
X0058295Y0041453D01*
X0058157Y0041152D01*
X0058012Y0040854D01*
X0057859Y0040560D01*
X0057699Y0040270D01*
X0057532Y0039984D01*
X0057359Y0039702D01*
X0057178Y0039424D01*
X0056990Y0039151D01*
X0056796Y0038882D01*
X0056596Y0038618D01*
X0056389Y0038360D01*
X0056175Y0038106D01*
X0055956Y0037858D01*
X0055730Y0037615D01*
X0055499Y0037378D01*
X0055262Y0037147D01*
X0055019Y0036921D01*
X0054771Y0036702D01*
X0054517Y0036488D01*
X0054259Y0036281D01*
X0053995Y0036081D01*
X0053726Y0035887D01*
X0053453Y0035699D01*
X0053175Y0035518D01*
X0052893Y0035345D01*
X0052607Y0035178D01*
X0052317Y0035018D01*
X0052023Y0034865D01*
X0051725Y0034720D01*
X0051424Y0034582D01*
X0051119Y0034452D01*
X0050812Y0034329D01*
X0050501Y0034213D01*
X0050188Y0034105D01*
X0049872Y0034005D01*
X0049554Y0033913D01*
X0049233Y0033829D01*
X0048911Y0033752D01*
X0048587Y0033683D01*
X0048261Y0033623D01*
X0047934Y0033570D01*
X0047606Y0033526D01*
X0047276Y0033489D01*
X0046946Y0033461D01*
X0046615Y0033440D01*
X0046284Y0033428D01*
X0045953Y0033424D01*
X0045622Y0033428D01*
X0045291Y0033440D01*
X0044960Y0033461D01*
X0044630Y0033489D01*
X0044300Y0033526D01*
X0043972Y0033570D01*
X0043645Y0033623D01*
X0043319Y0033683D01*
X0042995Y0033752D01*
X0042673Y0033829D01*
X0042352Y0033913D01*
X0042034Y0034005D01*
X0041718Y0034105D01*
X0041405Y0034213D01*
X0041094Y0034329D01*
X0040787Y0034452D01*
X0040482Y0034582D01*
X0040181Y0034720D01*
X0039883Y0034865D01*
X0039589Y0035018D01*
X0039299Y0035178D01*
X0039013Y0035345D01*
X0038731Y0035518D01*
X0038453Y0035699D01*
X0038180Y0035887D01*
X0037911Y0036081D01*
X0037647Y0036281D01*
X0037389Y0036488D01*
X0037135Y0036702D01*
X0036887Y0036921D01*
X0036644Y0037147D01*
X0036407Y0037378D01*
X0036176Y0037615D01*
X0035950Y0037858D01*
X0035731Y0038106D01*
X0035517Y0038360D01*
X0035310Y0038618D01*
X0035110Y0038882D01*
X0034916Y0039151D01*
X0034728Y0039424D01*
X0034547Y0039702D01*
X0034374Y0039984D01*
X0034207Y0040270D01*
X0034047Y0040560D01*
X0033894Y0040854D01*
X0033749Y0041152D01*
X0033611Y0041453D01*
X0033481Y0041758D01*
X0033358Y0042065D01*
X0033242Y0042376D01*
X0033134Y0042689D01*
X0033034Y0043005D01*
X0032942Y0043323D01*
X0032858Y0043644D01*
X0032781Y0043966D01*
X0032712Y0044290D01*
X0032652Y0044616D01*
X0032599Y0044943D01*
X0032555Y0045271D01*
X0032518Y0045601D01*
X0032490Y0045931D01*
X0032469Y0046262D01*
X0032457Y0046593D01*
X0032453Y0046924D01*
X0014216Y0093696D02*
X0014218Y0093828D01*
X0014224Y0093959D01*
X0014234Y0094090D01*
X0014248Y0094221D01*
X0014266Y0094351D01*
X0014288Y0094481D01*
X0014313Y0094610D01*
X0014343Y0094738D01*
X0014377Y0094866D01*
X0014414Y0094992D01*
X0014455Y0095117D01*
X0014500Y0095240D01*
X0014549Y0095363D01*
X0014602Y0095483D01*
X0014658Y0095602D01*
X0014717Y0095720D01*
X0014780Y0095835D01*
X0014847Y0095948D01*
X0014917Y0096060D01*
X0014991Y0096169D01*
X0015067Y0096276D01*
X0015147Y0096380D01*
X0015230Y0096482D01*
X0015316Y0096582D01*
X0015405Y0096679D01*
X0015497Y0096773D01*
X0015592Y0096864D01*
X0015690Y0096953D01*
X0015790Y0097038D01*
X0015892Y0097120D01*
X0015998Y0097199D01*
X0016105Y0097275D01*
X0016215Y0097348D01*
X0016327Y0097417D01*
X0016441Y0097483D01*
X0016557Y0097545D01*
X0016674Y0097604D01*
X0016794Y0097659D01*
X0016915Y0097710D01*
X0017037Y0097758D01*
X0017161Y0097802D01*
X0017287Y0097843D01*
X0017413Y0097879D01*
X0017541Y0097912D01*
X0017669Y0097940D01*
X0017798Y0097965D01*
X0017928Y0097986D01*
X0018059Y0098003D01*
X0018190Y0098016D01*
X0018321Y0098025D01*
X0018452Y0098030D01*
X0018584Y0098031D01*
X0018715Y0098028D01*
X0018847Y0098021D01*
X0018978Y0098010D01*
X0019109Y0097995D01*
X0019239Y0097976D01*
X0019368Y0097953D01*
X0019497Y0097926D01*
X0019625Y0097896D01*
X0019752Y0097861D01*
X0019878Y0097823D01*
X0020003Y0097781D01*
X0020126Y0097735D01*
X0020248Y0097685D01*
X0020368Y0097632D01*
X0020487Y0097575D01*
X0020604Y0097514D01*
X0020718Y0097450D01*
X0020831Y0097383D01*
X0020942Y0097312D01*
X0021051Y0097238D01*
X0021157Y0097160D01*
X0021261Y0097079D01*
X0021363Y0096996D01*
X0021461Y0096909D01*
X0021558Y0096819D01*
X0021651Y0096726D01*
X0021742Y0096631D01*
X0021829Y0096533D01*
X0021914Y0096432D01*
X0021995Y0096328D01*
X0022073Y0096223D01*
X0022149Y0096115D01*
X0022220Y0096004D01*
X0022289Y0095892D01*
X0022354Y0095777D01*
X0022415Y0095661D01*
X0022473Y0095543D01*
X0022527Y0095423D01*
X0022578Y0095302D01*
X0022625Y0095179D01*
X0022668Y0095054D01*
X0022707Y0094929D01*
X0022743Y0094802D01*
X0022774Y0094674D01*
X0022802Y0094546D01*
X0022826Y0094416D01*
X0022846Y0094286D01*
X0022862Y0094156D01*
X0022874Y0094025D01*
X0022882Y0093893D01*
X0022886Y0093762D01*
X0022886Y0093630D01*
X0022882Y0093499D01*
X0022874Y0093367D01*
X0022862Y0093236D01*
X0022846Y0093106D01*
X0022826Y0092976D01*
X0022802Y0092846D01*
X0022774Y0092718D01*
X0022743Y0092590D01*
X0022707Y0092463D01*
X0022668Y0092338D01*
X0022625Y0092213D01*
X0022578Y0092090D01*
X0022527Y0091969D01*
X0022473Y0091849D01*
X0022415Y0091731D01*
X0022354Y0091615D01*
X0022289Y0091500D01*
X0022220Y0091388D01*
X0022149Y0091277D01*
X0022073Y0091169D01*
X0021995Y0091064D01*
X0021914Y0090960D01*
X0021829Y0090859D01*
X0021742Y0090761D01*
X0021651Y0090666D01*
X0021558Y0090573D01*
X0021461Y0090483D01*
X0021363Y0090396D01*
X0021261Y0090313D01*
X0021157Y0090232D01*
X0021051Y0090154D01*
X0020942Y0090080D01*
X0020831Y0090009D01*
X0020719Y0089942D01*
X0020604Y0089878D01*
X0020487Y0089817D01*
X0020368Y0089760D01*
X0020248Y0089707D01*
X0020126Y0089657D01*
X0020003Y0089611D01*
X0019878Y0089569D01*
X0019752Y0089531D01*
X0019625Y0089496D01*
X0019497Y0089466D01*
X0019368Y0089439D01*
X0019239Y0089416D01*
X0019109Y0089397D01*
X0018978Y0089382D01*
X0018847Y0089371D01*
X0018715Y0089364D01*
X0018584Y0089361D01*
X0018452Y0089362D01*
X0018321Y0089367D01*
X0018190Y0089376D01*
X0018059Y0089389D01*
X0017928Y0089406D01*
X0017798Y0089427D01*
X0017669Y0089452D01*
X0017541Y0089480D01*
X0017413Y0089513D01*
X0017287Y0089549D01*
X0017161Y0089590D01*
X0017037Y0089634D01*
X0016915Y0089682D01*
X0016794Y0089733D01*
X0016674Y0089788D01*
X0016557Y0089847D01*
X0016441Y0089909D01*
X0016327Y0089975D01*
X0016215Y0090044D01*
X0016105Y0090117D01*
X0015998Y0090193D01*
X0015892Y0090272D01*
X0015790Y0090354D01*
X0015690Y0090439D01*
X0015592Y0090528D01*
X0015497Y0090619D01*
X0015405Y0090713D01*
X0015316Y0090810D01*
X0015230Y0090910D01*
X0015147Y0091012D01*
X0015067Y0091116D01*
X0014991Y0091223D01*
X0014917Y0091332D01*
X0014847Y0091444D01*
X0014780Y0091557D01*
X0014717Y0091672D01*
X0014658Y0091790D01*
X0014602Y0091909D01*
X0014549Y0092029D01*
X0014500Y0092152D01*
X0014455Y0092275D01*
X0014414Y0092400D01*
X0014377Y0092526D01*
X0014343Y0092654D01*
X0014313Y0092782D01*
X0014288Y0092911D01*
X0014266Y0093041D01*
X0014248Y0093171D01*
X0014234Y0093302D01*
X0014224Y0093433D01*
X0014218Y0093564D01*
X0014216Y0093696D01*
X0032453Y0302829D02*
X0032457Y0303160D01*
X0032469Y0303491D01*
X0032490Y0303822D01*
X0032518Y0304152D01*
X0032555Y0304482D01*
X0032599Y0304810D01*
X0032652Y0305137D01*
X0032712Y0305463D01*
X0032781Y0305787D01*
X0032858Y0306109D01*
X0032942Y0306430D01*
X0033034Y0306748D01*
X0033134Y0307064D01*
X0033242Y0307377D01*
X0033358Y0307688D01*
X0033481Y0307995D01*
X0033611Y0308300D01*
X0033749Y0308601D01*
X0033894Y0308899D01*
X0034047Y0309193D01*
X0034207Y0309483D01*
X0034374Y0309769D01*
X0034547Y0310051D01*
X0034728Y0310329D01*
X0034916Y0310602D01*
X0035110Y0310871D01*
X0035310Y0311135D01*
X0035517Y0311393D01*
X0035731Y0311647D01*
X0035950Y0311895D01*
X0036176Y0312138D01*
X0036407Y0312375D01*
X0036644Y0312606D01*
X0036887Y0312832D01*
X0037135Y0313051D01*
X0037389Y0313265D01*
X0037647Y0313472D01*
X0037911Y0313672D01*
X0038180Y0313866D01*
X0038453Y0314054D01*
X0038731Y0314235D01*
X0039013Y0314408D01*
X0039299Y0314575D01*
X0039589Y0314735D01*
X0039883Y0314888D01*
X0040181Y0315033D01*
X0040482Y0315171D01*
X0040787Y0315301D01*
X0041094Y0315424D01*
X0041405Y0315540D01*
X0041718Y0315648D01*
X0042034Y0315748D01*
X0042352Y0315840D01*
X0042673Y0315924D01*
X0042995Y0316001D01*
X0043319Y0316070D01*
X0043645Y0316130D01*
X0043972Y0316183D01*
X0044300Y0316227D01*
X0044630Y0316264D01*
X0044960Y0316292D01*
X0045291Y0316313D01*
X0045622Y0316325D01*
X0045953Y0316329D01*
X0046284Y0316325D01*
X0046615Y0316313D01*
X0046946Y0316292D01*
X0047276Y0316264D01*
X0047606Y0316227D01*
X0047934Y0316183D01*
X0048261Y0316130D01*
X0048587Y0316070D01*
X0048911Y0316001D01*
X0049233Y0315924D01*
X0049554Y0315840D01*
X0049872Y0315748D01*
X0050188Y0315648D01*
X0050501Y0315540D01*
X0050812Y0315424D01*
X0051119Y0315301D01*
X0051424Y0315171D01*
X0051725Y0315033D01*
X0052023Y0314888D01*
X0052317Y0314735D01*
X0052607Y0314575D01*
X0052893Y0314408D01*
X0053175Y0314235D01*
X0053453Y0314054D01*
X0053726Y0313866D01*
X0053995Y0313672D01*
X0054259Y0313472D01*
X0054517Y0313265D01*
X0054771Y0313051D01*
X0055019Y0312832D01*
X0055262Y0312606D01*
X0055499Y0312375D01*
X0055730Y0312138D01*
X0055956Y0311895D01*
X0056175Y0311647D01*
X0056389Y0311393D01*
X0056596Y0311135D01*
X0056796Y0310871D01*
X0056990Y0310602D01*
X0057178Y0310329D01*
X0057359Y0310051D01*
X0057532Y0309769D01*
X0057699Y0309483D01*
X0057859Y0309193D01*
X0058012Y0308899D01*
X0058157Y0308601D01*
X0058295Y0308300D01*
X0058425Y0307995D01*
X0058548Y0307688D01*
X0058664Y0307377D01*
X0058772Y0307064D01*
X0058872Y0306748D01*
X0058964Y0306430D01*
X0059048Y0306109D01*
X0059125Y0305787D01*
X0059194Y0305463D01*
X0059254Y0305137D01*
X0059307Y0304810D01*
X0059351Y0304482D01*
X0059388Y0304152D01*
X0059416Y0303822D01*
X0059437Y0303491D01*
X0059449Y0303160D01*
X0059453Y0302829D01*
X0059449Y0302498D01*
X0059437Y0302167D01*
X0059416Y0301836D01*
X0059388Y0301506D01*
X0059351Y0301176D01*
X0059307Y0300848D01*
X0059254Y0300521D01*
X0059194Y0300195D01*
X0059125Y0299871D01*
X0059048Y0299549D01*
X0058964Y0299228D01*
X0058872Y0298910D01*
X0058772Y0298594D01*
X0058664Y0298281D01*
X0058548Y0297970D01*
X0058425Y0297663D01*
X0058295Y0297358D01*
X0058157Y0297057D01*
X0058012Y0296759D01*
X0057859Y0296465D01*
X0057699Y0296175D01*
X0057532Y0295889D01*
X0057359Y0295607D01*
X0057178Y0295329D01*
X0056990Y0295056D01*
X0056796Y0294787D01*
X0056596Y0294523D01*
X0056389Y0294265D01*
X0056175Y0294011D01*
X0055956Y0293763D01*
X0055730Y0293520D01*
X0055499Y0293283D01*
X0055262Y0293052D01*
X0055019Y0292826D01*
X0054771Y0292607D01*
X0054517Y0292393D01*
X0054259Y0292186D01*
X0053995Y0291986D01*
X0053726Y0291792D01*
X0053453Y0291604D01*
X0053175Y0291423D01*
X0052893Y0291250D01*
X0052607Y0291083D01*
X0052317Y0290923D01*
X0052023Y0290770D01*
X0051725Y0290625D01*
X0051424Y0290487D01*
X0051119Y0290357D01*
X0050812Y0290234D01*
X0050501Y0290118D01*
X0050188Y0290010D01*
X0049872Y0289910D01*
X0049554Y0289818D01*
X0049233Y0289734D01*
X0048911Y0289657D01*
X0048587Y0289588D01*
X0048261Y0289528D01*
X0047934Y0289475D01*
X0047606Y0289431D01*
X0047276Y0289394D01*
X0046946Y0289366D01*
X0046615Y0289345D01*
X0046284Y0289333D01*
X0045953Y0289329D01*
X0045622Y0289333D01*
X0045291Y0289345D01*
X0044960Y0289366D01*
X0044630Y0289394D01*
X0044300Y0289431D01*
X0043972Y0289475D01*
X0043645Y0289528D01*
X0043319Y0289588D01*
X0042995Y0289657D01*
X0042673Y0289734D01*
X0042352Y0289818D01*
X0042034Y0289910D01*
X0041718Y0290010D01*
X0041405Y0290118D01*
X0041094Y0290234D01*
X0040787Y0290357D01*
X0040482Y0290487D01*
X0040181Y0290625D01*
X0039883Y0290770D01*
X0039589Y0290923D01*
X0039299Y0291083D01*
X0039013Y0291250D01*
X0038731Y0291423D01*
X0038453Y0291604D01*
X0038180Y0291792D01*
X0037911Y0291986D01*
X0037647Y0292186D01*
X0037389Y0292393D01*
X0037135Y0292607D01*
X0036887Y0292826D01*
X0036644Y0293052D01*
X0036407Y0293283D01*
X0036176Y0293520D01*
X0035950Y0293763D01*
X0035731Y0294011D01*
X0035517Y0294265D01*
X0035310Y0294523D01*
X0035110Y0294787D01*
X0034916Y0295056D01*
X0034728Y0295329D01*
X0034547Y0295607D01*
X0034374Y0295889D01*
X0034207Y0296175D01*
X0034047Y0296465D01*
X0033894Y0296759D01*
X0033749Y0297057D01*
X0033611Y0297358D01*
X0033481Y0297663D01*
X0033358Y0297970D01*
X0033242Y0298281D01*
X0033134Y0298594D01*
X0033034Y0298910D01*
X0032942Y0299228D01*
X0032858Y0299549D01*
X0032781Y0299871D01*
X0032712Y0300195D01*
X0032652Y0300521D01*
X0032599Y0300848D01*
X0032555Y0301176D01*
X0032518Y0301506D01*
X0032490Y0301836D01*
X0032469Y0302167D01*
X0032457Y0302498D01*
X0032453Y0302829D01*
D12*
X0064797Y0211597D02*
X0067049Y0209346D01*
X0067049Y0212348D01*
X0069301Y0211597D02*
X0064797Y0211597D01*
X0065548Y0207744D02*
X0064797Y0206994D01*
X0064797Y0205492D01*
X0065548Y0204742D01*
X0068551Y0204742D01*
X0069301Y0205492D01*
X0069301Y0206994D01*
X0068551Y0207744D01*
X0068551Y0203140D02*
X0065548Y0203140D01*
X0064797Y0202390D01*
X0064797Y0200888D01*
X0065548Y0200138D01*
X0068551Y0200138D01*
X0069301Y0200888D01*
X0069301Y0202390D01*
X0068551Y0203140D01*
X0068551Y0198536D02*
X0069301Y0197786D01*
X0069301Y0196284D01*
X0068551Y0195534D01*
X0067049Y0196284D02*
X0067049Y0197786D01*
X0067800Y0198536D01*
X0068551Y0198536D01*
X0067049Y0196284D02*
X0066299Y0195534D01*
X0065548Y0195534D01*
X0064797Y0196284D01*
X0064797Y0197786D01*
X0065548Y0198536D01*
X0060140Y0171012D02*
X0060140Y0166509D01*
X0058639Y0166509D02*
X0061642Y0166509D01*
X0058639Y0169511D02*
X0060140Y0171012D01*
X0057038Y0170262D02*
X0057038Y0168760D01*
X0056287Y0168010D01*
X0054035Y0168010D01*
X0054035Y0166509D02*
X0054035Y0171012D01*
X0056287Y0171012D01*
X0057038Y0170262D01*
X0052434Y0171012D02*
X0050932Y0171012D01*
X0051683Y0171012D02*
X0051683Y0167259D01*
X0050932Y0166509D01*
X0050182Y0166509D01*
X0049431Y0167259D01*
X0028780Y0166202D02*
X0028780Y0163200D01*
X0028780Y0161598D02*
X0028780Y0158596D01*
X0028780Y0156995D02*
X0028780Y0153992D01*
X0013031Y0160700D02*
X0013031Y0163702D01*
X0013031Y0162201D02*
X0008528Y0162201D01*
X0010029Y0160700D01*
X0026528Y0113702D02*
X0027278Y0112201D01*
X0028780Y0110700D01*
X0028780Y0112952D01*
X0029530Y0113702D01*
X0030281Y0113702D01*
X0031031Y0112952D01*
X0031031Y0111451D01*
X0030281Y0110700D01*
X0028780Y0110700D01*
X0155896Y0054208D02*
X0157397Y0055709D01*
X0157397Y0051205D01*
X0155896Y0051205D02*
X0158898Y0051205D01*
X0167896Y0051705D02*
X0170898Y0051705D01*
X0172500Y0052456D02*
X0172500Y0055459D01*
X0173250Y0056209D01*
X0174752Y0056209D01*
X0175502Y0055459D01*
X0177104Y0056209D02*
X0177104Y0051705D01*
X0179355Y0051705D01*
X0180106Y0052456D01*
X0180106Y0055459D01*
X0179355Y0056209D01*
X0177104Y0056209D01*
X0181707Y0056209D02*
X0181707Y0051705D01*
X0181707Y0053957D02*
X0184710Y0053957D01*
X0186311Y0053957D02*
X0187813Y0053957D01*
X0186311Y0051705D02*
X0189314Y0051705D01*
X0190915Y0051705D02*
X0190915Y0054708D01*
X0192417Y0056209D01*
X0193918Y0054708D01*
X0193918Y0051705D01*
X0195519Y0051705D02*
X0197771Y0051705D01*
X0198522Y0052456D01*
X0198522Y0055459D01*
X0197771Y0056209D01*
X0195519Y0056209D01*
X0195519Y0051705D01*
X0193918Y0053957D02*
X0190915Y0053957D01*
X0189314Y0056209D02*
X0186311Y0056209D01*
X0186311Y0051705D01*
X0184710Y0051705D02*
X0184710Y0056209D01*
X0175502Y0052456D02*
X0174752Y0051705D01*
X0173250Y0051705D01*
X0172500Y0052456D01*
X0167896Y0051705D02*
X0167896Y0056209D01*
X0200123Y0056209D02*
X0200123Y0051705D01*
X0203126Y0051705D01*
X0204727Y0051705D02*
X0204727Y0056209D01*
X0206979Y0056209D01*
X0207730Y0055459D01*
X0207730Y0053957D01*
X0206979Y0053207D01*
X0204727Y0053207D01*
X0206228Y0053207D02*
X0207730Y0051705D01*
X0201624Y0053957D02*
X0200123Y0053957D01*
X0200123Y0056209D02*
X0203126Y0056209D01*
X0302778Y0124518D02*
X0303528Y0123768D01*
X0305029Y0123768D01*
X0305780Y0124518D01*
X0305780Y0127521D01*
X0305029Y0128271D01*
X0303528Y0128271D01*
X0302778Y0127521D01*
X0302778Y0124518D01*
X0304279Y0125269D02*
X0305780Y0123768D01*
X0307381Y0123768D02*
X0310384Y0123768D01*
X0308883Y0123768D02*
X0308883Y0128271D01*
X0307381Y0126770D01*
X0307067Y0153374D02*
X0310069Y0156376D01*
X0310069Y0157127D01*
X0309318Y0157878D01*
X0307817Y0157878D01*
X0307067Y0157127D01*
X0305465Y0157127D02*
X0305465Y0154125D01*
X0304715Y0153374D01*
X0303213Y0153374D01*
X0302463Y0154125D01*
X0302463Y0157127D01*
X0303213Y0157878D01*
X0304715Y0157878D01*
X0305465Y0157127D01*
X0303964Y0154875D02*
X0305465Y0153374D01*
X0307067Y0153374D02*
X0310069Y0153374D01*
X0309633Y0183807D02*
X0308132Y0183807D01*
X0307381Y0184558D01*
X0305780Y0184558D02*
X0305780Y0187560D01*
X0305029Y0188311D01*
X0303528Y0188311D01*
X0302778Y0187560D01*
X0302778Y0184558D01*
X0303528Y0183807D01*
X0305029Y0183807D01*
X0305780Y0184558D01*
X0305780Y0183807D02*
X0304279Y0185308D01*
X0307381Y0187560D02*
X0308132Y0188311D01*
X0309633Y0188311D01*
X0310384Y0187560D01*
X0310384Y0186810D01*
X0309633Y0186059D01*
X0310384Y0185308D01*
X0310384Y0184558D01*
X0309633Y0183807D01*
X0309633Y0186059D02*
X0308883Y0186059D01*
X0344146Y0055709D02*
X0343396Y0054959D01*
X0344146Y0055709D02*
X0345648Y0055709D01*
X0346398Y0054959D01*
X0346398Y0054208D01*
X0343396Y0051205D01*
X0346398Y0051205D01*
X0348000Y0051956D02*
X0351002Y0054959D01*
X0351002Y0051956D01*
X0350252Y0051205D01*
X0348750Y0051205D01*
X0348000Y0051956D01*
X0348000Y0054959D01*
X0348750Y0055709D01*
X0350252Y0055709D01*
X0351002Y0054959D01*
D13*
X0355795Y0033833D02*
X0355795Y0016333D01*
X0255795Y0016333D01*
X0255795Y0033833D01*
X0355795Y0033833D01*
X0356858Y0033833D02*
X0396858Y0033833D01*
X0396858Y0016333D01*
X0356858Y0016333D01*
X0356858Y0033833D01*
X0356858Y0016333D02*
X0356858Y0008833D01*
X0396858Y0008833D01*
X0396858Y0016333D01*
X0355795Y0016333D02*
X0355795Y0008833D01*
X0255795Y0008833D01*
X0255795Y0016333D01*
X0255402Y0016333D02*
X0155402Y0016333D01*
X0155402Y0033833D01*
X0255402Y0033833D01*
X0255402Y0016333D01*
X0255402Y0008833D01*
X0155402Y0008833D01*
X0155402Y0016333D01*
X0155008Y0016333D02*
X0055008Y0016333D01*
X0055008Y0033833D01*
X0155008Y0033833D01*
X0155008Y0016333D01*
X0155008Y0008833D01*
X0055008Y0008833D01*
X0055008Y0016333D01*
X0027409Y0065349D02*
X0009693Y0065349D01*
X0009693Y0101963D01*
X0027409Y0101963D01*
X0027409Y0065349D01*
X0034240Y0222318D02*
X0016740Y0222318D01*
X0016740Y0322318D01*
X0034240Y0322318D01*
X0034240Y0222318D01*
X0016740Y0222318D02*
X0009240Y0222318D01*
X0009240Y0322318D01*
X0016740Y0322318D01*
X0127921Y0321235D02*
X0127921Y0313735D01*
X0167921Y0313735D01*
X0167921Y0296235D01*
X0127921Y0296235D01*
X0127921Y0313735D01*
X0127921Y0321235D02*
X0167921Y0321235D01*
X0167921Y0313735D01*
X0169181Y0313735D02*
X0269181Y0313735D01*
X0269181Y0296235D01*
X0169181Y0296235D01*
X0169181Y0313735D01*
X0169181Y0321235D01*
X0269181Y0321235D01*
X0269181Y0313735D01*
X0269575Y0313735D02*
X0369575Y0313735D01*
X0369575Y0296235D01*
X0269575Y0296235D01*
X0269575Y0313735D01*
X0269575Y0321235D01*
X0369575Y0321235D01*
X0369575Y0313735D01*
X0378827Y0281963D02*
X0378827Y0245349D01*
X0396543Y0245349D01*
X0396543Y0281963D01*
X0378827Y0281963D01*
D14*
X0377052Y0282204D02*
X0376285Y0281436D01*
X0377052Y0282204D02*
X0377052Y0283738D01*
X0376285Y0284506D01*
X0375517Y0284506D01*
X0374750Y0283738D01*
X0374750Y0282204D01*
X0373983Y0281436D01*
X0373215Y0281436D01*
X0372448Y0282204D01*
X0372448Y0283738D01*
X0373215Y0284506D01*
X0373215Y0286040D02*
X0373983Y0286040D01*
X0374750Y0286808D01*
X0374750Y0288342D01*
X0375517Y0289110D01*
X0376285Y0289110D01*
X0377052Y0288342D01*
X0377052Y0286808D01*
X0376285Y0286040D01*
X0373215Y0286040D02*
X0372448Y0286808D01*
X0372448Y0288342D01*
X0373215Y0289110D01*
X0372448Y0279902D02*
X0372448Y0276832D01*
X0377052Y0276832D01*
X0377052Y0279902D01*
X0374750Y0278367D02*
X0374750Y0276832D01*
X0377052Y0275298D02*
X0372448Y0275298D01*
X0372448Y0272229D02*
X0377052Y0275298D01*
X0377052Y0272229D02*
X0372448Y0272229D01*
X0372448Y0270694D02*
X0372448Y0267625D01*
X0372448Y0269159D02*
X0377052Y0269159D01*
X0377052Y0266090D02*
X0372448Y0266090D01*
X0374750Y0266090D02*
X0374750Y0263021D01*
X0374750Y0261486D02*
X0374750Y0259951D01*
X0374750Y0261486D02*
X0376285Y0261486D01*
X0377052Y0260719D01*
X0377052Y0259184D01*
X0376285Y0258417D01*
X0373215Y0258417D01*
X0372448Y0259184D01*
X0372448Y0260719D01*
X0373215Y0261486D01*
X0372448Y0263021D02*
X0377052Y0263021D01*
X0377052Y0256882D02*
X0377052Y0255347D01*
X0377052Y0256115D02*
X0372448Y0256115D01*
X0372448Y0256882D02*
X0372448Y0255347D01*
X0373215Y0253813D02*
X0372448Y0253046D01*
X0372448Y0250744D01*
X0377052Y0250744D01*
X0375517Y0250744D02*
X0375517Y0253046D01*
X0374750Y0253813D01*
X0373215Y0253813D01*
X0375517Y0252278D02*
X0377052Y0253813D01*
X0376285Y0249209D02*
X0377052Y0248442D01*
X0377052Y0246140D01*
X0372448Y0246140D01*
X0372448Y0248442D01*
X0373215Y0249209D01*
X0373983Y0249209D01*
X0374750Y0248442D01*
X0374750Y0246140D01*
X0374750Y0248442D02*
X0375517Y0249209D01*
X0376285Y0249209D01*
X0296131Y0323935D02*
X0296131Y0327538D01*
X0294329Y0325736D01*
X0296731Y0325736D01*
X0293048Y0325736D02*
X0290646Y0325736D01*
X0289365Y0325136D02*
X0289365Y0324535D01*
X0288764Y0323935D01*
X0287563Y0323935D01*
X0286963Y0324535D01*
X0287563Y0325736D02*
X0288764Y0325736D01*
X0289365Y0325136D01*
X0289365Y0326937D02*
X0288764Y0327538D01*
X0287563Y0327538D01*
X0286963Y0326937D01*
X0286963Y0326337D01*
X0287563Y0325736D01*
X0285682Y0327538D02*
X0283280Y0327538D01*
X0284481Y0327538D02*
X0284481Y0323935D01*
X0281999Y0324535D02*
X0281999Y0327538D01*
X0279597Y0327538D02*
X0279597Y0324535D01*
X0280197Y0323935D01*
X0281398Y0323935D01*
X0281999Y0324535D01*
X0278315Y0325736D02*
X0278315Y0326937D01*
X0277715Y0327538D01*
X0275913Y0327538D01*
X0275913Y0323935D01*
X0275913Y0325136D02*
X0277715Y0325136D01*
X0278315Y0325736D01*
X0274632Y0323935D02*
X0274632Y0327538D01*
X0272230Y0327538D02*
X0272230Y0323935D01*
X0270976Y0323935D02*
X0269775Y0323935D01*
X0270375Y0323935D02*
X0270375Y0327538D01*
X0269775Y0327538D02*
X0270976Y0327538D01*
X0272230Y0327538D02*
X0274632Y0323935D01*
X0196337Y0324535D02*
X0195737Y0323935D01*
X0194536Y0323935D01*
X0193935Y0324535D01*
X0195136Y0325736D02*
X0195737Y0325736D01*
X0196337Y0325136D01*
X0196337Y0324535D01*
X0195737Y0325736D02*
X0196337Y0326337D01*
X0196337Y0326937D01*
X0195737Y0327538D01*
X0194536Y0327538D01*
X0193935Y0326937D01*
X0192654Y0325736D02*
X0190252Y0325736D01*
X0188971Y0325136D02*
X0188971Y0324535D01*
X0188371Y0323935D01*
X0187170Y0323935D01*
X0186569Y0324535D01*
X0187170Y0325736D02*
X0188371Y0325736D01*
X0188971Y0325136D01*
X0188971Y0326937D02*
X0188371Y0327538D01*
X0187170Y0327538D01*
X0186569Y0326937D01*
X0186569Y0326337D01*
X0187170Y0325736D01*
X0185288Y0327538D02*
X0182886Y0327538D01*
X0184087Y0327538D02*
X0184087Y0323935D01*
X0181605Y0324535D02*
X0181605Y0327538D01*
X0179203Y0327538D02*
X0179203Y0324535D01*
X0179803Y0323935D01*
X0181004Y0323935D01*
X0181605Y0324535D01*
X0177922Y0325736D02*
X0177922Y0326937D01*
X0177321Y0327538D01*
X0175520Y0327538D01*
X0175520Y0323935D01*
X0175520Y0325136D02*
X0177321Y0325136D01*
X0177922Y0325736D01*
X0174239Y0323935D02*
X0174239Y0327538D01*
X0171837Y0327538D02*
X0171837Y0323935D01*
X0170582Y0323935D02*
X0169381Y0323935D01*
X0169982Y0323935D02*
X0169982Y0327538D01*
X0170582Y0327538D02*
X0169381Y0327538D01*
X0171837Y0327538D02*
X0174239Y0323935D01*
X0155078Y0323935D02*
X0152676Y0323935D01*
X0155078Y0326337D01*
X0155078Y0326937D01*
X0154477Y0327538D01*
X0153276Y0327538D01*
X0152676Y0326937D01*
X0151394Y0325736D02*
X0148992Y0325736D01*
X0147711Y0325136D02*
X0147711Y0324535D01*
X0147111Y0323935D01*
X0145910Y0323935D01*
X0145309Y0324535D01*
X0145910Y0325736D02*
X0147111Y0325736D01*
X0147711Y0325136D01*
X0147711Y0326937D02*
X0147111Y0327538D01*
X0145910Y0327538D01*
X0145309Y0326937D01*
X0145309Y0326337D01*
X0145910Y0325736D01*
X0144028Y0327538D02*
X0141626Y0327538D01*
X0142827Y0327538D02*
X0142827Y0323935D01*
X0140345Y0324535D02*
X0140345Y0327538D01*
X0137943Y0327538D02*
X0137943Y0324535D01*
X0138543Y0323935D01*
X0139745Y0323935D01*
X0140345Y0324535D01*
X0136662Y0325736D02*
X0136662Y0326937D01*
X0136061Y0327538D01*
X0134260Y0327538D01*
X0134260Y0323935D01*
X0134260Y0325136D02*
X0136061Y0325136D01*
X0136662Y0325736D01*
X0132979Y0323935D02*
X0132979Y0327538D01*
X0130577Y0327538D02*
X0130577Y0323935D01*
X0129322Y0323935D02*
X0128121Y0323935D01*
X0128722Y0323935D02*
X0128722Y0327538D01*
X0129322Y0327538D02*
X0128121Y0327538D01*
X0130577Y0327538D02*
X0132979Y0323935D01*
X0006540Y0249474D02*
X0006540Y0247072D01*
X0006540Y0248273D02*
X0002937Y0248273D01*
X0004138Y0247072D01*
X0004739Y0245791D02*
X0004739Y0243389D01*
X0005339Y0242108D02*
X0005940Y0242108D01*
X0006540Y0241507D01*
X0006540Y0240306D01*
X0005940Y0239706D01*
X0004739Y0240306D02*
X0004739Y0241507D01*
X0005339Y0242108D01*
X0003538Y0242108D02*
X0002937Y0241507D01*
X0002937Y0240306D01*
X0003538Y0239706D01*
X0004138Y0239706D01*
X0004739Y0240306D01*
X0002937Y0238424D02*
X0002937Y0236022D01*
X0002937Y0237223D02*
X0006540Y0237223D01*
X0005940Y0234741D02*
X0002937Y0234741D01*
X0002937Y0232339D02*
X0005940Y0232339D01*
X0006540Y0232940D01*
X0006540Y0234141D01*
X0005940Y0234741D01*
X0004739Y0231058D02*
X0003538Y0231058D01*
X0002937Y0230458D01*
X0002937Y0228656D01*
X0006540Y0228656D01*
X0005339Y0228656D02*
X0005339Y0230458D01*
X0004739Y0231058D01*
X0006540Y0227375D02*
X0002937Y0227375D01*
X0002937Y0224973D02*
X0006540Y0227375D01*
X0006540Y0224973D02*
X0002937Y0224973D01*
X0002937Y0223719D02*
X0002937Y0222518D01*
X0002937Y0223118D02*
X0006540Y0223118D01*
X0006540Y0222518D02*
X0006540Y0223719D01*
X0062311Y0113085D02*
X0063886Y0113085D01*
X0063886Y0110329D02*
X0062311Y0110329D01*
X0082311Y0110329D02*
X0083886Y0110329D01*
X0083886Y0113085D02*
X0082311Y0113085D01*
X0102114Y0112888D02*
X0103689Y0112888D01*
X0103689Y0110133D02*
X0102114Y0110133D01*
X0122114Y0110231D02*
X0123689Y0110231D01*
X0123689Y0112987D02*
X0122114Y0112987D01*
X0142213Y0112888D02*
X0143787Y0112888D01*
X0143787Y0110133D02*
X0142213Y0110133D01*
X0162705Y0109936D02*
X0164280Y0109936D01*
X0164280Y0112692D02*
X0162705Y0112692D01*
X0182606Y0112888D02*
X0184181Y0112888D01*
X0184181Y0110133D02*
X0182606Y0110133D01*
X0202705Y0110280D02*
X0204280Y0110280D01*
X0204280Y0113036D02*
X0202705Y0113036D01*
X0222803Y0112888D02*
X0224378Y0112888D01*
X0224378Y0110133D02*
X0222803Y0110133D01*
X0242606Y0110133D02*
X0244181Y0110133D01*
X0244181Y0112888D02*
X0242606Y0112888D01*
X0262606Y0112888D02*
X0264181Y0112888D01*
X0264181Y0110133D02*
X0262606Y0110133D01*
X0283098Y0109936D02*
X0284673Y0109936D01*
X0284673Y0112692D02*
X0283098Y0112692D01*
X0300539Y0112692D02*
X0302114Y0112692D01*
X0302114Y0109936D02*
X0300539Y0109936D01*
X0318374Y0109936D02*
X0319949Y0109936D01*
X0319949Y0112692D02*
X0318374Y0112692D01*
X0334437Y0112692D02*
X0336012Y0112692D01*
X0336012Y0109936D02*
X0334437Y0109936D01*
X0333896Y0006136D02*
X0335698Y0006136D01*
X0336298Y0005536D01*
X0336298Y0004335D01*
X0335698Y0003734D01*
X0333896Y0003734D01*
X0333896Y0002533D02*
X0333896Y0006136D01*
X0332615Y0006136D02*
X0330213Y0006136D01*
X0331414Y0006136D02*
X0331414Y0002533D01*
X0328932Y0003134D02*
X0328932Y0006136D01*
X0326530Y0006136D02*
X0326530Y0003134D01*
X0327131Y0002533D01*
X0328332Y0002533D01*
X0328932Y0003134D01*
X0325249Y0003134D02*
X0325249Y0005536D01*
X0324648Y0006136D01*
X0323447Y0006136D01*
X0322847Y0005536D01*
X0322847Y0003134D01*
X0323447Y0002533D01*
X0324648Y0002533D01*
X0325249Y0003134D01*
X0337580Y0003134D02*
X0338180Y0002533D01*
X0339381Y0002533D01*
X0339982Y0003134D01*
X0339982Y0006136D01*
X0341263Y0006136D02*
X0343665Y0006136D01*
X0342464Y0006136D02*
X0342464Y0002533D01*
X0344946Y0003134D02*
X0345546Y0002533D01*
X0346747Y0002533D01*
X0347348Y0003134D01*
X0347348Y0003734D01*
X0346747Y0004335D01*
X0345546Y0004335D01*
X0344946Y0004935D01*
X0344946Y0005536D01*
X0345546Y0006136D01*
X0346747Y0006136D01*
X0347348Y0005536D01*
X0348629Y0004335D02*
X0351031Y0004335D01*
X0352312Y0005536D02*
X0352913Y0006136D01*
X0354114Y0006136D01*
X0354714Y0005536D01*
X0354714Y0004935D01*
X0354114Y0004335D01*
X0354714Y0003734D01*
X0354714Y0003134D01*
X0354114Y0002533D01*
X0352913Y0002533D01*
X0352312Y0003134D01*
X0353513Y0004335D02*
X0354114Y0004335D01*
X0337580Y0003134D02*
X0337580Y0006136D01*
X0378643Y0006136D02*
X0378643Y0002533D01*
X0378643Y0003734D02*
X0380444Y0003734D01*
X0381045Y0004335D01*
X0381045Y0005536D01*
X0380444Y0006136D01*
X0378643Y0006136D01*
X0382326Y0005536D02*
X0382326Y0003134D01*
X0382926Y0002533D01*
X0384127Y0002533D01*
X0384728Y0003134D01*
X0384728Y0005536D01*
X0384127Y0006136D01*
X0382926Y0006136D01*
X0382326Y0005536D01*
X0386009Y0006136D02*
X0386009Y0002533D01*
X0387210Y0003734D01*
X0388411Y0002533D01*
X0388411Y0006136D01*
X0389692Y0006136D02*
X0389692Y0002533D01*
X0392094Y0002533D01*
X0393375Y0002533D02*
X0393375Y0006136D01*
X0395177Y0006136D01*
X0395777Y0005536D01*
X0395777Y0004335D01*
X0395177Y0003734D01*
X0393375Y0003734D01*
X0394576Y0003734D02*
X0395777Y0002533D01*
X0392094Y0006136D02*
X0389692Y0006136D01*
X0389692Y0004335D02*
X0390893Y0004335D01*
X0254320Y0004935D02*
X0254320Y0005536D01*
X0253720Y0006136D01*
X0252519Y0006136D01*
X0251918Y0005536D01*
X0250637Y0004335D02*
X0248235Y0004335D01*
X0246954Y0003734D02*
X0246954Y0003134D01*
X0246354Y0002533D01*
X0245153Y0002533D01*
X0244552Y0003134D01*
X0245153Y0004335D02*
X0246354Y0004335D01*
X0246954Y0003734D01*
X0246954Y0005536D02*
X0246354Y0006136D01*
X0245153Y0006136D01*
X0244552Y0005536D01*
X0244552Y0004935D01*
X0245153Y0004335D01*
X0243271Y0006136D02*
X0240869Y0006136D01*
X0242070Y0006136D02*
X0242070Y0002533D01*
X0239588Y0003134D02*
X0239588Y0006136D01*
X0237186Y0006136D02*
X0237186Y0003134D01*
X0237786Y0002533D01*
X0238987Y0002533D01*
X0239588Y0003134D01*
X0235905Y0004335D02*
X0235304Y0003734D01*
X0233503Y0003734D01*
X0233503Y0002533D02*
X0233503Y0006136D01*
X0235304Y0006136D01*
X0235905Y0005536D01*
X0235905Y0004335D01*
X0232222Y0006136D02*
X0229820Y0006136D01*
X0231021Y0006136D02*
X0231021Y0002533D01*
X0228538Y0003134D02*
X0228538Y0006136D01*
X0226136Y0006136D02*
X0226136Y0003134D01*
X0226737Y0002533D01*
X0227938Y0002533D01*
X0228538Y0003134D01*
X0224855Y0003134D02*
X0224855Y0005536D01*
X0224255Y0006136D01*
X0223054Y0006136D01*
X0222453Y0005536D01*
X0222453Y0003134D01*
X0223054Y0002533D01*
X0224255Y0002533D01*
X0224855Y0003134D01*
X0251918Y0002533D02*
X0254320Y0004935D01*
X0254320Y0002533D02*
X0251918Y0002533D01*
X0153927Y0002533D02*
X0151525Y0002533D01*
X0152726Y0002533D02*
X0152726Y0006136D01*
X0151525Y0004935D01*
X0150244Y0004335D02*
X0147842Y0004335D01*
X0146560Y0003734D02*
X0146560Y0003134D01*
X0145960Y0002533D01*
X0144759Y0002533D01*
X0144158Y0003134D01*
X0144759Y0004335D02*
X0145960Y0004335D01*
X0146560Y0003734D01*
X0146560Y0005536D02*
X0145960Y0006136D01*
X0144759Y0006136D01*
X0144158Y0005536D01*
X0144158Y0004935D01*
X0144759Y0004335D01*
X0142877Y0006136D02*
X0140475Y0006136D01*
X0141676Y0006136D02*
X0141676Y0002533D01*
X0139194Y0003134D02*
X0139194Y0006136D01*
X0136792Y0006136D02*
X0136792Y0003134D01*
X0137393Y0002533D01*
X0138594Y0002533D01*
X0139194Y0003134D01*
X0135511Y0004335D02*
X0134911Y0003734D01*
X0133109Y0003734D01*
X0133109Y0002533D02*
X0133109Y0006136D01*
X0134911Y0006136D01*
X0135511Y0005536D01*
X0135511Y0004335D01*
X0131828Y0006136D02*
X0129426Y0006136D01*
X0130627Y0006136D02*
X0130627Y0002533D01*
X0128145Y0003134D02*
X0128145Y0006136D01*
X0125743Y0006136D02*
X0125743Y0003134D01*
X0126343Y0002533D01*
X0127544Y0002533D01*
X0128145Y0003134D01*
X0124462Y0003134D02*
X0124462Y0005536D01*
X0123861Y0006136D01*
X0122660Y0006136D01*
X0122060Y0005536D01*
X0122060Y0003134D01*
X0122660Y0002533D01*
X0123861Y0002533D01*
X0124462Y0003134D01*
X0033784Y0065509D02*
X0033784Y0067043D01*
X0033017Y0067811D01*
X0033017Y0069345D02*
X0029948Y0069345D01*
X0029180Y0070112D01*
X0029180Y0071647D01*
X0029948Y0072414D01*
X0033017Y0072414D01*
X0033784Y0071647D01*
X0033784Y0070112D01*
X0033017Y0069345D01*
X0029948Y0067811D02*
X0029180Y0067043D01*
X0029180Y0065509D01*
X0029948Y0064741D01*
X0033017Y0064741D01*
X0033784Y0065509D01*
X0033784Y0073949D02*
X0029180Y0073949D01*
X0033784Y0077018D01*
X0029180Y0077018D01*
X0029180Y0078553D02*
X0029180Y0081622D01*
X0029180Y0080088D02*
X0033784Y0080088D01*
X0033784Y0083157D02*
X0029180Y0083157D01*
X0029180Y0085459D01*
X0029948Y0086226D01*
X0031482Y0086226D01*
X0032250Y0085459D01*
X0032250Y0083157D01*
X0032250Y0084692D02*
X0033784Y0086226D01*
X0033784Y0087761D02*
X0030715Y0087761D01*
X0029180Y0089295D01*
X0030715Y0090830D01*
X0033784Y0090830D01*
X0033017Y0092365D02*
X0033784Y0093132D01*
X0033784Y0094667D01*
X0033017Y0095434D01*
X0032250Y0095434D01*
X0031482Y0094667D01*
X0031482Y0093132D01*
X0030715Y0092365D01*
X0029948Y0092365D01*
X0029180Y0093132D01*
X0029180Y0094667D01*
X0029948Y0095434D01*
X0029180Y0096969D02*
X0029180Y0100038D01*
X0029180Y0098503D02*
X0033784Y0098503D01*
X0031482Y0090830D02*
X0031482Y0087761D01*
D15*
X0155807Y0172247D02*
X0160511Y0172247D01*
X0160511Y0169895D01*
X0159727Y0169111D01*
X0158159Y0169111D01*
X0157375Y0169895D01*
X0157375Y0172247D01*
X0172291Y0178311D02*
X0175427Y0181447D01*
X0173859Y0181447D02*
X0173859Y0178311D01*
X0175427Y0178311D02*
X0172291Y0181447D01*
X0172291Y0179879D02*
X0175427Y0179879D01*
X0169333Y0233546D02*
X0166981Y0233546D01*
X0166197Y0234330D01*
X0166197Y0237466D01*
X0166981Y0238250D01*
X0169333Y0238250D01*
X0169333Y0233546D01*
X0164729Y0235114D02*
X0163161Y0233546D01*
X0163161Y0238250D01*
X0164729Y0238250D02*
X0161593Y0238250D01*
X0160125Y0237466D02*
X0156989Y0234330D01*
X0156989Y0237466D01*
X0157773Y0238250D01*
X0159341Y0238250D01*
X0160125Y0237466D01*
X0160125Y0234330D01*
X0159341Y0233546D01*
X0157773Y0233546D01*
X0156989Y0234330D01*
X0145858Y0233842D02*
X0143506Y0233842D01*
X0142722Y0234626D01*
X0142722Y0237762D01*
X0143506Y0238546D01*
X0145858Y0238546D01*
X0145858Y0233842D01*
X0141254Y0235410D02*
X0139686Y0233842D01*
X0139686Y0238546D01*
X0141254Y0238546D02*
X0138118Y0238546D01*
X0136650Y0238546D02*
X0133514Y0238546D01*
X0135082Y0238546D02*
X0135082Y0233842D01*
X0136650Y0235410D01*
X0125238Y0233349D02*
X0122886Y0233349D01*
X0122102Y0234133D01*
X0122102Y0237269D01*
X0122886Y0238053D01*
X0125238Y0238053D01*
X0125238Y0233349D01*
X0120634Y0234917D02*
X0119066Y0233349D01*
X0119066Y0238053D01*
X0120634Y0238053D02*
X0117498Y0238053D01*
X0116030Y0238053D02*
X0112894Y0234917D01*
X0112894Y0234133D01*
X0113678Y0233349D01*
X0115246Y0233349D01*
X0116030Y0234133D01*
X0116030Y0238053D02*
X0112894Y0238053D01*
X0108900Y0238447D02*
X0106548Y0238447D01*
X0105764Y0237663D01*
X0105764Y0234527D01*
X0106548Y0233743D01*
X0108900Y0233743D01*
X0108900Y0238447D01*
X0104296Y0238447D02*
X0101160Y0238447D01*
X0102728Y0238447D02*
X0102728Y0233743D01*
X0104296Y0235311D01*
X0099692Y0234527D02*
X0098908Y0233743D01*
X0097340Y0233743D01*
X0096556Y0234527D01*
X0096556Y0235311D01*
X0097340Y0236095D01*
X0096556Y0236879D01*
X0096556Y0237663D01*
X0097340Y0238447D01*
X0098908Y0238447D01*
X0099692Y0237663D01*
X0098124Y0236095D02*
X0097340Y0236095D01*
X0086459Y0237857D02*
X0086459Y0233153D01*
X0084107Y0233153D01*
X0083323Y0233937D01*
X0083323Y0237073D01*
X0084107Y0237857D01*
X0086459Y0237857D01*
X0081855Y0237857D02*
X0078719Y0237857D01*
X0080287Y0237857D02*
X0080287Y0233153D01*
X0081855Y0234721D01*
X0077251Y0235505D02*
X0074899Y0233153D01*
X0074899Y0237857D01*
X0074115Y0235505D02*
X0077251Y0235505D01*
X0184427Y0235898D02*
X0186779Y0235898D01*
X0187563Y0235114D01*
X0187563Y0234330D01*
X0186779Y0233546D01*
X0185211Y0233546D01*
X0184427Y0234330D01*
X0184427Y0237466D01*
X0185211Y0238250D01*
X0186779Y0238250D01*
X0187563Y0237466D01*
X0189031Y0237466D02*
X0189031Y0234330D01*
X0189815Y0233546D01*
X0192167Y0233546D01*
X0192167Y0238250D01*
X0189815Y0238250D01*
X0189031Y0237466D01*
X0206475Y0237466D02*
X0207259Y0238250D01*
X0208827Y0238250D01*
X0209611Y0237466D01*
X0209611Y0236682D01*
X0208827Y0235898D01*
X0207259Y0235898D01*
X0206475Y0236682D01*
X0206475Y0237466D01*
X0207259Y0235898D02*
X0206475Y0235114D01*
X0206475Y0234330D01*
X0207259Y0233546D01*
X0208827Y0233546D01*
X0209611Y0234330D01*
X0209611Y0235114D01*
X0208827Y0235898D01*
X0211079Y0237466D02*
X0211079Y0234330D01*
X0211863Y0233546D01*
X0214215Y0233546D01*
X0214215Y0238250D01*
X0211863Y0238250D01*
X0211079Y0237466D01*
X0223797Y0234330D02*
X0226933Y0237466D01*
X0226933Y0238250D01*
X0228401Y0237466D02*
X0229185Y0238250D01*
X0231537Y0238250D01*
X0231537Y0233546D01*
X0229185Y0233546D01*
X0228401Y0234330D01*
X0228401Y0237466D01*
X0226933Y0233546D02*
X0223797Y0233546D01*
X0223797Y0234330D01*
X0243483Y0233546D02*
X0245051Y0234330D01*
X0246619Y0235898D01*
X0244267Y0235898D01*
X0243483Y0236682D01*
X0243483Y0237466D01*
X0244267Y0238250D01*
X0245835Y0238250D01*
X0246619Y0237466D01*
X0246619Y0235898D01*
X0248086Y0237466D02*
X0248086Y0234330D01*
X0248870Y0233546D01*
X0251222Y0233546D01*
X0251222Y0238250D01*
X0248870Y0238250D01*
X0248086Y0237466D01*
X0263955Y0237466D02*
X0264739Y0238250D01*
X0266307Y0238250D01*
X0267091Y0237466D01*
X0268559Y0237466D02*
X0268559Y0234330D01*
X0269343Y0233546D01*
X0271695Y0233546D01*
X0271695Y0238250D01*
X0269343Y0238250D01*
X0268559Y0237466D01*
X0267091Y0235898D02*
X0265523Y0235114D01*
X0264739Y0235114D01*
X0263955Y0235898D01*
X0263955Y0237466D01*
X0267091Y0235898D02*
X0267091Y0233546D01*
X0263955Y0233546D01*
X0261611Y0172904D02*
X0258475Y0169768D01*
X0258475Y0171336D02*
X0261611Y0171336D01*
X0261611Y0169768D02*
X0258475Y0172904D01*
X0260043Y0172904D02*
X0260043Y0169768D01*
X0260043Y0158140D02*
X0260043Y0155004D01*
X0258475Y0155004D02*
X0261611Y0158140D01*
X0261611Y0156572D02*
X0258475Y0156572D01*
X0258475Y0158140D02*
X0261611Y0155004D01*
X0261611Y0143377D02*
X0258475Y0140241D01*
X0258475Y0141809D02*
X0261611Y0141809D01*
X0261611Y0140241D02*
X0258475Y0143377D01*
X0260043Y0143377D02*
X0260043Y0140241D01*
X0363485Y0141566D02*
X0363485Y0138430D01*
X0363485Y0136962D02*
X0368189Y0136962D01*
X0368189Y0134610D01*
X0367405Y0133826D01*
X0365837Y0133826D01*
X0365053Y0134610D01*
X0365053Y0136962D01*
X0365053Y0135394D02*
X0363485Y0133826D01*
X0363485Y0132358D02*
X0368189Y0132358D01*
X0366621Y0130790D01*
X0368189Y0129222D01*
X0363485Y0129222D01*
X0363485Y0127754D02*
X0363485Y0124618D01*
X0363485Y0126186D02*
X0368189Y0126186D01*
X0366621Y0127754D01*
X0368189Y0138430D02*
X0368189Y0141566D01*
X0363485Y0141566D01*
X0365837Y0141566D02*
X0365837Y0139998D01*
X0368189Y0143034D02*
X0368189Y0146170D01*
X0368189Y0144602D02*
X0363485Y0144602D01*
X0363485Y0186036D02*
X0363485Y0189172D01*
X0366621Y0186036D01*
X0367405Y0186036D01*
X0368189Y0186820D01*
X0368189Y0188388D01*
X0367405Y0189172D01*
X0368189Y0190639D02*
X0363485Y0190639D01*
X0363485Y0193775D02*
X0368189Y0193775D01*
X0366621Y0192207D01*
X0368189Y0190639D01*
X0367405Y0195243D02*
X0365837Y0195243D01*
X0365053Y0196027D01*
X0365053Y0198379D01*
X0365053Y0196811D02*
X0363485Y0195243D01*
X0363485Y0198379D02*
X0368189Y0198379D01*
X0368189Y0196027D01*
X0367405Y0195243D01*
X0368189Y0199847D02*
X0368189Y0202983D01*
X0363485Y0202983D01*
X0363485Y0199847D01*
X0365837Y0201415D02*
X0365837Y0202983D01*
X0368189Y0204451D02*
X0368189Y0207587D01*
X0368189Y0206019D02*
X0363485Y0206019D01*
D16*
X0386110Y0302829D02*
X0386112Y0302987D01*
X0386118Y0303145D01*
X0386128Y0303303D01*
X0386142Y0303461D01*
X0386160Y0303618D01*
X0386181Y0303775D01*
X0386207Y0303931D01*
X0386237Y0304087D01*
X0386270Y0304242D01*
X0386308Y0304395D01*
X0386349Y0304548D01*
X0386394Y0304700D01*
X0386443Y0304851D01*
X0386496Y0305000D01*
X0386552Y0305148D01*
X0386612Y0305294D01*
X0386676Y0305439D01*
X0386744Y0305582D01*
X0386815Y0305724D01*
X0386889Y0305864D01*
X0386967Y0306001D01*
X0387049Y0306137D01*
X0387133Y0306271D01*
X0387222Y0306402D01*
X0387313Y0306531D01*
X0387408Y0306658D01*
X0387505Y0306783D01*
X0387606Y0306905D01*
X0387710Y0307024D01*
X0387817Y0307141D01*
X0387927Y0307255D01*
X0388040Y0307366D01*
X0388155Y0307475D01*
X0388273Y0307580D01*
X0388394Y0307682D01*
X0388517Y0307782D01*
X0388643Y0307878D01*
X0388771Y0307971D01*
X0388901Y0308061D01*
X0389034Y0308147D01*
X0389169Y0308231D01*
X0389305Y0308310D01*
X0389444Y0308387D01*
X0389585Y0308459D01*
X0389727Y0308529D01*
X0389871Y0308594D01*
X0390017Y0308656D01*
X0390164Y0308714D01*
X0390313Y0308769D01*
X0390463Y0308820D01*
X0390614Y0308867D01*
X0390766Y0308910D01*
X0390919Y0308949D01*
X0391074Y0308985D01*
X0391229Y0309016D01*
X0391385Y0309044D01*
X0391541Y0309068D01*
X0391698Y0309088D01*
X0391856Y0309104D01*
X0392013Y0309116D01*
X0392172Y0309124D01*
X0392330Y0309128D01*
X0392488Y0309128D01*
X0392646Y0309124D01*
X0392805Y0309116D01*
X0392962Y0309104D01*
X0393120Y0309088D01*
X0393277Y0309068D01*
X0393433Y0309044D01*
X0393589Y0309016D01*
X0393744Y0308985D01*
X0393899Y0308949D01*
X0394052Y0308910D01*
X0394204Y0308867D01*
X0394355Y0308820D01*
X0394505Y0308769D01*
X0394654Y0308714D01*
X0394801Y0308656D01*
X0394947Y0308594D01*
X0395091Y0308529D01*
X0395233Y0308459D01*
X0395374Y0308387D01*
X0395513Y0308310D01*
X0395649Y0308231D01*
X0395784Y0308147D01*
X0395917Y0308061D01*
X0396047Y0307971D01*
X0396175Y0307878D01*
X0396301Y0307782D01*
X0396424Y0307682D01*
X0396545Y0307580D01*
X0396663Y0307475D01*
X0396778Y0307366D01*
X0396891Y0307255D01*
X0397001Y0307141D01*
X0397108Y0307024D01*
X0397212Y0306905D01*
X0397313Y0306783D01*
X0397410Y0306658D01*
X0397505Y0306531D01*
X0397596Y0306402D01*
X0397685Y0306271D01*
X0397769Y0306137D01*
X0397851Y0306001D01*
X0397929Y0305864D01*
X0398003Y0305724D01*
X0398074Y0305582D01*
X0398142Y0305439D01*
X0398206Y0305294D01*
X0398266Y0305148D01*
X0398322Y0305000D01*
X0398375Y0304851D01*
X0398424Y0304700D01*
X0398469Y0304548D01*
X0398510Y0304395D01*
X0398548Y0304242D01*
X0398581Y0304087D01*
X0398611Y0303931D01*
X0398637Y0303775D01*
X0398658Y0303618D01*
X0398676Y0303461D01*
X0398690Y0303303D01*
X0398700Y0303145D01*
X0398706Y0302987D01*
X0398708Y0302829D01*
X0398706Y0302671D01*
X0398700Y0302513D01*
X0398690Y0302355D01*
X0398676Y0302197D01*
X0398658Y0302040D01*
X0398637Y0301883D01*
X0398611Y0301727D01*
X0398581Y0301571D01*
X0398548Y0301416D01*
X0398510Y0301263D01*
X0398469Y0301110D01*
X0398424Y0300958D01*
X0398375Y0300807D01*
X0398322Y0300658D01*
X0398266Y0300510D01*
X0398206Y0300364D01*
X0398142Y0300219D01*
X0398074Y0300076D01*
X0398003Y0299934D01*
X0397929Y0299794D01*
X0397851Y0299657D01*
X0397769Y0299521D01*
X0397685Y0299387D01*
X0397596Y0299256D01*
X0397505Y0299127D01*
X0397410Y0299000D01*
X0397313Y0298875D01*
X0397212Y0298753D01*
X0397108Y0298634D01*
X0397001Y0298517D01*
X0396891Y0298403D01*
X0396778Y0298292D01*
X0396663Y0298183D01*
X0396545Y0298078D01*
X0396424Y0297976D01*
X0396301Y0297876D01*
X0396175Y0297780D01*
X0396047Y0297687D01*
X0395917Y0297597D01*
X0395784Y0297511D01*
X0395649Y0297427D01*
X0395513Y0297348D01*
X0395374Y0297271D01*
X0395233Y0297199D01*
X0395091Y0297129D01*
X0394947Y0297064D01*
X0394801Y0297002D01*
X0394654Y0296944D01*
X0394505Y0296889D01*
X0394355Y0296838D01*
X0394204Y0296791D01*
X0394052Y0296748D01*
X0393899Y0296709D01*
X0393744Y0296673D01*
X0393589Y0296642D01*
X0393433Y0296614D01*
X0393277Y0296590D01*
X0393120Y0296570D01*
X0392962Y0296554D01*
X0392805Y0296542D01*
X0392646Y0296534D01*
X0392488Y0296530D01*
X0392330Y0296530D01*
X0392172Y0296534D01*
X0392013Y0296542D01*
X0391856Y0296554D01*
X0391698Y0296570D01*
X0391541Y0296590D01*
X0391385Y0296614D01*
X0391229Y0296642D01*
X0391074Y0296673D01*
X0390919Y0296709D01*
X0390766Y0296748D01*
X0390614Y0296791D01*
X0390463Y0296838D01*
X0390313Y0296889D01*
X0390164Y0296944D01*
X0390017Y0297002D01*
X0389871Y0297064D01*
X0389727Y0297129D01*
X0389585Y0297199D01*
X0389444Y0297271D01*
X0389305Y0297348D01*
X0389169Y0297427D01*
X0389034Y0297511D01*
X0388901Y0297597D01*
X0388771Y0297687D01*
X0388643Y0297780D01*
X0388517Y0297876D01*
X0388394Y0297976D01*
X0388273Y0298078D01*
X0388155Y0298183D01*
X0388040Y0298292D01*
X0387927Y0298403D01*
X0387817Y0298517D01*
X0387710Y0298634D01*
X0387606Y0298753D01*
X0387505Y0298875D01*
X0387408Y0299000D01*
X0387313Y0299127D01*
X0387222Y0299256D01*
X0387133Y0299387D01*
X0387049Y0299521D01*
X0386967Y0299657D01*
X0386889Y0299794D01*
X0386815Y0299934D01*
X0386744Y0300076D01*
X0386676Y0300219D01*
X0386612Y0300364D01*
X0386552Y0300510D01*
X0386496Y0300658D01*
X0386443Y0300807D01*
X0386394Y0300958D01*
X0386349Y0301110D01*
X0386308Y0301263D01*
X0386270Y0301416D01*
X0386237Y0301571D01*
X0386207Y0301727D01*
X0386181Y0301883D01*
X0386160Y0302040D01*
X0386142Y0302197D01*
X0386128Y0302355D01*
X0386118Y0302513D01*
X0386112Y0302671D01*
X0386110Y0302829D01*
X0386110Y0046924D02*
X0386112Y0047082D01*
X0386118Y0047240D01*
X0386128Y0047398D01*
X0386142Y0047556D01*
X0386160Y0047713D01*
X0386181Y0047870D01*
X0386207Y0048026D01*
X0386237Y0048182D01*
X0386270Y0048337D01*
X0386308Y0048490D01*
X0386349Y0048643D01*
X0386394Y0048795D01*
X0386443Y0048946D01*
X0386496Y0049095D01*
X0386552Y0049243D01*
X0386612Y0049389D01*
X0386676Y0049534D01*
X0386744Y0049677D01*
X0386815Y0049819D01*
X0386889Y0049959D01*
X0386967Y0050096D01*
X0387049Y0050232D01*
X0387133Y0050366D01*
X0387222Y0050497D01*
X0387313Y0050626D01*
X0387408Y0050753D01*
X0387505Y0050878D01*
X0387606Y0051000D01*
X0387710Y0051119D01*
X0387817Y0051236D01*
X0387927Y0051350D01*
X0388040Y0051461D01*
X0388155Y0051570D01*
X0388273Y0051675D01*
X0388394Y0051777D01*
X0388517Y0051877D01*
X0388643Y0051973D01*
X0388771Y0052066D01*
X0388901Y0052156D01*
X0389034Y0052242D01*
X0389169Y0052326D01*
X0389305Y0052405D01*
X0389444Y0052482D01*
X0389585Y0052554D01*
X0389727Y0052624D01*
X0389871Y0052689D01*
X0390017Y0052751D01*
X0390164Y0052809D01*
X0390313Y0052864D01*
X0390463Y0052915D01*
X0390614Y0052962D01*
X0390766Y0053005D01*
X0390919Y0053044D01*
X0391074Y0053080D01*
X0391229Y0053111D01*
X0391385Y0053139D01*
X0391541Y0053163D01*
X0391698Y0053183D01*
X0391856Y0053199D01*
X0392013Y0053211D01*
X0392172Y0053219D01*
X0392330Y0053223D01*
X0392488Y0053223D01*
X0392646Y0053219D01*
X0392805Y0053211D01*
X0392962Y0053199D01*
X0393120Y0053183D01*
X0393277Y0053163D01*
X0393433Y0053139D01*
X0393589Y0053111D01*
X0393744Y0053080D01*
X0393899Y0053044D01*
X0394052Y0053005D01*
X0394204Y0052962D01*
X0394355Y0052915D01*
X0394505Y0052864D01*
X0394654Y0052809D01*
X0394801Y0052751D01*
X0394947Y0052689D01*
X0395091Y0052624D01*
X0395233Y0052554D01*
X0395374Y0052482D01*
X0395513Y0052405D01*
X0395649Y0052326D01*
X0395784Y0052242D01*
X0395917Y0052156D01*
X0396047Y0052066D01*
X0396175Y0051973D01*
X0396301Y0051877D01*
X0396424Y0051777D01*
X0396545Y0051675D01*
X0396663Y0051570D01*
X0396778Y0051461D01*
X0396891Y0051350D01*
X0397001Y0051236D01*
X0397108Y0051119D01*
X0397212Y0051000D01*
X0397313Y0050878D01*
X0397410Y0050753D01*
X0397505Y0050626D01*
X0397596Y0050497D01*
X0397685Y0050366D01*
X0397769Y0050232D01*
X0397851Y0050096D01*
X0397929Y0049959D01*
X0398003Y0049819D01*
X0398074Y0049677D01*
X0398142Y0049534D01*
X0398206Y0049389D01*
X0398266Y0049243D01*
X0398322Y0049095D01*
X0398375Y0048946D01*
X0398424Y0048795D01*
X0398469Y0048643D01*
X0398510Y0048490D01*
X0398548Y0048337D01*
X0398581Y0048182D01*
X0398611Y0048026D01*
X0398637Y0047870D01*
X0398658Y0047713D01*
X0398676Y0047556D01*
X0398690Y0047398D01*
X0398700Y0047240D01*
X0398706Y0047082D01*
X0398708Y0046924D01*
X0398706Y0046766D01*
X0398700Y0046608D01*
X0398690Y0046450D01*
X0398676Y0046292D01*
X0398658Y0046135D01*
X0398637Y0045978D01*
X0398611Y0045822D01*
X0398581Y0045666D01*
X0398548Y0045511D01*
X0398510Y0045358D01*
X0398469Y0045205D01*
X0398424Y0045053D01*
X0398375Y0044902D01*
X0398322Y0044753D01*
X0398266Y0044605D01*
X0398206Y0044459D01*
X0398142Y0044314D01*
X0398074Y0044171D01*
X0398003Y0044029D01*
X0397929Y0043889D01*
X0397851Y0043752D01*
X0397769Y0043616D01*
X0397685Y0043482D01*
X0397596Y0043351D01*
X0397505Y0043222D01*
X0397410Y0043095D01*
X0397313Y0042970D01*
X0397212Y0042848D01*
X0397108Y0042729D01*
X0397001Y0042612D01*
X0396891Y0042498D01*
X0396778Y0042387D01*
X0396663Y0042278D01*
X0396545Y0042173D01*
X0396424Y0042071D01*
X0396301Y0041971D01*
X0396175Y0041875D01*
X0396047Y0041782D01*
X0395917Y0041692D01*
X0395784Y0041606D01*
X0395649Y0041522D01*
X0395513Y0041443D01*
X0395374Y0041366D01*
X0395233Y0041294D01*
X0395091Y0041224D01*
X0394947Y0041159D01*
X0394801Y0041097D01*
X0394654Y0041039D01*
X0394505Y0040984D01*
X0394355Y0040933D01*
X0394204Y0040886D01*
X0394052Y0040843D01*
X0393899Y0040804D01*
X0393744Y0040768D01*
X0393589Y0040737D01*
X0393433Y0040709D01*
X0393277Y0040685D01*
X0393120Y0040665D01*
X0392962Y0040649D01*
X0392805Y0040637D01*
X0392646Y0040629D01*
X0392488Y0040625D01*
X0392330Y0040625D01*
X0392172Y0040629D01*
X0392013Y0040637D01*
X0391856Y0040649D01*
X0391698Y0040665D01*
X0391541Y0040685D01*
X0391385Y0040709D01*
X0391229Y0040737D01*
X0391074Y0040768D01*
X0390919Y0040804D01*
X0390766Y0040843D01*
X0390614Y0040886D01*
X0390463Y0040933D01*
X0390313Y0040984D01*
X0390164Y0041039D01*
X0390017Y0041097D01*
X0389871Y0041159D01*
X0389727Y0041224D01*
X0389585Y0041294D01*
X0389444Y0041366D01*
X0389305Y0041443D01*
X0389169Y0041522D01*
X0389034Y0041606D01*
X0388901Y0041692D01*
X0388771Y0041782D01*
X0388643Y0041875D01*
X0388517Y0041971D01*
X0388394Y0042071D01*
X0388273Y0042173D01*
X0388155Y0042278D01*
X0388040Y0042387D01*
X0387927Y0042498D01*
X0387817Y0042612D01*
X0387710Y0042729D01*
X0387606Y0042848D01*
X0387505Y0042970D01*
X0387408Y0043095D01*
X0387313Y0043222D01*
X0387222Y0043351D01*
X0387133Y0043482D01*
X0387049Y0043616D01*
X0386967Y0043752D01*
X0386889Y0043889D01*
X0386815Y0044029D01*
X0386744Y0044171D01*
X0386676Y0044314D01*
X0386612Y0044459D01*
X0386552Y0044605D01*
X0386496Y0044753D01*
X0386443Y0044902D01*
X0386394Y0045053D01*
X0386349Y0045205D01*
X0386308Y0045358D01*
X0386270Y0045511D01*
X0386237Y0045666D01*
X0386207Y0045822D01*
X0386181Y0045978D01*
X0386160Y0046135D01*
X0386142Y0046292D01*
X0386128Y0046450D01*
X0386118Y0046608D01*
X0386112Y0046766D01*
X0386110Y0046924D01*
X0039654Y0046924D02*
X0039656Y0047082D01*
X0039662Y0047240D01*
X0039672Y0047398D01*
X0039686Y0047556D01*
X0039704Y0047713D01*
X0039725Y0047870D01*
X0039751Y0048026D01*
X0039781Y0048182D01*
X0039814Y0048337D01*
X0039852Y0048490D01*
X0039893Y0048643D01*
X0039938Y0048795D01*
X0039987Y0048946D01*
X0040040Y0049095D01*
X0040096Y0049243D01*
X0040156Y0049389D01*
X0040220Y0049534D01*
X0040288Y0049677D01*
X0040359Y0049819D01*
X0040433Y0049959D01*
X0040511Y0050096D01*
X0040593Y0050232D01*
X0040677Y0050366D01*
X0040766Y0050497D01*
X0040857Y0050626D01*
X0040952Y0050753D01*
X0041049Y0050878D01*
X0041150Y0051000D01*
X0041254Y0051119D01*
X0041361Y0051236D01*
X0041471Y0051350D01*
X0041584Y0051461D01*
X0041699Y0051570D01*
X0041817Y0051675D01*
X0041938Y0051777D01*
X0042061Y0051877D01*
X0042187Y0051973D01*
X0042315Y0052066D01*
X0042445Y0052156D01*
X0042578Y0052242D01*
X0042713Y0052326D01*
X0042849Y0052405D01*
X0042988Y0052482D01*
X0043129Y0052554D01*
X0043271Y0052624D01*
X0043415Y0052689D01*
X0043561Y0052751D01*
X0043708Y0052809D01*
X0043857Y0052864D01*
X0044007Y0052915D01*
X0044158Y0052962D01*
X0044310Y0053005D01*
X0044463Y0053044D01*
X0044618Y0053080D01*
X0044773Y0053111D01*
X0044929Y0053139D01*
X0045085Y0053163D01*
X0045242Y0053183D01*
X0045400Y0053199D01*
X0045557Y0053211D01*
X0045716Y0053219D01*
X0045874Y0053223D01*
X0046032Y0053223D01*
X0046190Y0053219D01*
X0046349Y0053211D01*
X0046506Y0053199D01*
X0046664Y0053183D01*
X0046821Y0053163D01*
X0046977Y0053139D01*
X0047133Y0053111D01*
X0047288Y0053080D01*
X0047443Y0053044D01*
X0047596Y0053005D01*
X0047748Y0052962D01*
X0047899Y0052915D01*
X0048049Y0052864D01*
X0048198Y0052809D01*
X0048345Y0052751D01*
X0048491Y0052689D01*
X0048635Y0052624D01*
X0048777Y0052554D01*
X0048918Y0052482D01*
X0049057Y0052405D01*
X0049193Y0052326D01*
X0049328Y0052242D01*
X0049461Y0052156D01*
X0049591Y0052066D01*
X0049719Y0051973D01*
X0049845Y0051877D01*
X0049968Y0051777D01*
X0050089Y0051675D01*
X0050207Y0051570D01*
X0050322Y0051461D01*
X0050435Y0051350D01*
X0050545Y0051236D01*
X0050652Y0051119D01*
X0050756Y0051000D01*
X0050857Y0050878D01*
X0050954Y0050753D01*
X0051049Y0050626D01*
X0051140Y0050497D01*
X0051229Y0050366D01*
X0051313Y0050232D01*
X0051395Y0050096D01*
X0051473Y0049959D01*
X0051547Y0049819D01*
X0051618Y0049677D01*
X0051686Y0049534D01*
X0051750Y0049389D01*
X0051810Y0049243D01*
X0051866Y0049095D01*
X0051919Y0048946D01*
X0051968Y0048795D01*
X0052013Y0048643D01*
X0052054Y0048490D01*
X0052092Y0048337D01*
X0052125Y0048182D01*
X0052155Y0048026D01*
X0052181Y0047870D01*
X0052202Y0047713D01*
X0052220Y0047556D01*
X0052234Y0047398D01*
X0052244Y0047240D01*
X0052250Y0047082D01*
X0052252Y0046924D01*
X0052250Y0046766D01*
X0052244Y0046608D01*
X0052234Y0046450D01*
X0052220Y0046292D01*
X0052202Y0046135D01*
X0052181Y0045978D01*
X0052155Y0045822D01*
X0052125Y0045666D01*
X0052092Y0045511D01*
X0052054Y0045358D01*
X0052013Y0045205D01*
X0051968Y0045053D01*
X0051919Y0044902D01*
X0051866Y0044753D01*
X0051810Y0044605D01*
X0051750Y0044459D01*
X0051686Y0044314D01*
X0051618Y0044171D01*
X0051547Y0044029D01*
X0051473Y0043889D01*
X0051395Y0043752D01*
X0051313Y0043616D01*
X0051229Y0043482D01*
X0051140Y0043351D01*
X0051049Y0043222D01*
X0050954Y0043095D01*
X0050857Y0042970D01*
X0050756Y0042848D01*
X0050652Y0042729D01*
X0050545Y0042612D01*
X0050435Y0042498D01*
X0050322Y0042387D01*
X0050207Y0042278D01*
X0050089Y0042173D01*
X0049968Y0042071D01*
X0049845Y0041971D01*
X0049719Y0041875D01*
X0049591Y0041782D01*
X0049461Y0041692D01*
X0049328Y0041606D01*
X0049193Y0041522D01*
X0049057Y0041443D01*
X0048918Y0041366D01*
X0048777Y0041294D01*
X0048635Y0041224D01*
X0048491Y0041159D01*
X0048345Y0041097D01*
X0048198Y0041039D01*
X0048049Y0040984D01*
X0047899Y0040933D01*
X0047748Y0040886D01*
X0047596Y0040843D01*
X0047443Y0040804D01*
X0047288Y0040768D01*
X0047133Y0040737D01*
X0046977Y0040709D01*
X0046821Y0040685D01*
X0046664Y0040665D01*
X0046506Y0040649D01*
X0046349Y0040637D01*
X0046190Y0040629D01*
X0046032Y0040625D01*
X0045874Y0040625D01*
X0045716Y0040629D01*
X0045557Y0040637D01*
X0045400Y0040649D01*
X0045242Y0040665D01*
X0045085Y0040685D01*
X0044929Y0040709D01*
X0044773Y0040737D01*
X0044618Y0040768D01*
X0044463Y0040804D01*
X0044310Y0040843D01*
X0044158Y0040886D01*
X0044007Y0040933D01*
X0043857Y0040984D01*
X0043708Y0041039D01*
X0043561Y0041097D01*
X0043415Y0041159D01*
X0043271Y0041224D01*
X0043129Y0041294D01*
X0042988Y0041366D01*
X0042849Y0041443D01*
X0042713Y0041522D01*
X0042578Y0041606D01*
X0042445Y0041692D01*
X0042315Y0041782D01*
X0042187Y0041875D01*
X0042061Y0041971D01*
X0041938Y0042071D01*
X0041817Y0042173D01*
X0041699Y0042278D01*
X0041584Y0042387D01*
X0041471Y0042498D01*
X0041361Y0042612D01*
X0041254Y0042729D01*
X0041150Y0042848D01*
X0041049Y0042970D01*
X0040952Y0043095D01*
X0040857Y0043222D01*
X0040766Y0043351D01*
X0040677Y0043482D01*
X0040593Y0043616D01*
X0040511Y0043752D01*
X0040433Y0043889D01*
X0040359Y0044029D01*
X0040288Y0044171D01*
X0040220Y0044314D01*
X0040156Y0044459D01*
X0040096Y0044605D01*
X0040040Y0044753D01*
X0039987Y0044902D01*
X0039938Y0045053D01*
X0039893Y0045205D01*
X0039852Y0045358D01*
X0039814Y0045511D01*
X0039781Y0045666D01*
X0039751Y0045822D01*
X0039725Y0045978D01*
X0039704Y0046135D01*
X0039686Y0046292D01*
X0039672Y0046450D01*
X0039662Y0046608D01*
X0039656Y0046766D01*
X0039654Y0046924D01*
X0039654Y0302829D02*
X0039656Y0302987D01*
X0039662Y0303145D01*
X0039672Y0303303D01*
X0039686Y0303461D01*
X0039704Y0303618D01*
X0039725Y0303775D01*
X0039751Y0303931D01*
X0039781Y0304087D01*
X0039814Y0304242D01*
X0039852Y0304395D01*
X0039893Y0304548D01*
X0039938Y0304700D01*
X0039987Y0304851D01*
X0040040Y0305000D01*
X0040096Y0305148D01*
X0040156Y0305294D01*
X0040220Y0305439D01*
X0040288Y0305582D01*
X0040359Y0305724D01*
X0040433Y0305864D01*
X0040511Y0306001D01*
X0040593Y0306137D01*
X0040677Y0306271D01*
X0040766Y0306402D01*
X0040857Y0306531D01*
X0040952Y0306658D01*
X0041049Y0306783D01*
X0041150Y0306905D01*
X0041254Y0307024D01*
X0041361Y0307141D01*
X0041471Y0307255D01*
X0041584Y0307366D01*
X0041699Y0307475D01*
X0041817Y0307580D01*
X0041938Y0307682D01*
X0042061Y0307782D01*
X0042187Y0307878D01*
X0042315Y0307971D01*
X0042445Y0308061D01*
X0042578Y0308147D01*
X0042713Y0308231D01*
X0042849Y0308310D01*
X0042988Y0308387D01*
X0043129Y0308459D01*
X0043271Y0308529D01*
X0043415Y0308594D01*
X0043561Y0308656D01*
X0043708Y0308714D01*
X0043857Y0308769D01*
X0044007Y0308820D01*
X0044158Y0308867D01*
X0044310Y0308910D01*
X0044463Y0308949D01*
X0044618Y0308985D01*
X0044773Y0309016D01*
X0044929Y0309044D01*
X0045085Y0309068D01*
X0045242Y0309088D01*
X0045400Y0309104D01*
X0045557Y0309116D01*
X0045716Y0309124D01*
X0045874Y0309128D01*
X0046032Y0309128D01*
X0046190Y0309124D01*
X0046349Y0309116D01*
X0046506Y0309104D01*
X0046664Y0309088D01*
X0046821Y0309068D01*
X0046977Y0309044D01*
X0047133Y0309016D01*
X0047288Y0308985D01*
X0047443Y0308949D01*
X0047596Y0308910D01*
X0047748Y0308867D01*
X0047899Y0308820D01*
X0048049Y0308769D01*
X0048198Y0308714D01*
X0048345Y0308656D01*
X0048491Y0308594D01*
X0048635Y0308529D01*
X0048777Y0308459D01*
X0048918Y0308387D01*
X0049057Y0308310D01*
X0049193Y0308231D01*
X0049328Y0308147D01*
X0049461Y0308061D01*
X0049591Y0307971D01*
X0049719Y0307878D01*
X0049845Y0307782D01*
X0049968Y0307682D01*
X0050089Y0307580D01*
X0050207Y0307475D01*
X0050322Y0307366D01*
X0050435Y0307255D01*
X0050545Y0307141D01*
X0050652Y0307024D01*
X0050756Y0306905D01*
X0050857Y0306783D01*
X0050954Y0306658D01*
X0051049Y0306531D01*
X0051140Y0306402D01*
X0051229Y0306271D01*
X0051313Y0306137D01*
X0051395Y0306001D01*
X0051473Y0305864D01*
X0051547Y0305724D01*
X0051618Y0305582D01*
X0051686Y0305439D01*
X0051750Y0305294D01*
X0051810Y0305148D01*
X0051866Y0305000D01*
X0051919Y0304851D01*
X0051968Y0304700D01*
X0052013Y0304548D01*
X0052054Y0304395D01*
X0052092Y0304242D01*
X0052125Y0304087D01*
X0052155Y0303931D01*
X0052181Y0303775D01*
X0052202Y0303618D01*
X0052220Y0303461D01*
X0052234Y0303303D01*
X0052244Y0303145D01*
X0052250Y0302987D01*
X0052252Y0302829D01*
X0052250Y0302671D01*
X0052244Y0302513D01*
X0052234Y0302355D01*
X0052220Y0302197D01*
X0052202Y0302040D01*
X0052181Y0301883D01*
X0052155Y0301727D01*
X0052125Y0301571D01*
X0052092Y0301416D01*
X0052054Y0301263D01*
X0052013Y0301110D01*
X0051968Y0300958D01*
X0051919Y0300807D01*
X0051866Y0300658D01*
X0051810Y0300510D01*
X0051750Y0300364D01*
X0051686Y0300219D01*
X0051618Y0300076D01*
X0051547Y0299934D01*
X0051473Y0299794D01*
X0051395Y0299657D01*
X0051313Y0299521D01*
X0051229Y0299387D01*
X0051140Y0299256D01*
X0051049Y0299127D01*
X0050954Y0299000D01*
X0050857Y0298875D01*
X0050756Y0298753D01*
X0050652Y0298634D01*
X0050545Y0298517D01*
X0050435Y0298403D01*
X0050322Y0298292D01*
X0050207Y0298183D01*
X0050089Y0298078D01*
X0049968Y0297976D01*
X0049845Y0297876D01*
X0049719Y0297780D01*
X0049591Y0297687D01*
X0049461Y0297597D01*
X0049328Y0297511D01*
X0049193Y0297427D01*
X0049057Y0297348D01*
X0048918Y0297271D01*
X0048777Y0297199D01*
X0048635Y0297129D01*
X0048491Y0297064D01*
X0048345Y0297002D01*
X0048198Y0296944D01*
X0048049Y0296889D01*
X0047899Y0296838D01*
X0047748Y0296791D01*
X0047596Y0296748D01*
X0047443Y0296709D01*
X0047288Y0296673D01*
X0047133Y0296642D01*
X0046977Y0296614D01*
X0046821Y0296590D01*
X0046664Y0296570D01*
X0046506Y0296554D01*
X0046349Y0296542D01*
X0046190Y0296534D01*
X0046032Y0296530D01*
X0045874Y0296530D01*
X0045716Y0296534D01*
X0045557Y0296542D01*
X0045400Y0296554D01*
X0045242Y0296570D01*
X0045085Y0296590D01*
X0044929Y0296614D01*
X0044773Y0296642D01*
X0044618Y0296673D01*
X0044463Y0296709D01*
X0044310Y0296748D01*
X0044158Y0296791D01*
X0044007Y0296838D01*
X0043857Y0296889D01*
X0043708Y0296944D01*
X0043561Y0297002D01*
X0043415Y0297064D01*
X0043271Y0297129D01*
X0043129Y0297199D01*
X0042988Y0297271D01*
X0042849Y0297348D01*
X0042713Y0297427D01*
X0042578Y0297511D01*
X0042445Y0297597D01*
X0042315Y0297687D01*
X0042187Y0297780D01*
X0042061Y0297876D01*
X0041938Y0297976D01*
X0041817Y0298078D01*
X0041699Y0298183D01*
X0041584Y0298292D01*
X0041471Y0298403D01*
X0041361Y0298517D01*
X0041254Y0298634D01*
X0041150Y0298753D01*
X0041049Y0298875D01*
X0040952Y0299000D01*
X0040857Y0299127D01*
X0040766Y0299256D01*
X0040677Y0299387D01*
X0040593Y0299521D01*
X0040511Y0299657D01*
X0040433Y0299794D01*
X0040359Y0299934D01*
X0040288Y0300076D01*
X0040220Y0300219D01*
X0040156Y0300364D01*
X0040096Y0300510D01*
X0040040Y0300658D01*
X0039987Y0300807D01*
X0039938Y0300958D01*
X0039893Y0301110D01*
X0039852Y0301263D01*
X0039814Y0301416D01*
X0039781Y0301571D01*
X0039751Y0301727D01*
X0039725Y0301883D01*
X0039704Y0302040D01*
X0039686Y0302197D01*
X0039672Y0302355D01*
X0039662Y0302513D01*
X0039656Y0302671D01*
X0039654Y0302829D01*
D17*
X0063591Y0110575D03*
X0083591Y0110575D03*
X0103394Y0110379D03*
X0123394Y0110477D03*
X0143492Y0110379D03*
X0163984Y0110182D03*
X0183886Y0110379D03*
X0203984Y0110526D03*
X0224083Y0110379D03*
X0243886Y0110379D03*
X0263886Y0110379D03*
X0284378Y0110182D03*
X0301819Y0110182D03*
X0319654Y0110182D03*
X0335717Y0110182D03*
D18*
X0304828Y0132718D03*
X0304513Y0162324D03*
X0304828Y0192757D03*
D19*
X0322528Y0205857D03*
X0322213Y0175424D03*
X0322528Y0145818D03*
D20*
X0339778Y0143318D03*
X0305278Y0143318D03*
X0304963Y0172924D03*
X0339463Y0172924D03*
X0339778Y0203357D03*
X0305278Y0203357D03*
D21*
X0317528Y0203357D03*
X0327528Y0203357D03*
X0327213Y0172924D03*
X0317213Y0172924D03*
X0317528Y0143318D03*
X0327528Y0143318D03*
D22*
X0365835Y0164920D02*
X0365911Y0164922D01*
X0365987Y0164928D01*
X0366062Y0164937D01*
X0366137Y0164951D01*
X0366211Y0164968D01*
X0366284Y0164989D01*
X0366356Y0165013D01*
X0366427Y0165042D01*
X0366496Y0165073D01*
X0366563Y0165108D01*
X0366628Y0165147D01*
X0366692Y0165189D01*
X0366753Y0165234D01*
X0366812Y0165282D01*
X0366868Y0165333D01*
X0366922Y0165387D01*
X0366973Y0165443D01*
X0367021Y0165502D01*
X0367066Y0165563D01*
X0367108Y0165627D01*
X0367147Y0165692D01*
X0367182Y0165759D01*
X0367213Y0165828D01*
X0367242Y0165899D01*
X0367266Y0165971D01*
X0367287Y0166044D01*
X0367304Y0166118D01*
X0367318Y0166193D01*
X0367327Y0166268D01*
X0367333Y0166344D01*
X0367335Y0166420D01*
X0367333Y0166496D01*
X0367327Y0166572D01*
X0367318Y0166647D01*
X0367304Y0166722D01*
X0367287Y0166796D01*
X0367266Y0166869D01*
X0367242Y0166941D01*
X0367213Y0167012D01*
X0367182Y0167081D01*
X0367147Y0167148D01*
X0367108Y0167213D01*
X0367066Y0167277D01*
X0367021Y0167338D01*
X0366973Y0167397D01*
X0366922Y0167453D01*
X0366868Y0167507D01*
X0366812Y0167558D01*
X0366753Y0167606D01*
X0366692Y0167651D01*
X0366628Y0167693D01*
X0366563Y0167732D01*
X0366496Y0167767D01*
X0366427Y0167798D01*
X0366356Y0167827D01*
X0366284Y0167851D01*
X0366211Y0167872D01*
X0366137Y0167889D01*
X0366062Y0167903D01*
X0365987Y0167912D01*
X0365911Y0167918D01*
X0365835Y0167920D01*
X0365759Y0167918D01*
X0365683Y0167912D01*
X0365608Y0167903D01*
X0365533Y0167889D01*
X0365459Y0167872D01*
X0365386Y0167851D01*
X0365314Y0167827D01*
X0365243Y0167798D01*
X0365174Y0167767D01*
X0365107Y0167732D01*
X0365042Y0167693D01*
X0364978Y0167651D01*
X0364917Y0167606D01*
X0364858Y0167558D01*
X0364802Y0167507D01*
X0364748Y0167453D01*
X0364697Y0167397D01*
X0364649Y0167338D01*
X0364604Y0167277D01*
X0364562Y0167213D01*
X0364523Y0167148D01*
X0364488Y0167081D01*
X0364457Y0167012D01*
X0364428Y0166941D01*
X0364404Y0166869D01*
X0364383Y0166796D01*
X0364366Y0166722D01*
X0364352Y0166647D01*
X0364343Y0166572D01*
X0364337Y0166496D01*
X0364335Y0166420D01*
X0364337Y0166344D01*
X0364343Y0166268D01*
X0364352Y0166193D01*
X0364366Y0166118D01*
X0364383Y0166044D01*
X0364404Y0165971D01*
X0364428Y0165899D01*
X0364457Y0165828D01*
X0364488Y0165759D01*
X0364523Y0165692D01*
X0364562Y0165627D01*
X0364604Y0165563D01*
X0364649Y0165502D01*
X0364697Y0165443D01*
X0364748Y0165387D01*
X0364802Y0165333D01*
X0364858Y0165282D01*
X0364917Y0165234D01*
X0364978Y0165189D01*
X0365042Y0165147D01*
X0365107Y0165108D01*
X0365174Y0165073D01*
X0365243Y0165042D01*
X0365314Y0165013D01*
X0365386Y0164989D01*
X0365459Y0164968D01*
X0365533Y0164951D01*
X0365608Y0164937D01*
X0365683Y0164928D01*
X0365759Y0164922D01*
X0365835Y0164920D01*
X0365835Y0226337D02*
X0365911Y0226339D01*
X0365987Y0226345D01*
X0366062Y0226354D01*
X0366137Y0226368D01*
X0366211Y0226385D01*
X0366284Y0226406D01*
X0366356Y0226430D01*
X0366427Y0226459D01*
X0366496Y0226490D01*
X0366563Y0226525D01*
X0366628Y0226564D01*
X0366692Y0226606D01*
X0366753Y0226651D01*
X0366812Y0226699D01*
X0366868Y0226750D01*
X0366922Y0226804D01*
X0366973Y0226860D01*
X0367021Y0226919D01*
X0367066Y0226980D01*
X0367108Y0227044D01*
X0367147Y0227109D01*
X0367182Y0227176D01*
X0367213Y0227245D01*
X0367242Y0227316D01*
X0367266Y0227388D01*
X0367287Y0227461D01*
X0367304Y0227535D01*
X0367318Y0227610D01*
X0367327Y0227685D01*
X0367333Y0227761D01*
X0367335Y0227837D01*
X0367333Y0227913D01*
X0367327Y0227989D01*
X0367318Y0228064D01*
X0367304Y0228139D01*
X0367287Y0228213D01*
X0367266Y0228286D01*
X0367242Y0228358D01*
X0367213Y0228429D01*
X0367182Y0228498D01*
X0367147Y0228565D01*
X0367108Y0228630D01*
X0367066Y0228694D01*
X0367021Y0228755D01*
X0366973Y0228814D01*
X0366922Y0228870D01*
X0366868Y0228924D01*
X0366812Y0228975D01*
X0366753Y0229023D01*
X0366692Y0229068D01*
X0366628Y0229110D01*
X0366563Y0229149D01*
X0366496Y0229184D01*
X0366427Y0229215D01*
X0366356Y0229244D01*
X0366284Y0229268D01*
X0366211Y0229289D01*
X0366137Y0229306D01*
X0366062Y0229320D01*
X0365987Y0229329D01*
X0365911Y0229335D01*
X0365835Y0229337D01*
X0365759Y0229335D01*
X0365683Y0229329D01*
X0365608Y0229320D01*
X0365533Y0229306D01*
X0365459Y0229289D01*
X0365386Y0229268D01*
X0365314Y0229244D01*
X0365243Y0229215D01*
X0365174Y0229184D01*
X0365107Y0229149D01*
X0365042Y0229110D01*
X0364978Y0229068D01*
X0364917Y0229023D01*
X0364858Y0228975D01*
X0364802Y0228924D01*
X0364748Y0228870D01*
X0364697Y0228814D01*
X0364649Y0228755D01*
X0364604Y0228694D01*
X0364562Y0228630D01*
X0364523Y0228565D01*
X0364488Y0228498D01*
X0364457Y0228429D01*
X0364428Y0228358D01*
X0364404Y0228286D01*
X0364383Y0228213D01*
X0364366Y0228139D01*
X0364352Y0228064D01*
X0364343Y0227989D01*
X0364337Y0227913D01*
X0364335Y0227837D01*
X0364337Y0227761D01*
X0364343Y0227685D01*
X0364352Y0227610D01*
X0364366Y0227535D01*
X0364383Y0227461D01*
X0364404Y0227388D01*
X0364428Y0227316D01*
X0364457Y0227245D01*
X0364488Y0227176D01*
X0364523Y0227109D01*
X0364562Y0227044D01*
X0364604Y0226980D01*
X0364649Y0226919D01*
X0364697Y0226860D01*
X0364748Y0226804D01*
X0364802Y0226750D01*
X0364858Y0226699D01*
X0364917Y0226651D01*
X0364978Y0226606D01*
X0365042Y0226564D01*
X0365107Y0226525D01*
X0365174Y0226490D01*
X0365243Y0226459D01*
X0365314Y0226430D01*
X0365386Y0226406D01*
X0365459Y0226385D01*
X0365533Y0226368D01*
X0365608Y0226354D01*
X0365683Y0226345D01*
X0365759Y0226339D01*
X0365835Y0226337D01*
M02*
