%
M48
M72
T01C0.02362
T02C0.02400
T03C0.03200
T04C0.03600
T05C0.03937
T06C0.04000
T07C0.05000
T08C0.11811
%
T01
X69378Y295940
X141819Y193971
X138472Y189148
X139260Y184522
X143886Y174877
X145362Y167003
X155205Y173302
X168000Y175369
X173906Y173892
X173906Y167987
X172921Y163066
X168000Y151255
X165047Y144857
X156189Y152239
X146346Y154207
X181780Y179798
X200480Y173892
X159142Y189148
X159142Y193577
X153236Y194562
X147724Y194562
X72528Y165034
X211799Y124680
X254614Y127633
X357961Y54207
X357567Y44955
X273807Y257062
T02
X18551Y73656
X18551Y83656
X18551Y93656
X387685Y273656
X387685Y263656
X387685Y253656
T03
X60008Y59483
X70008Y59483
X80008Y59483
X90008Y59483
X100008Y59483
X110008Y59483
X120008Y59483
X130008Y59483
X140008Y59483
X150008Y59483
X160402Y59483
X170402Y59483
X180402Y59483
X190402Y59483
X200402Y59483
X210402Y59483
X220402Y59483
X230402Y59483
X240402Y59483
X250402Y59483
X260795Y59483
X270795Y59483
X280795Y59483
X290795Y59483
X300795Y59483
X310795Y59483
X320795Y59483
X330795Y59483
X340795Y59483
X350795Y59483
X347646Y44955
X337646Y44955
X327646Y44955
X317646Y44955
X307646Y44955
X297646Y44955
X287646Y44955
X277646Y44955
X267646Y44955
X257646Y44955
X247646Y44955
X237646Y44955
X227646Y44955
X217646Y44955
X207646Y44955
X197646Y44955
X187646Y44955
X177646Y44955
X167646Y44955
X157646Y44955
X160402Y89483
X170402Y89483
X180402Y89483
X190402Y89483
X200402Y89483
X210402Y89483
X220402Y89483
X230402Y89483
X240402Y89483
X250402Y89483
X260795Y89483
X270795Y89483
X280795Y89483
X290795Y89483
X300795Y89483
X310795Y89483
X320795Y89483
X330795Y89483
X340795Y89483
X350795Y89483
X183965Y127062
X183965Y137062
X150008Y89483
X140008Y89483
X130008Y89483
X120008Y89483
X110008Y89483
X100008Y89483
X90008Y89483
X80008Y89483
X70008Y89483
X60008Y89483
X58551Y187199
X48551Y187199
X38551Y187199
X28551Y187199
X28551Y217199
X38551Y217199
X48551Y217199
X58551Y217199
X73551Y247554
X83551Y247554
X93551Y247554
X103551Y247554
X113551Y247554
X123551Y247554
X133551Y247554
X143551Y247554
X153551Y247554
X163551Y247554
X173551Y247554
X183551Y247554
X193551Y247554
X203551Y247554
X213551Y247554
X223551Y247554
X233551Y247554
X243551Y247554
X253551Y247554
X263551Y247554
X273551Y247554
X283551Y247554
X293551Y247554
X303551Y247554
X313551Y247554
X323551Y247554
X333551Y247554
X343551Y247554
X353551Y247554
X363551Y247554
X363551Y277554
X353551Y277554
X343551Y277554
X333551Y277554
X323551Y277554
X313551Y277554
X303551Y277554
X293551Y277554
X283551Y277554
X273551Y277554
X263551Y277554
X253551Y277554
X243551Y277554
X233551Y277554
X223551Y277554
X213551Y277554
X203551Y277554
X193551Y277554
X183551Y277554
X173551Y277554
X163551Y277554
X153551Y277554
X143551Y277554
X133551Y277554
X123551Y277554
X113551Y277554
X103551Y277554
X93551Y277554
X83551Y277554
X73551Y277554
T04
X54181Y159759
X64181Y159759
T05
X21740Y317318
X21740Y307318
X21740Y297318
X21740Y287318
X21740Y277318
X21740Y267318
X21740Y257318
X21740Y247318
X21740Y237318
X21740Y227318
X132921Y308735
X142921Y308735
X152921Y308735
X162921Y308735
X174181Y308735
X184181Y308735
X194181Y308735
X204181Y308735
X214181Y308735
X224181Y308735
X234181Y308735
X244181Y308735
X254181Y308735
X264181Y308735
X274575Y308735
X284575Y308735
X294575Y308735
X304575Y308735
X314575Y308735
X324575Y308735
X334575Y308735
X344575Y308735
X354575Y308735
X364575Y308735
X381858Y21333
X391858Y21333
X371858Y21333
X361858Y21333
X350795Y21333
X340795Y21333
X330795Y21333
X320795Y21333
X310795Y21333
X300795Y21333
X290795Y21333
X280795Y21333
X270795Y21333
X260795Y21333
X250402Y21333
X240402Y21333
X230402Y21333
X220402Y21333
X210402Y21333
X200402Y21333
X190402Y21333
X180402Y21333
X170402Y21333
X160402Y21333
X150008Y21333
X140008Y21333
X130008Y21333
X120008Y21333
X110008Y21333
X100008Y21333
X90008Y21333
X80008Y21333
X70008Y21333
X60008Y21333
T06
X19781Y112554
X19781Y122554
X19781Y132554
X19781Y142554
X19781Y152554
X19781Y162554
X312528Y197357
X322528Y197357
X332528Y197357
X332213Y166924
X322213Y166924
X312213Y166924
X312528Y137318
X322528Y137318
X332528Y137318
T07
X365835Y113420
X365835Y133420
X365835Y153420
X365835Y174837
X365835Y194837
X365835Y214837
T08
X45953Y46924
X45953Y302829
X392409Y302829
X392409Y46924
M30
