%
M48
M72
T01C0.01969
T02C0.02362
T03C0.03150
T04C0.03200
T05C0.03937
T06C0.04000
T07C0.04331
T08C0.04400
T09C0.05500
T10C0.06299
T11C0.12992
T12C0.17717
%
T01
X288548Y65655
X277298Y76905
X253548Y65655
X26048Y185655
X34798Y225655
X34798Y238155
X171048Y226905
X282298Y263155
T02
X174798Y65655
X113548Y173155
X132298Y176905
X148548Y178155
X169798Y200655
X188548Y211905
X181048Y224405
X193548Y241905
X208548Y235655
X198548Y255655
X148548Y243155
X141048Y228155
X126048Y224405
X141048Y208155
X188548Y179405
X193548Y173155
X228548Y173155
X238548Y170655
X284798Y131905
X297899Y130950
X298548Y136905
X293174Y163155
X336048Y173155
X343352Y151983
X336048Y242525
X303548Y266905
X303548Y273155
X282298Y248155
X271048Y263155
X349798Y275655
X356048Y286905
X363548Y274405
X377298Y270655
X393548Y275655
X92298Y224405
X92298Y204405
X21048Y230655
T03
X21048Y255655
X58548Y223155
X86048Y245655
X158548Y268155
X184798Y244405
X96048Y178155
X86048Y130655
X158548Y130655
X196048Y153155
X308548Y143155
X346048Y238155
X342298Y273155
T04
X281048Y55655
X291048Y55655
X301048Y55655
X311048Y55655
X321048Y55655
X331048Y55655
X341048Y55655
X351048Y55655
T05
X72298Y315655
X82298Y315655
X92298Y315655
X102298Y315655
X282702Y216442
X292702Y216442
X341757Y216442
X351757Y216442
T06
X70867Y20564
X70867Y38364
X96467Y38364
X96467Y20564
X168352Y35261
X178352Y35261
X188352Y35261
X198352Y35261
X208352Y35261
X218352Y35261
X296998Y20505
X296998Y38305
X322598Y38305
X331998Y38305
X331998Y20505
X322598Y20505
X357598Y20505
X357598Y38305
X53848Y86755
X53848Y104555
X28248Y104555
X28248Y86755
T07
X158076Y142604
X158076Y90635
X85241Y90635
X85241Y142604
T08
X51481Y151481
X194406Y120263
X222691Y148547
X301481Y151481
X328548Y133155
X328548Y93155
T09
X366048Y255655
X346048Y255655
X326048Y255655
X306048Y255655
X116048Y255655
X96048Y255655
X76048Y255655
X56048Y255655
T10
X124237Y293844
X144237Y293844
X164237Y293844
X184237Y293844
X204237Y293844
X224237Y293844
X244237Y293844
X264237Y293844
X284237Y293844
X304237Y293844
T11
X132584Y28450
X278450Y28450
T12
X28450Y28450
X382584Y28450
X382584Y310930
X28450Y310930
M30
