G04 (created by PCBNEW (2013-07-07 BZR 4022)-stable) date 03/03/2017 9:59:17 AM*
%MOIN*%
G04 Gerber Fmt 3.4, Leading zero omitted, Abs format*
%FSLAX34Y34*%
G01*
G70*
G90*
G04 APERTURE LIST*
%ADD10C,0.00590551*%
%ADD11C,0.011811*%
%ADD12C,0.0031*%
%ADD13C,0.005*%
%ADD14C,0.012*%
%ADD15C,0.0125*%
%ADD16C,0.0047*%
%ADD17C,0.0039*%
%ADD18C,0.0107*%
%ADD19C,0.01*%
%ADD20C,0.000393701*%
G04 APERTURE END LIST*
G54D10*
G54D11*
X65601Y-42030D02*
X65404Y-41749D01*
X65264Y-42030D02*
X65264Y-41439D01*
X65489Y-41439D01*
X65545Y-41467D01*
X65573Y-41496D01*
X65601Y-41552D01*
X65601Y-41636D01*
X65573Y-41692D01*
X65545Y-41721D01*
X65489Y-41749D01*
X65264Y-41749D01*
X66164Y-42030D02*
X65826Y-42030D01*
X65995Y-42030D02*
X65995Y-41439D01*
X65939Y-41524D01*
X65883Y-41580D01*
X65826Y-41608D01*
X66417Y-41974D02*
X66445Y-42002D01*
X66417Y-42030D01*
X66389Y-42002D01*
X66417Y-41974D01*
X66417Y-42030D01*
X66811Y-41439D02*
X66867Y-41439D01*
X66923Y-41467D01*
X66951Y-41496D01*
X66979Y-41552D01*
X67007Y-41664D01*
X67007Y-41805D01*
X66979Y-41917D01*
X66951Y-41974D01*
X66923Y-42002D01*
X66867Y-42030D01*
X66811Y-42030D01*
X66754Y-42002D01*
X66726Y-41974D01*
X66698Y-41917D01*
X66670Y-41805D01*
X66670Y-41664D01*
X66698Y-41552D01*
X66726Y-41496D01*
X66754Y-41467D01*
X66811Y-41439D01*
X71268Y-41026D02*
X71605Y-41026D01*
X71437Y-41616D02*
X71437Y-41026D01*
X71802Y-41616D02*
X71802Y-41026D01*
X72055Y-41616D02*
X72055Y-41307D01*
X72027Y-41251D01*
X71971Y-41223D01*
X71886Y-41223D01*
X71830Y-41251D01*
X71802Y-41279D01*
X72561Y-41588D02*
X72505Y-41616D01*
X72393Y-41616D01*
X72336Y-41588D01*
X72308Y-41532D01*
X72308Y-41307D01*
X72336Y-41251D01*
X72393Y-41223D01*
X72505Y-41223D01*
X72561Y-41251D01*
X72589Y-41307D01*
X72589Y-41363D01*
X72308Y-41420D01*
X72843Y-41616D02*
X72843Y-41223D01*
X72843Y-41335D02*
X72871Y-41279D01*
X72899Y-41251D01*
X72955Y-41223D01*
X73011Y-41223D01*
X73208Y-41616D02*
X73208Y-41223D01*
X73208Y-41279D02*
X73236Y-41251D01*
X73293Y-41223D01*
X73377Y-41223D01*
X73433Y-41251D01*
X73461Y-41307D01*
X73461Y-41616D01*
X73461Y-41307D02*
X73489Y-41251D01*
X73546Y-41223D01*
X73630Y-41223D01*
X73686Y-41251D01*
X73714Y-41307D01*
X73714Y-41616D01*
X74080Y-41616D02*
X74024Y-41588D01*
X73996Y-41560D01*
X73967Y-41504D01*
X73967Y-41335D01*
X73996Y-41279D01*
X74024Y-41251D01*
X74080Y-41223D01*
X74164Y-41223D01*
X74221Y-41251D01*
X74249Y-41279D01*
X74277Y-41335D01*
X74277Y-41504D01*
X74249Y-41560D01*
X74221Y-41588D01*
X74164Y-41616D01*
X74080Y-41616D01*
X74783Y-41588D02*
X74727Y-41616D01*
X74614Y-41616D01*
X74558Y-41588D01*
X74530Y-41560D01*
X74502Y-41504D01*
X74502Y-41335D01*
X74530Y-41279D01*
X74558Y-41251D01*
X74614Y-41223D01*
X74727Y-41223D01*
X74783Y-41251D01*
X75120Y-41616D02*
X75064Y-41588D01*
X75036Y-41560D01*
X75008Y-41504D01*
X75008Y-41335D01*
X75036Y-41279D01*
X75064Y-41251D01*
X75120Y-41223D01*
X75205Y-41223D01*
X75261Y-41251D01*
X75289Y-41279D01*
X75317Y-41335D01*
X75317Y-41504D01*
X75289Y-41560D01*
X75261Y-41588D01*
X75205Y-41616D01*
X75120Y-41616D01*
X75823Y-41223D02*
X75823Y-41616D01*
X75570Y-41223D02*
X75570Y-41532D01*
X75598Y-41588D01*
X75655Y-41616D01*
X75739Y-41616D01*
X75795Y-41588D01*
X75823Y-41560D01*
X76105Y-41223D02*
X76105Y-41813D01*
X76105Y-41251D02*
X76161Y-41223D01*
X76273Y-41223D01*
X76330Y-41251D01*
X76358Y-41279D01*
X76386Y-41335D01*
X76386Y-41504D01*
X76358Y-41560D01*
X76330Y-41588D01*
X76273Y-41616D01*
X76161Y-41616D01*
X76105Y-41588D01*
X76723Y-41616D02*
X76667Y-41588D01*
X76639Y-41532D01*
X76639Y-41026D01*
X77173Y-41588D02*
X77117Y-41616D01*
X77005Y-41616D01*
X76948Y-41588D01*
X76920Y-41532D01*
X76920Y-41307D01*
X76948Y-41251D01*
X77005Y-41223D01*
X77117Y-41223D01*
X77173Y-41251D01*
X77201Y-41307D01*
X77201Y-41363D01*
X76920Y-41420D01*
X77904Y-41616D02*
X77904Y-41026D01*
X78045Y-41026D01*
X78129Y-41054D01*
X78186Y-41110D01*
X78214Y-41167D01*
X78242Y-41279D01*
X78242Y-41363D01*
X78214Y-41476D01*
X78186Y-41532D01*
X78129Y-41588D01*
X78045Y-41616D01*
X77904Y-41616D01*
X78495Y-41616D02*
X78495Y-41223D01*
X78495Y-41026D02*
X78467Y-41054D01*
X78495Y-41082D01*
X78523Y-41054D01*
X78495Y-41026D01*
X78495Y-41082D01*
X78748Y-41588D02*
X78804Y-41616D01*
X78917Y-41616D01*
X78973Y-41588D01*
X79001Y-41532D01*
X79001Y-41504D01*
X78973Y-41448D01*
X78917Y-41420D01*
X78832Y-41420D01*
X78776Y-41392D01*
X78748Y-41335D01*
X78748Y-41307D01*
X78776Y-41251D01*
X78832Y-41223D01*
X78917Y-41223D01*
X78973Y-41251D01*
X79254Y-41223D02*
X79254Y-41813D01*
X79254Y-41251D02*
X79311Y-41223D01*
X79423Y-41223D01*
X79479Y-41251D01*
X79507Y-41279D01*
X79535Y-41335D01*
X79535Y-41504D01*
X79507Y-41560D01*
X79479Y-41588D01*
X79423Y-41616D01*
X79311Y-41616D01*
X79254Y-41588D01*
X79873Y-41616D02*
X79817Y-41588D01*
X79789Y-41532D01*
X79789Y-41026D01*
X80351Y-41616D02*
X80351Y-41307D01*
X80323Y-41251D01*
X80267Y-41223D01*
X80154Y-41223D01*
X80098Y-41251D01*
X80351Y-41588D02*
X80295Y-41616D01*
X80154Y-41616D01*
X80098Y-41588D01*
X80070Y-41532D01*
X80070Y-41476D01*
X80098Y-41420D01*
X80154Y-41392D01*
X80295Y-41392D01*
X80351Y-41363D01*
X80576Y-41223D02*
X80717Y-41616D01*
X80857Y-41223D02*
X80717Y-41616D01*
X80660Y-41757D01*
X80632Y-41785D01*
X80576Y-41813D01*
X81532Y-41616D02*
X81532Y-41026D01*
X81729Y-41448D01*
X81926Y-41026D01*
X81926Y-41616D01*
X82460Y-41616D02*
X82460Y-41307D01*
X82432Y-41251D01*
X82376Y-41223D01*
X82263Y-41223D01*
X82207Y-41251D01*
X82460Y-41588D02*
X82404Y-41616D01*
X82263Y-41616D01*
X82207Y-41588D01*
X82179Y-41532D01*
X82179Y-41476D01*
X82207Y-41420D01*
X82263Y-41392D01*
X82404Y-41392D01*
X82460Y-41363D01*
X82741Y-41616D02*
X82741Y-41223D01*
X82741Y-41026D02*
X82713Y-41054D01*
X82741Y-41082D01*
X82769Y-41054D01*
X82741Y-41026D01*
X82741Y-41082D01*
X83023Y-41223D02*
X83023Y-41616D01*
X83023Y-41279D02*
X83051Y-41251D01*
X83107Y-41223D01*
X83191Y-41223D01*
X83248Y-41251D01*
X83276Y-41307D01*
X83276Y-41616D01*
X84204Y-41307D02*
X84288Y-41335D01*
X84316Y-41363D01*
X84344Y-41420D01*
X84344Y-41504D01*
X84316Y-41560D01*
X84288Y-41588D01*
X84232Y-41616D01*
X84007Y-41616D01*
X84007Y-41026D01*
X84204Y-41026D01*
X84260Y-41054D01*
X84288Y-41082D01*
X84316Y-41138D01*
X84316Y-41195D01*
X84288Y-41251D01*
X84260Y-41279D01*
X84204Y-41307D01*
X84007Y-41307D01*
X84682Y-41616D02*
X84625Y-41588D01*
X84597Y-41560D01*
X84569Y-41504D01*
X84569Y-41335D01*
X84597Y-41279D01*
X84625Y-41251D01*
X84682Y-41223D01*
X84766Y-41223D01*
X84822Y-41251D01*
X84850Y-41279D01*
X84879Y-41335D01*
X84879Y-41504D01*
X84850Y-41560D01*
X84822Y-41588D01*
X84766Y-41616D01*
X84682Y-41616D01*
X85385Y-41616D02*
X85385Y-41307D01*
X85357Y-41251D01*
X85300Y-41223D01*
X85188Y-41223D01*
X85132Y-41251D01*
X85385Y-41588D02*
X85329Y-41616D01*
X85188Y-41616D01*
X85132Y-41588D01*
X85104Y-41532D01*
X85104Y-41476D01*
X85132Y-41420D01*
X85188Y-41392D01*
X85329Y-41392D01*
X85385Y-41363D01*
X85666Y-41616D02*
X85666Y-41223D01*
X85666Y-41335D02*
X85694Y-41279D01*
X85722Y-41251D01*
X85778Y-41223D01*
X85835Y-41223D01*
X86285Y-41616D02*
X86285Y-41026D01*
X86285Y-41588D02*
X86228Y-41616D01*
X86116Y-41616D01*
X86060Y-41588D01*
X86032Y-41560D01*
X86003Y-41504D01*
X86003Y-41335D01*
X86032Y-41279D01*
X86060Y-41251D01*
X86116Y-41223D01*
X86228Y-41223D01*
X86285Y-41251D01*
X75345Y-41971D02*
X75683Y-41971D01*
X75514Y-42561D02*
X75514Y-41971D01*
X75880Y-42561D02*
X75880Y-42168D01*
X75880Y-41971D02*
X75852Y-41999D01*
X75880Y-42027D01*
X75908Y-41999D01*
X75880Y-41971D01*
X75880Y-42027D01*
X76161Y-42561D02*
X76161Y-42168D01*
X76161Y-42224D02*
X76189Y-42196D01*
X76245Y-42168D01*
X76330Y-42168D01*
X76386Y-42196D01*
X76414Y-42252D01*
X76414Y-42561D01*
X76414Y-42252D02*
X76442Y-42196D01*
X76498Y-42168D01*
X76583Y-42168D01*
X76639Y-42196D01*
X76667Y-42252D01*
X76667Y-42561D01*
X77033Y-42561D02*
X76976Y-42533D01*
X76948Y-42505D01*
X76920Y-42449D01*
X76920Y-42280D01*
X76948Y-42224D01*
X76976Y-42196D01*
X77033Y-42168D01*
X77117Y-42168D01*
X77173Y-42196D01*
X77201Y-42224D01*
X77230Y-42280D01*
X77230Y-42449D01*
X77201Y-42505D01*
X77173Y-42533D01*
X77117Y-42561D01*
X77033Y-42561D01*
X77398Y-42168D02*
X77623Y-42168D01*
X77483Y-41971D02*
X77483Y-42477D01*
X77511Y-42533D01*
X77567Y-42561D01*
X77623Y-42561D01*
X77820Y-42561D02*
X77820Y-41971D01*
X78073Y-42561D02*
X78073Y-42252D01*
X78045Y-42196D01*
X77989Y-42168D01*
X77904Y-42168D01*
X77848Y-42196D01*
X77820Y-42224D01*
X78298Y-42168D02*
X78439Y-42561D01*
X78579Y-42168D02*
X78439Y-42561D01*
X78383Y-42702D01*
X78354Y-42730D01*
X78298Y-42758D01*
X79254Y-42561D02*
X79254Y-41971D01*
X79451Y-42393D01*
X79648Y-41971D01*
X79648Y-42561D01*
X80182Y-42533D02*
X80126Y-42561D01*
X80014Y-42561D01*
X79957Y-42533D01*
X79929Y-42505D01*
X79901Y-42449D01*
X79901Y-42280D01*
X79929Y-42224D01*
X79957Y-42196D01*
X80014Y-42168D01*
X80126Y-42168D01*
X80182Y-42196D01*
X80717Y-42561D02*
X80435Y-42561D01*
X80435Y-41971D01*
X81138Y-42533D02*
X81082Y-42561D01*
X80970Y-42561D01*
X80913Y-42533D01*
X80885Y-42477D01*
X80885Y-42252D01*
X80913Y-42196D01*
X80970Y-42168D01*
X81082Y-42168D01*
X81138Y-42196D01*
X81167Y-42252D01*
X81167Y-42308D01*
X80885Y-42365D01*
X81673Y-42561D02*
X81673Y-42252D01*
X81645Y-42196D01*
X81588Y-42168D01*
X81476Y-42168D01*
X81420Y-42196D01*
X81673Y-42533D02*
X81616Y-42561D01*
X81476Y-42561D01*
X81420Y-42533D01*
X81392Y-42477D01*
X81392Y-42421D01*
X81420Y-42365D01*
X81476Y-42336D01*
X81616Y-42336D01*
X81673Y-42308D01*
X81954Y-42168D02*
X81954Y-42561D01*
X81954Y-42224D02*
X81982Y-42196D01*
X82038Y-42168D01*
X82123Y-42168D01*
X82179Y-42196D01*
X82207Y-42252D01*
X82207Y-42561D01*
X75795Y-43506D02*
X75795Y-42916D01*
X75992Y-43338D01*
X76189Y-42916D01*
X76189Y-43506D01*
X76723Y-43506D02*
X76723Y-43197D01*
X76695Y-43141D01*
X76639Y-43113D01*
X76526Y-43113D01*
X76470Y-43141D01*
X76723Y-43478D02*
X76667Y-43506D01*
X76526Y-43506D01*
X76470Y-43478D01*
X76442Y-43422D01*
X76442Y-43366D01*
X76470Y-43309D01*
X76526Y-43281D01*
X76667Y-43281D01*
X76723Y-43253D01*
X77005Y-43506D02*
X77005Y-43113D01*
X77005Y-43225D02*
X77033Y-43169D01*
X77061Y-43141D01*
X77117Y-43113D01*
X77173Y-43113D01*
X77623Y-43478D02*
X77567Y-43506D01*
X77455Y-43506D01*
X77398Y-43478D01*
X77370Y-43450D01*
X77342Y-43394D01*
X77342Y-43225D01*
X77370Y-43169D01*
X77398Y-43141D01*
X77455Y-43113D01*
X77567Y-43113D01*
X77623Y-43141D01*
X77876Y-43506D02*
X77876Y-42916D01*
X78129Y-43506D02*
X78129Y-43197D01*
X78101Y-43141D01*
X78045Y-43113D01*
X77961Y-43113D01*
X77904Y-43141D01*
X77876Y-43169D01*
X78804Y-42916D02*
X79170Y-42916D01*
X78973Y-43141D01*
X79057Y-43141D01*
X79114Y-43169D01*
X79142Y-43197D01*
X79170Y-43253D01*
X79170Y-43394D01*
X79142Y-43450D01*
X79114Y-43478D01*
X79057Y-43506D01*
X78889Y-43506D01*
X78832Y-43478D01*
X78804Y-43450D01*
X79845Y-42972D02*
X79873Y-42944D01*
X79929Y-42916D01*
X80070Y-42916D01*
X80126Y-42944D01*
X80154Y-42972D01*
X80182Y-43028D01*
X80182Y-43084D01*
X80154Y-43169D01*
X79817Y-43506D01*
X80182Y-43506D01*
X80548Y-42916D02*
X80604Y-42916D01*
X80660Y-42944D01*
X80688Y-42972D01*
X80717Y-43028D01*
X80745Y-43141D01*
X80745Y-43281D01*
X80717Y-43394D01*
X80688Y-43450D01*
X80660Y-43478D01*
X80604Y-43506D01*
X80548Y-43506D01*
X80492Y-43478D01*
X80464Y-43450D01*
X80435Y-43394D01*
X80407Y-43281D01*
X80407Y-43141D01*
X80435Y-43028D01*
X80464Y-42972D01*
X80492Y-42944D01*
X80548Y-42916D01*
X81307Y-43506D02*
X80970Y-43506D01*
X81138Y-43506D02*
X81138Y-42916D01*
X81082Y-43000D01*
X81026Y-43056D01*
X80970Y-43084D01*
X81504Y-42916D02*
X81898Y-42916D01*
X81645Y-43506D01*
G54D10*
X90885Y-43681D02*
X90885Y-47854D01*
X90885Y-47854D02*
X88208Y-47854D01*
X88208Y-47854D02*
X88208Y-43681D01*
X88208Y-43681D02*
X90885Y-43681D01*
G54D12*
X73202Y-58011D02*
G75*
G03X73202Y-58011I-62J0D01*
G74*
G01*
X72177Y-58349D02*
X72177Y-57949D01*
X73202Y-58349D02*
X73202Y-57949D01*
X72177Y-57949D02*
X73202Y-57949D01*
X73202Y-58349D02*
X72177Y-58349D01*
X76194Y-58011D02*
G75*
G03X76194Y-58011I-62J0D01*
G74*
G01*
X75169Y-58349D02*
X75169Y-57949D01*
X76194Y-58349D02*
X76194Y-57949D01*
X75169Y-57949D02*
X76194Y-57949D01*
X76194Y-58349D02*
X75169Y-58349D01*
X78557Y-58011D02*
G75*
G03X78557Y-58011I-62J0D01*
G74*
G01*
X77531Y-58349D02*
X77531Y-57949D01*
X78556Y-58349D02*
X78556Y-57949D01*
X77531Y-57949D02*
X78556Y-57949D01*
X78556Y-58349D02*
X77531Y-58349D01*
X82572Y-58188D02*
G75*
G03X82572Y-58188I-62J0D01*
G74*
G01*
X81547Y-58526D02*
X81547Y-58126D01*
X82572Y-58526D02*
X82572Y-58126D01*
X81547Y-58126D02*
X82572Y-58126D01*
X82572Y-58526D02*
X81547Y-58526D01*
X84383Y-58228D02*
G75*
G03X84383Y-58228I-62J0D01*
G74*
G01*
X83358Y-58566D02*
X83358Y-58166D01*
X84383Y-58566D02*
X84383Y-58166D01*
X83358Y-58166D02*
X84383Y-58166D01*
X84383Y-58566D02*
X83358Y-58566D01*
X69541Y-49468D02*
G75*
G03X69541Y-49468I-62J0D01*
G74*
G01*
X68515Y-49806D02*
X68515Y-49406D01*
X69540Y-49806D02*
X69540Y-49406D01*
X68515Y-49406D02*
X69540Y-49406D01*
X69540Y-49806D02*
X68515Y-49806D01*
G54D13*
X68421Y-51650D02*
X68421Y-50750D01*
X68421Y-50750D02*
X67771Y-50750D01*
X67071Y-51650D02*
X66421Y-51650D01*
X66421Y-51650D02*
X66421Y-50750D01*
X66421Y-50750D02*
X67071Y-50750D01*
X67771Y-51650D02*
X68421Y-51650D01*
X92148Y-51019D02*
X93048Y-51019D01*
X93048Y-51019D02*
X93048Y-50369D01*
X92148Y-49669D02*
X92148Y-49019D01*
X92148Y-49019D02*
X93048Y-49019D01*
X93048Y-49019D02*
X93048Y-49669D01*
X92148Y-50369D02*
X92148Y-51019D01*
X68893Y-77969D02*
X68893Y-77069D01*
X68893Y-77069D02*
X68243Y-77069D01*
X67543Y-77969D02*
X66893Y-77969D01*
X66893Y-77969D02*
X66893Y-77069D01*
X66893Y-77069D02*
X67543Y-77069D01*
X68243Y-77969D02*
X68893Y-77969D01*
X68401Y-54190D02*
X68401Y-53290D01*
X68401Y-53290D02*
X67751Y-53290D01*
X67051Y-54190D02*
X66401Y-54190D01*
X66401Y-54190D02*
X66401Y-53290D01*
X66401Y-53290D02*
X67051Y-53290D01*
X67751Y-54190D02*
X68401Y-54190D01*
X87838Y-48762D02*
X87838Y-49662D01*
X87838Y-49662D02*
X88488Y-49662D01*
X89188Y-48762D02*
X89838Y-48762D01*
X89838Y-48762D02*
X89838Y-49662D01*
X89838Y-49662D02*
X89188Y-49662D01*
X88488Y-48762D02*
X87838Y-48762D01*
X76413Y-69347D02*
X76413Y-68447D01*
X76413Y-68447D02*
X75763Y-68447D01*
X75063Y-69347D02*
X74413Y-69347D01*
X74413Y-69347D02*
X74413Y-68447D01*
X74413Y-68447D02*
X75063Y-68447D01*
X75763Y-69347D02*
X76413Y-69347D01*
X76374Y-68068D02*
X76374Y-67168D01*
X76374Y-67168D02*
X75724Y-67168D01*
X75024Y-68068D02*
X74374Y-68068D01*
X74374Y-68068D02*
X74374Y-67168D01*
X74374Y-67168D02*
X75024Y-67168D01*
X75724Y-68068D02*
X76374Y-68068D01*
X88165Y-77871D02*
X88165Y-76971D01*
X88165Y-76971D02*
X87515Y-76971D01*
X86815Y-77871D02*
X86165Y-77871D01*
X86165Y-77871D02*
X86165Y-76971D01*
X86165Y-76971D02*
X86815Y-76971D01*
X87515Y-77871D02*
X88165Y-77871D01*
X68401Y-56650D02*
X68401Y-55750D01*
X68401Y-55750D02*
X67751Y-55750D01*
X67051Y-56650D02*
X66401Y-56650D01*
X66401Y-56650D02*
X66401Y-55750D01*
X66401Y-55750D02*
X67051Y-55750D01*
X67751Y-56650D02*
X68401Y-56650D01*
X68401Y-52950D02*
X68401Y-52050D01*
X68401Y-52050D02*
X67751Y-52050D01*
X67051Y-52950D02*
X66401Y-52950D01*
X66401Y-52950D02*
X66401Y-52050D01*
X66401Y-52050D02*
X67051Y-52050D01*
X67751Y-52950D02*
X68401Y-52950D01*
X76354Y-66867D02*
X76354Y-65967D01*
X76354Y-65967D02*
X75704Y-65967D01*
X75004Y-66867D02*
X74354Y-66867D01*
X74354Y-66867D02*
X74354Y-65967D01*
X74354Y-65967D02*
X75004Y-65967D01*
X75704Y-66867D02*
X76354Y-66867D01*
X83757Y-66539D02*
X82857Y-66539D01*
X82857Y-66539D02*
X82857Y-67189D01*
X83757Y-67889D02*
X83757Y-68539D01*
X83757Y-68539D02*
X82857Y-68539D01*
X82857Y-68539D02*
X82857Y-67889D01*
X83757Y-67189D02*
X83757Y-66539D01*
X68401Y-55410D02*
X68401Y-54510D01*
X68401Y-54510D02*
X67751Y-54510D01*
X67051Y-55410D02*
X66401Y-55410D01*
X66401Y-55410D02*
X66401Y-54510D01*
X66401Y-54510D02*
X67051Y-54510D01*
X67751Y-55410D02*
X68401Y-55410D01*
X80390Y-66263D02*
X79490Y-66263D01*
X79490Y-66263D02*
X79490Y-66913D01*
X80390Y-67613D02*
X80390Y-68263D01*
X80390Y-68263D02*
X79490Y-68263D01*
X79490Y-68263D02*
X79490Y-67613D01*
X80390Y-66913D02*
X80390Y-66263D01*
G54D14*
X66901Y-76090D02*
X66901Y-75090D01*
X66901Y-75090D02*
X72901Y-75090D01*
X72901Y-75090D02*
X72901Y-76090D01*
X72901Y-76090D02*
X66901Y-76090D01*
X67901Y-76090D02*
X67901Y-75090D01*
X85622Y-76543D02*
X85622Y-75543D01*
X85622Y-75543D02*
X91622Y-75543D01*
X91622Y-75543D02*
X91622Y-76543D01*
X91622Y-76543D02*
X85622Y-76543D01*
X86622Y-76543D02*
X86622Y-75543D01*
X88724Y-40834D02*
X88724Y-39834D01*
X88724Y-39834D02*
X90724Y-39834D01*
X90724Y-39834D02*
X90724Y-40834D01*
X90724Y-40834D02*
X88724Y-40834D01*
X69405Y-39854D02*
X69405Y-40854D01*
X69405Y-40854D02*
X67405Y-40854D01*
X67405Y-40854D02*
X67405Y-39854D01*
X67405Y-39854D02*
X69405Y-39854D01*
X73370Y-77862D02*
X73370Y-77862D01*
X73370Y-77862D02*
X73370Y-76862D01*
X73370Y-76862D02*
X83370Y-76862D01*
X83370Y-77862D02*
X73370Y-77862D01*
X74370Y-77862D02*
X74370Y-76862D01*
X83370Y-76862D02*
X85120Y-76862D01*
X85120Y-76862D02*
X85370Y-76862D01*
X85370Y-76862D02*
X85370Y-77862D01*
X85370Y-77862D02*
X83370Y-77862D01*
G54D15*
X74696Y-71425D02*
X75696Y-71425D01*
X74696Y-70425D02*
X75696Y-70425D01*
G54D14*
X74696Y-71425D02*
X74696Y-70425D01*
X75696Y-70425D02*
X75696Y-71425D01*
G54D15*
X64972Y-72389D02*
X65972Y-72389D01*
X64972Y-71389D02*
X65972Y-71389D01*
G54D14*
X64972Y-72389D02*
X64972Y-71389D01*
X65972Y-71389D02*
X65972Y-72389D01*
G54D15*
X74696Y-72724D02*
X75696Y-72724D01*
X74696Y-71724D02*
X75696Y-71724D01*
G54D14*
X74696Y-72724D02*
X74696Y-71724D01*
X75696Y-71724D02*
X75696Y-72724D01*
G54D15*
X64972Y-70933D02*
X65972Y-70933D01*
X64972Y-69933D02*
X65972Y-69933D01*
G54D14*
X64972Y-70933D02*
X64972Y-69933D01*
X65972Y-69933D02*
X65972Y-70933D01*
G54D10*
X90303Y-65799D02*
X90303Y-73149D01*
X90303Y-73149D02*
X87862Y-73149D01*
X87862Y-73149D02*
X87862Y-65842D01*
X87862Y-65842D02*
X90303Y-65842D01*
X71326Y-65385D02*
X71326Y-72736D01*
X71326Y-72736D02*
X68885Y-72736D01*
X68885Y-72736D02*
X68885Y-65429D01*
X68885Y-65429D02*
X71326Y-65429D01*
X70570Y-40531D02*
X70570Y-50137D01*
X70570Y-50137D02*
X86870Y-50098D01*
X86870Y-50098D02*
X86870Y-40492D01*
X86870Y-40492D02*
X70570Y-40492D01*
X70964Y-49862D02*
G75*
G03X70964Y-49862I-157J0D01*
G74*
G01*
X70964Y-40767D02*
G75*
G03X70964Y-40767I-157J0D01*
G74*
G01*
X86796Y-40767D02*
G75*
G03X86796Y-40767I-162J0D01*
G74*
G01*
X86796Y-49862D02*
G75*
G03X86796Y-49862I-162J0D01*
G74*
G01*
X70799Y-56759D02*
X86799Y-56759D01*
X86799Y-56759D02*
X86799Y-51759D01*
X86799Y-51759D02*
X70799Y-51759D01*
X70799Y-51759D02*
X70799Y-56759D01*
G54D13*
X83607Y-69333D02*
X82967Y-69333D01*
X82967Y-70233D02*
X83607Y-70233D01*
X82967Y-70413D02*
X83607Y-70413D01*
X83607Y-70413D02*
X83607Y-69153D01*
X83607Y-69153D02*
X82967Y-69153D01*
X82967Y-69153D02*
X82967Y-70413D01*
X80300Y-69254D02*
X79660Y-69254D01*
X79660Y-70154D02*
X80300Y-70154D01*
X79660Y-70334D02*
X80300Y-70334D01*
X80300Y-70334D02*
X80300Y-69074D01*
X80300Y-69074D02*
X79660Y-69074D01*
X79660Y-69074D02*
X79660Y-70334D01*
X92239Y-47694D02*
X92879Y-47694D01*
X92879Y-46794D02*
X92239Y-46794D01*
X92879Y-46614D02*
X92239Y-46614D01*
X92239Y-46614D02*
X92239Y-47874D01*
X92239Y-47874D02*
X92879Y-47874D01*
X92879Y-47874D02*
X92879Y-46614D01*
G54D15*
X79204Y-58511D02*
X80204Y-58511D01*
X79204Y-57511D02*
X80204Y-57511D01*
G54D14*
X79204Y-58511D02*
X79204Y-57511D01*
X80204Y-57511D02*
X80204Y-58511D01*
G54D15*
X64913Y-77842D02*
X65913Y-77842D01*
X64913Y-76842D02*
X65913Y-76842D01*
G54D14*
X64913Y-77842D02*
X64913Y-76842D01*
X65913Y-76842D02*
X65913Y-77842D01*
G54D15*
X92275Y-77842D02*
X93275Y-77842D01*
X92275Y-76842D02*
X93275Y-76842D01*
G54D14*
X92275Y-77842D02*
X92275Y-76842D01*
X93275Y-76842D02*
X93275Y-77842D01*
G54D15*
X64913Y-40834D02*
X65913Y-40834D01*
X64913Y-39834D02*
X65913Y-39834D01*
G54D14*
X64913Y-40834D02*
X64913Y-39834D01*
X65913Y-39834D02*
X65913Y-40834D01*
G54D15*
X92275Y-40834D02*
X93275Y-40834D01*
X92275Y-39834D02*
X93275Y-39834D01*
G54D14*
X92275Y-40834D02*
X92275Y-39834D01*
X93275Y-39834D02*
X93275Y-40834D01*
G54D15*
X66192Y-58748D02*
X67192Y-58748D01*
X66192Y-57748D02*
X67192Y-57748D01*
G54D14*
X66192Y-58748D02*
X66192Y-57748D01*
X67192Y-57748D02*
X67192Y-58748D01*
G54D15*
X88968Y-55224D02*
X89968Y-55224D01*
X88968Y-54224D02*
X89968Y-54224D01*
G54D14*
X88968Y-55224D02*
X88968Y-54224D01*
X89968Y-54224D02*
X89968Y-55224D01*
G54D13*
X82180Y-69418D02*
X81480Y-69418D01*
X81480Y-69418D02*
X81480Y-68218D01*
X81480Y-68218D02*
X82180Y-68218D01*
X82180Y-68218D02*
X82180Y-69418D01*
X78499Y-69379D02*
X77799Y-69379D01*
X77799Y-69379D02*
X77799Y-68179D01*
X77799Y-68179D02*
X78499Y-68179D01*
X78499Y-68179D02*
X78499Y-69379D01*
G54D14*
X67055Y-46905D02*
X66055Y-46905D01*
X66055Y-46905D02*
X66055Y-44905D01*
X66055Y-44905D02*
X67055Y-44905D01*
X67055Y-44905D02*
X67055Y-46905D01*
G54D12*
X91233Y-52933D02*
G75*
G03X91233Y-52933I-62J0D01*
G74*
G01*
X92133Y-52595D02*
X92133Y-52995D01*
X91108Y-52595D02*
X91108Y-52995D01*
X92133Y-52995D02*
X91108Y-52995D01*
X91108Y-52595D02*
X92133Y-52595D01*
G54D10*
X90297Y-46058D02*
X89903Y-46058D01*
X90297Y-45833D02*
X90072Y-46002D01*
X89903Y-45833D02*
X90128Y-46058D01*
X90297Y-45458D02*
X90297Y-45683D01*
X90297Y-45570D02*
X89903Y-45570D01*
X89959Y-45608D01*
X89997Y-45645D01*
X90015Y-45683D01*
X89491Y-47225D02*
X89510Y-47244D01*
X89529Y-47300D01*
X89529Y-47337D01*
X89510Y-47394D01*
X89473Y-47431D01*
X89435Y-47450D01*
X89360Y-47469D01*
X89304Y-47469D01*
X89229Y-47450D01*
X89191Y-47431D01*
X89154Y-47394D01*
X89135Y-47337D01*
X89135Y-47300D01*
X89154Y-47244D01*
X89173Y-47225D01*
X89135Y-46887D02*
X89135Y-46962D01*
X89154Y-47000D01*
X89173Y-47019D01*
X89229Y-47056D01*
X89304Y-47075D01*
X89454Y-47075D01*
X89491Y-47056D01*
X89510Y-47037D01*
X89529Y-47000D01*
X89529Y-46925D01*
X89510Y-46887D01*
X89491Y-46869D01*
X89454Y-46850D01*
X89360Y-46850D01*
X89323Y-46869D01*
X89304Y-46887D01*
X89285Y-46925D01*
X89285Y-47000D01*
X89304Y-47037D01*
X89323Y-47056D01*
X89360Y-47075D01*
X89529Y-46494D02*
X89529Y-46681D01*
X89135Y-46681D01*
X89379Y-46362D02*
X89379Y-46062D01*
X89529Y-45669D02*
X89529Y-45894D01*
X89529Y-45781D02*
X89135Y-45781D01*
X89191Y-45819D01*
X89229Y-45856D01*
X89248Y-45894D01*
X89323Y-45369D02*
X89323Y-45500D01*
X89529Y-45500D02*
X89135Y-45500D01*
X89135Y-45313D01*
X89566Y-45256D02*
X89566Y-44956D01*
X89529Y-44863D02*
X89135Y-44863D01*
X89135Y-44769D01*
X89154Y-44713D01*
X89191Y-44675D01*
X89229Y-44656D01*
X89304Y-44638D01*
X89360Y-44638D01*
X89435Y-44656D01*
X89473Y-44675D01*
X89510Y-44713D01*
X89529Y-44769D01*
X89529Y-44863D01*
X89491Y-44244D02*
X89510Y-44263D01*
X89529Y-44319D01*
X89529Y-44356D01*
X89510Y-44413D01*
X89473Y-44450D01*
X89435Y-44469D01*
X89360Y-44488D01*
X89304Y-44488D01*
X89229Y-44469D01*
X89191Y-44450D01*
X89154Y-44413D01*
X89135Y-44356D01*
X89135Y-44319D01*
X89154Y-44263D01*
X89173Y-44244D01*
X89135Y-44113D02*
X89135Y-43869D01*
X89285Y-44000D01*
X89285Y-43944D01*
X89304Y-43907D01*
X89323Y-43888D01*
X89360Y-43869D01*
X89454Y-43869D01*
X89491Y-43888D01*
X89510Y-43907D01*
X89529Y-43944D01*
X89529Y-44056D01*
X89510Y-44094D01*
X89491Y-44113D01*
G54D16*
X72040Y-58217D02*
X72025Y-58245D01*
X71997Y-58274D01*
X71954Y-58317D01*
X71940Y-58345D01*
X71940Y-58374D01*
X72011Y-58360D02*
X71997Y-58388D01*
X71968Y-58417D01*
X71911Y-58431D01*
X71811Y-58431D01*
X71754Y-58417D01*
X71725Y-58388D01*
X71711Y-58360D01*
X71711Y-58302D01*
X71725Y-58274D01*
X71754Y-58245D01*
X71811Y-58231D01*
X71911Y-58231D01*
X71968Y-58245D01*
X71997Y-58274D01*
X72011Y-58302D01*
X72011Y-58360D01*
X71711Y-57974D02*
X71711Y-58031D01*
X71725Y-58060D01*
X71740Y-58074D01*
X71783Y-58102D01*
X71840Y-58117D01*
X71954Y-58117D01*
X71983Y-58102D01*
X71997Y-58088D01*
X72011Y-58060D01*
X72011Y-58002D01*
X71997Y-57974D01*
X71983Y-57960D01*
X71954Y-57945D01*
X71883Y-57945D01*
X71854Y-57960D01*
X71840Y-57974D01*
X71825Y-58002D01*
X71825Y-58060D01*
X71840Y-58088D01*
X71854Y-58102D01*
X71883Y-58117D01*
G54D17*
X72394Y-58229D02*
X72394Y-58032D01*
X72506Y-58229D01*
X72506Y-58032D01*
X72600Y-58229D02*
X72600Y-58032D01*
X72675Y-58032D01*
X72694Y-58041D01*
X72703Y-58051D01*
X72713Y-58069D01*
X72713Y-58098D01*
X72703Y-58116D01*
X72694Y-58126D01*
X72675Y-58135D01*
X72600Y-58135D01*
X72797Y-58229D02*
X72797Y-58032D01*
X72910Y-58229D01*
X72910Y-58032D01*
G54D16*
X75032Y-58217D02*
X75018Y-58245D01*
X74989Y-58274D01*
X74946Y-58317D01*
X74932Y-58345D01*
X74932Y-58374D01*
X75003Y-58360D02*
X74989Y-58388D01*
X74960Y-58417D01*
X74903Y-58431D01*
X74803Y-58431D01*
X74746Y-58417D01*
X74718Y-58388D01*
X74703Y-58360D01*
X74703Y-58302D01*
X74718Y-58274D01*
X74746Y-58245D01*
X74803Y-58231D01*
X74903Y-58231D01*
X74960Y-58245D01*
X74989Y-58274D01*
X75003Y-58302D01*
X75003Y-58360D01*
X74703Y-57960D02*
X74703Y-58102D01*
X74846Y-58117D01*
X74832Y-58102D01*
X74818Y-58074D01*
X74818Y-58002D01*
X74832Y-57974D01*
X74846Y-57960D01*
X74875Y-57945D01*
X74946Y-57945D01*
X74975Y-57960D01*
X74989Y-57974D01*
X75003Y-58002D01*
X75003Y-58074D01*
X74989Y-58102D01*
X74975Y-58117D01*
G54D17*
X75386Y-58229D02*
X75386Y-58032D01*
X75498Y-58229D01*
X75498Y-58032D01*
X75592Y-58229D02*
X75592Y-58032D01*
X75667Y-58032D01*
X75686Y-58041D01*
X75695Y-58051D01*
X75705Y-58069D01*
X75705Y-58098D01*
X75695Y-58116D01*
X75686Y-58126D01*
X75667Y-58135D01*
X75592Y-58135D01*
X75789Y-58229D02*
X75789Y-58032D01*
X75902Y-58229D01*
X75902Y-58032D01*
G54D16*
X77394Y-58217D02*
X77380Y-58245D01*
X77351Y-58274D01*
X77308Y-58317D01*
X77294Y-58345D01*
X77294Y-58374D01*
X77365Y-58360D02*
X77351Y-58388D01*
X77323Y-58417D01*
X77265Y-58431D01*
X77165Y-58431D01*
X77108Y-58417D01*
X77080Y-58388D01*
X77065Y-58360D01*
X77065Y-58302D01*
X77080Y-58274D01*
X77108Y-58245D01*
X77165Y-58231D01*
X77265Y-58231D01*
X77323Y-58245D01*
X77351Y-58274D01*
X77365Y-58302D01*
X77365Y-58360D01*
X77165Y-57974D02*
X77365Y-57974D01*
X77051Y-58045D02*
X77265Y-58117D01*
X77265Y-57931D01*
G54D17*
X77748Y-58229D02*
X77748Y-58032D01*
X77861Y-58229D01*
X77861Y-58032D01*
X77954Y-58229D02*
X77954Y-58032D01*
X78029Y-58032D01*
X78048Y-58041D01*
X78058Y-58051D01*
X78067Y-58069D01*
X78067Y-58098D01*
X78058Y-58116D01*
X78048Y-58126D01*
X78029Y-58135D01*
X77954Y-58135D01*
X78151Y-58229D02*
X78151Y-58032D01*
X78264Y-58229D01*
X78264Y-58032D01*
G54D16*
X81410Y-58394D02*
X81395Y-58422D01*
X81367Y-58451D01*
X81324Y-58494D01*
X81310Y-58522D01*
X81310Y-58551D01*
X81381Y-58537D02*
X81367Y-58565D01*
X81338Y-58594D01*
X81281Y-58608D01*
X81181Y-58608D01*
X81124Y-58594D01*
X81095Y-58565D01*
X81081Y-58537D01*
X81081Y-58480D01*
X81095Y-58451D01*
X81124Y-58422D01*
X81181Y-58408D01*
X81281Y-58408D01*
X81338Y-58422D01*
X81367Y-58451D01*
X81381Y-58480D01*
X81381Y-58537D01*
X81081Y-58308D02*
X81081Y-58122D01*
X81195Y-58222D01*
X81195Y-58180D01*
X81210Y-58151D01*
X81224Y-58137D01*
X81253Y-58122D01*
X81324Y-58122D01*
X81353Y-58137D01*
X81367Y-58151D01*
X81381Y-58180D01*
X81381Y-58265D01*
X81367Y-58294D01*
X81353Y-58308D01*
G54D17*
X81764Y-58406D02*
X81764Y-58209D01*
X81876Y-58406D01*
X81876Y-58209D01*
X81970Y-58406D02*
X81970Y-58209D01*
X82045Y-58209D01*
X82064Y-58218D01*
X82073Y-58228D01*
X82083Y-58247D01*
X82083Y-58275D01*
X82073Y-58293D01*
X82064Y-58303D01*
X82045Y-58312D01*
X81970Y-58312D01*
X82167Y-58406D02*
X82167Y-58209D01*
X82280Y-58406D01*
X82280Y-58209D01*
G54D16*
X83221Y-58433D02*
X83206Y-58462D01*
X83178Y-58490D01*
X83135Y-58533D01*
X83121Y-58562D01*
X83121Y-58590D01*
X83192Y-58576D02*
X83178Y-58605D01*
X83149Y-58633D01*
X83092Y-58647D01*
X82992Y-58647D01*
X82935Y-58633D01*
X82906Y-58605D01*
X82892Y-58576D01*
X82892Y-58519D01*
X82906Y-58490D01*
X82935Y-58462D01*
X82992Y-58447D01*
X83092Y-58447D01*
X83149Y-58462D01*
X83178Y-58490D01*
X83192Y-58519D01*
X83192Y-58576D01*
X82921Y-58333D02*
X82906Y-58319D01*
X82892Y-58290D01*
X82892Y-58219D01*
X82906Y-58190D01*
X82921Y-58176D01*
X82949Y-58162D01*
X82978Y-58162D01*
X83021Y-58176D01*
X83192Y-58347D01*
X83192Y-58162D01*
G54D17*
X83575Y-58445D02*
X83575Y-58248D01*
X83687Y-58445D01*
X83687Y-58248D01*
X83781Y-58445D02*
X83781Y-58248D01*
X83856Y-58248D01*
X83875Y-58258D01*
X83884Y-58267D01*
X83894Y-58286D01*
X83894Y-58314D01*
X83884Y-58333D01*
X83875Y-58342D01*
X83856Y-58352D01*
X83781Y-58352D01*
X83978Y-58445D02*
X83978Y-58248D01*
X84091Y-58445D01*
X84091Y-58248D01*
G54D16*
X68378Y-49673D02*
X68364Y-49702D01*
X68335Y-49731D01*
X68293Y-49773D01*
X68278Y-49802D01*
X68278Y-49831D01*
X68350Y-49816D02*
X68335Y-49845D01*
X68307Y-49873D01*
X68250Y-49888D01*
X68150Y-49888D01*
X68093Y-49873D01*
X68064Y-49845D01*
X68050Y-49816D01*
X68050Y-49759D01*
X68064Y-49731D01*
X68093Y-49702D01*
X68150Y-49688D01*
X68250Y-49688D01*
X68307Y-49702D01*
X68335Y-49731D01*
X68350Y-49759D01*
X68350Y-49816D01*
X68350Y-49402D02*
X68350Y-49573D01*
X68350Y-49488D02*
X68050Y-49488D01*
X68093Y-49516D01*
X68121Y-49545D01*
X68135Y-49573D01*
G54D17*
X68732Y-49686D02*
X68732Y-49489D01*
X68845Y-49686D01*
X68845Y-49489D01*
X68939Y-49686D02*
X68939Y-49489D01*
X69014Y-49489D01*
X69032Y-49498D01*
X69042Y-49507D01*
X69051Y-49526D01*
X69051Y-49554D01*
X69042Y-49573D01*
X69032Y-49582D01*
X69014Y-49592D01*
X68939Y-49592D01*
X69136Y-49686D02*
X69136Y-49489D01*
X69248Y-49686D01*
X69248Y-49489D01*
G54D13*
X67228Y-51322D02*
X67128Y-51179D01*
X67056Y-51322D02*
X67056Y-51022D01*
X67171Y-51022D01*
X67199Y-51036D01*
X67214Y-51050D01*
X67228Y-51079D01*
X67228Y-51122D01*
X67214Y-51150D01*
X67199Y-51165D01*
X67171Y-51179D01*
X67056Y-51179D01*
X67514Y-51322D02*
X67342Y-51322D01*
X67428Y-51322D02*
X67428Y-51022D01*
X67399Y-51065D01*
X67371Y-51093D01*
X67342Y-51107D01*
X67799Y-51322D02*
X67628Y-51322D01*
X67714Y-51322D02*
X67714Y-51022D01*
X67685Y-51065D01*
X67656Y-51093D01*
X67628Y-51107D01*
X92719Y-50069D02*
X92576Y-50169D01*
X92719Y-50241D02*
X92419Y-50241D01*
X92419Y-50126D01*
X92434Y-50098D01*
X92448Y-50083D01*
X92476Y-50069D01*
X92519Y-50069D01*
X92548Y-50083D01*
X92562Y-50098D01*
X92576Y-50126D01*
X92576Y-50241D01*
X92548Y-49898D02*
X92534Y-49926D01*
X92519Y-49941D01*
X92491Y-49955D01*
X92476Y-49955D01*
X92448Y-49941D01*
X92434Y-49926D01*
X92419Y-49898D01*
X92419Y-49841D01*
X92434Y-49812D01*
X92448Y-49798D01*
X92476Y-49783D01*
X92491Y-49783D01*
X92519Y-49798D01*
X92534Y-49812D01*
X92548Y-49841D01*
X92548Y-49898D01*
X92562Y-49926D01*
X92576Y-49941D01*
X92605Y-49955D01*
X92662Y-49955D01*
X92691Y-49941D01*
X92705Y-49926D01*
X92719Y-49898D01*
X92719Y-49841D01*
X92705Y-49812D01*
X92691Y-49798D01*
X92662Y-49783D01*
X92605Y-49783D01*
X92576Y-49798D01*
X92562Y-49812D01*
X92548Y-49841D01*
X67843Y-77641D02*
X67743Y-77498D01*
X67672Y-77641D02*
X67672Y-77341D01*
X67786Y-77341D01*
X67815Y-77355D01*
X67829Y-77369D01*
X67843Y-77398D01*
X67843Y-77441D01*
X67829Y-77469D01*
X67815Y-77483D01*
X67786Y-77498D01*
X67672Y-77498D01*
X67986Y-77641D02*
X68043Y-77641D01*
X68072Y-77626D01*
X68086Y-77612D01*
X68115Y-77569D01*
X68129Y-77512D01*
X68129Y-77398D01*
X68115Y-77369D01*
X68100Y-77355D01*
X68072Y-77341D01*
X68015Y-77341D01*
X67986Y-77355D01*
X67972Y-77369D01*
X67957Y-77398D01*
X67957Y-77469D01*
X67972Y-77498D01*
X67986Y-77512D01*
X68015Y-77526D01*
X68072Y-77526D01*
X68100Y-77512D01*
X68115Y-77498D01*
X68129Y-77469D01*
X67208Y-53861D02*
X67108Y-53718D01*
X67037Y-53861D02*
X67037Y-53561D01*
X67151Y-53561D01*
X67180Y-53575D01*
X67194Y-53590D01*
X67208Y-53618D01*
X67208Y-53661D01*
X67194Y-53690D01*
X67180Y-53704D01*
X67151Y-53718D01*
X67037Y-53718D01*
X67494Y-53861D02*
X67323Y-53861D01*
X67408Y-53861D02*
X67408Y-53561D01*
X67380Y-53604D01*
X67351Y-53633D01*
X67323Y-53647D01*
X67680Y-53561D02*
X67708Y-53561D01*
X67737Y-53575D01*
X67751Y-53590D01*
X67765Y-53618D01*
X67780Y-53675D01*
X67780Y-53747D01*
X67765Y-53804D01*
X67751Y-53833D01*
X67737Y-53847D01*
X67708Y-53861D01*
X67680Y-53861D01*
X67651Y-53847D01*
X67637Y-53833D01*
X67623Y-53804D01*
X67608Y-53747D01*
X67608Y-53675D01*
X67623Y-53618D01*
X67637Y-53590D01*
X67651Y-53575D01*
X67680Y-53561D01*
X88788Y-49334D02*
X88688Y-49191D01*
X88617Y-49334D02*
X88617Y-49034D01*
X88731Y-49034D01*
X88760Y-49048D01*
X88774Y-49062D01*
X88788Y-49091D01*
X88788Y-49134D01*
X88774Y-49162D01*
X88760Y-49176D01*
X88731Y-49191D01*
X88617Y-49191D01*
X89045Y-49034D02*
X88988Y-49034D01*
X88960Y-49048D01*
X88945Y-49062D01*
X88917Y-49105D01*
X88902Y-49162D01*
X88902Y-49276D01*
X88917Y-49305D01*
X88931Y-49319D01*
X88960Y-49334D01*
X89017Y-49334D01*
X89045Y-49319D01*
X89060Y-49305D01*
X89074Y-49276D01*
X89074Y-49205D01*
X89060Y-49176D01*
X89045Y-49162D01*
X89017Y-49148D01*
X88960Y-49148D01*
X88931Y-49162D01*
X88917Y-49176D01*
X88902Y-49205D01*
X75220Y-69019D02*
X75120Y-68876D01*
X75049Y-69019D02*
X75049Y-68719D01*
X75163Y-68719D01*
X75191Y-68733D01*
X75206Y-68747D01*
X75220Y-68776D01*
X75220Y-68819D01*
X75206Y-68847D01*
X75191Y-68861D01*
X75163Y-68876D01*
X75049Y-68876D01*
X75506Y-69019D02*
X75334Y-69019D01*
X75420Y-69019D02*
X75420Y-68719D01*
X75391Y-68761D01*
X75363Y-68790D01*
X75334Y-68804D01*
X75606Y-68719D02*
X75791Y-68719D01*
X75691Y-68833D01*
X75734Y-68833D01*
X75763Y-68847D01*
X75777Y-68861D01*
X75791Y-68890D01*
X75791Y-68961D01*
X75777Y-68990D01*
X75763Y-69004D01*
X75734Y-69019D01*
X75649Y-69019D01*
X75620Y-69004D01*
X75606Y-68990D01*
X75181Y-67739D02*
X75081Y-67596D01*
X75009Y-67739D02*
X75009Y-67439D01*
X75124Y-67439D01*
X75152Y-67453D01*
X75166Y-67468D01*
X75181Y-67496D01*
X75181Y-67539D01*
X75166Y-67568D01*
X75152Y-67582D01*
X75124Y-67596D01*
X75009Y-67596D01*
X75466Y-67739D02*
X75295Y-67739D01*
X75381Y-67739D02*
X75381Y-67439D01*
X75352Y-67482D01*
X75324Y-67510D01*
X75295Y-67525D01*
X75724Y-67539D02*
X75724Y-67739D01*
X75652Y-67425D02*
X75581Y-67639D01*
X75766Y-67639D01*
X87115Y-77542D02*
X87015Y-77399D01*
X86943Y-77542D02*
X86943Y-77242D01*
X87058Y-77242D01*
X87086Y-77256D01*
X87101Y-77271D01*
X87115Y-77299D01*
X87115Y-77342D01*
X87101Y-77371D01*
X87086Y-77385D01*
X87058Y-77399D01*
X86943Y-77399D01*
X87215Y-77242D02*
X87415Y-77242D01*
X87286Y-77542D01*
X67208Y-56322D02*
X67108Y-56179D01*
X67037Y-56322D02*
X67037Y-56022D01*
X67151Y-56022D01*
X67180Y-56036D01*
X67194Y-56050D01*
X67208Y-56079D01*
X67208Y-56122D01*
X67194Y-56150D01*
X67180Y-56165D01*
X67151Y-56179D01*
X67037Y-56179D01*
X67494Y-56322D02*
X67323Y-56322D01*
X67408Y-56322D02*
X67408Y-56022D01*
X67380Y-56065D01*
X67351Y-56093D01*
X67323Y-56107D01*
X67765Y-56022D02*
X67623Y-56022D01*
X67608Y-56165D01*
X67623Y-56150D01*
X67651Y-56136D01*
X67723Y-56136D01*
X67751Y-56150D01*
X67765Y-56165D01*
X67780Y-56193D01*
X67780Y-56265D01*
X67765Y-56293D01*
X67751Y-56307D01*
X67723Y-56322D01*
X67651Y-56322D01*
X67623Y-56307D01*
X67608Y-56293D01*
X67208Y-52621D02*
X67108Y-52478D01*
X67037Y-52621D02*
X67037Y-52321D01*
X67151Y-52321D01*
X67180Y-52335D01*
X67194Y-52350D01*
X67208Y-52378D01*
X67208Y-52421D01*
X67194Y-52450D01*
X67180Y-52464D01*
X67151Y-52478D01*
X67037Y-52478D01*
X67494Y-52621D02*
X67323Y-52621D01*
X67408Y-52621D02*
X67408Y-52321D01*
X67380Y-52364D01*
X67351Y-52392D01*
X67323Y-52407D01*
X67751Y-52321D02*
X67694Y-52321D01*
X67665Y-52335D01*
X67651Y-52350D01*
X67623Y-52392D01*
X67608Y-52450D01*
X67608Y-52564D01*
X67623Y-52592D01*
X67637Y-52607D01*
X67665Y-52621D01*
X67723Y-52621D01*
X67751Y-52607D01*
X67765Y-52592D01*
X67780Y-52564D01*
X67780Y-52492D01*
X67765Y-52464D01*
X67751Y-52450D01*
X67723Y-52435D01*
X67665Y-52435D01*
X67637Y-52450D01*
X67623Y-52464D01*
X67608Y-52492D01*
X75161Y-66538D02*
X75061Y-66395D01*
X74990Y-66538D02*
X74990Y-66238D01*
X75104Y-66238D01*
X75132Y-66253D01*
X75147Y-66267D01*
X75161Y-66295D01*
X75161Y-66338D01*
X75147Y-66367D01*
X75132Y-66381D01*
X75104Y-66395D01*
X74990Y-66395D01*
X75447Y-66538D02*
X75275Y-66538D01*
X75361Y-66538D02*
X75361Y-66238D01*
X75332Y-66281D01*
X75304Y-66310D01*
X75275Y-66324D01*
X75547Y-66238D02*
X75747Y-66238D01*
X75618Y-66538D01*
X83428Y-67589D02*
X83428Y-67732D01*
X83128Y-67732D01*
X83428Y-67332D02*
X83428Y-67503D01*
X83428Y-67417D02*
X83128Y-67417D01*
X83171Y-67446D01*
X83199Y-67475D01*
X83214Y-67503D01*
X67208Y-55082D02*
X67108Y-54939D01*
X67037Y-55082D02*
X67037Y-54782D01*
X67151Y-54782D01*
X67180Y-54796D01*
X67194Y-54810D01*
X67208Y-54839D01*
X67208Y-54882D01*
X67194Y-54910D01*
X67180Y-54924D01*
X67151Y-54939D01*
X67037Y-54939D01*
X67494Y-55082D02*
X67323Y-55082D01*
X67408Y-55082D02*
X67408Y-54782D01*
X67380Y-54824D01*
X67351Y-54853D01*
X67323Y-54867D01*
X67608Y-54810D02*
X67623Y-54796D01*
X67651Y-54782D01*
X67723Y-54782D01*
X67751Y-54796D01*
X67765Y-54810D01*
X67780Y-54839D01*
X67780Y-54867D01*
X67765Y-54910D01*
X67594Y-55082D01*
X67780Y-55082D01*
X80062Y-67313D02*
X80062Y-67456D01*
X79762Y-67456D01*
X79790Y-67228D02*
X79776Y-67213D01*
X79762Y-67185D01*
X79762Y-67113D01*
X79776Y-67085D01*
X79790Y-67070D01*
X79819Y-67056D01*
X79848Y-67056D01*
X79890Y-67070D01*
X80062Y-67242D01*
X80062Y-67056D01*
G54D18*
X69585Y-74866D02*
X69585Y-74185D01*
X69748Y-74185D01*
X69789Y-74217D01*
X69809Y-74250D01*
X69830Y-74314D01*
X69830Y-74412D01*
X69809Y-74477D01*
X69789Y-74509D01*
X69748Y-74541D01*
X69585Y-74541D01*
X70034Y-74866D02*
X70115Y-74866D01*
X70156Y-74833D01*
X70176Y-74801D01*
X70217Y-74704D01*
X70237Y-74574D01*
X70237Y-74314D01*
X70217Y-74250D01*
X70197Y-74217D01*
X70156Y-74185D01*
X70074Y-74185D01*
X70034Y-74217D01*
X70013Y-74250D01*
X69993Y-74314D01*
X69993Y-74477D01*
X70013Y-74541D01*
X70034Y-74574D01*
X70074Y-74606D01*
X70156Y-74606D01*
X70197Y-74574D01*
X70217Y-74541D01*
X70237Y-74477D01*
G54D14*
G54D18*
X88306Y-75318D02*
X88306Y-74637D01*
X88469Y-74637D01*
X88509Y-74670D01*
X88530Y-74702D01*
X88550Y-74767D01*
X88550Y-74864D01*
X88530Y-74929D01*
X88509Y-74962D01*
X88469Y-74994D01*
X88306Y-74994D01*
X88693Y-74637D02*
X88958Y-74637D01*
X88815Y-74897D01*
X88876Y-74897D01*
X88917Y-74929D01*
X88937Y-74962D01*
X88958Y-75027D01*
X88958Y-75189D01*
X88937Y-75254D01*
X88917Y-75286D01*
X88876Y-75318D01*
X88754Y-75318D01*
X88713Y-75286D01*
X88693Y-75254D01*
G54D14*
G54D18*
X87892Y-40689D02*
X87892Y-40008D01*
X88055Y-40008D01*
X88096Y-40040D01*
X88116Y-40072D01*
X88137Y-40137D01*
X88137Y-40235D01*
X88116Y-40299D01*
X88096Y-40332D01*
X88055Y-40364D01*
X87892Y-40364D01*
X88504Y-40235D02*
X88504Y-40689D01*
X88402Y-39975D02*
X88300Y-40462D01*
X88565Y-40462D01*
G54D14*
G54D18*
X68089Y-41629D02*
X68089Y-40948D01*
X68252Y-40948D01*
X68293Y-40981D01*
X68313Y-41013D01*
X68334Y-41078D01*
X68334Y-41175D01*
X68313Y-41240D01*
X68293Y-41273D01*
X68252Y-41305D01*
X68089Y-41305D01*
X68741Y-41629D02*
X68497Y-41629D01*
X68619Y-41629D02*
X68619Y-40948D01*
X68578Y-41046D01*
X68537Y-41111D01*
X68497Y-41143D01*
G54D14*
G54D18*
X76054Y-76637D02*
X76054Y-75956D01*
X76217Y-75956D01*
X76257Y-75989D01*
X76278Y-76021D01*
X76298Y-76086D01*
X76298Y-76183D01*
X76278Y-76248D01*
X76257Y-76281D01*
X76217Y-76313D01*
X76054Y-76313D01*
X76461Y-76021D02*
X76482Y-75989D01*
X76522Y-75956D01*
X76624Y-75956D01*
X76665Y-75989D01*
X76685Y-76021D01*
X76706Y-76086D01*
X76706Y-76151D01*
X76685Y-76248D01*
X76441Y-76637D01*
X76706Y-76637D01*
G54D14*
G54D19*
X81331Y-76547D02*
X81312Y-76576D01*
X81255Y-76605D01*
X81217Y-76605D01*
X81160Y-76576D01*
X81122Y-76519D01*
X81103Y-76462D01*
X81084Y-76347D01*
X81084Y-76262D01*
X81103Y-76147D01*
X81122Y-76090D01*
X81160Y-76033D01*
X81217Y-76005D01*
X81255Y-76005D01*
X81312Y-76033D01*
X81331Y-76062D01*
X81579Y-76005D02*
X81655Y-76005D01*
X81693Y-76033D01*
X81731Y-76090D01*
X81751Y-76205D01*
X81751Y-76405D01*
X81731Y-76519D01*
X81693Y-76576D01*
X81655Y-76605D01*
X81579Y-76605D01*
X81541Y-76576D01*
X81503Y-76519D01*
X81484Y-76405D01*
X81484Y-76205D01*
X81503Y-76090D01*
X81541Y-76033D01*
X81579Y-76005D01*
X81922Y-76605D02*
X81922Y-76005D01*
X82151Y-76605D01*
X82151Y-76005D01*
X82341Y-76605D02*
X82341Y-76005D01*
X82570Y-76605D01*
X82570Y-76005D01*
X82665Y-76662D02*
X82970Y-76662D01*
X83274Y-76605D02*
X83046Y-76605D01*
X83160Y-76605D02*
X83160Y-76005D01*
X83122Y-76090D01*
X83084Y-76147D01*
X83046Y-76176D01*
X83427Y-76062D02*
X83446Y-76033D01*
X83484Y-76005D01*
X83579Y-76005D01*
X83617Y-76033D01*
X83636Y-76062D01*
X83655Y-76119D01*
X83655Y-76176D01*
X83636Y-76262D01*
X83408Y-76605D01*
X83655Y-76605D01*
G54D14*
G54D18*
X74880Y-70200D02*
X74880Y-69519D01*
X75043Y-69519D01*
X75084Y-69552D01*
X75105Y-69584D01*
X75125Y-69649D01*
X75125Y-69746D01*
X75105Y-69811D01*
X75084Y-69844D01*
X75043Y-69876D01*
X74880Y-69876D01*
X75268Y-69519D02*
X75553Y-69519D01*
X75370Y-70200D01*
X65254Y-73169D02*
X65254Y-72488D01*
X65418Y-72488D01*
X65458Y-72520D01*
X65479Y-72553D01*
X65499Y-72618D01*
X65499Y-72715D01*
X65479Y-72780D01*
X65458Y-72812D01*
X65418Y-72845D01*
X65254Y-72845D01*
X65866Y-72488D02*
X65784Y-72488D01*
X65744Y-72520D01*
X65723Y-72553D01*
X65682Y-72650D01*
X65662Y-72780D01*
X65662Y-73039D01*
X65682Y-73104D01*
X65703Y-73136D01*
X65744Y-73169D01*
X65825Y-73169D01*
X65866Y-73136D01*
X65886Y-73104D01*
X65907Y-73039D01*
X65907Y-72877D01*
X65886Y-72812D01*
X65866Y-72780D01*
X65825Y-72747D01*
X65744Y-72747D01*
X65703Y-72780D01*
X65682Y-72812D01*
X65662Y-72877D01*
X74880Y-71500D02*
X74880Y-70819D01*
X75043Y-70819D01*
X75084Y-70851D01*
X75105Y-70883D01*
X75125Y-70948D01*
X75125Y-71046D01*
X75105Y-71110D01*
X75084Y-71143D01*
X75043Y-71175D01*
X74880Y-71175D01*
X75370Y-71110D02*
X75329Y-71078D01*
X75308Y-71046D01*
X75288Y-70981D01*
X75288Y-70948D01*
X75308Y-70883D01*
X75329Y-70851D01*
X75370Y-70819D01*
X75451Y-70819D01*
X75492Y-70851D01*
X75512Y-70883D01*
X75533Y-70948D01*
X75533Y-70981D01*
X75512Y-71046D01*
X75492Y-71078D01*
X75451Y-71110D01*
X75370Y-71110D01*
X75329Y-71143D01*
X75308Y-71175D01*
X75288Y-71240D01*
X75288Y-71370D01*
X75308Y-71435D01*
X75329Y-71467D01*
X75370Y-71500D01*
X75451Y-71500D01*
X75492Y-71467D01*
X75512Y-71435D01*
X75533Y-71370D01*
X75533Y-71240D01*
X75512Y-71175D01*
X75492Y-71143D01*
X75451Y-71110D01*
X65156Y-69708D02*
X65156Y-69027D01*
X65319Y-69027D01*
X65360Y-69060D01*
X65380Y-69092D01*
X65401Y-69157D01*
X65401Y-69254D01*
X65380Y-69319D01*
X65360Y-69351D01*
X65319Y-69384D01*
X65156Y-69384D01*
X65788Y-69027D02*
X65584Y-69027D01*
X65564Y-69351D01*
X65584Y-69319D01*
X65625Y-69287D01*
X65727Y-69287D01*
X65767Y-69319D01*
X65788Y-69351D01*
X65808Y-69416D01*
X65808Y-69578D01*
X65788Y-69643D01*
X65767Y-69676D01*
X65727Y-69708D01*
X65625Y-69708D01*
X65584Y-69676D01*
X65564Y-69643D01*
G54D20*
X84737Y-61445D02*
X84748Y-61449D01*
X84767Y-61449D01*
X84775Y-61445D01*
X84778Y-61441D01*
X84782Y-61434D01*
X84782Y-61426D01*
X84778Y-61419D01*
X84775Y-61415D01*
X84767Y-61411D01*
X84752Y-61407D01*
X84745Y-61404D01*
X84741Y-61400D01*
X84737Y-61392D01*
X84737Y-61385D01*
X84741Y-61377D01*
X84745Y-61374D01*
X84752Y-61370D01*
X84771Y-61370D01*
X84782Y-61374D01*
X84808Y-61370D02*
X84827Y-61449D01*
X84842Y-61392D01*
X84857Y-61449D01*
X84876Y-61370D01*
X84940Y-61396D02*
X84940Y-61449D01*
X84921Y-61366D02*
X84902Y-61422D01*
X84951Y-61422D01*
X82708Y-61057D02*
X82764Y-61076D01*
X82858Y-61076D01*
X82895Y-61057D01*
X82914Y-61039D01*
X82933Y-61001D01*
X82933Y-60964D01*
X82914Y-60926D01*
X82895Y-60907D01*
X82858Y-60889D01*
X82783Y-60870D01*
X82745Y-60851D01*
X82727Y-60832D01*
X82708Y-60795D01*
X82708Y-60757D01*
X82727Y-60720D01*
X82745Y-60701D01*
X82783Y-60682D01*
X82877Y-60682D01*
X82933Y-60701D01*
X83064Y-60682D02*
X83158Y-61076D01*
X83233Y-60795D01*
X83308Y-61076D01*
X83402Y-60682D01*
X83458Y-61114D02*
X83758Y-61114D01*
X83852Y-61076D02*
X83852Y-60682D01*
X84002Y-60682D01*
X84039Y-60701D01*
X84058Y-60720D01*
X84077Y-60757D01*
X84077Y-60814D01*
X84058Y-60851D01*
X84039Y-60870D01*
X84002Y-60889D01*
X83852Y-60889D01*
X84245Y-60682D02*
X84245Y-61001D01*
X84264Y-61039D01*
X84283Y-61057D01*
X84320Y-61076D01*
X84395Y-61076D01*
X84433Y-61057D01*
X84451Y-61039D01*
X84470Y-61001D01*
X84470Y-60682D01*
X84639Y-61057D02*
X84695Y-61076D01*
X84789Y-61076D01*
X84826Y-61057D01*
X84845Y-61039D01*
X84864Y-61001D01*
X84864Y-60964D01*
X84845Y-60926D01*
X84826Y-60907D01*
X84789Y-60889D01*
X84714Y-60870D01*
X84676Y-60851D01*
X84658Y-60832D01*
X84639Y-60795D01*
X84639Y-60757D01*
X84658Y-60720D01*
X84676Y-60701D01*
X84714Y-60682D01*
X84808Y-60682D01*
X84864Y-60701D01*
X85033Y-61076D02*
X85033Y-60682D01*
X85033Y-60870D02*
X85258Y-60870D01*
X85258Y-61076D02*
X85258Y-60682D01*
X85351Y-61114D02*
X85651Y-61114D01*
X85726Y-61057D02*
X85783Y-61076D01*
X85876Y-61076D01*
X85914Y-61057D01*
X85933Y-61039D01*
X85951Y-61001D01*
X85951Y-60964D01*
X85933Y-60926D01*
X85914Y-60907D01*
X85876Y-60889D01*
X85801Y-60870D01*
X85764Y-60851D01*
X85745Y-60832D01*
X85726Y-60795D01*
X85726Y-60757D01*
X85745Y-60720D01*
X85764Y-60701D01*
X85801Y-60682D01*
X85895Y-60682D01*
X85951Y-60701D01*
X86120Y-61076D02*
X86120Y-60682D01*
X86251Y-60964D01*
X86382Y-60682D01*
X86382Y-61076D01*
X86551Y-60964D02*
X86739Y-60964D01*
X86514Y-61076D02*
X86645Y-60682D01*
X86776Y-61076D01*
X87095Y-61076D02*
X86907Y-61076D01*
X86907Y-60682D01*
X87414Y-61076D02*
X87226Y-61076D01*
X87226Y-60682D01*
X90446Y-61445D02*
X90457Y-61449D01*
X90476Y-61449D01*
X90483Y-61445D01*
X90487Y-61441D01*
X90491Y-61434D01*
X90491Y-61426D01*
X90487Y-61419D01*
X90483Y-61415D01*
X90476Y-61411D01*
X90461Y-61407D01*
X90453Y-61404D01*
X90449Y-61400D01*
X90446Y-61392D01*
X90446Y-61385D01*
X90449Y-61377D01*
X90453Y-61374D01*
X90461Y-61370D01*
X90479Y-61370D01*
X90491Y-61374D01*
X90517Y-61370D02*
X90536Y-61449D01*
X90551Y-61392D01*
X90566Y-61449D01*
X90584Y-61370D01*
X90652Y-61370D02*
X90614Y-61370D01*
X90611Y-61407D01*
X90614Y-61404D01*
X90622Y-61400D01*
X90641Y-61400D01*
X90648Y-61404D01*
X90652Y-61407D01*
X90656Y-61415D01*
X90656Y-61434D01*
X90652Y-61441D01*
X90648Y-61445D01*
X90641Y-61449D01*
X90622Y-61449D01*
X90614Y-61445D01*
X90611Y-61441D01*
X88417Y-61057D02*
X88473Y-61076D01*
X88567Y-61076D01*
X88604Y-61057D01*
X88623Y-61039D01*
X88642Y-61001D01*
X88642Y-60964D01*
X88623Y-60926D01*
X88604Y-60907D01*
X88567Y-60889D01*
X88492Y-60870D01*
X88454Y-60851D01*
X88435Y-60832D01*
X88417Y-60795D01*
X88417Y-60757D01*
X88435Y-60720D01*
X88454Y-60701D01*
X88492Y-60682D01*
X88585Y-60682D01*
X88642Y-60701D01*
X88773Y-60682D02*
X88867Y-61076D01*
X88942Y-60795D01*
X89017Y-61076D01*
X89110Y-60682D01*
X89167Y-61114D02*
X89466Y-61114D01*
X89560Y-61076D02*
X89560Y-60682D01*
X89710Y-60682D01*
X89748Y-60701D01*
X89766Y-60720D01*
X89785Y-60757D01*
X89785Y-60814D01*
X89766Y-60851D01*
X89748Y-60870D01*
X89710Y-60889D01*
X89560Y-60889D01*
X89954Y-60682D02*
X89954Y-61001D01*
X89973Y-61039D01*
X89991Y-61057D01*
X90029Y-61076D01*
X90104Y-61076D01*
X90141Y-61057D01*
X90160Y-61039D01*
X90179Y-61001D01*
X90179Y-60682D01*
X90348Y-61057D02*
X90404Y-61076D01*
X90498Y-61076D01*
X90535Y-61057D01*
X90554Y-61039D01*
X90573Y-61001D01*
X90573Y-60964D01*
X90554Y-60926D01*
X90535Y-60907D01*
X90498Y-60889D01*
X90423Y-60870D01*
X90385Y-60851D01*
X90366Y-60832D01*
X90348Y-60795D01*
X90348Y-60757D01*
X90366Y-60720D01*
X90385Y-60701D01*
X90423Y-60682D01*
X90516Y-60682D01*
X90573Y-60701D01*
X90741Y-61076D02*
X90741Y-60682D01*
X90741Y-60870D02*
X90966Y-60870D01*
X90966Y-61076D02*
X90966Y-60682D01*
X91060Y-61114D02*
X91360Y-61114D01*
X91435Y-61057D02*
X91491Y-61076D01*
X91585Y-61076D01*
X91622Y-61057D01*
X91641Y-61039D01*
X91660Y-61001D01*
X91660Y-60964D01*
X91641Y-60926D01*
X91622Y-60907D01*
X91585Y-60889D01*
X91510Y-60870D01*
X91472Y-60851D01*
X91454Y-60832D01*
X91435Y-60795D01*
X91435Y-60757D01*
X91454Y-60720D01*
X91472Y-60701D01*
X91510Y-60682D01*
X91604Y-60682D01*
X91660Y-60701D01*
X91829Y-61076D02*
X91829Y-60682D01*
X91960Y-60964D01*
X92091Y-60682D01*
X92091Y-61076D01*
X92260Y-60964D02*
X92447Y-60964D01*
X92222Y-61076D02*
X92354Y-60682D01*
X92485Y-61076D01*
X92804Y-61076D02*
X92616Y-61076D01*
X92616Y-60682D01*
X93122Y-61076D02*
X92935Y-61076D01*
X92935Y-60682D01*
X79028Y-61445D02*
X79040Y-61449D01*
X79058Y-61449D01*
X79066Y-61445D01*
X79070Y-61441D01*
X79073Y-61434D01*
X79073Y-61426D01*
X79070Y-61419D01*
X79066Y-61415D01*
X79058Y-61411D01*
X79043Y-61407D01*
X79036Y-61404D01*
X79032Y-61400D01*
X79028Y-61392D01*
X79028Y-61385D01*
X79032Y-61377D01*
X79036Y-61374D01*
X79043Y-61370D01*
X79062Y-61370D01*
X79073Y-61374D01*
X79100Y-61370D02*
X79118Y-61449D01*
X79133Y-61392D01*
X79148Y-61449D01*
X79167Y-61370D01*
X79190Y-61370D02*
X79238Y-61370D01*
X79212Y-61400D01*
X79223Y-61400D01*
X79231Y-61404D01*
X79235Y-61407D01*
X79238Y-61415D01*
X79238Y-61434D01*
X79235Y-61441D01*
X79231Y-61445D01*
X79223Y-61449D01*
X79201Y-61449D01*
X79193Y-61445D01*
X79190Y-61441D01*
X76999Y-61057D02*
X77056Y-61076D01*
X77149Y-61076D01*
X77187Y-61057D01*
X77205Y-61039D01*
X77224Y-61001D01*
X77224Y-60964D01*
X77205Y-60926D01*
X77187Y-60907D01*
X77149Y-60889D01*
X77074Y-60870D01*
X77037Y-60851D01*
X77018Y-60832D01*
X76999Y-60795D01*
X76999Y-60757D01*
X77018Y-60720D01*
X77037Y-60701D01*
X77074Y-60682D01*
X77168Y-60682D01*
X77224Y-60701D01*
X77355Y-60682D02*
X77449Y-61076D01*
X77524Y-60795D01*
X77599Y-61076D01*
X77693Y-60682D01*
X77749Y-61114D02*
X78049Y-61114D01*
X78143Y-61076D02*
X78143Y-60682D01*
X78293Y-60682D01*
X78330Y-60701D01*
X78349Y-60720D01*
X78368Y-60757D01*
X78368Y-60814D01*
X78349Y-60851D01*
X78330Y-60870D01*
X78293Y-60889D01*
X78143Y-60889D01*
X78537Y-60682D02*
X78537Y-61001D01*
X78555Y-61039D01*
X78574Y-61057D01*
X78612Y-61076D01*
X78687Y-61076D01*
X78724Y-61057D01*
X78743Y-61039D01*
X78762Y-61001D01*
X78762Y-60682D01*
X78930Y-61057D02*
X78987Y-61076D01*
X79080Y-61076D01*
X79118Y-61057D01*
X79137Y-61039D01*
X79155Y-61001D01*
X79155Y-60964D01*
X79137Y-60926D01*
X79118Y-60907D01*
X79080Y-60889D01*
X79005Y-60870D01*
X78968Y-60851D01*
X78949Y-60832D01*
X78930Y-60795D01*
X78930Y-60757D01*
X78949Y-60720D01*
X78968Y-60701D01*
X79005Y-60682D01*
X79099Y-60682D01*
X79155Y-60701D01*
X79324Y-61076D02*
X79324Y-60682D01*
X79324Y-60870D02*
X79549Y-60870D01*
X79549Y-61076D02*
X79549Y-60682D01*
X79643Y-61114D02*
X79943Y-61114D01*
X80018Y-61057D02*
X80074Y-61076D01*
X80168Y-61076D01*
X80205Y-61057D01*
X80224Y-61039D01*
X80243Y-61001D01*
X80243Y-60964D01*
X80224Y-60926D01*
X80205Y-60907D01*
X80168Y-60889D01*
X80093Y-60870D01*
X80055Y-60851D01*
X80036Y-60832D01*
X80018Y-60795D01*
X80018Y-60757D01*
X80036Y-60720D01*
X80055Y-60701D01*
X80093Y-60682D01*
X80186Y-60682D01*
X80243Y-60701D01*
X80411Y-61076D02*
X80411Y-60682D01*
X80543Y-60964D01*
X80674Y-60682D01*
X80674Y-61076D01*
X80843Y-60964D02*
X81030Y-60964D01*
X80805Y-61076D02*
X80936Y-60682D01*
X81068Y-61076D01*
X81386Y-61076D02*
X81199Y-61076D01*
X81199Y-60682D01*
X81705Y-61076D02*
X81517Y-61076D01*
X81517Y-60682D01*
X73320Y-61445D02*
X73331Y-61449D01*
X73350Y-61449D01*
X73357Y-61445D01*
X73361Y-61441D01*
X73365Y-61434D01*
X73365Y-61426D01*
X73361Y-61419D01*
X73357Y-61415D01*
X73350Y-61411D01*
X73335Y-61407D01*
X73327Y-61404D01*
X73323Y-61400D01*
X73320Y-61392D01*
X73320Y-61385D01*
X73323Y-61377D01*
X73327Y-61374D01*
X73335Y-61370D01*
X73353Y-61370D01*
X73365Y-61374D01*
X73391Y-61370D02*
X73410Y-61449D01*
X73425Y-61392D01*
X73440Y-61449D01*
X73458Y-61370D01*
X73485Y-61377D02*
X73488Y-61374D01*
X73496Y-61370D01*
X73515Y-61370D01*
X73522Y-61374D01*
X73526Y-61377D01*
X73530Y-61385D01*
X73530Y-61392D01*
X73526Y-61404D01*
X73481Y-61449D01*
X73530Y-61449D01*
X71291Y-61057D02*
X71347Y-61076D01*
X71441Y-61076D01*
X71478Y-61057D01*
X71497Y-61039D01*
X71516Y-61001D01*
X71516Y-60964D01*
X71497Y-60926D01*
X71478Y-60907D01*
X71441Y-60889D01*
X71366Y-60870D01*
X71328Y-60851D01*
X71309Y-60832D01*
X71291Y-60795D01*
X71291Y-60757D01*
X71309Y-60720D01*
X71328Y-60701D01*
X71366Y-60682D01*
X71459Y-60682D01*
X71516Y-60701D01*
X71647Y-60682D02*
X71741Y-61076D01*
X71816Y-60795D01*
X71891Y-61076D01*
X71984Y-60682D01*
X72041Y-61114D02*
X72340Y-61114D01*
X72434Y-61076D02*
X72434Y-60682D01*
X72584Y-60682D01*
X72622Y-60701D01*
X72640Y-60720D01*
X72659Y-60757D01*
X72659Y-60814D01*
X72640Y-60851D01*
X72622Y-60870D01*
X72584Y-60889D01*
X72434Y-60889D01*
X72828Y-60682D02*
X72828Y-61001D01*
X72847Y-61039D01*
X72865Y-61057D01*
X72903Y-61076D01*
X72978Y-61076D01*
X73015Y-61057D01*
X73034Y-61039D01*
X73053Y-61001D01*
X73053Y-60682D01*
X73222Y-61057D02*
X73278Y-61076D01*
X73372Y-61076D01*
X73409Y-61057D01*
X73428Y-61039D01*
X73447Y-61001D01*
X73447Y-60964D01*
X73428Y-60926D01*
X73409Y-60907D01*
X73372Y-60889D01*
X73297Y-60870D01*
X73259Y-60851D01*
X73240Y-60832D01*
X73222Y-60795D01*
X73222Y-60757D01*
X73240Y-60720D01*
X73259Y-60701D01*
X73297Y-60682D01*
X73390Y-60682D01*
X73447Y-60701D01*
X73615Y-61076D02*
X73615Y-60682D01*
X73615Y-60870D02*
X73840Y-60870D01*
X73840Y-61076D02*
X73840Y-60682D01*
X73934Y-61114D02*
X74234Y-61114D01*
X74309Y-61057D02*
X74365Y-61076D01*
X74459Y-61076D01*
X74496Y-61057D01*
X74515Y-61039D01*
X74534Y-61001D01*
X74534Y-60964D01*
X74515Y-60926D01*
X74496Y-60907D01*
X74459Y-60889D01*
X74384Y-60870D01*
X74346Y-60851D01*
X74328Y-60832D01*
X74309Y-60795D01*
X74309Y-60757D01*
X74328Y-60720D01*
X74346Y-60701D01*
X74384Y-60682D01*
X74478Y-60682D01*
X74534Y-60701D01*
X74703Y-61076D02*
X74703Y-60682D01*
X74834Y-60964D01*
X74965Y-60682D01*
X74965Y-61076D01*
X75134Y-60964D02*
X75321Y-60964D01*
X75096Y-61076D02*
X75228Y-60682D01*
X75359Y-61076D01*
X75678Y-61076D02*
X75490Y-61076D01*
X75490Y-60682D01*
X75996Y-61076D02*
X75809Y-61076D01*
X75809Y-60682D01*
X67611Y-61445D02*
X67622Y-61449D01*
X67641Y-61449D01*
X67649Y-61445D01*
X67652Y-61441D01*
X67656Y-61434D01*
X67656Y-61426D01*
X67652Y-61419D01*
X67649Y-61415D01*
X67641Y-61411D01*
X67626Y-61407D01*
X67619Y-61404D01*
X67615Y-61400D01*
X67611Y-61392D01*
X67611Y-61385D01*
X67615Y-61377D01*
X67619Y-61374D01*
X67626Y-61370D01*
X67645Y-61370D01*
X67656Y-61374D01*
X67682Y-61370D02*
X67701Y-61449D01*
X67716Y-61392D01*
X67731Y-61449D01*
X67750Y-61370D01*
X67821Y-61449D02*
X67776Y-61449D01*
X67799Y-61449D02*
X67799Y-61370D01*
X67791Y-61381D01*
X67784Y-61389D01*
X67776Y-61392D01*
X65582Y-61057D02*
X65638Y-61076D01*
X65732Y-61076D01*
X65769Y-61057D01*
X65788Y-61039D01*
X65807Y-61001D01*
X65807Y-60964D01*
X65788Y-60926D01*
X65769Y-60907D01*
X65732Y-60889D01*
X65657Y-60870D01*
X65619Y-60851D01*
X65601Y-60832D01*
X65582Y-60795D01*
X65582Y-60757D01*
X65601Y-60720D01*
X65619Y-60701D01*
X65657Y-60682D01*
X65751Y-60682D01*
X65807Y-60701D01*
X65938Y-60682D02*
X66032Y-61076D01*
X66107Y-60795D01*
X66182Y-61076D01*
X66276Y-60682D01*
X66332Y-61114D02*
X66632Y-61114D01*
X66726Y-61076D02*
X66726Y-60682D01*
X66876Y-60682D01*
X66913Y-60701D01*
X66932Y-60720D01*
X66951Y-60757D01*
X66951Y-60814D01*
X66932Y-60851D01*
X66913Y-60870D01*
X66876Y-60889D01*
X66726Y-60889D01*
X67119Y-60682D02*
X67119Y-61001D01*
X67138Y-61039D01*
X67157Y-61057D01*
X67194Y-61076D01*
X67269Y-61076D01*
X67307Y-61057D01*
X67325Y-61039D01*
X67344Y-61001D01*
X67344Y-60682D01*
X67513Y-61057D02*
X67569Y-61076D01*
X67663Y-61076D01*
X67700Y-61057D01*
X67719Y-61039D01*
X67738Y-61001D01*
X67738Y-60964D01*
X67719Y-60926D01*
X67700Y-60907D01*
X67663Y-60889D01*
X67588Y-60870D01*
X67550Y-60851D01*
X67532Y-60832D01*
X67513Y-60795D01*
X67513Y-60757D01*
X67532Y-60720D01*
X67550Y-60701D01*
X67588Y-60682D01*
X67682Y-60682D01*
X67738Y-60701D01*
X67907Y-61076D02*
X67907Y-60682D01*
X67907Y-60870D02*
X68132Y-60870D01*
X68132Y-61076D02*
X68132Y-60682D01*
X68225Y-61114D02*
X68525Y-61114D01*
X68600Y-61057D02*
X68657Y-61076D01*
X68750Y-61076D01*
X68788Y-61057D01*
X68807Y-61039D01*
X68825Y-61001D01*
X68825Y-60964D01*
X68807Y-60926D01*
X68788Y-60907D01*
X68750Y-60889D01*
X68675Y-60870D01*
X68638Y-60851D01*
X68619Y-60832D01*
X68600Y-60795D01*
X68600Y-60757D01*
X68619Y-60720D01*
X68638Y-60701D01*
X68675Y-60682D01*
X68769Y-60682D01*
X68825Y-60701D01*
X68994Y-61076D02*
X68994Y-60682D01*
X69125Y-60964D01*
X69256Y-60682D01*
X69256Y-61076D01*
X69425Y-60964D02*
X69613Y-60964D01*
X69388Y-61076D02*
X69519Y-60682D01*
X69650Y-61076D01*
X69969Y-61076D02*
X69781Y-61076D01*
X69781Y-60682D01*
X70288Y-61076D02*
X70100Y-61076D01*
X70100Y-60682D01*
G54D10*
X88025Y-69662D02*
X88344Y-69662D01*
X88381Y-69643D01*
X88400Y-69624D01*
X88419Y-69587D01*
X88419Y-69512D01*
X88400Y-69474D01*
X88381Y-69455D01*
X88344Y-69437D01*
X88025Y-69437D01*
X88062Y-69268D02*
X88044Y-69249D01*
X88025Y-69212D01*
X88025Y-69118D01*
X88044Y-69080D01*
X88062Y-69062D01*
X88100Y-69043D01*
X88137Y-69043D01*
X88194Y-69062D01*
X88419Y-69287D01*
X88419Y-69043D01*
X89273Y-70136D02*
X89273Y-70361D01*
X89273Y-70249D02*
X88879Y-70249D01*
X88936Y-70286D01*
X88973Y-70324D01*
X88992Y-70361D01*
X88879Y-69799D02*
X88879Y-69874D01*
X88898Y-69911D01*
X88917Y-69930D01*
X88973Y-69968D01*
X89048Y-69986D01*
X89198Y-69986D01*
X89236Y-69968D01*
X89254Y-69949D01*
X89273Y-69911D01*
X89273Y-69836D01*
X89254Y-69799D01*
X89236Y-69780D01*
X89198Y-69761D01*
X89104Y-69761D01*
X89067Y-69780D01*
X89048Y-69799D01*
X89029Y-69836D01*
X89029Y-69911D01*
X89048Y-69949D01*
X89067Y-69968D01*
X89104Y-69986D01*
X89067Y-69461D02*
X89067Y-69593D01*
X89273Y-69593D02*
X88879Y-69593D01*
X88879Y-69405D01*
X88879Y-69293D02*
X88879Y-69030D01*
X89273Y-69199D01*
X88917Y-68899D02*
X88898Y-68880D01*
X88879Y-68843D01*
X88879Y-68749D01*
X88898Y-68712D01*
X88917Y-68693D01*
X88954Y-68674D01*
X88992Y-68674D01*
X89048Y-68693D01*
X89273Y-68918D01*
X89273Y-68674D01*
X88879Y-68337D02*
X88879Y-68412D01*
X88898Y-68449D01*
X88917Y-68468D01*
X88973Y-68505D01*
X89048Y-68524D01*
X89198Y-68524D01*
X89236Y-68505D01*
X89254Y-68487D01*
X89273Y-68449D01*
X89273Y-68374D01*
X89254Y-68337D01*
X89236Y-68318D01*
X89198Y-68299D01*
X89104Y-68299D01*
X89067Y-68318D01*
X89048Y-68337D01*
X89029Y-68374D01*
X89029Y-68449D01*
X89048Y-68487D01*
X89067Y-68505D01*
X89104Y-68524D01*
X69049Y-69248D02*
X69367Y-69248D01*
X69405Y-69230D01*
X69424Y-69211D01*
X69442Y-69173D01*
X69442Y-69098D01*
X69424Y-69061D01*
X69405Y-69042D01*
X69367Y-69023D01*
X69049Y-69023D01*
X69049Y-68648D02*
X69049Y-68836D01*
X69236Y-68855D01*
X69217Y-68836D01*
X69199Y-68798D01*
X69199Y-68705D01*
X69217Y-68667D01*
X69236Y-68648D01*
X69274Y-68630D01*
X69367Y-68630D01*
X69405Y-68648D01*
X69424Y-68667D01*
X69442Y-68705D01*
X69442Y-68798D01*
X69424Y-68836D01*
X69405Y-68855D01*
X70297Y-69723D02*
X70297Y-69948D01*
X70297Y-69835D02*
X69903Y-69835D01*
X69959Y-69873D01*
X69997Y-69910D01*
X70015Y-69948D01*
X69903Y-69386D02*
X69903Y-69461D01*
X69922Y-69498D01*
X69940Y-69517D01*
X69997Y-69554D01*
X70072Y-69573D01*
X70222Y-69573D01*
X70259Y-69554D01*
X70278Y-69535D01*
X70297Y-69498D01*
X70297Y-69423D01*
X70278Y-69386D01*
X70259Y-69367D01*
X70222Y-69348D01*
X70128Y-69348D01*
X70090Y-69367D01*
X70072Y-69386D01*
X70053Y-69423D01*
X70053Y-69498D01*
X70072Y-69535D01*
X70090Y-69554D01*
X70128Y-69573D01*
X70090Y-69048D02*
X70090Y-69179D01*
X70297Y-69179D02*
X69903Y-69179D01*
X69903Y-68992D01*
X69903Y-68879D02*
X69903Y-68617D01*
X70297Y-68786D01*
X69940Y-68486D02*
X69922Y-68467D01*
X69903Y-68429D01*
X69903Y-68336D01*
X69922Y-68298D01*
X69940Y-68279D01*
X69978Y-68261D01*
X70015Y-68261D01*
X70072Y-68279D01*
X70297Y-68504D01*
X70297Y-68261D01*
X69903Y-67923D02*
X69903Y-67998D01*
X69922Y-68036D01*
X69940Y-68054D01*
X69997Y-68092D01*
X70072Y-68111D01*
X70222Y-68111D01*
X70259Y-68092D01*
X70278Y-68073D01*
X70297Y-68036D01*
X70297Y-67961D01*
X70278Y-67923D01*
X70259Y-67904D01*
X70222Y-67886D01*
X70128Y-67886D01*
X70090Y-67904D01*
X70072Y-67923D01*
X70053Y-67961D01*
X70053Y-68036D01*
X70072Y-68073D01*
X70090Y-68092D01*
X70128Y-68111D01*
X79089Y-46360D02*
X79089Y-46678D01*
X79108Y-46716D01*
X79127Y-46735D01*
X79164Y-46753D01*
X79239Y-46753D01*
X79277Y-46735D01*
X79296Y-46716D01*
X79314Y-46678D01*
X79314Y-46360D01*
X79708Y-46753D02*
X79483Y-46753D01*
X79595Y-46753D02*
X79595Y-46360D01*
X79558Y-46416D01*
X79520Y-46453D01*
X79483Y-46472D01*
X74534Y-46753D02*
X74534Y-46360D01*
X74759Y-46753D01*
X74759Y-46360D01*
X74946Y-46753D02*
X74946Y-46360D01*
X74946Y-46547D02*
X75171Y-46547D01*
X75171Y-46753D02*
X75171Y-46360D01*
X75359Y-46753D02*
X75359Y-46360D01*
X75452Y-46360D01*
X75508Y-46378D01*
X75546Y-46416D01*
X75565Y-46453D01*
X75583Y-46528D01*
X75583Y-46585D01*
X75565Y-46660D01*
X75546Y-46697D01*
X75508Y-46735D01*
X75452Y-46753D01*
X75359Y-46753D01*
X75752Y-46603D02*
X76052Y-46603D01*
X76465Y-46716D02*
X76446Y-46735D01*
X76390Y-46753D01*
X76352Y-46753D01*
X76296Y-46735D01*
X76258Y-46697D01*
X76240Y-46660D01*
X76221Y-46585D01*
X76221Y-46528D01*
X76240Y-46453D01*
X76258Y-46416D01*
X76296Y-46378D01*
X76352Y-46360D01*
X76390Y-46360D01*
X76446Y-46378D01*
X76465Y-46397D01*
X76840Y-46753D02*
X76615Y-46753D01*
X76727Y-46753D02*
X76727Y-46360D01*
X76690Y-46416D01*
X76652Y-46453D01*
X76615Y-46472D01*
X76990Y-46397D02*
X77008Y-46378D01*
X77046Y-46360D01*
X77140Y-46360D01*
X77177Y-46378D01*
X77196Y-46397D01*
X77215Y-46435D01*
X77215Y-46472D01*
X77196Y-46528D01*
X76971Y-46753D01*
X77215Y-46753D01*
X77440Y-46528D02*
X77402Y-46510D01*
X77383Y-46491D01*
X77365Y-46453D01*
X77365Y-46435D01*
X77383Y-46397D01*
X77402Y-46378D01*
X77440Y-46360D01*
X77514Y-46360D01*
X77552Y-46378D01*
X77571Y-46397D01*
X77589Y-46435D01*
X77589Y-46453D01*
X77571Y-46491D01*
X77552Y-46510D01*
X77514Y-46528D01*
X77440Y-46528D01*
X77402Y-46547D01*
X77383Y-46566D01*
X77365Y-46603D01*
X77365Y-46678D01*
X77383Y-46716D01*
X77402Y-46735D01*
X77440Y-46753D01*
X77514Y-46753D01*
X77552Y-46735D01*
X77571Y-46716D01*
X77589Y-46678D01*
X77589Y-46603D01*
X77571Y-46566D01*
X77552Y-46547D01*
X77514Y-46528D01*
X77721Y-46360D02*
X77964Y-46360D01*
X77833Y-46510D01*
X77889Y-46510D01*
X77927Y-46528D01*
X77946Y-46547D01*
X77964Y-46585D01*
X77964Y-46678D01*
X77946Y-46716D01*
X77927Y-46735D01*
X77889Y-46753D01*
X77777Y-46753D01*
X77739Y-46735D01*
X77721Y-46716D01*
X78114Y-46397D02*
X78133Y-46378D01*
X78171Y-46360D01*
X78264Y-46360D01*
X78302Y-46378D01*
X78321Y-46397D01*
X78339Y-46435D01*
X78339Y-46472D01*
X78321Y-46528D01*
X78096Y-46753D01*
X78339Y-46753D01*
X78489Y-46641D02*
X78677Y-46641D01*
X78452Y-46753D02*
X78583Y-46360D01*
X78714Y-46753D01*
X79052Y-46753D02*
X78827Y-46753D01*
X78939Y-46753D02*
X78939Y-46360D01*
X78902Y-46416D01*
X78864Y-46453D01*
X78827Y-46472D01*
X79183Y-46360D02*
X79446Y-46360D01*
X79183Y-46753D01*
X79446Y-46753D01*
X79595Y-46603D02*
X79895Y-46603D01*
X80214Y-46547D02*
X80083Y-46547D01*
X80083Y-46753D02*
X80083Y-46360D01*
X80270Y-46360D01*
X80402Y-46735D02*
X80458Y-46753D01*
X80552Y-46753D01*
X80589Y-46735D01*
X80608Y-46716D01*
X80627Y-46678D01*
X80627Y-46641D01*
X80608Y-46603D01*
X80589Y-46585D01*
X80552Y-46566D01*
X80477Y-46547D01*
X80439Y-46528D01*
X80420Y-46510D01*
X80402Y-46472D01*
X80402Y-46435D01*
X80420Y-46397D01*
X80439Y-46378D01*
X80477Y-46360D01*
X80570Y-46360D01*
X80627Y-46378D01*
X80927Y-46547D02*
X80983Y-46566D01*
X81002Y-46585D01*
X81020Y-46622D01*
X81020Y-46678D01*
X81002Y-46716D01*
X80983Y-46735D01*
X80945Y-46753D01*
X80795Y-46753D01*
X80795Y-46360D01*
X80927Y-46360D01*
X80964Y-46378D01*
X80983Y-46397D01*
X81002Y-46435D01*
X81002Y-46472D01*
X80983Y-46510D01*
X80964Y-46528D01*
X80927Y-46547D01*
X80795Y-46547D01*
X81189Y-46603D02*
X81489Y-46603D01*
X81808Y-46547D02*
X81676Y-46547D01*
X81676Y-46753D02*
X81676Y-46360D01*
X81864Y-46360D01*
X82145Y-46547D02*
X82201Y-46566D01*
X82220Y-46585D01*
X82239Y-46622D01*
X82239Y-46678D01*
X82220Y-46716D01*
X82201Y-46735D01*
X82164Y-46753D01*
X82014Y-46753D01*
X82014Y-46360D01*
X82145Y-46360D01*
X82183Y-46378D01*
X82201Y-46397D01*
X82220Y-46435D01*
X82220Y-46472D01*
X82201Y-46510D01*
X82183Y-46528D01*
X82145Y-46547D01*
X82014Y-46547D01*
X82370Y-46360D02*
X82464Y-46753D01*
X82539Y-46472D01*
X82614Y-46753D01*
X82708Y-46360D01*
X82858Y-46603D02*
X83158Y-46603D01*
X83308Y-46360D02*
X83551Y-46360D01*
X83420Y-46510D01*
X83476Y-46510D01*
X83514Y-46528D01*
X83532Y-46547D01*
X83551Y-46585D01*
X83551Y-46678D01*
X83532Y-46716D01*
X83514Y-46735D01*
X83476Y-46753D01*
X83364Y-46753D01*
X83326Y-46735D01*
X83308Y-46716D01*
X83664Y-46360D02*
X83795Y-46753D01*
X83926Y-46360D01*
X84020Y-46360D02*
X84264Y-46360D01*
X84132Y-46510D01*
X84189Y-46510D01*
X84226Y-46528D01*
X84245Y-46547D01*
X84264Y-46585D01*
X84264Y-46678D01*
X84245Y-46716D01*
X84226Y-46735D01*
X84189Y-46753D01*
X84076Y-46753D01*
X84039Y-46735D01*
X84020Y-46716D01*
X78508Y-53391D02*
X78508Y-52997D01*
X78602Y-52997D01*
X78658Y-53016D01*
X78696Y-53054D01*
X78714Y-53091D01*
X78733Y-53166D01*
X78733Y-53222D01*
X78714Y-53297D01*
X78696Y-53335D01*
X78658Y-53372D01*
X78602Y-53391D01*
X78508Y-53391D01*
X78883Y-53035D02*
X78902Y-53016D01*
X78939Y-52997D01*
X79033Y-52997D01*
X79071Y-53016D01*
X79089Y-53035D01*
X79108Y-53072D01*
X79108Y-53110D01*
X79089Y-53166D01*
X78864Y-53391D01*
X79108Y-53391D01*
X77233Y-54391D02*
X77046Y-54391D01*
X77046Y-53997D01*
X77308Y-53997D02*
X77533Y-53997D01*
X77421Y-54391D02*
X77421Y-53997D01*
X77889Y-54354D02*
X77871Y-54372D01*
X77814Y-54391D01*
X77777Y-54391D01*
X77721Y-54372D01*
X77683Y-54335D01*
X77664Y-54297D01*
X77646Y-54222D01*
X77646Y-54166D01*
X77664Y-54091D01*
X77683Y-54054D01*
X77721Y-54016D01*
X77777Y-53997D01*
X77814Y-53997D01*
X77871Y-54016D01*
X77889Y-54035D01*
X78058Y-54241D02*
X78358Y-54241D01*
X78714Y-54129D02*
X78714Y-54391D01*
X78621Y-53979D02*
X78527Y-54260D01*
X78771Y-54260D01*
X79089Y-53997D02*
X79014Y-53997D01*
X78977Y-54016D01*
X78958Y-54035D01*
X78921Y-54091D01*
X78902Y-54166D01*
X78902Y-54316D01*
X78921Y-54354D01*
X78939Y-54372D01*
X78977Y-54391D01*
X79052Y-54391D01*
X79089Y-54372D01*
X79108Y-54354D01*
X79127Y-54316D01*
X79127Y-54222D01*
X79108Y-54185D01*
X79089Y-54166D01*
X79052Y-54147D01*
X78977Y-54147D01*
X78939Y-54166D01*
X78921Y-54185D01*
X78902Y-54222D01*
X79277Y-54035D02*
X79296Y-54016D01*
X79333Y-53997D01*
X79427Y-53997D01*
X79464Y-54016D01*
X79483Y-54035D01*
X79502Y-54072D01*
X79502Y-54110D01*
X79483Y-54166D01*
X79258Y-54391D01*
X79502Y-54391D01*
X79633Y-53997D02*
X79895Y-53997D01*
X79727Y-54391D01*
X80158Y-53997D02*
X80158Y-54279D01*
X80139Y-54335D01*
X80102Y-54372D01*
X80045Y-54391D01*
X80008Y-54391D01*
X80570Y-54391D02*
X80439Y-54204D01*
X80345Y-54391D02*
X80345Y-53997D01*
X80495Y-53997D01*
X80533Y-54016D01*
X80552Y-54035D01*
X80570Y-54072D01*
X80570Y-54129D01*
X80552Y-54166D01*
X80533Y-54185D01*
X80495Y-54204D01*
X80345Y-54204D01*
G54D16*
X82838Y-69806D02*
X82847Y-69815D01*
X82857Y-69843D01*
X82857Y-69862D01*
X82847Y-69890D01*
X82828Y-69909D01*
X82810Y-69918D01*
X82772Y-69928D01*
X82744Y-69928D01*
X82707Y-69918D01*
X82688Y-69909D01*
X82669Y-69890D01*
X82660Y-69862D01*
X82660Y-69843D01*
X82669Y-69815D01*
X82678Y-69806D01*
X82857Y-69712D02*
X82857Y-69674D01*
X82847Y-69656D01*
X82838Y-69646D01*
X82810Y-69628D01*
X82772Y-69618D01*
X82697Y-69618D01*
X82678Y-69628D01*
X82669Y-69637D01*
X82660Y-69656D01*
X82660Y-69693D01*
X82669Y-69712D01*
X82678Y-69721D01*
X82697Y-69731D01*
X82744Y-69731D01*
X82763Y-69721D01*
X82772Y-69712D01*
X82782Y-69693D01*
X82782Y-69656D01*
X82772Y-69637D01*
X82763Y-69628D01*
X82744Y-69618D01*
X79531Y-69821D02*
X79540Y-69830D01*
X79550Y-69858D01*
X79550Y-69877D01*
X79540Y-69905D01*
X79521Y-69924D01*
X79503Y-69933D01*
X79465Y-69943D01*
X79437Y-69943D01*
X79399Y-69933D01*
X79381Y-69924D01*
X79362Y-69905D01*
X79353Y-69877D01*
X79353Y-69858D01*
X79362Y-69830D01*
X79371Y-69821D01*
X79550Y-69633D02*
X79550Y-69746D01*
X79550Y-69690D02*
X79353Y-69690D01*
X79381Y-69708D01*
X79399Y-69727D01*
X79409Y-69746D01*
X79353Y-69511D02*
X79353Y-69493D01*
X79362Y-69474D01*
X79371Y-69464D01*
X79390Y-69455D01*
X79428Y-69446D01*
X79475Y-69446D01*
X79512Y-69455D01*
X79531Y-69464D01*
X79540Y-69474D01*
X79550Y-69493D01*
X79550Y-69511D01*
X79540Y-69530D01*
X79531Y-69539D01*
X79512Y-69549D01*
X79475Y-69558D01*
X79428Y-69558D01*
X79390Y-69549D01*
X79371Y-69539D01*
X79362Y-69530D01*
X79353Y-69511D01*
X93148Y-47399D02*
X92951Y-47399D01*
X92951Y-47352D01*
X92961Y-47324D01*
X92979Y-47305D01*
X92998Y-47296D01*
X93036Y-47286D01*
X93064Y-47286D01*
X93101Y-47296D01*
X93120Y-47305D01*
X93139Y-47324D01*
X93148Y-47352D01*
X93148Y-47399D01*
X93148Y-47099D02*
X93148Y-47211D01*
X93148Y-47155D02*
X92951Y-47155D01*
X92979Y-47174D01*
X92998Y-47193D01*
X93008Y-47211D01*
G54D18*
X79185Y-57287D02*
X79185Y-56606D01*
X79348Y-56606D01*
X79388Y-56638D01*
X79409Y-56671D01*
X79429Y-56736D01*
X79429Y-56833D01*
X79409Y-56898D01*
X79388Y-56930D01*
X79348Y-56963D01*
X79185Y-56963D01*
X79837Y-57287D02*
X79592Y-57287D01*
X79714Y-57287D02*
X79714Y-56606D01*
X79674Y-56703D01*
X79633Y-56768D01*
X79592Y-56801D01*
X80102Y-56606D02*
X80142Y-56606D01*
X80183Y-56638D01*
X80204Y-56671D01*
X80224Y-56736D01*
X80244Y-56865D01*
X80244Y-57028D01*
X80224Y-57157D01*
X80204Y-57222D01*
X80183Y-57255D01*
X80142Y-57287D01*
X80102Y-57287D01*
X80061Y-57255D01*
X80041Y-57222D01*
X80020Y-57157D01*
X80000Y-57028D01*
X80000Y-56865D01*
X80020Y-56736D01*
X80041Y-56671D01*
X80061Y-56638D01*
X80102Y-56606D01*
X65110Y-76614D02*
X65110Y-75933D01*
X65273Y-75933D01*
X65314Y-75965D01*
X65334Y-75998D01*
X65354Y-76062D01*
X65354Y-76160D01*
X65334Y-76225D01*
X65314Y-76257D01*
X65273Y-76289D01*
X65110Y-76289D01*
X65762Y-76614D02*
X65517Y-76614D01*
X65640Y-76614D02*
X65640Y-75933D01*
X65599Y-76030D01*
X65558Y-76095D01*
X65517Y-76127D01*
X66170Y-76614D02*
X65925Y-76614D01*
X66047Y-76614D02*
X66047Y-75933D01*
X66006Y-76030D01*
X65966Y-76095D01*
X65925Y-76127D01*
X92078Y-76633D02*
X92078Y-75952D01*
X92241Y-75952D01*
X92282Y-75985D01*
X92302Y-76017D01*
X92323Y-76082D01*
X92323Y-76179D01*
X92302Y-76244D01*
X92282Y-76277D01*
X92241Y-76309D01*
X92078Y-76309D01*
X92730Y-76633D02*
X92486Y-76633D01*
X92608Y-76633D02*
X92608Y-75952D01*
X92567Y-76050D01*
X92527Y-76115D01*
X92486Y-76147D01*
X92893Y-76017D02*
X92914Y-75985D01*
X92955Y-75952D01*
X93056Y-75952D01*
X93097Y-75985D01*
X93118Y-76017D01*
X93138Y-76082D01*
X93138Y-76147D01*
X93118Y-76244D01*
X92873Y-76633D01*
X93138Y-76633D01*
X66094Y-40669D02*
X66094Y-39988D01*
X66257Y-39988D01*
X66298Y-40020D01*
X66318Y-40053D01*
X66339Y-40118D01*
X66339Y-40215D01*
X66318Y-40280D01*
X66298Y-40312D01*
X66257Y-40345D01*
X66094Y-40345D01*
X66746Y-40669D02*
X66502Y-40669D01*
X66624Y-40669D02*
X66624Y-39988D01*
X66583Y-40085D01*
X66542Y-40150D01*
X66502Y-40182D01*
X66889Y-39988D02*
X67154Y-39988D01*
X67011Y-40247D01*
X67072Y-40247D01*
X67113Y-40280D01*
X67133Y-40312D01*
X67154Y-40377D01*
X67154Y-40539D01*
X67133Y-40604D01*
X67113Y-40636D01*
X67072Y-40669D01*
X66950Y-40669D01*
X66909Y-40636D01*
X66889Y-40604D01*
X91035Y-40669D02*
X91035Y-39988D01*
X91198Y-39988D01*
X91239Y-40020D01*
X91259Y-40053D01*
X91279Y-40118D01*
X91279Y-40215D01*
X91259Y-40280D01*
X91239Y-40312D01*
X91198Y-40345D01*
X91035Y-40345D01*
X91687Y-40669D02*
X91443Y-40669D01*
X91565Y-40669D02*
X91565Y-39988D01*
X91524Y-40085D01*
X91483Y-40150D01*
X91443Y-40182D01*
X92054Y-40215D02*
X92054Y-40669D01*
X91952Y-39955D02*
X91850Y-40442D01*
X92115Y-40442D01*
X66173Y-57523D02*
X66173Y-56842D01*
X66336Y-56842D01*
X66377Y-56875D01*
X66397Y-56907D01*
X66417Y-56972D01*
X66417Y-57069D01*
X66397Y-57134D01*
X66377Y-57166D01*
X66336Y-57199D01*
X66173Y-57199D01*
X66825Y-57523D02*
X66580Y-57523D01*
X66703Y-57523D02*
X66703Y-56842D01*
X66662Y-56939D01*
X66621Y-57004D01*
X66580Y-57037D01*
X67212Y-56842D02*
X67008Y-56842D01*
X66988Y-57166D01*
X67008Y-57134D01*
X67049Y-57102D01*
X67151Y-57102D01*
X67192Y-57134D01*
X67212Y-57166D01*
X67233Y-57231D01*
X67233Y-57393D01*
X67212Y-57458D01*
X67192Y-57491D01*
X67151Y-57523D01*
X67049Y-57523D01*
X67008Y-57491D01*
X66988Y-57458D01*
X88948Y-54000D02*
X88948Y-53319D01*
X89111Y-53319D01*
X89152Y-53351D01*
X89172Y-53383D01*
X89193Y-53448D01*
X89193Y-53546D01*
X89172Y-53610D01*
X89152Y-53643D01*
X89111Y-53675D01*
X88948Y-53675D01*
X89600Y-54000D02*
X89356Y-54000D01*
X89478Y-54000D02*
X89478Y-53319D01*
X89437Y-53416D01*
X89397Y-53481D01*
X89356Y-53513D01*
X89967Y-53319D02*
X89886Y-53319D01*
X89845Y-53351D01*
X89825Y-53383D01*
X89784Y-53481D01*
X89764Y-53610D01*
X89764Y-53870D01*
X89784Y-53935D01*
X89804Y-53967D01*
X89845Y-54000D01*
X89927Y-54000D01*
X89967Y-53967D01*
X89988Y-53935D01*
X90008Y-53870D01*
X90008Y-53708D01*
X89988Y-53643D01*
X89967Y-53610D01*
X89927Y-53578D01*
X89845Y-53578D01*
X89804Y-53610D01*
X89784Y-53643D01*
X89764Y-53708D01*
G54D13*
X81758Y-69536D02*
X81758Y-69738D01*
X81770Y-69762D01*
X81782Y-69774D01*
X81805Y-69786D01*
X81853Y-69786D01*
X81877Y-69774D01*
X81889Y-69762D01*
X81901Y-69738D01*
X81901Y-69536D01*
X81996Y-69536D02*
X82151Y-69536D01*
X82067Y-69631D01*
X82103Y-69631D01*
X82127Y-69643D01*
X82139Y-69655D01*
X82151Y-69678D01*
X82151Y-69738D01*
X82139Y-69762D01*
X82127Y-69774D01*
X82103Y-69786D01*
X82032Y-69786D01*
X82008Y-69774D01*
X81996Y-69762D01*
X81919Y-69765D02*
X81931Y-69729D01*
X81931Y-69670D01*
X81919Y-69646D01*
X81908Y-69634D01*
X81884Y-69622D01*
X81860Y-69622D01*
X81836Y-69634D01*
X81824Y-69646D01*
X81812Y-69670D01*
X81800Y-69717D01*
X81789Y-69741D01*
X81777Y-69753D01*
X81753Y-69765D01*
X81729Y-69765D01*
X81705Y-69753D01*
X81693Y-69741D01*
X81681Y-69717D01*
X81681Y-69658D01*
X81693Y-69622D01*
X81908Y-69372D02*
X81919Y-69384D01*
X81931Y-69420D01*
X81931Y-69443D01*
X81919Y-69479D01*
X81896Y-69503D01*
X81872Y-69515D01*
X81824Y-69527D01*
X81789Y-69527D01*
X81741Y-69515D01*
X81717Y-69503D01*
X81693Y-69479D01*
X81681Y-69443D01*
X81681Y-69420D01*
X81693Y-69384D01*
X81705Y-69372D01*
X81931Y-69134D02*
X81931Y-69277D01*
X81931Y-69205D02*
X81681Y-69205D01*
X81717Y-69229D01*
X81741Y-69253D01*
X81753Y-69277D01*
X81789Y-68991D02*
X81777Y-69015D01*
X81765Y-69027D01*
X81741Y-69039D01*
X81729Y-69039D01*
X81705Y-69027D01*
X81693Y-69015D01*
X81681Y-68991D01*
X81681Y-68943D01*
X81693Y-68920D01*
X81705Y-68908D01*
X81729Y-68896D01*
X81741Y-68896D01*
X81765Y-68908D01*
X81777Y-68920D01*
X81789Y-68943D01*
X81789Y-68991D01*
X81800Y-69015D01*
X81812Y-69027D01*
X81836Y-69039D01*
X81884Y-69039D01*
X81908Y-69027D01*
X81919Y-69015D01*
X81931Y-68991D01*
X81931Y-68943D01*
X81919Y-68920D01*
X81908Y-68908D01*
X81884Y-68896D01*
X81836Y-68896D01*
X81812Y-68908D01*
X81800Y-68920D01*
X81789Y-68943D01*
X81931Y-68777D02*
X81931Y-68729D01*
X81919Y-68705D01*
X81908Y-68693D01*
X81872Y-68670D01*
X81824Y-68658D01*
X81729Y-68658D01*
X81705Y-68670D01*
X81693Y-68681D01*
X81681Y-68705D01*
X81681Y-68753D01*
X81693Y-68777D01*
X81705Y-68789D01*
X81729Y-68801D01*
X81789Y-68801D01*
X81812Y-68789D01*
X81824Y-68777D01*
X81836Y-68753D01*
X81836Y-68705D01*
X81824Y-68681D01*
X81812Y-68670D01*
X81789Y-68658D01*
X81955Y-68610D02*
X81955Y-68420D01*
X81681Y-68384D02*
X81681Y-68229D01*
X81777Y-68312D01*
X81777Y-68277D01*
X81789Y-68253D01*
X81800Y-68241D01*
X81824Y-68229D01*
X81884Y-68229D01*
X81908Y-68241D01*
X81919Y-68253D01*
X81931Y-68277D01*
X81931Y-68348D01*
X81919Y-68372D01*
X81908Y-68384D01*
X81908Y-68122D02*
X81919Y-68110D01*
X81931Y-68122D01*
X81919Y-68134D01*
X81908Y-68122D01*
X81931Y-68122D01*
X81681Y-68027D02*
X81681Y-67872D01*
X81777Y-67955D01*
X81777Y-67920D01*
X81789Y-67896D01*
X81800Y-67884D01*
X81824Y-67872D01*
X81884Y-67872D01*
X81908Y-67884D01*
X81919Y-67896D01*
X81931Y-67920D01*
X81931Y-67991D01*
X81919Y-68015D01*
X81908Y-68027D01*
X78077Y-69496D02*
X78077Y-69699D01*
X78089Y-69722D01*
X78100Y-69734D01*
X78124Y-69746D01*
X78172Y-69746D01*
X78196Y-69734D01*
X78208Y-69722D01*
X78219Y-69699D01*
X78219Y-69496D01*
X78446Y-69580D02*
X78446Y-69746D01*
X78386Y-69484D02*
X78327Y-69663D01*
X78481Y-69663D01*
X78238Y-69725D02*
X78250Y-69690D01*
X78250Y-69630D01*
X78238Y-69606D01*
X78226Y-69595D01*
X78203Y-69583D01*
X78179Y-69583D01*
X78155Y-69595D01*
X78143Y-69606D01*
X78131Y-69630D01*
X78119Y-69678D01*
X78107Y-69702D01*
X78096Y-69714D01*
X78072Y-69725D01*
X78048Y-69725D01*
X78024Y-69714D01*
X78012Y-69702D01*
X78000Y-69678D01*
X78000Y-69618D01*
X78012Y-69583D01*
X78226Y-69333D02*
X78238Y-69345D01*
X78250Y-69380D01*
X78250Y-69404D01*
X78238Y-69440D01*
X78215Y-69464D01*
X78191Y-69475D01*
X78143Y-69487D01*
X78107Y-69487D01*
X78060Y-69475D01*
X78036Y-69464D01*
X78012Y-69440D01*
X78000Y-69404D01*
X78000Y-69380D01*
X78012Y-69345D01*
X78024Y-69333D01*
X78250Y-69095D02*
X78250Y-69237D01*
X78250Y-69166D02*
X78000Y-69166D01*
X78036Y-69190D01*
X78060Y-69214D01*
X78072Y-69237D01*
X78107Y-68952D02*
X78096Y-68975D01*
X78084Y-68987D01*
X78060Y-68999D01*
X78048Y-68999D01*
X78024Y-68987D01*
X78012Y-68975D01*
X78000Y-68952D01*
X78000Y-68904D01*
X78012Y-68880D01*
X78024Y-68868D01*
X78048Y-68856D01*
X78060Y-68856D01*
X78084Y-68868D01*
X78096Y-68880D01*
X78107Y-68904D01*
X78107Y-68952D01*
X78119Y-68975D01*
X78131Y-68987D01*
X78155Y-68999D01*
X78203Y-68999D01*
X78226Y-68987D01*
X78238Y-68975D01*
X78250Y-68952D01*
X78250Y-68904D01*
X78238Y-68880D01*
X78226Y-68868D01*
X78203Y-68856D01*
X78155Y-68856D01*
X78131Y-68868D01*
X78119Y-68880D01*
X78107Y-68904D01*
X78250Y-68737D02*
X78250Y-68690D01*
X78238Y-68666D01*
X78226Y-68654D01*
X78191Y-68630D01*
X78143Y-68618D01*
X78048Y-68618D01*
X78024Y-68630D01*
X78012Y-68642D01*
X78000Y-68666D01*
X78000Y-68714D01*
X78012Y-68737D01*
X78024Y-68749D01*
X78048Y-68761D01*
X78107Y-68761D01*
X78131Y-68749D01*
X78143Y-68737D01*
X78155Y-68714D01*
X78155Y-68666D01*
X78143Y-68642D01*
X78131Y-68630D01*
X78107Y-68618D01*
X78274Y-68571D02*
X78274Y-68380D01*
X78000Y-68345D02*
X78000Y-68190D01*
X78096Y-68273D01*
X78096Y-68237D01*
X78107Y-68214D01*
X78119Y-68202D01*
X78143Y-68190D01*
X78203Y-68190D01*
X78226Y-68202D01*
X78238Y-68214D01*
X78250Y-68237D01*
X78250Y-68309D01*
X78238Y-68333D01*
X78226Y-68345D01*
X78226Y-68083D02*
X78238Y-68071D01*
X78250Y-68083D01*
X78238Y-68095D01*
X78226Y-68083D01*
X78250Y-68083D01*
X78000Y-67987D02*
X78000Y-67833D01*
X78096Y-67916D01*
X78096Y-67880D01*
X78107Y-67856D01*
X78119Y-67845D01*
X78143Y-67833D01*
X78203Y-67833D01*
X78226Y-67845D01*
X78238Y-67856D01*
X78250Y-67880D01*
X78250Y-67952D01*
X78238Y-67975D01*
X78226Y-67987D01*
G54D18*
X65830Y-46425D02*
X65149Y-46425D01*
X65149Y-46262D01*
X65182Y-46221D01*
X65214Y-46201D01*
X65279Y-46180D01*
X65376Y-46180D01*
X65441Y-46201D01*
X65474Y-46221D01*
X65506Y-46262D01*
X65506Y-46425D01*
X65830Y-45773D02*
X65830Y-46017D01*
X65830Y-45895D02*
X65149Y-45895D01*
X65247Y-45936D01*
X65311Y-45976D01*
X65344Y-46017D01*
X65149Y-45630D02*
X65149Y-45345D01*
X65830Y-45528D01*
G54D14*
G54D16*
X92570Y-52784D02*
X92556Y-52813D01*
X92528Y-52841D01*
X92485Y-52884D01*
X92470Y-52913D01*
X92470Y-52941D01*
X92542Y-52927D02*
X92528Y-52956D01*
X92499Y-52984D01*
X92442Y-52999D01*
X92342Y-52999D01*
X92285Y-52984D01*
X92256Y-52956D01*
X92242Y-52927D01*
X92242Y-52870D01*
X92256Y-52841D01*
X92285Y-52813D01*
X92342Y-52799D01*
X92442Y-52799D01*
X92499Y-52813D01*
X92528Y-52841D01*
X92542Y-52870D01*
X92542Y-52927D01*
X92242Y-52699D02*
X92242Y-52499D01*
X92542Y-52627D01*
G54D17*
X91400Y-52875D02*
X91400Y-52678D01*
X91513Y-52875D01*
X91513Y-52678D01*
X91607Y-52875D02*
X91607Y-52678D01*
X91682Y-52678D01*
X91701Y-52687D01*
X91710Y-52696D01*
X91719Y-52715D01*
X91719Y-52743D01*
X91710Y-52762D01*
X91701Y-52771D01*
X91682Y-52781D01*
X91607Y-52781D01*
X91804Y-52875D02*
X91804Y-52678D01*
X91916Y-52875D01*
X91916Y-52678D01*
M02*
