G04 (created by PCBNEW (2013-07-07 BZR 4022)-stable) date 03/03/2017 9:59:17 AM*
%MOIN*%
G04 Gerber Fmt 3.4, Leading zero omitted, Abs format*
%FSLAX34Y34*%
G01*
G70*
G90*
G04 APERTURE LIST*
%ADD10C,0.00590551*%
%ADD11R,0.08X0.06*%
%ADD12R,0.055X0.055*%
%ADD13C,0.055*%
%ADD14C,0.0295276*%
%ADD15C,0.0787402*%
%ADD16C,0.0688976*%
%ADD17R,0.063X0.071*%
%ADD18R,0.071X0.063*%
%ADD19C,0.035*%
%ADD20C,0.015748*%
%ADD21C,0.01*%
G04 APERTURE END LIST*
G54D10*
G54D11*
X89803Y-60334D03*
X89803Y-61634D03*
X84212Y-60334D03*
X84212Y-61634D03*
X78720Y-60353D03*
X78720Y-61653D03*
X72322Y-60353D03*
X72322Y-61653D03*
X66850Y-60334D03*
X66850Y-61634D03*
G54D12*
X67401Y-75590D03*
G54D13*
X68401Y-75590D03*
X69401Y-75590D03*
X70401Y-75590D03*
X71401Y-75590D03*
X72401Y-75590D03*
G54D12*
X86122Y-76043D03*
G54D13*
X87122Y-76043D03*
X88122Y-76043D03*
X89122Y-76043D03*
X90122Y-76043D03*
X91122Y-76043D03*
G54D12*
X89224Y-40334D03*
G54D13*
X90224Y-40334D03*
G54D12*
X68905Y-40354D03*
G54D13*
X67905Y-40354D03*
G54D12*
X73870Y-77362D03*
G54D13*
X74870Y-77362D03*
X75870Y-77362D03*
X76870Y-77362D03*
X77870Y-77362D03*
X78870Y-77362D03*
X79870Y-77362D03*
X80870Y-77362D03*
X81870Y-77362D03*
X82870Y-77362D03*
X83870Y-77362D03*
X84870Y-77362D03*
G54D12*
X75196Y-70925D03*
X65472Y-71889D03*
X75196Y-72224D03*
X65472Y-70433D03*
G54D14*
X73996Y-49862D03*
X74586Y-49862D03*
X75177Y-49862D03*
X75767Y-49862D03*
X76358Y-49862D03*
X76948Y-49862D03*
X77539Y-49862D03*
X78129Y-49862D03*
X78720Y-49862D03*
X79311Y-49862D03*
X79901Y-49862D03*
X80492Y-49862D03*
X81082Y-49862D03*
X81673Y-49862D03*
X82263Y-49862D03*
X82854Y-49862D03*
X83444Y-49862D03*
G54D15*
X85531Y-49192D03*
X71909Y-49192D03*
G54D16*
X75799Y-56232D03*
X76799Y-56232D03*
X77799Y-56232D03*
X78799Y-56232D03*
X79799Y-56232D03*
X80799Y-56232D03*
X81799Y-56232D03*
X82799Y-56232D03*
X82799Y-52232D03*
X81799Y-52232D03*
X80799Y-52232D03*
X79799Y-52232D03*
X78799Y-52232D03*
X77799Y-52232D03*
X76799Y-52232D03*
X75799Y-52232D03*
G54D17*
X81497Y-45236D03*
X82597Y-45236D03*
X80215Y-45236D03*
X79115Y-45236D03*
X76654Y-45255D03*
X77754Y-45255D03*
G54D18*
X76003Y-47479D03*
X76003Y-46379D03*
X74960Y-47479D03*
X74960Y-46379D03*
X73937Y-47479D03*
X73937Y-46379D03*
X72933Y-47459D03*
X72933Y-46359D03*
X71889Y-47459D03*
X71889Y-46359D03*
G54D12*
X79704Y-58011D03*
X65413Y-77342D03*
X92775Y-77342D03*
X65413Y-40334D03*
X92775Y-40334D03*
X66692Y-58248D03*
X89468Y-54724D03*
X66555Y-46405D03*
G54D13*
X66555Y-45405D03*
G54D19*
X81889Y-69862D03*
X85039Y-42440D03*
X69212Y-50531D03*
X69291Y-42460D03*
X91732Y-42145D03*
X91732Y-51555D03*
X91732Y-58759D03*
X81850Y-59114D03*
X81870Y-75866D03*
X70039Y-69862D03*
X69881Y-73622D03*
X68405Y-73681D03*
X68366Y-77066D03*
X80866Y-74822D03*
X87893Y-74842D03*
X87874Y-67362D03*
X79862Y-71358D03*
X83818Y-71377D03*
X84842Y-68031D03*
X79114Y-71692D03*
X84153Y-71692D03*
X84921Y-68484D03*
X75905Y-75531D03*
X78838Y-75511D03*
X78818Y-72007D03*
X84468Y-72007D03*
X85118Y-68897D03*
X74862Y-75118D03*
X78523Y-75177D03*
X78503Y-72322D03*
X84783Y-72303D03*
X85236Y-69350D03*
X73877Y-74783D03*
X78188Y-74803D03*
X78208Y-72637D03*
X85118Y-72755D03*
X85314Y-70354D03*
X88799Y-66811D03*
X88956Y-74468D03*
X73385Y-74468D03*
X73307Y-69448D03*
X70944Y-65964D03*
X71397Y-66377D03*
X67303Y-77047D03*
X67401Y-73248D03*
X68838Y-73267D03*
X68956Y-65905D03*
X69350Y-57696D03*
X69291Y-66358D03*
X69665Y-57027D03*
X69507Y-66889D03*
X69980Y-56732D03*
X69724Y-67401D03*
X81377Y-57893D03*
X81377Y-63838D03*
X70295Y-63838D03*
X70098Y-67913D03*
X83228Y-57972D03*
X83228Y-63503D03*
X70610Y-63523D03*
X70433Y-68425D03*
X66141Y-53799D03*
X66259Y-65826D03*
X67224Y-65826D03*
X67421Y-70413D03*
X67578Y-50137D03*
X67559Y-69921D03*
X65472Y-56240D03*
X65492Y-59330D03*
X73011Y-59704D03*
X72578Y-67913D03*
X65137Y-52460D03*
X65157Y-58996D03*
X73385Y-59448D03*
X73366Y-67421D03*
X65826Y-55039D03*
X65944Y-66141D03*
X66909Y-66240D03*
X67185Y-70925D03*
X89271Y-71870D03*
X89114Y-73523D03*
X70393Y-73405D03*
X70433Y-68956D03*
X66830Y-62618D03*
X89173Y-74921D03*
X92303Y-74822D03*
X92381Y-66338D03*
X90118Y-74566D03*
X91988Y-74448D03*
X92007Y-66870D03*
X79035Y-69921D03*
X79035Y-64822D03*
X90118Y-64822D03*
X90118Y-70275D03*
X68090Y-57342D03*
X70236Y-56338D03*
X70216Y-41200D03*
X67893Y-41220D03*
X67913Y-60314D03*
X67972Y-64507D03*
X89783Y-64448D03*
X89803Y-69862D03*
X66594Y-60314D03*
X88011Y-66338D03*
X76870Y-74153D03*
X91397Y-72854D03*
X91161Y-74153D03*
X73031Y-74173D03*
X73031Y-71988D03*
X91673Y-72381D03*
X91299Y-63720D03*
X87401Y-63858D03*
X87204Y-48070D03*
X84862Y-73838D03*
X89586Y-72342D03*
X89507Y-73838D03*
X72696Y-73838D03*
X72657Y-72421D03*
X92854Y-53228D03*
X92854Y-50826D03*
X92874Y-67362D03*
X90905Y-47539D03*
X90944Y-53267D03*
X76004Y-66417D03*
X81771Y-54960D03*
X73759Y-54980D03*
X73838Y-59311D03*
X75807Y-59291D03*
X80728Y-59192D03*
X76437Y-59015D03*
X76515Y-67637D03*
X77834Y-55295D03*
X74153Y-55255D03*
X74035Y-64133D03*
X76909Y-64153D03*
X76653Y-68917D03*
X78858Y-57736D03*
X80787Y-57086D03*
X82440Y-57066D03*
X82440Y-57657D03*
X84291Y-56240D03*
X84232Y-57677D03*
X76850Y-57696D03*
X73287Y-56122D03*
X73287Y-57716D03*
X81200Y-69330D03*
X81318Y-72992D03*
X85472Y-72992D03*
X85452Y-70885D03*
X72125Y-60354D03*
X71574Y-60905D03*
X71496Y-65196D03*
X89468Y-65137D03*
X89488Y-69330D03*
X78307Y-60374D03*
X93169Y-59488D03*
X93070Y-68838D03*
X83740Y-60334D03*
X82598Y-60708D03*
X82598Y-64153D03*
X89094Y-64153D03*
X89153Y-68346D03*
X89431Y-60317D03*
X91594Y-60236D03*
X91633Y-67854D03*
X82283Y-51279D03*
X85787Y-51299D03*
X85787Y-71338D03*
X86102Y-71850D03*
X86122Y-50334D03*
X83444Y-50649D03*
X86417Y-50649D03*
X86397Y-72342D03*
X68543Y-48779D03*
X68622Y-43031D03*
X90433Y-43051D03*
X90236Y-71318D03*
X81673Y-50964D03*
X88307Y-51043D03*
X88484Y-72834D03*
X77874Y-73149D03*
X70826Y-73208D03*
X70708Y-72401D03*
X77322Y-69389D03*
X77303Y-68366D03*
X77362Y-65511D03*
X92342Y-41515D03*
X92539Y-65531D03*
X80807Y-65531D03*
X80767Y-68484D03*
X80452Y-75177D03*
X83897Y-75118D03*
G54D20*
X81889Y-69862D02*
X81870Y-69881D01*
X80492Y-49862D02*
X80492Y-49055D01*
X85039Y-45275D02*
X85039Y-42440D01*
X84153Y-46161D02*
X85039Y-45275D01*
X83385Y-46161D02*
X84153Y-46161D01*
X80492Y-49055D02*
X83385Y-46161D01*
X91732Y-51555D02*
X91732Y-42145D01*
X69212Y-42539D02*
X69212Y-50531D01*
X69291Y-42460D02*
X69212Y-42539D01*
X91732Y-58759D02*
X91732Y-51555D01*
X81870Y-75866D02*
X81870Y-69881D01*
X81870Y-69881D02*
X81870Y-59133D01*
X81870Y-59133D02*
X81850Y-59114D01*
X81870Y-75866D02*
X81870Y-77362D01*
X68401Y-75590D02*
X68401Y-73685D01*
X70039Y-73464D02*
X70039Y-69862D01*
X69881Y-73622D02*
X70039Y-73464D01*
X68401Y-73685D02*
X68405Y-73681D01*
G54D21*
X68401Y-75590D02*
X68401Y-77031D01*
X68401Y-77031D02*
X68366Y-77066D01*
X80870Y-74826D02*
X80870Y-77362D01*
X80866Y-74822D02*
X80870Y-74826D01*
X87893Y-67381D02*
X87893Y-74842D01*
X87874Y-67362D02*
X87893Y-67381D01*
X79870Y-71366D02*
X79870Y-77362D01*
X79862Y-71358D02*
X79870Y-71366D01*
X83818Y-69055D02*
X83818Y-71377D01*
X84842Y-68031D02*
X83818Y-69055D01*
X79173Y-77059D02*
X78870Y-77362D01*
X79173Y-71751D02*
X79173Y-77059D01*
X79114Y-71692D02*
X79173Y-71751D01*
X84153Y-69251D02*
X84153Y-71692D01*
X84921Y-68484D02*
X84153Y-69251D01*
X75870Y-75566D02*
X75870Y-77362D01*
X75905Y-75531D02*
X75870Y-75566D01*
X78838Y-72027D02*
X78838Y-75511D01*
X78818Y-72007D02*
X78838Y-72027D01*
X84468Y-69547D02*
X84468Y-72007D01*
X85118Y-68897D02*
X84468Y-69547D01*
X74870Y-75125D02*
X74870Y-77362D01*
X74862Y-75118D02*
X74870Y-75125D01*
X78523Y-72342D02*
X78523Y-75177D01*
X78503Y-72322D02*
X78523Y-72342D01*
X84783Y-69803D02*
X84783Y-72303D01*
X85236Y-69350D02*
X84783Y-69803D01*
X73870Y-74791D02*
X73870Y-77362D01*
X73877Y-74783D02*
X73870Y-74791D01*
X78188Y-72657D02*
X78188Y-74803D01*
X78208Y-72637D02*
X78188Y-72657D01*
X85118Y-70551D02*
X85118Y-72755D01*
X85314Y-70354D02*
X85118Y-70551D01*
X88799Y-74311D02*
X88799Y-66811D01*
X88956Y-74468D02*
X88799Y-74311D01*
X73385Y-69527D02*
X73385Y-74468D01*
X73307Y-69448D02*
X73385Y-69527D01*
X71141Y-74850D02*
X70401Y-75590D01*
X71141Y-66732D02*
X71141Y-74850D01*
X71062Y-66653D02*
X71141Y-66732D01*
X71062Y-66082D02*
X71062Y-66653D01*
X70944Y-65964D02*
X71062Y-66082D01*
X71401Y-66854D02*
X71401Y-75590D01*
X71397Y-66377D02*
X71401Y-66854D01*
X67401Y-75590D02*
X67401Y-76948D01*
X67401Y-76948D02*
X67303Y-77047D01*
X67401Y-73248D02*
X67401Y-75590D01*
X68838Y-66023D02*
X68838Y-73267D01*
X68956Y-65905D02*
X68838Y-66023D01*
X69350Y-66299D02*
X69350Y-57696D01*
X69291Y-66358D02*
X69350Y-66299D01*
X69665Y-66732D02*
X69665Y-57027D01*
X69507Y-66889D02*
X69665Y-66732D01*
X69980Y-67145D02*
X69980Y-56732D01*
X69724Y-67401D02*
X69980Y-67145D01*
X81377Y-63464D02*
X81377Y-57893D01*
X81377Y-63838D02*
X81377Y-63464D01*
X70295Y-67716D02*
X70295Y-63838D01*
X70098Y-67913D02*
X70295Y-67716D01*
X83228Y-63228D02*
X83228Y-57972D01*
X83228Y-63503D02*
X83228Y-63228D01*
X70610Y-68248D02*
X70610Y-63523D01*
X70433Y-68425D02*
X70610Y-68248D01*
X66141Y-65708D02*
X66141Y-53799D01*
X66259Y-65826D02*
X66141Y-65708D01*
X67224Y-70216D02*
X67224Y-65826D01*
X67421Y-70413D02*
X67224Y-70216D01*
X67578Y-69901D02*
X67578Y-50137D01*
X67559Y-69921D02*
X67578Y-69901D01*
X65472Y-59311D02*
X65472Y-56240D01*
X65492Y-59330D02*
X65472Y-59311D01*
X73011Y-67480D02*
X73011Y-59704D01*
X72578Y-67913D02*
X73011Y-67480D01*
X65137Y-58976D02*
X65137Y-52460D01*
X65157Y-58996D02*
X65137Y-58976D01*
X73385Y-67401D02*
X73385Y-59448D01*
X73366Y-67421D02*
X73385Y-67401D01*
X65826Y-66023D02*
X65826Y-55039D01*
X65944Y-66141D02*
X65826Y-66023D01*
X66909Y-70649D02*
X66909Y-66240D01*
X67185Y-70925D02*
X66909Y-70649D01*
X89271Y-73366D02*
X89271Y-71870D01*
X89114Y-73523D02*
X89271Y-73366D01*
X70393Y-68996D02*
X70393Y-73405D01*
X70433Y-68956D02*
X70393Y-68996D01*
X66850Y-61634D02*
X66850Y-62598D01*
X66850Y-62598D02*
X66830Y-62618D01*
X89122Y-74972D02*
X89122Y-76043D01*
X89173Y-74921D02*
X89122Y-74972D01*
X92303Y-66417D02*
X92303Y-74822D01*
X92381Y-66338D02*
X92303Y-66417D01*
X90122Y-74570D02*
X90122Y-76043D01*
X90118Y-74566D02*
X90122Y-74570D01*
X91988Y-66889D02*
X91988Y-74448D01*
X92007Y-66870D02*
X91988Y-66889D01*
X79035Y-64822D02*
X79035Y-69921D01*
X90118Y-70275D02*
X90118Y-64822D01*
X67905Y-40354D02*
X67905Y-41208D01*
X67913Y-57519D02*
X67913Y-60314D01*
X68090Y-57342D02*
X67913Y-57519D01*
X70236Y-41220D02*
X70236Y-56338D01*
X70216Y-41200D02*
X70236Y-41220D01*
X67905Y-41208D02*
X67893Y-41220D01*
X67913Y-64448D02*
X67913Y-60314D01*
X67972Y-64507D02*
X67913Y-64448D01*
X89783Y-69842D02*
X89783Y-64448D01*
X89803Y-69862D02*
X89783Y-69842D01*
X66594Y-60314D02*
X66613Y-60334D01*
X66613Y-60334D02*
X66850Y-60334D01*
X86122Y-75314D02*
X86122Y-76043D01*
X86830Y-74606D02*
X86122Y-75314D01*
X86830Y-67519D02*
X86830Y-74606D01*
X88011Y-66338D02*
X86830Y-67519D01*
X76870Y-77362D02*
X76870Y-74153D01*
X91397Y-73917D02*
X91397Y-72854D01*
X91161Y-74153D02*
X91397Y-73917D01*
X73031Y-71988D02*
X73031Y-74173D01*
X91240Y-71948D02*
X91673Y-72381D01*
X91240Y-63779D02*
X91240Y-71948D01*
X91299Y-63720D02*
X91240Y-63779D01*
X87401Y-48267D02*
X87401Y-63858D01*
X87204Y-48070D02*
X87401Y-48267D01*
X84870Y-77362D02*
X84870Y-73846D01*
X84870Y-73846D02*
X84862Y-73838D01*
X89586Y-73759D02*
X89586Y-72342D01*
X89507Y-73838D02*
X89586Y-73759D01*
X72696Y-72460D02*
X72696Y-73838D01*
X72657Y-72421D02*
X72696Y-72460D01*
X76003Y-47479D02*
X76003Y-48661D01*
X76358Y-49015D02*
X76358Y-49862D01*
X76003Y-48661D02*
X76358Y-49015D01*
X74960Y-47479D02*
X74960Y-48503D01*
X75767Y-49311D02*
X75767Y-49862D01*
X74960Y-48503D02*
X75767Y-49311D01*
X73937Y-47479D02*
X73937Y-48228D01*
X75177Y-49468D02*
X75177Y-49862D01*
X73937Y-48228D02*
X75177Y-49468D01*
X71889Y-47459D02*
X71889Y-47893D01*
X73996Y-49429D02*
X73996Y-49862D01*
X72716Y-48149D02*
X73996Y-49429D01*
X72145Y-48149D02*
X72716Y-48149D01*
X71889Y-47893D02*
X72145Y-48149D01*
X72933Y-47459D02*
X72933Y-48051D01*
X74586Y-49271D02*
X74586Y-49862D01*
X74370Y-49055D02*
X74586Y-49271D01*
X73937Y-49055D02*
X74370Y-49055D01*
X72933Y-48051D02*
X73937Y-49055D01*
X77754Y-45255D02*
X77754Y-48603D01*
X77539Y-48818D02*
X77539Y-49862D01*
X77754Y-48603D02*
X77539Y-48818D01*
X76654Y-45255D02*
X76654Y-45709D01*
X76988Y-49822D02*
X76948Y-49862D01*
X76988Y-46043D02*
X76988Y-49822D01*
X76654Y-45709D02*
X76988Y-46043D01*
X79115Y-45236D02*
X79115Y-47459D01*
X78129Y-48444D02*
X78129Y-49862D01*
X79115Y-47459D02*
X78129Y-48444D01*
X92854Y-67342D02*
X92854Y-53228D01*
X92854Y-53228D02*
X92854Y-50826D01*
X92874Y-67362D02*
X92854Y-67342D01*
X90905Y-53228D02*
X90905Y-47539D01*
X90944Y-53267D02*
X90905Y-53228D01*
X81799Y-56232D02*
X81799Y-54988D01*
X81771Y-54960D02*
X81799Y-54988D01*
X73759Y-59232D02*
X73759Y-54980D01*
X73838Y-59311D02*
X73759Y-59232D01*
X75807Y-66220D02*
X75807Y-59291D01*
X75807Y-66220D02*
X76004Y-66417D01*
X79799Y-56688D02*
X79799Y-56232D01*
X80413Y-57303D02*
X79799Y-56688D01*
X80413Y-58877D02*
X80413Y-57303D01*
X80728Y-59192D02*
X80413Y-58877D01*
X76437Y-67559D02*
X76437Y-59015D01*
X76515Y-67637D02*
X76437Y-67559D01*
X77799Y-55330D02*
X77799Y-56232D01*
X77834Y-55295D02*
X77799Y-55330D01*
X74153Y-64015D02*
X74153Y-55255D01*
X74035Y-64133D02*
X74153Y-64015D01*
X76909Y-68661D02*
X76909Y-64153D01*
X76653Y-68917D02*
X76909Y-68661D01*
X78799Y-57677D02*
X78799Y-56232D01*
X78858Y-57736D02*
X78799Y-57677D01*
X80799Y-57074D02*
X80799Y-56232D01*
X80787Y-57086D02*
X80799Y-57074D01*
X82440Y-57657D02*
X82440Y-57066D01*
X84291Y-57618D02*
X84291Y-56240D01*
X84232Y-57677D02*
X84291Y-57618D01*
X76799Y-57645D02*
X76799Y-56232D01*
X76850Y-57696D02*
X76799Y-57645D01*
X80215Y-45236D02*
X80215Y-47264D01*
X78720Y-48503D02*
X78720Y-49862D01*
X78838Y-48385D02*
X78720Y-48503D01*
X79094Y-48385D02*
X78838Y-48385D01*
X80215Y-47264D02*
X79094Y-48385D01*
X73287Y-57716D02*
X73287Y-56122D01*
X81497Y-45236D02*
X81497Y-47046D01*
X79311Y-48838D02*
X79311Y-49862D01*
X79547Y-48602D02*
X79311Y-48838D01*
X79940Y-48602D02*
X79547Y-48602D01*
X81497Y-47046D02*
X79940Y-48602D01*
X81200Y-72874D02*
X81200Y-69330D01*
X81318Y-72992D02*
X81200Y-72874D01*
X85472Y-70905D02*
X85472Y-72992D01*
X85452Y-70885D02*
X85472Y-70905D01*
X72126Y-60353D02*
X72322Y-60353D01*
X72125Y-60354D02*
X72126Y-60353D01*
X71574Y-65118D02*
X71574Y-60905D01*
X71496Y-65196D02*
X71574Y-65118D01*
X89468Y-69311D02*
X89468Y-65137D01*
X89488Y-69330D02*
X89468Y-69311D01*
X78327Y-60353D02*
X78720Y-60353D01*
X78307Y-60374D02*
X78327Y-60353D01*
X93169Y-68740D02*
X93169Y-59488D01*
X93070Y-68838D02*
X93169Y-68740D01*
X83740Y-60334D02*
X84212Y-60334D01*
X83740Y-60334D02*
X83740Y-60334D01*
X82598Y-64153D02*
X82598Y-60708D01*
X89094Y-68287D02*
X89094Y-64153D01*
X89153Y-68346D02*
X89094Y-68287D01*
X89448Y-60334D02*
X89803Y-60334D01*
X89431Y-60317D02*
X89448Y-60334D01*
X91594Y-67814D02*
X91594Y-60236D01*
X91633Y-67854D02*
X91594Y-67814D01*
X82263Y-51259D02*
X82263Y-49862D01*
X82283Y-51279D02*
X82263Y-51259D01*
X85787Y-71338D02*
X85787Y-51299D01*
X86102Y-50354D02*
X86102Y-71850D01*
X86122Y-50334D02*
X86102Y-50354D01*
X83444Y-50649D02*
X83444Y-49862D01*
X86417Y-72322D02*
X86417Y-50649D01*
X86397Y-72342D02*
X86417Y-72322D01*
X68543Y-43110D02*
X68543Y-48779D01*
X68622Y-43031D02*
X68543Y-43110D01*
X90433Y-71122D02*
X90433Y-43051D01*
X90236Y-71318D02*
X90433Y-71122D01*
X81673Y-50964D02*
X81673Y-49862D01*
X88405Y-51141D02*
X88307Y-51043D01*
X88405Y-72755D02*
X88405Y-51141D01*
X88484Y-72834D02*
X88405Y-72755D01*
X77870Y-77362D02*
X77870Y-73153D01*
X77870Y-73153D02*
X77874Y-73149D01*
X70826Y-72519D02*
X70826Y-73208D01*
X70708Y-72401D02*
X70826Y-72519D01*
G54D20*
X77303Y-68366D02*
X77303Y-69370D01*
X77303Y-69370D02*
X77322Y-69389D01*
X77303Y-65570D02*
X77303Y-68366D01*
X77362Y-65511D02*
X77303Y-65570D01*
X80767Y-68484D02*
X80767Y-65570D01*
X92342Y-65334D02*
X92342Y-41515D01*
X92539Y-65531D02*
X92342Y-65334D01*
X80767Y-65570D02*
X80807Y-65531D01*
X83870Y-77362D02*
X83870Y-75145D01*
X80511Y-68740D02*
X80767Y-68484D01*
X80511Y-75118D02*
X80511Y-68740D01*
X80452Y-75177D02*
X80511Y-75118D01*
X83870Y-75145D02*
X83897Y-75118D01*
G54D10*
G36*
X67278Y-65401D02*
X67140Y-65401D01*
X66983Y-65466D01*
X66864Y-65585D01*
X66799Y-65741D01*
X66799Y-65825D01*
X66684Y-65873D01*
X66684Y-65742D01*
X66620Y-65586D01*
X66500Y-65466D01*
X66441Y-65442D01*
X66441Y-62184D01*
X66499Y-62184D01*
X66737Y-62184D01*
X66800Y-62121D01*
X66800Y-61684D01*
X66792Y-61684D01*
X66792Y-61584D01*
X66800Y-61584D01*
X66800Y-61146D01*
X66737Y-61084D01*
X66499Y-61084D01*
X66441Y-61084D01*
X66441Y-60884D01*
X66499Y-60884D01*
X67278Y-60884D01*
X67278Y-61084D01*
X67200Y-61084D01*
X66962Y-61084D01*
X66900Y-61146D01*
X66900Y-61584D01*
X66908Y-61584D01*
X66908Y-61684D01*
X66900Y-61684D01*
X66900Y-62121D01*
X66962Y-62184D01*
X67200Y-62184D01*
X67278Y-62184D01*
X67278Y-65401D01*
X67278Y-65401D01*
G37*
G54D21*
X67278Y-65401D02*
X67140Y-65401D01*
X66983Y-65466D01*
X66864Y-65585D01*
X66799Y-65741D01*
X66799Y-65825D01*
X66684Y-65873D01*
X66684Y-65742D01*
X66620Y-65586D01*
X66500Y-65466D01*
X66441Y-65442D01*
X66441Y-62184D01*
X66499Y-62184D01*
X66737Y-62184D01*
X66800Y-62121D01*
X66800Y-61684D01*
X66792Y-61684D01*
X66792Y-61584D01*
X66800Y-61584D01*
X66800Y-61146D01*
X66737Y-61084D01*
X66499Y-61084D01*
X66441Y-61084D01*
X66441Y-60884D01*
X66499Y-60884D01*
X67278Y-60884D01*
X67278Y-61084D01*
X67200Y-61084D01*
X66962Y-61084D01*
X66900Y-61146D01*
X66900Y-61584D01*
X66908Y-61584D01*
X66908Y-61684D01*
X66900Y-61684D01*
X66900Y-62121D01*
X66962Y-62184D01*
X67200Y-62184D01*
X67278Y-62184D01*
X67278Y-65401D01*
G54D10*
G36*
X93096Y-78057D02*
X92725Y-78057D01*
X92725Y-77805D01*
X92725Y-77392D01*
X92725Y-77292D01*
X92725Y-76880D01*
X92663Y-76817D01*
X92451Y-76817D01*
X92359Y-76855D01*
X92288Y-76925D01*
X92250Y-77017D01*
X92250Y-77117D01*
X92250Y-77230D01*
X92313Y-77292D01*
X92725Y-77292D01*
X92725Y-77392D01*
X92313Y-77392D01*
X92250Y-77455D01*
X92250Y-77568D01*
X92250Y-77667D01*
X92288Y-77759D01*
X92359Y-77829D01*
X92451Y-77867D01*
X92663Y-77867D01*
X92725Y-77805D01*
X92725Y-78057D01*
X91647Y-78057D01*
X91647Y-75939D01*
X91567Y-75746D01*
X91419Y-75598D01*
X91226Y-75518D01*
X91018Y-75518D01*
X90825Y-75597D01*
X90677Y-75745D01*
X90622Y-75878D01*
X90567Y-75746D01*
X90422Y-75600D01*
X90422Y-74864D01*
X90478Y-74807D01*
X90543Y-74651D01*
X90543Y-74482D01*
X90478Y-74326D01*
X90359Y-74206D01*
X90203Y-74142D01*
X90033Y-74141D01*
X89877Y-74206D01*
X89758Y-74325D01*
X89693Y-74482D01*
X89693Y-74651D01*
X89757Y-74807D01*
X89822Y-74871D01*
X89822Y-75600D01*
X89677Y-75745D01*
X89622Y-75878D01*
X89567Y-75746D01*
X89422Y-75600D01*
X89422Y-75273D01*
X89533Y-75162D01*
X89598Y-75006D01*
X89598Y-74837D01*
X89533Y-74680D01*
X89414Y-74561D01*
X89381Y-74547D01*
X89381Y-74384D01*
X89317Y-74228D01*
X89302Y-74213D01*
X89422Y-74263D01*
X89592Y-74263D01*
X89748Y-74199D01*
X89867Y-74079D01*
X89932Y-73923D01*
X89932Y-73754D01*
X89886Y-73642D01*
X89886Y-72643D01*
X89946Y-72583D01*
X90011Y-72427D01*
X90011Y-72258D01*
X89947Y-72102D01*
X89827Y-71982D01*
X89696Y-71928D01*
X89696Y-71785D01*
X89632Y-71629D01*
X89512Y-71509D01*
X89356Y-71445D01*
X89187Y-71445D01*
X89099Y-71481D01*
X89099Y-69502D01*
X89127Y-69571D01*
X89247Y-69690D01*
X89389Y-69749D01*
X89378Y-69777D01*
X89378Y-69946D01*
X89442Y-70102D01*
X89562Y-70222D01*
X89693Y-70276D01*
X89693Y-70359D01*
X89757Y-70516D01*
X89877Y-70635D01*
X90033Y-70700D01*
X90133Y-70700D01*
X90133Y-70901D01*
X89995Y-70958D01*
X89876Y-71077D01*
X89811Y-71233D01*
X89811Y-71403D01*
X89875Y-71559D01*
X89995Y-71678D01*
X90151Y-71743D01*
X90320Y-71743D01*
X90476Y-71679D01*
X90596Y-71559D01*
X90661Y-71403D01*
X90661Y-71310D01*
X90661Y-71310D01*
X90710Y-71236D01*
X90733Y-71122D01*
X90733Y-71122D01*
X90733Y-53639D01*
X90859Y-53692D01*
X91029Y-53692D01*
X91185Y-53628D01*
X91304Y-53508D01*
X91369Y-53352D01*
X91369Y-53183D01*
X91305Y-53027D01*
X91205Y-52927D01*
X91205Y-47840D01*
X91265Y-47780D01*
X91330Y-47624D01*
X91330Y-47455D01*
X91266Y-47298D01*
X91146Y-47179D01*
X90990Y-47114D01*
X90821Y-47114D01*
X90733Y-47150D01*
X90733Y-43352D01*
X90793Y-43292D01*
X90857Y-43136D01*
X90858Y-42967D01*
X90793Y-42810D01*
X90754Y-42771D01*
X90754Y-40410D01*
X90742Y-40201D01*
X90684Y-40061D01*
X90592Y-40037D01*
X90295Y-40334D01*
X90592Y-40631D01*
X90684Y-40607D01*
X90754Y-40410D01*
X90754Y-42771D01*
X90674Y-42691D01*
X90521Y-42627D01*
X90521Y-40702D01*
X90224Y-40405D01*
X89927Y-40702D01*
X89951Y-40795D01*
X90148Y-40864D01*
X90357Y-40853D01*
X90497Y-40795D01*
X90521Y-40702D01*
X90521Y-42627D01*
X90517Y-42626D01*
X90348Y-42626D01*
X90192Y-42690D01*
X90072Y-42810D01*
X90008Y-42966D01*
X90007Y-43135D01*
X90072Y-43291D01*
X90133Y-43352D01*
X90133Y-59784D01*
X89993Y-59784D01*
X89993Y-54949D01*
X89993Y-54498D01*
X89993Y-54399D01*
X89955Y-54307D01*
X89884Y-54237D01*
X89793Y-54199D01*
X89581Y-54199D01*
X89518Y-54261D01*
X89518Y-54674D01*
X89931Y-54674D01*
X89993Y-54611D01*
X89993Y-54498D01*
X89993Y-54949D01*
X89993Y-54836D01*
X89931Y-54774D01*
X89518Y-54774D01*
X89518Y-55186D01*
X89581Y-55249D01*
X89793Y-55249D01*
X89884Y-55211D01*
X89955Y-55141D01*
X89993Y-55049D01*
X89993Y-54949D01*
X89993Y-59784D01*
X89418Y-59784D01*
X89418Y-55186D01*
X89418Y-54774D01*
X89418Y-54674D01*
X89418Y-54261D01*
X89356Y-54199D01*
X89143Y-54199D01*
X89052Y-54237D01*
X88981Y-54307D01*
X88943Y-54399D01*
X88943Y-54498D01*
X88943Y-54611D01*
X89006Y-54674D01*
X89418Y-54674D01*
X89418Y-54774D01*
X89006Y-54774D01*
X88943Y-54836D01*
X88943Y-54949D01*
X88943Y-55049D01*
X88981Y-55141D01*
X89052Y-55211D01*
X89143Y-55249D01*
X89356Y-55249D01*
X89418Y-55186D01*
X89418Y-59784D01*
X89353Y-59784D01*
X89261Y-59822D01*
X89191Y-59892D01*
X89153Y-59984D01*
X89153Y-59994D01*
X89071Y-60076D01*
X89006Y-60232D01*
X89006Y-60401D01*
X89070Y-60557D01*
X89153Y-60640D01*
X89153Y-60683D01*
X89191Y-60775D01*
X89261Y-60846D01*
X89353Y-60884D01*
X89452Y-60884D01*
X90133Y-60884D01*
X90133Y-61084D01*
X89915Y-61084D01*
X89853Y-61146D01*
X89853Y-61584D01*
X89861Y-61584D01*
X89861Y-61684D01*
X89853Y-61684D01*
X89853Y-62121D01*
X89915Y-62184D01*
X90133Y-62184D01*
X90133Y-64197D01*
X90024Y-64088D01*
X89868Y-64023D01*
X89753Y-64023D01*
X89753Y-62121D01*
X89753Y-61684D01*
X89753Y-61584D01*
X89753Y-61146D01*
X89690Y-61084D01*
X89452Y-61084D01*
X89353Y-61084D01*
X89261Y-61122D01*
X89191Y-61192D01*
X89153Y-61284D01*
X89153Y-61521D01*
X89215Y-61584D01*
X89753Y-61584D01*
X89753Y-61684D01*
X89215Y-61684D01*
X89153Y-61746D01*
X89153Y-61983D01*
X89191Y-62075D01*
X89261Y-62146D01*
X89353Y-62184D01*
X89452Y-62184D01*
X89690Y-62184D01*
X89753Y-62121D01*
X89753Y-64023D01*
X89699Y-64023D01*
X89543Y-64088D01*
X89519Y-64111D01*
X89519Y-64069D01*
X89454Y-63913D01*
X89335Y-63793D01*
X89179Y-63728D01*
X89010Y-63728D01*
X88854Y-63793D01*
X88734Y-63912D01*
X88705Y-63982D01*
X88705Y-51192D01*
X88732Y-51128D01*
X88732Y-50959D01*
X88667Y-50802D01*
X88548Y-50683D01*
X88391Y-50618D01*
X88222Y-50618D01*
X88066Y-50682D01*
X87946Y-50802D01*
X87882Y-50958D01*
X87882Y-51127D01*
X87946Y-51283D01*
X88066Y-51403D01*
X88105Y-51419D01*
X88105Y-65917D01*
X88096Y-65913D01*
X87927Y-65913D01*
X87826Y-65955D01*
X87826Y-63774D01*
X87762Y-63617D01*
X87701Y-63557D01*
X87701Y-48267D01*
X87701Y-48267D01*
X87678Y-48152D01*
X87629Y-48079D01*
X87629Y-48079D01*
X87629Y-47986D01*
X87565Y-47830D01*
X87445Y-47710D01*
X87289Y-47645D01*
X87120Y-47645D01*
X86964Y-47710D01*
X86844Y-47829D01*
X86779Y-47985D01*
X86779Y-48155D01*
X86844Y-48311D01*
X86963Y-48430D01*
X87101Y-48488D01*
X87101Y-63557D01*
X87041Y-63617D01*
X86976Y-63773D01*
X86976Y-63942D01*
X87041Y-64098D01*
X87160Y-64218D01*
X87316Y-64283D01*
X87485Y-64283D01*
X87642Y-64218D01*
X87761Y-64099D01*
X87826Y-63943D01*
X87826Y-63774D01*
X87826Y-65955D01*
X87771Y-65978D01*
X87651Y-66097D01*
X87586Y-66253D01*
X87586Y-66339D01*
X86717Y-67208D01*
X86717Y-50950D01*
X86777Y-50890D01*
X86842Y-50734D01*
X86842Y-50565D01*
X86777Y-50409D01*
X86658Y-50289D01*
X86543Y-50241D01*
X86482Y-50094D01*
X86363Y-49974D01*
X86206Y-49909D01*
X86175Y-49909D01*
X86175Y-49065D01*
X86077Y-48828D01*
X85896Y-48647D01*
X85660Y-48549D01*
X85464Y-48549D01*
X85464Y-42356D01*
X85399Y-42200D01*
X85280Y-42080D01*
X85124Y-42016D01*
X84955Y-42015D01*
X84798Y-42080D01*
X84679Y-42199D01*
X84614Y-42356D01*
X84614Y-42525D01*
X84678Y-42681D01*
X84710Y-42713D01*
X84710Y-45139D01*
X84017Y-45832D01*
X83385Y-45832D01*
X83260Y-45857D01*
X83162Y-45923D01*
X83162Y-45541D01*
X83162Y-44930D01*
X83162Y-44831D01*
X83124Y-44739D01*
X83053Y-44669D01*
X82961Y-44631D01*
X82709Y-44631D01*
X82647Y-44693D01*
X82647Y-45186D01*
X83099Y-45186D01*
X83162Y-45123D01*
X83162Y-44930D01*
X83162Y-45541D01*
X83162Y-45348D01*
X83099Y-45286D01*
X82647Y-45286D01*
X82647Y-45778D01*
X82709Y-45841D01*
X82961Y-45841D01*
X83053Y-45803D01*
X83124Y-45733D01*
X83162Y-45641D01*
X83162Y-45541D01*
X83162Y-45923D01*
X83153Y-45928D01*
X82547Y-46535D01*
X82547Y-45778D01*
X82547Y-45286D01*
X82539Y-45286D01*
X82539Y-45186D01*
X82547Y-45186D01*
X82547Y-44693D01*
X82484Y-44631D01*
X82232Y-44631D01*
X82140Y-44669D01*
X82070Y-44739D01*
X82047Y-44795D01*
X82024Y-44739D01*
X81954Y-44669D01*
X81862Y-44631D01*
X81762Y-44631D01*
X81132Y-44631D01*
X81040Y-44669D01*
X80970Y-44739D01*
X80932Y-44831D01*
X80932Y-44930D01*
X80932Y-45640D01*
X80970Y-45732D01*
X81040Y-45803D01*
X81132Y-45841D01*
X81197Y-45841D01*
X81197Y-46921D01*
X79816Y-48302D01*
X79602Y-48302D01*
X80427Y-47477D01*
X80492Y-47379D01*
X80492Y-47379D01*
X80515Y-47264D01*
X80515Y-47264D01*
X80515Y-45841D01*
X80579Y-45841D01*
X80671Y-45803D01*
X80742Y-45733D01*
X80780Y-45641D01*
X80780Y-45541D01*
X80780Y-44831D01*
X80742Y-44739D01*
X80672Y-44669D01*
X80580Y-44631D01*
X80480Y-44631D01*
X79850Y-44631D01*
X79758Y-44669D01*
X79688Y-44739D01*
X79665Y-44795D01*
X79642Y-44739D01*
X79572Y-44669D01*
X79480Y-44631D01*
X79380Y-44631D01*
X78750Y-44631D01*
X78658Y-44669D01*
X78588Y-44739D01*
X78550Y-44831D01*
X78550Y-44930D01*
X78550Y-45640D01*
X78588Y-45732D01*
X78658Y-45803D01*
X78750Y-45841D01*
X78815Y-45841D01*
X78815Y-47335D01*
X78054Y-48095D01*
X78054Y-45860D01*
X78119Y-45860D01*
X78211Y-45822D01*
X78281Y-45752D01*
X78319Y-45660D01*
X78319Y-45561D01*
X78319Y-44851D01*
X78281Y-44759D01*
X78211Y-44689D01*
X78119Y-44650D01*
X78020Y-44650D01*
X77390Y-44650D01*
X77298Y-44688D01*
X77227Y-44759D01*
X77204Y-44814D01*
X77181Y-44759D01*
X77111Y-44689D01*
X77019Y-44650D01*
X76920Y-44650D01*
X76290Y-44650D01*
X76198Y-44688D01*
X76127Y-44759D01*
X76089Y-44850D01*
X76089Y-44950D01*
X76089Y-45660D01*
X76127Y-45752D01*
X76189Y-45814D01*
X76116Y-45814D01*
X76053Y-45876D01*
X76053Y-46329D01*
X76546Y-46329D01*
X76608Y-46266D01*
X76608Y-46088D01*
X76688Y-46167D01*
X76688Y-49560D01*
X76658Y-49590D01*
X76658Y-49015D01*
X76635Y-48900D01*
X76570Y-48803D01*
X76570Y-48803D01*
X76303Y-48537D01*
X76303Y-48044D01*
X76408Y-48044D01*
X76500Y-48006D01*
X76570Y-47935D01*
X76608Y-47844D01*
X76608Y-47744D01*
X76608Y-47114D01*
X76571Y-47022D01*
X76500Y-46952D01*
X76444Y-46929D01*
X76500Y-46905D01*
X76571Y-46835D01*
X76608Y-46743D01*
X76608Y-46491D01*
X76546Y-46429D01*
X76053Y-46429D01*
X76053Y-46437D01*
X75953Y-46437D01*
X75953Y-46429D01*
X75953Y-46329D01*
X75953Y-45876D01*
X75891Y-45814D01*
X75698Y-45814D01*
X75598Y-45814D01*
X75507Y-45852D01*
X75482Y-45877D01*
X75457Y-45852D01*
X75365Y-45814D01*
X75266Y-45814D01*
X75073Y-45814D01*
X75010Y-45876D01*
X75010Y-46329D01*
X75461Y-46329D01*
X75503Y-46329D01*
X75953Y-46329D01*
X75953Y-46429D01*
X75503Y-46429D01*
X75461Y-46429D01*
X75010Y-46429D01*
X75010Y-46437D01*
X74910Y-46437D01*
X74910Y-46429D01*
X74910Y-46329D01*
X74910Y-45876D01*
X74848Y-45814D01*
X74655Y-45814D01*
X74555Y-45814D01*
X74463Y-45852D01*
X74448Y-45867D01*
X74433Y-45852D01*
X74341Y-45814D01*
X74242Y-45814D01*
X74049Y-45814D01*
X73987Y-45876D01*
X73987Y-46329D01*
X74418Y-46329D01*
X74479Y-46329D01*
X74910Y-46329D01*
X74910Y-46429D01*
X74479Y-46429D01*
X74418Y-46429D01*
X73987Y-46429D01*
X73987Y-46437D01*
X73887Y-46437D01*
X73887Y-46429D01*
X73887Y-46329D01*
X73887Y-45876D01*
X73824Y-45814D01*
X73631Y-45814D01*
X73532Y-45814D01*
X73446Y-45849D01*
X73429Y-45832D01*
X73338Y-45794D01*
X73238Y-45794D01*
X73045Y-45794D01*
X72983Y-45856D01*
X72983Y-46309D01*
X73374Y-46309D01*
X73394Y-46329D01*
X73887Y-46329D01*
X73887Y-46429D01*
X73495Y-46429D01*
X73475Y-46409D01*
X72983Y-46409D01*
X72983Y-46417D01*
X72883Y-46417D01*
X72883Y-46409D01*
X72883Y-46309D01*
X72883Y-45856D01*
X72820Y-45794D01*
X72627Y-45794D01*
X72528Y-45794D01*
X72436Y-45832D01*
X72411Y-45857D01*
X72386Y-45832D01*
X72294Y-45794D01*
X72195Y-45794D01*
X72002Y-45794D01*
X71939Y-45856D01*
X71939Y-46309D01*
X72390Y-46309D01*
X72432Y-46309D01*
X72883Y-46309D01*
X72883Y-46409D01*
X72432Y-46409D01*
X72390Y-46409D01*
X71939Y-46409D01*
X71939Y-46417D01*
X71839Y-46417D01*
X71839Y-46409D01*
X71839Y-46309D01*
X71839Y-45856D01*
X71777Y-45794D01*
X71584Y-45794D01*
X71484Y-45794D01*
X71392Y-45832D01*
X71322Y-45903D01*
X71284Y-45994D01*
X71284Y-46246D01*
X71347Y-46309D01*
X71839Y-46309D01*
X71839Y-46409D01*
X71347Y-46409D01*
X71284Y-46471D01*
X71284Y-46723D01*
X71322Y-46815D01*
X71392Y-46886D01*
X71448Y-46909D01*
X71393Y-46932D01*
X71322Y-47002D01*
X71284Y-47094D01*
X71284Y-47193D01*
X71284Y-47823D01*
X71322Y-47915D01*
X71392Y-47986D01*
X71484Y-48024D01*
X71584Y-48024D01*
X71623Y-48024D01*
X71623Y-48024D01*
X71677Y-48105D01*
X71933Y-48361D01*
X71933Y-48361D01*
X72030Y-48426D01*
X72145Y-48449D01*
X72145Y-48449D01*
X72592Y-48449D01*
X73696Y-49553D01*
X73696Y-49599D01*
X73659Y-49636D01*
X73598Y-49782D01*
X73598Y-49940D01*
X73658Y-50087D01*
X73770Y-50199D01*
X73916Y-50259D01*
X74074Y-50259D01*
X74221Y-50199D01*
X74291Y-50129D01*
X74361Y-50199D01*
X74507Y-50259D01*
X74665Y-50259D01*
X74811Y-50199D01*
X74881Y-50129D01*
X74951Y-50199D01*
X75097Y-50259D01*
X75255Y-50259D01*
X75402Y-50199D01*
X75472Y-50129D01*
X75542Y-50199D01*
X75688Y-50259D01*
X75846Y-50259D01*
X75992Y-50199D01*
X76063Y-50129D01*
X76132Y-50199D01*
X76278Y-50259D01*
X76437Y-50259D01*
X76583Y-50199D01*
X76653Y-50129D01*
X76723Y-50199D01*
X76869Y-50259D01*
X77027Y-50259D01*
X77173Y-50199D01*
X77244Y-50129D01*
X77313Y-50199D01*
X77459Y-50259D01*
X77618Y-50259D01*
X77764Y-50199D01*
X77834Y-50129D01*
X77904Y-50199D01*
X78050Y-50259D01*
X78208Y-50259D01*
X78354Y-50199D01*
X78425Y-50129D01*
X78494Y-50199D01*
X78641Y-50259D01*
X78799Y-50259D01*
X78945Y-50199D01*
X79015Y-50129D01*
X79085Y-50199D01*
X79231Y-50259D01*
X79389Y-50259D01*
X79535Y-50199D01*
X79647Y-50087D01*
X79678Y-50014D01*
X79830Y-49862D01*
X79678Y-49709D01*
X79648Y-49637D01*
X79611Y-49599D01*
X79611Y-48962D01*
X79671Y-48902D01*
X79940Y-48902D01*
X79940Y-48902D01*
X80055Y-48879D01*
X80055Y-48879D01*
X80153Y-48814D01*
X81709Y-47258D01*
X81709Y-47258D01*
X81774Y-47160D01*
X81797Y-47046D01*
X81797Y-47046D01*
X81797Y-45841D01*
X81861Y-45841D01*
X81953Y-45803D01*
X82024Y-45733D01*
X82047Y-45677D01*
X82070Y-45733D01*
X82140Y-45803D01*
X82232Y-45841D01*
X82484Y-45841D01*
X82547Y-45778D01*
X82547Y-46535D01*
X80259Y-48822D01*
X80188Y-48929D01*
X80163Y-49055D01*
X80163Y-49552D01*
X80152Y-49540D01*
X80106Y-49586D01*
X80097Y-49507D01*
X79946Y-49459D01*
X79789Y-49472D01*
X79705Y-49507D01*
X79697Y-49586D01*
X79901Y-49791D01*
X79907Y-49785D01*
X79977Y-49856D01*
X79972Y-49862D01*
X80124Y-50014D01*
X80154Y-50087D01*
X80266Y-50199D01*
X80412Y-50259D01*
X80570Y-50259D01*
X80717Y-50199D01*
X80787Y-50129D01*
X80857Y-50199D01*
X81003Y-50259D01*
X81161Y-50259D01*
X81307Y-50199D01*
X81373Y-50134D01*
X81373Y-50663D01*
X81313Y-50723D01*
X81248Y-50879D01*
X81248Y-51048D01*
X81312Y-51204D01*
X81432Y-51324D01*
X81588Y-51389D01*
X81757Y-51389D01*
X81858Y-51347D01*
X81858Y-51363D01*
X81922Y-51519D01*
X82042Y-51639D01*
X82198Y-51704D01*
X82367Y-51704D01*
X82523Y-51640D01*
X82643Y-51520D01*
X82708Y-51364D01*
X82708Y-51195D01*
X82643Y-51039D01*
X82563Y-50958D01*
X82563Y-50133D01*
X82628Y-50199D01*
X82774Y-50259D01*
X82933Y-50259D01*
X83079Y-50199D01*
X83144Y-50134D01*
X83144Y-50348D01*
X83084Y-50408D01*
X83019Y-50564D01*
X83019Y-50733D01*
X83084Y-50890D01*
X83203Y-51009D01*
X83359Y-51074D01*
X83529Y-51074D01*
X83685Y-51010D01*
X83804Y-50890D01*
X83869Y-50734D01*
X83869Y-50565D01*
X83805Y-50409D01*
X83744Y-50348D01*
X83744Y-50124D01*
X83781Y-50087D01*
X83842Y-49941D01*
X83842Y-49783D01*
X83782Y-49637D01*
X83670Y-49525D01*
X83524Y-49464D01*
X83366Y-49464D01*
X83219Y-49524D01*
X83149Y-49595D01*
X83079Y-49525D01*
X82933Y-49464D01*
X82775Y-49464D01*
X82629Y-49524D01*
X82559Y-49595D01*
X82489Y-49525D01*
X82343Y-49464D01*
X82185Y-49464D01*
X82038Y-49524D01*
X81968Y-49595D01*
X81898Y-49525D01*
X81752Y-49464D01*
X81594Y-49464D01*
X81448Y-49524D01*
X81377Y-49595D01*
X81308Y-49525D01*
X81162Y-49464D01*
X81003Y-49464D01*
X80857Y-49524D01*
X80820Y-49561D01*
X80820Y-49191D01*
X83521Y-46490D01*
X84153Y-46490D01*
X84279Y-46465D01*
X84279Y-46465D01*
X84385Y-46393D01*
X85271Y-45508D01*
X85271Y-45508D01*
X85343Y-45401D01*
X85368Y-45275D01*
X85368Y-45275D01*
X85368Y-42713D01*
X85399Y-42682D01*
X85464Y-42525D01*
X85464Y-42356D01*
X85464Y-48549D01*
X85404Y-48549D01*
X85167Y-48646D01*
X84986Y-48827D01*
X84887Y-49064D01*
X84887Y-49320D01*
X84985Y-49557D01*
X85166Y-49738D01*
X85402Y-49836D01*
X85658Y-49836D01*
X85895Y-49738D01*
X86076Y-49558D01*
X86175Y-49321D01*
X86175Y-49065D01*
X86175Y-49909D01*
X86037Y-49909D01*
X85881Y-49974D01*
X85761Y-50093D01*
X85697Y-50249D01*
X85696Y-50418D01*
X85761Y-50575D01*
X85802Y-50615D01*
X85802Y-50874D01*
X85703Y-50874D01*
X85546Y-50938D01*
X85427Y-51058D01*
X85362Y-51214D01*
X85362Y-51383D01*
X85426Y-51539D01*
X85487Y-51600D01*
X85487Y-68678D01*
X85478Y-68657D01*
X85359Y-68537D01*
X85346Y-68532D01*
X85346Y-68400D01*
X85281Y-68243D01*
X85234Y-68196D01*
X85267Y-68116D01*
X85267Y-67947D01*
X85203Y-67791D01*
X85083Y-67671D01*
X84927Y-67606D01*
X84862Y-67606D01*
X84862Y-61983D01*
X84862Y-61284D01*
X84862Y-60584D01*
X84862Y-59984D01*
X84824Y-59892D01*
X84754Y-59822D01*
X84716Y-59806D01*
X84716Y-56155D01*
X84651Y-55999D01*
X84532Y-55880D01*
X84376Y-55815D01*
X84207Y-55815D01*
X84050Y-55879D01*
X83931Y-55999D01*
X83866Y-56155D01*
X83866Y-56324D01*
X83930Y-56480D01*
X83991Y-56541D01*
X83991Y-57317D01*
X83872Y-57436D01*
X83807Y-57592D01*
X83807Y-57761D01*
X83871Y-57917D01*
X83991Y-58037D01*
X84147Y-58102D01*
X84316Y-58102D01*
X84472Y-58037D01*
X84592Y-57918D01*
X84657Y-57762D01*
X84657Y-57592D01*
X84592Y-57436D01*
X84591Y-57435D01*
X84591Y-56541D01*
X84651Y-56481D01*
X84716Y-56325D01*
X84716Y-56155D01*
X84716Y-59806D01*
X84662Y-59784D01*
X84563Y-59784D01*
X83763Y-59784D01*
X83671Y-59822D01*
X83600Y-59892D01*
X83580Y-59940D01*
X83528Y-59962D01*
X83528Y-58273D01*
X83588Y-58213D01*
X83653Y-58057D01*
X83653Y-57888D01*
X83588Y-57732D01*
X83469Y-57612D01*
X83313Y-57547D01*
X83144Y-57547D01*
X82987Y-57611D01*
X82868Y-57731D01*
X82865Y-57737D01*
X82866Y-57573D01*
X82801Y-57417D01*
X82746Y-57362D01*
X82801Y-57307D01*
X82865Y-57151D01*
X82866Y-56982D01*
X82801Y-56826D01*
X82916Y-56826D01*
X83135Y-56736D01*
X83302Y-56569D01*
X83393Y-56351D01*
X83393Y-56114D01*
X83393Y-52114D01*
X83303Y-51895D01*
X83136Y-51728D01*
X82917Y-51637D01*
X82681Y-51637D01*
X82462Y-51728D01*
X82299Y-51891D01*
X82136Y-51728D01*
X81917Y-51637D01*
X81681Y-51637D01*
X81462Y-51728D01*
X81299Y-51891D01*
X81136Y-51728D01*
X80917Y-51637D01*
X80681Y-51637D01*
X80462Y-51728D01*
X80299Y-51891D01*
X80136Y-51728D01*
X80106Y-51716D01*
X80106Y-50137D01*
X79901Y-49932D01*
X79697Y-50137D01*
X79705Y-50217D01*
X79856Y-50265D01*
X80013Y-50251D01*
X80097Y-50217D01*
X80106Y-50137D01*
X80106Y-51716D01*
X79917Y-51637D01*
X79681Y-51637D01*
X79462Y-51728D01*
X79299Y-51891D01*
X79136Y-51728D01*
X78917Y-51637D01*
X78681Y-51637D01*
X78462Y-51728D01*
X78299Y-51891D01*
X78136Y-51728D01*
X77917Y-51637D01*
X77681Y-51637D01*
X77462Y-51728D01*
X77299Y-51891D01*
X77136Y-51728D01*
X76917Y-51637D01*
X76681Y-51637D01*
X76462Y-51728D01*
X76299Y-51891D01*
X76136Y-51728D01*
X75917Y-51637D01*
X75681Y-51637D01*
X75462Y-51728D01*
X75295Y-51895D01*
X75204Y-52113D01*
X75204Y-52350D01*
X75294Y-52568D01*
X75462Y-52735D01*
X75680Y-52826D01*
X75916Y-52826D01*
X76135Y-52736D01*
X76299Y-52573D01*
X76462Y-52735D01*
X76680Y-52826D01*
X76916Y-52826D01*
X77135Y-52736D01*
X77299Y-52573D01*
X77462Y-52735D01*
X77680Y-52826D01*
X77916Y-52826D01*
X78135Y-52736D01*
X78299Y-52573D01*
X78462Y-52735D01*
X78680Y-52826D01*
X78916Y-52826D01*
X79135Y-52736D01*
X79299Y-52573D01*
X79462Y-52735D01*
X79680Y-52826D01*
X79916Y-52826D01*
X80135Y-52736D01*
X80299Y-52573D01*
X80462Y-52735D01*
X80680Y-52826D01*
X80916Y-52826D01*
X81135Y-52736D01*
X81299Y-52573D01*
X81462Y-52735D01*
X81680Y-52826D01*
X81916Y-52826D01*
X82135Y-52736D01*
X82299Y-52573D01*
X82462Y-52735D01*
X82680Y-52826D01*
X82916Y-52826D01*
X83135Y-52736D01*
X83302Y-52569D01*
X83393Y-52351D01*
X83393Y-52114D01*
X83393Y-56114D01*
X83303Y-55895D01*
X83136Y-55728D01*
X82917Y-55637D01*
X82681Y-55637D01*
X82462Y-55728D01*
X82299Y-55891D01*
X82136Y-55728D01*
X82099Y-55713D01*
X82099Y-55234D01*
X82131Y-55201D01*
X82196Y-55045D01*
X82196Y-54876D01*
X82132Y-54720D01*
X82012Y-54600D01*
X81856Y-54535D01*
X81687Y-54535D01*
X81531Y-54600D01*
X81411Y-54719D01*
X81346Y-54875D01*
X81346Y-55044D01*
X81411Y-55201D01*
X81499Y-55289D01*
X81499Y-55713D01*
X81462Y-55728D01*
X81299Y-55891D01*
X81136Y-55728D01*
X80917Y-55637D01*
X80681Y-55637D01*
X80462Y-55728D01*
X80299Y-55891D01*
X80136Y-55728D01*
X79917Y-55637D01*
X79681Y-55637D01*
X79462Y-55728D01*
X79299Y-55891D01*
X79136Y-55728D01*
X78917Y-55637D01*
X78681Y-55637D01*
X78462Y-55728D01*
X78299Y-55891D01*
X78136Y-55728D01*
X78099Y-55713D01*
X78099Y-55631D01*
X78194Y-55536D01*
X78259Y-55380D01*
X78259Y-55211D01*
X78195Y-55054D01*
X78075Y-54935D01*
X77919Y-54870D01*
X77750Y-54870D01*
X77594Y-54934D01*
X77474Y-55054D01*
X77409Y-55210D01*
X77409Y-55379D01*
X77474Y-55535D01*
X77499Y-55560D01*
X77499Y-55713D01*
X77462Y-55728D01*
X77299Y-55891D01*
X77136Y-55728D01*
X76917Y-55637D01*
X76681Y-55637D01*
X76462Y-55728D01*
X76299Y-55891D01*
X76136Y-55728D01*
X75917Y-55637D01*
X75681Y-55637D01*
X75462Y-55728D01*
X75295Y-55895D01*
X75204Y-56113D01*
X75204Y-56350D01*
X75294Y-56568D01*
X75462Y-56735D01*
X75680Y-56826D01*
X75916Y-56826D01*
X76135Y-56736D01*
X76299Y-56573D01*
X76462Y-56735D01*
X76499Y-56751D01*
X76499Y-57446D01*
X76490Y-57455D01*
X76425Y-57611D01*
X76425Y-57781D01*
X76489Y-57937D01*
X76609Y-58056D01*
X76765Y-58121D01*
X76934Y-58121D01*
X77090Y-58057D01*
X77210Y-57937D01*
X77275Y-57781D01*
X77275Y-57612D01*
X77210Y-57456D01*
X77099Y-57344D01*
X77099Y-56751D01*
X77135Y-56736D01*
X77299Y-56573D01*
X77462Y-56735D01*
X77680Y-56826D01*
X77916Y-56826D01*
X78135Y-56736D01*
X78299Y-56573D01*
X78462Y-56735D01*
X78499Y-56751D01*
X78499Y-57494D01*
X78498Y-57495D01*
X78433Y-57651D01*
X78433Y-57820D01*
X78497Y-57976D01*
X78617Y-58096D01*
X78773Y-58161D01*
X78942Y-58161D01*
X79098Y-58096D01*
X79179Y-58015D01*
X79179Y-58061D01*
X79242Y-58061D01*
X79179Y-58124D01*
X79179Y-58237D01*
X79179Y-58336D01*
X79217Y-58428D01*
X79288Y-58498D01*
X79380Y-58536D01*
X79592Y-58536D01*
X79654Y-58474D01*
X79654Y-58061D01*
X79646Y-58061D01*
X79646Y-57961D01*
X79654Y-57961D01*
X79654Y-57549D01*
X79592Y-57486D01*
X79380Y-57486D01*
X79288Y-57524D01*
X79247Y-57565D01*
X79218Y-57495D01*
X79099Y-57376D01*
X79099Y-57376D01*
X79099Y-56751D01*
X79135Y-56736D01*
X79299Y-56573D01*
X79462Y-56735D01*
X79512Y-56757D01*
X79522Y-56803D01*
X79587Y-56901D01*
X80113Y-57427D01*
X80113Y-57521D01*
X80029Y-57486D01*
X79817Y-57486D01*
X79754Y-57549D01*
X79754Y-57961D01*
X79762Y-57961D01*
X79762Y-58061D01*
X79754Y-58061D01*
X79754Y-58474D01*
X79817Y-58536D01*
X80029Y-58536D01*
X80113Y-58502D01*
X80113Y-58877D01*
X80136Y-58992D01*
X80201Y-59090D01*
X80303Y-59192D01*
X80303Y-59277D01*
X80367Y-59433D01*
X80487Y-59553D01*
X80643Y-59617D01*
X80812Y-59617D01*
X80968Y-59553D01*
X81077Y-59444D01*
X81077Y-63464D01*
X81077Y-63537D01*
X81017Y-63597D01*
X80953Y-63753D01*
X80952Y-63922D01*
X81017Y-64079D01*
X81136Y-64198D01*
X81293Y-64263D01*
X81462Y-64263D01*
X81541Y-64230D01*
X81541Y-69070D01*
X81441Y-68970D01*
X81285Y-68905D01*
X81116Y-68905D01*
X80960Y-68970D01*
X80840Y-69089D01*
X80840Y-69090D01*
X80840Y-68909D01*
X80851Y-68909D01*
X81008Y-68844D01*
X81127Y-68725D01*
X81192Y-68569D01*
X81192Y-68400D01*
X81128Y-68243D01*
X81096Y-68212D01*
X81096Y-65843D01*
X81167Y-65772D01*
X81232Y-65616D01*
X81232Y-65447D01*
X81167Y-65291D01*
X81048Y-65171D01*
X80891Y-65106D01*
X80722Y-65106D01*
X80566Y-65170D01*
X80446Y-65290D01*
X80382Y-65446D01*
X80382Y-65615D01*
X80438Y-65753D01*
X80438Y-68211D01*
X80407Y-68243D01*
X80342Y-68399D01*
X80342Y-68444D01*
X80279Y-68507D01*
X80208Y-68614D01*
X80183Y-68740D01*
X80183Y-71078D01*
X80103Y-70998D01*
X79947Y-70933D01*
X79778Y-70933D01*
X79654Y-70984D01*
X79621Y-70997D01*
X79502Y-71117D01*
X79460Y-71217D01*
X79460Y-69837D01*
X79395Y-69680D01*
X79335Y-69620D01*
X79335Y-65123D01*
X79395Y-65063D01*
X79460Y-64907D01*
X79460Y-64738D01*
X79395Y-64582D01*
X79370Y-64556D01*
X79370Y-62003D01*
X79370Y-61304D01*
X79370Y-60604D01*
X79370Y-60004D01*
X79332Y-59912D01*
X79262Y-59842D01*
X79170Y-59803D01*
X79070Y-59803D01*
X78270Y-59803D01*
X78179Y-59841D01*
X78108Y-59912D01*
X78070Y-60003D01*
X78070Y-60011D01*
X78066Y-60013D01*
X77946Y-60132D01*
X77882Y-60289D01*
X77882Y-60458D01*
X77946Y-60614D01*
X78066Y-60734D01*
X78086Y-60742D01*
X78108Y-60795D01*
X78178Y-60865D01*
X78270Y-60903D01*
X78369Y-60903D01*
X79169Y-60903D01*
X79261Y-60866D01*
X79332Y-60795D01*
X79370Y-60703D01*
X79370Y-60604D01*
X79370Y-61304D01*
X79332Y-61212D01*
X79262Y-61142D01*
X79170Y-61103D01*
X79070Y-61103D01*
X78832Y-61103D01*
X78770Y-61166D01*
X78770Y-61603D01*
X79307Y-61603D01*
X79370Y-61541D01*
X79370Y-61304D01*
X79370Y-62003D01*
X79370Y-61766D01*
X79307Y-61703D01*
X78770Y-61703D01*
X78770Y-62141D01*
X78832Y-62203D01*
X79070Y-62203D01*
X79170Y-62203D01*
X79262Y-62165D01*
X79332Y-62095D01*
X79370Y-62003D01*
X79370Y-64556D01*
X79276Y-64462D01*
X79120Y-64397D01*
X78951Y-64397D01*
X78795Y-64462D01*
X78675Y-64581D01*
X78670Y-64593D01*
X78670Y-62141D01*
X78670Y-61703D01*
X78670Y-61603D01*
X78670Y-61166D01*
X78607Y-61103D01*
X78369Y-61103D01*
X78270Y-61103D01*
X78178Y-61142D01*
X78108Y-61212D01*
X78070Y-61304D01*
X78070Y-61541D01*
X78132Y-61603D01*
X78670Y-61603D01*
X78670Y-61703D01*
X78132Y-61703D01*
X78070Y-61766D01*
X78070Y-62003D01*
X78108Y-62095D01*
X78178Y-62165D01*
X78270Y-62203D01*
X78369Y-62203D01*
X78607Y-62203D01*
X78670Y-62141D01*
X78670Y-64593D01*
X78610Y-64737D01*
X78610Y-64907D01*
X78674Y-65063D01*
X78735Y-65123D01*
X78735Y-69620D01*
X78675Y-69680D01*
X78610Y-69836D01*
X78610Y-70005D01*
X78674Y-70161D01*
X78794Y-70281D01*
X78950Y-70346D01*
X79119Y-70346D01*
X79275Y-70281D01*
X79395Y-70162D01*
X79460Y-70006D01*
X79460Y-69837D01*
X79460Y-71217D01*
X79437Y-71273D01*
X79437Y-71414D01*
X79355Y-71332D01*
X79199Y-71267D01*
X79030Y-71267D01*
X78873Y-71332D01*
X78754Y-71451D01*
X78692Y-71600D01*
X78578Y-71647D01*
X78458Y-71766D01*
X78401Y-71905D01*
X78263Y-71962D01*
X78143Y-72081D01*
X78082Y-72230D01*
X77968Y-72277D01*
X77848Y-72396D01*
X77787Y-72544D01*
X77787Y-65427D01*
X77722Y-65271D01*
X77603Y-65151D01*
X77447Y-65086D01*
X77278Y-65086D01*
X77209Y-65115D01*
X77209Y-64454D01*
X77269Y-64394D01*
X77334Y-64238D01*
X77334Y-64069D01*
X77269Y-63913D01*
X77150Y-63793D01*
X76994Y-63728D01*
X76825Y-63728D01*
X76737Y-63764D01*
X76737Y-59316D01*
X76797Y-59256D01*
X76861Y-59100D01*
X76862Y-58931D01*
X76797Y-58775D01*
X76678Y-58655D01*
X76521Y-58590D01*
X76352Y-58590D01*
X76196Y-58655D01*
X76076Y-58774D01*
X76017Y-58918D01*
X75891Y-58866D01*
X75722Y-58866D01*
X75566Y-58930D01*
X75446Y-59050D01*
X75382Y-59206D01*
X75382Y-59375D01*
X75446Y-59531D01*
X75507Y-59592D01*
X75507Y-66220D01*
X75529Y-66334D01*
X75579Y-66408D01*
X75579Y-66501D01*
X75643Y-66657D01*
X75763Y-66777D01*
X75919Y-66842D01*
X76088Y-66842D01*
X76137Y-66822D01*
X76137Y-67441D01*
X76090Y-67552D01*
X76090Y-67721D01*
X76155Y-67878D01*
X76274Y-67997D01*
X76430Y-68062D01*
X76599Y-68062D01*
X76609Y-68058D01*
X76609Y-68492D01*
X76569Y-68492D01*
X76413Y-68556D01*
X76293Y-68676D01*
X76228Y-68832D01*
X76228Y-69001D01*
X76293Y-69157D01*
X76412Y-69277D01*
X76568Y-69342D01*
X76737Y-69342D01*
X76893Y-69277D01*
X76919Y-69251D01*
X76897Y-69304D01*
X76897Y-69473D01*
X76962Y-69630D01*
X77081Y-69749D01*
X77237Y-69814D01*
X77407Y-69814D01*
X77563Y-69750D01*
X77682Y-69630D01*
X77747Y-69474D01*
X77747Y-69305D01*
X77683Y-69149D01*
X77631Y-69097D01*
X77631Y-68638D01*
X77663Y-68607D01*
X77728Y-68451D01*
X77728Y-68281D01*
X77663Y-68125D01*
X77631Y-68093D01*
X77631Y-65843D01*
X77722Y-65752D01*
X77787Y-65596D01*
X77787Y-65427D01*
X77787Y-72544D01*
X77783Y-72552D01*
X77783Y-72721D01*
X77785Y-72726D01*
X77633Y-72789D01*
X77513Y-72908D01*
X77449Y-73064D01*
X77448Y-73233D01*
X77513Y-73390D01*
X77570Y-73446D01*
X77570Y-76919D01*
X77425Y-77064D01*
X77370Y-77197D01*
X77315Y-77065D01*
X77170Y-76919D01*
X77170Y-74454D01*
X77230Y-74394D01*
X77295Y-74238D01*
X77295Y-74069D01*
X77230Y-73913D01*
X77111Y-73793D01*
X76954Y-73728D01*
X76785Y-73728D01*
X76629Y-73793D01*
X76509Y-73912D01*
X76445Y-74068D01*
X76445Y-74237D01*
X76509Y-74393D01*
X76570Y-74454D01*
X76570Y-76919D01*
X76425Y-77064D01*
X76370Y-77197D01*
X76315Y-77065D01*
X76170Y-76919D01*
X76170Y-75867D01*
X76265Y-75772D01*
X76330Y-75616D01*
X76330Y-75447D01*
X76266Y-75291D01*
X76146Y-75171D01*
X75990Y-75106D01*
X75821Y-75106D01*
X75721Y-75147D01*
X75721Y-72449D01*
X75721Y-71899D01*
X75721Y-71150D01*
X75721Y-70600D01*
X75683Y-70508D01*
X75613Y-70438D01*
X75521Y-70400D01*
X75422Y-70400D01*
X74872Y-70400D01*
X74780Y-70438D01*
X74710Y-70508D01*
X74671Y-70600D01*
X74671Y-70699D01*
X74671Y-71249D01*
X74709Y-71341D01*
X74780Y-71412D01*
X74871Y-71450D01*
X74971Y-71450D01*
X75521Y-71450D01*
X75613Y-71412D01*
X75683Y-71341D01*
X75721Y-71250D01*
X75721Y-71150D01*
X75721Y-71899D01*
X75683Y-71807D01*
X75613Y-71737D01*
X75521Y-71699D01*
X75422Y-71699D01*
X74872Y-71699D01*
X74780Y-71737D01*
X74710Y-71807D01*
X74671Y-71899D01*
X74671Y-71998D01*
X74671Y-72548D01*
X74709Y-72640D01*
X74780Y-72711D01*
X74871Y-72749D01*
X74971Y-72749D01*
X75521Y-72749D01*
X75613Y-72711D01*
X75683Y-72641D01*
X75721Y-72549D01*
X75721Y-72449D01*
X75721Y-75147D01*
X75665Y-75170D01*
X75545Y-75290D01*
X75480Y-75446D01*
X75480Y-75615D01*
X75545Y-75771D01*
X75570Y-75797D01*
X75570Y-76919D01*
X75425Y-77064D01*
X75370Y-77197D01*
X75315Y-77065D01*
X75170Y-76919D01*
X75170Y-75411D01*
X75222Y-75359D01*
X75287Y-75203D01*
X75287Y-75033D01*
X75222Y-74877D01*
X75103Y-74758D01*
X74947Y-74693D01*
X74778Y-74693D01*
X74621Y-74757D01*
X74578Y-74800D01*
X74578Y-55171D01*
X74514Y-55015D01*
X74394Y-54895D01*
X74238Y-54830D01*
X74157Y-54830D01*
X74120Y-54739D01*
X74000Y-54620D01*
X73844Y-54555D01*
X73675Y-54555D01*
X73519Y-54619D01*
X73399Y-54739D01*
X73334Y-54895D01*
X73334Y-55064D01*
X73399Y-55220D01*
X73459Y-55281D01*
X73459Y-55733D01*
X73372Y-55697D01*
X73203Y-55696D01*
X73046Y-55761D01*
X72927Y-55880D01*
X72862Y-56037D01*
X72862Y-56206D01*
X72926Y-56362D01*
X72987Y-56423D01*
X72987Y-57415D01*
X72927Y-57475D01*
X72862Y-57631D01*
X72862Y-57800D01*
X72926Y-57956D01*
X73046Y-58076D01*
X73202Y-58141D01*
X73371Y-58141D01*
X73459Y-58105D01*
X73459Y-59023D01*
X73301Y-59023D01*
X73145Y-59088D01*
X73025Y-59207D01*
X72995Y-59279D01*
X72927Y-59279D01*
X72771Y-59344D01*
X72651Y-59463D01*
X72586Y-59619D01*
X72586Y-59788D01*
X72592Y-59803D01*
X72553Y-59803D01*
X72553Y-49065D01*
X72455Y-48828D01*
X72274Y-48647D01*
X72038Y-48549D01*
X71781Y-48549D01*
X71545Y-48646D01*
X71364Y-48827D01*
X71265Y-49064D01*
X71265Y-49320D01*
X71363Y-49557D01*
X71544Y-49738D01*
X71780Y-49836D01*
X72036Y-49836D01*
X72273Y-49738D01*
X72454Y-49558D01*
X72553Y-49321D01*
X72553Y-49065D01*
X72553Y-59803D01*
X71873Y-59803D01*
X71781Y-59841D01*
X71711Y-59912D01*
X71672Y-60003D01*
X71672Y-60103D01*
X71672Y-60486D01*
X71659Y-60480D01*
X71490Y-60480D01*
X71334Y-60545D01*
X71214Y-60664D01*
X71149Y-60820D01*
X71149Y-60989D01*
X71214Y-61145D01*
X71274Y-61206D01*
X71274Y-64828D01*
X71255Y-64836D01*
X71135Y-64955D01*
X71071Y-65111D01*
X71070Y-65281D01*
X71135Y-65437D01*
X71255Y-65556D01*
X71411Y-65621D01*
X71580Y-65621D01*
X71736Y-65557D01*
X71856Y-65437D01*
X71920Y-65281D01*
X71921Y-65112D01*
X71874Y-65000D01*
X71874Y-62203D01*
X71972Y-62203D01*
X72210Y-62203D01*
X72272Y-62141D01*
X72272Y-61703D01*
X72264Y-61703D01*
X72264Y-61603D01*
X72272Y-61603D01*
X72272Y-61166D01*
X72210Y-61103D01*
X71972Y-61103D01*
X71952Y-61103D01*
X71999Y-60990D01*
X71999Y-60903D01*
X72711Y-60903D01*
X72711Y-61103D01*
X72673Y-61103D01*
X72435Y-61103D01*
X72372Y-61166D01*
X72372Y-61603D01*
X72380Y-61603D01*
X72380Y-61703D01*
X72372Y-61703D01*
X72372Y-62141D01*
X72435Y-62203D01*
X72673Y-62203D01*
X72711Y-62203D01*
X72711Y-67356D01*
X72579Y-67488D01*
X72494Y-67488D01*
X72338Y-67552D01*
X72218Y-67672D01*
X72153Y-67828D01*
X72153Y-67997D01*
X72218Y-68153D01*
X72337Y-68273D01*
X72493Y-68338D01*
X72662Y-68338D01*
X72819Y-68273D01*
X72938Y-68154D01*
X73003Y-67998D01*
X73003Y-67912D01*
X73132Y-67784D01*
X73281Y-67846D01*
X73450Y-67846D01*
X73606Y-67781D01*
X73726Y-67662D01*
X73791Y-67506D01*
X73791Y-67337D01*
X73726Y-67180D01*
X73685Y-67139D01*
X73685Y-64385D01*
X73794Y-64493D01*
X73950Y-64558D01*
X74119Y-64558D01*
X74275Y-64494D01*
X74395Y-64374D01*
X74460Y-64218D01*
X74460Y-64049D01*
X74451Y-64027D01*
X74453Y-64015D01*
X74453Y-64015D01*
X74453Y-55556D01*
X74513Y-55496D01*
X74578Y-55340D01*
X74578Y-55171D01*
X74578Y-74800D01*
X74502Y-74877D01*
X74437Y-75033D01*
X74437Y-75202D01*
X74501Y-75358D01*
X74570Y-75427D01*
X74570Y-76919D01*
X74425Y-77064D01*
X74395Y-77137D01*
X74395Y-77037D01*
X74357Y-76945D01*
X74286Y-76875D01*
X74195Y-76837D01*
X74170Y-76837D01*
X74170Y-75092D01*
X74238Y-75024D01*
X74302Y-74868D01*
X74303Y-74699D01*
X74238Y-74543D01*
X74119Y-74423D01*
X73962Y-74358D01*
X73800Y-74358D01*
X73746Y-74228D01*
X73685Y-74167D01*
X73685Y-69644D01*
X73732Y-69533D01*
X73732Y-69364D01*
X73667Y-69208D01*
X73548Y-69088D01*
X73391Y-69023D01*
X73222Y-69023D01*
X73066Y-69088D01*
X72946Y-69207D01*
X72882Y-69363D01*
X72882Y-69532D01*
X72946Y-69689D01*
X73066Y-69808D01*
X73085Y-69817D01*
X73085Y-71563D01*
X72947Y-71563D01*
X72791Y-71627D01*
X72671Y-71747D01*
X72606Y-71903D01*
X72606Y-71996D01*
X72573Y-71996D01*
X72417Y-72060D01*
X72297Y-72180D01*
X72232Y-72336D01*
X72232Y-72505D01*
X72296Y-72661D01*
X72396Y-72761D01*
X72396Y-73537D01*
X72336Y-73597D01*
X72271Y-73753D01*
X72271Y-73922D01*
X72336Y-74079D01*
X72455Y-74198D01*
X72608Y-74262D01*
X72670Y-74413D01*
X72790Y-74533D01*
X72946Y-74598D01*
X72979Y-74598D01*
X73025Y-74708D01*
X73144Y-74828D01*
X73300Y-74893D01*
X73463Y-74893D01*
X73517Y-75023D01*
X73570Y-75076D01*
X73570Y-76837D01*
X73545Y-76837D01*
X73453Y-76875D01*
X73383Y-76945D01*
X73345Y-77037D01*
X73345Y-77136D01*
X73345Y-77686D01*
X73383Y-77778D01*
X73453Y-77849D01*
X73545Y-77887D01*
X73644Y-77887D01*
X74194Y-77887D01*
X74286Y-77849D01*
X74356Y-77779D01*
X74395Y-77687D01*
X74395Y-77587D01*
X74395Y-77587D01*
X74424Y-77659D01*
X74572Y-77807D01*
X74765Y-77887D01*
X74974Y-77887D01*
X75167Y-77807D01*
X75314Y-77659D01*
X75370Y-77526D01*
X75424Y-77659D01*
X75572Y-77807D01*
X75765Y-77887D01*
X75974Y-77887D01*
X76167Y-77807D01*
X76314Y-77659D01*
X76370Y-77526D01*
X76424Y-77659D01*
X76572Y-77807D01*
X76765Y-77887D01*
X76974Y-77887D01*
X77167Y-77807D01*
X77314Y-77659D01*
X77370Y-77526D01*
X77424Y-77659D01*
X77572Y-77807D01*
X77765Y-77887D01*
X77974Y-77887D01*
X78167Y-77807D01*
X78314Y-77659D01*
X78370Y-77526D01*
X78424Y-77659D01*
X78572Y-77807D01*
X78765Y-77887D01*
X78974Y-77887D01*
X79167Y-77807D01*
X79314Y-77659D01*
X79370Y-77526D01*
X79424Y-77659D01*
X79572Y-77807D01*
X79765Y-77887D01*
X79974Y-77887D01*
X80167Y-77807D01*
X80314Y-77659D01*
X80370Y-77526D01*
X80424Y-77659D01*
X80572Y-77807D01*
X80765Y-77887D01*
X80974Y-77887D01*
X81167Y-77807D01*
X81314Y-77659D01*
X81370Y-77526D01*
X81424Y-77659D01*
X81572Y-77807D01*
X81765Y-77887D01*
X81974Y-77887D01*
X82167Y-77807D01*
X82314Y-77659D01*
X82367Y-77533D01*
X82409Y-77635D01*
X82502Y-77659D01*
X82799Y-77362D01*
X82502Y-77065D01*
X82409Y-77089D01*
X82370Y-77199D01*
X82315Y-77065D01*
X82198Y-76948D01*
X82198Y-76138D01*
X82230Y-76107D01*
X82295Y-75951D01*
X82295Y-75781D01*
X82230Y-75625D01*
X82198Y-75593D01*
X82198Y-70154D01*
X82249Y-70103D01*
X82314Y-69947D01*
X82314Y-69778D01*
X82250Y-69621D01*
X82198Y-69570D01*
X82198Y-64299D01*
X82237Y-64393D01*
X82357Y-64513D01*
X82513Y-64578D01*
X82682Y-64578D01*
X82838Y-64514D01*
X82958Y-64394D01*
X83023Y-64238D01*
X83023Y-64069D01*
X82958Y-63913D01*
X82898Y-63852D01*
X82898Y-63775D01*
X82987Y-63864D01*
X83143Y-63928D01*
X83312Y-63929D01*
X83468Y-63864D01*
X83588Y-63744D01*
X83653Y-63588D01*
X83653Y-63419D01*
X83588Y-63263D01*
X83528Y-63202D01*
X83528Y-60706D01*
X83581Y-60728D01*
X83600Y-60775D01*
X83670Y-60846D01*
X83762Y-60884D01*
X83862Y-60884D01*
X84662Y-60884D01*
X84754Y-60846D01*
X84824Y-60776D01*
X84862Y-60684D01*
X84862Y-60584D01*
X84862Y-61284D01*
X84824Y-61192D01*
X84754Y-61122D01*
X84662Y-61084D01*
X84563Y-61084D01*
X84325Y-61084D01*
X84262Y-61146D01*
X84262Y-61584D01*
X84800Y-61584D01*
X84862Y-61521D01*
X84862Y-61284D01*
X84862Y-61983D01*
X84862Y-61746D01*
X84800Y-61684D01*
X84262Y-61684D01*
X84262Y-62121D01*
X84325Y-62184D01*
X84563Y-62184D01*
X84662Y-62184D01*
X84754Y-62146D01*
X84824Y-62075D01*
X84862Y-61983D01*
X84862Y-67606D01*
X84758Y-67606D01*
X84602Y-67670D01*
X84482Y-67790D01*
X84417Y-67946D01*
X84417Y-68032D01*
X84162Y-68287D01*
X84162Y-62121D01*
X84162Y-61684D01*
X84162Y-61584D01*
X84162Y-61146D01*
X84100Y-61084D01*
X83862Y-61084D01*
X83762Y-61084D01*
X83670Y-61122D01*
X83600Y-61192D01*
X83562Y-61284D01*
X83562Y-61521D01*
X83625Y-61584D01*
X84162Y-61584D01*
X84162Y-61684D01*
X83625Y-61684D01*
X83562Y-61746D01*
X83562Y-61983D01*
X83600Y-62075D01*
X83670Y-62146D01*
X83762Y-62184D01*
X83862Y-62184D01*
X84100Y-62184D01*
X84162Y-62121D01*
X84162Y-68287D01*
X83606Y-68842D01*
X83541Y-68940D01*
X83518Y-69055D01*
X83518Y-71076D01*
X83458Y-71136D01*
X83393Y-71293D01*
X83393Y-71462D01*
X83458Y-71618D01*
X83577Y-71738D01*
X83733Y-71802D01*
X83739Y-71802D01*
X83793Y-71933D01*
X83912Y-72053D01*
X84051Y-72110D01*
X84107Y-72248D01*
X84227Y-72367D01*
X84375Y-72429D01*
X84422Y-72543D01*
X84542Y-72663D01*
X84693Y-72725D01*
X84693Y-72840D01*
X84757Y-72996D01*
X84877Y-73115D01*
X85033Y-73180D01*
X85090Y-73180D01*
X85111Y-73232D01*
X85231Y-73352D01*
X85387Y-73417D01*
X85556Y-73417D01*
X85712Y-73352D01*
X85832Y-73233D01*
X85897Y-73077D01*
X85897Y-72907D01*
X85832Y-72751D01*
X85772Y-72691D01*
X85772Y-72121D01*
X85861Y-72210D01*
X85973Y-72256D01*
X85972Y-72257D01*
X85972Y-72426D01*
X86037Y-72582D01*
X86156Y-72702D01*
X86312Y-72767D01*
X86481Y-72767D01*
X86530Y-72747D01*
X86530Y-74482D01*
X85909Y-75102D01*
X85844Y-75200D01*
X85822Y-75314D01*
X85822Y-75518D01*
X85797Y-75518D01*
X85705Y-75556D01*
X85635Y-75626D01*
X85597Y-75718D01*
X85597Y-75817D01*
X85597Y-76367D01*
X85634Y-76459D01*
X85705Y-76530D01*
X85797Y-76568D01*
X85896Y-76568D01*
X86446Y-76568D01*
X86538Y-76530D01*
X86608Y-76460D01*
X86647Y-76368D01*
X86647Y-76268D01*
X86647Y-76268D01*
X86676Y-76340D01*
X86824Y-76488D01*
X87017Y-76568D01*
X87226Y-76568D01*
X87419Y-76488D01*
X87566Y-76341D01*
X87619Y-76214D01*
X87661Y-76316D01*
X87754Y-76340D01*
X88051Y-76043D01*
X87754Y-75746D01*
X87661Y-75770D01*
X87622Y-75880D01*
X87567Y-75746D01*
X87419Y-75598D01*
X87226Y-75518D01*
X87018Y-75518D01*
X86825Y-75597D01*
X86677Y-75745D01*
X86647Y-75818D01*
X86647Y-75718D01*
X86609Y-75626D01*
X86538Y-75556D01*
X86446Y-75518D01*
X86422Y-75518D01*
X86422Y-75439D01*
X87042Y-74818D01*
X87042Y-74818D01*
X87107Y-74721D01*
X87130Y-74606D01*
X87130Y-74606D01*
X87130Y-67643D01*
X87449Y-67325D01*
X87448Y-67446D01*
X87513Y-67602D01*
X87593Y-67682D01*
X87593Y-74541D01*
X87533Y-74601D01*
X87468Y-74757D01*
X87468Y-74926D01*
X87533Y-75082D01*
X87652Y-75202D01*
X87808Y-75267D01*
X87977Y-75267D01*
X88134Y-75203D01*
X88253Y-75083D01*
X88318Y-74927D01*
X88318Y-74758D01*
X88254Y-74602D01*
X88193Y-74541D01*
X88193Y-73145D01*
X88243Y-73194D01*
X88399Y-73259D01*
X88499Y-73259D01*
X88499Y-74311D01*
X88522Y-74425D01*
X88531Y-74440D01*
X88531Y-74552D01*
X88596Y-74708D01*
X88715Y-74828D01*
X88748Y-74842D01*
X88748Y-75005D01*
X88812Y-75161D01*
X88822Y-75171D01*
X88822Y-75600D01*
X88677Y-75745D01*
X88624Y-75872D01*
X88582Y-75770D01*
X88489Y-75746D01*
X88419Y-75816D01*
X88419Y-75675D01*
X88394Y-75582D01*
X88197Y-75513D01*
X87989Y-75524D01*
X87849Y-75582D01*
X87824Y-75675D01*
X88122Y-75972D01*
X88419Y-75675D01*
X88419Y-75816D01*
X88192Y-76043D01*
X88489Y-76340D01*
X88582Y-76316D01*
X88621Y-76206D01*
X88676Y-76340D01*
X88824Y-76488D01*
X89017Y-76568D01*
X89226Y-76568D01*
X89419Y-76488D01*
X89566Y-76341D01*
X89622Y-76208D01*
X89676Y-76340D01*
X89824Y-76488D01*
X90017Y-76568D01*
X90226Y-76568D01*
X90419Y-76488D01*
X90566Y-76341D01*
X90622Y-76208D01*
X90676Y-76340D01*
X90824Y-76488D01*
X91017Y-76568D01*
X91226Y-76568D01*
X91419Y-76488D01*
X91566Y-76341D01*
X91646Y-76148D01*
X91647Y-75939D01*
X91647Y-78057D01*
X88419Y-78057D01*
X88419Y-76411D01*
X88122Y-76114D01*
X87824Y-76411D01*
X87849Y-76503D01*
X88046Y-76573D01*
X88254Y-76561D01*
X88394Y-76503D01*
X88419Y-76411D01*
X88419Y-78057D01*
X85395Y-78057D01*
X85395Y-77258D01*
X85315Y-77065D01*
X85170Y-76919D01*
X85170Y-74131D01*
X85222Y-74079D01*
X85287Y-73923D01*
X85287Y-73754D01*
X85222Y-73598D01*
X85103Y-73478D01*
X84947Y-73413D01*
X84778Y-73413D01*
X84621Y-73478D01*
X84502Y-73597D01*
X84437Y-73753D01*
X84437Y-73922D01*
X84501Y-74079D01*
X84570Y-74147D01*
X84570Y-76919D01*
X84425Y-77064D01*
X84370Y-77197D01*
X84315Y-77065D01*
X84198Y-76948D01*
X84198Y-75417D01*
X84257Y-75359D01*
X84322Y-75203D01*
X84322Y-75033D01*
X84258Y-74877D01*
X84138Y-74758D01*
X83982Y-74693D01*
X83813Y-74693D01*
X83657Y-74757D01*
X83537Y-74877D01*
X83472Y-75033D01*
X83472Y-75202D01*
X83537Y-75358D01*
X83541Y-75362D01*
X83541Y-76948D01*
X83425Y-77064D01*
X83372Y-77190D01*
X83330Y-77089D01*
X83237Y-77065D01*
X83167Y-77135D01*
X83167Y-76994D01*
X83142Y-76901D01*
X82945Y-76832D01*
X82737Y-76843D01*
X82597Y-76901D01*
X82572Y-76994D01*
X82870Y-77291D01*
X83167Y-76994D01*
X83167Y-77135D01*
X82940Y-77362D01*
X83237Y-77659D01*
X83330Y-77635D01*
X83369Y-77525D01*
X83424Y-77659D01*
X83572Y-77807D01*
X83765Y-77887D01*
X83974Y-77887D01*
X84167Y-77807D01*
X84314Y-77659D01*
X84370Y-77526D01*
X84424Y-77659D01*
X84572Y-77807D01*
X84765Y-77887D01*
X84974Y-77887D01*
X85167Y-77807D01*
X85314Y-77659D01*
X85394Y-77467D01*
X85395Y-77258D01*
X85395Y-78057D01*
X83167Y-78057D01*
X83167Y-77729D01*
X82870Y-77432D01*
X82572Y-77729D01*
X82597Y-77822D01*
X82794Y-77892D01*
X83002Y-77880D01*
X83142Y-77822D01*
X83167Y-77729D01*
X83167Y-78057D01*
X72926Y-78057D01*
X72926Y-75486D01*
X72846Y-75293D01*
X72699Y-75145D01*
X72506Y-75065D01*
X72297Y-75065D01*
X72104Y-75145D01*
X71956Y-75292D01*
X71901Y-75425D01*
X71846Y-75293D01*
X71701Y-75147D01*
X71701Y-66854D01*
X71701Y-66853D01*
X71701Y-66851D01*
X71700Y-66676D01*
X71757Y-66619D01*
X71822Y-66462D01*
X71822Y-66293D01*
X71758Y-66137D01*
X71638Y-66017D01*
X71482Y-65953D01*
X71369Y-65952D01*
X71369Y-65880D01*
X71305Y-65724D01*
X71185Y-65604D01*
X71029Y-65539D01*
X70910Y-65539D01*
X70910Y-63824D01*
X70970Y-63764D01*
X71035Y-63608D01*
X71035Y-63439D01*
X70970Y-63283D01*
X70851Y-63163D01*
X70695Y-63098D01*
X70526Y-63098D01*
X70369Y-63163D01*
X70280Y-63252D01*
X70280Y-57033D01*
X70340Y-56973D01*
X70405Y-56817D01*
X70405Y-56728D01*
X70476Y-56699D01*
X70596Y-56579D01*
X70661Y-56423D01*
X70661Y-56254D01*
X70596Y-56098D01*
X70536Y-56037D01*
X70536Y-41482D01*
X70576Y-41441D01*
X70641Y-41285D01*
X70641Y-41116D01*
X70577Y-40960D01*
X70457Y-40840D01*
X70301Y-40775D01*
X70132Y-40775D01*
X69976Y-40840D01*
X69856Y-40959D01*
X69791Y-41115D01*
X69791Y-41284D01*
X69856Y-41441D01*
X69936Y-41521D01*
X69936Y-56037D01*
X69876Y-56097D01*
X69811Y-56253D01*
X69811Y-56342D01*
X69739Y-56371D01*
X69716Y-56395D01*
X69716Y-42376D01*
X69651Y-42220D01*
X69532Y-42100D01*
X69430Y-42058D01*
X69430Y-40579D01*
X69430Y-40466D01*
X69368Y-40404D01*
X68955Y-40404D01*
X68955Y-40816D01*
X69018Y-40879D01*
X69230Y-40879D01*
X69321Y-40841D01*
X69392Y-40771D01*
X69430Y-40679D01*
X69430Y-40579D01*
X69430Y-42058D01*
X69376Y-42035D01*
X69207Y-42035D01*
X69050Y-42100D01*
X68931Y-42219D01*
X68866Y-42375D01*
X68866Y-42544D01*
X68883Y-42587D01*
X68883Y-42692D01*
X68863Y-42671D01*
X68706Y-42606D01*
X68537Y-42606D01*
X68381Y-42670D01*
X68261Y-42790D01*
X68197Y-42946D01*
X68196Y-43115D01*
X68243Y-43227D01*
X68243Y-48478D01*
X68183Y-48538D01*
X68118Y-48694D01*
X68118Y-48863D01*
X68182Y-49019D01*
X68302Y-49139D01*
X68458Y-49204D01*
X68627Y-49204D01*
X68783Y-49140D01*
X68883Y-49040D01*
X68883Y-50259D01*
X68852Y-50290D01*
X68787Y-50446D01*
X68787Y-50615D01*
X68852Y-50771D01*
X68971Y-50891D01*
X69127Y-50956D01*
X69296Y-50956D01*
X69453Y-50892D01*
X69572Y-50772D01*
X69637Y-50616D01*
X69637Y-50447D01*
X69573Y-50291D01*
X69541Y-50259D01*
X69541Y-42811D01*
X69651Y-42701D01*
X69716Y-42545D01*
X69716Y-42376D01*
X69716Y-56395D01*
X69620Y-56491D01*
X69572Y-56606D01*
X69424Y-56667D01*
X69305Y-56786D01*
X69240Y-56942D01*
X69240Y-57111D01*
X69304Y-57267D01*
X69308Y-57271D01*
X69266Y-57271D01*
X69109Y-57336D01*
X68990Y-57455D01*
X68925Y-57611D01*
X68925Y-57781D01*
X68989Y-57937D01*
X69050Y-57997D01*
X69050Y-65484D01*
X69041Y-65480D01*
X68872Y-65480D01*
X68716Y-65545D01*
X68596Y-65664D01*
X68531Y-65820D01*
X68531Y-65989D01*
X68540Y-66012D01*
X68538Y-66023D01*
X68538Y-72966D01*
X68478Y-73026D01*
X68413Y-73182D01*
X68413Y-73256D01*
X68321Y-73256D01*
X68165Y-73320D01*
X68045Y-73440D01*
X67980Y-73596D01*
X67980Y-73765D01*
X68045Y-73921D01*
X68072Y-73949D01*
X68072Y-75176D01*
X67956Y-75292D01*
X67926Y-75365D01*
X67926Y-75266D01*
X67888Y-75174D01*
X67818Y-75103D01*
X67726Y-75065D01*
X67701Y-75065D01*
X67701Y-73549D01*
X67761Y-73489D01*
X67826Y-73332D01*
X67826Y-73163D01*
X67762Y-73007D01*
X67642Y-72887D01*
X67486Y-72823D01*
X67317Y-72822D01*
X67161Y-72887D01*
X67041Y-73006D01*
X66976Y-73163D01*
X66976Y-73332D01*
X67041Y-73488D01*
X67101Y-73549D01*
X67101Y-75065D01*
X67077Y-75065D01*
X66985Y-75103D01*
X66914Y-75173D01*
X66876Y-75265D01*
X66876Y-75365D01*
X66876Y-75915D01*
X66914Y-76006D01*
X66984Y-76077D01*
X67076Y-76115D01*
X67101Y-76115D01*
X67101Y-76670D01*
X67062Y-76686D01*
X66943Y-76806D01*
X66878Y-76962D01*
X66878Y-77131D01*
X66942Y-77287D01*
X67062Y-77407D01*
X67218Y-77472D01*
X67387Y-77472D01*
X67543Y-77407D01*
X67663Y-77288D01*
X67728Y-77132D01*
X67728Y-76963D01*
X67701Y-76898D01*
X67701Y-76115D01*
X67726Y-76115D01*
X67818Y-76077D01*
X67888Y-76007D01*
X67926Y-75915D01*
X67926Y-75816D01*
X67926Y-75815D01*
X67956Y-75887D01*
X68101Y-76033D01*
X68101Y-76730D01*
X68006Y-76825D01*
X67941Y-76982D01*
X67941Y-77151D01*
X68005Y-77307D01*
X68125Y-77427D01*
X68281Y-77491D01*
X68450Y-77492D01*
X68606Y-77427D01*
X68726Y-77307D01*
X68791Y-77151D01*
X68791Y-76982D01*
X68726Y-76826D01*
X68701Y-76801D01*
X68701Y-76032D01*
X68846Y-75888D01*
X68898Y-75761D01*
X68941Y-75863D01*
X69033Y-75887D01*
X69330Y-75590D01*
X69033Y-75293D01*
X68941Y-75317D01*
X68902Y-75427D01*
X68846Y-75293D01*
X68730Y-75176D01*
X68730Y-73957D01*
X68765Y-73922D01*
X68830Y-73766D01*
X68830Y-73692D01*
X68922Y-73692D01*
X69079Y-73628D01*
X69198Y-73508D01*
X69263Y-73352D01*
X69263Y-73183D01*
X69199Y-73027D01*
X69138Y-72966D01*
X69138Y-67108D01*
X69147Y-67130D01*
X69266Y-67249D01*
X69318Y-67271D01*
X69299Y-67316D01*
X69299Y-67485D01*
X69363Y-67642D01*
X69483Y-67761D01*
X69639Y-67826D01*
X69674Y-67826D01*
X69673Y-67828D01*
X69673Y-67997D01*
X69737Y-68153D01*
X69857Y-68273D01*
X70009Y-68336D01*
X70008Y-68340D01*
X70007Y-68509D01*
X70072Y-68665D01*
X70097Y-68690D01*
X70072Y-68715D01*
X70008Y-68871D01*
X70007Y-69040D01*
X70072Y-69197D01*
X70093Y-69218D01*
X70093Y-69437D01*
X69955Y-69437D01*
X69798Y-69501D01*
X69679Y-69621D01*
X69614Y-69777D01*
X69614Y-69946D01*
X69678Y-70102D01*
X69710Y-70134D01*
X69710Y-73232D01*
X69641Y-73261D01*
X69521Y-73380D01*
X69456Y-73537D01*
X69456Y-73706D01*
X69521Y-73862D01*
X69640Y-73982D01*
X69796Y-74046D01*
X69966Y-74047D01*
X70122Y-73982D01*
X70241Y-73863D01*
X70263Y-73811D01*
X70308Y-73830D01*
X70477Y-73830D01*
X70634Y-73766D01*
X70753Y-73646D01*
X70759Y-73633D01*
X70841Y-73633D01*
X70841Y-74726D01*
X70502Y-75065D01*
X70297Y-75065D01*
X70104Y-75145D01*
X69956Y-75292D01*
X69904Y-75419D01*
X69862Y-75317D01*
X69769Y-75293D01*
X69698Y-75364D01*
X69698Y-75222D01*
X69674Y-75130D01*
X69477Y-75060D01*
X69268Y-75071D01*
X69128Y-75130D01*
X69104Y-75222D01*
X69401Y-75519D01*
X69698Y-75222D01*
X69698Y-75364D01*
X69472Y-75590D01*
X69769Y-75887D01*
X69862Y-75863D01*
X69900Y-75753D01*
X69956Y-75887D01*
X70103Y-76035D01*
X70296Y-76115D01*
X70505Y-76115D01*
X70698Y-76035D01*
X70846Y-75888D01*
X70901Y-75755D01*
X70956Y-75887D01*
X71103Y-76035D01*
X71296Y-76115D01*
X71505Y-76115D01*
X71698Y-76035D01*
X71846Y-75888D01*
X71901Y-75755D01*
X71956Y-75887D01*
X72103Y-76035D01*
X72296Y-76115D01*
X72505Y-76115D01*
X72698Y-76035D01*
X72846Y-75888D01*
X72926Y-75695D01*
X72926Y-75486D01*
X72926Y-78057D01*
X69698Y-78057D01*
X69698Y-75958D01*
X69401Y-75661D01*
X69104Y-75958D01*
X69128Y-76051D01*
X69325Y-76120D01*
X69534Y-76109D01*
X69674Y-76051D01*
X69698Y-75958D01*
X69698Y-78057D01*
X65938Y-78057D01*
X65938Y-77568D01*
X65938Y-77117D01*
X65938Y-77017D01*
X65900Y-76925D01*
X65829Y-76855D01*
X65737Y-76817D01*
X65525Y-76817D01*
X65463Y-76880D01*
X65463Y-77292D01*
X65875Y-77292D01*
X65938Y-77230D01*
X65938Y-77117D01*
X65938Y-77568D01*
X65938Y-77455D01*
X65875Y-77392D01*
X65463Y-77392D01*
X65463Y-77805D01*
X65525Y-77867D01*
X65737Y-77867D01*
X65829Y-77829D01*
X65900Y-77759D01*
X65938Y-77667D01*
X65938Y-77568D01*
X65938Y-78057D01*
X65092Y-78057D01*
X65092Y-77867D01*
X65300Y-77867D01*
X65363Y-77805D01*
X65363Y-77392D01*
X65355Y-77392D01*
X65355Y-77292D01*
X65363Y-77292D01*
X65363Y-76880D01*
X65300Y-76817D01*
X65092Y-76817D01*
X65092Y-72391D01*
X65147Y-72414D01*
X65246Y-72414D01*
X65796Y-72414D01*
X65888Y-72376D01*
X65959Y-72306D01*
X65997Y-72214D01*
X65997Y-72115D01*
X65997Y-71565D01*
X65959Y-71473D01*
X65889Y-71402D01*
X65797Y-71364D01*
X65697Y-71364D01*
X65147Y-71364D01*
X65092Y-71387D01*
X65092Y-70935D01*
X65147Y-70958D01*
X65246Y-70958D01*
X65796Y-70958D01*
X65888Y-70920D01*
X65959Y-70849D01*
X65997Y-70758D01*
X65997Y-70658D01*
X65997Y-70108D01*
X65959Y-70016D01*
X65889Y-69946D01*
X65797Y-69908D01*
X65697Y-69908D01*
X65147Y-69908D01*
X65092Y-69930D01*
X65092Y-59476D01*
X65131Y-59571D01*
X65251Y-59690D01*
X65407Y-59755D01*
X65526Y-59755D01*
X65526Y-66023D01*
X65529Y-66034D01*
X65529Y-66034D01*
X65519Y-66056D01*
X65519Y-66225D01*
X65584Y-66382D01*
X65703Y-66501D01*
X65859Y-66566D01*
X66029Y-66566D01*
X66185Y-66502D01*
X66304Y-66382D01*
X66362Y-66244D01*
X66484Y-66193D01*
X66484Y-66324D01*
X66548Y-66480D01*
X66609Y-66541D01*
X66609Y-70649D01*
X66632Y-70764D01*
X66697Y-70861D01*
X66760Y-70924D01*
X66759Y-71009D01*
X66824Y-71165D01*
X66943Y-71285D01*
X67100Y-71350D01*
X67269Y-71350D01*
X67425Y-71285D01*
X67545Y-71166D01*
X67609Y-71010D01*
X67610Y-70841D01*
X67593Y-70801D01*
X67661Y-70773D01*
X67781Y-70654D01*
X67846Y-70498D01*
X67846Y-70329D01*
X67818Y-70262D01*
X67919Y-70162D01*
X67983Y-70006D01*
X67984Y-69837D01*
X67919Y-69680D01*
X67878Y-69639D01*
X67878Y-64929D01*
X67887Y-64932D01*
X68056Y-64932D01*
X68212Y-64868D01*
X68332Y-64748D01*
X68397Y-64592D01*
X68397Y-64423D01*
X68332Y-64267D01*
X68213Y-64147D01*
X68213Y-64147D01*
X68213Y-60616D01*
X68273Y-60556D01*
X68338Y-60399D01*
X68338Y-60230D01*
X68273Y-60074D01*
X68213Y-60013D01*
X68213Y-57751D01*
X68330Y-57703D01*
X68450Y-57583D01*
X68515Y-57427D01*
X68515Y-57258D01*
X68451Y-57102D01*
X68331Y-56982D01*
X68175Y-56917D01*
X68006Y-56917D01*
X67878Y-56970D01*
X67878Y-50438D01*
X67938Y-50378D01*
X68003Y-50222D01*
X68003Y-50053D01*
X67939Y-49897D01*
X67819Y-49777D01*
X67663Y-49712D01*
X67494Y-49712D01*
X67338Y-49777D01*
X67218Y-49896D01*
X67153Y-50052D01*
X67153Y-50221D01*
X67218Y-50378D01*
X67278Y-50438D01*
X67278Y-59784D01*
X67217Y-59784D01*
X67217Y-58473D01*
X67217Y-58022D01*
X67217Y-57923D01*
X67179Y-57831D01*
X67109Y-57760D01*
X67080Y-57748D01*
X67080Y-45301D01*
X67000Y-45108D01*
X66852Y-44960D01*
X66660Y-44880D01*
X66451Y-44880D01*
X66258Y-44960D01*
X66110Y-45107D01*
X66030Y-45300D01*
X66030Y-45509D01*
X66109Y-45702D01*
X66257Y-45850D01*
X66329Y-45880D01*
X66230Y-45880D01*
X66138Y-45918D01*
X66068Y-45988D01*
X66030Y-46080D01*
X66030Y-46180D01*
X66030Y-46730D01*
X66068Y-46821D01*
X66138Y-46892D01*
X66230Y-46930D01*
X66329Y-46930D01*
X66879Y-46930D01*
X66971Y-46892D01*
X67041Y-46822D01*
X67080Y-46730D01*
X67080Y-46631D01*
X67080Y-46081D01*
X67042Y-45989D01*
X66971Y-45918D01*
X66880Y-45880D01*
X66780Y-45880D01*
X66780Y-45880D01*
X66852Y-45850D01*
X66999Y-45703D01*
X67080Y-45510D01*
X67080Y-45301D01*
X67080Y-57748D01*
X67017Y-57722D01*
X66805Y-57723D01*
X66742Y-57785D01*
X66742Y-58198D01*
X67155Y-58198D01*
X67217Y-58135D01*
X67217Y-58022D01*
X67217Y-58473D01*
X67217Y-58360D01*
X67155Y-58298D01*
X66742Y-58298D01*
X66742Y-58710D01*
X66805Y-58773D01*
X67017Y-58773D01*
X67109Y-58735D01*
X67179Y-58664D01*
X67217Y-58572D01*
X67217Y-58473D01*
X67217Y-59784D01*
X67200Y-59784D01*
X66441Y-59784D01*
X66441Y-58773D01*
X66580Y-58773D01*
X66642Y-58710D01*
X66642Y-58298D01*
X66635Y-58298D01*
X66635Y-58198D01*
X66642Y-58198D01*
X66642Y-57785D01*
X66580Y-57723D01*
X66441Y-57723D01*
X66441Y-54100D01*
X66501Y-54040D01*
X66566Y-53884D01*
X66566Y-53715D01*
X66502Y-53558D01*
X66382Y-53439D01*
X66226Y-53374D01*
X66057Y-53374D01*
X65938Y-53423D01*
X65938Y-40560D01*
X65938Y-40447D01*
X65875Y-40384D01*
X65463Y-40384D01*
X65463Y-40797D01*
X65525Y-40859D01*
X65737Y-40859D01*
X65829Y-40821D01*
X65900Y-40751D01*
X65938Y-40659D01*
X65938Y-40560D01*
X65938Y-53423D01*
X65901Y-53438D01*
X65781Y-53558D01*
X65716Y-53714D01*
X65716Y-53883D01*
X65781Y-54039D01*
X65841Y-54100D01*
X65841Y-54614D01*
X65742Y-54614D01*
X65586Y-54678D01*
X65466Y-54798D01*
X65437Y-54867D01*
X65437Y-52761D01*
X65497Y-52701D01*
X65562Y-52545D01*
X65562Y-52376D01*
X65498Y-52220D01*
X65378Y-52100D01*
X65222Y-52035D01*
X65092Y-52035D01*
X65092Y-40859D01*
X65300Y-40859D01*
X65363Y-40797D01*
X65363Y-40384D01*
X65355Y-40384D01*
X65355Y-40284D01*
X65363Y-40284D01*
X65363Y-40276D01*
X65463Y-40276D01*
X65463Y-40284D01*
X65875Y-40284D01*
X65938Y-40222D01*
X65938Y-40109D01*
X65938Y-40009D01*
X65900Y-39917D01*
X65877Y-39895D01*
X67640Y-39895D01*
X67608Y-39908D01*
X67460Y-40056D01*
X67380Y-40249D01*
X67380Y-40458D01*
X67460Y-40651D01*
X67605Y-40796D01*
X67605Y-40907D01*
X67533Y-40979D01*
X67468Y-41135D01*
X67468Y-41304D01*
X67533Y-41460D01*
X67652Y-41580D01*
X67808Y-41645D01*
X67977Y-41645D01*
X68134Y-41580D01*
X68253Y-41461D01*
X68318Y-41305D01*
X68318Y-41136D01*
X68254Y-40980D01*
X68205Y-40931D01*
X68205Y-40796D01*
X68350Y-40652D01*
X68380Y-40579D01*
X68380Y-40579D01*
X68380Y-40679D01*
X68418Y-40771D01*
X68489Y-40841D01*
X68581Y-40879D01*
X68793Y-40879D01*
X68855Y-40816D01*
X68855Y-40404D01*
X68847Y-40404D01*
X68847Y-40304D01*
X68855Y-40304D01*
X68855Y-40296D01*
X68955Y-40296D01*
X68955Y-40304D01*
X69368Y-40304D01*
X69430Y-40241D01*
X69430Y-40128D01*
X69430Y-40029D01*
X69392Y-39937D01*
X69350Y-39895D01*
X88759Y-39895D01*
X88737Y-39917D01*
X88699Y-40009D01*
X88699Y-40109D01*
X88699Y-40659D01*
X88737Y-40751D01*
X88807Y-40821D01*
X88899Y-40859D01*
X88998Y-40859D01*
X89548Y-40859D01*
X89640Y-40821D01*
X89711Y-40751D01*
X89749Y-40659D01*
X89749Y-40572D01*
X89763Y-40607D01*
X89856Y-40631D01*
X90153Y-40334D01*
X89856Y-40037D01*
X89763Y-40061D01*
X89749Y-40102D01*
X89749Y-40010D01*
X89711Y-39918D01*
X89688Y-39895D01*
X89945Y-39895D01*
X89927Y-39966D01*
X90224Y-40263D01*
X90521Y-39966D01*
X90502Y-39895D01*
X92310Y-39895D01*
X92288Y-39917D01*
X92250Y-40009D01*
X92250Y-40109D01*
X92250Y-40222D01*
X92313Y-40284D01*
X92725Y-40284D01*
X92725Y-40276D01*
X92825Y-40276D01*
X92825Y-40284D01*
X92833Y-40284D01*
X92833Y-40384D01*
X92825Y-40384D01*
X92825Y-40797D01*
X92888Y-40859D01*
X93096Y-40859D01*
X93096Y-50467D01*
X93095Y-50466D01*
X92939Y-50401D01*
X92770Y-50401D01*
X92671Y-50442D01*
X92671Y-41788D01*
X92702Y-41756D01*
X92767Y-41600D01*
X92767Y-41431D01*
X92725Y-41329D01*
X92725Y-40797D01*
X92725Y-40384D01*
X92313Y-40384D01*
X92250Y-40447D01*
X92250Y-40560D01*
X92250Y-40659D01*
X92288Y-40751D01*
X92359Y-40821D01*
X92451Y-40859D01*
X92663Y-40859D01*
X92725Y-40797D01*
X92725Y-41329D01*
X92703Y-41275D01*
X92583Y-41155D01*
X92427Y-41090D01*
X92258Y-41090D01*
X92102Y-41155D01*
X91982Y-41274D01*
X91917Y-41430D01*
X91917Y-41599D01*
X91982Y-41756D01*
X92013Y-41787D01*
X92013Y-41826D01*
X91973Y-41785D01*
X91817Y-41720D01*
X91648Y-41720D01*
X91491Y-41785D01*
X91372Y-41904D01*
X91307Y-42060D01*
X91307Y-42229D01*
X91371Y-42386D01*
X91403Y-42417D01*
X91403Y-51282D01*
X91372Y-51314D01*
X91307Y-51470D01*
X91307Y-51639D01*
X91371Y-51795D01*
X91403Y-51827D01*
X91403Y-58487D01*
X91372Y-58518D01*
X91307Y-58674D01*
X91307Y-58844D01*
X91371Y-59000D01*
X91491Y-59119D01*
X91647Y-59184D01*
X91816Y-59184D01*
X91972Y-59120D01*
X92013Y-59079D01*
X92013Y-60138D01*
X91954Y-59995D01*
X91835Y-59876D01*
X91679Y-59811D01*
X91510Y-59811D01*
X91354Y-59875D01*
X91234Y-59995D01*
X91169Y-60151D01*
X91169Y-60320D01*
X91233Y-60476D01*
X91294Y-60537D01*
X91294Y-63295D01*
X91215Y-63295D01*
X91058Y-63359D01*
X90939Y-63479D01*
X90874Y-63635D01*
X90874Y-63804D01*
X90938Y-63960D01*
X90940Y-63962D01*
X90940Y-71948D01*
X90962Y-72063D01*
X91028Y-72160D01*
X91248Y-72381D01*
X91248Y-72456D01*
X91157Y-72493D01*
X91037Y-72613D01*
X90972Y-72769D01*
X90972Y-72938D01*
X91037Y-73094D01*
X91097Y-73155D01*
X91097Y-73728D01*
X91077Y-73728D01*
X90920Y-73793D01*
X90801Y-73912D01*
X90736Y-74068D01*
X90736Y-74237D01*
X90800Y-74393D01*
X90920Y-74513D01*
X91076Y-74578D01*
X91245Y-74578D01*
X91401Y-74514D01*
X91521Y-74394D01*
X91586Y-74238D01*
X91586Y-74152D01*
X91609Y-74129D01*
X91674Y-74032D01*
X91688Y-73964D01*
X91688Y-74147D01*
X91628Y-74207D01*
X91563Y-74363D01*
X91563Y-74532D01*
X91627Y-74689D01*
X91747Y-74808D01*
X91878Y-74863D01*
X91878Y-74907D01*
X91942Y-75063D01*
X92062Y-75182D01*
X92218Y-75247D01*
X92387Y-75247D01*
X92543Y-75183D01*
X92663Y-75063D01*
X92728Y-74907D01*
X92728Y-74738D01*
X92663Y-74582D01*
X92603Y-74521D01*
X92603Y-67692D01*
X92632Y-67722D01*
X92789Y-67787D01*
X92869Y-67787D01*
X92869Y-68462D01*
X92830Y-68478D01*
X92710Y-68597D01*
X92645Y-68753D01*
X92645Y-68922D01*
X92710Y-69079D01*
X92829Y-69198D01*
X92985Y-69263D01*
X93096Y-69263D01*
X93096Y-76817D01*
X92888Y-76817D01*
X92825Y-76880D01*
X92825Y-77292D01*
X92833Y-77292D01*
X92833Y-77392D01*
X92825Y-77392D01*
X92825Y-77805D01*
X92888Y-77867D01*
X93096Y-77867D01*
X93096Y-78057D01*
X93096Y-78057D01*
G37*
G54D21*
X93096Y-78057D02*
X92725Y-78057D01*
X92725Y-77805D01*
X92725Y-77392D01*
X92725Y-77292D01*
X92725Y-76880D01*
X92663Y-76817D01*
X92451Y-76817D01*
X92359Y-76855D01*
X92288Y-76925D01*
X92250Y-77017D01*
X92250Y-77117D01*
X92250Y-77230D01*
X92313Y-77292D01*
X92725Y-77292D01*
X92725Y-77392D01*
X92313Y-77392D01*
X92250Y-77455D01*
X92250Y-77568D01*
X92250Y-77667D01*
X92288Y-77759D01*
X92359Y-77829D01*
X92451Y-77867D01*
X92663Y-77867D01*
X92725Y-77805D01*
X92725Y-78057D01*
X91647Y-78057D01*
X91647Y-75939D01*
X91567Y-75746D01*
X91419Y-75598D01*
X91226Y-75518D01*
X91018Y-75518D01*
X90825Y-75597D01*
X90677Y-75745D01*
X90622Y-75878D01*
X90567Y-75746D01*
X90422Y-75600D01*
X90422Y-74864D01*
X90478Y-74807D01*
X90543Y-74651D01*
X90543Y-74482D01*
X90478Y-74326D01*
X90359Y-74206D01*
X90203Y-74142D01*
X90033Y-74141D01*
X89877Y-74206D01*
X89758Y-74325D01*
X89693Y-74482D01*
X89693Y-74651D01*
X89757Y-74807D01*
X89822Y-74871D01*
X89822Y-75600D01*
X89677Y-75745D01*
X89622Y-75878D01*
X89567Y-75746D01*
X89422Y-75600D01*
X89422Y-75273D01*
X89533Y-75162D01*
X89598Y-75006D01*
X89598Y-74837D01*
X89533Y-74680D01*
X89414Y-74561D01*
X89381Y-74547D01*
X89381Y-74384D01*
X89317Y-74228D01*
X89302Y-74213D01*
X89422Y-74263D01*
X89592Y-74263D01*
X89748Y-74199D01*
X89867Y-74079D01*
X89932Y-73923D01*
X89932Y-73754D01*
X89886Y-73642D01*
X89886Y-72643D01*
X89946Y-72583D01*
X90011Y-72427D01*
X90011Y-72258D01*
X89947Y-72102D01*
X89827Y-71982D01*
X89696Y-71928D01*
X89696Y-71785D01*
X89632Y-71629D01*
X89512Y-71509D01*
X89356Y-71445D01*
X89187Y-71445D01*
X89099Y-71481D01*
X89099Y-69502D01*
X89127Y-69571D01*
X89247Y-69690D01*
X89389Y-69749D01*
X89378Y-69777D01*
X89378Y-69946D01*
X89442Y-70102D01*
X89562Y-70222D01*
X89693Y-70276D01*
X89693Y-70359D01*
X89757Y-70516D01*
X89877Y-70635D01*
X90033Y-70700D01*
X90133Y-70700D01*
X90133Y-70901D01*
X89995Y-70958D01*
X89876Y-71077D01*
X89811Y-71233D01*
X89811Y-71403D01*
X89875Y-71559D01*
X89995Y-71678D01*
X90151Y-71743D01*
X90320Y-71743D01*
X90476Y-71679D01*
X90596Y-71559D01*
X90661Y-71403D01*
X90661Y-71310D01*
X90661Y-71310D01*
X90710Y-71236D01*
X90733Y-71122D01*
X90733Y-71122D01*
X90733Y-53639D01*
X90859Y-53692D01*
X91029Y-53692D01*
X91185Y-53628D01*
X91304Y-53508D01*
X91369Y-53352D01*
X91369Y-53183D01*
X91305Y-53027D01*
X91205Y-52927D01*
X91205Y-47840D01*
X91265Y-47780D01*
X91330Y-47624D01*
X91330Y-47455D01*
X91266Y-47298D01*
X91146Y-47179D01*
X90990Y-47114D01*
X90821Y-47114D01*
X90733Y-47150D01*
X90733Y-43352D01*
X90793Y-43292D01*
X90857Y-43136D01*
X90858Y-42967D01*
X90793Y-42810D01*
X90754Y-42771D01*
X90754Y-40410D01*
X90742Y-40201D01*
X90684Y-40061D01*
X90592Y-40037D01*
X90295Y-40334D01*
X90592Y-40631D01*
X90684Y-40607D01*
X90754Y-40410D01*
X90754Y-42771D01*
X90674Y-42691D01*
X90521Y-42627D01*
X90521Y-40702D01*
X90224Y-40405D01*
X89927Y-40702D01*
X89951Y-40795D01*
X90148Y-40864D01*
X90357Y-40853D01*
X90497Y-40795D01*
X90521Y-40702D01*
X90521Y-42627D01*
X90517Y-42626D01*
X90348Y-42626D01*
X90192Y-42690D01*
X90072Y-42810D01*
X90008Y-42966D01*
X90007Y-43135D01*
X90072Y-43291D01*
X90133Y-43352D01*
X90133Y-59784D01*
X89993Y-59784D01*
X89993Y-54949D01*
X89993Y-54498D01*
X89993Y-54399D01*
X89955Y-54307D01*
X89884Y-54237D01*
X89793Y-54199D01*
X89581Y-54199D01*
X89518Y-54261D01*
X89518Y-54674D01*
X89931Y-54674D01*
X89993Y-54611D01*
X89993Y-54498D01*
X89993Y-54949D01*
X89993Y-54836D01*
X89931Y-54774D01*
X89518Y-54774D01*
X89518Y-55186D01*
X89581Y-55249D01*
X89793Y-55249D01*
X89884Y-55211D01*
X89955Y-55141D01*
X89993Y-55049D01*
X89993Y-54949D01*
X89993Y-59784D01*
X89418Y-59784D01*
X89418Y-55186D01*
X89418Y-54774D01*
X89418Y-54674D01*
X89418Y-54261D01*
X89356Y-54199D01*
X89143Y-54199D01*
X89052Y-54237D01*
X88981Y-54307D01*
X88943Y-54399D01*
X88943Y-54498D01*
X88943Y-54611D01*
X89006Y-54674D01*
X89418Y-54674D01*
X89418Y-54774D01*
X89006Y-54774D01*
X88943Y-54836D01*
X88943Y-54949D01*
X88943Y-55049D01*
X88981Y-55141D01*
X89052Y-55211D01*
X89143Y-55249D01*
X89356Y-55249D01*
X89418Y-55186D01*
X89418Y-59784D01*
X89353Y-59784D01*
X89261Y-59822D01*
X89191Y-59892D01*
X89153Y-59984D01*
X89153Y-59994D01*
X89071Y-60076D01*
X89006Y-60232D01*
X89006Y-60401D01*
X89070Y-60557D01*
X89153Y-60640D01*
X89153Y-60683D01*
X89191Y-60775D01*
X89261Y-60846D01*
X89353Y-60884D01*
X89452Y-60884D01*
X90133Y-60884D01*
X90133Y-61084D01*
X89915Y-61084D01*
X89853Y-61146D01*
X89853Y-61584D01*
X89861Y-61584D01*
X89861Y-61684D01*
X89853Y-61684D01*
X89853Y-62121D01*
X89915Y-62184D01*
X90133Y-62184D01*
X90133Y-64197D01*
X90024Y-64088D01*
X89868Y-64023D01*
X89753Y-64023D01*
X89753Y-62121D01*
X89753Y-61684D01*
X89753Y-61584D01*
X89753Y-61146D01*
X89690Y-61084D01*
X89452Y-61084D01*
X89353Y-61084D01*
X89261Y-61122D01*
X89191Y-61192D01*
X89153Y-61284D01*
X89153Y-61521D01*
X89215Y-61584D01*
X89753Y-61584D01*
X89753Y-61684D01*
X89215Y-61684D01*
X89153Y-61746D01*
X89153Y-61983D01*
X89191Y-62075D01*
X89261Y-62146D01*
X89353Y-62184D01*
X89452Y-62184D01*
X89690Y-62184D01*
X89753Y-62121D01*
X89753Y-64023D01*
X89699Y-64023D01*
X89543Y-64088D01*
X89519Y-64111D01*
X89519Y-64069D01*
X89454Y-63913D01*
X89335Y-63793D01*
X89179Y-63728D01*
X89010Y-63728D01*
X88854Y-63793D01*
X88734Y-63912D01*
X88705Y-63982D01*
X88705Y-51192D01*
X88732Y-51128D01*
X88732Y-50959D01*
X88667Y-50802D01*
X88548Y-50683D01*
X88391Y-50618D01*
X88222Y-50618D01*
X88066Y-50682D01*
X87946Y-50802D01*
X87882Y-50958D01*
X87882Y-51127D01*
X87946Y-51283D01*
X88066Y-51403D01*
X88105Y-51419D01*
X88105Y-65917D01*
X88096Y-65913D01*
X87927Y-65913D01*
X87826Y-65955D01*
X87826Y-63774D01*
X87762Y-63617D01*
X87701Y-63557D01*
X87701Y-48267D01*
X87701Y-48267D01*
X87678Y-48152D01*
X87629Y-48079D01*
X87629Y-48079D01*
X87629Y-47986D01*
X87565Y-47830D01*
X87445Y-47710D01*
X87289Y-47645D01*
X87120Y-47645D01*
X86964Y-47710D01*
X86844Y-47829D01*
X86779Y-47985D01*
X86779Y-48155D01*
X86844Y-48311D01*
X86963Y-48430D01*
X87101Y-48488D01*
X87101Y-63557D01*
X87041Y-63617D01*
X86976Y-63773D01*
X86976Y-63942D01*
X87041Y-64098D01*
X87160Y-64218D01*
X87316Y-64283D01*
X87485Y-64283D01*
X87642Y-64218D01*
X87761Y-64099D01*
X87826Y-63943D01*
X87826Y-63774D01*
X87826Y-65955D01*
X87771Y-65978D01*
X87651Y-66097D01*
X87586Y-66253D01*
X87586Y-66339D01*
X86717Y-67208D01*
X86717Y-50950D01*
X86777Y-50890D01*
X86842Y-50734D01*
X86842Y-50565D01*
X86777Y-50409D01*
X86658Y-50289D01*
X86543Y-50241D01*
X86482Y-50094D01*
X86363Y-49974D01*
X86206Y-49909D01*
X86175Y-49909D01*
X86175Y-49065D01*
X86077Y-48828D01*
X85896Y-48647D01*
X85660Y-48549D01*
X85464Y-48549D01*
X85464Y-42356D01*
X85399Y-42200D01*
X85280Y-42080D01*
X85124Y-42016D01*
X84955Y-42015D01*
X84798Y-42080D01*
X84679Y-42199D01*
X84614Y-42356D01*
X84614Y-42525D01*
X84678Y-42681D01*
X84710Y-42713D01*
X84710Y-45139D01*
X84017Y-45832D01*
X83385Y-45832D01*
X83260Y-45857D01*
X83162Y-45923D01*
X83162Y-45541D01*
X83162Y-44930D01*
X83162Y-44831D01*
X83124Y-44739D01*
X83053Y-44669D01*
X82961Y-44631D01*
X82709Y-44631D01*
X82647Y-44693D01*
X82647Y-45186D01*
X83099Y-45186D01*
X83162Y-45123D01*
X83162Y-44930D01*
X83162Y-45541D01*
X83162Y-45348D01*
X83099Y-45286D01*
X82647Y-45286D01*
X82647Y-45778D01*
X82709Y-45841D01*
X82961Y-45841D01*
X83053Y-45803D01*
X83124Y-45733D01*
X83162Y-45641D01*
X83162Y-45541D01*
X83162Y-45923D01*
X83153Y-45928D01*
X82547Y-46535D01*
X82547Y-45778D01*
X82547Y-45286D01*
X82539Y-45286D01*
X82539Y-45186D01*
X82547Y-45186D01*
X82547Y-44693D01*
X82484Y-44631D01*
X82232Y-44631D01*
X82140Y-44669D01*
X82070Y-44739D01*
X82047Y-44795D01*
X82024Y-44739D01*
X81954Y-44669D01*
X81862Y-44631D01*
X81762Y-44631D01*
X81132Y-44631D01*
X81040Y-44669D01*
X80970Y-44739D01*
X80932Y-44831D01*
X80932Y-44930D01*
X80932Y-45640D01*
X80970Y-45732D01*
X81040Y-45803D01*
X81132Y-45841D01*
X81197Y-45841D01*
X81197Y-46921D01*
X79816Y-48302D01*
X79602Y-48302D01*
X80427Y-47477D01*
X80492Y-47379D01*
X80492Y-47379D01*
X80515Y-47264D01*
X80515Y-47264D01*
X80515Y-45841D01*
X80579Y-45841D01*
X80671Y-45803D01*
X80742Y-45733D01*
X80780Y-45641D01*
X80780Y-45541D01*
X80780Y-44831D01*
X80742Y-44739D01*
X80672Y-44669D01*
X80580Y-44631D01*
X80480Y-44631D01*
X79850Y-44631D01*
X79758Y-44669D01*
X79688Y-44739D01*
X79665Y-44795D01*
X79642Y-44739D01*
X79572Y-44669D01*
X79480Y-44631D01*
X79380Y-44631D01*
X78750Y-44631D01*
X78658Y-44669D01*
X78588Y-44739D01*
X78550Y-44831D01*
X78550Y-44930D01*
X78550Y-45640D01*
X78588Y-45732D01*
X78658Y-45803D01*
X78750Y-45841D01*
X78815Y-45841D01*
X78815Y-47335D01*
X78054Y-48095D01*
X78054Y-45860D01*
X78119Y-45860D01*
X78211Y-45822D01*
X78281Y-45752D01*
X78319Y-45660D01*
X78319Y-45561D01*
X78319Y-44851D01*
X78281Y-44759D01*
X78211Y-44689D01*
X78119Y-44650D01*
X78020Y-44650D01*
X77390Y-44650D01*
X77298Y-44688D01*
X77227Y-44759D01*
X77204Y-44814D01*
X77181Y-44759D01*
X77111Y-44689D01*
X77019Y-44650D01*
X76920Y-44650D01*
X76290Y-44650D01*
X76198Y-44688D01*
X76127Y-44759D01*
X76089Y-44850D01*
X76089Y-44950D01*
X76089Y-45660D01*
X76127Y-45752D01*
X76189Y-45814D01*
X76116Y-45814D01*
X76053Y-45876D01*
X76053Y-46329D01*
X76546Y-46329D01*
X76608Y-46266D01*
X76608Y-46088D01*
X76688Y-46167D01*
X76688Y-49560D01*
X76658Y-49590D01*
X76658Y-49015D01*
X76635Y-48900D01*
X76570Y-48803D01*
X76570Y-48803D01*
X76303Y-48537D01*
X76303Y-48044D01*
X76408Y-48044D01*
X76500Y-48006D01*
X76570Y-47935D01*
X76608Y-47844D01*
X76608Y-47744D01*
X76608Y-47114D01*
X76571Y-47022D01*
X76500Y-46952D01*
X76444Y-46929D01*
X76500Y-46905D01*
X76571Y-46835D01*
X76608Y-46743D01*
X76608Y-46491D01*
X76546Y-46429D01*
X76053Y-46429D01*
X76053Y-46437D01*
X75953Y-46437D01*
X75953Y-46429D01*
X75953Y-46329D01*
X75953Y-45876D01*
X75891Y-45814D01*
X75698Y-45814D01*
X75598Y-45814D01*
X75507Y-45852D01*
X75482Y-45877D01*
X75457Y-45852D01*
X75365Y-45814D01*
X75266Y-45814D01*
X75073Y-45814D01*
X75010Y-45876D01*
X75010Y-46329D01*
X75461Y-46329D01*
X75503Y-46329D01*
X75953Y-46329D01*
X75953Y-46429D01*
X75503Y-46429D01*
X75461Y-46429D01*
X75010Y-46429D01*
X75010Y-46437D01*
X74910Y-46437D01*
X74910Y-46429D01*
X74910Y-46329D01*
X74910Y-45876D01*
X74848Y-45814D01*
X74655Y-45814D01*
X74555Y-45814D01*
X74463Y-45852D01*
X74448Y-45867D01*
X74433Y-45852D01*
X74341Y-45814D01*
X74242Y-45814D01*
X74049Y-45814D01*
X73987Y-45876D01*
X73987Y-46329D01*
X74418Y-46329D01*
X74479Y-46329D01*
X74910Y-46329D01*
X74910Y-46429D01*
X74479Y-46429D01*
X74418Y-46429D01*
X73987Y-46429D01*
X73987Y-46437D01*
X73887Y-46437D01*
X73887Y-46429D01*
X73887Y-46329D01*
X73887Y-45876D01*
X73824Y-45814D01*
X73631Y-45814D01*
X73532Y-45814D01*
X73446Y-45849D01*
X73429Y-45832D01*
X73338Y-45794D01*
X73238Y-45794D01*
X73045Y-45794D01*
X72983Y-45856D01*
X72983Y-46309D01*
X73374Y-46309D01*
X73394Y-46329D01*
X73887Y-46329D01*
X73887Y-46429D01*
X73495Y-46429D01*
X73475Y-46409D01*
X72983Y-46409D01*
X72983Y-46417D01*
X72883Y-46417D01*
X72883Y-46409D01*
X72883Y-46309D01*
X72883Y-45856D01*
X72820Y-45794D01*
X72627Y-45794D01*
X72528Y-45794D01*
X72436Y-45832D01*
X72411Y-45857D01*
X72386Y-45832D01*
X72294Y-45794D01*
X72195Y-45794D01*
X72002Y-45794D01*
X71939Y-45856D01*
X71939Y-46309D01*
X72390Y-46309D01*
X72432Y-46309D01*
X72883Y-46309D01*
X72883Y-46409D01*
X72432Y-46409D01*
X72390Y-46409D01*
X71939Y-46409D01*
X71939Y-46417D01*
X71839Y-46417D01*
X71839Y-46409D01*
X71839Y-46309D01*
X71839Y-45856D01*
X71777Y-45794D01*
X71584Y-45794D01*
X71484Y-45794D01*
X71392Y-45832D01*
X71322Y-45903D01*
X71284Y-45994D01*
X71284Y-46246D01*
X71347Y-46309D01*
X71839Y-46309D01*
X71839Y-46409D01*
X71347Y-46409D01*
X71284Y-46471D01*
X71284Y-46723D01*
X71322Y-46815D01*
X71392Y-46886D01*
X71448Y-46909D01*
X71393Y-46932D01*
X71322Y-47002D01*
X71284Y-47094D01*
X71284Y-47193D01*
X71284Y-47823D01*
X71322Y-47915D01*
X71392Y-47986D01*
X71484Y-48024D01*
X71584Y-48024D01*
X71623Y-48024D01*
X71623Y-48024D01*
X71677Y-48105D01*
X71933Y-48361D01*
X71933Y-48361D01*
X72030Y-48426D01*
X72145Y-48449D01*
X72145Y-48449D01*
X72592Y-48449D01*
X73696Y-49553D01*
X73696Y-49599D01*
X73659Y-49636D01*
X73598Y-49782D01*
X73598Y-49940D01*
X73658Y-50087D01*
X73770Y-50199D01*
X73916Y-50259D01*
X74074Y-50259D01*
X74221Y-50199D01*
X74291Y-50129D01*
X74361Y-50199D01*
X74507Y-50259D01*
X74665Y-50259D01*
X74811Y-50199D01*
X74881Y-50129D01*
X74951Y-50199D01*
X75097Y-50259D01*
X75255Y-50259D01*
X75402Y-50199D01*
X75472Y-50129D01*
X75542Y-50199D01*
X75688Y-50259D01*
X75846Y-50259D01*
X75992Y-50199D01*
X76063Y-50129D01*
X76132Y-50199D01*
X76278Y-50259D01*
X76437Y-50259D01*
X76583Y-50199D01*
X76653Y-50129D01*
X76723Y-50199D01*
X76869Y-50259D01*
X77027Y-50259D01*
X77173Y-50199D01*
X77244Y-50129D01*
X77313Y-50199D01*
X77459Y-50259D01*
X77618Y-50259D01*
X77764Y-50199D01*
X77834Y-50129D01*
X77904Y-50199D01*
X78050Y-50259D01*
X78208Y-50259D01*
X78354Y-50199D01*
X78425Y-50129D01*
X78494Y-50199D01*
X78641Y-50259D01*
X78799Y-50259D01*
X78945Y-50199D01*
X79015Y-50129D01*
X79085Y-50199D01*
X79231Y-50259D01*
X79389Y-50259D01*
X79535Y-50199D01*
X79647Y-50087D01*
X79678Y-50014D01*
X79830Y-49862D01*
X79678Y-49709D01*
X79648Y-49637D01*
X79611Y-49599D01*
X79611Y-48962D01*
X79671Y-48902D01*
X79940Y-48902D01*
X79940Y-48902D01*
X80055Y-48879D01*
X80055Y-48879D01*
X80153Y-48814D01*
X81709Y-47258D01*
X81709Y-47258D01*
X81774Y-47160D01*
X81797Y-47046D01*
X81797Y-47046D01*
X81797Y-45841D01*
X81861Y-45841D01*
X81953Y-45803D01*
X82024Y-45733D01*
X82047Y-45677D01*
X82070Y-45733D01*
X82140Y-45803D01*
X82232Y-45841D01*
X82484Y-45841D01*
X82547Y-45778D01*
X82547Y-46535D01*
X80259Y-48822D01*
X80188Y-48929D01*
X80163Y-49055D01*
X80163Y-49552D01*
X80152Y-49540D01*
X80106Y-49586D01*
X80097Y-49507D01*
X79946Y-49459D01*
X79789Y-49472D01*
X79705Y-49507D01*
X79697Y-49586D01*
X79901Y-49791D01*
X79907Y-49785D01*
X79977Y-49856D01*
X79972Y-49862D01*
X80124Y-50014D01*
X80154Y-50087D01*
X80266Y-50199D01*
X80412Y-50259D01*
X80570Y-50259D01*
X80717Y-50199D01*
X80787Y-50129D01*
X80857Y-50199D01*
X81003Y-50259D01*
X81161Y-50259D01*
X81307Y-50199D01*
X81373Y-50134D01*
X81373Y-50663D01*
X81313Y-50723D01*
X81248Y-50879D01*
X81248Y-51048D01*
X81312Y-51204D01*
X81432Y-51324D01*
X81588Y-51389D01*
X81757Y-51389D01*
X81858Y-51347D01*
X81858Y-51363D01*
X81922Y-51519D01*
X82042Y-51639D01*
X82198Y-51704D01*
X82367Y-51704D01*
X82523Y-51640D01*
X82643Y-51520D01*
X82708Y-51364D01*
X82708Y-51195D01*
X82643Y-51039D01*
X82563Y-50958D01*
X82563Y-50133D01*
X82628Y-50199D01*
X82774Y-50259D01*
X82933Y-50259D01*
X83079Y-50199D01*
X83144Y-50134D01*
X83144Y-50348D01*
X83084Y-50408D01*
X83019Y-50564D01*
X83019Y-50733D01*
X83084Y-50890D01*
X83203Y-51009D01*
X83359Y-51074D01*
X83529Y-51074D01*
X83685Y-51010D01*
X83804Y-50890D01*
X83869Y-50734D01*
X83869Y-50565D01*
X83805Y-50409D01*
X83744Y-50348D01*
X83744Y-50124D01*
X83781Y-50087D01*
X83842Y-49941D01*
X83842Y-49783D01*
X83782Y-49637D01*
X83670Y-49525D01*
X83524Y-49464D01*
X83366Y-49464D01*
X83219Y-49524D01*
X83149Y-49595D01*
X83079Y-49525D01*
X82933Y-49464D01*
X82775Y-49464D01*
X82629Y-49524D01*
X82559Y-49595D01*
X82489Y-49525D01*
X82343Y-49464D01*
X82185Y-49464D01*
X82038Y-49524D01*
X81968Y-49595D01*
X81898Y-49525D01*
X81752Y-49464D01*
X81594Y-49464D01*
X81448Y-49524D01*
X81377Y-49595D01*
X81308Y-49525D01*
X81162Y-49464D01*
X81003Y-49464D01*
X80857Y-49524D01*
X80820Y-49561D01*
X80820Y-49191D01*
X83521Y-46490D01*
X84153Y-46490D01*
X84279Y-46465D01*
X84279Y-46465D01*
X84385Y-46393D01*
X85271Y-45508D01*
X85271Y-45508D01*
X85343Y-45401D01*
X85368Y-45275D01*
X85368Y-45275D01*
X85368Y-42713D01*
X85399Y-42682D01*
X85464Y-42525D01*
X85464Y-42356D01*
X85464Y-48549D01*
X85404Y-48549D01*
X85167Y-48646D01*
X84986Y-48827D01*
X84887Y-49064D01*
X84887Y-49320D01*
X84985Y-49557D01*
X85166Y-49738D01*
X85402Y-49836D01*
X85658Y-49836D01*
X85895Y-49738D01*
X86076Y-49558D01*
X86175Y-49321D01*
X86175Y-49065D01*
X86175Y-49909D01*
X86037Y-49909D01*
X85881Y-49974D01*
X85761Y-50093D01*
X85697Y-50249D01*
X85696Y-50418D01*
X85761Y-50575D01*
X85802Y-50615D01*
X85802Y-50874D01*
X85703Y-50874D01*
X85546Y-50938D01*
X85427Y-51058D01*
X85362Y-51214D01*
X85362Y-51383D01*
X85426Y-51539D01*
X85487Y-51600D01*
X85487Y-68678D01*
X85478Y-68657D01*
X85359Y-68537D01*
X85346Y-68532D01*
X85346Y-68400D01*
X85281Y-68243D01*
X85234Y-68196D01*
X85267Y-68116D01*
X85267Y-67947D01*
X85203Y-67791D01*
X85083Y-67671D01*
X84927Y-67606D01*
X84862Y-67606D01*
X84862Y-61983D01*
X84862Y-61284D01*
X84862Y-60584D01*
X84862Y-59984D01*
X84824Y-59892D01*
X84754Y-59822D01*
X84716Y-59806D01*
X84716Y-56155D01*
X84651Y-55999D01*
X84532Y-55880D01*
X84376Y-55815D01*
X84207Y-55815D01*
X84050Y-55879D01*
X83931Y-55999D01*
X83866Y-56155D01*
X83866Y-56324D01*
X83930Y-56480D01*
X83991Y-56541D01*
X83991Y-57317D01*
X83872Y-57436D01*
X83807Y-57592D01*
X83807Y-57761D01*
X83871Y-57917D01*
X83991Y-58037D01*
X84147Y-58102D01*
X84316Y-58102D01*
X84472Y-58037D01*
X84592Y-57918D01*
X84657Y-57762D01*
X84657Y-57592D01*
X84592Y-57436D01*
X84591Y-57435D01*
X84591Y-56541D01*
X84651Y-56481D01*
X84716Y-56325D01*
X84716Y-56155D01*
X84716Y-59806D01*
X84662Y-59784D01*
X84563Y-59784D01*
X83763Y-59784D01*
X83671Y-59822D01*
X83600Y-59892D01*
X83580Y-59940D01*
X83528Y-59962D01*
X83528Y-58273D01*
X83588Y-58213D01*
X83653Y-58057D01*
X83653Y-57888D01*
X83588Y-57732D01*
X83469Y-57612D01*
X83313Y-57547D01*
X83144Y-57547D01*
X82987Y-57611D01*
X82868Y-57731D01*
X82865Y-57737D01*
X82866Y-57573D01*
X82801Y-57417D01*
X82746Y-57362D01*
X82801Y-57307D01*
X82865Y-57151D01*
X82866Y-56982D01*
X82801Y-56826D01*
X82916Y-56826D01*
X83135Y-56736D01*
X83302Y-56569D01*
X83393Y-56351D01*
X83393Y-56114D01*
X83393Y-52114D01*
X83303Y-51895D01*
X83136Y-51728D01*
X82917Y-51637D01*
X82681Y-51637D01*
X82462Y-51728D01*
X82299Y-51891D01*
X82136Y-51728D01*
X81917Y-51637D01*
X81681Y-51637D01*
X81462Y-51728D01*
X81299Y-51891D01*
X81136Y-51728D01*
X80917Y-51637D01*
X80681Y-51637D01*
X80462Y-51728D01*
X80299Y-51891D01*
X80136Y-51728D01*
X80106Y-51716D01*
X80106Y-50137D01*
X79901Y-49932D01*
X79697Y-50137D01*
X79705Y-50217D01*
X79856Y-50265D01*
X80013Y-50251D01*
X80097Y-50217D01*
X80106Y-50137D01*
X80106Y-51716D01*
X79917Y-51637D01*
X79681Y-51637D01*
X79462Y-51728D01*
X79299Y-51891D01*
X79136Y-51728D01*
X78917Y-51637D01*
X78681Y-51637D01*
X78462Y-51728D01*
X78299Y-51891D01*
X78136Y-51728D01*
X77917Y-51637D01*
X77681Y-51637D01*
X77462Y-51728D01*
X77299Y-51891D01*
X77136Y-51728D01*
X76917Y-51637D01*
X76681Y-51637D01*
X76462Y-51728D01*
X76299Y-51891D01*
X76136Y-51728D01*
X75917Y-51637D01*
X75681Y-51637D01*
X75462Y-51728D01*
X75295Y-51895D01*
X75204Y-52113D01*
X75204Y-52350D01*
X75294Y-52568D01*
X75462Y-52735D01*
X75680Y-52826D01*
X75916Y-52826D01*
X76135Y-52736D01*
X76299Y-52573D01*
X76462Y-52735D01*
X76680Y-52826D01*
X76916Y-52826D01*
X77135Y-52736D01*
X77299Y-52573D01*
X77462Y-52735D01*
X77680Y-52826D01*
X77916Y-52826D01*
X78135Y-52736D01*
X78299Y-52573D01*
X78462Y-52735D01*
X78680Y-52826D01*
X78916Y-52826D01*
X79135Y-52736D01*
X79299Y-52573D01*
X79462Y-52735D01*
X79680Y-52826D01*
X79916Y-52826D01*
X80135Y-52736D01*
X80299Y-52573D01*
X80462Y-52735D01*
X80680Y-52826D01*
X80916Y-52826D01*
X81135Y-52736D01*
X81299Y-52573D01*
X81462Y-52735D01*
X81680Y-52826D01*
X81916Y-52826D01*
X82135Y-52736D01*
X82299Y-52573D01*
X82462Y-52735D01*
X82680Y-52826D01*
X82916Y-52826D01*
X83135Y-52736D01*
X83302Y-52569D01*
X83393Y-52351D01*
X83393Y-52114D01*
X83393Y-56114D01*
X83303Y-55895D01*
X83136Y-55728D01*
X82917Y-55637D01*
X82681Y-55637D01*
X82462Y-55728D01*
X82299Y-55891D01*
X82136Y-55728D01*
X82099Y-55713D01*
X82099Y-55234D01*
X82131Y-55201D01*
X82196Y-55045D01*
X82196Y-54876D01*
X82132Y-54720D01*
X82012Y-54600D01*
X81856Y-54535D01*
X81687Y-54535D01*
X81531Y-54600D01*
X81411Y-54719D01*
X81346Y-54875D01*
X81346Y-55044D01*
X81411Y-55201D01*
X81499Y-55289D01*
X81499Y-55713D01*
X81462Y-55728D01*
X81299Y-55891D01*
X81136Y-55728D01*
X80917Y-55637D01*
X80681Y-55637D01*
X80462Y-55728D01*
X80299Y-55891D01*
X80136Y-55728D01*
X79917Y-55637D01*
X79681Y-55637D01*
X79462Y-55728D01*
X79299Y-55891D01*
X79136Y-55728D01*
X78917Y-55637D01*
X78681Y-55637D01*
X78462Y-55728D01*
X78299Y-55891D01*
X78136Y-55728D01*
X78099Y-55713D01*
X78099Y-55631D01*
X78194Y-55536D01*
X78259Y-55380D01*
X78259Y-55211D01*
X78195Y-55054D01*
X78075Y-54935D01*
X77919Y-54870D01*
X77750Y-54870D01*
X77594Y-54934D01*
X77474Y-55054D01*
X77409Y-55210D01*
X77409Y-55379D01*
X77474Y-55535D01*
X77499Y-55560D01*
X77499Y-55713D01*
X77462Y-55728D01*
X77299Y-55891D01*
X77136Y-55728D01*
X76917Y-55637D01*
X76681Y-55637D01*
X76462Y-55728D01*
X76299Y-55891D01*
X76136Y-55728D01*
X75917Y-55637D01*
X75681Y-55637D01*
X75462Y-55728D01*
X75295Y-55895D01*
X75204Y-56113D01*
X75204Y-56350D01*
X75294Y-56568D01*
X75462Y-56735D01*
X75680Y-56826D01*
X75916Y-56826D01*
X76135Y-56736D01*
X76299Y-56573D01*
X76462Y-56735D01*
X76499Y-56751D01*
X76499Y-57446D01*
X76490Y-57455D01*
X76425Y-57611D01*
X76425Y-57781D01*
X76489Y-57937D01*
X76609Y-58056D01*
X76765Y-58121D01*
X76934Y-58121D01*
X77090Y-58057D01*
X77210Y-57937D01*
X77275Y-57781D01*
X77275Y-57612D01*
X77210Y-57456D01*
X77099Y-57344D01*
X77099Y-56751D01*
X77135Y-56736D01*
X77299Y-56573D01*
X77462Y-56735D01*
X77680Y-56826D01*
X77916Y-56826D01*
X78135Y-56736D01*
X78299Y-56573D01*
X78462Y-56735D01*
X78499Y-56751D01*
X78499Y-57494D01*
X78498Y-57495D01*
X78433Y-57651D01*
X78433Y-57820D01*
X78497Y-57976D01*
X78617Y-58096D01*
X78773Y-58161D01*
X78942Y-58161D01*
X79098Y-58096D01*
X79179Y-58015D01*
X79179Y-58061D01*
X79242Y-58061D01*
X79179Y-58124D01*
X79179Y-58237D01*
X79179Y-58336D01*
X79217Y-58428D01*
X79288Y-58498D01*
X79380Y-58536D01*
X79592Y-58536D01*
X79654Y-58474D01*
X79654Y-58061D01*
X79646Y-58061D01*
X79646Y-57961D01*
X79654Y-57961D01*
X79654Y-57549D01*
X79592Y-57486D01*
X79380Y-57486D01*
X79288Y-57524D01*
X79247Y-57565D01*
X79218Y-57495D01*
X79099Y-57376D01*
X79099Y-57376D01*
X79099Y-56751D01*
X79135Y-56736D01*
X79299Y-56573D01*
X79462Y-56735D01*
X79512Y-56757D01*
X79522Y-56803D01*
X79587Y-56901D01*
X80113Y-57427D01*
X80113Y-57521D01*
X80029Y-57486D01*
X79817Y-57486D01*
X79754Y-57549D01*
X79754Y-57961D01*
X79762Y-57961D01*
X79762Y-58061D01*
X79754Y-58061D01*
X79754Y-58474D01*
X79817Y-58536D01*
X80029Y-58536D01*
X80113Y-58502D01*
X80113Y-58877D01*
X80136Y-58992D01*
X80201Y-59090D01*
X80303Y-59192D01*
X80303Y-59277D01*
X80367Y-59433D01*
X80487Y-59553D01*
X80643Y-59617D01*
X80812Y-59617D01*
X80968Y-59553D01*
X81077Y-59444D01*
X81077Y-63464D01*
X81077Y-63537D01*
X81017Y-63597D01*
X80953Y-63753D01*
X80952Y-63922D01*
X81017Y-64079D01*
X81136Y-64198D01*
X81293Y-64263D01*
X81462Y-64263D01*
X81541Y-64230D01*
X81541Y-69070D01*
X81441Y-68970D01*
X81285Y-68905D01*
X81116Y-68905D01*
X80960Y-68970D01*
X80840Y-69089D01*
X80840Y-69090D01*
X80840Y-68909D01*
X80851Y-68909D01*
X81008Y-68844D01*
X81127Y-68725D01*
X81192Y-68569D01*
X81192Y-68400D01*
X81128Y-68243D01*
X81096Y-68212D01*
X81096Y-65843D01*
X81167Y-65772D01*
X81232Y-65616D01*
X81232Y-65447D01*
X81167Y-65291D01*
X81048Y-65171D01*
X80891Y-65106D01*
X80722Y-65106D01*
X80566Y-65170D01*
X80446Y-65290D01*
X80382Y-65446D01*
X80382Y-65615D01*
X80438Y-65753D01*
X80438Y-68211D01*
X80407Y-68243D01*
X80342Y-68399D01*
X80342Y-68444D01*
X80279Y-68507D01*
X80208Y-68614D01*
X80183Y-68740D01*
X80183Y-71078D01*
X80103Y-70998D01*
X79947Y-70933D01*
X79778Y-70933D01*
X79654Y-70984D01*
X79621Y-70997D01*
X79502Y-71117D01*
X79460Y-71217D01*
X79460Y-69837D01*
X79395Y-69680D01*
X79335Y-69620D01*
X79335Y-65123D01*
X79395Y-65063D01*
X79460Y-64907D01*
X79460Y-64738D01*
X79395Y-64582D01*
X79370Y-64556D01*
X79370Y-62003D01*
X79370Y-61304D01*
X79370Y-60604D01*
X79370Y-60004D01*
X79332Y-59912D01*
X79262Y-59842D01*
X79170Y-59803D01*
X79070Y-59803D01*
X78270Y-59803D01*
X78179Y-59841D01*
X78108Y-59912D01*
X78070Y-60003D01*
X78070Y-60011D01*
X78066Y-60013D01*
X77946Y-60132D01*
X77882Y-60289D01*
X77882Y-60458D01*
X77946Y-60614D01*
X78066Y-60734D01*
X78086Y-60742D01*
X78108Y-60795D01*
X78178Y-60865D01*
X78270Y-60903D01*
X78369Y-60903D01*
X79169Y-60903D01*
X79261Y-60866D01*
X79332Y-60795D01*
X79370Y-60703D01*
X79370Y-60604D01*
X79370Y-61304D01*
X79332Y-61212D01*
X79262Y-61142D01*
X79170Y-61103D01*
X79070Y-61103D01*
X78832Y-61103D01*
X78770Y-61166D01*
X78770Y-61603D01*
X79307Y-61603D01*
X79370Y-61541D01*
X79370Y-61304D01*
X79370Y-62003D01*
X79370Y-61766D01*
X79307Y-61703D01*
X78770Y-61703D01*
X78770Y-62141D01*
X78832Y-62203D01*
X79070Y-62203D01*
X79170Y-62203D01*
X79262Y-62165D01*
X79332Y-62095D01*
X79370Y-62003D01*
X79370Y-64556D01*
X79276Y-64462D01*
X79120Y-64397D01*
X78951Y-64397D01*
X78795Y-64462D01*
X78675Y-64581D01*
X78670Y-64593D01*
X78670Y-62141D01*
X78670Y-61703D01*
X78670Y-61603D01*
X78670Y-61166D01*
X78607Y-61103D01*
X78369Y-61103D01*
X78270Y-61103D01*
X78178Y-61142D01*
X78108Y-61212D01*
X78070Y-61304D01*
X78070Y-61541D01*
X78132Y-61603D01*
X78670Y-61603D01*
X78670Y-61703D01*
X78132Y-61703D01*
X78070Y-61766D01*
X78070Y-62003D01*
X78108Y-62095D01*
X78178Y-62165D01*
X78270Y-62203D01*
X78369Y-62203D01*
X78607Y-62203D01*
X78670Y-62141D01*
X78670Y-64593D01*
X78610Y-64737D01*
X78610Y-64907D01*
X78674Y-65063D01*
X78735Y-65123D01*
X78735Y-69620D01*
X78675Y-69680D01*
X78610Y-69836D01*
X78610Y-70005D01*
X78674Y-70161D01*
X78794Y-70281D01*
X78950Y-70346D01*
X79119Y-70346D01*
X79275Y-70281D01*
X79395Y-70162D01*
X79460Y-70006D01*
X79460Y-69837D01*
X79460Y-71217D01*
X79437Y-71273D01*
X79437Y-71414D01*
X79355Y-71332D01*
X79199Y-71267D01*
X79030Y-71267D01*
X78873Y-71332D01*
X78754Y-71451D01*
X78692Y-71600D01*
X78578Y-71647D01*
X78458Y-71766D01*
X78401Y-71905D01*
X78263Y-71962D01*
X78143Y-72081D01*
X78082Y-72230D01*
X77968Y-72277D01*
X77848Y-72396D01*
X77787Y-72544D01*
X77787Y-65427D01*
X77722Y-65271D01*
X77603Y-65151D01*
X77447Y-65086D01*
X77278Y-65086D01*
X77209Y-65115D01*
X77209Y-64454D01*
X77269Y-64394D01*
X77334Y-64238D01*
X77334Y-64069D01*
X77269Y-63913D01*
X77150Y-63793D01*
X76994Y-63728D01*
X76825Y-63728D01*
X76737Y-63764D01*
X76737Y-59316D01*
X76797Y-59256D01*
X76861Y-59100D01*
X76862Y-58931D01*
X76797Y-58775D01*
X76678Y-58655D01*
X76521Y-58590D01*
X76352Y-58590D01*
X76196Y-58655D01*
X76076Y-58774D01*
X76017Y-58918D01*
X75891Y-58866D01*
X75722Y-58866D01*
X75566Y-58930D01*
X75446Y-59050D01*
X75382Y-59206D01*
X75382Y-59375D01*
X75446Y-59531D01*
X75507Y-59592D01*
X75507Y-66220D01*
X75529Y-66334D01*
X75579Y-66408D01*
X75579Y-66501D01*
X75643Y-66657D01*
X75763Y-66777D01*
X75919Y-66842D01*
X76088Y-66842D01*
X76137Y-66822D01*
X76137Y-67441D01*
X76090Y-67552D01*
X76090Y-67721D01*
X76155Y-67878D01*
X76274Y-67997D01*
X76430Y-68062D01*
X76599Y-68062D01*
X76609Y-68058D01*
X76609Y-68492D01*
X76569Y-68492D01*
X76413Y-68556D01*
X76293Y-68676D01*
X76228Y-68832D01*
X76228Y-69001D01*
X76293Y-69157D01*
X76412Y-69277D01*
X76568Y-69342D01*
X76737Y-69342D01*
X76893Y-69277D01*
X76919Y-69251D01*
X76897Y-69304D01*
X76897Y-69473D01*
X76962Y-69630D01*
X77081Y-69749D01*
X77237Y-69814D01*
X77407Y-69814D01*
X77563Y-69750D01*
X77682Y-69630D01*
X77747Y-69474D01*
X77747Y-69305D01*
X77683Y-69149D01*
X77631Y-69097D01*
X77631Y-68638D01*
X77663Y-68607D01*
X77728Y-68451D01*
X77728Y-68281D01*
X77663Y-68125D01*
X77631Y-68093D01*
X77631Y-65843D01*
X77722Y-65752D01*
X77787Y-65596D01*
X77787Y-65427D01*
X77787Y-72544D01*
X77783Y-72552D01*
X77783Y-72721D01*
X77785Y-72726D01*
X77633Y-72789D01*
X77513Y-72908D01*
X77449Y-73064D01*
X77448Y-73233D01*
X77513Y-73390D01*
X77570Y-73446D01*
X77570Y-76919D01*
X77425Y-77064D01*
X77370Y-77197D01*
X77315Y-77065D01*
X77170Y-76919D01*
X77170Y-74454D01*
X77230Y-74394D01*
X77295Y-74238D01*
X77295Y-74069D01*
X77230Y-73913D01*
X77111Y-73793D01*
X76954Y-73728D01*
X76785Y-73728D01*
X76629Y-73793D01*
X76509Y-73912D01*
X76445Y-74068D01*
X76445Y-74237D01*
X76509Y-74393D01*
X76570Y-74454D01*
X76570Y-76919D01*
X76425Y-77064D01*
X76370Y-77197D01*
X76315Y-77065D01*
X76170Y-76919D01*
X76170Y-75867D01*
X76265Y-75772D01*
X76330Y-75616D01*
X76330Y-75447D01*
X76266Y-75291D01*
X76146Y-75171D01*
X75990Y-75106D01*
X75821Y-75106D01*
X75721Y-75147D01*
X75721Y-72449D01*
X75721Y-71899D01*
X75721Y-71150D01*
X75721Y-70600D01*
X75683Y-70508D01*
X75613Y-70438D01*
X75521Y-70400D01*
X75422Y-70400D01*
X74872Y-70400D01*
X74780Y-70438D01*
X74710Y-70508D01*
X74671Y-70600D01*
X74671Y-70699D01*
X74671Y-71249D01*
X74709Y-71341D01*
X74780Y-71412D01*
X74871Y-71450D01*
X74971Y-71450D01*
X75521Y-71450D01*
X75613Y-71412D01*
X75683Y-71341D01*
X75721Y-71250D01*
X75721Y-71150D01*
X75721Y-71899D01*
X75683Y-71807D01*
X75613Y-71737D01*
X75521Y-71699D01*
X75422Y-71699D01*
X74872Y-71699D01*
X74780Y-71737D01*
X74710Y-71807D01*
X74671Y-71899D01*
X74671Y-71998D01*
X74671Y-72548D01*
X74709Y-72640D01*
X74780Y-72711D01*
X74871Y-72749D01*
X74971Y-72749D01*
X75521Y-72749D01*
X75613Y-72711D01*
X75683Y-72641D01*
X75721Y-72549D01*
X75721Y-72449D01*
X75721Y-75147D01*
X75665Y-75170D01*
X75545Y-75290D01*
X75480Y-75446D01*
X75480Y-75615D01*
X75545Y-75771D01*
X75570Y-75797D01*
X75570Y-76919D01*
X75425Y-77064D01*
X75370Y-77197D01*
X75315Y-77065D01*
X75170Y-76919D01*
X75170Y-75411D01*
X75222Y-75359D01*
X75287Y-75203D01*
X75287Y-75033D01*
X75222Y-74877D01*
X75103Y-74758D01*
X74947Y-74693D01*
X74778Y-74693D01*
X74621Y-74757D01*
X74578Y-74800D01*
X74578Y-55171D01*
X74514Y-55015D01*
X74394Y-54895D01*
X74238Y-54830D01*
X74157Y-54830D01*
X74120Y-54739D01*
X74000Y-54620D01*
X73844Y-54555D01*
X73675Y-54555D01*
X73519Y-54619D01*
X73399Y-54739D01*
X73334Y-54895D01*
X73334Y-55064D01*
X73399Y-55220D01*
X73459Y-55281D01*
X73459Y-55733D01*
X73372Y-55697D01*
X73203Y-55696D01*
X73046Y-55761D01*
X72927Y-55880D01*
X72862Y-56037D01*
X72862Y-56206D01*
X72926Y-56362D01*
X72987Y-56423D01*
X72987Y-57415D01*
X72927Y-57475D01*
X72862Y-57631D01*
X72862Y-57800D01*
X72926Y-57956D01*
X73046Y-58076D01*
X73202Y-58141D01*
X73371Y-58141D01*
X73459Y-58105D01*
X73459Y-59023D01*
X73301Y-59023D01*
X73145Y-59088D01*
X73025Y-59207D01*
X72995Y-59279D01*
X72927Y-59279D01*
X72771Y-59344D01*
X72651Y-59463D01*
X72586Y-59619D01*
X72586Y-59788D01*
X72592Y-59803D01*
X72553Y-59803D01*
X72553Y-49065D01*
X72455Y-48828D01*
X72274Y-48647D01*
X72038Y-48549D01*
X71781Y-48549D01*
X71545Y-48646D01*
X71364Y-48827D01*
X71265Y-49064D01*
X71265Y-49320D01*
X71363Y-49557D01*
X71544Y-49738D01*
X71780Y-49836D01*
X72036Y-49836D01*
X72273Y-49738D01*
X72454Y-49558D01*
X72553Y-49321D01*
X72553Y-49065D01*
X72553Y-59803D01*
X71873Y-59803D01*
X71781Y-59841D01*
X71711Y-59912D01*
X71672Y-60003D01*
X71672Y-60103D01*
X71672Y-60486D01*
X71659Y-60480D01*
X71490Y-60480D01*
X71334Y-60545D01*
X71214Y-60664D01*
X71149Y-60820D01*
X71149Y-60989D01*
X71214Y-61145D01*
X71274Y-61206D01*
X71274Y-64828D01*
X71255Y-64836D01*
X71135Y-64955D01*
X71071Y-65111D01*
X71070Y-65281D01*
X71135Y-65437D01*
X71255Y-65556D01*
X71411Y-65621D01*
X71580Y-65621D01*
X71736Y-65557D01*
X71856Y-65437D01*
X71920Y-65281D01*
X71921Y-65112D01*
X71874Y-65000D01*
X71874Y-62203D01*
X71972Y-62203D01*
X72210Y-62203D01*
X72272Y-62141D01*
X72272Y-61703D01*
X72264Y-61703D01*
X72264Y-61603D01*
X72272Y-61603D01*
X72272Y-61166D01*
X72210Y-61103D01*
X71972Y-61103D01*
X71952Y-61103D01*
X71999Y-60990D01*
X71999Y-60903D01*
X72711Y-60903D01*
X72711Y-61103D01*
X72673Y-61103D01*
X72435Y-61103D01*
X72372Y-61166D01*
X72372Y-61603D01*
X72380Y-61603D01*
X72380Y-61703D01*
X72372Y-61703D01*
X72372Y-62141D01*
X72435Y-62203D01*
X72673Y-62203D01*
X72711Y-62203D01*
X72711Y-67356D01*
X72579Y-67488D01*
X72494Y-67488D01*
X72338Y-67552D01*
X72218Y-67672D01*
X72153Y-67828D01*
X72153Y-67997D01*
X72218Y-68153D01*
X72337Y-68273D01*
X72493Y-68338D01*
X72662Y-68338D01*
X72819Y-68273D01*
X72938Y-68154D01*
X73003Y-67998D01*
X73003Y-67912D01*
X73132Y-67784D01*
X73281Y-67846D01*
X73450Y-67846D01*
X73606Y-67781D01*
X73726Y-67662D01*
X73791Y-67506D01*
X73791Y-67337D01*
X73726Y-67180D01*
X73685Y-67139D01*
X73685Y-64385D01*
X73794Y-64493D01*
X73950Y-64558D01*
X74119Y-64558D01*
X74275Y-64494D01*
X74395Y-64374D01*
X74460Y-64218D01*
X74460Y-64049D01*
X74451Y-64027D01*
X74453Y-64015D01*
X74453Y-64015D01*
X74453Y-55556D01*
X74513Y-55496D01*
X74578Y-55340D01*
X74578Y-55171D01*
X74578Y-74800D01*
X74502Y-74877D01*
X74437Y-75033D01*
X74437Y-75202D01*
X74501Y-75358D01*
X74570Y-75427D01*
X74570Y-76919D01*
X74425Y-77064D01*
X74395Y-77137D01*
X74395Y-77037D01*
X74357Y-76945D01*
X74286Y-76875D01*
X74195Y-76837D01*
X74170Y-76837D01*
X74170Y-75092D01*
X74238Y-75024D01*
X74302Y-74868D01*
X74303Y-74699D01*
X74238Y-74543D01*
X74119Y-74423D01*
X73962Y-74358D01*
X73800Y-74358D01*
X73746Y-74228D01*
X73685Y-74167D01*
X73685Y-69644D01*
X73732Y-69533D01*
X73732Y-69364D01*
X73667Y-69208D01*
X73548Y-69088D01*
X73391Y-69023D01*
X73222Y-69023D01*
X73066Y-69088D01*
X72946Y-69207D01*
X72882Y-69363D01*
X72882Y-69532D01*
X72946Y-69689D01*
X73066Y-69808D01*
X73085Y-69817D01*
X73085Y-71563D01*
X72947Y-71563D01*
X72791Y-71627D01*
X72671Y-71747D01*
X72606Y-71903D01*
X72606Y-71996D01*
X72573Y-71996D01*
X72417Y-72060D01*
X72297Y-72180D01*
X72232Y-72336D01*
X72232Y-72505D01*
X72296Y-72661D01*
X72396Y-72761D01*
X72396Y-73537D01*
X72336Y-73597D01*
X72271Y-73753D01*
X72271Y-73922D01*
X72336Y-74079D01*
X72455Y-74198D01*
X72608Y-74262D01*
X72670Y-74413D01*
X72790Y-74533D01*
X72946Y-74598D01*
X72979Y-74598D01*
X73025Y-74708D01*
X73144Y-74828D01*
X73300Y-74893D01*
X73463Y-74893D01*
X73517Y-75023D01*
X73570Y-75076D01*
X73570Y-76837D01*
X73545Y-76837D01*
X73453Y-76875D01*
X73383Y-76945D01*
X73345Y-77037D01*
X73345Y-77136D01*
X73345Y-77686D01*
X73383Y-77778D01*
X73453Y-77849D01*
X73545Y-77887D01*
X73644Y-77887D01*
X74194Y-77887D01*
X74286Y-77849D01*
X74356Y-77779D01*
X74395Y-77687D01*
X74395Y-77587D01*
X74395Y-77587D01*
X74424Y-77659D01*
X74572Y-77807D01*
X74765Y-77887D01*
X74974Y-77887D01*
X75167Y-77807D01*
X75314Y-77659D01*
X75370Y-77526D01*
X75424Y-77659D01*
X75572Y-77807D01*
X75765Y-77887D01*
X75974Y-77887D01*
X76167Y-77807D01*
X76314Y-77659D01*
X76370Y-77526D01*
X76424Y-77659D01*
X76572Y-77807D01*
X76765Y-77887D01*
X76974Y-77887D01*
X77167Y-77807D01*
X77314Y-77659D01*
X77370Y-77526D01*
X77424Y-77659D01*
X77572Y-77807D01*
X77765Y-77887D01*
X77974Y-77887D01*
X78167Y-77807D01*
X78314Y-77659D01*
X78370Y-77526D01*
X78424Y-77659D01*
X78572Y-77807D01*
X78765Y-77887D01*
X78974Y-77887D01*
X79167Y-77807D01*
X79314Y-77659D01*
X79370Y-77526D01*
X79424Y-77659D01*
X79572Y-77807D01*
X79765Y-77887D01*
X79974Y-77887D01*
X80167Y-77807D01*
X80314Y-77659D01*
X80370Y-77526D01*
X80424Y-77659D01*
X80572Y-77807D01*
X80765Y-77887D01*
X80974Y-77887D01*
X81167Y-77807D01*
X81314Y-77659D01*
X81370Y-77526D01*
X81424Y-77659D01*
X81572Y-77807D01*
X81765Y-77887D01*
X81974Y-77887D01*
X82167Y-77807D01*
X82314Y-77659D01*
X82367Y-77533D01*
X82409Y-77635D01*
X82502Y-77659D01*
X82799Y-77362D01*
X82502Y-77065D01*
X82409Y-77089D01*
X82370Y-77199D01*
X82315Y-77065D01*
X82198Y-76948D01*
X82198Y-76138D01*
X82230Y-76107D01*
X82295Y-75951D01*
X82295Y-75781D01*
X82230Y-75625D01*
X82198Y-75593D01*
X82198Y-70154D01*
X82249Y-70103D01*
X82314Y-69947D01*
X82314Y-69778D01*
X82250Y-69621D01*
X82198Y-69570D01*
X82198Y-64299D01*
X82237Y-64393D01*
X82357Y-64513D01*
X82513Y-64578D01*
X82682Y-64578D01*
X82838Y-64514D01*
X82958Y-64394D01*
X83023Y-64238D01*
X83023Y-64069D01*
X82958Y-63913D01*
X82898Y-63852D01*
X82898Y-63775D01*
X82987Y-63864D01*
X83143Y-63928D01*
X83312Y-63929D01*
X83468Y-63864D01*
X83588Y-63744D01*
X83653Y-63588D01*
X83653Y-63419D01*
X83588Y-63263D01*
X83528Y-63202D01*
X83528Y-60706D01*
X83581Y-60728D01*
X83600Y-60775D01*
X83670Y-60846D01*
X83762Y-60884D01*
X83862Y-60884D01*
X84662Y-60884D01*
X84754Y-60846D01*
X84824Y-60776D01*
X84862Y-60684D01*
X84862Y-60584D01*
X84862Y-61284D01*
X84824Y-61192D01*
X84754Y-61122D01*
X84662Y-61084D01*
X84563Y-61084D01*
X84325Y-61084D01*
X84262Y-61146D01*
X84262Y-61584D01*
X84800Y-61584D01*
X84862Y-61521D01*
X84862Y-61284D01*
X84862Y-61983D01*
X84862Y-61746D01*
X84800Y-61684D01*
X84262Y-61684D01*
X84262Y-62121D01*
X84325Y-62184D01*
X84563Y-62184D01*
X84662Y-62184D01*
X84754Y-62146D01*
X84824Y-62075D01*
X84862Y-61983D01*
X84862Y-67606D01*
X84758Y-67606D01*
X84602Y-67670D01*
X84482Y-67790D01*
X84417Y-67946D01*
X84417Y-68032D01*
X84162Y-68287D01*
X84162Y-62121D01*
X84162Y-61684D01*
X84162Y-61584D01*
X84162Y-61146D01*
X84100Y-61084D01*
X83862Y-61084D01*
X83762Y-61084D01*
X83670Y-61122D01*
X83600Y-61192D01*
X83562Y-61284D01*
X83562Y-61521D01*
X83625Y-61584D01*
X84162Y-61584D01*
X84162Y-61684D01*
X83625Y-61684D01*
X83562Y-61746D01*
X83562Y-61983D01*
X83600Y-62075D01*
X83670Y-62146D01*
X83762Y-62184D01*
X83862Y-62184D01*
X84100Y-62184D01*
X84162Y-62121D01*
X84162Y-68287D01*
X83606Y-68842D01*
X83541Y-68940D01*
X83518Y-69055D01*
X83518Y-71076D01*
X83458Y-71136D01*
X83393Y-71293D01*
X83393Y-71462D01*
X83458Y-71618D01*
X83577Y-71738D01*
X83733Y-71802D01*
X83739Y-71802D01*
X83793Y-71933D01*
X83912Y-72053D01*
X84051Y-72110D01*
X84107Y-72248D01*
X84227Y-72367D01*
X84375Y-72429D01*
X84422Y-72543D01*
X84542Y-72663D01*
X84693Y-72725D01*
X84693Y-72840D01*
X84757Y-72996D01*
X84877Y-73115D01*
X85033Y-73180D01*
X85090Y-73180D01*
X85111Y-73232D01*
X85231Y-73352D01*
X85387Y-73417D01*
X85556Y-73417D01*
X85712Y-73352D01*
X85832Y-73233D01*
X85897Y-73077D01*
X85897Y-72907D01*
X85832Y-72751D01*
X85772Y-72691D01*
X85772Y-72121D01*
X85861Y-72210D01*
X85973Y-72256D01*
X85972Y-72257D01*
X85972Y-72426D01*
X86037Y-72582D01*
X86156Y-72702D01*
X86312Y-72767D01*
X86481Y-72767D01*
X86530Y-72747D01*
X86530Y-74482D01*
X85909Y-75102D01*
X85844Y-75200D01*
X85822Y-75314D01*
X85822Y-75518D01*
X85797Y-75518D01*
X85705Y-75556D01*
X85635Y-75626D01*
X85597Y-75718D01*
X85597Y-75817D01*
X85597Y-76367D01*
X85634Y-76459D01*
X85705Y-76530D01*
X85797Y-76568D01*
X85896Y-76568D01*
X86446Y-76568D01*
X86538Y-76530D01*
X86608Y-76460D01*
X86647Y-76368D01*
X86647Y-76268D01*
X86647Y-76268D01*
X86676Y-76340D01*
X86824Y-76488D01*
X87017Y-76568D01*
X87226Y-76568D01*
X87419Y-76488D01*
X87566Y-76341D01*
X87619Y-76214D01*
X87661Y-76316D01*
X87754Y-76340D01*
X88051Y-76043D01*
X87754Y-75746D01*
X87661Y-75770D01*
X87622Y-75880D01*
X87567Y-75746D01*
X87419Y-75598D01*
X87226Y-75518D01*
X87018Y-75518D01*
X86825Y-75597D01*
X86677Y-75745D01*
X86647Y-75818D01*
X86647Y-75718D01*
X86609Y-75626D01*
X86538Y-75556D01*
X86446Y-75518D01*
X86422Y-75518D01*
X86422Y-75439D01*
X87042Y-74818D01*
X87042Y-74818D01*
X87107Y-74721D01*
X87130Y-74606D01*
X87130Y-74606D01*
X87130Y-67643D01*
X87449Y-67325D01*
X87448Y-67446D01*
X87513Y-67602D01*
X87593Y-67682D01*
X87593Y-74541D01*
X87533Y-74601D01*
X87468Y-74757D01*
X87468Y-74926D01*
X87533Y-75082D01*
X87652Y-75202D01*
X87808Y-75267D01*
X87977Y-75267D01*
X88134Y-75203D01*
X88253Y-75083D01*
X88318Y-74927D01*
X88318Y-74758D01*
X88254Y-74602D01*
X88193Y-74541D01*
X88193Y-73145D01*
X88243Y-73194D01*
X88399Y-73259D01*
X88499Y-73259D01*
X88499Y-74311D01*
X88522Y-74425D01*
X88531Y-74440D01*
X88531Y-74552D01*
X88596Y-74708D01*
X88715Y-74828D01*
X88748Y-74842D01*
X88748Y-75005D01*
X88812Y-75161D01*
X88822Y-75171D01*
X88822Y-75600D01*
X88677Y-75745D01*
X88624Y-75872D01*
X88582Y-75770D01*
X88489Y-75746D01*
X88419Y-75816D01*
X88419Y-75675D01*
X88394Y-75582D01*
X88197Y-75513D01*
X87989Y-75524D01*
X87849Y-75582D01*
X87824Y-75675D01*
X88122Y-75972D01*
X88419Y-75675D01*
X88419Y-75816D01*
X88192Y-76043D01*
X88489Y-76340D01*
X88582Y-76316D01*
X88621Y-76206D01*
X88676Y-76340D01*
X88824Y-76488D01*
X89017Y-76568D01*
X89226Y-76568D01*
X89419Y-76488D01*
X89566Y-76341D01*
X89622Y-76208D01*
X89676Y-76340D01*
X89824Y-76488D01*
X90017Y-76568D01*
X90226Y-76568D01*
X90419Y-76488D01*
X90566Y-76341D01*
X90622Y-76208D01*
X90676Y-76340D01*
X90824Y-76488D01*
X91017Y-76568D01*
X91226Y-76568D01*
X91419Y-76488D01*
X91566Y-76341D01*
X91646Y-76148D01*
X91647Y-75939D01*
X91647Y-78057D01*
X88419Y-78057D01*
X88419Y-76411D01*
X88122Y-76114D01*
X87824Y-76411D01*
X87849Y-76503D01*
X88046Y-76573D01*
X88254Y-76561D01*
X88394Y-76503D01*
X88419Y-76411D01*
X88419Y-78057D01*
X85395Y-78057D01*
X85395Y-77258D01*
X85315Y-77065D01*
X85170Y-76919D01*
X85170Y-74131D01*
X85222Y-74079D01*
X85287Y-73923D01*
X85287Y-73754D01*
X85222Y-73598D01*
X85103Y-73478D01*
X84947Y-73413D01*
X84778Y-73413D01*
X84621Y-73478D01*
X84502Y-73597D01*
X84437Y-73753D01*
X84437Y-73922D01*
X84501Y-74079D01*
X84570Y-74147D01*
X84570Y-76919D01*
X84425Y-77064D01*
X84370Y-77197D01*
X84315Y-77065D01*
X84198Y-76948D01*
X84198Y-75417D01*
X84257Y-75359D01*
X84322Y-75203D01*
X84322Y-75033D01*
X84258Y-74877D01*
X84138Y-74758D01*
X83982Y-74693D01*
X83813Y-74693D01*
X83657Y-74757D01*
X83537Y-74877D01*
X83472Y-75033D01*
X83472Y-75202D01*
X83537Y-75358D01*
X83541Y-75362D01*
X83541Y-76948D01*
X83425Y-77064D01*
X83372Y-77190D01*
X83330Y-77089D01*
X83237Y-77065D01*
X83167Y-77135D01*
X83167Y-76994D01*
X83142Y-76901D01*
X82945Y-76832D01*
X82737Y-76843D01*
X82597Y-76901D01*
X82572Y-76994D01*
X82870Y-77291D01*
X83167Y-76994D01*
X83167Y-77135D01*
X82940Y-77362D01*
X83237Y-77659D01*
X83330Y-77635D01*
X83369Y-77525D01*
X83424Y-77659D01*
X83572Y-77807D01*
X83765Y-77887D01*
X83974Y-77887D01*
X84167Y-77807D01*
X84314Y-77659D01*
X84370Y-77526D01*
X84424Y-77659D01*
X84572Y-77807D01*
X84765Y-77887D01*
X84974Y-77887D01*
X85167Y-77807D01*
X85314Y-77659D01*
X85394Y-77467D01*
X85395Y-77258D01*
X85395Y-78057D01*
X83167Y-78057D01*
X83167Y-77729D01*
X82870Y-77432D01*
X82572Y-77729D01*
X82597Y-77822D01*
X82794Y-77892D01*
X83002Y-77880D01*
X83142Y-77822D01*
X83167Y-77729D01*
X83167Y-78057D01*
X72926Y-78057D01*
X72926Y-75486D01*
X72846Y-75293D01*
X72699Y-75145D01*
X72506Y-75065D01*
X72297Y-75065D01*
X72104Y-75145D01*
X71956Y-75292D01*
X71901Y-75425D01*
X71846Y-75293D01*
X71701Y-75147D01*
X71701Y-66854D01*
X71701Y-66853D01*
X71701Y-66851D01*
X71700Y-66676D01*
X71757Y-66619D01*
X71822Y-66462D01*
X71822Y-66293D01*
X71758Y-66137D01*
X71638Y-66017D01*
X71482Y-65953D01*
X71369Y-65952D01*
X71369Y-65880D01*
X71305Y-65724D01*
X71185Y-65604D01*
X71029Y-65539D01*
X70910Y-65539D01*
X70910Y-63824D01*
X70970Y-63764D01*
X71035Y-63608D01*
X71035Y-63439D01*
X70970Y-63283D01*
X70851Y-63163D01*
X70695Y-63098D01*
X70526Y-63098D01*
X70369Y-63163D01*
X70280Y-63252D01*
X70280Y-57033D01*
X70340Y-56973D01*
X70405Y-56817D01*
X70405Y-56728D01*
X70476Y-56699D01*
X70596Y-56579D01*
X70661Y-56423D01*
X70661Y-56254D01*
X70596Y-56098D01*
X70536Y-56037D01*
X70536Y-41482D01*
X70576Y-41441D01*
X70641Y-41285D01*
X70641Y-41116D01*
X70577Y-40960D01*
X70457Y-40840D01*
X70301Y-40775D01*
X70132Y-40775D01*
X69976Y-40840D01*
X69856Y-40959D01*
X69791Y-41115D01*
X69791Y-41284D01*
X69856Y-41441D01*
X69936Y-41521D01*
X69936Y-56037D01*
X69876Y-56097D01*
X69811Y-56253D01*
X69811Y-56342D01*
X69739Y-56371D01*
X69716Y-56395D01*
X69716Y-42376D01*
X69651Y-42220D01*
X69532Y-42100D01*
X69430Y-42058D01*
X69430Y-40579D01*
X69430Y-40466D01*
X69368Y-40404D01*
X68955Y-40404D01*
X68955Y-40816D01*
X69018Y-40879D01*
X69230Y-40879D01*
X69321Y-40841D01*
X69392Y-40771D01*
X69430Y-40679D01*
X69430Y-40579D01*
X69430Y-42058D01*
X69376Y-42035D01*
X69207Y-42035D01*
X69050Y-42100D01*
X68931Y-42219D01*
X68866Y-42375D01*
X68866Y-42544D01*
X68883Y-42587D01*
X68883Y-42692D01*
X68863Y-42671D01*
X68706Y-42606D01*
X68537Y-42606D01*
X68381Y-42670D01*
X68261Y-42790D01*
X68197Y-42946D01*
X68196Y-43115D01*
X68243Y-43227D01*
X68243Y-48478D01*
X68183Y-48538D01*
X68118Y-48694D01*
X68118Y-48863D01*
X68182Y-49019D01*
X68302Y-49139D01*
X68458Y-49204D01*
X68627Y-49204D01*
X68783Y-49140D01*
X68883Y-49040D01*
X68883Y-50259D01*
X68852Y-50290D01*
X68787Y-50446D01*
X68787Y-50615D01*
X68852Y-50771D01*
X68971Y-50891D01*
X69127Y-50956D01*
X69296Y-50956D01*
X69453Y-50892D01*
X69572Y-50772D01*
X69637Y-50616D01*
X69637Y-50447D01*
X69573Y-50291D01*
X69541Y-50259D01*
X69541Y-42811D01*
X69651Y-42701D01*
X69716Y-42545D01*
X69716Y-42376D01*
X69716Y-56395D01*
X69620Y-56491D01*
X69572Y-56606D01*
X69424Y-56667D01*
X69305Y-56786D01*
X69240Y-56942D01*
X69240Y-57111D01*
X69304Y-57267D01*
X69308Y-57271D01*
X69266Y-57271D01*
X69109Y-57336D01*
X68990Y-57455D01*
X68925Y-57611D01*
X68925Y-57781D01*
X68989Y-57937D01*
X69050Y-57997D01*
X69050Y-65484D01*
X69041Y-65480D01*
X68872Y-65480D01*
X68716Y-65545D01*
X68596Y-65664D01*
X68531Y-65820D01*
X68531Y-65989D01*
X68540Y-66012D01*
X68538Y-66023D01*
X68538Y-72966D01*
X68478Y-73026D01*
X68413Y-73182D01*
X68413Y-73256D01*
X68321Y-73256D01*
X68165Y-73320D01*
X68045Y-73440D01*
X67980Y-73596D01*
X67980Y-73765D01*
X68045Y-73921D01*
X68072Y-73949D01*
X68072Y-75176D01*
X67956Y-75292D01*
X67926Y-75365D01*
X67926Y-75266D01*
X67888Y-75174D01*
X67818Y-75103D01*
X67726Y-75065D01*
X67701Y-75065D01*
X67701Y-73549D01*
X67761Y-73489D01*
X67826Y-73332D01*
X67826Y-73163D01*
X67762Y-73007D01*
X67642Y-72887D01*
X67486Y-72823D01*
X67317Y-72822D01*
X67161Y-72887D01*
X67041Y-73006D01*
X66976Y-73163D01*
X66976Y-73332D01*
X67041Y-73488D01*
X67101Y-73549D01*
X67101Y-75065D01*
X67077Y-75065D01*
X66985Y-75103D01*
X66914Y-75173D01*
X66876Y-75265D01*
X66876Y-75365D01*
X66876Y-75915D01*
X66914Y-76006D01*
X66984Y-76077D01*
X67076Y-76115D01*
X67101Y-76115D01*
X67101Y-76670D01*
X67062Y-76686D01*
X66943Y-76806D01*
X66878Y-76962D01*
X66878Y-77131D01*
X66942Y-77287D01*
X67062Y-77407D01*
X67218Y-77472D01*
X67387Y-77472D01*
X67543Y-77407D01*
X67663Y-77288D01*
X67728Y-77132D01*
X67728Y-76963D01*
X67701Y-76898D01*
X67701Y-76115D01*
X67726Y-76115D01*
X67818Y-76077D01*
X67888Y-76007D01*
X67926Y-75915D01*
X67926Y-75816D01*
X67926Y-75815D01*
X67956Y-75887D01*
X68101Y-76033D01*
X68101Y-76730D01*
X68006Y-76825D01*
X67941Y-76982D01*
X67941Y-77151D01*
X68005Y-77307D01*
X68125Y-77427D01*
X68281Y-77491D01*
X68450Y-77492D01*
X68606Y-77427D01*
X68726Y-77307D01*
X68791Y-77151D01*
X68791Y-76982D01*
X68726Y-76826D01*
X68701Y-76801D01*
X68701Y-76032D01*
X68846Y-75888D01*
X68898Y-75761D01*
X68941Y-75863D01*
X69033Y-75887D01*
X69330Y-75590D01*
X69033Y-75293D01*
X68941Y-75317D01*
X68902Y-75427D01*
X68846Y-75293D01*
X68730Y-75176D01*
X68730Y-73957D01*
X68765Y-73922D01*
X68830Y-73766D01*
X68830Y-73692D01*
X68922Y-73692D01*
X69079Y-73628D01*
X69198Y-73508D01*
X69263Y-73352D01*
X69263Y-73183D01*
X69199Y-73027D01*
X69138Y-72966D01*
X69138Y-67108D01*
X69147Y-67130D01*
X69266Y-67249D01*
X69318Y-67271D01*
X69299Y-67316D01*
X69299Y-67485D01*
X69363Y-67642D01*
X69483Y-67761D01*
X69639Y-67826D01*
X69674Y-67826D01*
X69673Y-67828D01*
X69673Y-67997D01*
X69737Y-68153D01*
X69857Y-68273D01*
X70009Y-68336D01*
X70008Y-68340D01*
X70007Y-68509D01*
X70072Y-68665D01*
X70097Y-68690D01*
X70072Y-68715D01*
X70008Y-68871D01*
X70007Y-69040D01*
X70072Y-69197D01*
X70093Y-69218D01*
X70093Y-69437D01*
X69955Y-69437D01*
X69798Y-69501D01*
X69679Y-69621D01*
X69614Y-69777D01*
X69614Y-69946D01*
X69678Y-70102D01*
X69710Y-70134D01*
X69710Y-73232D01*
X69641Y-73261D01*
X69521Y-73380D01*
X69456Y-73537D01*
X69456Y-73706D01*
X69521Y-73862D01*
X69640Y-73982D01*
X69796Y-74046D01*
X69966Y-74047D01*
X70122Y-73982D01*
X70241Y-73863D01*
X70263Y-73811D01*
X70308Y-73830D01*
X70477Y-73830D01*
X70634Y-73766D01*
X70753Y-73646D01*
X70759Y-73633D01*
X70841Y-73633D01*
X70841Y-74726D01*
X70502Y-75065D01*
X70297Y-75065D01*
X70104Y-75145D01*
X69956Y-75292D01*
X69904Y-75419D01*
X69862Y-75317D01*
X69769Y-75293D01*
X69698Y-75364D01*
X69698Y-75222D01*
X69674Y-75130D01*
X69477Y-75060D01*
X69268Y-75071D01*
X69128Y-75130D01*
X69104Y-75222D01*
X69401Y-75519D01*
X69698Y-75222D01*
X69698Y-75364D01*
X69472Y-75590D01*
X69769Y-75887D01*
X69862Y-75863D01*
X69900Y-75753D01*
X69956Y-75887D01*
X70103Y-76035D01*
X70296Y-76115D01*
X70505Y-76115D01*
X70698Y-76035D01*
X70846Y-75888D01*
X70901Y-75755D01*
X70956Y-75887D01*
X71103Y-76035D01*
X71296Y-76115D01*
X71505Y-76115D01*
X71698Y-76035D01*
X71846Y-75888D01*
X71901Y-75755D01*
X71956Y-75887D01*
X72103Y-76035D01*
X72296Y-76115D01*
X72505Y-76115D01*
X72698Y-76035D01*
X72846Y-75888D01*
X72926Y-75695D01*
X72926Y-75486D01*
X72926Y-78057D01*
X69698Y-78057D01*
X69698Y-75958D01*
X69401Y-75661D01*
X69104Y-75958D01*
X69128Y-76051D01*
X69325Y-76120D01*
X69534Y-76109D01*
X69674Y-76051D01*
X69698Y-75958D01*
X69698Y-78057D01*
X65938Y-78057D01*
X65938Y-77568D01*
X65938Y-77117D01*
X65938Y-77017D01*
X65900Y-76925D01*
X65829Y-76855D01*
X65737Y-76817D01*
X65525Y-76817D01*
X65463Y-76880D01*
X65463Y-77292D01*
X65875Y-77292D01*
X65938Y-77230D01*
X65938Y-77117D01*
X65938Y-77568D01*
X65938Y-77455D01*
X65875Y-77392D01*
X65463Y-77392D01*
X65463Y-77805D01*
X65525Y-77867D01*
X65737Y-77867D01*
X65829Y-77829D01*
X65900Y-77759D01*
X65938Y-77667D01*
X65938Y-77568D01*
X65938Y-78057D01*
X65092Y-78057D01*
X65092Y-77867D01*
X65300Y-77867D01*
X65363Y-77805D01*
X65363Y-77392D01*
X65355Y-77392D01*
X65355Y-77292D01*
X65363Y-77292D01*
X65363Y-76880D01*
X65300Y-76817D01*
X65092Y-76817D01*
X65092Y-72391D01*
X65147Y-72414D01*
X65246Y-72414D01*
X65796Y-72414D01*
X65888Y-72376D01*
X65959Y-72306D01*
X65997Y-72214D01*
X65997Y-72115D01*
X65997Y-71565D01*
X65959Y-71473D01*
X65889Y-71402D01*
X65797Y-71364D01*
X65697Y-71364D01*
X65147Y-71364D01*
X65092Y-71387D01*
X65092Y-70935D01*
X65147Y-70958D01*
X65246Y-70958D01*
X65796Y-70958D01*
X65888Y-70920D01*
X65959Y-70849D01*
X65997Y-70758D01*
X65997Y-70658D01*
X65997Y-70108D01*
X65959Y-70016D01*
X65889Y-69946D01*
X65797Y-69908D01*
X65697Y-69908D01*
X65147Y-69908D01*
X65092Y-69930D01*
X65092Y-59476D01*
X65131Y-59571D01*
X65251Y-59690D01*
X65407Y-59755D01*
X65526Y-59755D01*
X65526Y-66023D01*
X65529Y-66034D01*
X65529Y-66034D01*
X65519Y-66056D01*
X65519Y-66225D01*
X65584Y-66382D01*
X65703Y-66501D01*
X65859Y-66566D01*
X66029Y-66566D01*
X66185Y-66502D01*
X66304Y-66382D01*
X66362Y-66244D01*
X66484Y-66193D01*
X66484Y-66324D01*
X66548Y-66480D01*
X66609Y-66541D01*
X66609Y-70649D01*
X66632Y-70764D01*
X66697Y-70861D01*
X66760Y-70924D01*
X66759Y-71009D01*
X66824Y-71165D01*
X66943Y-71285D01*
X67100Y-71350D01*
X67269Y-71350D01*
X67425Y-71285D01*
X67545Y-71166D01*
X67609Y-71010D01*
X67610Y-70841D01*
X67593Y-70801D01*
X67661Y-70773D01*
X67781Y-70654D01*
X67846Y-70498D01*
X67846Y-70329D01*
X67818Y-70262D01*
X67919Y-70162D01*
X67983Y-70006D01*
X67984Y-69837D01*
X67919Y-69680D01*
X67878Y-69639D01*
X67878Y-64929D01*
X67887Y-64932D01*
X68056Y-64932D01*
X68212Y-64868D01*
X68332Y-64748D01*
X68397Y-64592D01*
X68397Y-64423D01*
X68332Y-64267D01*
X68213Y-64147D01*
X68213Y-64147D01*
X68213Y-60616D01*
X68273Y-60556D01*
X68338Y-60399D01*
X68338Y-60230D01*
X68273Y-60074D01*
X68213Y-60013D01*
X68213Y-57751D01*
X68330Y-57703D01*
X68450Y-57583D01*
X68515Y-57427D01*
X68515Y-57258D01*
X68451Y-57102D01*
X68331Y-56982D01*
X68175Y-56917D01*
X68006Y-56917D01*
X67878Y-56970D01*
X67878Y-50438D01*
X67938Y-50378D01*
X68003Y-50222D01*
X68003Y-50053D01*
X67939Y-49897D01*
X67819Y-49777D01*
X67663Y-49712D01*
X67494Y-49712D01*
X67338Y-49777D01*
X67218Y-49896D01*
X67153Y-50052D01*
X67153Y-50221D01*
X67218Y-50378D01*
X67278Y-50438D01*
X67278Y-59784D01*
X67217Y-59784D01*
X67217Y-58473D01*
X67217Y-58022D01*
X67217Y-57923D01*
X67179Y-57831D01*
X67109Y-57760D01*
X67080Y-57748D01*
X67080Y-45301D01*
X67000Y-45108D01*
X66852Y-44960D01*
X66660Y-44880D01*
X66451Y-44880D01*
X66258Y-44960D01*
X66110Y-45107D01*
X66030Y-45300D01*
X66030Y-45509D01*
X66109Y-45702D01*
X66257Y-45850D01*
X66329Y-45880D01*
X66230Y-45880D01*
X66138Y-45918D01*
X66068Y-45988D01*
X66030Y-46080D01*
X66030Y-46180D01*
X66030Y-46730D01*
X66068Y-46821D01*
X66138Y-46892D01*
X66230Y-46930D01*
X66329Y-46930D01*
X66879Y-46930D01*
X66971Y-46892D01*
X67041Y-46822D01*
X67080Y-46730D01*
X67080Y-46631D01*
X67080Y-46081D01*
X67042Y-45989D01*
X66971Y-45918D01*
X66880Y-45880D01*
X66780Y-45880D01*
X66780Y-45880D01*
X66852Y-45850D01*
X66999Y-45703D01*
X67080Y-45510D01*
X67080Y-45301D01*
X67080Y-57748D01*
X67017Y-57722D01*
X66805Y-57723D01*
X66742Y-57785D01*
X66742Y-58198D01*
X67155Y-58198D01*
X67217Y-58135D01*
X67217Y-58022D01*
X67217Y-58473D01*
X67217Y-58360D01*
X67155Y-58298D01*
X66742Y-58298D01*
X66742Y-58710D01*
X66805Y-58773D01*
X67017Y-58773D01*
X67109Y-58735D01*
X67179Y-58664D01*
X67217Y-58572D01*
X67217Y-58473D01*
X67217Y-59784D01*
X67200Y-59784D01*
X66441Y-59784D01*
X66441Y-58773D01*
X66580Y-58773D01*
X66642Y-58710D01*
X66642Y-58298D01*
X66635Y-58298D01*
X66635Y-58198D01*
X66642Y-58198D01*
X66642Y-57785D01*
X66580Y-57723D01*
X66441Y-57723D01*
X66441Y-54100D01*
X66501Y-54040D01*
X66566Y-53884D01*
X66566Y-53715D01*
X66502Y-53558D01*
X66382Y-53439D01*
X66226Y-53374D01*
X66057Y-53374D01*
X65938Y-53423D01*
X65938Y-40560D01*
X65938Y-40447D01*
X65875Y-40384D01*
X65463Y-40384D01*
X65463Y-40797D01*
X65525Y-40859D01*
X65737Y-40859D01*
X65829Y-40821D01*
X65900Y-40751D01*
X65938Y-40659D01*
X65938Y-40560D01*
X65938Y-53423D01*
X65901Y-53438D01*
X65781Y-53558D01*
X65716Y-53714D01*
X65716Y-53883D01*
X65781Y-54039D01*
X65841Y-54100D01*
X65841Y-54614D01*
X65742Y-54614D01*
X65586Y-54678D01*
X65466Y-54798D01*
X65437Y-54867D01*
X65437Y-52761D01*
X65497Y-52701D01*
X65562Y-52545D01*
X65562Y-52376D01*
X65498Y-52220D01*
X65378Y-52100D01*
X65222Y-52035D01*
X65092Y-52035D01*
X65092Y-40859D01*
X65300Y-40859D01*
X65363Y-40797D01*
X65363Y-40384D01*
X65355Y-40384D01*
X65355Y-40284D01*
X65363Y-40284D01*
X65363Y-40276D01*
X65463Y-40276D01*
X65463Y-40284D01*
X65875Y-40284D01*
X65938Y-40222D01*
X65938Y-40109D01*
X65938Y-40009D01*
X65900Y-39917D01*
X65877Y-39895D01*
X67640Y-39895D01*
X67608Y-39908D01*
X67460Y-40056D01*
X67380Y-40249D01*
X67380Y-40458D01*
X67460Y-40651D01*
X67605Y-40796D01*
X67605Y-40907D01*
X67533Y-40979D01*
X67468Y-41135D01*
X67468Y-41304D01*
X67533Y-41460D01*
X67652Y-41580D01*
X67808Y-41645D01*
X67977Y-41645D01*
X68134Y-41580D01*
X68253Y-41461D01*
X68318Y-41305D01*
X68318Y-41136D01*
X68254Y-40980D01*
X68205Y-40931D01*
X68205Y-40796D01*
X68350Y-40652D01*
X68380Y-40579D01*
X68380Y-40579D01*
X68380Y-40679D01*
X68418Y-40771D01*
X68489Y-40841D01*
X68581Y-40879D01*
X68793Y-40879D01*
X68855Y-40816D01*
X68855Y-40404D01*
X68847Y-40404D01*
X68847Y-40304D01*
X68855Y-40304D01*
X68855Y-40296D01*
X68955Y-40296D01*
X68955Y-40304D01*
X69368Y-40304D01*
X69430Y-40241D01*
X69430Y-40128D01*
X69430Y-40029D01*
X69392Y-39937D01*
X69350Y-39895D01*
X88759Y-39895D01*
X88737Y-39917D01*
X88699Y-40009D01*
X88699Y-40109D01*
X88699Y-40659D01*
X88737Y-40751D01*
X88807Y-40821D01*
X88899Y-40859D01*
X88998Y-40859D01*
X89548Y-40859D01*
X89640Y-40821D01*
X89711Y-40751D01*
X89749Y-40659D01*
X89749Y-40572D01*
X89763Y-40607D01*
X89856Y-40631D01*
X90153Y-40334D01*
X89856Y-40037D01*
X89763Y-40061D01*
X89749Y-40102D01*
X89749Y-40010D01*
X89711Y-39918D01*
X89688Y-39895D01*
X89945Y-39895D01*
X89927Y-39966D01*
X90224Y-40263D01*
X90521Y-39966D01*
X90502Y-39895D01*
X92310Y-39895D01*
X92288Y-39917D01*
X92250Y-40009D01*
X92250Y-40109D01*
X92250Y-40222D01*
X92313Y-40284D01*
X92725Y-40284D01*
X92725Y-40276D01*
X92825Y-40276D01*
X92825Y-40284D01*
X92833Y-40284D01*
X92833Y-40384D01*
X92825Y-40384D01*
X92825Y-40797D01*
X92888Y-40859D01*
X93096Y-40859D01*
X93096Y-50467D01*
X93095Y-50466D01*
X92939Y-50401D01*
X92770Y-50401D01*
X92671Y-50442D01*
X92671Y-41788D01*
X92702Y-41756D01*
X92767Y-41600D01*
X92767Y-41431D01*
X92725Y-41329D01*
X92725Y-40797D01*
X92725Y-40384D01*
X92313Y-40384D01*
X92250Y-40447D01*
X92250Y-40560D01*
X92250Y-40659D01*
X92288Y-40751D01*
X92359Y-40821D01*
X92451Y-40859D01*
X92663Y-40859D01*
X92725Y-40797D01*
X92725Y-41329D01*
X92703Y-41275D01*
X92583Y-41155D01*
X92427Y-41090D01*
X92258Y-41090D01*
X92102Y-41155D01*
X91982Y-41274D01*
X91917Y-41430D01*
X91917Y-41599D01*
X91982Y-41756D01*
X92013Y-41787D01*
X92013Y-41826D01*
X91973Y-41785D01*
X91817Y-41720D01*
X91648Y-41720D01*
X91491Y-41785D01*
X91372Y-41904D01*
X91307Y-42060D01*
X91307Y-42229D01*
X91371Y-42386D01*
X91403Y-42417D01*
X91403Y-51282D01*
X91372Y-51314D01*
X91307Y-51470D01*
X91307Y-51639D01*
X91371Y-51795D01*
X91403Y-51827D01*
X91403Y-58487D01*
X91372Y-58518D01*
X91307Y-58674D01*
X91307Y-58844D01*
X91371Y-59000D01*
X91491Y-59119D01*
X91647Y-59184D01*
X91816Y-59184D01*
X91972Y-59120D01*
X92013Y-59079D01*
X92013Y-60138D01*
X91954Y-59995D01*
X91835Y-59876D01*
X91679Y-59811D01*
X91510Y-59811D01*
X91354Y-59875D01*
X91234Y-59995D01*
X91169Y-60151D01*
X91169Y-60320D01*
X91233Y-60476D01*
X91294Y-60537D01*
X91294Y-63295D01*
X91215Y-63295D01*
X91058Y-63359D01*
X90939Y-63479D01*
X90874Y-63635D01*
X90874Y-63804D01*
X90938Y-63960D01*
X90940Y-63962D01*
X90940Y-71948D01*
X90962Y-72063D01*
X91028Y-72160D01*
X91248Y-72381D01*
X91248Y-72456D01*
X91157Y-72493D01*
X91037Y-72613D01*
X90972Y-72769D01*
X90972Y-72938D01*
X91037Y-73094D01*
X91097Y-73155D01*
X91097Y-73728D01*
X91077Y-73728D01*
X90920Y-73793D01*
X90801Y-73912D01*
X90736Y-74068D01*
X90736Y-74237D01*
X90800Y-74393D01*
X90920Y-74513D01*
X91076Y-74578D01*
X91245Y-74578D01*
X91401Y-74514D01*
X91521Y-74394D01*
X91586Y-74238D01*
X91586Y-74152D01*
X91609Y-74129D01*
X91674Y-74032D01*
X91688Y-73964D01*
X91688Y-74147D01*
X91628Y-74207D01*
X91563Y-74363D01*
X91563Y-74532D01*
X91627Y-74689D01*
X91747Y-74808D01*
X91878Y-74863D01*
X91878Y-74907D01*
X91942Y-75063D01*
X92062Y-75182D01*
X92218Y-75247D01*
X92387Y-75247D01*
X92543Y-75183D01*
X92663Y-75063D01*
X92728Y-74907D01*
X92728Y-74738D01*
X92663Y-74582D01*
X92603Y-74521D01*
X92603Y-67692D01*
X92632Y-67722D01*
X92789Y-67787D01*
X92869Y-67787D01*
X92869Y-68462D01*
X92830Y-68478D01*
X92710Y-68597D01*
X92645Y-68753D01*
X92645Y-68922D01*
X92710Y-69079D01*
X92829Y-69198D01*
X92985Y-69263D01*
X93096Y-69263D01*
X93096Y-76817D01*
X92888Y-76817D01*
X92825Y-76880D01*
X92825Y-77292D01*
X92833Y-77292D01*
X92833Y-77392D01*
X92825Y-77392D01*
X92825Y-77805D01*
X92888Y-77867D01*
X93096Y-77867D01*
X93096Y-78057D01*
M02*
