G75*
%MOIN*%
%OFA0B0*%
%FSLAX25Y25*%
%IPPOS*%
%LPD*%
%AMOC8*
5,1,8,0,0,1.08239X$1,22.5*
%
%ADD10C,0.00000*%
%ADD11R,0.05906X0.01969*%
%ADD12R,0.01969X0.05906*%
%ADD13R,0.06299X0.07087*%
%ADD14R,0.07087X0.06299*%
%ADD15R,0.07098X0.06299*%
%ADD16C,0.05200*%
%ADD17R,0.06299X0.07098*%
%ADD18C,0.06000*%
%ADD19C,0.04400*%
%ADD20R,0.02362X0.03937*%
%ADD21C,0.05200*%
%ADD22R,0.04331X0.03937*%
%ADD23C,0.05937*%
%ADD24C,0.01000*%
%ADD25C,0.03600*%
%ADD26C,0.01600*%
D10*
X0008000Y0004500D02*
X0008000Y0319461D01*
X0401701Y0319461D01*
X0401701Y0004500D01*
X0008000Y0004500D01*
X0017488Y0019500D02*
X0017490Y0019648D01*
X0017496Y0019796D01*
X0017506Y0019944D01*
X0017520Y0020091D01*
X0017538Y0020238D01*
X0017559Y0020384D01*
X0017585Y0020530D01*
X0017615Y0020675D01*
X0017648Y0020819D01*
X0017686Y0020962D01*
X0017727Y0021104D01*
X0017772Y0021245D01*
X0017820Y0021385D01*
X0017873Y0021524D01*
X0017929Y0021661D01*
X0017989Y0021796D01*
X0018052Y0021930D01*
X0018119Y0022062D01*
X0018190Y0022192D01*
X0018264Y0022320D01*
X0018341Y0022446D01*
X0018422Y0022570D01*
X0018506Y0022692D01*
X0018593Y0022811D01*
X0018684Y0022928D01*
X0018778Y0023043D01*
X0018874Y0023155D01*
X0018974Y0023265D01*
X0019076Y0023371D01*
X0019182Y0023475D01*
X0019290Y0023576D01*
X0019401Y0023674D01*
X0019514Y0023770D01*
X0019630Y0023862D01*
X0019748Y0023951D01*
X0019869Y0024036D01*
X0019992Y0024119D01*
X0020117Y0024198D01*
X0020244Y0024274D01*
X0020373Y0024346D01*
X0020504Y0024415D01*
X0020637Y0024480D01*
X0020772Y0024541D01*
X0020908Y0024599D01*
X0021045Y0024654D01*
X0021184Y0024704D01*
X0021325Y0024751D01*
X0021466Y0024794D01*
X0021609Y0024834D01*
X0021753Y0024869D01*
X0021897Y0024901D01*
X0022043Y0024928D01*
X0022189Y0024952D01*
X0022336Y0024972D01*
X0022483Y0024988D01*
X0022630Y0025000D01*
X0022778Y0025008D01*
X0022926Y0025012D01*
X0023074Y0025012D01*
X0023222Y0025008D01*
X0023370Y0025000D01*
X0023517Y0024988D01*
X0023664Y0024972D01*
X0023811Y0024952D01*
X0023957Y0024928D01*
X0024103Y0024901D01*
X0024247Y0024869D01*
X0024391Y0024834D01*
X0024534Y0024794D01*
X0024675Y0024751D01*
X0024816Y0024704D01*
X0024955Y0024654D01*
X0025092Y0024599D01*
X0025228Y0024541D01*
X0025363Y0024480D01*
X0025496Y0024415D01*
X0025627Y0024346D01*
X0025756Y0024274D01*
X0025883Y0024198D01*
X0026008Y0024119D01*
X0026131Y0024036D01*
X0026252Y0023951D01*
X0026370Y0023862D01*
X0026486Y0023770D01*
X0026599Y0023674D01*
X0026710Y0023576D01*
X0026818Y0023475D01*
X0026924Y0023371D01*
X0027026Y0023265D01*
X0027126Y0023155D01*
X0027222Y0023043D01*
X0027316Y0022928D01*
X0027407Y0022811D01*
X0027494Y0022692D01*
X0027578Y0022570D01*
X0027659Y0022446D01*
X0027736Y0022320D01*
X0027810Y0022192D01*
X0027881Y0022062D01*
X0027948Y0021930D01*
X0028011Y0021796D01*
X0028071Y0021661D01*
X0028127Y0021524D01*
X0028180Y0021385D01*
X0028228Y0021245D01*
X0028273Y0021104D01*
X0028314Y0020962D01*
X0028352Y0020819D01*
X0028385Y0020675D01*
X0028415Y0020530D01*
X0028441Y0020384D01*
X0028462Y0020238D01*
X0028480Y0020091D01*
X0028494Y0019944D01*
X0028504Y0019796D01*
X0028510Y0019648D01*
X0028512Y0019500D01*
X0028510Y0019352D01*
X0028504Y0019204D01*
X0028494Y0019056D01*
X0028480Y0018909D01*
X0028462Y0018762D01*
X0028441Y0018616D01*
X0028415Y0018470D01*
X0028385Y0018325D01*
X0028352Y0018181D01*
X0028314Y0018038D01*
X0028273Y0017896D01*
X0028228Y0017755D01*
X0028180Y0017615D01*
X0028127Y0017476D01*
X0028071Y0017339D01*
X0028011Y0017204D01*
X0027948Y0017070D01*
X0027881Y0016938D01*
X0027810Y0016808D01*
X0027736Y0016680D01*
X0027659Y0016554D01*
X0027578Y0016430D01*
X0027494Y0016308D01*
X0027407Y0016189D01*
X0027316Y0016072D01*
X0027222Y0015957D01*
X0027126Y0015845D01*
X0027026Y0015735D01*
X0026924Y0015629D01*
X0026818Y0015525D01*
X0026710Y0015424D01*
X0026599Y0015326D01*
X0026486Y0015230D01*
X0026370Y0015138D01*
X0026252Y0015049D01*
X0026131Y0014964D01*
X0026008Y0014881D01*
X0025883Y0014802D01*
X0025756Y0014726D01*
X0025627Y0014654D01*
X0025496Y0014585D01*
X0025363Y0014520D01*
X0025228Y0014459D01*
X0025092Y0014401D01*
X0024955Y0014346D01*
X0024816Y0014296D01*
X0024675Y0014249D01*
X0024534Y0014206D01*
X0024391Y0014166D01*
X0024247Y0014131D01*
X0024103Y0014099D01*
X0023957Y0014072D01*
X0023811Y0014048D01*
X0023664Y0014028D01*
X0023517Y0014012D01*
X0023370Y0014000D01*
X0023222Y0013992D01*
X0023074Y0013988D01*
X0022926Y0013988D01*
X0022778Y0013992D01*
X0022630Y0014000D01*
X0022483Y0014012D01*
X0022336Y0014028D01*
X0022189Y0014048D01*
X0022043Y0014072D01*
X0021897Y0014099D01*
X0021753Y0014131D01*
X0021609Y0014166D01*
X0021466Y0014206D01*
X0021325Y0014249D01*
X0021184Y0014296D01*
X0021045Y0014346D01*
X0020908Y0014401D01*
X0020772Y0014459D01*
X0020637Y0014520D01*
X0020504Y0014585D01*
X0020373Y0014654D01*
X0020244Y0014726D01*
X0020117Y0014802D01*
X0019992Y0014881D01*
X0019869Y0014964D01*
X0019748Y0015049D01*
X0019630Y0015138D01*
X0019514Y0015230D01*
X0019401Y0015326D01*
X0019290Y0015424D01*
X0019182Y0015525D01*
X0019076Y0015629D01*
X0018974Y0015735D01*
X0018874Y0015845D01*
X0018778Y0015957D01*
X0018684Y0016072D01*
X0018593Y0016189D01*
X0018506Y0016308D01*
X0018422Y0016430D01*
X0018341Y0016554D01*
X0018264Y0016680D01*
X0018190Y0016808D01*
X0018119Y0016938D01*
X0018052Y0017070D01*
X0017989Y0017204D01*
X0017929Y0017339D01*
X0017873Y0017476D01*
X0017820Y0017615D01*
X0017772Y0017755D01*
X0017727Y0017896D01*
X0017686Y0018038D01*
X0017648Y0018181D01*
X0017615Y0018325D01*
X0017585Y0018470D01*
X0017559Y0018616D01*
X0017538Y0018762D01*
X0017520Y0018909D01*
X0017506Y0019056D01*
X0017496Y0019204D01*
X0017490Y0019352D01*
X0017488Y0019500D01*
X0017488Y0304500D02*
X0017490Y0304648D01*
X0017496Y0304796D01*
X0017506Y0304944D01*
X0017520Y0305091D01*
X0017538Y0305238D01*
X0017559Y0305384D01*
X0017585Y0305530D01*
X0017615Y0305675D01*
X0017648Y0305819D01*
X0017686Y0305962D01*
X0017727Y0306104D01*
X0017772Y0306245D01*
X0017820Y0306385D01*
X0017873Y0306524D01*
X0017929Y0306661D01*
X0017989Y0306796D01*
X0018052Y0306930D01*
X0018119Y0307062D01*
X0018190Y0307192D01*
X0018264Y0307320D01*
X0018341Y0307446D01*
X0018422Y0307570D01*
X0018506Y0307692D01*
X0018593Y0307811D01*
X0018684Y0307928D01*
X0018778Y0308043D01*
X0018874Y0308155D01*
X0018974Y0308265D01*
X0019076Y0308371D01*
X0019182Y0308475D01*
X0019290Y0308576D01*
X0019401Y0308674D01*
X0019514Y0308770D01*
X0019630Y0308862D01*
X0019748Y0308951D01*
X0019869Y0309036D01*
X0019992Y0309119D01*
X0020117Y0309198D01*
X0020244Y0309274D01*
X0020373Y0309346D01*
X0020504Y0309415D01*
X0020637Y0309480D01*
X0020772Y0309541D01*
X0020908Y0309599D01*
X0021045Y0309654D01*
X0021184Y0309704D01*
X0021325Y0309751D01*
X0021466Y0309794D01*
X0021609Y0309834D01*
X0021753Y0309869D01*
X0021897Y0309901D01*
X0022043Y0309928D01*
X0022189Y0309952D01*
X0022336Y0309972D01*
X0022483Y0309988D01*
X0022630Y0310000D01*
X0022778Y0310008D01*
X0022926Y0310012D01*
X0023074Y0310012D01*
X0023222Y0310008D01*
X0023370Y0310000D01*
X0023517Y0309988D01*
X0023664Y0309972D01*
X0023811Y0309952D01*
X0023957Y0309928D01*
X0024103Y0309901D01*
X0024247Y0309869D01*
X0024391Y0309834D01*
X0024534Y0309794D01*
X0024675Y0309751D01*
X0024816Y0309704D01*
X0024955Y0309654D01*
X0025092Y0309599D01*
X0025228Y0309541D01*
X0025363Y0309480D01*
X0025496Y0309415D01*
X0025627Y0309346D01*
X0025756Y0309274D01*
X0025883Y0309198D01*
X0026008Y0309119D01*
X0026131Y0309036D01*
X0026252Y0308951D01*
X0026370Y0308862D01*
X0026486Y0308770D01*
X0026599Y0308674D01*
X0026710Y0308576D01*
X0026818Y0308475D01*
X0026924Y0308371D01*
X0027026Y0308265D01*
X0027126Y0308155D01*
X0027222Y0308043D01*
X0027316Y0307928D01*
X0027407Y0307811D01*
X0027494Y0307692D01*
X0027578Y0307570D01*
X0027659Y0307446D01*
X0027736Y0307320D01*
X0027810Y0307192D01*
X0027881Y0307062D01*
X0027948Y0306930D01*
X0028011Y0306796D01*
X0028071Y0306661D01*
X0028127Y0306524D01*
X0028180Y0306385D01*
X0028228Y0306245D01*
X0028273Y0306104D01*
X0028314Y0305962D01*
X0028352Y0305819D01*
X0028385Y0305675D01*
X0028415Y0305530D01*
X0028441Y0305384D01*
X0028462Y0305238D01*
X0028480Y0305091D01*
X0028494Y0304944D01*
X0028504Y0304796D01*
X0028510Y0304648D01*
X0028512Y0304500D01*
X0028510Y0304352D01*
X0028504Y0304204D01*
X0028494Y0304056D01*
X0028480Y0303909D01*
X0028462Y0303762D01*
X0028441Y0303616D01*
X0028415Y0303470D01*
X0028385Y0303325D01*
X0028352Y0303181D01*
X0028314Y0303038D01*
X0028273Y0302896D01*
X0028228Y0302755D01*
X0028180Y0302615D01*
X0028127Y0302476D01*
X0028071Y0302339D01*
X0028011Y0302204D01*
X0027948Y0302070D01*
X0027881Y0301938D01*
X0027810Y0301808D01*
X0027736Y0301680D01*
X0027659Y0301554D01*
X0027578Y0301430D01*
X0027494Y0301308D01*
X0027407Y0301189D01*
X0027316Y0301072D01*
X0027222Y0300957D01*
X0027126Y0300845D01*
X0027026Y0300735D01*
X0026924Y0300629D01*
X0026818Y0300525D01*
X0026710Y0300424D01*
X0026599Y0300326D01*
X0026486Y0300230D01*
X0026370Y0300138D01*
X0026252Y0300049D01*
X0026131Y0299964D01*
X0026008Y0299881D01*
X0025883Y0299802D01*
X0025756Y0299726D01*
X0025627Y0299654D01*
X0025496Y0299585D01*
X0025363Y0299520D01*
X0025228Y0299459D01*
X0025092Y0299401D01*
X0024955Y0299346D01*
X0024816Y0299296D01*
X0024675Y0299249D01*
X0024534Y0299206D01*
X0024391Y0299166D01*
X0024247Y0299131D01*
X0024103Y0299099D01*
X0023957Y0299072D01*
X0023811Y0299048D01*
X0023664Y0299028D01*
X0023517Y0299012D01*
X0023370Y0299000D01*
X0023222Y0298992D01*
X0023074Y0298988D01*
X0022926Y0298988D01*
X0022778Y0298992D01*
X0022630Y0299000D01*
X0022483Y0299012D01*
X0022336Y0299028D01*
X0022189Y0299048D01*
X0022043Y0299072D01*
X0021897Y0299099D01*
X0021753Y0299131D01*
X0021609Y0299166D01*
X0021466Y0299206D01*
X0021325Y0299249D01*
X0021184Y0299296D01*
X0021045Y0299346D01*
X0020908Y0299401D01*
X0020772Y0299459D01*
X0020637Y0299520D01*
X0020504Y0299585D01*
X0020373Y0299654D01*
X0020244Y0299726D01*
X0020117Y0299802D01*
X0019992Y0299881D01*
X0019869Y0299964D01*
X0019748Y0300049D01*
X0019630Y0300138D01*
X0019514Y0300230D01*
X0019401Y0300326D01*
X0019290Y0300424D01*
X0019182Y0300525D01*
X0019076Y0300629D01*
X0018974Y0300735D01*
X0018874Y0300845D01*
X0018778Y0300957D01*
X0018684Y0301072D01*
X0018593Y0301189D01*
X0018506Y0301308D01*
X0018422Y0301430D01*
X0018341Y0301554D01*
X0018264Y0301680D01*
X0018190Y0301808D01*
X0018119Y0301938D01*
X0018052Y0302070D01*
X0017989Y0302204D01*
X0017929Y0302339D01*
X0017873Y0302476D01*
X0017820Y0302615D01*
X0017772Y0302755D01*
X0017727Y0302896D01*
X0017686Y0303038D01*
X0017648Y0303181D01*
X0017615Y0303325D01*
X0017585Y0303470D01*
X0017559Y0303616D01*
X0017538Y0303762D01*
X0017520Y0303909D01*
X0017506Y0304056D01*
X0017496Y0304204D01*
X0017490Y0304352D01*
X0017488Y0304500D01*
X0382488Y0304500D02*
X0382490Y0304648D01*
X0382496Y0304796D01*
X0382506Y0304944D01*
X0382520Y0305091D01*
X0382538Y0305238D01*
X0382559Y0305384D01*
X0382585Y0305530D01*
X0382615Y0305675D01*
X0382648Y0305819D01*
X0382686Y0305962D01*
X0382727Y0306104D01*
X0382772Y0306245D01*
X0382820Y0306385D01*
X0382873Y0306524D01*
X0382929Y0306661D01*
X0382989Y0306796D01*
X0383052Y0306930D01*
X0383119Y0307062D01*
X0383190Y0307192D01*
X0383264Y0307320D01*
X0383341Y0307446D01*
X0383422Y0307570D01*
X0383506Y0307692D01*
X0383593Y0307811D01*
X0383684Y0307928D01*
X0383778Y0308043D01*
X0383874Y0308155D01*
X0383974Y0308265D01*
X0384076Y0308371D01*
X0384182Y0308475D01*
X0384290Y0308576D01*
X0384401Y0308674D01*
X0384514Y0308770D01*
X0384630Y0308862D01*
X0384748Y0308951D01*
X0384869Y0309036D01*
X0384992Y0309119D01*
X0385117Y0309198D01*
X0385244Y0309274D01*
X0385373Y0309346D01*
X0385504Y0309415D01*
X0385637Y0309480D01*
X0385772Y0309541D01*
X0385908Y0309599D01*
X0386045Y0309654D01*
X0386184Y0309704D01*
X0386325Y0309751D01*
X0386466Y0309794D01*
X0386609Y0309834D01*
X0386753Y0309869D01*
X0386897Y0309901D01*
X0387043Y0309928D01*
X0387189Y0309952D01*
X0387336Y0309972D01*
X0387483Y0309988D01*
X0387630Y0310000D01*
X0387778Y0310008D01*
X0387926Y0310012D01*
X0388074Y0310012D01*
X0388222Y0310008D01*
X0388370Y0310000D01*
X0388517Y0309988D01*
X0388664Y0309972D01*
X0388811Y0309952D01*
X0388957Y0309928D01*
X0389103Y0309901D01*
X0389247Y0309869D01*
X0389391Y0309834D01*
X0389534Y0309794D01*
X0389675Y0309751D01*
X0389816Y0309704D01*
X0389955Y0309654D01*
X0390092Y0309599D01*
X0390228Y0309541D01*
X0390363Y0309480D01*
X0390496Y0309415D01*
X0390627Y0309346D01*
X0390756Y0309274D01*
X0390883Y0309198D01*
X0391008Y0309119D01*
X0391131Y0309036D01*
X0391252Y0308951D01*
X0391370Y0308862D01*
X0391486Y0308770D01*
X0391599Y0308674D01*
X0391710Y0308576D01*
X0391818Y0308475D01*
X0391924Y0308371D01*
X0392026Y0308265D01*
X0392126Y0308155D01*
X0392222Y0308043D01*
X0392316Y0307928D01*
X0392407Y0307811D01*
X0392494Y0307692D01*
X0392578Y0307570D01*
X0392659Y0307446D01*
X0392736Y0307320D01*
X0392810Y0307192D01*
X0392881Y0307062D01*
X0392948Y0306930D01*
X0393011Y0306796D01*
X0393071Y0306661D01*
X0393127Y0306524D01*
X0393180Y0306385D01*
X0393228Y0306245D01*
X0393273Y0306104D01*
X0393314Y0305962D01*
X0393352Y0305819D01*
X0393385Y0305675D01*
X0393415Y0305530D01*
X0393441Y0305384D01*
X0393462Y0305238D01*
X0393480Y0305091D01*
X0393494Y0304944D01*
X0393504Y0304796D01*
X0393510Y0304648D01*
X0393512Y0304500D01*
X0393510Y0304352D01*
X0393504Y0304204D01*
X0393494Y0304056D01*
X0393480Y0303909D01*
X0393462Y0303762D01*
X0393441Y0303616D01*
X0393415Y0303470D01*
X0393385Y0303325D01*
X0393352Y0303181D01*
X0393314Y0303038D01*
X0393273Y0302896D01*
X0393228Y0302755D01*
X0393180Y0302615D01*
X0393127Y0302476D01*
X0393071Y0302339D01*
X0393011Y0302204D01*
X0392948Y0302070D01*
X0392881Y0301938D01*
X0392810Y0301808D01*
X0392736Y0301680D01*
X0392659Y0301554D01*
X0392578Y0301430D01*
X0392494Y0301308D01*
X0392407Y0301189D01*
X0392316Y0301072D01*
X0392222Y0300957D01*
X0392126Y0300845D01*
X0392026Y0300735D01*
X0391924Y0300629D01*
X0391818Y0300525D01*
X0391710Y0300424D01*
X0391599Y0300326D01*
X0391486Y0300230D01*
X0391370Y0300138D01*
X0391252Y0300049D01*
X0391131Y0299964D01*
X0391008Y0299881D01*
X0390883Y0299802D01*
X0390756Y0299726D01*
X0390627Y0299654D01*
X0390496Y0299585D01*
X0390363Y0299520D01*
X0390228Y0299459D01*
X0390092Y0299401D01*
X0389955Y0299346D01*
X0389816Y0299296D01*
X0389675Y0299249D01*
X0389534Y0299206D01*
X0389391Y0299166D01*
X0389247Y0299131D01*
X0389103Y0299099D01*
X0388957Y0299072D01*
X0388811Y0299048D01*
X0388664Y0299028D01*
X0388517Y0299012D01*
X0388370Y0299000D01*
X0388222Y0298992D01*
X0388074Y0298988D01*
X0387926Y0298988D01*
X0387778Y0298992D01*
X0387630Y0299000D01*
X0387483Y0299012D01*
X0387336Y0299028D01*
X0387189Y0299048D01*
X0387043Y0299072D01*
X0386897Y0299099D01*
X0386753Y0299131D01*
X0386609Y0299166D01*
X0386466Y0299206D01*
X0386325Y0299249D01*
X0386184Y0299296D01*
X0386045Y0299346D01*
X0385908Y0299401D01*
X0385772Y0299459D01*
X0385637Y0299520D01*
X0385504Y0299585D01*
X0385373Y0299654D01*
X0385244Y0299726D01*
X0385117Y0299802D01*
X0384992Y0299881D01*
X0384869Y0299964D01*
X0384748Y0300049D01*
X0384630Y0300138D01*
X0384514Y0300230D01*
X0384401Y0300326D01*
X0384290Y0300424D01*
X0384182Y0300525D01*
X0384076Y0300629D01*
X0383974Y0300735D01*
X0383874Y0300845D01*
X0383778Y0300957D01*
X0383684Y0301072D01*
X0383593Y0301189D01*
X0383506Y0301308D01*
X0383422Y0301430D01*
X0383341Y0301554D01*
X0383264Y0301680D01*
X0383190Y0301808D01*
X0383119Y0301938D01*
X0383052Y0302070D01*
X0382989Y0302204D01*
X0382929Y0302339D01*
X0382873Y0302476D01*
X0382820Y0302615D01*
X0382772Y0302755D01*
X0382727Y0302896D01*
X0382686Y0303038D01*
X0382648Y0303181D01*
X0382615Y0303325D01*
X0382585Y0303470D01*
X0382559Y0303616D01*
X0382538Y0303762D01*
X0382520Y0303909D01*
X0382506Y0304056D01*
X0382496Y0304204D01*
X0382490Y0304352D01*
X0382488Y0304500D01*
X0382488Y0019500D02*
X0382490Y0019648D01*
X0382496Y0019796D01*
X0382506Y0019944D01*
X0382520Y0020091D01*
X0382538Y0020238D01*
X0382559Y0020384D01*
X0382585Y0020530D01*
X0382615Y0020675D01*
X0382648Y0020819D01*
X0382686Y0020962D01*
X0382727Y0021104D01*
X0382772Y0021245D01*
X0382820Y0021385D01*
X0382873Y0021524D01*
X0382929Y0021661D01*
X0382989Y0021796D01*
X0383052Y0021930D01*
X0383119Y0022062D01*
X0383190Y0022192D01*
X0383264Y0022320D01*
X0383341Y0022446D01*
X0383422Y0022570D01*
X0383506Y0022692D01*
X0383593Y0022811D01*
X0383684Y0022928D01*
X0383778Y0023043D01*
X0383874Y0023155D01*
X0383974Y0023265D01*
X0384076Y0023371D01*
X0384182Y0023475D01*
X0384290Y0023576D01*
X0384401Y0023674D01*
X0384514Y0023770D01*
X0384630Y0023862D01*
X0384748Y0023951D01*
X0384869Y0024036D01*
X0384992Y0024119D01*
X0385117Y0024198D01*
X0385244Y0024274D01*
X0385373Y0024346D01*
X0385504Y0024415D01*
X0385637Y0024480D01*
X0385772Y0024541D01*
X0385908Y0024599D01*
X0386045Y0024654D01*
X0386184Y0024704D01*
X0386325Y0024751D01*
X0386466Y0024794D01*
X0386609Y0024834D01*
X0386753Y0024869D01*
X0386897Y0024901D01*
X0387043Y0024928D01*
X0387189Y0024952D01*
X0387336Y0024972D01*
X0387483Y0024988D01*
X0387630Y0025000D01*
X0387778Y0025008D01*
X0387926Y0025012D01*
X0388074Y0025012D01*
X0388222Y0025008D01*
X0388370Y0025000D01*
X0388517Y0024988D01*
X0388664Y0024972D01*
X0388811Y0024952D01*
X0388957Y0024928D01*
X0389103Y0024901D01*
X0389247Y0024869D01*
X0389391Y0024834D01*
X0389534Y0024794D01*
X0389675Y0024751D01*
X0389816Y0024704D01*
X0389955Y0024654D01*
X0390092Y0024599D01*
X0390228Y0024541D01*
X0390363Y0024480D01*
X0390496Y0024415D01*
X0390627Y0024346D01*
X0390756Y0024274D01*
X0390883Y0024198D01*
X0391008Y0024119D01*
X0391131Y0024036D01*
X0391252Y0023951D01*
X0391370Y0023862D01*
X0391486Y0023770D01*
X0391599Y0023674D01*
X0391710Y0023576D01*
X0391818Y0023475D01*
X0391924Y0023371D01*
X0392026Y0023265D01*
X0392126Y0023155D01*
X0392222Y0023043D01*
X0392316Y0022928D01*
X0392407Y0022811D01*
X0392494Y0022692D01*
X0392578Y0022570D01*
X0392659Y0022446D01*
X0392736Y0022320D01*
X0392810Y0022192D01*
X0392881Y0022062D01*
X0392948Y0021930D01*
X0393011Y0021796D01*
X0393071Y0021661D01*
X0393127Y0021524D01*
X0393180Y0021385D01*
X0393228Y0021245D01*
X0393273Y0021104D01*
X0393314Y0020962D01*
X0393352Y0020819D01*
X0393385Y0020675D01*
X0393415Y0020530D01*
X0393441Y0020384D01*
X0393462Y0020238D01*
X0393480Y0020091D01*
X0393494Y0019944D01*
X0393504Y0019796D01*
X0393510Y0019648D01*
X0393512Y0019500D01*
X0393510Y0019352D01*
X0393504Y0019204D01*
X0393494Y0019056D01*
X0393480Y0018909D01*
X0393462Y0018762D01*
X0393441Y0018616D01*
X0393415Y0018470D01*
X0393385Y0018325D01*
X0393352Y0018181D01*
X0393314Y0018038D01*
X0393273Y0017896D01*
X0393228Y0017755D01*
X0393180Y0017615D01*
X0393127Y0017476D01*
X0393071Y0017339D01*
X0393011Y0017204D01*
X0392948Y0017070D01*
X0392881Y0016938D01*
X0392810Y0016808D01*
X0392736Y0016680D01*
X0392659Y0016554D01*
X0392578Y0016430D01*
X0392494Y0016308D01*
X0392407Y0016189D01*
X0392316Y0016072D01*
X0392222Y0015957D01*
X0392126Y0015845D01*
X0392026Y0015735D01*
X0391924Y0015629D01*
X0391818Y0015525D01*
X0391710Y0015424D01*
X0391599Y0015326D01*
X0391486Y0015230D01*
X0391370Y0015138D01*
X0391252Y0015049D01*
X0391131Y0014964D01*
X0391008Y0014881D01*
X0390883Y0014802D01*
X0390756Y0014726D01*
X0390627Y0014654D01*
X0390496Y0014585D01*
X0390363Y0014520D01*
X0390228Y0014459D01*
X0390092Y0014401D01*
X0389955Y0014346D01*
X0389816Y0014296D01*
X0389675Y0014249D01*
X0389534Y0014206D01*
X0389391Y0014166D01*
X0389247Y0014131D01*
X0389103Y0014099D01*
X0388957Y0014072D01*
X0388811Y0014048D01*
X0388664Y0014028D01*
X0388517Y0014012D01*
X0388370Y0014000D01*
X0388222Y0013992D01*
X0388074Y0013988D01*
X0387926Y0013988D01*
X0387778Y0013992D01*
X0387630Y0014000D01*
X0387483Y0014012D01*
X0387336Y0014028D01*
X0387189Y0014048D01*
X0387043Y0014072D01*
X0386897Y0014099D01*
X0386753Y0014131D01*
X0386609Y0014166D01*
X0386466Y0014206D01*
X0386325Y0014249D01*
X0386184Y0014296D01*
X0386045Y0014346D01*
X0385908Y0014401D01*
X0385772Y0014459D01*
X0385637Y0014520D01*
X0385504Y0014585D01*
X0385373Y0014654D01*
X0385244Y0014726D01*
X0385117Y0014802D01*
X0384992Y0014881D01*
X0384869Y0014964D01*
X0384748Y0015049D01*
X0384630Y0015138D01*
X0384514Y0015230D01*
X0384401Y0015326D01*
X0384290Y0015424D01*
X0384182Y0015525D01*
X0384076Y0015629D01*
X0383974Y0015735D01*
X0383874Y0015845D01*
X0383778Y0015957D01*
X0383684Y0016072D01*
X0383593Y0016189D01*
X0383506Y0016308D01*
X0383422Y0016430D01*
X0383341Y0016554D01*
X0383264Y0016680D01*
X0383190Y0016808D01*
X0383119Y0016938D01*
X0383052Y0017070D01*
X0382989Y0017204D01*
X0382929Y0017339D01*
X0382873Y0017476D01*
X0382820Y0017615D01*
X0382772Y0017755D01*
X0382727Y0017896D01*
X0382686Y0018038D01*
X0382648Y0018181D01*
X0382615Y0018325D01*
X0382585Y0018470D01*
X0382559Y0018616D01*
X0382538Y0018762D01*
X0382520Y0018909D01*
X0382506Y0019056D01*
X0382496Y0019204D01*
X0382490Y0019352D01*
X0382488Y0019500D01*
D11*
X0200835Y0143752D03*
X0200835Y0146902D03*
X0200835Y0150051D03*
X0200835Y0153201D03*
X0200835Y0156350D03*
X0200835Y0159500D03*
X0200835Y0162650D03*
X0200835Y0165799D03*
X0200835Y0168949D03*
X0200835Y0172098D03*
X0200835Y0175248D03*
X0155165Y0175248D03*
X0155165Y0172098D03*
X0155165Y0168949D03*
X0155165Y0165799D03*
X0155165Y0162650D03*
X0155165Y0159500D03*
X0155165Y0156350D03*
X0155165Y0153201D03*
X0155165Y0150051D03*
X0155165Y0146902D03*
X0155165Y0143752D03*
D12*
X0162252Y0136665D03*
X0165402Y0136665D03*
X0168551Y0136665D03*
X0171701Y0136665D03*
X0174850Y0136665D03*
X0178000Y0136665D03*
X0181150Y0136665D03*
X0184299Y0136665D03*
X0187449Y0136665D03*
X0190598Y0136665D03*
X0193748Y0136665D03*
X0193748Y0182335D03*
X0190598Y0182335D03*
X0187449Y0182335D03*
X0184299Y0182335D03*
X0181150Y0182335D03*
X0178000Y0182335D03*
X0174850Y0182335D03*
X0171701Y0182335D03*
X0168551Y0182335D03*
X0165402Y0182335D03*
X0162252Y0182335D03*
D13*
X0212488Y0164500D03*
X0223512Y0164500D03*
X0188512Y0119500D03*
X0177488Y0119500D03*
D14*
X0133000Y0153988D03*
X0133000Y0165012D03*
X0138000Y0178988D03*
X0138000Y0190012D03*
X0138000Y0203988D03*
X0138000Y0215012D03*
X0183000Y0215012D03*
X0183000Y0203988D03*
X0083000Y0208988D03*
X0083000Y0220012D03*
X0083000Y0195012D03*
X0083000Y0183988D03*
X0083000Y0170012D03*
X0083000Y0158988D03*
X0083000Y0145012D03*
X0083000Y0133988D03*
X0083000Y0120012D03*
X0083000Y0108988D03*
X0083000Y0095012D03*
X0083000Y0083988D03*
X0083000Y0070012D03*
X0083000Y0058988D03*
D15*
X0063000Y0058902D03*
X0063000Y0070098D03*
X0063000Y0083902D03*
X0063000Y0095098D03*
X0063000Y0108902D03*
X0063000Y0120098D03*
X0063000Y0133902D03*
X0063000Y0145098D03*
X0063000Y0158902D03*
X0063000Y0170098D03*
X0063000Y0183902D03*
X0063000Y0195098D03*
X0063000Y0208902D03*
X0063000Y0220098D03*
X0118000Y0215098D03*
X0118000Y0203902D03*
X0118000Y0190098D03*
X0118000Y0178902D03*
X0173000Y0203902D03*
X0173000Y0215098D03*
X0148000Y0233902D03*
X0138000Y0233902D03*
X0138000Y0245098D03*
X0148000Y0245098D03*
X0148000Y0263902D03*
X0138000Y0263902D03*
X0138000Y0275098D03*
X0148000Y0275098D03*
X0148000Y0293902D03*
X0138000Y0293902D03*
X0138000Y0305098D03*
X0148000Y0305098D03*
X0268000Y0295098D03*
X0278000Y0295098D03*
X0278000Y0283902D03*
X0268000Y0283902D03*
X0268000Y0265098D03*
X0278000Y0265098D03*
X0278000Y0253902D03*
X0268000Y0253902D03*
X0268000Y0235098D03*
X0278000Y0235098D03*
X0278000Y0223902D03*
X0268000Y0223902D03*
X0268000Y0205098D03*
X0278000Y0205098D03*
X0278000Y0193902D03*
X0268000Y0193902D03*
X0268000Y0175098D03*
X0278000Y0175098D03*
X0278000Y0163902D03*
X0268000Y0163902D03*
X0268000Y0145098D03*
X0278000Y0145098D03*
X0278000Y0133902D03*
X0268000Y0133902D03*
X0268000Y0115098D03*
X0278000Y0115098D03*
X0278000Y0103902D03*
X0268000Y0103902D03*
X0268000Y0085098D03*
X0278000Y0085098D03*
X0278000Y0073902D03*
X0268000Y0073902D03*
X0268000Y0055098D03*
X0278000Y0055098D03*
X0278000Y0043902D03*
X0268000Y0043902D03*
X0148000Y0058902D03*
X0148000Y0070098D03*
D16*
X0145400Y0044500D02*
X0150600Y0044500D01*
X0150600Y0034500D02*
X0145400Y0034500D01*
X0175400Y0034500D02*
X0180600Y0034500D01*
X0180600Y0044500D02*
X0175400Y0044500D01*
X0310400Y0044500D02*
X0315600Y0044500D01*
X0315600Y0054500D02*
X0310400Y0054500D01*
X0310400Y0074500D02*
X0315600Y0074500D01*
X0315600Y0084500D02*
X0310400Y0084500D01*
X0310400Y0104500D02*
X0315600Y0104500D01*
X0315600Y0114500D02*
X0310400Y0114500D01*
X0310400Y0134500D02*
X0315600Y0134500D01*
X0315600Y0144500D02*
X0310400Y0144500D01*
X0310400Y0164500D02*
X0315600Y0164500D01*
X0315600Y0174500D02*
X0310400Y0174500D01*
X0310400Y0194500D02*
X0315600Y0194500D01*
X0315600Y0204500D02*
X0310400Y0204500D01*
X0310400Y0224500D02*
X0315600Y0224500D01*
X0315600Y0234500D02*
X0310400Y0234500D01*
X0310400Y0254500D02*
X0315600Y0254500D01*
X0315600Y0264500D02*
X0310400Y0264500D01*
X0310400Y0284500D02*
X0315600Y0284500D01*
X0315600Y0294500D02*
X0310400Y0294500D01*
X0340400Y0294500D02*
X0345600Y0294500D01*
X0345600Y0284500D02*
X0340400Y0284500D01*
X0340400Y0264500D02*
X0345600Y0264500D01*
X0345600Y0254500D02*
X0340400Y0254500D01*
X0340400Y0234500D02*
X0345600Y0234500D01*
X0345600Y0224500D02*
X0340400Y0224500D01*
X0340400Y0204500D02*
X0345600Y0204500D01*
X0345600Y0194500D02*
X0340400Y0194500D01*
X0340400Y0174500D02*
X0345600Y0174500D01*
X0345600Y0164500D02*
X0340400Y0164500D01*
X0340400Y0144500D02*
X0345600Y0144500D01*
X0345600Y0134500D02*
X0340400Y0134500D01*
X0340400Y0114500D02*
X0345600Y0114500D01*
X0345600Y0104500D02*
X0340400Y0104500D01*
X0340400Y0084500D02*
X0345600Y0084500D01*
X0345600Y0074500D02*
X0340400Y0074500D01*
X0340400Y0054500D02*
X0345600Y0054500D01*
X0345600Y0044500D02*
X0340400Y0044500D01*
X0105600Y0234500D02*
X0100400Y0234500D01*
X0100400Y0244500D02*
X0105600Y0244500D01*
X0105600Y0264500D02*
X0100400Y0264500D01*
X0100400Y0274500D02*
X0105600Y0274500D01*
X0105600Y0294500D02*
X0100400Y0294500D01*
X0100400Y0304500D02*
X0105600Y0304500D01*
X0075600Y0304500D02*
X0070400Y0304500D01*
X0070400Y0294500D02*
X0075600Y0294500D01*
X0075600Y0274500D02*
X0070400Y0274500D01*
X0070400Y0264500D02*
X0075600Y0264500D01*
X0075600Y0244500D02*
X0070400Y0244500D01*
X0070400Y0234500D02*
X0075600Y0234500D01*
D17*
X0058598Y0244500D03*
X0047402Y0244500D03*
X0047402Y0274500D03*
X0058598Y0274500D03*
X0058598Y0299500D03*
X0047402Y0299500D03*
X0117402Y0294500D03*
X0128598Y0294500D03*
X0128598Y0304500D03*
X0117402Y0304500D03*
X0117402Y0274500D03*
X0117402Y0264500D03*
X0128598Y0264500D03*
X0128598Y0274500D03*
X0157402Y0274500D03*
X0168598Y0274500D03*
X0168598Y0244500D03*
X0157402Y0244500D03*
X0128598Y0244500D03*
X0128598Y0234500D03*
X0117402Y0234500D03*
X0117402Y0244500D03*
X0157402Y0304500D03*
X0168598Y0304500D03*
X0247402Y0284500D03*
X0258598Y0284500D03*
X0287402Y0284500D03*
X0298598Y0284500D03*
X0298598Y0294500D03*
X0287402Y0294500D03*
X0287402Y0264500D03*
X0298598Y0264500D03*
X0298598Y0254500D03*
X0287402Y0254500D03*
X0287402Y0234500D03*
X0298598Y0234500D03*
X0298598Y0224500D03*
X0287402Y0224500D03*
X0287402Y0204500D03*
X0298598Y0204500D03*
X0298598Y0194500D03*
X0287402Y0194500D03*
X0287402Y0174500D03*
X0298598Y0174500D03*
X0298598Y0164500D03*
X0287402Y0164500D03*
X0287402Y0144500D03*
X0298598Y0144500D03*
X0298598Y0134500D03*
X0287402Y0134500D03*
X0287402Y0114500D03*
X0298598Y0114500D03*
X0298598Y0104500D03*
X0287402Y0104500D03*
X0287402Y0084500D03*
X0298598Y0084500D03*
X0298598Y0074500D03*
X0287402Y0074500D03*
X0287402Y0054500D03*
X0298598Y0054500D03*
X0298598Y0044500D03*
X0287402Y0044500D03*
X0258598Y0044500D03*
X0247402Y0044500D03*
X0247402Y0074500D03*
X0258598Y0074500D03*
X0258598Y0104500D03*
X0247402Y0104500D03*
X0247402Y0134500D03*
X0258598Y0134500D03*
X0258598Y0164500D03*
X0247402Y0164500D03*
X0247402Y0194500D03*
X0258598Y0194500D03*
X0258598Y0224500D03*
X0247402Y0224500D03*
X0247402Y0254500D03*
X0258598Y0254500D03*
X0357402Y0254500D03*
X0368598Y0254500D03*
X0368598Y0234500D03*
X0357402Y0234500D03*
X0357402Y0214500D03*
X0368598Y0214500D03*
X0368598Y0194500D03*
X0357402Y0194500D03*
X0357402Y0164500D03*
X0368598Y0164500D03*
X0368598Y0134500D03*
X0357402Y0134500D03*
X0357402Y0104500D03*
X0368598Y0104500D03*
X0368598Y0074500D03*
X0357402Y0074500D03*
X0357402Y0044500D03*
X0368598Y0044500D03*
D18*
X0258000Y0017500D02*
X0258000Y0011500D01*
X0248000Y0011500D02*
X0248000Y0017500D01*
X0238000Y0017500D02*
X0238000Y0011500D01*
X0228000Y0011500D02*
X0228000Y0017500D01*
X0218000Y0017500D02*
X0218000Y0011500D01*
X0208000Y0011500D02*
X0208000Y0017500D01*
X0198000Y0017500D02*
X0198000Y0011500D01*
X0188000Y0011500D02*
X0188000Y0017500D01*
X0178000Y0017500D02*
X0178000Y0011500D01*
X0168000Y0011500D02*
X0168000Y0017500D01*
X0158000Y0017500D02*
X0158000Y0011500D01*
X0148000Y0011500D02*
X0148000Y0017500D01*
X0138000Y0017500D02*
X0138000Y0011500D01*
X0128000Y0011500D02*
X0128000Y0017500D01*
X0118000Y0017500D02*
X0118000Y0011500D01*
X0108000Y0011500D02*
X0108000Y0017500D01*
X0098000Y0017500D02*
X0098000Y0011500D01*
X0088000Y0011500D02*
X0088000Y0017500D01*
X0078000Y0017500D02*
X0078000Y0011500D01*
X0068000Y0011500D02*
X0068000Y0017500D01*
X0205000Y0254500D02*
X0211000Y0254500D01*
X0211000Y0264500D02*
X0205000Y0264500D01*
X0205000Y0274500D02*
X0211000Y0274500D01*
X0211000Y0284500D02*
X0205000Y0284500D01*
X0205000Y0294500D02*
X0211000Y0294500D01*
X0211000Y0304500D02*
X0205000Y0304500D01*
D19*
X0203000Y0039500D03*
X0213000Y0039500D03*
X0223000Y0039500D03*
X0098000Y0039500D03*
X0088000Y0039500D03*
X0078000Y0039500D03*
D20*
X0048000Y0060169D03*
X0048000Y0068831D03*
X0048000Y0085169D03*
X0048000Y0093831D03*
X0048000Y0110169D03*
X0048000Y0118831D03*
X0048000Y0135169D03*
X0048000Y0143831D03*
X0048000Y0160169D03*
X0048000Y0168831D03*
X0048000Y0185169D03*
X0048000Y0193831D03*
X0048000Y0215169D03*
X0048000Y0223831D03*
X0098000Y0213831D03*
X0098000Y0205169D03*
X0098000Y0188831D03*
X0098000Y0180169D03*
D21*
X0144464Y0133036D03*
X0151536Y0125964D03*
D22*
G36*
X0155495Y0124788D02*
X0158556Y0121727D01*
X0155773Y0118944D01*
X0152712Y0122005D01*
X0155495Y0124788D01*
G37*
G36*
X0160227Y0120056D02*
X0163288Y0116995D01*
X0160505Y0114212D01*
X0157444Y0117273D01*
X0160227Y0120056D01*
G37*
G36*
X0140505Y0134212D02*
X0137444Y0137273D01*
X0140227Y0140056D01*
X0143288Y0136995D01*
X0140505Y0134212D01*
G37*
G36*
X0135773Y0138944D02*
X0132712Y0142005D01*
X0135495Y0144788D01*
X0138556Y0141727D01*
X0135773Y0138944D01*
G37*
D23*
X0025969Y0134500D02*
X0020031Y0134500D01*
X0020031Y0124500D02*
X0025969Y0124500D01*
X0025969Y0114500D02*
X0020031Y0114500D01*
X0020031Y0104500D02*
X0025969Y0104500D01*
X0025969Y0094500D02*
X0020031Y0094500D01*
X0020031Y0084500D02*
X0025969Y0084500D01*
X0025969Y0069500D02*
X0020031Y0069500D01*
X0020031Y0059500D02*
X0025969Y0059500D01*
X0025969Y0049500D02*
X0020031Y0049500D01*
X0020031Y0039500D02*
X0025969Y0039500D01*
X0025969Y0144500D02*
X0020031Y0144500D01*
X0020031Y0154500D02*
X0025969Y0154500D01*
X0025969Y0164500D02*
X0020031Y0164500D01*
X0020031Y0174500D02*
X0025969Y0174500D01*
X0025969Y0194500D02*
X0020031Y0194500D01*
X0020031Y0204500D02*
X0025969Y0204500D01*
X0025969Y0214500D02*
X0020031Y0214500D01*
X0020031Y0224500D02*
X0025969Y0224500D01*
X0025969Y0234500D02*
X0020031Y0234500D01*
X0020031Y0244500D02*
X0025969Y0244500D01*
X0025969Y0254500D02*
X0020031Y0254500D01*
X0020031Y0264500D02*
X0025969Y0264500D01*
X0025969Y0274500D02*
X0020031Y0274500D01*
X0020031Y0284500D02*
X0025969Y0284500D01*
X0385031Y0279500D02*
X0390969Y0279500D01*
X0390969Y0269500D02*
X0385031Y0269500D01*
X0385031Y0259500D02*
X0390969Y0259500D01*
X0390969Y0249500D02*
X0385031Y0249500D01*
X0385031Y0239500D02*
X0390969Y0239500D01*
X0390969Y0229500D02*
X0385031Y0229500D01*
X0385031Y0219500D02*
X0390969Y0219500D01*
X0390969Y0209500D02*
X0385031Y0209500D01*
X0385031Y0199500D02*
X0390969Y0199500D01*
X0390969Y0189500D02*
X0385031Y0189500D01*
X0385031Y0134500D02*
X0390969Y0134500D01*
X0390969Y0124500D02*
X0385031Y0124500D01*
X0385031Y0114500D02*
X0390969Y0114500D01*
X0390969Y0104500D02*
X0385031Y0104500D01*
X0385031Y0094500D02*
X0390969Y0094500D01*
X0390969Y0084500D02*
X0385031Y0084500D01*
X0385031Y0074500D02*
X0390969Y0074500D01*
X0390969Y0064500D02*
X0385031Y0064500D01*
X0385031Y0054500D02*
X0390969Y0054500D01*
X0390969Y0044500D02*
X0385031Y0044500D01*
D24*
X0388000Y0044500D02*
X0368598Y0044500D01*
X0357402Y0044500D02*
X0343000Y0044500D01*
X0343000Y0054500D02*
X0388000Y0054500D01*
X0388000Y0064500D02*
X0378000Y0074500D01*
X0368598Y0074500D01*
X0357402Y0074500D02*
X0343000Y0074500D01*
X0343000Y0084500D02*
X0378000Y0084500D01*
X0388000Y0074500D01*
X0388000Y0084500D02*
X0380500Y0092000D01*
X0380500Y0093250D01*
X0369250Y0104500D01*
X0368598Y0104500D01*
X0368000Y0114500D02*
X0388000Y0094500D01*
X0388000Y0104500D02*
X0369250Y0123250D01*
X0369250Y0134500D01*
X0368598Y0134500D01*
X0369250Y0143250D02*
X0388000Y0124500D01*
X0368000Y0114500D02*
X0343000Y0114500D01*
X0343000Y0104500D02*
X0357402Y0104500D01*
X0357402Y0134500D02*
X0343000Y0134500D01*
X0369250Y0143250D02*
X0369250Y0164500D01*
X0368598Y0164500D01*
X0357402Y0164500D02*
X0343000Y0164500D01*
X0313000Y0164500D02*
X0298598Y0164500D01*
X0293000Y0170750D02*
X0291750Y0169500D01*
X0253000Y0169500D01*
X0248000Y0164500D01*
X0247402Y0164500D01*
X0235500Y0164500D01*
X0230500Y0159500D01*
X0230500Y0157000D01*
X0246750Y0140750D01*
X0251750Y0140750D01*
X0246750Y0140750D02*
X0246750Y0134500D01*
X0247402Y0134500D01*
X0248000Y0124500D02*
X0288000Y0124500D01*
X0298000Y0134500D01*
X0298598Y0134500D01*
X0313000Y0134500D01*
X0313000Y0144500D02*
X0298598Y0144500D01*
X0287402Y0144500D02*
X0278000Y0144500D01*
X0278000Y0145098D01*
X0278000Y0145750D01*
X0268000Y0145750D01*
X0268000Y0145098D01*
X0268000Y0145750D02*
X0255500Y0158250D01*
X0234250Y0158250D01*
X0224250Y0164500D02*
X0224250Y0148250D01*
X0248000Y0124500D01*
X0253000Y0115750D02*
X0268000Y0115750D01*
X0268000Y0115098D01*
X0268000Y0115750D02*
X0278000Y0115750D01*
X0278000Y0115098D01*
X0278000Y0114500D01*
X0287402Y0114500D01*
X0298598Y0114500D02*
X0313000Y0114500D01*
X0313000Y0104500D02*
X0298598Y0104500D01*
X0287402Y0104500D02*
X0278000Y0104500D01*
X0278000Y0103902D01*
X0278000Y0104500D02*
X0268000Y0104500D01*
X0268000Y0103902D01*
X0268000Y0104500D02*
X0258598Y0104500D01*
X0253000Y0100750D02*
X0253000Y0109500D01*
X0230500Y0132000D01*
X0228000Y0132000D01*
X0210500Y0149500D01*
X0201750Y0149500D01*
X0200835Y0150051D01*
X0200835Y0146902D02*
X0201750Y0147000D01*
X0209250Y0147000D01*
X0228000Y0128250D01*
X0229250Y0128250D01*
X0229250Y0134500D02*
X0234250Y0134500D01*
X0253000Y0115750D01*
X0243000Y0110750D02*
X0241750Y0110750D01*
X0209250Y0143250D01*
X0201750Y0143250D01*
X0200835Y0143752D01*
X0203000Y0135750D02*
X0213000Y0135750D01*
X0241750Y0107000D01*
X0241750Y0100750D01*
X0256750Y0085750D01*
X0268000Y0085750D01*
X0268000Y0085098D01*
X0268000Y0085750D02*
X0278000Y0085750D01*
X0278000Y0085098D01*
X0278000Y0084500D01*
X0287402Y0084500D01*
X0291750Y0079500D02*
X0293000Y0080750D01*
X0293000Y0088250D01*
X0290500Y0090750D01*
X0259250Y0090750D01*
X0253000Y0097000D01*
X0251750Y0097000D01*
X0253000Y0097000D02*
X0248000Y0102000D01*
X0248000Y0104500D01*
X0247402Y0104500D01*
X0253000Y0100750D02*
X0260500Y0093250D01*
X0313000Y0093250D01*
X0320500Y0085750D01*
X0320500Y0043250D01*
X0310500Y0033250D01*
X0189250Y0033250D01*
X0183000Y0039500D01*
X0141750Y0039500D01*
X0148000Y0034500D02*
X0148000Y0022000D01*
X0210500Y0022000D01*
X0218000Y0014500D01*
X0196750Y0025750D02*
X0193000Y0025750D01*
X0184250Y0034500D01*
X0178000Y0034500D01*
X0178000Y0044500D02*
X0181750Y0044500D01*
X0190500Y0035750D01*
X0204250Y0035750D01*
X0208000Y0039500D01*
X0213000Y0039500D01*
X0223000Y0039500D02*
X0263000Y0039500D01*
X0264250Y0038250D01*
X0291750Y0038250D01*
X0298000Y0044500D01*
X0298598Y0044500D01*
X0313000Y0044500D01*
X0313000Y0054500D02*
X0298598Y0054500D01*
X0287402Y0054500D02*
X0278000Y0054500D01*
X0278000Y0055098D01*
X0278000Y0055750D01*
X0268000Y0055750D01*
X0268000Y0055098D01*
X0268000Y0055750D02*
X0256750Y0055750D01*
X0234250Y0078250D01*
X0233000Y0082000D02*
X0239250Y0082000D01*
X0241750Y0079500D01*
X0291750Y0079500D01*
X0287402Y0074500D02*
X0278000Y0074500D01*
X0278000Y0073902D01*
X0278000Y0074500D02*
X0268000Y0074500D01*
X0268000Y0073902D01*
X0268000Y0074500D02*
X0258598Y0074500D01*
X0247402Y0074500D02*
X0246750Y0074500D01*
X0241750Y0079500D01*
X0233000Y0082000D02*
X0230500Y0079500D01*
X0230500Y0077000D01*
X0246750Y0060750D01*
X0246750Y0044500D01*
X0247402Y0044500D01*
X0258598Y0044500D02*
X0268000Y0044500D01*
X0268000Y0043902D01*
X0268000Y0044500D02*
X0278000Y0044500D01*
X0278000Y0043902D01*
X0278000Y0044500D02*
X0287402Y0044500D01*
X0298598Y0074500D02*
X0313000Y0074500D01*
X0313000Y0084500D02*
X0298598Y0084500D01*
X0287402Y0134500D02*
X0278000Y0134500D01*
X0278000Y0133902D01*
X0278000Y0134500D02*
X0268000Y0134500D01*
X0268000Y0133902D01*
X0268000Y0134500D02*
X0258598Y0134500D01*
X0229250Y0134500D02*
X0204250Y0159500D01*
X0200835Y0159500D01*
X0200835Y0156350D02*
X0200500Y0155750D01*
X0195500Y0155750D01*
X0190500Y0150750D01*
X0190500Y0148250D01*
X0203000Y0135750D01*
X0194250Y0135750D02*
X0193748Y0136665D01*
X0194250Y0135750D02*
X0194250Y0124500D01*
X0188512Y0119500D02*
X0188000Y0119500D01*
X0178000Y0109500D01*
X0185500Y0105750D02*
X0136750Y0105750D01*
X0088000Y0154500D01*
X0088000Y0174500D01*
X0086750Y0175750D01*
X0049250Y0175750D01*
X0045500Y0172000D01*
X0045500Y0165750D01*
X0048000Y0163250D01*
X0048000Y0160169D01*
X0048000Y0149500D01*
X0023000Y0124500D01*
X0018000Y0119500D02*
X0015500Y0117000D01*
X0015500Y0112000D01*
X0023000Y0104500D01*
X0033000Y0114500D01*
X0086750Y0114500D01*
X0114250Y0087000D01*
X0175500Y0087000D01*
X0185500Y0097000D01*
X0185500Y0100750D02*
X0155500Y0100750D01*
X0163000Y0119500D02*
X0163000Y0119507D01*
X0163000Y0119500D02*
X0177488Y0119500D01*
X0178000Y0119500D01*
X0178000Y0136665D01*
X0174850Y0136665D02*
X0174250Y0135750D01*
X0174250Y0127000D01*
X0170500Y0127000D02*
X0170500Y0124500D01*
X0168000Y0122000D01*
X0164250Y0122000D01*
X0159250Y0127000D01*
X0155500Y0122000D02*
X0155634Y0121866D01*
X0155500Y0122000D02*
X0151750Y0125750D01*
X0151536Y0125964D01*
X0151750Y0125750D02*
X0161750Y0135750D01*
X0162252Y0136665D01*
X0165402Y0136665D02*
X0165500Y0135750D01*
X0165500Y0127000D01*
X0166750Y0125750D01*
X0169250Y0128250D02*
X0170500Y0127000D01*
X0169250Y0128250D02*
X0169250Y0135750D01*
X0168551Y0136665D01*
X0171701Y0136665D02*
X0171750Y0137000D01*
X0171750Y0139500D01*
X0168000Y0143250D01*
X0166750Y0143250D01*
X0161750Y0147000D02*
X0183000Y0147000D01*
X0190500Y0139500D01*
X0190500Y0137000D01*
X0190598Y0136665D01*
X0188000Y0135750D02*
X0188000Y0132000D01*
X0190500Y0129500D01*
X0185500Y0127000D02*
X0184250Y0128250D01*
X0184250Y0135750D01*
X0184299Y0136665D01*
X0181750Y0135750D02*
X0181150Y0136665D01*
X0181750Y0135750D02*
X0181750Y0125750D01*
X0188000Y0119500D01*
X0185500Y0105750D02*
X0211750Y0132000D01*
X0211750Y0127000D02*
X0185500Y0100750D01*
X0190500Y0097000D02*
X0178000Y0084500D01*
X0106750Y0084500D01*
X0083000Y0108250D01*
X0083000Y0108988D01*
X0083000Y0109500D01*
X0063000Y0109500D01*
X0063000Y0108902D01*
X0063000Y0109500D02*
X0048000Y0109500D01*
X0048000Y0110169D01*
X0048000Y0109500D02*
X0023000Y0084500D01*
X0023000Y0069500D02*
X0048000Y0094500D01*
X0048000Y0093831D01*
X0048000Y0094500D02*
X0063000Y0094500D01*
X0063000Y0095098D01*
X0063000Y0095750D01*
X0083000Y0095750D01*
X0083000Y0095012D01*
X0083000Y0084500D02*
X0083000Y0083988D01*
X0083000Y0084500D02*
X0063000Y0084500D01*
X0063000Y0083902D01*
X0063000Y0084500D02*
X0048000Y0084500D01*
X0048000Y0085169D01*
X0048000Y0084500D02*
X0023000Y0059500D01*
X0023000Y0049500D02*
X0029250Y0049500D01*
X0048000Y0068250D01*
X0048000Y0068831D01*
X0048000Y0069500D01*
X0063000Y0069500D01*
X0063000Y0070098D01*
X0063000Y0070750D01*
X0083000Y0070750D01*
X0083000Y0070012D01*
X0083000Y0059500D02*
X0083000Y0058988D01*
X0083000Y0059500D02*
X0063000Y0059500D01*
X0063000Y0058902D01*
X0063000Y0059500D02*
X0048000Y0059500D01*
X0048000Y0060169D01*
X0048000Y0059500D02*
X0028000Y0039500D01*
X0023000Y0039500D01*
X0068000Y0014500D02*
X0078000Y0024500D01*
X0098000Y0024500D01*
X0108000Y0014500D01*
X0115500Y0022000D01*
X0120500Y0022000D01*
X0128000Y0014500D01*
X0138000Y0014500D01*
X0148000Y0014500D01*
X0158000Y0014500D01*
X0148000Y0014500D02*
X0148000Y0022000D01*
X0148000Y0044500D02*
X0148000Y0058902D01*
X0159250Y0059500D02*
X0170500Y0048250D01*
X0188000Y0043250D02*
X0163000Y0068250D01*
X0170500Y0073250D02*
X0150500Y0073250D01*
X0148000Y0070750D01*
X0148000Y0070098D01*
X0171750Y0077000D02*
X0115500Y0077000D01*
X0078000Y0039500D01*
X0098000Y0039500D02*
X0098000Y0024500D01*
X0083000Y0059500D02*
X0103000Y0079500D01*
X0178000Y0079500D01*
X0185500Y0087000D01*
X0171750Y0077000D02*
X0203000Y0045750D01*
X0203000Y0039500D01*
X0118000Y0120750D02*
X0106750Y0120750D01*
X0083000Y0144500D01*
X0083000Y0145012D01*
X0083000Y0145750D01*
X0063000Y0145750D01*
X0063000Y0145098D01*
X0063000Y0144500D01*
X0055500Y0144500D01*
X0055500Y0169500D01*
X0048000Y0169500D01*
X0048000Y0168831D01*
X0043000Y0164500D02*
X0043000Y0173250D01*
X0048000Y0178250D01*
X0096750Y0178250D01*
X0098000Y0179500D01*
X0098000Y0180169D01*
X0098000Y0179500D02*
X0118000Y0179500D01*
X0118000Y0178902D01*
X0118000Y0179500D02*
X0138000Y0179500D01*
X0138000Y0178988D01*
X0138000Y0178250D01*
X0149250Y0178250D01*
X0154250Y0175750D02*
X0155165Y0175248D01*
X0154250Y0175750D02*
X0154250Y0227000D01*
X0148000Y0233250D01*
X0148000Y0233902D01*
X0148000Y0234500D01*
X0138000Y0234500D01*
X0138000Y0233902D01*
X0138000Y0234500D02*
X0128598Y0234500D01*
X0128598Y0244500D02*
X0138000Y0244500D01*
X0138000Y0245098D01*
X0138000Y0245750D01*
X0148000Y0245750D01*
X0148000Y0245098D01*
X0148000Y0244500D01*
X0157402Y0244500D01*
X0163000Y0248250D02*
X0148000Y0263250D01*
X0148000Y0263902D01*
X0148000Y0264500D01*
X0138000Y0264500D01*
X0138000Y0263902D01*
X0138000Y0264500D02*
X0128598Y0264500D01*
X0124250Y0269500D02*
X0168000Y0269500D01*
X0168000Y0244500D01*
X0168598Y0244500D01*
X0163000Y0248250D02*
X0163000Y0204500D01*
X0171750Y0195750D01*
X0171750Y0183250D01*
X0171701Y0182335D01*
X0169250Y0182000D02*
X0168551Y0182335D01*
X0169250Y0182000D02*
X0169250Y0172000D01*
X0170500Y0170750D01*
X0175500Y0170750D02*
X0175500Y0172000D01*
X0175500Y0170750D02*
X0164250Y0159500D01*
X0155165Y0159500D01*
X0138000Y0159500D01*
X0133000Y0164500D01*
X0133000Y0165012D01*
X0134250Y0155750D02*
X0133000Y0154500D01*
X0133000Y0153988D01*
X0133000Y0144500D01*
X0132660Y0144500D01*
X0141750Y0152000D02*
X0143000Y0153250D01*
X0154250Y0153250D01*
X0155165Y0153201D01*
X0155500Y0150750D02*
X0155165Y0150051D01*
X0155500Y0150750D02*
X0174250Y0150750D01*
X0194250Y0170750D01*
X0200500Y0174500D02*
X0200835Y0175248D01*
X0200500Y0174500D02*
X0186750Y0174500D01*
X0189250Y0177000D02*
X0188000Y0178250D01*
X0188000Y0182000D01*
X0187449Y0182335D01*
X0190598Y0182335D02*
X0190500Y0183250D01*
X0190500Y0185750D01*
X0239250Y0234500D01*
X0268000Y0234500D01*
X0268000Y0235098D01*
X0268000Y0235750D01*
X0278000Y0235750D01*
X0278000Y0235098D01*
X0278000Y0234500D01*
X0287402Y0234500D01*
X0293000Y0238250D02*
X0293000Y0208250D01*
X0293000Y0178250D01*
X0293000Y0170750D01*
X0287402Y0174500D02*
X0278000Y0174500D01*
X0278000Y0175098D01*
X0278000Y0175750D01*
X0268000Y0175750D01*
X0268000Y0175098D01*
X0268000Y0174500D01*
X0216750Y0174500D01*
X0211750Y0169500D01*
X0201750Y0169500D01*
X0200835Y0168949D01*
X0200835Y0172098D02*
X0201750Y0172000D01*
X0205500Y0172000D01*
X0206750Y0173250D01*
X0204250Y0179500D02*
X0199250Y0179500D01*
X0196750Y0177000D01*
X0189250Y0177000D01*
X0193748Y0182335D02*
X0194250Y0183250D01*
X0226750Y0183250D01*
X0248000Y0204500D01*
X0268000Y0204500D01*
X0268000Y0205098D01*
X0268000Y0205750D01*
X0278000Y0205750D01*
X0278000Y0205098D01*
X0278000Y0204500D01*
X0287402Y0204500D01*
X0293000Y0208250D02*
X0290500Y0210750D01*
X0261750Y0210750D01*
X0248000Y0224500D01*
X0247402Y0224500D01*
X0258598Y0224500D02*
X0268000Y0224500D01*
X0268000Y0223902D01*
X0268000Y0224500D02*
X0278000Y0224500D01*
X0278000Y0223902D01*
X0278000Y0224500D02*
X0287402Y0224500D01*
X0298598Y0224500D02*
X0313000Y0224500D01*
X0313000Y0234500D02*
X0298598Y0234500D01*
X0293000Y0238250D02*
X0290500Y0240750D01*
X0261750Y0240750D01*
X0250500Y0252000D01*
X0247402Y0254500D01*
X0248000Y0254500D01*
X0250500Y0252000D01*
X0199250Y0200750D01*
X0196750Y0200750D01*
X0194250Y0203250D01*
X0194250Y0262000D01*
X0163000Y0293250D01*
X0163000Y0299500D01*
X0124250Y0299500D01*
X0123000Y0298250D01*
X0123000Y0270750D01*
X0124250Y0269500D01*
X0128598Y0274500D02*
X0138000Y0274500D01*
X0138000Y0275098D01*
X0138000Y0275750D01*
X0148000Y0275750D01*
X0148000Y0275098D01*
X0148000Y0274500D01*
X0157402Y0274500D01*
X0168000Y0274500D02*
X0168000Y0269500D01*
X0168000Y0274500D02*
X0168598Y0274500D01*
X0159250Y0293250D02*
X0191750Y0260750D01*
X0191750Y0203250D01*
X0184250Y0195750D01*
X0184250Y0183250D01*
X0184299Y0182335D01*
X0181750Y0183250D02*
X0181150Y0182335D01*
X0180500Y0182000D01*
X0180500Y0172000D01*
X0165500Y0157000D01*
X0155500Y0157000D01*
X0155165Y0156350D01*
X0154250Y0155750D01*
X0134250Y0155750D01*
X0145500Y0147000D02*
X0154250Y0147000D01*
X0155165Y0146902D01*
X0155165Y0143752D02*
X0154250Y0143250D01*
X0144250Y0133250D01*
X0144464Y0133036D01*
X0144250Y0133250D02*
X0140500Y0137000D01*
X0140366Y0137134D01*
X0149250Y0163250D02*
X0154250Y0163250D01*
X0155165Y0162650D01*
X0155500Y0165750D02*
X0155165Y0165799D01*
X0155500Y0165750D02*
X0161750Y0165750D01*
X0155165Y0168949D02*
X0154250Y0169500D01*
X0096750Y0169500D01*
X0095500Y0168250D01*
X0091750Y0172000D02*
X0154250Y0172000D01*
X0155165Y0172098D01*
X0162252Y0182335D02*
X0161750Y0183250D01*
X0161750Y0199500D01*
X0165500Y0195750D02*
X0165500Y0183250D01*
X0165402Y0182335D01*
X0174250Y0183250D02*
X0174850Y0182335D01*
X0174250Y0183250D02*
X0174250Y0202000D01*
X0173000Y0203250D01*
X0173000Y0203902D01*
X0173000Y0204500D01*
X0166750Y0210750D01*
X0173000Y0214500D02*
X0173000Y0215098D01*
X0173000Y0214500D02*
X0178000Y0209500D01*
X0183000Y0214500D01*
X0183000Y0215012D01*
X0183000Y0225750D01*
X0198000Y0234500D02*
X0241750Y0278250D01*
X0241750Y0288250D01*
X0248000Y0294500D01*
X0268000Y0294500D01*
X0268000Y0295098D01*
X0268000Y0295750D01*
X0278000Y0295750D01*
X0278000Y0295098D01*
X0278000Y0294500D01*
X0287402Y0294500D01*
X0298598Y0294500D02*
X0313000Y0294500D01*
X0313000Y0284500D02*
X0328000Y0269500D01*
X0313000Y0254500D01*
X0298598Y0254500D01*
X0287402Y0254500D02*
X0278000Y0254500D01*
X0278000Y0253902D01*
X0278000Y0254500D02*
X0268000Y0254500D01*
X0268000Y0253902D01*
X0268000Y0254500D02*
X0258598Y0254500D01*
X0248000Y0254500D02*
X0248000Y0284500D01*
X0247402Y0284500D01*
X0253000Y0279500D02*
X0268000Y0264500D01*
X0268000Y0265098D01*
X0268000Y0265750D01*
X0278000Y0265750D01*
X0278000Y0265098D01*
X0278000Y0264500D01*
X0287402Y0264500D01*
X0298598Y0264500D02*
X0313000Y0264500D01*
X0328000Y0269500D02*
X0388000Y0269500D01*
X0388000Y0279500D02*
X0366750Y0279500D01*
X0345500Y0300750D01*
X0214250Y0300750D01*
X0208000Y0294500D01*
X0208000Y0284500D02*
X0198000Y0284500D01*
X0171750Y0310750D01*
X0124250Y0310750D01*
X0118000Y0304500D01*
X0117402Y0304500D01*
X0103000Y0304500D01*
X0103000Y0294500D02*
X0117402Y0294500D01*
X0128598Y0294500D02*
X0138000Y0294500D01*
X0138000Y0293902D01*
X0138000Y0294500D02*
X0148000Y0294500D01*
X0148000Y0293902D01*
X0148000Y0293250D01*
X0159250Y0293250D01*
X0163000Y0299500D02*
X0168000Y0304500D01*
X0168598Y0304500D01*
X0157402Y0304500D02*
X0148000Y0304500D01*
X0148000Y0305098D01*
X0148000Y0305750D01*
X0138000Y0305750D01*
X0138000Y0305098D01*
X0138000Y0304500D01*
X0128598Y0304500D01*
X0117402Y0274500D02*
X0103000Y0274500D01*
X0103000Y0264500D02*
X0117402Y0264500D01*
X0117402Y0244500D02*
X0103000Y0244500D01*
X0085500Y0227000D01*
X0098000Y0214500D01*
X0098000Y0213831D01*
X0098000Y0214500D02*
X0118000Y0214500D01*
X0118000Y0215098D01*
X0118000Y0215750D01*
X0138000Y0215750D01*
X0138000Y0215012D01*
X0138000Y0204500D02*
X0138000Y0203988D01*
X0138000Y0204500D02*
X0118000Y0204500D01*
X0118000Y0203902D01*
X0118000Y0204500D02*
X0098000Y0204500D01*
X0098000Y0205169D01*
X0098000Y0204500D02*
X0068000Y0204500D01*
X0064250Y0200750D01*
X0029250Y0200750D01*
X0023000Y0194500D01*
X0041750Y0193250D02*
X0023000Y0174500D01*
X0023000Y0164500D02*
X0028000Y0164500D01*
X0048000Y0184500D01*
X0048000Y0185169D01*
X0048000Y0184500D02*
X0063000Y0184500D01*
X0063000Y0183902D01*
X0063000Y0184500D02*
X0083000Y0184500D01*
X0083000Y0183988D01*
X0083000Y0184500D02*
X0141750Y0184500D01*
X0143000Y0183250D01*
X0149250Y0183250D01*
X0138000Y0190012D02*
X0138000Y0190750D01*
X0118000Y0190750D01*
X0118000Y0190098D01*
X0118000Y0189500D01*
X0098000Y0189500D01*
X0098000Y0188831D01*
X0098000Y0189500D02*
X0093000Y0194500D01*
X0083000Y0194500D01*
X0083000Y0195012D01*
X0083000Y0195750D01*
X0063000Y0195750D01*
X0063000Y0195098D01*
X0063000Y0194500D01*
X0048000Y0194500D01*
X0048000Y0193831D01*
X0048000Y0193250D01*
X0041750Y0193250D01*
X0053000Y0209500D02*
X0048000Y0214500D01*
X0048000Y0215169D01*
X0048000Y0214500D02*
X0023000Y0214500D01*
X0023000Y0224500D02*
X0048000Y0224500D01*
X0048000Y0223831D01*
X0048000Y0223250D01*
X0050500Y0220750D01*
X0063000Y0220750D01*
X0063000Y0220098D01*
X0063000Y0220750D02*
X0079250Y0220750D01*
X0085500Y0227000D01*
X0083000Y0220750D02*
X0079250Y0220750D01*
X0083000Y0220750D02*
X0083000Y0220012D01*
X0083000Y0209500D02*
X0083000Y0208988D01*
X0083000Y0209500D02*
X0063000Y0209500D01*
X0063000Y0208902D01*
X0063000Y0209500D02*
X0053000Y0209500D01*
X0073000Y0234500D02*
X0023000Y0234500D01*
X0023000Y0244500D02*
X0047402Y0244500D01*
X0058598Y0244500D02*
X0073000Y0244500D01*
X0073000Y0264500D02*
X0033000Y0264500D01*
X0023000Y0254500D01*
X0023000Y0264500D02*
X0033000Y0274500D01*
X0047402Y0274500D01*
X0058598Y0274500D02*
X0073000Y0274500D01*
X0073000Y0294500D02*
X0043000Y0294500D01*
X0023000Y0274500D01*
X0023000Y0284500D02*
X0024250Y0284500D01*
X0039250Y0299500D01*
X0047402Y0299500D01*
X0058598Y0299500D02*
X0068000Y0299500D01*
X0073000Y0304500D01*
X0103000Y0234500D02*
X0117402Y0234500D01*
X0178000Y0209500D02*
X0178000Y0182335D01*
X0178000Y0173250D01*
X0175500Y0170750D01*
X0181750Y0183250D02*
X0181750Y0202000D01*
X0183000Y0203250D01*
X0183000Y0203988D01*
X0198000Y0204500D02*
X0198000Y0234500D01*
X0247402Y0194500D02*
X0248000Y0194500D01*
X0261750Y0180750D01*
X0290500Y0180750D01*
X0293000Y0178250D01*
X0298598Y0174500D02*
X0313000Y0174500D01*
X0313000Y0194500D02*
X0298598Y0194500D01*
X0287402Y0194500D02*
X0278000Y0194500D01*
X0278000Y0193902D01*
X0278000Y0194500D02*
X0268000Y0194500D01*
X0268000Y0193902D01*
X0268000Y0194500D02*
X0258598Y0194500D01*
X0258598Y0164500D02*
X0268000Y0164500D01*
X0268000Y0163902D01*
X0268000Y0164500D02*
X0278000Y0164500D01*
X0278000Y0163902D01*
X0278000Y0164500D02*
X0287402Y0164500D01*
X0298598Y0204500D02*
X0313000Y0204500D01*
X0343000Y0194500D02*
X0357402Y0194500D01*
X0368598Y0194500D02*
X0383000Y0194500D01*
X0388000Y0189500D01*
X0388000Y0209500D02*
X0383000Y0214500D01*
X0368598Y0214500D01*
X0357402Y0214500D02*
X0353000Y0214500D01*
X0343000Y0224500D01*
X0356750Y0234500D02*
X0357402Y0234500D01*
X0356750Y0234500D02*
X0356750Y0240750D01*
X0343000Y0254500D01*
X0356750Y0254500D02*
X0357402Y0254500D01*
X0356750Y0254500D02*
X0356750Y0265750D01*
X0368598Y0254500D02*
X0383000Y0254500D01*
X0388000Y0249500D01*
X0383000Y0234500D02*
X0368598Y0234500D01*
X0383000Y0234500D02*
X0388000Y0229500D01*
X0313000Y0284500D02*
X0298598Y0284500D01*
X0287402Y0284500D02*
X0278000Y0284500D01*
X0278000Y0283902D01*
X0278000Y0284500D02*
X0268000Y0284500D01*
X0268000Y0283902D01*
X0268000Y0284500D02*
X0258598Y0284500D01*
X0218000Y0170750D02*
X0211750Y0164500D01*
X0212488Y0164500D01*
X0208000Y0162000D02*
X0208000Y0159500D01*
X0209250Y0158250D01*
X0219250Y0158250D01*
X0223512Y0164500D02*
X0224250Y0164500D01*
X0208000Y0162000D02*
X0204250Y0165750D01*
X0201750Y0165750D01*
X0200835Y0165799D01*
X0200500Y0163250D02*
X0200835Y0162650D01*
X0200500Y0163250D02*
X0194250Y0163250D01*
X0198000Y0153250D02*
X0194250Y0149500D01*
X0198000Y0153250D02*
X0200500Y0153250D01*
X0200835Y0153201D01*
X0187449Y0136665D02*
X0188000Y0135750D01*
X0106750Y0120750D02*
X0083000Y0120750D01*
X0083000Y0120012D01*
X0083000Y0120750D02*
X0063000Y0120750D01*
X0063000Y0120098D01*
X0063000Y0119500D01*
X0048000Y0119500D01*
X0048000Y0118831D01*
X0048000Y0118250D01*
X0030500Y0118250D01*
X0026750Y0114500D01*
X0023000Y0114500D01*
X0018000Y0119500D02*
X0028000Y0119500D01*
X0043000Y0134500D01*
X0048000Y0134500D01*
X0048000Y0135169D01*
X0048000Y0134500D02*
X0063000Y0134500D01*
X0063000Y0133902D01*
X0063000Y0134500D02*
X0083000Y0134500D01*
X0083000Y0133988D01*
X0088000Y0154500D02*
X0083000Y0159500D01*
X0083000Y0158988D01*
X0083000Y0159500D02*
X0063000Y0159500D01*
X0063000Y0158902D01*
X0063000Y0169500D02*
X0055500Y0169500D01*
X0063000Y0169500D02*
X0063000Y0170098D01*
X0063000Y0170750D01*
X0083000Y0170750D01*
X0083000Y0170012D01*
X0055500Y0144500D02*
X0048000Y0144500D01*
X0048000Y0143831D01*
X0043000Y0164500D02*
X0023000Y0144500D01*
D25*
X0091750Y0172000D03*
X0095500Y0168250D03*
X0141750Y0152000D03*
X0145500Y0147000D03*
X0161750Y0147000D03*
X0166750Y0143250D03*
X0166750Y0125750D03*
X0159250Y0127000D03*
X0174250Y0127000D03*
X0185500Y0127000D03*
X0190500Y0129500D03*
X0194250Y0124500D03*
X0211750Y0127000D03*
X0211750Y0132000D03*
X0229250Y0128250D03*
X0251750Y0140750D03*
X0234250Y0158250D03*
X0219250Y0158250D03*
X0218000Y0170750D03*
X0206750Y0173250D03*
X0204250Y0179500D03*
X0194250Y0170750D03*
X0186750Y0174500D03*
X0175500Y0172000D03*
X0170500Y0170750D03*
X0161750Y0165750D03*
X0149250Y0163250D03*
X0149250Y0178250D03*
X0149250Y0183250D03*
X0165500Y0195750D03*
X0161750Y0199500D03*
X0166750Y0210750D03*
X0183000Y0225750D03*
X0198000Y0204500D03*
X0194250Y0163250D03*
X0194250Y0149500D03*
X0178000Y0109500D03*
X0185500Y0097000D03*
X0190500Y0097000D03*
X0185500Y0087000D03*
X0170500Y0073250D03*
X0163000Y0068250D03*
X0159250Y0059500D03*
X0170500Y0048250D03*
X0188000Y0043250D03*
X0196750Y0025750D03*
X0141750Y0039500D03*
X0155500Y0100750D03*
X0234250Y0078250D03*
X0251750Y0097000D03*
X0243000Y0110750D03*
X0356750Y0265750D03*
X0253000Y0279500D03*
D26*
X0161113Y0143800D02*
X0159937Y0144287D01*
X0159725Y0144500D01*
X0159518Y0144500D01*
X0159518Y0142188D01*
X0158698Y0141368D01*
X0155055Y0141368D01*
X0148187Y0134500D01*
X0148464Y0133831D01*
X0148464Y0132240D01*
X0147855Y0130770D01*
X0146730Y0129644D01*
X0145260Y0129036D01*
X0143669Y0129036D01*
X0142199Y0129644D01*
X0141073Y0130770D01*
X0140464Y0132240D01*
X0140464Y0132811D01*
X0139926Y0132811D01*
X0136043Y0136693D01*
X0136043Y0137152D01*
X0136010Y0137143D01*
X0135536Y0137143D01*
X0135078Y0137266D01*
X0134668Y0137503D01*
X0133099Y0139071D01*
X0135634Y0141606D01*
X0135373Y0141866D01*
X0132839Y0139332D01*
X0131270Y0140900D01*
X0131033Y0141311D01*
X0130911Y0141769D01*
X0130911Y0142242D01*
X0131033Y0142700D01*
X0131270Y0143111D01*
X0132660Y0144500D01*
X0118000Y0144500D01*
X0118000Y0127187D01*
X0137537Y0107650D01*
X0163000Y0107650D01*
X0163000Y0114160D01*
X0161611Y0112770D01*
X0161200Y0112533D01*
X0160742Y0112411D01*
X0160269Y0112411D01*
X0159811Y0112533D01*
X0159400Y0112770D01*
X0157832Y0114339D01*
X0160366Y0116873D01*
X0160106Y0117134D01*
X0157571Y0114599D01*
X0156003Y0116168D01*
X0155766Y0116578D01*
X0155643Y0117036D01*
X0155643Y0117510D01*
X0155652Y0117543D01*
X0155193Y0117543D01*
X0151311Y0121426D01*
X0151311Y0121964D01*
X0150740Y0121964D01*
X0149270Y0122573D01*
X0148144Y0123699D01*
X0147536Y0125169D01*
X0147536Y0126760D01*
X0148144Y0128230D01*
X0149270Y0129355D01*
X0150740Y0129964D01*
X0152331Y0129964D01*
X0153000Y0129687D01*
X0159868Y0136555D01*
X0159868Y0140198D01*
X0160688Y0141018D01*
X0163000Y0141018D01*
X0163000Y0144054D01*
X0162387Y0143800D01*
X0161113Y0143800D01*
X0159518Y0143570D02*
X0163000Y0143570D01*
X0163000Y0141972D02*
X0159302Y0141972D01*
X0160043Y0140373D02*
X0154060Y0140373D01*
X0152462Y0138775D02*
X0159868Y0138775D01*
X0159868Y0137176D02*
X0150863Y0137176D01*
X0149265Y0135578D02*
X0158891Y0135578D01*
X0157292Y0133979D02*
X0148403Y0133979D01*
X0148464Y0132381D02*
X0155694Y0132381D01*
X0154095Y0130782D02*
X0147861Y0130782D01*
X0149098Y0129184D02*
X0145618Y0129184D01*
X0143311Y0129184D02*
X0118000Y0129184D01*
X0118000Y0130782D02*
X0141068Y0130782D01*
X0140464Y0132381D02*
X0118000Y0132381D01*
X0118000Y0133979D02*
X0138757Y0133979D01*
X0137158Y0135578D02*
X0118000Y0135578D01*
X0118000Y0137176D02*
X0135412Y0137176D01*
X0133396Y0138775D02*
X0118000Y0138775D01*
X0118000Y0140373D02*
X0131797Y0140373D01*
X0130911Y0141972D02*
X0118000Y0141972D01*
X0118000Y0143570D02*
X0131730Y0143570D01*
X0132739Y0144500D02*
X0135373Y0141866D01*
X0135634Y0142127D01*
X0138007Y0144500D01*
X0143475Y0144500D01*
X0143687Y0144287D01*
X0144863Y0143800D01*
X0146137Y0143800D01*
X0147313Y0144287D01*
X0147525Y0144500D01*
X0150813Y0144500D01*
X0150813Y0142500D01*
X0145323Y0137010D01*
X0145260Y0137036D01*
X0144689Y0137036D01*
X0144689Y0137574D01*
X0140807Y0141457D01*
X0140348Y0141457D01*
X0140357Y0141490D01*
X0140357Y0141964D01*
X0140234Y0142422D01*
X0139997Y0142832D01*
X0138429Y0144401D01*
X0135894Y0141866D01*
X0135634Y0142127D01*
X0133261Y0144500D01*
X0132739Y0144500D01*
X0133669Y0143570D02*
X0134190Y0143570D01*
X0135267Y0141972D02*
X0135479Y0141972D01*
X0135789Y0141972D02*
X0136000Y0141972D01*
X0137077Y0143570D02*
X0137598Y0143570D01*
X0139259Y0143570D02*
X0150813Y0143570D01*
X0150285Y0141972D02*
X0140355Y0141972D01*
X0141890Y0140373D02*
X0148686Y0140373D01*
X0147088Y0138775D02*
X0143489Y0138775D01*
X0144689Y0137176D02*
X0145489Y0137176D01*
X0147877Y0127585D02*
X0118000Y0127585D01*
X0119200Y0125987D02*
X0147536Y0125987D01*
X0147859Y0124388D02*
X0120799Y0124388D01*
X0122397Y0122790D02*
X0149053Y0122790D01*
X0151545Y0121191D02*
X0123996Y0121191D01*
X0125594Y0119593D02*
X0153143Y0119593D01*
X0154742Y0117994D02*
X0127193Y0117994D01*
X0128791Y0116396D02*
X0155871Y0116396D01*
X0157373Y0114797D02*
X0130390Y0114797D01*
X0131988Y0113199D02*
X0158972Y0113199D01*
X0158290Y0114797D02*
X0157769Y0114797D01*
X0159368Y0116396D02*
X0159889Y0116396D01*
X0160627Y0117134D02*
X0160366Y0117394D01*
X0162901Y0119929D01*
X0161332Y0121497D01*
X0160922Y0121734D01*
X0160464Y0121857D01*
X0159990Y0121857D01*
X0159957Y0121848D01*
X0159957Y0122307D01*
X0158358Y0123906D01*
X0158613Y0123800D01*
X0159763Y0123800D01*
X0163000Y0120563D01*
X0163000Y0119507D01*
X0160627Y0117134D01*
X0160966Y0117994D02*
X0161488Y0117994D01*
X0162565Y0119593D02*
X0163000Y0119593D01*
X0162372Y0121191D02*
X0161638Y0121191D01*
X0160773Y0122790D02*
X0159474Y0122790D01*
X0162039Y0113199D02*
X0163000Y0113199D01*
X0163000Y0111600D02*
X0133587Y0111600D01*
X0135185Y0110002D02*
X0163000Y0110002D01*
X0163000Y0108403D02*
X0136784Y0108403D01*
X0134607Y0105206D02*
X0118000Y0105206D01*
X0118000Y0103608D02*
X0154037Y0103608D01*
X0153687Y0103463D02*
X0152787Y0102563D01*
X0152300Y0101387D01*
X0152300Y0100113D01*
X0152787Y0098937D01*
X0153687Y0098037D01*
X0154863Y0097550D01*
X0156137Y0097550D01*
X0157313Y0098037D01*
X0158125Y0098850D01*
X0163000Y0098850D01*
X0163000Y0094500D01*
X0118000Y0094500D01*
X0118000Y0121813D01*
X0134850Y0104963D01*
X0134850Y0104963D01*
X0135963Y0103850D01*
X0154622Y0103850D01*
X0153687Y0103463D01*
X0152558Y0102009D02*
X0118000Y0102009D01*
X0118000Y0100411D02*
X0152300Y0100411D01*
X0152912Y0098812D02*
X0118000Y0098812D01*
X0118000Y0097214D02*
X0163000Y0097214D01*
X0163000Y0098812D02*
X0158088Y0098812D01*
X0163000Y0095615D02*
X0118000Y0095615D01*
X0118000Y0106805D02*
X0133008Y0106805D01*
X0131410Y0108403D02*
X0118000Y0108403D01*
X0118000Y0110002D02*
X0129811Y0110002D01*
X0128213Y0111600D02*
X0118000Y0111600D01*
X0118000Y0113199D02*
X0126614Y0113199D01*
X0125016Y0114797D02*
X0118000Y0114797D01*
X0118000Y0116396D02*
X0123417Y0116396D01*
X0121819Y0117994D02*
X0118000Y0117994D01*
X0118000Y0119593D02*
X0120220Y0119593D01*
X0118622Y0121191D02*
X0118000Y0121191D01*
X0133880Y0140373D02*
X0134401Y0140373D01*
M02*
