%
M48
M72
T01C0.02400
T02C0.03200
T03C0.03937
T04C0.04000
T05C0.11024
%
T01
X161750Y199500
X165500Y195750
X166750Y210750
X183000Y225750
X198000Y204500
X204250Y179500
X206750Y173250
X218000Y170750
X219250Y158250
X234250Y158250
X251750Y140750
X229250Y128250
X211750Y127000
X211750Y132000
X194250Y124500
X190500Y129500
X185500Y127000
X174250Y127000
X166750Y125750
X159250Y127000
X166750Y143250
X161750Y147000
X145500Y147000
X141750Y152000
X149250Y163250
X161750Y165750
X170500Y170750
X175500Y172000
X186750Y174500
X194250Y170750
X194250Y163250
X194250Y149500
X149250Y178250
X149250Y183250
X95500Y168250
X91750Y172000
X178000Y109500
X185500Y97000
X190500Y97000
X185500Y87000
X170500Y73250
X163000Y68250
X159250Y59500
X170500Y48250
X188000Y43250
X203000Y39500
X213000Y39500
X223000Y39500
X196750Y25750
X141750Y39500
X98000Y39500
X88000Y39500
X78000Y39500
X155500Y100750
X234250Y78250
X251750Y97000
X243000Y110750
X356750Y265750
X253000Y279500
T02
X73000Y304500
X73000Y294500
X73000Y274500
X73000Y264500
X73000Y244500
X73000Y234500
X103000Y234500
X103000Y244500
X103000Y264500
X103000Y274500
X103000Y294500
X103000Y304500
X313000Y294500
X313000Y284500
X313000Y264500
X313000Y254500
X313000Y234500
X313000Y224500
X313000Y204500
X313000Y194500
X313000Y174500
X313000Y164500
X313000Y144500
X313000Y134500
X313000Y114500
X313000Y104500
X313000Y84500
X313000Y74500
X313000Y54500
X313000Y44500
X343000Y44500
X343000Y54500
X343000Y74500
X343000Y84500
X343000Y104500
X343000Y114500
X343000Y134500
X343000Y144500
X343000Y164500
X343000Y174500
X343000Y194500
X343000Y204500
X343000Y224500
X343000Y234500
X343000Y254500
X343000Y264500
X343000Y284500
X343000Y294500
X151536Y125964
X144464Y133036
X148000Y44500
X148000Y34500
X178000Y34500
X178000Y44500
T03
X23000Y39500
X23000Y49500
X23000Y59500
X23000Y69500
X23000Y84500
X23000Y94500
X23000Y104500
X23000Y114500
X23000Y124500
X23000Y134500
X23000Y144500
X23000Y154500
X23000Y164500
X23000Y174500
X23000Y194500
X23000Y204500
X23000Y214500
X23000Y224500
X23000Y234500
X23000Y244500
X23000Y254500
X23000Y264500
X23000Y274500
X23000Y284500
X388000Y279500
X388000Y269500
X388000Y259500
X388000Y249500
X388000Y239500
X388000Y229500
X388000Y219500
X388000Y209500
X388000Y199500
X388000Y189500
X388000Y134500
X388000Y124500
X388000Y114500
X388000Y104500
X388000Y94500
X388000Y84500
X388000Y74500
X388000Y64500
X388000Y54500
X388000Y44500
T04
X68000Y14500
X78000Y14500
X88000Y14500
X98000Y14500
X108000Y14500
X118000Y14500
X128000Y14500
X138000Y14500
X148000Y14500
X158000Y14500
X168000Y14500
X178000Y14500
X188000Y14500
X198000Y14500
X208000Y14500
X218000Y14500
X228000Y14500
X238000Y14500
X248000Y14500
X258000Y14500
X208000Y254500
X208000Y264500
X208000Y274500
X208000Y284500
X208000Y294500
X208000Y304500
T05
X23000Y304500
X23000Y19500
X388000Y19500
X388000Y304500
M30
