G75*
%MOIN*%
%OFA0B0*%
%FSLAX25Y25*%
%IPPOS*%
%LPD*%
%AMOC8*
5,1,8,0,0,1.08239X$1,22.5*
%
%ADD10C,0.00000*%
%ADD11R,0.05906X0.01969*%
%ADD12R,0.01969X0.05906*%
%ADD13R,0.06299X0.07087*%
%ADD14R,0.07087X0.06299*%
%ADD15R,0.07098X0.06299*%
%ADD16R,0.06299X0.07098*%
%ADD17R,0.02362X0.03937*%
%ADD18R,0.04331X0.03937*%
D10*
X0008000Y0004500D02*
X0008000Y0319461D01*
X0401701Y0319461D01*
X0401701Y0004500D01*
X0008000Y0004500D01*
X0017488Y0019500D02*
X0017490Y0019648D01*
X0017496Y0019796D01*
X0017506Y0019944D01*
X0017520Y0020091D01*
X0017538Y0020238D01*
X0017559Y0020384D01*
X0017585Y0020530D01*
X0017615Y0020675D01*
X0017648Y0020819D01*
X0017686Y0020962D01*
X0017727Y0021104D01*
X0017772Y0021245D01*
X0017820Y0021385D01*
X0017873Y0021524D01*
X0017929Y0021661D01*
X0017989Y0021796D01*
X0018052Y0021930D01*
X0018119Y0022062D01*
X0018190Y0022192D01*
X0018264Y0022320D01*
X0018341Y0022446D01*
X0018422Y0022570D01*
X0018506Y0022692D01*
X0018593Y0022811D01*
X0018684Y0022928D01*
X0018778Y0023043D01*
X0018874Y0023155D01*
X0018974Y0023265D01*
X0019076Y0023371D01*
X0019182Y0023475D01*
X0019290Y0023576D01*
X0019401Y0023674D01*
X0019514Y0023770D01*
X0019630Y0023862D01*
X0019748Y0023951D01*
X0019869Y0024036D01*
X0019992Y0024119D01*
X0020117Y0024198D01*
X0020244Y0024274D01*
X0020373Y0024346D01*
X0020504Y0024415D01*
X0020637Y0024480D01*
X0020772Y0024541D01*
X0020908Y0024599D01*
X0021045Y0024654D01*
X0021184Y0024704D01*
X0021325Y0024751D01*
X0021466Y0024794D01*
X0021609Y0024834D01*
X0021753Y0024869D01*
X0021897Y0024901D01*
X0022043Y0024928D01*
X0022189Y0024952D01*
X0022336Y0024972D01*
X0022483Y0024988D01*
X0022630Y0025000D01*
X0022778Y0025008D01*
X0022926Y0025012D01*
X0023074Y0025012D01*
X0023222Y0025008D01*
X0023370Y0025000D01*
X0023517Y0024988D01*
X0023664Y0024972D01*
X0023811Y0024952D01*
X0023957Y0024928D01*
X0024103Y0024901D01*
X0024247Y0024869D01*
X0024391Y0024834D01*
X0024534Y0024794D01*
X0024675Y0024751D01*
X0024816Y0024704D01*
X0024955Y0024654D01*
X0025092Y0024599D01*
X0025228Y0024541D01*
X0025363Y0024480D01*
X0025496Y0024415D01*
X0025627Y0024346D01*
X0025756Y0024274D01*
X0025883Y0024198D01*
X0026008Y0024119D01*
X0026131Y0024036D01*
X0026252Y0023951D01*
X0026370Y0023862D01*
X0026486Y0023770D01*
X0026599Y0023674D01*
X0026710Y0023576D01*
X0026818Y0023475D01*
X0026924Y0023371D01*
X0027026Y0023265D01*
X0027126Y0023155D01*
X0027222Y0023043D01*
X0027316Y0022928D01*
X0027407Y0022811D01*
X0027494Y0022692D01*
X0027578Y0022570D01*
X0027659Y0022446D01*
X0027736Y0022320D01*
X0027810Y0022192D01*
X0027881Y0022062D01*
X0027948Y0021930D01*
X0028011Y0021796D01*
X0028071Y0021661D01*
X0028127Y0021524D01*
X0028180Y0021385D01*
X0028228Y0021245D01*
X0028273Y0021104D01*
X0028314Y0020962D01*
X0028352Y0020819D01*
X0028385Y0020675D01*
X0028415Y0020530D01*
X0028441Y0020384D01*
X0028462Y0020238D01*
X0028480Y0020091D01*
X0028494Y0019944D01*
X0028504Y0019796D01*
X0028510Y0019648D01*
X0028512Y0019500D01*
X0028510Y0019352D01*
X0028504Y0019204D01*
X0028494Y0019056D01*
X0028480Y0018909D01*
X0028462Y0018762D01*
X0028441Y0018616D01*
X0028415Y0018470D01*
X0028385Y0018325D01*
X0028352Y0018181D01*
X0028314Y0018038D01*
X0028273Y0017896D01*
X0028228Y0017755D01*
X0028180Y0017615D01*
X0028127Y0017476D01*
X0028071Y0017339D01*
X0028011Y0017204D01*
X0027948Y0017070D01*
X0027881Y0016938D01*
X0027810Y0016808D01*
X0027736Y0016680D01*
X0027659Y0016554D01*
X0027578Y0016430D01*
X0027494Y0016308D01*
X0027407Y0016189D01*
X0027316Y0016072D01*
X0027222Y0015957D01*
X0027126Y0015845D01*
X0027026Y0015735D01*
X0026924Y0015629D01*
X0026818Y0015525D01*
X0026710Y0015424D01*
X0026599Y0015326D01*
X0026486Y0015230D01*
X0026370Y0015138D01*
X0026252Y0015049D01*
X0026131Y0014964D01*
X0026008Y0014881D01*
X0025883Y0014802D01*
X0025756Y0014726D01*
X0025627Y0014654D01*
X0025496Y0014585D01*
X0025363Y0014520D01*
X0025228Y0014459D01*
X0025092Y0014401D01*
X0024955Y0014346D01*
X0024816Y0014296D01*
X0024675Y0014249D01*
X0024534Y0014206D01*
X0024391Y0014166D01*
X0024247Y0014131D01*
X0024103Y0014099D01*
X0023957Y0014072D01*
X0023811Y0014048D01*
X0023664Y0014028D01*
X0023517Y0014012D01*
X0023370Y0014000D01*
X0023222Y0013992D01*
X0023074Y0013988D01*
X0022926Y0013988D01*
X0022778Y0013992D01*
X0022630Y0014000D01*
X0022483Y0014012D01*
X0022336Y0014028D01*
X0022189Y0014048D01*
X0022043Y0014072D01*
X0021897Y0014099D01*
X0021753Y0014131D01*
X0021609Y0014166D01*
X0021466Y0014206D01*
X0021325Y0014249D01*
X0021184Y0014296D01*
X0021045Y0014346D01*
X0020908Y0014401D01*
X0020772Y0014459D01*
X0020637Y0014520D01*
X0020504Y0014585D01*
X0020373Y0014654D01*
X0020244Y0014726D01*
X0020117Y0014802D01*
X0019992Y0014881D01*
X0019869Y0014964D01*
X0019748Y0015049D01*
X0019630Y0015138D01*
X0019514Y0015230D01*
X0019401Y0015326D01*
X0019290Y0015424D01*
X0019182Y0015525D01*
X0019076Y0015629D01*
X0018974Y0015735D01*
X0018874Y0015845D01*
X0018778Y0015957D01*
X0018684Y0016072D01*
X0018593Y0016189D01*
X0018506Y0016308D01*
X0018422Y0016430D01*
X0018341Y0016554D01*
X0018264Y0016680D01*
X0018190Y0016808D01*
X0018119Y0016938D01*
X0018052Y0017070D01*
X0017989Y0017204D01*
X0017929Y0017339D01*
X0017873Y0017476D01*
X0017820Y0017615D01*
X0017772Y0017755D01*
X0017727Y0017896D01*
X0017686Y0018038D01*
X0017648Y0018181D01*
X0017615Y0018325D01*
X0017585Y0018470D01*
X0017559Y0018616D01*
X0017538Y0018762D01*
X0017520Y0018909D01*
X0017506Y0019056D01*
X0017496Y0019204D01*
X0017490Y0019352D01*
X0017488Y0019500D01*
X0017488Y0304500D02*
X0017490Y0304648D01*
X0017496Y0304796D01*
X0017506Y0304944D01*
X0017520Y0305091D01*
X0017538Y0305238D01*
X0017559Y0305384D01*
X0017585Y0305530D01*
X0017615Y0305675D01*
X0017648Y0305819D01*
X0017686Y0305962D01*
X0017727Y0306104D01*
X0017772Y0306245D01*
X0017820Y0306385D01*
X0017873Y0306524D01*
X0017929Y0306661D01*
X0017989Y0306796D01*
X0018052Y0306930D01*
X0018119Y0307062D01*
X0018190Y0307192D01*
X0018264Y0307320D01*
X0018341Y0307446D01*
X0018422Y0307570D01*
X0018506Y0307692D01*
X0018593Y0307811D01*
X0018684Y0307928D01*
X0018778Y0308043D01*
X0018874Y0308155D01*
X0018974Y0308265D01*
X0019076Y0308371D01*
X0019182Y0308475D01*
X0019290Y0308576D01*
X0019401Y0308674D01*
X0019514Y0308770D01*
X0019630Y0308862D01*
X0019748Y0308951D01*
X0019869Y0309036D01*
X0019992Y0309119D01*
X0020117Y0309198D01*
X0020244Y0309274D01*
X0020373Y0309346D01*
X0020504Y0309415D01*
X0020637Y0309480D01*
X0020772Y0309541D01*
X0020908Y0309599D01*
X0021045Y0309654D01*
X0021184Y0309704D01*
X0021325Y0309751D01*
X0021466Y0309794D01*
X0021609Y0309834D01*
X0021753Y0309869D01*
X0021897Y0309901D01*
X0022043Y0309928D01*
X0022189Y0309952D01*
X0022336Y0309972D01*
X0022483Y0309988D01*
X0022630Y0310000D01*
X0022778Y0310008D01*
X0022926Y0310012D01*
X0023074Y0310012D01*
X0023222Y0310008D01*
X0023370Y0310000D01*
X0023517Y0309988D01*
X0023664Y0309972D01*
X0023811Y0309952D01*
X0023957Y0309928D01*
X0024103Y0309901D01*
X0024247Y0309869D01*
X0024391Y0309834D01*
X0024534Y0309794D01*
X0024675Y0309751D01*
X0024816Y0309704D01*
X0024955Y0309654D01*
X0025092Y0309599D01*
X0025228Y0309541D01*
X0025363Y0309480D01*
X0025496Y0309415D01*
X0025627Y0309346D01*
X0025756Y0309274D01*
X0025883Y0309198D01*
X0026008Y0309119D01*
X0026131Y0309036D01*
X0026252Y0308951D01*
X0026370Y0308862D01*
X0026486Y0308770D01*
X0026599Y0308674D01*
X0026710Y0308576D01*
X0026818Y0308475D01*
X0026924Y0308371D01*
X0027026Y0308265D01*
X0027126Y0308155D01*
X0027222Y0308043D01*
X0027316Y0307928D01*
X0027407Y0307811D01*
X0027494Y0307692D01*
X0027578Y0307570D01*
X0027659Y0307446D01*
X0027736Y0307320D01*
X0027810Y0307192D01*
X0027881Y0307062D01*
X0027948Y0306930D01*
X0028011Y0306796D01*
X0028071Y0306661D01*
X0028127Y0306524D01*
X0028180Y0306385D01*
X0028228Y0306245D01*
X0028273Y0306104D01*
X0028314Y0305962D01*
X0028352Y0305819D01*
X0028385Y0305675D01*
X0028415Y0305530D01*
X0028441Y0305384D01*
X0028462Y0305238D01*
X0028480Y0305091D01*
X0028494Y0304944D01*
X0028504Y0304796D01*
X0028510Y0304648D01*
X0028512Y0304500D01*
X0028510Y0304352D01*
X0028504Y0304204D01*
X0028494Y0304056D01*
X0028480Y0303909D01*
X0028462Y0303762D01*
X0028441Y0303616D01*
X0028415Y0303470D01*
X0028385Y0303325D01*
X0028352Y0303181D01*
X0028314Y0303038D01*
X0028273Y0302896D01*
X0028228Y0302755D01*
X0028180Y0302615D01*
X0028127Y0302476D01*
X0028071Y0302339D01*
X0028011Y0302204D01*
X0027948Y0302070D01*
X0027881Y0301938D01*
X0027810Y0301808D01*
X0027736Y0301680D01*
X0027659Y0301554D01*
X0027578Y0301430D01*
X0027494Y0301308D01*
X0027407Y0301189D01*
X0027316Y0301072D01*
X0027222Y0300957D01*
X0027126Y0300845D01*
X0027026Y0300735D01*
X0026924Y0300629D01*
X0026818Y0300525D01*
X0026710Y0300424D01*
X0026599Y0300326D01*
X0026486Y0300230D01*
X0026370Y0300138D01*
X0026252Y0300049D01*
X0026131Y0299964D01*
X0026008Y0299881D01*
X0025883Y0299802D01*
X0025756Y0299726D01*
X0025627Y0299654D01*
X0025496Y0299585D01*
X0025363Y0299520D01*
X0025228Y0299459D01*
X0025092Y0299401D01*
X0024955Y0299346D01*
X0024816Y0299296D01*
X0024675Y0299249D01*
X0024534Y0299206D01*
X0024391Y0299166D01*
X0024247Y0299131D01*
X0024103Y0299099D01*
X0023957Y0299072D01*
X0023811Y0299048D01*
X0023664Y0299028D01*
X0023517Y0299012D01*
X0023370Y0299000D01*
X0023222Y0298992D01*
X0023074Y0298988D01*
X0022926Y0298988D01*
X0022778Y0298992D01*
X0022630Y0299000D01*
X0022483Y0299012D01*
X0022336Y0299028D01*
X0022189Y0299048D01*
X0022043Y0299072D01*
X0021897Y0299099D01*
X0021753Y0299131D01*
X0021609Y0299166D01*
X0021466Y0299206D01*
X0021325Y0299249D01*
X0021184Y0299296D01*
X0021045Y0299346D01*
X0020908Y0299401D01*
X0020772Y0299459D01*
X0020637Y0299520D01*
X0020504Y0299585D01*
X0020373Y0299654D01*
X0020244Y0299726D01*
X0020117Y0299802D01*
X0019992Y0299881D01*
X0019869Y0299964D01*
X0019748Y0300049D01*
X0019630Y0300138D01*
X0019514Y0300230D01*
X0019401Y0300326D01*
X0019290Y0300424D01*
X0019182Y0300525D01*
X0019076Y0300629D01*
X0018974Y0300735D01*
X0018874Y0300845D01*
X0018778Y0300957D01*
X0018684Y0301072D01*
X0018593Y0301189D01*
X0018506Y0301308D01*
X0018422Y0301430D01*
X0018341Y0301554D01*
X0018264Y0301680D01*
X0018190Y0301808D01*
X0018119Y0301938D01*
X0018052Y0302070D01*
X0017989Y0302204D01*
X0017929Y0302339D01*
X0017873Y0302476D01*
X0017820Y0302615D01*
X0017772Y0302755D01*
X0017727Y0302896D01*
X0017686Y0303038D01*
X0017648Y0303181D01*
X0017615Y0303325D01*
X0017585Y0303470D01*
X0017559Y0303616D01*
X0017538Y0303762D01*
X0017520Y0303909D01*
X0017506Y0304056D01*
X0017496Y0304204D01*
X0017490Y0304352D01*
X0017488Y0304500D01*
X0382488Y0304500D02*
X0382490Y0304648D01*
X0382496Y0304796D01*
X0382506Y0304944D01*
X0382520Y0305091D01*
X0382538Y0305238D01*
X0382559Y0305384D01*
X0382585Y0305530D01*
X0382615Y0305675D01*
X0382648Y0305819D01*
X0382686Y0305962D01*
X0382727Y0306104D01*
X0382772Y0306245D01*
X0382820Y0306385D01*
X0382873Y0306524D01*
X0382929Y0306661D01*
X0382989Y0306796D01*
X0383052Y0306930D01*
X0383119Y0307062D01*
X0383190Y0307192D01*
X0383264Y0307320D01*
X0383341Y0307446D01*
X0383422Y0307570D01*
X0383506Y0307692D01*
X0383593Y0307811D01*
X0383684Y0307928D01*
X0383778Y0308043D01*
X0383874Y0308155D01*
X0383974Y0308265D01*
X0384076Y0308371D01*
X0384182Y0308475D01*
X0384290Y0308576D01*
X0384401Y0308674D01*
X0384514Y0308770D01*
X0384630Y0308862D01*
X0384748Y0308951D01*
X0384869Y0309036D01*
X0384992Y0309119D01*
X0385117Y0309198D01*
X0385244Y0309274D01*
X0385373Y0309346D01*
X0385504Y0309415D01*
X0385637Y0309480D01*
X0385772Y0309541D01*
X0385908Y0309599D01*
X0386045Y0309654D01*
X0386184Y0309704D01*
X0386325Y0309751D01*
X0386466Y0309794D01*
X0386609Y0309834D01*
X0386753Y0309869D01*
X0386897Y0309901D01*
X0387043Y0309928D01*
X0387189Y0309952D01*
X0387336Y0309972D01*
X0387483Y0309988D01*
X0387630Y0310000D01*
X0387778Y0310008D01*
X0387926Y0310012D01*
X0388074Y0310012D01*
X0388222Y0310008D01*
X0388370Y0310000D01*
X0388517Y0309988D01*
X0388664Y0309972D01*
X0388811Y0309952D01*
X0388957Y0309928D01*
X0389103Y0309901D01*
X0389247Y0309869D01*
X0389391Y0309834D01*
X0389534Y0309794D01*
X0389675Y0309751D01*
X0389816Y0309704D01*
X0389955Y0309654D01*
X0390092Y0309599D01*
X0390228Y0309541D01*
X0390363Y0309480D01*
X0390496Y0309415D01*
X0390627Y0309346D01*
X0390756Y0309274D01*
X0390883Y0309198D01*
X0391008Y0309119D01*
X0391131Y0309036D01*
X0391252Y0308951D01*
X0391370Y0308862D01*
X0391486Y0308770D01*
X0391599Y0308674D01*
X0391710Y0308576D01*
X0391818Y0308475D01*
X0391924Y0308371D01*
X0392026Y0308265D01*
X0392126Y0308155D01*
X0392222Y0308043D01*
X0392316Y0307928D01*
X0392407Y0307811D01*
X0392494Y0307692D01*
X0392578Y0307570D01*
X0392659Y0307446D01*
X0392736Y0307320D01*
X0392810Y0307192D01*
X0392881Y0307062D01*
X0392948Y0306930D01*
X0393011Y0306796D01*
X0393071Y0306661D01*
X0393127Y0306524D01*
X0393180Y0306385D01*
X0393228Y0306245D01*
X0393273Y0306104D01*
X0393314Y0305962D01*
X0393352Y0305819D01*
X0393385Y0305675D01*
X0393415Y0305530D01*
X0393441Y0305384D01*
X0393462Y0305238D01*
X0393480Y0305091D01*
X0393494Y0304944D01*
X0393504Y0304796D01*
X0393510Y0304648D01*
X0393512Y0304500D01*
X0393510Y0304352D01*
X0393504Y0304204D01*
X0393494Y0304056D01*
X0393480Y0303909D01*
X0393462Y0303762D01*
X0393441Y0303616D01*
X0393415Y0303470D01*
X0393385Y0303325D01*
X0393352Y0303181D01*
X0393314Y0303038D01*
X0393273Y0302896D01*
X0393228Y0302755D01*
X0393180Y0302615D01*
X0393127Y0302476D01*
X0393071Y0302339D01*
X0393011Y0302204D01*
X0392948Y0302070D01*
X0392881Y0301938D01*
X0392810Y0301808D01*
X0392736Y0301680D01*
X0392659Y0301554D01*
X0392578Y0301430D01*
X0392494Y0301308D01*
X0392407Y0301189D01*
X0392316Y0301072D01*
X0392222Y0300957D01*
X0392126Y0300845D01*
X0392026Y0300735D01*
X0391924Y0300629D01*
X0391818Y0300525D01*
X0391710Y0300424D01*
X0391599Y0300326D01*
X0391486Y0300230D01*
X0391370Y0300138D01*
X0391252Y0300049D01*
X0391131Y0299964D01*
X0391008Y0299881D01*
X0390883Y0299802D01*
X0390756Y0299726D01*
X0390627Y0299654D01*
X0390496Y0299585D01*
X0390363Y0299520D01*
X0390228Y0299459D01*
X0390092Y0299401D01*
X0389955Y0299346D01*
X0389816Y0299296D01*
X0389675Y0299249D01*
X0389534Y0299206D01*
X0389391Y0299166D01*
X0389247Y0299131D01*
X0389103Y0299099D01*
X0388957Y0299072D01*
X0388811Y0299048D01*
X0388664Y0299028D01*
X0388517Y0299012D01*
X0388370Y0299000D01*
X0388222Y0298992D01*
X0388074Y0298988D01*
X0387926Y0298988D01*
X0387778Y0298992D01*
X0387630Y0299000D01*
X0387483Y0299012D01*
X0387336Y0299028D01*
X0387189Y0299048D01*
X0387043Y0299072D01*
X0386897Y0299099D01*
X0386753Y0299131D01*
X0386609Y0299166D01*
X0386466Y0299206D01*
X0386325Y0299249D01*
X0386184Y0299296D01*
X0386045Y0299346D01*
X0385908Y0299401D01*
X0385772Y0299459D01*
X0385637Y0299520D01*
X0385504Y0299585D01*
X0385373Y0299654D01*
X0385244Y0299726D01*
X0385117Y0299802D01*
X0384992Y0299881D01*
X0384869Y0299964D01*
X0384748Y0300049D01*
X0384630Y0300138D01*
X0384514Y0300230D01*
X0384401Y0300326D01*
X0384290Y0300424D01*
X0384182Y0300525D01*
X0384076Y0300629D01*
X0383974Y0300735D01*
X0383874Y0300845D01*
X0383778Y0300957D01*
X0383684Y0301072D01*
X0383593Y0301189D01*
X0383506Y0301308D01*
X0383422Y0301430D01*
X0383341Y0301554D01*
X0383264Y0301680D01*
X0383190Y0301808D01*
X0383119Y0301938D01*
X0383052Y0302070D01*
X0382989Y0302204D01*
X0382929Y0302339D01*
X0382873Y0302476D01*
X0382820Y0302615D01*
X0382772Y0302755D01*
X0382727Y0302896D01*
X0382686Y0303038D01*
X0382648Y0303181D01*
X0382615Y0303325D01*
X0382585Y0303470D01*
X0382559Y0303616D01*
X0382538Y0303762D01*
X0382520Y0303909D01*
X0382506Y0304056D01*
X0382496Y0304204D01*
X0382490Y0304352D01*
X0382488Y0304500D01*
X0382488Y0019500D02*
X0382490Y0019648D01*
X0382496Y0019796D01*
X0382506Y0019944D01*
X0382520Y0020091D01*
X0382538Y0020238D01*
X0382559Y0020384D01*
X0382585Y0020530D01*
X0382615Y0020675D01*
X0382648Y0020819D01*
X0382686Y0020962D01*
X0382727Y0021104D01*
X0382772Y0021245D01*
X0382820Y0021385D01*
X0382873Y0021524D01*
X0382929Y0021661D01*
X0382989Y0021796D01*
X0383052Y0021930D01*
X0383119Y0022062D01*
X0383190Y0022192D01*
X0383264Y0022320D01*
X0383341Y0022446D01*
X0383422Y0022570D01*
X0383506Y0022692D01*
X0383593Y0022811D01*
X0383684Y0022928D01*
X0383778Y0023043D01*
X0383874Y0023155D01*
X0383974Y0023265D01*
X0384076Y0023371D01*
X0384182Y0023475D01*
X0384290Y0023576D01*
X0384401Y0023674D01*
X0384514Y0023770D01*
X0384630Y0023862D01*
X0384748Y0023951D01*
X0384869Y0024036D01*
X0384992Y0024119D01*
X0385117Y0024198D01*
X0385244Y0024274D01*
X0385373Y0024346D01*
X0385504Y0024415D01*
X0385637Y0024480D01*
X0385772Y0024541D01*
X0385908Y0024599D01*
X0386045Y0024654D01*
X0386184Y0024704D01*
X0386325Y0024751D01*
X0386466Y0024794D01*
X0386609Y0024834D01*
X0386753Y0024869D01*
X0386897Y0024901D01*
X0387043Y0024928D01*
X0387189Y0024952D01*
X0387336Y0024972D01*
X0387483Y0024988D01*
X0387630Y0025000D01*
X0387778Y0025008D01*
X0387926Y0025012D01*
X0388074Y0025012D01*
X0388222Y0025008D01*
X0388370Y0025000D01*
X0388517Y0024988D01*
X0388664Y0024972D01*
X0388811Y0024952D01*
X0388957Y0024928D01*
X0389103Y0024901D01*
X0389247Y0024869D01*
X0389391Y0024834D01*
X0389534Y0024794D01*
X0389675Y0024751D01*
X0389816Y0024704D01*
X0389955Y0024654D01*
X0390092Y0024599D01*
X0390228Y0024541D01*
X0390363Y0024480D01*
X0390496Y0024415D01*
X0390627Y0024346D01*
X0390756Y0024274D01*
X0390883Y0024198D01*
X0391008Y0024119D01*
X0391131Y0024036D01*
X0391252Y0023951D01*
X0391370Y0023862D01*
X0391486Y0023770D01*
X0391599Y0023674D01*
X0391710Y0023576D01*
X0391818Y0023475D01*
X0391924Y0023371D01*
X0392026Y0023265D01*
X0392126Y0023155D01*
X0392222Y0023043D01*
X0392316Y0022928D01*
X0392407Y0022811D01*
X0392494Y0022692D01*
X0392578Y0022570D01*
X0392659Y0022446D01*
X0392736Y0022320D01*
X0392810Y0022192D01*
X0392881Y0022062D01*
X0392948Y0021930D01*
X0393011Y0021796D01*
X0393071Y0021661D01*
X0393127Y0021524D01*
X0393180Y0021385D01*
X0393228Y0021245D01*
X0393273Y0021104D01*
X0393314Y0020962D01*
X0393352Y0020819D01*
X0393385Y0020675D01*
X0393415Y0020530D01*
X0393441Y0020384D01*
X0393462Y0020238D01*
X0393480Y0020091D01*
X0393494Y0019944D01*
X0393504Y0019796D01*
X0393510Y0019648D01*
X0393512Y0019500D01*
X0393510Y0019352D01*
X0393504Y0019204D01*
X0393494Y0019056D01*
X0393480Y0018909D01*
X0393462Y0018762D01*
X0393441Y0018616D01*
X0393415Y0018470D01*
X0393385Y0018325D01*
X0393352Y0018181D01*
X0393314Y0018038D01*
X0393273Y0017896D01*
X0393228Y0017755D01*
X0393180Y0017615D01*
X0393127Y0017476D01*
X0393071Y0017339D01*
X0393011Y0017204D01*
X0392948Y0017070D01*
X0392881Y0016938D01*
X0392810Y0016808D01*
X0392736Y0016680D01*
X0392659Y0016554D01*
X0392578Y0016430D01*
X0392494Y0016308D01*
X0392407Y0016189D01*
X0392316Y0016072D01*
X0392222Y0015957D01*
X0392126Y0015845D01*
X0392026Y0015735D01*
X0391924Y0015629D01*
X0391818Y0015525D01*
X0391710Y0015424D01*
X0391599Y0015326D01*
X0391486Y0015230D01*
X0391370Y0015138D01*
X0391252Y0015049D01*
X0391131Y0014964D01*
X0391008Y0014881D01*
X0390883Y0014802D01*
X0390756Y0014726D01*
X0390627Y0014654D01*
X0390496Y0014585D01*
X0390363Y0014520D01*
X0390228Y0014459D01*
X0390092Y0014401D01*
X0389955Y0014346D01*
X0389816Y0014296D01*
X0389675Y0014249D01*
X0389534Y0014206D01*
X0389391Y0014166D01*
X0389247Y0014131D01*
X0389103Y0014099D01*
X0388957Y0014072D01*
X0388811Y0014048D01*
X0388664Y0014028D01*
X0388517Y0014012D01*
X0388370Y0014000D01*
X0388222Y0013992D01*
X0388074Y0013988D01*
X0387926Y0013988D01*
X0387778Y0013992D01*
X0387630Y0014000D01*
X0387483Y0014012D01*
X0387336Y0014028D01*
X0387189Y0014048D01*
X0387043Y0014072D01*
X0386897Y0014099D01*
X0386753Y0014131D01*
X0386609Y0014166D01*
X0386466Y0014206D01*
X0386325Y0014249D01*
X0386184Y0014296D01*
X0386045Y0014346D01*
X0385908Y0014401D01*
X0385772Y0014459D01*
X0385637Y0014520D01*
X0385504Y0014585D01*
X0385373Y0014654D01*
X0385244Y0014726D01*
X0385117Y0014802D01*
X0384992Y0014881D01*
X0384869Y0014964D01*
X0384748Y0015049D01*
X0384630Y0015138D01*
X0384514Y0015230D01*
X0384401Y0015326D01*
X0384290Y0015424D01*
X0384182Y0015525D01*
X0384076Y0015629D01*
X0383974Y0015735D01*
X0383874Y0015845D01*
X0383778Y0015957D01*
X0383684Y0016072D01*
X0383593Y0016189D01*
X0383506Y0016308D01*
X0383422Y0016430D01*
X0383341Y0016554D01*
X0383264Y0016680D01*
X0383190Y0016808D01*
X0383119Y0016938D01*
X0383052Y0017070D01*
X0382989Y0017204D01*
X0382929Y0017339D01*
X0382873Y0017476D01*
X0382820Y0017615D01*
X0382772Y0017755D01*
X0382727Y0017896D01*
X0382686Y0018038D01*
X0382648Y0018181D01*
X0382615Y0018325D01*
X0382585Y0018470D01*
X0382559Y0018616D01*
X0382538Y0018762D01*
X0382520Y0018909D01*
X0382506Y0019056D01*
X0382496Y0019204D01*
X0382490Y0019352D01*
X0382488Y0019500D01*
D11*
X0200835Y0143752D03*
X0200835Y0146902D03*
X0200835Y0150051D03*
X0200835Y0153201D03*
X0200835Y0156350D03*
X0200835Y0159500D03*
X0200835Y0162650D03*
X0200835Y0165799D03*
X0200835Y0168949D03*
X0200835Y0172098D03*
X0200835Y0175248D03*
X0155165Y0175248D03*
X0155165Y0172098D03*
X0155165Y0168949D03*
X0155165Y0165799D03*
X0155165Y0162650D03*
X0155165Y0159500D03*
X0155165Y0156350D03*
X0155165Y0153201D03*
X0155165Y0150051D03*
X0155165Y0146902D03*
X0155165Y0143752D03*
D12*
X0162252Y0136665D03*
X0165402Y0136665D03*
X0168551Y0136665D03*
X0171701Y0136665D03*
X0174850Y0136665D03*
X0178000Y0136665D03*
X0181150Y0136665D03*
X0184299Y0136665D03*
X0187449Y0136665D03*
X0190598Y0136665D03*
X0193748Y0136665D03*
X0193748Y0182335D03*
X0190598Y0182335D03*
X0187449Y0182335D03*
X0184299Y0182335D03*
X0181150Y0182335D03*
X0178000Y0182335D03*
X0174850Y0182335D03*
X0171701Y0182335D03*
X0168551Y0182335D03*
X0165402Y0182335D03*
X0162252Y0182335D03*
D13*
X0212488Y0164500D03*
X0223512Y0164500D03*
X0188512Y0119500D03*
X0177488Y0119500D03*
D14*
X0133000Y0153988D03*
X0133000Y0165012D03*
X0138000Y0178988D03*
X0138000Y0190012D03*
X0138000Y0203988D03*
X0138000Y0215012D03*
X0183000Y0215012D03*
X0183000Y0203988D03*
X0083000Y0208988D03*
X0083000Y0220012D03*
X0083000Y0195012D03*
X0083000Y0183988D03*
X0083000Y0170012D03*
X0083000Y0158988D03*
X0083000Y0145012D03*
X0083000Y0133988D03*
X0083000Y0120012D03*
X0083000Y0108988D03*
X0083000Y0095012D03*
X0083000Y0083988D03*
X0083000Y0070012D03*
X0083000Y0058988D03*
D15*
X0063000Y0058902D03*
X0063000Y0070098D03*
X0063000Y0083902D03*
X0063000Y0095098D03*
X0063000Y0108902D03*
X0063000Y0120098D03*
X0063000Y0133902D03*
X0063000Y0145098D03*
X0063000Y0158902D03*
X0063000Y0170098D03*
X0063000Y0183902D03*
X0063000Y0195098D03*
X0063000Y0208902D03*
X0063000Y0220098D03*
X0118000Y0215098D03*
X0118000Y0203902D03*
X0118000Y0190098D03*
X0118000Y0178902D03*
X0173000Y0203902D03*
X0173000Y0215098D03*
X0148000Y0233902D03*
X0138000Y0233902D03*
X0138000Y0245098D03*
X0148000Y0245098D03*
X0148000Y0263902D03*
X0138000Y0263902D03*
X0138000Y0275098D03*
X0148000Y0275098D03*
X0148000Y0293902D03*
X0138000Y0293902D03*
X0138000Y0305098D03*
X0148000Y0305098D03*
X0268000Y0295098D03*
X0278000Y0295098D03*
X0278000Y0283902D03*
X0268000Y0283902D03*
X0268000Y0265098D03*
X0278000Y0265098D03*
X0278000Y0253902D03*
X0268000Y0253902D03*
X0268000Y0235098D03*
X0278000Y0235098D03*
X0278000Y0223902D03*
X0268000Y0223902D03*
X0268000Y0205098D03*
X0278000Y0205098D03*
X0278000Y0193902D03*
X0268000Y0193902D03*
X0268000Y0175098D03*
X0278000Y0175098D03*
X0278000Y0163902D03*
X0268000Y0163902D03*
X0268000Y0145098D03*
X0278000Y0145098D03*
X0278000Y0133902D03*
X0268000Y0133902D03*
X0268000Y0115098D03*
X0278000Y0115098D03*
X0278000Y0103902D03*
X0268000Y0103902D03*
X0268000Y0085098D03*
X0278000Y0085098D03*
X0278000Y0073902D03*
X0268000Y0073902D03*
X0268000Y0055098D03*
X0278000Y0055098D03*
X0278000Y0043902D03*
X0268000Y0043902D03*
X0148000Y0058902D03*
X0148000Y0070098D03*
D16*
X0247402Y0074500D03*
X0258598Y0074500D03*
X0287402Y0074500D03*
X0298598Y0074500D03*
X0298598Y0084500D03*
X0287402Y0084500D03*
X0287402Y0104500D03*
X0298598Y0104500D03*
X0298598Y0114500D03*
X0287402Y0114500D03*
X0287402Y0134500D03*
X0298598Y0134500D03*
X0298598Y0144500D03*
X0287402Y0144500D03*
X0287402Y0164500D03*
X0298598Y0164500D03*
X0298598Y0174500D03*
X0287402Y0174500D03*
X0287402Y0194500D03*
X0298598Y0194500D03*
X0298598Y0204500D03*
X0287402Y0204500D03*
X0287402Y0224500D03*
X0298598Y0224500D03*
X0298598Y0234500D03*
X0287402Y0234500D03*
X0287402Y0254500D03*
X0298598Y0254500D03*
X0298598Y0264500D03*
X0287402Y0264500D03*
X0287402Y0284500D03*
X0298598Y0284500D03*
X0298598Y0294500D03*
X0287402Y0294500D03*
X0258598Y0284500D03*
X0247402Y0284500D03*
X0247402Y0254500D03*
X0258598Y0254500D03*
X0258598Y0224500D03*
X0247402Y0224500D03*
X0247402Y0194500D03*
X0258598Y0194500D03*
X0258598Y0164500D03*
X0247402Y0164500D03*
X0247402Y0134500D03*
X0258598Y0134500D03*
X0258598Y0104500D03*
X0247402Y0104500D03*
X0287402Y0054500D03*
X0298598Y0054500D03*
X0298598Y0044500D03*
X0287402Y0044500D03*
X0258598Y0044500D03*
X0247402Y0044500D03*
X0357402Y0044500D03*
X0368598Y0044500D03*
X0368598Y0074500D03*
X0357402Y0074500D03*
X0357402Y0104500D03*
X0368598Y0104500D03*
X0368598Y0134500D03*
X0357402Y0134500D03*
X0357402Y0164500D03*
X0368598Y0164500D03*
X0368598Y0194500D03*
X0357402Y0194500D03*
X0357402Y0214500D03*
X0368598Y0214500D03*
X0368598Y0234500D03*
X0357402Y0234500D03*
X0357402Y0254500D03*
X0368598Y0254500D03*
X0168598Y0244500D03*
X0157402Y0244500D03*
X0128598Y0244500D03*
X0128598Y0234500D03*
X0117402Y0234500D03*
X0117402Y0244500D03*
X0117402Y0264500D03*
X0117402Y0274500D03*
X0128598Y0274500D03*
X0128598Y0264500D03*
X0157402Y0274500D03*
X0168598Y0274500D03*
X0168598Y0304500D03*
X0157402Y0304500D03*
X0128598Y0304500D03*
X0117402Y0304500D03*
X0117402Y0294500D03*
X0128598Y0294500D03*
X0058598Y0299500D03*
X0047402Y0299500D03*
X0047402Y0274500D03*
X0058598Y0274500D03*
X0058598Y0244500D03*
X0047402Y0244500D03*
D17*
X0048000Y0223831D03*
X0048000Y0215169D03*
X0048000Y0193831D03*
X0048000Y0185169D03*
X0048000Y0168831D03*
X0048000Y0160169D03*
X0048000Y0143831D03*
X0048000Y0135169D03*
X0048000Y0118831D03*
X0048000Y0110169D03*
X0048000Y0093831D03*
X0048000Y0085169D03*
X0048000Y0068831D03*
X0048000Y0060169D03*
X0098000Y0180169D03*
X0098000Y0188831D03*
X0098000Y0205169D03*
X0098000Y0213831D03*
D18*
G36*
X0135773Y0138944D02*
X0132712Y0142005D01*
X0135495Y0144788D01*
X0138556Y0141727D01*
X0135773Y0138944D01*
G37*
G36*
X0140505Y0134212D02*
X0137444Y0137273D01*
X0140227Y0140056D01*
X0143288Y0136995D01*
X0140505Y0134212D01*
G37*
G36*
X0155495Y0124788D02*
X0158556Y0121727D01*
X0155773Y0118944D01*
X0152712Y0122005D01*
X0155495Y0124788D01*
G37*
G36*
X0160227Y0120056D02*
X0163288Y0116995D01*
X0160505Y0114212D01*
X0157444Y0117273D01*
X0160227Y0120056D01*
G37*
M02*
