G75*
%MOIN*%
%OFA0B0*%
%FSLAX25Y25*%
%IPPOS*%
%LPD*%
%AMOC8*
5,1,8,0,0,1.08239X$1,22.5*
%
%ADD10C,0.00000*%
D10*
X0019592Y0028450D02*
X0019595Y0028667D01*
X0019603Y0028885D01*
X0019616Y0029102D01*
X0019635Y0029318D01*
X0019659Y0029534D01*
X0019688Y0029750D01*
X0019722Y0029964D01*
X0019762Y0030178D01*
X0019807Y0030391D01*
X0019857Y0030602D01*
X0019913Y0030813D01*
X0019973Y0031021D01*
X0020039Y0031229D01*
X0020110Y0031434D01*
X0020186Y0031638D01*
X0020266Y0031840D01*
X0020352Y0032040D01*
X0020442Y0032237D01*
X0020538Y0032433D01*
X0020638Y0032626D01*
X0020743Y0032816D01*
X0020852Y0033004D01*
X0020966Y0033189D01*
X0021085Y0033371D01*
X0021208Y0033551D01*
X0021335Y0033727D01*
X0021467Y0033900D01*
X0021603Y0034069D01*
X0021743Y0034236D01*
X0021887Y0034399D01*
X0022035Y0034558D01*
X0022186Y0034714D01*
X0022342Y0034865D01*
X0022501Y0035013D01*
X0022664Y0035157D01*
X0022831Y0035297D01*
X0023000Y0035433D01*
X0023173Y0035565D01*
X0023349Y0035692D01*
X0023529Y0035815D01*
X0023711Y0035934D01*
X0023896Y0036048D01*
X0024084Y0036157D01*
X0024274Y0036262D01*
X0024467Y0036362D01*
X0024663Y0036458D01*
X0024860Y0036548D01*
X0025060Y0036634D01*
X0025262Y0036714D01*
X0025466Y0036790D01*
X0025671Y0036861D01*
X0025879Y0036927D01*
X0026087Y0036987D01*
X0026298Y0037043D01*
X0026509Y0037093D01*
X0026722Y0037138D01*
X0026936Y0037178D01*
X0027150Y0037212D01*
X0027366Y0037241D01*
X0027582Y0037265D01*
X0027798Y0037284D01*
X0028015Y0037297D01*
X0028233Y0037305D01*
X0028450Y0037308D01*
X0028667Y0037305D01*
X0028885Y0037297D01*
X0029102Y0037284D01*
X0029318Y0037265D01*
X0029534Y0037241D01*
X0029750Y0037212D01*
X0029964Y0037178D01*
X0030178Y0037138D01*
X0030391Y0037093D01*
X0030602Y0037043D01*
X0030813Y0036987D01*
X0031021Y0036927D01*
X0031229Y0036861D01*
X0031434Y0036790D01*
X0031638Y0036714D01*
X0031840Y0036634D01*
X0032040Y0036548D01*
X0032237Y0036458D01*
X0032433Y0036362D01*
X0032626Y0036262D01*
X0032816Y0036157D01*
X0033004Y0036048D01*
X0033189Y0035934D01*
X0033371Y0035815D01*
X0033551Y0035692D01*
X0033727Y0035565D01*
X0033900Y0035433D01*
X0034069Y0035297D01*
X0034236Y0035157D01*
X0034399Y0035013D01*
X0034558Y0034865D01*
X0034714Y0034714D01*
X0034865Y0034558D01*
X0035013Y0034399D01*
X0035157Y0034236D01*
X0035297Y0034069D01*
X0035433Y0033900D01*
X0035565Y0033727D01*
X0035692Y0033551D01*
X0035815Y0033371D01*
X0035934Y0033189D01*
X0036048Y0033004D01*
X0036157Y0032816D01*
X0036262Y0032626D01*
X0036362Y0032433D01*
X0036458Y0032237D01*
X0036548Y0032040D01*
X0036634Y0031840D01*
X0036714Y0031638D01*
X0036790Y0031434D01*
X0036861Y0031229D01*
X0036927Y0031021D01*
X0036987Y0030813D01*
X0037043Y0030602D01*
X0037093Y0030391D01*
X0037138Y0030178D01*
X0037178Y0029964D01*
X0037212Y0029750D01*
X0037241Y0029534D01*
X0037265Y0029318D01*
X0037284Y0029102D01*
X0037297Y0028885D01*
X0037305Y0028667D01*
X0037308Y0028450D01*
X0037305Y0028233D01*
X0037297Y0028015D01*
X0037284Y0027798D01*
X0037265Y0027582D01*
X0037241Y0027366D01*
X0037212Y0027150D01*
X0037178Y0026936D01*
X0037138Y0026722D01*
X0037093Y0026509D01*
X0037043Y0026298D01*
X0036987Y0026087D01*
X0036927Y0025879D01*
X0036861Y0025671D01*
X0036790Y0025466D01*
X0036714Y0025262D01*
X0036634Y0025060D01*
X0036548Y0024860D01*
X0036458Y0024663D01*
X0036362Y0024467D01*
X0036262Y0024274D01*
X0036157Y0024084D01*
X0036048Y0023896D01*
X0035934Y0023711D01*
X0035815Y0023529D01*
X0035692Y0023349D01*
X0035565Y0023173D01*
X0035433Y0023000D01*
X0035297Y0022831D01*
X0035157Y0022664D01*
X0035013Y0022501D01*
X0034865Y0022342D01*
X0034714Y0022186D01*
X0034558Y0022035D01*
X0034399Y0021887D01*
X0034236Y0021743D01*
X0034069Y0021603D01*
X0033900Y0021467D01*
X0033727Y0021335D01*
X0033551Y0021208D01*
X0033371Y0021085D01*
X0033189Y0020966D01*
X0033004Y0020852D01*
X0032816Y0020743D01*
X0032626Y0020638D01*
X0032433Y0020538D01*
X0032237Y0020442D01*
X0032040Y0020352D01*
X0031840Y0020266D01*
X0031638Y0020186D01*
X0031434Y0020110D01*
X0031229Y0020039D01*
X0031021Y0019973D01*
X0030813Y0019913D01*
X0030602Y0019857D01*
X0030391Y0019807D01*
X0030178Y0019762D01*
X0029964Y0019722D01*
X0029750Y0019688D01*
X0029534Y0019659D01*
X0029318Y0019635D01*
X0029102Y0019616D01*
X0028885Y0019603D01*
X0028667Y0019595D01*
X0028450Y0019592D01*
X0028233Y0019595D01*
X0028015Y0019603D01*
X0027798Y0019616D01*
X0027582Y0019635D01*
X0027366Y0019659D01*
X0027150Y0019688D01*
X0026936Y0019722D01*
X0026722Y0019762D01*
X0026509Y0019807D01*
X0026298Y0019857D01*
X0026087Y0019913D01*
X0025879Y0019973D01*
X0025671Y0020039D01*
X0025466Y0020110D01*
X0025262Y0020186D01*
X0025060Y0020266D01*
X0024860Y0020352D01*
X0024663Y0020442D01*
X0024467Y0020538D01*
X0024274Y0020638D01*
X0024084Y0020743D01*
X0023896Y0020852D01*
X0023711Y0020966D01*
X0023529Y0021085D01*
X0023349Y0021208D01*
X0023173Y0021335D01*
X0023000Y0021467D01*
X0022831Y0021603D01*
X0022664Y0021743D01*
X0022501Y0021887D01*
X0022342Y0022035D01*
X0022186Y0022186D01*
X0022035Y0022342D01*
X0021887Y0022501D01*
X0021743Y0022664D01*
X0021603Y0022831D01*
X0021467Y0023000D01*
X0021335Y0023173D01*
X0021208Y0023349D01*
X0021085Y0023529D01*
X0020966Y0023711D01*
X0020852Y0023896D01*
X0020743Y0024084D01*
X0020638Y0024274D01*
X0020538Y0024467D01*
X0020442Y0024663D01*
X0020352Y0024860D01*
X0020266Y0025060D01*
X0020186Y0025262D01*
X0020110Y0025466D01*
X0020039Y0025671D01*
X0019973Y0025879D01*
X0019913Y0026087D01*
X0019857Y0026298D01*
X0019807Y0026509D01*
X0019762Y0026722D01*
X0019722Y0026936D01*
X0019688Y0027150D01*
X0019659Y0027366D01*
X0019635Y0027582D01*
X0019616Y0027798D01*
X0019603Y0028015D01*
X0019595Y0028233D01*
X0019592Y0028450D01*
X0126088Y0028450D02*
X0126090Y0028611D01*
X0126096Y0028771D01*
X0126106Y0028932D01*
X0126120Y0029092D01*
X0126138Y0029251D01*
X0126159Y0029411D01*
X0126185Y0029569D01*
X0126215Y0029727D01*
X0126248Y0029884D01*
X0126286Y0030041D01*
X0126327Y0030196D01*
X0126372Y0030350D01*
X0126421Y0030503D01*
X0126474Y0030655D01*
X0126530Y0030805D01*
X0126590Y0030954D01*
X0126654Y0031102D01*
X0126721Y0031248D01*
X0126792Y0031392D01*
X0126867Y0031534D01*
X0126945Y0031675D01*
X0127026Y0031813D01*
X0127111Y0031950D01*
X0127200Y0032084D01*
X0127291Y0032216D01*
X0127386Y0032346D01*
X0127484Y0032473D01*
X0127585Y0032598D01*
X0127689Y0032721D01*
X0127796Y0032840D01*
X0127906Y0032957D01*
X0128019Y0033072D01*
X0128135Y0033183D01*
X0128253Y0033292D01*
X0128374Y0033397D01*
X0128498Y0033500D01*
X0128624Y0033600D01*
X0128753Y0033696D01*
X0128884Y0033789D01*
X0129017Y0033879D01*
X0129152Y0033966D01*
X0129290Y0034049D01*
X0129429Y0034128D01*
X0129571Y0034205D01*
X0129714Y0034278D01*
X0129859Y0034347D01*
X0130006Y0034412D01*
X0130154Y0034474D01*
X0130304Y0034533D01*
X0130455Y0034587D01*
X0130607Y0034638D01*
X0130761Y0034685D01*
X0130916Y0034728D01*
X0131071Y0034767D01*
X0131228Y0034803D01*
X0131386Y0034835D01*
X0131544Y0034862D01*
X0131703Y0034886D01*
X0131862Y0034906D01*
X0132022Y0034922D01*
X0132183Y0034934D01*
X0132343Y0034942D01*
X0132504Y0034946D01*
X0132664Y0034946D01*
X0132825Y0034942D01*
X0132985Y0034934D01*
X0133146Y0034922D01*
X0133306Y0034906D01*
X0133465Y0034886D01*
X0133624Y0034862D01*
X0133782Y0034835D01*
X0133940Y0034803D01*
X0134097Y0034767D01*
X0134252Y0034728D01*
X0134407Y0034685D01*
X0134561Y0034638D01*
X0134713Y0034587D01*
X0134864Y0034533D01*
X0135014Y0034474D01*
X0135162Y0034412D01*
X0135309Y0034347D01*
X0135454Y0034278D01*
X0135597Y0034205D01*
X0135739Y0034128D01*
X0135878Y0034049D01*
X0136016Y0033966D01*
X0136151Y0033879D01*
X0136284Y0033789D01*
X0136415Y0033696D01*
X0136544Y0033600D01*
X0136670Y0033500D01*
X0136794Y0033397D01*
X0136915Y0033292D01*
X0137033Y0033183D01*
X0137149Y0033072D01*
X0137262Y0032957D01*
X0137372Y0032840D01*
X0137479Y0032721D01*
X0137583Y0032598D01*
X0137684Y0032473D01*
X0137782Y0032346D01*
X0137877Y0032216D01*
X0137968Y0032084D01*
X0138057Y0031950D01*
X0138142Y0031813D01*
X0138223Y0031675D01*
X0138301Y0031534D01*
X0138376Y0031392D01*
X0138447Y0031248D01*
X0138514Y0031102D01*
X0138578Y0030954D01*
X0138638Y0030805D01*
X0138694Y0030655D01*
X0138747Y0030503D01*
X0138796Y0030350D01*
X0138841Y0030196D01*
X0138882Y0030041D01*
X0138920Y0029884D01*
X0138953Y0029727D01*
X0138983Y0029569D01*
X0139009Y0029411D01*
X0139030Y0029251D01*
X0139048Y0029092D01*
X0139062Y0028932D01*
X0139072Y0028771D01*
X0139078Y0028611D01*
X0139080Y0028450D01*
X0139078Y0028289D01*
X0139072Y0028129D01*
X0139062Y0027968D01*
X0139048Y0027808D01*
X0139030Y0027649D01*
X0139009Y0027489D01*
X0138983Y0027331D01*
X0138953Y0027173D01*
X0138920Y0027016D01*
X0138882Y0026859D01*
X0138841Y0026704D01*
X0138796Y0026550D01*
X0138747Y0026397D01*
X0138694Y0026245D01*
X0138638Y0026095D01*
X0138578Y0025946D01*
X0138514Y0025798D01*
X0138447Y0025652D01*
X0138376Y0025508D01*
X0138301Y0025366D01*
X0138223Y0025225D01*
X0138142Y0025087D01*
X0138057Y0024950D01*
X0137968Y0024816D01*
X0137877Y0024684D01*
X0137782Y0024554D01*
X0137684Y0024427D01*
X0137583Y0024302D01*
X0137479Y0024179D01*
X0137372Y0024060D01*
X0137262Y0023943D01*
X0137149Y0023828D01*
X0137033Y0023717D01*
X0136915Y0023608D01*
X0136794Y0023503D01*
X0136670Y0023400D01*
X0136544Y0023300D01*
X0136415Y0023204D01*
X0136284Y0023111D01*
X0136151Y0023021D01*
X0136016Y0022934D01*
X0135878Y0022851D01*
X0135739Y0022772D01*
X0135597Y0022695D01*
X0135454Y0022622D01*
X0135309Y0022553D01*
X0135162Y0022488D01*
X0135014Y0022426D01*
X0134864Y0022367D01*
X0134713Y0022313D01*
X0134561Y0022262D01*
X0134407Y0022215D01*
X0134252Y0022172D01*
X0134097Y0022133D01*
X0133940Y0022097D01*
X0133782Y0022065D01*
X0133624Y0022038D01*
X0133465Y0022014D01*
X0133306Y0021994D01*
X0133146Y0021978D01*
X0132985Y0021966D01*
X0132825Y0021958D01*
X0132664Y0021954D01*
X0132504Y0021954D01*
X0132343Y0021958D01*
X0132183Y0021966D01*
X0132022Y0021978D01*
X0131862Y0021994D01*
X0131703Y0022014D01*
X0131544Y0022038D01*
X0131386Y0022065D01*
X0131228Y0022097D01*
X0131071Y0022133D01*
X0130916Y0022172D01*
X0130761Y0022215D01*
X0130607Y0022262D01*
X0130455Y0022313D01*
X0130304Y0022367D01*
X0130154Y0022426D01*
X0130006Y0022488D01*
X0129859Y0022553D01*
X0129714Y0022622D01*
X0129571Y0022695D01*
X0129429Y0022772D01*
X0129290Y0022851D01*
X0129152Y0022934D01*
X0129017Y0023021D01*
X0128884Y0023111D01*
X0128753Y0023204D01*
X0128624Y0023300D01*
X0128498Y0023400D01*
X0128374Y0023503D01*
X0128253Y0023608D01*
X0128135Y0023717D01*
X0128019Y0023828D01*
X0127906Y0023943D01*
X0127796Y0024060D01*
X0127689Y0024179D01*
X0127585Y0024302D01*
X0127484Y0024427D01*
X0127386Y0024554D01*
X0127291Y0024684D01*
X0127200Y0024816D01*
X0127111Y0024950D01*
X0127026Y0025087D01*
X0126945Y0025225D01*
X0126867Y0025366D01*
X0126792Y0025508D01*
X0126721Y0025652D01*
X0126654Y0025798D01*
X0126590Y0025946D01*
X0126530Y0026095D01*
X0126474Y0026245D01*
X0126421Y0026397D01*
X0126372Y0026550D01*
X0126327Y0026704D01*
X0126286Y0026859D01*
X0126248Y0027016D01*
X0126215Y0027173D01*
X0126185Y0027331D01*
X0126159Y0027489D01*
X0126138Y0027649D01*
X0126120Y0027808D01*
X0126106Y0027968D01*
X0126096Y0028129D01*
X0126090Y0028289D01*
X0126088Y0028450D01*
X0271954Y0028450D02*
X0271956Y0028611D01*
X0271962Y0028771D01*
X0271972Y0028932D01*
X0271986Y0029092D01*
X0272004Y0029251D01*
X0272025Y0029411D01*
X0272051Y0029569D01*
X0272081Y0029727D01*
X0272114Y0029884D01*
X0272152Y0030041D01*
X0272193Y0030196D01*
X0272238Y0030350D01*
X0272287Y0030503D01*
X0272340Y0030655D01*
X0272396Y0030805D01*
X0272456Y0030954D01*
X0272520Y0031102D01*
X0272587Y0031248D01*
X0272658Y0031392D01*
X0272733Y0031534D01*
X0272811Y0031675D01*
X0272892Y0031813D01*
X0272977Y0031950D01*
X0273066Y0032084D01*
X0273157Y0032216D01*
X0273252Y0032346D01*
X0273350Y0032473D01*
X0273451Y0032598D01*
X0273555Y0032721D01*
X0273662Y0032840D01*
X0273772Y0032957D01*
X0273885Y0033072D01*
X0274001Y0033183D01*
X0274119Y0033292D01*
X0274240Y0033397D01*
X0274364Y0033500D01*
X0274490Y0033600D01*
X0274619Y0033696D01*
X0274750Y0033789D01*
X0274883Y0033879D01*
X0275018Y0033966D01*
X0275156Y0034049D01*
X0275295Y0034128D01*
X0275437Y0034205D01*
X0275580Y0034278D01*
X0275725Y0034347D01*
X0275872Y0034412D01*
X0276020Y0034474D01*
X0276170Y0034533D01*
X0276321Y0034587D01*
X0276473Y0034638D01*
X0276627Y0034685D01*
X0276782Y0034728D01*
X0276937Y0034767D01*
X0277094Y0034803D01*
X0277252Y0034835D01*
X0277410Y0034862D01*
X0277569Y0034886D01*
X0277728Y0034906D01*
X0277888Y0034922D01*
X0278049Y0034934D01*
X0278209Y0034942D01*
X0278370Y0034946D01*
X0278530Y0034946D01*
X0278691Y0034942D01*
X0278851Y0034934D01*
X0279012Y0034922D01*
X0279172Y0034906D01*
X0279331Y0034886D01*
X0279490Y0034862D01*
X0279648Y0034835D01*
X0279806Y0034803D01*
X0279963Y0034767D01*
X0280118Y0034728D01*
X0280273Y0034685D01*
X0280427Y0034638D01*
X0280579Y0034587D01*
X0280730Y0034533D01*
X0280880Y0034474D01*
X0281028Y0034412D01*
X0281175Y0034347D01*
X0281320Y0034278D01*
X0281463Y0034205D01*
X0281605Y0034128D01*
X0281744Y0034049D01*
X0281882Y0033966D01*
X0282017Y0033879D01*
X0282150Y0033789D01*
X0282281Y0033696D01*
X0282410Y0033600D01*
X0282536Y0033500D01*
X0282660Y0033397D01*
X0282781Y0033292D01*
X0282899Y0033183D01*
X0283015Y0033072D01*
X0283128Y0032957D01*
X0283238Y0032840D01*
X0283345Y0032721D01*
X0283449Y0032598D01*
X0283550Y0032473D01*
X0283648Y0032346D01*
X0283743Y0032216D01*
X0283834Y0032084D01*
X0283923Y0031950D01*
X0284008Y0031813D01*
X0284089Y0031675D01*
X0284167Y0031534D01*
X0284242Y0031392D01*
X0284313Y0031248D01*
X0284380Y0031102D01*
X0284444Y0030954D01*
X0284504Y0030805D01*
X0284560Y0030655D01*
X0284613Y0030503D01*
X0284662Y0030350D01*
X0284707Y0030196D01*
X0284748Y0030041D01*
X0284786Y0029884D01*
X0284819Y0029727D01*
X0284849Y0029569D01*
X0284875Y0029411D01*
X0284896Y0029251D01*
X0284914Y0029092D01*
X0284928Y0028932D01*
X0284938Y0028771D01*
X0284944Y0028611D01*
X0284946Y0028450D01*
X0284944Y0028289D01*
X0284938Y0028129D01*
X0284928Y0027968D01*
X0284914Y0027808D01*
X0284896Y0027649D01*
X0284875Y0027489D01*
X0284849Y0027331D01*
X0284819Y0027173D01*
X0284786Y0027016D01*
X0284748Y0026859D01*
X0284707Y0026704D01*
X0284662Y0026550D01*
X0284613Y0026397D01*
X0284560Y0026245D01*
X0284504Y0026095D01*
X0284444Y0025946D01*
X0284380Y0025798D01*
X0284313Y0025652D01*
X0284242Y0025508D01*
X0284167Y0025366D01*
X0284089Y0025225D01*
X0284008Y0025087D01*
X0283923Y0024950D01*
X0283834Y0024816D01*
X0283743Y0024684D01*
X0283648Y0024554D01*
X0283550Y0024427D01*
X0283449Y0024302D01*
X0283345Y0024179D01*
X0283238Y0024060D01*
X0283128Y0023943D01*
X0283015Y0023828D01*
X0282899Y0023717D01*
X0282781Y0023608D01*
X0282660Y0023503D01*
X0282536Y0023400D01*
X0282410Y0023300D01*
X0282281Y0023204D01*
X0282150Y0023111D01*
X0282017Y0023021D01*
X0281882Y0022934D01*
X0281744Y0022851D01*
X0281605Y0022772D01*
X0281463Y0022695D01*
X0281320Y0022622D01*
X0281175Y0022553D01*
X0281028Y0022488D01*
X0280880Y0022426D01*
X0280730Y0022367D01*
X0280579Y0022313D01*
X0280427Y0022262D01*
X0280273Y0022215D01*
X0280118Y0022172D01*
X0279963Y0022133D01*
X0279806Y0022097D01*
X0279648Y0022065D01*
X0279490Y0022038D01*
X0279331Y0022014D01*
X0279172Y0021994D01*
X0279012Y0021978D01*
X0278851Y0021966D01*
X0278691Y0021958D01*
X0278530Y0021954D01*
X0278370Y0021954D01*
X0278209Y0021958D01*
X0278049Y0021966D01*
X0277888Y0021978D01*
X0277728Y0021994D01*
X0277569Y0022014D01*
X0277410Y0022038D01*
X0277252Y0022065D01*
X0277094Y0022097D01*
X0276937Y0022133D01*
X0276782Y0022172D01*
X0276627Y0022215D01*
X0276473Y0022262D01*
X0276321Y0022313D01*
X0276170Y0022367D01*
X0276020Y0022426D01*
X0275872Y0022488D01*
X0275725Y0022553D01*
X0275580Y0022622D01*
X0275437Y0022695D01*
X0275295Y0022772D01*
X0275156Y0022851D01*
X0275018Y0022934D01*
X0274883Y0023021D01*
X0274750Y0023111D01*
X0274619Y0023204D01*
X0274490Y0023300D01*
X0274364Y0023400D01*
X0274240Y0023503D01*
X0274119Y0023608D01*
X0274001Y0023717D01*
X0273885Y0023828D01*
X0273772Y0023943D01*
X0273662Y0024060D01*
X0273555Y0024179D01*
X0273451Y0024302D01*
X0273350Y0024427D01*
X0273252Y0024554D01*
X0273157Y0024684D01*
X0273066Y0024816D01*
X0272977Y0024950D01*
X0272892Y0025087D01*
X0272811Y0025225D01*
X0272733Y0025366D01*
X0272658Y0025508D01*
X0272587Y0025652D01*
X0272520Y0025798D01*
X0272456Y0025946D01*
X0272396Y0026095D01*
X0272340Y0026245D01*
X0272287Y0026397D01*
X0272238Y0026550D01*
X0272193Y0026704D01*
X0272152Y0026859D01*
X0272114Y0027016D01*
X0272081Y0027173D01*
X0272051Y0027331D01*
X0272025Y0027489D01*
X0272004Y0027649D01*
X0271986Y0027808D01*
X0271972Y0027968D01*
X0271962Y0028129D01*
X0271956Y0028289D01*
X0271954Y0028450D01*
X0373726Y0028450D02*
X0373729Y0028667D01*
X0373737Y0028885D01*
X0373750Y0029102D01*
X0373769Y0029318D01*
X0373793Y0029534D01*
X0373822Y0029750D01*
X0373856Y0029964D01*
X0373896Y0030178D01*
X0373941Y0030391D01*
X0373991Y0030602D01*
X0374047Y0030813D01*
X0374107Y0031021D01*
X0374173Y0031229D01*
X0374244Y0031434D01*
X0374320Y0031638D01*
X0374400Y0031840D01*
X0374486Y0032040D01*
X0374576Y0032237D01*
X0374672Y0032433D01*
X0374772Y0032626D01*
X0374877Y0032816D01*
X0374986Y0033004D01*
X0375100Y0033189D01*
X0375219Y0033371D01*
X0375342Y0033551D01*
X0375469Y0033727D01*
X0375601Y0033900D01*
X0375737Y0034069D01*
X0375877Y0034236D01*
X0376021Y0034399D01*
X0376169Y0034558D01*
X0376320Y0034714D01*
X0376476Y0034865D01*
X0376635Y0035013D01*
X0376798Y0035157D01*
X0376965Y0035297D01*
X0377134Y0035433D01*
X0377307Y0035565D01*
X0377483Y0035692D01*
X0377663Y0035815D01*
X0377845Y0035934D01*
X0378030Y0036048D01*
X0378218Y0036157D01*
X0378408Y0036262D01*
X0378601Y0036362D01*
X0378797Y0036458D01*
X0378994Y0036548D01*
X0379194Y0036634D01*
X0379396Y0036714D01*
X0379600Y0036790D01*
X0379805Y0036861D01*
X0380013Y0036927D01*
X0380221Y0036987D01*
X0380432Y0037043D01*
X0380643Y0037093D01*
X0380856Y0037138D01*
X0381070Y0037178D01*
X0381284Y0037212D01*
X0381500Y0037241D01*
X0381716Y0037265D01*
X0381932Y0037284D01*
X0382149Y0037297D01*
X0382367Y0037305D01*
X0382584Y0037308D01*
X0382801Y0037305D01*
X0383019Y0037297D01*
X0383236Y0037284D01*
X0383452Y0037265D01*
X0383668Y0037241D01*
X0383884Y0037212D01*
X0384098Y0037178D01*
X0384312Y0037138D01*
X0384525Y0037093D01*
X0384736Y0037043D01*
X0384947Y0036987D01*
X0385155Y0036927D01*
X0385363Y0036861D01*
X0385568Y0036790D01*
X0385772Y0036714D01*
X0385974Y0036634D01*
X0386174Y0036548D01*
X0386371Y0036458D01*
X0386567Y0036362D01*
X0386760Y0036262D01*
X0386950Y0036157D01*
X0387138Y0036048D01*
X0387323Y0035934D01*
X0387505Y0035815D01*
X0387685Y0035692D01*
X0387861Y0035565D01*
X0388034Y0035433D01*
X0388203Y0035297D01*
X0388370Y0035157D01*
X0388533Y0035013D01*
X0388692Y0034865D01*
X0388848Y0034714D01*
X0388999Y0034558D01*
X0389147Y0034399D01*
X0389291Y0034236D01*
X0389431Y0034069D01*
X0389567Y0033900D01*
X0389699Y0033727D01*
X0389826Y0033551D01*
X0389949Y0033371D01*
X0390068Y0033189D01*
X0390182Y0033004D01*
X0390291Y0032816D01*
X0390396Y0032626D01*
X0390496Y0032433D01*
X0390592Y0032237D01*
X0390682Y0032040D01*
X0390768Y0031840D01*
X0390848Y0031638D01*
X0390924Y0031434D01*
X0390995Y0031229D01*
X0391061Y0031021D01*
X0391121Y0030813D01*
X0391177Y0030602D01*
X0391227Y0030391D01*
X0391272Y0030178D01*
X0391312Y0029964D01*
X0391346Y0029750D01*
X0391375Y0029534D01*
X0391399Y0029318D01*
X0391418Y0029102D01*
X0391431Y0028885D01*
X0391439Y0028667D01*
X0391442Y0028450D01*
X0391439Y0028233D01*
X0391431Y0028015D01*
X0391418Y0027798D01*
X0391399Y0027582D01*
X0391375Y0027366D01*
X0391346Y0027150D01*
X0391312Y0026936D01*
X0391272Y0026722D01*
X0391227Y0026509D01*
X0391177Y0026298D01*
X0391121Y0026087D01*
X0391061Y0025879D01*
X0390995Y0025671D01*
X0390924Y0025466D01*
X0390848Y0025262D01*
X0390768Y0025060D01*
X0390682Y0024860D01*
X0390592Y0024663D01*
X0390496Y0024467D01*
X0390396Y0024274D01*
X0390291Y0024084D01*
X0390182Y0023896D01*
X0390068Y0023711D01*
X0389949Y0023529D01*
X0389826Y0023349D01*
X0389699Y0023173D01*
X0389567Y0023000D01*
X0389431Y0022831D01*
X0389291Y0022664D01*
X0389147Y0022501D01*
X0388999Y0022342D01*
X0388848Y0022186D01*
X0388692Y0022035D01*
X0388533Y0021887D01*
X0388370Y0021743D01*
X0388203Y0021603D01*
X0388034Y0021467D01*
X0387861Y0021335D01*
X0387685Y0021208D01*
X0387505Y0021085D01*
X0387323Y0020966D01*
X0387138Y0020852D01*
X0386950Y0020743D01*
X0386760Y0020638D01*
X0386567Y0020538D01*
X0386371Y0020442D01*
X0386174Y0020352D01*
X0385974Y0020266D01*
X0385772Y0020186D01*
X0385568Y0020110D01*
X0385363Y0020039D01*
X0385155Y0019973D01*
X0384947Y0019913D01*
X0384736Y0019857D01*
X0384525Y0019807D01*
X0384312Y0019762D01*
X0384098Y0019722D01*
X0383884Y0019688D01*
X0383668Y0019659D01*
X0383452Y0019635D01*
X0383236Y0019616D01*
X0383019Y0019603D01*
X0382801Y0019595D01*
X0382584Y0019592D01*
X0382367Y0019595D01*
X0382149Y0019603D01*
X0381932Y0019616D01*
X0381716Y0019635D01*
X0381500Y0019659D01*
X0381284Y0019688D01*
X0381070Y0019722D01*
X0380856Y0019762D01*
X0380643Y0019807D01*
X0380432Y0019857D01*
X0380221Y0019913D01*
X0380013Y0019973D01*
X0379805Y0020039D01*
X0379600Y0020110D01*
X0379396Y0020186D01*
X0379194Y0020266D01*
X0378994Y0020352D01*
X0378797Y0020442D01*
X0378601Y0020538D01*
X0378408Y0020638D01*
X0378218Y0020743D01*
X0378030Y0020852D01*
X0377845Y0020966D01*
X0377663Y0021085D01*
X0377483Y0021208D01*
X0377307Y0021335D01*
X0377134Y0021467D01*
X0376965Y0021603D01*
X0376798Y0021743D01*
X0376635Y0021887D01*
X0376476Y0022035D01*
X0376320Y0022186D01*
X0376169Y0022342D01*
X0376021Y0022501D01*
X0375877Y0022664D01*
X0375737Y0022831D01*
X0375601Y0023000D01*
X0375469Y0023173D01*
X0375342Y0023349D01*
X0375219Y0023529D01*
X0375100Y0023711D01*
X0374986Y0023896D01*
X0374877Y0024084D01*
X0374772Y0024274D01*
X0374672Y0024467D01*
X0374576Y0024663D01*
X0374486Y0024860D01*
X0374400Y0025060D01*
X0374320Y0025262D01*
X0374244Y0025466D01*
X0374173Y0025671D01*
X0374107Y0025879D01*
X0374047Y0026087D01*
X0373991Y0026298D01*
X0373941Y0026509D01*
X0373896Y0026722D01*
X0373856Y0026936D01*
X0373822Y0027150D01*
X0373793Y0027366D01*
X0373769Y0027582D01*
X0373750Y0027798D01*
X0373737Y0028015D01*
X0373729Y0028233D01*
X0373726Y0028450D01*
X0373726Y0310930D02*
X0373729Y0311147D01*
X0373737Y0311365D01*
X0373750Y0311582D01*
X0373769Y0311798D01*
X0373793Y0312014D01*
X0373822Y0312230D01*
X0373856Y0312444D01*
X0373896Y0312658D01*
X0373941Y0312871D01*
X0373991Y0313082D01*
X0374047Y0313293D01*
X0374107Y0313501D01*
X0374173Y0313709D01*
X0374244Y0313914D01*
X0374320Y0314118D01*
X0374400Y0314320D01*
X0374486Y0314520D01*
X0374576Y0314717D01*
X0374672Y0314913D01*
X0374772Y0315106D01*
X0374877Y0315296D01*
X0374986Y0315484D01*
X0375100Y0315669D01*
X0375219Y0315851D01*
X0375342Y0316031D01*
X0375469Y0316207D01*
X0375601Y0316380D01*
X0375737Y0316549D01*
X0375877Y0316716D01*
X0376021Y0316879D01*
X0376169Y0317038D01*
X0376320Y0317194D01*
X0376476Y0317345D01*
X0376635Y0317493D01*
X0376798Y0317637D01*
X0376965Y0317777D01*
X0377134Y0317913D01*
X0377307Y0318045D01*
X0377483Y0318172D01*
X0377663Y0318295D01*
X0377845Y0318414D01*
X0378030Y0318528D01*
X0378218Y0318637D01*
X0378408Y0318742D01*
X0378601Y0318842D01*
X0378797Y0318938D01*
X0378994Y0319028D01*
X0379194Y0319114D01*
X0379396Y0319194D01*
X0379600Y0319270D01*
X0379805Y0319341D01*
X0380013Y0319407D01*
X0380221Y0319467D01*
X0380432Y0319523D01*
X0380643Y0319573D01*
X0380856Y0319618D01*
X0381070Y0319658D01*
X0381284Y0319692D01*
X0381500Y0319721D01*
X0381716Y0319745D01*
X0381932Y0319764D01*
X0382149Y0319777D01*
X0382367Y0319785D01*
X0382584Y0319788D01*
X0382801Y0319785D01*
X0383019Y0319777D01*
X0383236Y0319764D01*
X0383452Y0319745D01*
X0383668Y0319721D01*
X0383884Y0319692D01*
X0384098Y0319658D01*
X0384312Y0319618D01*
X0384525Y0319573D01*
X0384736Y0319523D01*
X0384947Y0319467D01*
X0385155Y0319407D01*
X0385363Y0319341D01*
X0385568Y0319270D01*
X0385772Y0319194D01*
X0385974Y0319114D01*
X0386174Y0319028D01*
X0386371Y0318938D01*
X0386567Y0318842D01*
X0386760Y0318742D01*
X0386950Y0318637D01*
X0387138Y0318528D01*
X0387323Y0318414D01*
X0387505Y0318295D01*
X0387685Y0318172D01*
X0387861Y0318045D01*
X0388034Y0317913D01*
X0388203Y0317777D01*
X0388370Y0317637D01*
X0388533Y0317493D01*
X0388692Y0317345D01*
X0388848Y0317194D01*
X0388999Y0317038D01*
X0389147Y0316879D01*
X0389291Y0316716D01*
X0389431Y0316549D01*
X0389567Y0316380D01*
X0389699Y0316207D01*
X0389826Y0316031D01*
X0389949Y0315851D01*
X0390068Y0315669D01*
X0390182Y0315484D01*
X0390291Y0315296D01*
X0390396Y0315106D01*
X0390496Y0314913D01*
X0390592Y0314717D01*
X0390682Y0314520D01*
X0390768Y0314320D01*
X0390848Y0314118D01*
X0390924Y0313914D01*
X0390995Y0313709D01*
X0391061Y0313501D01*
X0391121Y0313293D01*
X0391177Y0313082D01*
X0391227Y0312871D01*
X0391272Y0312658D01*
X0391312Y0312444D01*
X0391346Y0312230D01*
X0391375Y0312014D01*
X0391399Y0311798D01*
X0391418Y0311582D01*
X0391431Y0311365D01*
X0391439Y0311147D01*
X0391442Y0310930D01*
X0391439Y0310713D01*
X0391431Y0310495D01*
X0391418Y0310278D01*
X0391399Y0310062D01*
X0391375Y0309846D01*
X0391346Y0309630D01*
X0391312Y0309416D01*
X0391272Y0309202D01*
X0391227Y0308989D01*
X0391177Y0308778D01*
X0391121Y0308567D01*
X0391061Y0308359D01*
X0390995Y0308151D01*
X0390924Y0307946D01*
X0390848Y0307742D01*
X0390768Y0307540D01*
X0390682Y0307340D01*
X0390592Y0307143D01*
X0390496Y0306947D01*
X0390396Y0306754D01*
X0390291Y0306564D01*
X0390182Y0306376D01*
X0390068Y0306191D01*
X0389949Y0306009D01*
X0389826Y0305829D01*
X0389699Y0305653D01*
X0389567Y0305480D01*
X0389431Y0305311D01*
X0389291Y0305144D01*
X0389147Y0304981D01*
X0388999Y0304822D01*
X0388848Y0304666D01*
X0388692Y0304515D01*
X0388533Y0304367D01*
X0388370Y0304223D01*
X0388203Y0304083D01*
X0388034Y0303947D01*
X0387861Y0303815D01*
X0387685Y0303688D01*
X0387505Y0303565D01*
X0387323Y0303446D01*
X0387138Y0303332D01*
X0386950Y0303223D01*
X0386760Y0303118D01*
X0386567Y0303018D01*
X0386371Y0302922D01*
X0386174Y0302832D01*
X0385974Y0302746D01*
X0385772Y0302666D01*
X0385568Y0302590D01*
X0385363Y0302519D01*
X0385155Y0302453D01*
X0384947Y0302393D01*
X0384736Y0302337D01*
X0384525Y0302287D01*
X0384312Y0302242D01*
X0384098Y0302202D01*
X0383884Y0302168D01*
X0383668Y0302139D01*
X0383452Y0302115D01*
X0383236Y0302096D01*
X0383019Y0302083D01*
X0382801Y0302075D01*
X0382584Y0302072D01*
X0382367Y0302075D01*
X0382149Y0302083D01*
X0381932Y0302096D01*
X0381716Y0302115D01*
X0381500Y0302139D01*
X0381284Y0302168D01*
X0381070Y0302202D01*
X0380856Y0302242D01*
X0380643Y0302287D01*
X0380432Y0302337D01*
X0380221Y0302393D01*
X0380013Y0302453D01*
X0379805Y0302519D01*
X0379600Y0302590D01*
X0379396Y0302666D01*
X0379194Y0302746D01*
X0378994Y0302832D01*
X0378797Y0302922D01*
X0378601Y0303018D01*
X0378408Y0303118D01*
X0378218Y0303223D01*
X0378030Y0303332D01*
X0377845Y0303446D01*
X0377663Y0303565D01*
X0377483Y0303688D01*
X0377307Y0303815D01*
X0377134Y0303947D01*
X0376965Y0304083D01*
X0376798Y0304223D01*
X0376635Y0304367D01*
X0376476Y0304515D01*
X0376320Y0304666D01*
X0376169Y0304822D01*
X0376021Y0304981D01*
X0375877Y0305144D01*
X0375737Y0305311D01*
X0375601Y0305480D01*
X0375469Y0305653D01*
X0375342Y0305829D01*
X0375219Y0306009D01*
X0375100Y0306191D01*
X0374986Y0306376D01*
X0374877Y0306564D01*
X0374772Y0306754D01*
X0374672Y0306947D01*
X0374576Y0307143D01*
X0374486Y0307340D01*
X0374400Y0307540D01*
X0374320Y0307742D01*
X0374244Y0307946D01*
X0374173Y0308151D01*
X0374107Y0308359D01*
X0374047Y0308567D01*
X0373991Y0308778D01*
X0373941Y0308989D01*
X0373896Y0309202D01*
X0373856Y0309416D01*
X0373822Y0309630D01*
X0373793Y0309846D01*
X0373769Y0310062D01*
X0373750Y0310278D01*
X0373737Y0310495D01*
X0373729Y0310713D01*
X0373726Y0310930D01*
X0019592Y0310930D02*
X0019595Y0311147D01*
X0019603Y0311365D01*
X0019616Y0311582D01*
X0019635Y0311798D01*
X0019659Y0312014D01*
X0019688Y0312230D01*
X0019722Y0312444D01*
X0019762Y0312658D01*
X0019807Y0312871D01*
X0019857Y0313082D01*
X0019913Y0313293D01*
X0019973Y0313501D01*
X0020039Y0313709D01*
X0020110Y0313914D01*
X0020186Y0314118D01*
X0020266Y0314320D01*
X0020352Y0314520D01*
X0020442Y0314717D01*
X0020538Y0314913D01*
X0020638Y0315106D01*
X0020743Y0315296D01*
X0020852Y0315484D01*
X0020966Y0315669D01*
X0021085Y0315851D01*
X0021208Y0316031D01*
X0021335Y0316207D01*
X0021467Y0316380D01*
X0021603Y0316549D01*
X0021743Y0316716D01*
X0021887Y0316879D01*
X0022035Y0317038D01*
X0022186Y0317194D01*
X0022342Y0317345D01*
X0022501Y0317493D01*
X0022664Y0317637D01*
X0022831Y0317777D01*
X0023000Y0317913D01*
X0023173Y0318045D01*
X0023349Y0318172D01*
X0023529Y0318295D01*
X0023711Y0318414D01*
X0023896Y0318528D01*
X0024084Y0318637D01*
X0024274Y0318742D01*
X0024467Y0318842D01*
X0024663Y0318938D01*
X0024860Y0319028D01*
X0025060Y0319114D01*
X0025262Y0319194D01*
X0025466Y0319270D01*
X0025671Y0319341D01*
X0025879Y0319407D01*
X0026087Y0319467D01*
X0026298Y0319523D01*
X0026509Y0319573D01*
X0026722Y0319618D01*
X0026936Y0319658D01*
X0027150Y0319692D01*
X0027366Y0319721D01*
X0027582Y0319745D01*
X0027798Y0319764D01*
X0028015Y0319777D01*
X0028233Y0319785D01*
X0028450Y0319788D01*
X0028667Y0319785D01*
X0028885Y0319777D01*
X0029102Y0319764D01*
X0029318Y0319745D01*
X0029534Y0319721D01*
X0029750Y0319692D01*
X0029964Y0319658D01*
X0030178Y0319618D01*
X0030391Y0319573D01*
X0030602Y0319523D01*
X0030813Y0319467D01*
X0031021Y0319407D01*
X0031229Y0319341D01*
X0031434Y0319270D01*
X0031638Y0319194D01*
X0031840Y0319114D01*
X0032040Y0319028D01*
X0032237Y0318938D01*
X0032433Y0318842D01*
X0032626Y0318742D01*
X0032816Y0318637D01*
X0033004Y0318528D01*
X0033189Y0318414D01*
X0033371Y0318295D01*
X0033551Y0318172D01*
X0033727Y0318045D01*
X0033900Y0317913D01*
X0034069Y0317777D01*
X0034236Y0317637D01*
X0034399Y0317493D01*
X0034558Y0317345D01*
X0034714Y0317194D01*
X0034865Y0317038D01*
X0035013Y0316879D01*
X0035157Y0316716D01*
X0035297Y0316549D01*
X0035433Y0316380D01*
X0035565Y0316207D01*
X0035692Y0316031D01*
X0035815Y0315851D01*
X0035934Y0315669D01*
X0036048Y0315484D01*
X0036157Y0315296D01*
X0036262Y0315106D01*
X0036362Y0314913D01*
X0036458Y0314717D01*
X0036548Y0314520D01*
X0036634Y0314320D01*
X0036714Y0314118D01*
X0036790Y0313914D01*
X0036861Y0313709D01*
X0036927Y0313501D01*
X0036987Y0313293D01*
X0037043Y0313082D01*
X0037093Y0312871D01*
X0037138Y0312658D01*
X0037178Y0312444D01*
X0037212Y0312230D01*
X0037241Y0312014D01*
X0037265Y0311798D01*
X0037284Y0311582D01*
X0037297Y0311365D01*
X0037305Y0311147D01*
X0037308Y0310930D01*
X0037305Y0310713D01*
X0037297Y0310495D01*
X0037284Y0310278D01*
X0037265Y0310062D01*
X0037241Y0309846D01*
X0037212Y0309630D01*
X0037178Y0309416D01*
X0037138Y0309202D01*
X0037093Y0308989D01*
X0037043Y0308778D01*
X0036987Y0308567D01*
X0036927Y0308359D01*
X0036861Y0308151D01*
X0036790Y0307946D01*
X0036714Y0307742D01*
X0036634Y0307540D01*
X0036548Y0307340D01*
X0036458Y0307143D01*
X0036362Y0306947D01*
X0036262Y0306754D01*
X0036157Y0306564D01*
X0036048Y0306376D01*
X0035934Y0306191D01*
X0035815Y0306009D01*
X0035692Y0305829D01*
X0035565Y0305653D01*
X0035433Y0305480D01*
X0035297Y0305311D01*
X0035157Y0305144D01*
X0035013Y0304981D01*
X0034865Y0304822D01*
X0034714Y0304666D01*
X0034558Y0304515D01*
X0034399Y0304367D01*
X0034236Y0304223D01*
X0034069Y0304083D01*
X0033900Y0303947D01*
X0033727Y0303815D01*
X0033551Y0303688D01*
X0033371Y0303565D01*
X0033189Y0303446D01*
X0033004Y0303332D01*
X0032816Y0303223D01*
X0032626Y0303118D01*
X0032433Y0303018D01*
X0032237Y0302922D01*
X0032040Y0302832D01*
X0031840Y0302746D01*
X0031638Y0302666D01*
X0031434Y0302590D01*
X0031229Y0302519D01*
X0031021Y0302453D01*
X0030813Y0302393D01*
X0030602Y0302337D01*
X0030391Y0302287D01*
X0030178Y0302242D01*
X0029964Y0302202D01*
X0029750Y0302168D01*
X0029534Y0302139D01*
X0029318Y0302115D01*
X0029102Y0302096D01*
X0028885Y0302083D01*
X0028667Y0302075D01*
X0028450Y0302072D01*
X0028233Y0302075D01*
X0028015Y0302083D01*
X0027798Y0302096D01*
X0027582Y0302115D01*
X0027366Y0302139D01*
X0027150Y0302168D01*
X0026936Y0302202D01*
X0026722Y0302242D01*
X0026509Y0302287D01*
X0026298Y0302337D01*
X0026087Y0302393D01*
X0025879Y0302453D01*
X0025671Y0302519D01*
X0025466Y0302590D01*
X0025262Y0302666D01*
X0025060Y0302746D01*
X0024860Y0302832D01*
X0024663Y0302922D01*
X0024467Y0303018D01*
X0024274Y0303118D01*
X0024084Y0303223D01*
X0023896Y0303332D01*
X0023711Y0303446D01*
X0023529Y0303565D01*
X0023349Y0303688D01*
X0023173Y0303815D01*
X0023000Y0303947D01*
X0022831Y0304083D01*
X0022664Y0304223D01*
X0022501Y0304367D01*
X0022342Y0304515D01*
X0022186Y0304666D01*
X0022035Y0304822D01*
X0021887Y0304981D01*
X0021743Y0305144D01*
X0021603Y0305311D01*
X0021467Y0305480D01*
X0021335Y0305653D01*
X0021208Y0305829D01*
X0021085Y0306009D01*
X0020966Y0306191D01*
X0020852Y0306376D01*
X0020743Y0306564D01*
X0020638Y0306754D01*
X0020538Y0306947D01*
X0020442Y0307143D01*
X0020352Y0307340D01*
X0020266Y0307540D01*
X0020186Y0307742D01*
X0020110Y0307946D01*
X0020039Y0308151D01*
X0019973Y0308359D01*
X0019913Y0308567D01*
X0019857Y0308778D01*
X0019807Y0308989D01*
X0019762Y0309202D01*
X0019722Y0309416D01*
X0019688Y0309630D01*
X0019659Y0309846D01*
X0019635Y0310062D01*
X0019616Y0310278D01*
X0019603Y0310495D01*
X0019595Y0310713D01*
X0019592Y0310930D01*
M02*
