G75*
%MOIN*%
%OFA0B0*%
%FSLAX25Y25*%
%IPPOS*%
%LPD*%
%AMOC8*
5,1,8,0,0,1.08239X$1,22.5*
%
%ADD10C,0.15000*%
%ADD11OC8,0.15000*%
%ADD12C,0.05200*%
%ADD13R,0.06496X0.06496*%
%ADD14C,0.05937*%
%ADD15C,0.00000*%
%ADD16C,0.06000*%
%ADD17OC8,0.10000*%
%ADD18C,0.06600*%
%ADD19C,0.07400*%
%ADD20C,0.01600*%
%ADD21R,0.04724X0.04724*%
%ADD22R,0.03169X0.03169*%
%ADD23R,0.03562X0.03562*%
%ADD24C,0.01200*%
%ADD25C,0.05000*%
D10*
X0124237Y0286344D02*
X0124237Y0301344D01*
X0144237Y0301344D02*
X0144237Y0286344D01*
X0164237Y0286344D02*
X0164237Y0301344D01*
X0184237Y0301344D02*
X0184237Y0286344D01*
X0204237Y0286344D02*
X0204237Y0301344D01*
X0224237Y0301344D02*
X0224237Y0286344D01*
X0244237Y0286344D02*
X0244237Y0301344D01*
X0264237Y0301344D02*
X0264237Y0286344D01*
X0284237Y0286344D02*
X0284237Y0301344D01*
X0304237Y0301344D02*
X0304237Y0286344D01*
D11*
X0306048Y0255655D03*
X0326048Y0255655D03*
X0346048Y0255655D03*
X0366048Y0255655D03*
X0116048Y0255655D03*
X0096048Y0255655D03*
X0076048Y0255655D03*
X0056048Y0255655D03*
D12*
X0281048Y0058255D02*
X0281048Y0053055D01*
X0291048Y0053055D02*
X0291048Y0058255D01*
X0301048Y0058255D02*
X0301048Y0053055D01*
X0311048Y0053055D02*
X0311048Y0058255D01*
X0321048Y0058255D02*
X0321048Y0053055D01*
X0331048Y0053055D02*
X0331048Y0058255D01*
X0341048Y0058255D02*
X0341048Y0053055D01*
X0351048Y0053055D02*
X0351048Y0058255D01*
D13*
X0158076Y0090635D03*
X0158076Y0142604D03*
X0085241Y0142604D03*
X0085241Y0090635D03*
D14*
X0282702Y0213474D02*
X0282702Y0219411D01*
X0292702Y0219411D02*
X0292702Y0213474D01*
X0341757Y0213474D02*
X0341757Y0219411D01*
X0351757Y0219411D02*
X0351757Y0213474D01*
X0102298Y0312686D02*
X0102298Y0318623D01*
X0092298Y0318623D02*
X0092298Y0312686D01*
X0082298Y0312686D02*
X0082298Y0318623D01*
X0072298Y0318623D02*
X0072298Y0312686D01*
D15*
X0019592Y0310930D02*
X0019595Y0311147D01*
X0019603Y0311365D01*
X0019616Y0311582D01*
X0019635Y0311798D01*
X0019659Y0312014D01*
X0019688Y0312230D01*
X0019722Y0312444D01*
X0019762Y0312658D01*
X0019807Y0312871D01*
X0019857Y0313082D01*
X0019913Y0313293D01*
X0019973Y0313501D01*
X0020039Y0313709D01*
X0020110Y0313914D01*
X0020186Y0314118D01*
X0020266Y0314320D01*
X0020352Y0314520D01*
X0020442Y0314717D01*
X0020538Y0314913D01*
X0020638Y0315106D01*
X0020743Y0315296D01*
X0020852Y0315484D01*
X0020966Y0315669D01*
X0021085Y0315851D01*
X0021208Y0316031D01*
X0021335Y0316207D01*
X0021467Y0316380D01*
X0021603Y0316549D01*
X0021743Y0316716D01*
X0021887Y0316879D01*
X0022035Y0317038D01*
X0022186Y0317194D01*
X0022342Y0317345D01*
X0022501Y0317493D01*
X0022664Y0317637D01*
X0022831Y0317777D01*
X0023000Y0317913D01*
X0023173Y0318045D01*
X0023349Y0318172D01*
X0023529Y0318295D01*
X0023711Y0318414D01*
X0023896Y0318528D01*
X0024084Y0318637D01*
X0024274Y0318742D01*
X0024467Y0318842D01*
X0024663Y0318938D01*
X0024860Y0319028D01*
X0025060Y0319114D01*
X0025262Y0319194D01*
X0025466Y0319270D01*
X0025671Y0319341D01*
X0025879Y0319407D01*
X0026087Y0319467D01*
X0026298Y0319523D01*
X0026509Y0319573D01*
X0026722Y0319618D01*
X0026936Y0319658D01*
X0027150Y0319692D01*
X0027366Y0319721D01*
X0027582Y0319745D01*
X0027798Y0319764D01*
X0028015Y0319777D01*
X0028233Y0319785D01*
X0028450Y0319788D01*
X0028667Y0319785D01*
X0028885Y0319777D01*
X0029102Y0319764D01*
X0029318Y0319745D01*
X0029534Y0319721D01*
X0029750Y0319692D01*
X0029964Y0319658D01*
X0030178Y0319618D01*
X0030391Y0319573D01*
X0030602Y0319523D01*
X0030813Y0319467D01*
X0031021Y0319407D01*
X0031229Y0319341D01*
X0031434Y0319270D01*
X0031638Y0319194D01*
X0031840Y0319114D01*
X0032040Y0319028D01*
X0032237Y0318938D01*
X0032433Y0318842D01*
X0032626Y0318742D01*
X0032816Y0318637D01*
X0033004Y0318528D01*
X0033189Y0318414D01*
X0033371Y0318295D01*
X0033551Y0318172D01*
X0033727Y0318045D01*
X0033900Y0317913D01*
X0034069Y0317777D01*
X0034236Y0317637D01*
X0034399Y0317493D01*
X0034558Y0317345D01*
X0034714Y0317194D01*
X0034865Y0317038D01*
X0035013Y0316879D01*
X0035157Y0316716D01*
X0035297Y0316549D01*
X0035433Y0316380D01*
X0035565Y0316207D01*
X0035692Y0316031D01*
X0035815Y0315851D01*
X0035934Y0315669D01*
X0036048Y0315484D01*
X0036157Y0315296D01*
X0036262Y0315106D01*
X0036362Y0314913D01*
X0036458Y0314717D01*
X0036548Y0314520D01*
X0036634Y0314320D01*
X0036714Y0314118D01*
X0036790Y0313914D01*
X0036861Y0313709D01*
X0036927Y0313501D01*
X0036987Y0313293D01*
X0037043Y0313082D01*
X0037093Y0312871D01*
X0037138Y0312658D01*
X0037178Y0312444D01*
X0037212Y0312230D01*
X0037241Y0312014D01*
X0037265Y0311798D01*
X0037284Y0311582D01*
X0037297Y0311365D01*
X0037305Y0311147D01*
X0037308Y0310930D01*
X0037305Y0310713D01*
X0037297Y0310495D01*
X0037284Y0310278D01*
X0037265Y0310062D01*
X0037241Y0309846D01*
X0037212Y0309630D01*
X0037178Y0309416D01*
X0037138Y0309202D01*
X0037093Y0308989D01*
X0037043Y0308778D01*
X0036987Y0308567D01*
X0036927Y0308359D01*
X0036861Y0308151D01*
X0036790Y0307946D01*
X0036714Y0307742D01*
X0036634Y0307540D01*
X0036548Y0307340D01*
X0036458Y0307143D01*
X0036362Y0306947D01*
X0036262Y0306754D01*
X0036157Y0306564D01*
X0036048Y0306376D01*
X0035934Y0306191D01*
X0035815Y0306009D01*
X0035692Y0305829D01*
X0035565Y0305653D01*
X0035433Y0305480D01*
X0035297Y0305311D01*
X0035157Y0305144D01*
X0035013Y0304981D01*
X0034865Y0304822D01*
X0034714Y0304666D01*
X0034558Y0304515D01*
X0034399Y0304367D01*
X0034236Y0304223D01*
X0034069Y0304083D01*
X0033900Y0303947D01*
X0033727Y0303815D01*
X0033551Y0303688D01*
X0033371Y0303565D01*
X0033189Y0303446D01*
X0033004Y0303332D01*
X0032816Y0303223D01*
X0032626Y0303118D01*
X0032433Y0303018D01*
X0032237Y0302922D01*
X0032040Y0302832D01*
X0031840Y0302746D01*
X0031638Y0302666D01*
X0031434Y0302590D01*
X0031229Y0302519D01*
X0031021Y0302453D01*
X0030813Y0302393D01*
X0030602Y0302337D01*
X0030391Y0302287D01*
X0030178Y0302242D01*
X0029964Y0302202D01*
X0029750Y0302168D01*
X0029534Y0302139D01*
X0029318Y0302115D01*
X0029102Y0302096D01*
X0028885Y0302083D01*
X0028667Y0302075D01*
X0028450Y0302072D01*
X0028233Y0302075D01*
X0028015Y0302083D01*
X0027798Y0302096D01*
X0027582Y0302115D01*
X0027366Y0302139D01*
X0027150Y0302168D01*
X0026936Y0302202D01*
X0026722Y0302242D01*
X0026509Y0302287D01*
X0026298Y0302337D01*
X0026087Y0302393D01*
X0025879Y0302453D01*
X0025671Y0302519D01*
X0025466Y0302590D01*
X0025262Y0302666D01*
X0025060Y0302746D01*
X0024860Y0302832D01*
X0024663Y0302922D01*
X0024467Y0303018D01*
X0024274Y0303118D01*
X0024084Y0303223D01*
X0023896Y0303332D01*
X0023711Y0303446D01*
X0023529Y0303565D01*
X0023349Y0303688D01*
X0023173Y0303815D01*
X0023000Y0303947D01*
X0022831Y0304083D01*
X0022664Y0304223D01*
X0022501Y0304367D01*
X0022342Y0304515D01*
X0022186Y0304666D01*
X0022035Y0304822D01*
X0021887Y0304981D01*
X0021743Y0305144D01*
X0021603Y0305311D01*
X0021467Y0305480D01*
X0021335Y0305653D01*
X0021208Y0305829D01*
X0021085Y0306009D01*
X0020966Y0306191D01*
X0020852Y0306376D01*
X0020743Y0306564D01*
X0020638Y0306754D01*
X0020538Y0306947D01*
X0020442Y0307143D01*
X0020352Y0307340D01*
X0020266Y0307540D01*
X0020186Y0307742D01*
X0020110Y0307946D01*
X0020039Y0308151D01*
X0019973Y0308359D01*
X0019913Y0308567D01*
X0019857Y0308778D01*
X0019807Y0308989D01*
X0019762Y0309202D01*
X0019722Y0309416D01*
X0019688Y0309630D01*
X0019659Y0309846D01*
X0019635Y0310062D01*
X0019616Y0310278D01*
X0019603Y0310495D01*
X0019595Y0310713D01*
X0019592Y0310930D01*
X0019592Y0028450D02*
X0019595Y0028667D01*
X0019603Y0028885D01*
X0019616Y0029102D01*
X0019635Y0029318D01*
X0019659Y0029534D01*
X0019688Y0029750D01*
X0019722Y0029964D01*
X0019762Y0030178D01*
X0019807Y0030391D01*
X0019857Y0030602D01*
X0019913Y0030813D01*
X0019973Y0031021D01*
X0020039Y0031229D01*
X0020110Y0031434D01*
X0020186Y0031638D01*
X0020266Y0031840D01*
X0020352Y0032040D01*
X0020442Y0032237D01*
X0020538Y0032433D01*
X0020638Y0032626D01*
X0020743Y0032816D01*
X0020852Y0033004D01*
X0020966Y0033189D01*
X0021085Y0033371D01*
X0021208Y0033551D01*
X0021335Y0033727D01*
X0021467Y0033900D01*
X0021603Y0034069D01*
X0021743Y0034236D01*
X0021887Y0034399D01*
X0022035Y0034558D01*
X0022186Y0034714D01*
X0022342Y0034865D01*
X0022501Y0035013D01*
X0022664Y0035157D01*
X0022831Y0035297D01*
X0023000Y0035433D01*
X0023173Y0035565D01*
X0023349Y0035692D01*
X0023529Y0035815D01*
X0023711Y0035934D01*
X0023896Y0036048D01*
X0024084Y0036157D01*
X0024274Y0036262D01*
X0024467Y0036362D01*
X0024663Y0036458D01*
X0024860Y0036548D01*
X0025060Y0036634D01*
X0025262Y0036714D01*
X0025466Y0036790D01*
X0025671Y0036861D01*
X0025879Y0036927D01*
X0026087Y0036987D01*
X0026298Y0037043D01*
X0026509Y0037093D01*
X0026722Y0037138D01*
X0026936Y0037178D01*
X0027150Y0037212D01*
X0027366Y0037241D01*
X0027582Y0037265D01*
X0027798Y0037284D01*
X0028015Y0037297D01*
X0028233Y0037305D01*
X0028450Y0037308D01*
X0028667Y0037305D01*
X0028885Y0037297D01*
X0029102Y0037284D01*
X0029318Y0037265D01*
X0029534Y0037241D01*
X0029750Y0037212D01*
X0029964Y0037178D01*
X0030178Y0037138D01*
X0030391Y0037093D01*
X0030602Y0037043D01*
X0030813Y0036987D01*
X0031021Y0036927D01*
X0031229Y0036861D01*
X0031434Y0036790D01*
X0031638Y0036714D01*
X0031840Y0036634D01*
X0032040Y0036548D01*
X0032237Y0036458D01*
X0032433Y0036362D01*
X0032626Y0036262D01*
X0032816Y0036157D01*
X0033004Y0036048D01*
X0033189Y0035934D01*
X0033371Y0035815D01*
X0033551Y0035692D01*
X0033727Y0035565D01*
X0033900Y0035433D01*
X0034069Y0035297D01*
X0034236Y0035157D01*
X0034399Y0035013D01*
X0034558Y0034865D01*
X0034714Y0034714D01*
X0034865Y0034558D01*
X0035013Y0034399D01*
X0035157Y0034236D01*
X0035297Y0034069D01*
X0035433Y0033900D01*
X0035565Y0033727D01*
X0035692Y0033551D01*
X0035815Y0033371D01*
X0035934Y0033189D01*
X0036048Y0033004D01*
X0036157Y0032816D01*
X0036262Y0032626D01*
X0036362Y0032433D01*
X0036458Y0032237D01*
X0036548Y0032040D01*
X0036634Y0031840D01*
X0036714Y0031638D01*
X0036790Y0031434D01*
X0036861Y0031229D01*
X0036927Y0031021D01*
X0036987Y0030813D01*
X0037043Y0030602D01*
X0037093Y0030391D01*
X0037138Y0030178D01*
X0037178Y0029964D01*
X0037212Y0029750D01*
X0037241Y0029534D01*
X0037265Y0029318D01*
X0037284Y0029102D01*
X0037297Y0028885D01*
X0037305Y0028667D01*
X0037308Y0028450D01*
X0037305Y0028233D01*
X0037297Y0028015D01*
X0037284Y0027798D01*
X0037265Y0027582D01*
X0037241Y0027366D01*
X0037212Y0027150D01*
X0037178Y0026936D01*
X0037138Y0026722D01*
X0037093Y0026509D01*
X0037043Y0026298D01*
X0036987Y0026087D01*
X0036927Y0025879D01*
X0036861Y0025671D01*
X0036790Y0025466D01*
X0036714Y0025262D01*
X0036634Y0025060D01*
X0036548Y0024860D01*
X0036458Y0024663D01*
X0036362Y0024467D01*
X0036262Y0024274D01*
X0036157Y0024084D01*
X0036048Y0023896D01*
X0035934Y0023711D01*
X0035815Y0023529D01*
X0035692Y0023349D01*
X0035565Y0023173D01*
X0035433Y0023000D01*
X0035297Y0022831D01*
X0035157Y0022664D01*
X0035013Y0022501D01*
X0034865Y0022342D01*
X0034714Y0022186D01*
X0034558Y0022035D01*
X0034399Y0021887D01*
X0034236Y0021743D01*
X0034069Y0021603D01*
X0033900Y0021467D01*
X0033727Y0021335D01*
X0033551Y0021208D01*
X0033371Y0021085D01*
X0033189Y0020966D01*
X0033004Y0020852D01*
X0032816Y0020743D01*
X0032626Y0020638D01*
X0032433Y0020538D01*
X0032237Y0020442D01*
X0032040Y0020352D01*
X0031840Y0020266D01*
X0031638Y0020186D01*
X0031434Y0020110D01*
X0031229Y0020039D01*
X0031021Y0019973D01*
X0030813Y0019913D01*
X0030602Y0019857D01*
X0030391Y0019807D01*
X0030178Y0019762D01*
X0029964Y0019722D01*
X0029750Y0019688D01*
X0029534Y0019659D01*
X0029318Y0019635D01*
X0029102Y0019616D01*
X0028885Y0019603D01*
X0028667Y0019595D01*
X0028450Y0019592D01*
X0028233Y0019595D01*
X0028015Y0019603D01*
X0027798Y0019616D01*
X0027582Y0019635D01*
X0027366Y0019659D01*
X0027150Y0019688D01*
X0026936Y0019722D01*
X0026722Y0019762D01*
X0026509Y0019807D01*
X0026298Y0019857D01*
X0026087Y0019913D01*
X0025879Y0019973D01*
X0025671Y0020039D01*
X0025466Y0020110D01*
X0025262Y0020186D01*
X0025060Y0020266D01*
X0024860Y0020352D01*
X0024663Y0020442D01*
X0024467Y0020538D01*
X0024274Y0020638D01*
X0024084Y0020743D01*
X0023896Y0020852D01*
X0023711Y0020966D01*
X0023529Y0021085D01*
X0023349Y0021208D01*
X0023173Y0021335D01*
X0023000Y0021467D01*
X0022831Y0021603D01*
X0022664Y0021743D01*
X0022501Y0021887D01*
X0022342Y0022035D01*
X0022186Y0022186D01*
X0022035Y0022342D01*
X0021887Y0022501D01*
X0021743Y0022664D01*
X0021603Y0022831D01*
X0021467Y0023000D01*
X0021335Y0023173D01*
X0021208Y0023349D01*
X0021085Y0023529D01*
X0020966Y0023711D01*
X0020852Y0023896D01*
X0020743Y0024084D01*
X0020638Y0024274D01*
X0020538Y0024467D01*
X0020442Y0024663D01*
X0020352Y0024860D01*
X0020266Y0025060D01*
X0020186Y0025262D01*
X0020110Y0025466D01*
X0020039Y0025671D01*
X0019973Y0025879D01*
X0019913Y0026087D01*
X0019857Y0026298D01*
X0019807Y0026509D01*
X0019762Y0026722D01*
X0019722Y0026936D01*
X0019688Y0027150D01*
X0019659Y0027366D01*
X0019635Y0027582D01*
X0019616Y0027798D01*
X0019603Y0028015D01*
X0019595Y0028233D01*
X0019592Y0028450D01*
X0126088Y0028450D02*
X0126090Y0028611D01*
X0126096Y0028771D01*
X0126106Y0028932D01*
X0126120Y0029092D01*
X0126138Y0029251D01*
X0126159Y0029411D01*
X0126185Y0029569D01*
X0126215Y0029727D01*
X0126248Y0029884D01*
X0126286Y0030041D01*
X0126327Y0030196D01*
X0126372Y0030350D01*
X0126421Y0030503D01*
X0126474Y0030655D01*
X0126530Y0030805D01*
X0126590Y0030954D01*
X0126654Y0031102D01*
X0126721Y0031248D01*
X0126792Y0031392D01*
X0126867Y0031534D01*
X0126945Y0031675D01*
X0127026Y0031813D01*
X0127111Y0031950D01*
X0127200Y0032084D01*
X0127291Y0032216D01*
X0127386Y0032346D01*
X0127484Y0032473D01*
X0127585Y0032598D01*
X0127689Y0032721D01*
X0127796Y0032840D01*
X0127906Y0032957D01*
X0128019Y0033072D01*
X0128135Y0033183D01*
X0128253Y0033292D01*
X0128374Y0033397D01*
X0128498Y0033500D01*
X0128624Y0033600D01*
X0128753Y0033696D01*
X0128884Y0033789D01*
X0129017Y0033879D01*
X0129152Y0033966D01*
X0129290Y0034049D01*
X0129429Y0034128D01*
X0129571Y0034205D01*
X0129714Y0034278D01*
X0129859Y0034347D01*
X0130006Y0034412D01*
X0130154Y0034474D01*
X0130304Y0034533D01*
X0130455Y0034587D01*
X0130607Y0034638D01*
X0130761Y0034685D01*
X0130916Y0034728D01*
X0131071Y0034767D01*
X0131228Y0034803D01*
X0131386Y0034835D01*
X0131544Y0034862D01*
X0131703Y0034886D01*
X0131862Y0034906D01*
X0132022Y0034922D01*
X0132183Y0034934D01*
X0132343Y0034942D01*
X0132504Y0034946D01*
X0132664Y0034946D01*
X0132825Y0034942D01*
X0132985Y0034934D01*
X0133146Y0034922D01*
X0133306Y0034906D01*
X0133465Y0034886D01*
X0133624Y0034862D01*
X0133782Y0034835D01*
X0133940Y0034803D01*
X0134097Y0034767D01*
X0134252Y0034728D01*
X0134407Y0034685D01*
X0134561Y0034638D01*
X0134713Y0034587D01*
X0134864Y0034533D01*
X0135014Y0034474D01*
X0135162Y0034412D01*
X0135309Y0034347D01*
X0135454Y0034278D01*
X0135597Y0034205D01*
X0135739Y0034128D01*
X0135878Y0034049D01*
X0136016Y0033966D01*
X0136151Y0033879D01*
X0136284Y0033789D01*
X0136415Y0033696D01*
X0136544Y0033600D01*
X0136670Y0033500D01*
X0136794Y0033397D01*
X0136915Y0033292D01*
X0137033Y0033183D01*
X0137149Y0033072D01*
X0137262Y0032957D01*
X0137372Y0032840D01*
X0137479Y0032721D01*
X0137583Y0032598D01*
X0137684Y0032473D01*
X0137782Y0032346D01*
X0137877Y0032216D01*
X0137968Y0032084D01*
X0138057Y0031950D01*
X0138142Y0031813D01*
X0138223Y0031675D01*
X0138301Y0031534D01*
X0138376Y0031392D01*
X0138447Y0031248D01*
X0138514Y0031102D01*
X0138578Y0030954D01*
X0138638Y0030805D01*
X0138694Y0030655D01*
X0138747Y0030503D01*
X0138796Y0030350D01*
X0138841Y0030196D01*
X0138882Y0030041D01*
X0138920Y0029884D01*
X0138953Y0029727D01*
X0138983Y0029569D01*
X0139009Y0029411D01*
X0139030Y0029251D01*
X0139048Y0029092D01*
X0139062Y0028932D01*
X0139072Y0028771D01*
X0139078Y0028611D01*
X0139080Y0028450D01*
X0139078Y0028289D01*
X0139072Y0028129D01*
X0139062Y0027968D01*
X0139048Y0027808D01*
X0139030Y0027649D01*
X0139009Y0027489D01*
X0138983Y0027331D01*
X0138953Y0027173D01*
X0138920Y0027016D01*
X0138882Y0026859D01*
X0138841Y0026704D01*
X0138796Y0026550D01*
X0138747Y0026397D01*
X0138694Y0026245D01*
X0138638Y0026095D01*
X0138578Y0025946D01*
X0138514Y0025798D01*
X0138447Y0025652D01*
X0138376Y0025508D01*
X0138301Y0025366D01*
X0138223Y0025225D01*
X0138142Y0025087D01*
X0138057Y0024950D01*
X0137968Y0024816D01*
X0137877Y0024684D01*
X0137782Y0024554D01*
X0137684Y0024427D01*
X0137583Y0024302D01*
X0137479Y0024179D01*
X0137372Y0024060D01*
X0137262Y0023943D01*
X0137149Y0023828D01*
X0137033Y0023717D01*
X0136915Y0023608D01*
X0136794Y0023503D01*
X0136670Y0023400D01*
X0136544Y0023300D01*
X0136415Y0023204D01*
X0136284Y0023111D01*
X0136151Y0023021D01*
X0136016Y0022934D01*
X0135878Y0022851D01*
X0135739Y0022772D01*
X0135597Y0022695D01*
X0135454Y0022622D01*
X0135309Y0022553D01*
X0135162Y0022488D01*
X0135014Y0022426D01*
X0134864Y0022367D01*
X0134713Y0022313D01*
X0134561Y0022262D01*
X0134407Y0022215D01*
X0134252Y0022172D01*
X0134097Y0022133D01*
X0133940Y0022097D01*
X0133782Y0022065D01*
X0133624Y0022038D01*
X0133465Y0022014D01*
X0133306Y0021994D01*
X0133146Y0021978D01*
X0132985Y0021966D01*
X0132825Y0021958D01*
X0132664Y0021954D01*
X0132504Y0021954D01*
X0132343Y0021958D01*
X0132183Y0021966D01*
X0132022Y0021978D01*
X0131862Y0021994D01*
X0131703Y0022014D01*
X0131544Y0022038D01*
X0131386Y0022065D01*
X0131228Y0022097D01*
X0131071Y0022133D01*
X0130916Y0022172D01*
X0130761Y0022215D01*
X0130607Y0022262D01*
X0130455Y0022313D01*
X0130304Y0022367D01*
X0130154Y0022426D01*
X0130006Y0022488D01*
X0129859Y0022553D01*
X0129714Y0022622D01*
X0129571Y0022695D01*
X0129429Y0022772D01*
X0129290Y0022851D01*
X0129152Y0022934D01*
X0129017Y0023021D01*
X0128884Y0023111D01*
X0128753Y0023204D01*
X0128624Y0023300D01*
X0128498Y0023400D01*
X0128374Y0023503D01*
X0128253Y0023608D01*
X0128135Y0023717D01*
X0128019Y0023828D01*
X0127906Y0023943D01*
X0127796Y0024060D01*
X0127689Y0024179D01*
X0127585Y0024302D01*
X0127484Y0024427D01*
X0127386Y0024554D01*
X0127291Y0024684D01*
X0127200Y0024816D01*
X0127111Y0024950D01*
X0127026Y0025087D01*
X0126945Y0025225D01*
X0126867Y0025366D01*
X0126792Y0025508D01*
X0126721Y0025652D01*
X0126654Y0025798D01*
X0126590Y0025946D01*
X0126530Y0026095D01*
X0126474Y0026245D01*
X0126421Y0026397D01*
X0126372Y0026550D01*
X0126327Y0026704D01*
X0126286Y0026859D01*
X0126248Y0027016D01*
X0126215Y0027173D01*
X0126185Y0027331D01*
X0126159Y0027489D01*
X0126138Y0027649D01*
X0126120Y0027808D01*
X0126106Y0027968D01*
X0126096Y0028129D01*
X0126090Y0028289D01*
X0126088Y0028450D01*
X0271954Y0028450D02*
X0271956Y0028611D01*
X0271962Y0028771D01*
X0271972Y0028932D01*
X0271986Y0029092D01*
X0272004Y0029251D01*
X0272025Y0029411D01*
X0272051Y0029569D01*
X0272081Y0029727D01*
X0272114Y0029884D01*
X0272152Y0030041D01*
X0272193Y0030196D01*
X0272238Y0030350D01*
X0272287Y0030503D01*
X0272340Y0030655D01*
X0272396Y0030805D01*
X0272456Y0030954D01*
X0272520Y0031102D01*
X0272587Y0031248D01*
X0272658Y0031392D01*
X0272733Y0031534D01*
X0272811Y0031675D01*
X0272892Y0031813D01*
X0272977Y0031950D01*
X0273066Y0032084D01*
X0273157Y0032216D01*
X0273252Y0032346D01*
X0273350Y0032473D01*
X0273451Y0032598D01*
X0273555Y0032721D01*
X0273662Y0032840D01*
X0273772Y0032957D01*
X0273885Y0033072D01*
X0274001Y0033183D01*
X0274119Y0033292D01*
X0274240Y0033397D01*
X0274364Y0033500D01*
X0274490Y0033600D01*
X0274619Y0033696D01*
X0274750Y0033789D01*
X0274883Y0033879D01*
X0275018Y0033966D01*
X0275156Y0034049D01*
X0275295Y0034128D01*
X0275437Y0034205D01*
X0275580Y0034278D01*
X0275725Y0034347D01*
X0275872Y0034412D01*
X0276020Y0034474D01*
X0276170Y0034533D01*
X0276321Y0034587D01*
X0276473Y0034638D01*
X0276627Y0034685D01*
X0276782Y0034728D01*
X0276937Y0034767D01*
X0277094Y0034803D01*
X0277252Y0034835D01*
X0277410Y0034862D01*
X0277569Y0034886D01*
X0277728Y0034906D01*
X0277888Y0034922D01*
X0278049Y0034934D01*
X0278209Y0034942D01*
X0278370Y0034946D01*
X0278530Y0034946D01*
X0278691Y0034942D01*
X0278851Y0034934D01*
X0279012Y0034922D01*
X0279172Y0034906D01*
X0279331Y0034886D01*
X0279490Y0034862D01*
X0279648Y0034835D01*
X0279806Y0034803D01*
X0279963Y0034767D01*
X0280118Y0034728D01*
X0280273Y0034685D01*
X0280427Y0034638D01*
X0280579Y0034587D01*
X0280730Y0034533D01*
X0280880Y0034474D01*
X0281028Y0034412D01*
X0281175Y0034347D01*
X0281320Y0034278D01*
X0281463Y0034205D01*
X0281605Y0034128D01*
X0281744Y0034049D01*
X0281882Y0033966D01*
X0282017Y0033879D01*
X0282150Y0033789D01*
X0282281Y0033696D01*
X0282410Y0033600D01*
X0282536Y0033500D01*
X0282660Y0033397D01*
X0282781Y0033292D01*
X0282899Y0033183D01*
X0283015Y0033072D01*
X0283128Y0032957D01*
X0283238Y0032840D01*
X0283345Y0032721D01*
X0283449Y0032598D01*
X0283550Y0032473D01*
X0283648Y0032346D01*
X0283743Y0032216D01*
X0283834Y0032084D01*
X0283923Y0031950D01*
X0284008Y0031813D01*
X0284089Y0031675D01*
X0284167Y0031534D01*
X0284242Y0031392D01*
X0284313Y0031248D01*
X0284380Y0031102D01*
X0284444Y0030954D01*
X0284504Y0030805D01*
X0284560Y0030655D01*
X0284613Y0030503D01*
X0284662Y0030350D01*
X0284707Y0030196D01*
X0284748Y0030041D01*
X0284786Y0029884D01*
X0284819Y0029727D01*
X0284849Y0029569D01*
X0284875Y0029411D01*
X0284896Y0029251D01*
X0284914Y0029092D01*
X0284928Y0028932D01*
X0284938Y0028771D01*
X0284944Y0028611D01*
X0284946Y0028450D01*
X0284944Y0028289D01*
X0284938Y0028129D01*
X0284928Y0027968D01*
X0284914Y0027808D01*
X0284896Y0027649D01*
X0284875Y0027489D01*
X0284849Y0027331D01*
X0284819Y0027173D01*
X0284786Y0027016D01*
X0284748Y0026859D01*
X0284707Y0026704D01*
X0284662Y0026550D01*
X0284613Y0026397D01*
X0284560Y0026245D01*
X0284504Y0026095D01*
X0284444Y0025946D01*
X0284380Y0025798D01*
X0284313Y0025652D01*
X0284242Y0025508D01*
X0284167Y0025366D01*
X0284089Y0025225D01*
X0284008Y0025087D01*
X0283923Y0024950D01*
X0283834Y0024816D01*
X0283743Y0024684D01*
X0283648Y0024554D01*
X0283550Y0024427D01*
X0283449Y0024302D01*
X0283345Y0024179D01*
X0283238Y0024060D01*
X0283128Y0023943D01*
X0283015Y0023828D01*
X0282899Y0023717D01*
X0282781Y0023608D01*
X0282660Y0023503D01*
X0282536Y0023400D01*
X0282410Y0023300D01*
X0282281Y0023204D01*
X0282150Y0023111D01*
X0282017Y0023021D01*
X0281882Y0022934D01*
X0281744Y0022851D01*
X0281605Y0022772D01*
X0281463Y0022695D01*
X0281320Y0022622D01*
X0281175Y0022553D01*
X0281028Y0022488D01*
X0280880Y0022426D01*
X0280730Y0022367D01*
X0280579Y0022313D01*
X0280427Y0022262D01*
X0280273Y0022215D01*
X0280118Y0022172D01*
X0279963Y0022133D01*
X0279806Y0022097D01*
X0279648Y0022065D01*
X0279490Y0022038D01*
X0279331Y0022014D01*
X0279172Y0021994D01*
X0279012Y0021978D01*
X0278851Y0021966D01*
X0278691Y0021958D01*
X0278530Y0021954D01*
X0278370Y0021954D01*
X0278209Y0021958D01*
X0278049Y0021966D01*
X0277888Y0021978D01*
X0277728Y0021994D01*
X0277569Y0022014D01*
X0277410Y0022038D01*
X0277252Y0022065D01*
X0277094Y0022097D01*
X0276937Y0022133D01*
X0276782Y0022172D01*
X0276627Y0022215D01*
X0276473Y0022262D01*
X0276321Y0022313D01*
X0276170Y0022367D01*
X0276020Y0022426D01*
X0275872Y0022488D01*
X0275725Y0022553D01*
X0275580Y0022622D01*
X0275437Y0022695D01*
X0275295Y0022772D01*
X0275156Y0022851D01*
X0275018Y0022934D01*
X0274883Y0023021D01*
X0274750Y0023111D01*
X0274619Y0023204D01*
X0274490Y0023300D01*
X0274364Y0023400D01*
X0274240Y0023503D01*
X0274119Y0023608D01*
X0274001Y0023717D01*
X0273885Y0023828D01*
X0273772Y0023943D01*
X0273662Y0024060D01*
X0273555Y0024179D01*
X0273451Y0024302D01*
X0273350Y0024427D01*
X0273252Y0024554D01*
X0273157Y0024684D01*
X0273066Y0024816D01*
X0272977Y0024950D01*
X0272892Y0025087D01*
X0272811Y0025225D01*
X0272733Y0025366D01*
X0272658Y0025508D01*
X0272587Y0025652D01*
X0272520Y0025798D01*
X0272456Y0025946D01*
X0272396Y0026095D01*
X0272340Y0026245D01*
X0272287Y0026397D01*
X0272238Y0026550D01*
X0272193Y0026704D01*
X0272152Y0026859D01*
X0272114Y0027016D01*
X0272081Y0027173D01*
X0272051Y0027331D01*
X0272025Y0027489D01*
X0272004Y0027649D01*
X0271986Y0027808D01*
X0271972Y0027968D01*
X0271962Y0028129D01*
X0271956Y0028289D01*
X0271954Y0028450D01*
X0373726Y0028450D02*
X0373729Y0028667D01*
X0373737Y0028885D01*
X0373750Y0029102D01*
X0373769Y0029318D01*
X0373793Y0029534D01*
X0373822Y0029750D01*
X0373856Y0029964D01*
X0373896Y0030178D01*
X0373941Y0030391D01*
X0373991Y0030602D01*
X0374047Y0030813D01*
X0374107Y0031021D01*
X0374173Y0031229D01*
X0374244Y0031434D01*
X0374320Y0031638D01*
X0374400Y0031840D01*
X0374486Y0032040D01*
X0374576Y0032237D01*
X0374672Y0032433D01*
X0374772Y0032626D01*
X0374877Y0032816D01*
X0374986Y0033004D01*
X0375100Y0033189D01*
X0375219Y0033371D01*
X0375342Y0033551D01*
X0375469Y0033727D01*
X0375601Y0033900D01*
X0375737Y0034069D01*
X0375877Y0034236D01*
X0376021Y0034399D01*
X0376169Y0034558D01*
X0376320Y0034714D01*
X0376476Y0034865D01*
X0376635Y0035013D01*
X0376798Y0035157D01*
X0376965Y0035297D01*
X0377134Y0035433D01*
X0377307Y0035565D01*
X0377483Y0035692D01*
X0377663Y0035815D01*
X0377845Y0035934D01*
X0378030Y0036048D01*
X0378218Y0036157D01*
X0378408Y0036262D01*
X0378601Y0036362D01*
X0378797Y0036458D01*
X0378994Y0036548D01*
X0379194Y0036634D01*
X0379396Y0036714D01*
X0379600Y0036790D01*
X0379805Y0036861D01*
X0380013Y0036927D01*
X0380221Y0036987D01*
X0380432Y0037043D01*
X0380643Y0037093D01*
X0380856Y0037138D01*
X0381070Y0037178D01*
X0381284Y0037212D01*
X0381500Y0037241D01*
X0381716Y0037265D01*
X0381932Y0037284D01*
X0382149Y0037297D01*
X0382367Y0037305D01*
X0382584Y0037308D01*
X0382801Y0037305D01*
X0383019Y0037297D01*
X0383236Y0037284D01*
X0383452Y0037265D01*
X0383668Y0037241D01*
X0383884Y0037212D01*
X0384098Y0037178D01*
X0384312Y0037138D01*
X0384525Y0037093D01*
X0384736Y0037043D01*
X0384947Y0036987D01*
X0385155Y0036927D01*
X0385363Y0036861D01*
X0385568Y0036790D01*
X0385772Y0036714D01*
X0385974Y0036634D01*
X0386174Y0036548D01*
X0386371Y0036458D01*
X0386567Y0036362D01*
X0386760Y0036262D01*
X0386950Y0036157D01*
X0387138Y0036048D01*
X0387323Y0035934D01*
X0387505Y0035815D01*
X0387685Y0035692D01*
X0387861Y0035565D01*
X0388034Y0035433D01*
X0388203Y0035297D01*
X0388370Y0035157D01*
X0388533Y0035013D01*
X0388692Y0034865D01*
X0388848Y0034714D01*
X0388999Y0034558D01*
X0389147Y0034399D01*
X0389291Y0034236D01*
X0389431Y0034069D01*
X0389567Y0033900D01*
X0389699Y0033727D01*
X0389826Y0033551D01*
X0389949Y0033371D01*
X0390068Y0033189D01*
X0390182Y0033004D01*
X0390291Y0032816D01*
X0390396Y0032626D01*
X0390496Y0032433D01*
X0390592Y0032237D01*
X0390682Y0032040D01*
X0390768Y0031840D01*
X0390848Y0031638D01*
X0390924Y0031434D01*
X0390995Y0031229D01*
X0391061Y0031021D01*
X0391121Y0030813D01*
X0391177Y0030602D01*
X0391227Y0030391D01*
X0391272Y0030178D01*
X0391312Y0029964D01*
X0391346Y0029750D01*
X0391375Y0029534D01*
X0391399Y0029318D01*
X0391418Y0029102D01*
X0391431Y0028885D01*
X0391439Y0028667D01*
X0391442Y0028450D01*
X0391439Y0028233D01*
X0391431Y0028015D01*
X0391418Y0027798D01*
X0391399Y0027582D01*
X0391375Y0027366D01*
X0391346Y0027150D01*
X0391312Y0026936D01*
X0391272Y0026722D01*
X0391227Y0026509D01*
X0391177Y0026298D01*
X0391121Y0026087D01*
X0391061Y0025879D01*
X0390995Y0025671D01*
X0390924Y0025466D01*
X0390848Y0025262D01*
X0390768Y0025060D01*
X0390682Y0024860D01*
X0390592Y0024663D01*
X0390496Y0024467D01*
X0390396Y0024274D01*
X0390291Y0024084D01*
X0390182Y0023896D01*
X0390068Y0023711D01*
X0389949Y0023529D01*
X0389826Y0023349D01*
X0389699Y0023173D01*
X0389567Y0023000D01*
X0389431Y0022831D01*
X0389291Y0022664D01*
X0389147Y0022501D01*
X0388999Y0022342D01*
X0388848Y0022186D01*
X0388692Y0022035D01*
X0388533Y0021887D01*
X0388370Y0021743D01*
X0388203Y0021603D01*
X0388034Y0021467D01*
X0387861Y0021335D01*
X0387685Y0021208D01*
X0387505Y0021085D01*
X0387323Y0020966D01*
X0387138Y0020852D01*
X0386950Y0020743D01*
X0386760Y0020638D01*
X0386567Y0020538D01*
X0386371Y0020442D01*
X0386174Y0020352D01*
X0385974Y0020266D01*
X0385772Y0020186D01*
X0385568Y0020110D01*
X0385363Y0020039D01*
X0385155Y0019973D01*
X0384947Y0019913D01*
X0384736Y0019857D01*
X0384525Y0019807D01*
X0384312Y0019762D01*
X0384098Y0019722D01*
X0383884Y0019688D01*
X0383668Y0019659D01*
X0383452Y0019635D01*
X0383236Y0019616D01*
X0383019Y0019603D01*
X0382801Y0019595D01*
X0382584Y0019592D01*
X0382367Y0019595D01*
X0382149Y0019603D01*
X0381932Y0019616D01*
X0381716Y0019635D01*
X0381500Y0019659D01*
X0381284Y0019688D01*
X0381070Y0019722D01*
X0380856Y0019762D01*
X0380643Y0019807D01*
X0380432Y0019857D01*
X0380221Y0019913D01*
X0380013Y0019973D01*
X0379805Y0020039D01*
X0379600Y0020110D01*
X0379396Y0020186D01*
X0379194Y0020266D01*
X0378994Y0020352D01*
X0378797Y0020442D01*
X0378601Y0020538D01*
X0378408Y0020638D01*
X0378218Y0020743D01*
X0378030Y0020852D01*
X0377845Y0020966D01*
X0377663Y0021085D01*
X0377483Y0021208D01*
X0377307Y0021335D01*
X0377134Y0021467D01*
X0376965Y0021603D01*
X0376798Y0021743D01*
X0376635Y0021887D01*
X0376476Y0022035D01*
X0376320Y0022186D01*
X0376169Y0022342D01*
X0376021Y0022501D01*
X0375877Y0022664D01*
X0375737Y0022831D01*
X0375601Y0023000D01*
X0375469Y0023173D01*
X0375342Y0023349D01*
X0375219Y0023529D01*
X0375100Y0023711D01*
X0374986Y0023896D01*
X0374877Y0024084D01*
X0374772Y0024274D01*
X0374672Y0024467D01*
X0374576Y0024663D01*
X0374486Y0024860D01*
X0374400Y0025060D01*
X0374320Y0025262D01*
X0374244Y0025466D01*
X0374173Y0025671D01*
X0374107Y0025879D01*
X0374047Y0026087D01*
X0373991Y0026298D01*
X0373941Y0026509D01*
X0373896Y0026722D01*
X0373856Y0026936D01*
X0373822Y0027150D01*
X0373793Y0027366D01*
X0373769Y0027582D01*
X0373750Y0027798D01*
X0373737Y0028015D01*
X0373729Y0028233D01*
X0373726Y0028450D01*
X0373726Y0310930D02*
X0373729Y0311147D01*
X0373737Y0311365D01*
X0373750Y0311582D01*
X0373769Y0311798D01*
X0373793Y0312014D01*
X0373822Y0312230D01*
X0373856Y0312444D01*
X0373896Y0312658D01*
X0373941Y0312871D01*
X0373991Y0313082D01*
X0374047Y0313293D01*
X0374107Y0313501D01*
X0374173Y0313709D01*
X0374244Y0313914D01*
X0374320Y0314118D01*
X0374400Y0314320D01*
X0374486Y0314520D01*
X0374576Y0314717D01*
X0374672Y0314913D01*
X0374772Y0315106D01*
X0374877Y0315296D01*
X0374986Y0315484D01*
X0375100Y0315669D01*
X0375219Y0315851D01*
X0375342Y0316031D01*
X0375469Y0316207D01*
X0375601Y0316380D01*
X0375737Y0316549D01*
X0375877Y0316716D01*
X0376021Y0316879D01*
X0376169Y0317038D01*
X0376320Y0317194D01*
X0376476Y0317345D01*
X0376635Y0317493D01*
X0376798Y0317637D01*
X0376965Y0317777D01*
X0377134Y0317913D01*
X0377307Y0318045D01*
X0377483Y0318172D01*
X0377663Y0318295D01*
X0377845Y0318414D01*
X0378030Y0318528D01*
X0378218Y0318637D01*
X0378408Y0318742D01*
X0378601Y0318842D01*
X0378797Y0318938D01*
X0378994Y0319028D01*
X0379194Y0319114D01*
X0379396Y0319194D01*
X0379600Y0319270D01*
X0379805Y0319341D01*
X0380013Y0319407D01*
X0380221Y0319467D01*
X0380432Y0319523D01*
X0380643Y0319573D01*
X0380856Y0319618D01*
X0381070Y0319658D01*
X0381284Y0319692D01*
X0381500Y0319721D01*
X0381716Y0319745D01*
X0381932Y0319764D01*
X0382149Y0319777D01*
X0382367Y0319785D01*
X0382584Y0319788D01*
X0382801Y0319785D01*
X0383019Y0319777D01*
X0383236Y0319764D01*
X0383452Y0319745D01*
X0383668Y0319721D01*
X0383884Y0319692D01*
X0384098Y0319658D01*
X0384312Y0319618D01*
X0384525Y0319573D01*
X0384736Y0319523D01*
X0384947Y0319467D01*
X0385155Y0319407D01*
X0385363Y0319341D01*
X0385568Y0319270D01*
X0385772Y0319194D01*
X0385974Y0319114D01*
X0386174Y0319028D01*
X0386371Y0318938D01*
X0386567Y0318842D01*
X0386760Y0318742D01*
X0386950Y0318637D01*
X0387138Y0318528D01*
X0387323Y0318414D01*
X0387505Y0318295D01*
X0387685Y0318172D01*
X0387861Y0318045D01*
X0388034Y0317913D01*
X0388203Y0317777D01*
X0388370Y0317637D01*
X0388533Y0317493D01*
X0388692Y0317345D01*
X0388848Y0317194D01*
X0388999Y0317038D01*
X0389147Y0316879D01*
X0389291Y0316716D01*
X0389431Y0316549D01*
X0389567Y0316380D01*
X0389699Y0316207D01*
X0389826Y0316031D01*
X0389949Y0315851D01*
X0390068Y0315669D01*
X0390182Y0315484D01*
X0390291Y0315296D01*
X0390396Y0315106D01*
X0390496Y0314913D01*
X0390592Y0314717D01*
X0390682Y0314520D01*
X0390768Y0314320D01*
X0390848Y0314118D01*
X0390924Y0313914D01*
X0390995Y0313709D01*
X0391061Y0313501D01*
X0391121Y0313293D01*
X0391177Y0313082D01*
X0391227Y0312871D01*
X0391272Y0312658D01*
X0391312Y0312444D01*
X0391346Y0312230D01*
X0391375Y0312014D01*
X0391399Y0311798D01*
X0391418Y0311582D01*
X0391431Y0311365D01*
X0391439Y0311147D01*
X0391442Y0310930D01*
X0391439Y0310713D01*
X0391431Y0310495D01*
X0391418Y0310278D01*
X0391399Y0310062D01*
X0391375Y0309846D01*
X0391346Y0309630D01*
X0391312Y0309416D01*
X0391272Y0309202D01*
X0391227Y0308989D01*
X0391177Y0308778D01*
X0391121Y0308567D01*
X0391061Y0308359D01*
X0390995Y0308151D01*
X0390924Y0307946D01*
X0390848Y0307742D01*
X0390768Y0307540D01*
X0390682Y0307340D01*
X0390592Y0307143D01*
X0390496Y0306947D01*
X0390396Y0306754D01*
X0390291Y0306564D01*
X0390182Y0306376D01*
X0390068Y0306191D01*
X0389949Y0306009D01*
X0389826Y0305829D01*
X0389699Y0305653D01*
X0389567Y0305480D01*
X0389431Y0305311D01*
X0389291Y0305144D01*
X0389147Y0304981D01*
X0388999Y0304822D01*
X0388848Y0304666D01*
X0388692Y0304515D01*
X0388533Y0304367D01*
X0388370Y0304223D01*
X0388203Y0304083D01*
X0388034Y0303947D01*
X0387861Y0303815D01*
X0387685Y0303688D01*
X0387505Y0303565D01*
X0387323Y0303446D01*
X0387138Y0303332D01*
X0386950Y0303223D01*
X0386760Y0303118D01*
X0386567Y0303018D01*
X0386371Y0302922D01*
X0386174Y0302832D01*
X0385974Y0302746D01*
X0385772Y0302666D01*
X0385568Y0302590D01*
X0385363Y0302519D01*
X0385155Y0302453D01*
X0384947Y0302393D01*
X0384736Y0302337D01*
X0384525Y0302287D01*
X0384312Y0302242D01*
X0384098Y0302202D01*
X0383884Y0302168D01*
X0383668Y0302139D01*
X0383452Y0302115D01*
X0383236Y0302096D01*
X0383019Y0302083D01*
X0382801Y0302075D01*
X0382584Y0302072D01*
X0382367Y0302075D01*
X0382149Y0302083D01*
X0381932Y0302096D01*
X0381716Y0302115D01*
X0381500Y0302139D01*
X0381284Y0302168D01*
X0381070Y0302202D01*
X0380856Y0302242D01*
X0380643Y0302287D01*
X0380432Y0302337D01*
X0380221Y0302393D01*
X0380013Y0302453D01*
X0379805Y0302519D01*
X0379600Y0302590D01*
X0379396Y0302666D01*
X0379194Y0302746D01*
X0378994Y0302832D01*
X0378797Y0302922D01*
X0378601Y0303018D01*
X0378408Y0303118D01*
X0378218Y0303223D01*
X0378030Y0303332D01*
X0377845Y0303446D01*
X0377663Y0303565D01*
X0377483Y0303688D01*
X0377307Y0303815D01*
X0377134Y0303947D01*
X0376965Y0304083D01*
X0376798Y0304223D01*
X0376635Y0304367D01*
X0376476Y0304515D01*
X0376320Y0304666D01*
X0376169Y0304822D01*
X0376021Y0304981D01*
X0375877Y0305144D01*
X0375737Y0305311D01*
X0375601Y0305480D01*
X0375469Y0305653D01*
X0375342Y0305829D01*
X0375219Y0306009D01*
X0375100Y0306191D01*
X0374986Y0306376D01*
X0374877Y0306564D01*
X0374772Y0306754D01*
X0374672Y0306947D01*
X0374576Y0307143D01*
X0374486Y0307340D01*
X0374400Y0307540D01*
X0374320Y0307742D01*
X0374244Y0307946D01*
X0374173Y0308151D01*
X0374107Y0308359D01*
X0374047Y0308567D01*
X0373991Y0308778D01*
X0373941Y0308989D01*
X0373896Y0309202D01*
X0373856Y0309416D01*
X0373822Y0309630D01*
X0373793Y0309846D01*
X0373769Y0310062D01*
X0373750Y0310278D01*
X0373737Y0310495D01*
X0373729Y0310713D01*
X0373726Y0310930D01*
D16*
X0218352Y0038261D02*
X0218352Y0032261D01*
X0208352Y0032261D02*
X0208352Y0038261D01*
X0198352Y0038261D02*
X0198352Y0032261D01*
X0188352Y0032261D02*
X0188352Y0038261D01*
X0178352Y0038261D02*
X0178352Y0032261D01*
X0168352Y0032261D02*
X0168352Y0038261D01*
D17*
X0051481Y0151481D03*
X0301481Y0151481D03*
D18*
X0328548Y0133155D03*
X0328548Y0093155D03*
X0222691Y0148547D03*
X0194406Y0120263D03*
D19*
X0096467Y0038364D03*
X0096467Y0020564D03*
X0070867Y0020564D03*
X0070867Y0038364D03*
X0053848Y0086755D03*
X0053848Y0104555D03*
X0028248Y0104555D03*
X0028248Y0086755D03*
X0296998Y0038305D03*
X0296998Y0020505D03*
X0322598Y0020505D03*
X0331998Y0020505D03*
X0331998Y0038305D03*
X0322598Y0038305D03*
X0357598Y0038305D03*
X0357598Y0020505D03*
D20*
X0402367Y0011964D02*
X0008667Y0011964D01*
X0008667Y0326924D01*
X0402367Y0326924D01*
X0402367Y0011964D01*
X0400167Y0039489D02*
X0396781Y0043651D01*
X0396781Y0043651D01*
X0392153Y0046918D01*
X0386816Y0048815D01*
X0386816Y0048815D01*
X0381164Y0049202D01*
X0375618Y0048049D01*
X0370589Y0045443D01*
X0370589Y0045443D01*
X0366449Y0041577D01*
X0366449Y0041577D01*
X0363506Y0036737D01*
X0363506Y0036737D01*
X0361978Y0031282D01*
X0361978Y0025618D01*
X0363506Y0020163D01*
X0366449Y0015323D01*
X0367691Y0014164D01*
X0286930Y0014164D01*
X0288925Y0015315D01*
X0292176Y0018820D01*
X0292675Y0017616D01*
X0294109Y0016181D01*
X0295984Y0015405D01*
X0298013Y0015405D01*
X0299887Y0016181D01*
X0301322Y0017616D01*
X0302098Y0019490D01*
X0302098Y0021519D01*
X0301322Y0023394D01*
X0299887Y0024828D01*
X0298013Y0025605D01*
X0295984Y0025605D01*
X0294744Y0025091D01*
X0295250Y0028450D01*
X0294504Y0033402D01*
X0294253Y0033922D01*
X0295984Y0033205D01*
X0298013Y0033205D01*
X0299887Y0033981D01*
X0301322Y0035416D01*
X0302098Y0037290D01*
X0302098Y0039319D01*
X0301322Y0041194D01*
X0299887Y0042628D01*
X0298013Y0043405D01*
X0295984Y0043405D01*
X0294109Y0042628D01*
X0292675Y0041194D01*
X0291898Y0039319D01*
X0291898Y0038380D01*
X0288925Y0041585D01*
X0288925Y0041585D01*
X0284588Y0044089D01*
X0284588Y0044089D01*
X0279705Y0045203D01*
X0274712Y0044829D01*
X0274712Y0044829D01*
X0270050Y0042999D01*
X0266135Y0039877D01*
X0266135Y0039877D01*
X0266135Y0039877D01*
X0263314Y0035739D01*
X0261838Y0030954D01*
X0261838Y0025946D01*
X0263314Y0021161D01*
X0263314Y0021161D01*
X0266135Y0017023D01*
X0269720Y0014164D01*
X0141064Y0014164D01*
X0143058Y0015315D01*
X0143058Y0015315D01*
X0146465Y0018986D01*
X0146465Y0018986D01*
X0148637Y0023498D01*
X0149384Y0028450D01*
X0149384Y0028450D01*
X0148637Y0033402D01*
X0146465Y0037914D01*
X0143058Y0041585D01*
X0138722Y0044089D01*
X0138722Y0044089D01*
X0136022Y0044705D01*
X0155876Y0044705D01*
X0155876Y0030216D01*
X0166348Y0019743D01*
X0167637Y0018455D01*
X0203210Y0018455D01*
X0209460Y0024705D01*
X0210748Y0025993D01*
X0210748Y0028491D01*
X0210844Y0028531D01*
X0212082Y0029769D01*
X0212752Y0031386D01*
X0212752Y0039136D01*
X0212082Y0040753D01*
X0210844Y0041991D01*
X0210552Y0042112D01*
X0210552Y0152047D01*
X0228479Y0169974D01*
X0230909Y0169974D01*
X0231730Y0170794D01*
X0231730Y0175516D01*
X0230909Y0176336D01*
X0226187Y0176336D01*
X0225367Y0175516D01*
X0225367Y0173085D01*
X0207440Y0155158D01*
X0206152Y0153869D01*
X0206152Y0042112D01*
X0205859Y0041991D01*
X0204621Y0040753D01*
X0203952Y0039136D01*
X0203952Y0031386D01*
X0204621Y0029769D01*
X0205859Y0028531D01*
X0206348Y0028328D01*
X0206348Y0027816D01*
X0201387Y0022855D01*
X0169460Y0022855D01*
X0160276Y0032038D01*
X0160276Y0085987D01*
X0161904Y0085987D01*
X0162724Y0086807D01*
X0162724Y0094463D01*
X0161904Y0095283D01*
X0154248Y0095283D01*
X0153428Y0094463D01*
X0153428Y0092835D01*
X0136979Y0092835D01*
X0134498Y0095316D01*
X0134498Y0173724D01*
X0134659Y0173724D01*
X0135480Y0174544D01*
X0135480Y0179266D01*
X0134659Y0180086D01*
X0129937Y0180086D01*
X0129117Y0179266D01*
X0129117Y0176835D01*
X0122637Y0170355D01*
X0116291Y0170355D01*
X0116730Y0170794D01*
X0116730Y0173225D01*
X0128248Y0184743D01*
X0128248Y0222474D01*
X0128409Y0222474D01*
X0129230Y0223294D01*
X0129230Y0228016D01*
X0128409Y0228836D01*
X0123687Y0228836D01*
X0122867Y0228016D01*
X0122867Y0223294D01*
X0123687Y0222474D01*
X0123848Y0222474D01*
X0123848Y0186566D01*
X0113618Y0176336D01*
X0111187Y0176336D01*
X0110367Y0175516D01*
X0110367Y0170794D01*
X0110806Y0170355D01*
X0026960Y0170355D01*
X0023248Y0174066D01*
X0023248Y0227474D01*
X0023409Y0227474D01*
X0024230Y0228294D01*
X0024230Y0233016D01*
X0023409Y0233836D01*
X0018687Y0233836D01*
X0017867Y0233016D01*
X0017867Y0228294D01*
X0018687Y0227474D01*
X0018848Y0227474D01*
X0018848Y0172243D01*
X0020137Y0170955D01*
X0025137Y0165955D01*
X0124460Y0165955D01*
X0125748Y0167243D01*
X0130098Y0171593D01*
X0130098Y0093493D01*
X0133868Y0089724D01*
X0135157Y0088435D01*
X0153428Y0088435D01*
X0153428Y0086807D01*
X0154248Y0085987D01*
X0155876Y0085987D01*
X0155876Y0049105D01*
X0124023Y0049105D01*
X0123136Y0049124D01*
X0123116Y0049105D01*
X0123087Y0049105D01*
X0122460Y0048477D01*
X0098272Y0025336D01*
X0097481Y0025664D01*
X0095452Y0025664D01*
X0093578Y0024887D01*
X0092143Y0023453D01*
X0091367Y0021578D01*
X0091367Y0019549D01*
X0092143Y0017675D01*
X0093578Y0016240D01*
X0095452Y0015464D01*
X0097481Y0015464D01*
X0099355Y0016240D01*
X0100790Y0017675D01*
X0101567Y0019549D01*
X0101567Y0021578D01*
X0101323Y0022166D01*
X0124881Y0044705D01*
X0128529Y0044705D01*
X0124184Y0042999D01*
X0124184Y0042999D01*
X0120269Y0039877D01*
X0120269Y0039877D01*
X0117448Y0035739D01*
X0115972Y0030954D01*
X0115972Y0025946D01*
X0117448Y0021161D01*
X0120269Y0017023D01*
X0123854Y0014164D01*
X0043392Y0014164D01*
X0046222Y0017643D01*
X0048479Y0022838D01*
X0048479Y0022838D01*
X0049250Y0028450D01*
X0048479Y0034062D01*
X0046222Y0039257D01*
X0046222Y0039257D01*
X0042647Y0043651D01*
X0038019Y0046918D01*
X0032682Y0048815D01*
X0032682Y0048815D01*
X0027031Y0049202D01*
X0027031Y0049202D01*
X0021485Y0048049D01*
X0021484Y0048049D01*
X0016455Y0045443D01*
X0012315Y0041577D01*
X0012315Y0041577D01*
X0010867Y0039194D01*
X0010867Y0300186D01*
X0012315Y0297804D01*
X0012315Y0297804D01*
X0016455Y0293937D01*
X0021484Y0291331D01*
X0021485Y0291331D01*
X0027031Y0290179D01*
X0032682Y0290565D01*
X0038019Y0292462D01*
X0038019Y0292462D01*
X0042647Y0295729D01*
X0046222Y0300123D01*
X0048479Y0305319D01*
X0049250Y0310930D01*
X0048479Y0316542D01*
X0046222Y0321738D01*
X0046222Y0321738D01*
X0043792Y0324724D01*
X0367164Y0324724D01*
X0366449Y0324057D01*
X0363506Y0319217D01*
X0361978Y0313763D01*
X0361978Y0308098D01*
X0363506Y0302644D01*
X0363506Y0302644D01*
X0366449Y0297804D01*
X0366449Y0297804D01*
X0370589Y0293937D01*
X0375618Y0291331D01*
X0380318Y0290355D01*
X0359230Y0290355D01*
X0359230Y0290516D01*
X0358409Y0291336D01*
X0353687Y0291336D01*
X0352867Y0290516D01*
X0352867Y0290355D01*
X0345137Y0290355D01*
X0343848Y0289066D01*
X0330137Y0275355D01*
X0306730Y0275355D01*
X0306730Y0275516D01*
X0305909Y0276336D01*
X0301187Y0276336D01*
X0300367Y0275516D01*
X0300367Y0275355D01*
X0240137Y0275355D01*
X0238848Y0274066D01*
X0206348Y0241566D01*
X0206348Y0238836D01*
X0206187Y0238836D01*
X0205367Y0238016D01*
X0205367Y0233294D01*
X0206187Y0232474D01*
X0210909Y0232474D01*
X0211730Y0233294D01*
X0211730Y0238016D01*
X0210909Y0238836D01*
X0210748Y0238836D01*
X0210748Y0239743D01*
X0241960Y0270955D01*
X0300367Y0270955D01*
X0300367Y0270794D01*
X0301131Y0270030D01*
X0300367Y0269266D01*
X0300367Y0269105D01*
X0300137Y0269105D01*
X0298848Y0267816D01*
X0282368Y0251336D01*
X0279937Y0251336D01*
X0279117Y0250516D01*
X0279117Y0245794D01*
X0279937Y0244974D01*
X0284659Y0244974D01*
X0285480Y0245794D01*
X0285480Y0248225D01*
X0301083Y0263828D01*
X0301187Y0263724D01*
X0301531Y0263724D01*
X0297148Y0259341D01*
X0297148Y0251968D01*
X0302362Y0246755D01*
X0309735Y0246755D01*
X0314948Y0251968D01*
X0314948Y0259341D01*
X0309735Y0264555D01*
X0306730Y0264555D01*
X0306730Y0264905D01*
X0322146Y0264905D01*
X0316748Y0259507D01*
X0316748Y0256230D01*
X0325473Y0256230D01*
X0325473Y0255080D01*
X0316748Y0255080D01*
X0316748Y0251803D01*
X0322196Y0246355D01*
X0325473Y0246355D01*
X0325473Y0255080D01*
X0326623Y0255080D01*
X0326623Y0246355D01*
X0329901Y0246355D01*
X0335348Y0251803D01*
X0335348Y0255080D01*
X0326623Y0255080D01*
X0326623Y0256230D01*
X0335348Y0256230D01*
X0335348Y0259507D01*
X0329951Y0264905D01*
X0342146Y0264905D01*
X0336748Y0259507D01*
X0336748Y0256230D01*
X0345473Y0256230D01*
X0345473Y0255080D01*
X0336748Y0255080D01*
X0336748Y0251803D01*
X0342196Y0246355D01*
X0345473Y0246355D01*
X0345473Y0255080D01*
X0346623Y0255080D01*
X0346623Y0246355D01*
X0349901Y0246355D01*
X0355348Y0251803D01*
X0355348Y0255080D01*
X0346623Y0255080D01*
X0346623Y0256230D01*
X0355348Y0256230D01*
X0355348Y0259507D01*
X0349951Y0264905D01*
X0375627Y0264905D01*
X0378127Y0267405D01*
X0378196Y0267474D01*
X0379659Y0267474D01*
X0380480Y0268294D01*
X0380480Y0273016D01*
X0379659Y0273836D01*
X0374937Y0273836D01*
X0374117Y0273016D01*
X0374117Y0272855D01*
X0355710Y0272855D01*
X0352980Y0275585D01*
X0352980Y0278016D01*
X0352159Y0278836D01*
X0347437Y0278836D01*
X0346617Y0278016D01*
X0346617Y0273294D01*
X0347437Y0272474D01*
X0349868Y0272474D01*
X0352598Y0269743D01*
X0353437Y0268905D01*
X0306730Y0268905D01*
X0306730Y0269266D01*
X0305966Y0270030D01*
X0306730Y0270794D01*
X0306730Y0270955D01*
X0331960Y0270955D01*
X0346960Y0285955D01*
X0352867Y0285955D01*
X0352867Y0285794D01*
X0353687Y0284974D01*
X0358409Y0284974D01*
X0359230Y0285794D01*
X0359230Y0285955D01*
X0380137Y0285955D01*
X0390367Y0275725D01*
X0390367Y0273294D01*
X0391187Y0272474D01*
X0395909Y0272474D01*
X0396730Y0273294D01*
X0396730Y0278016D01*
X0395909Y0278836D01*
X0393479Y0278836D01*
X0383248Y0289066D01*
X0382073Y0290241D01*
X0386816Y0290565D01*
X0392153Y0292462D01*
X0392153Y0292462D01*
X0396781Y0295729D01*
X0400167Y0299891D01*
X0400167Y0039489D01*
X0400167Y0040737D02*
X0399152Y0040737D01*
X0400167Y0042335D02*
X0397852Y0042335D01*
X0396781Y0043651D02*
X0396781Y0043651D01*
X0396381Y0043934D02*
X0400167Y0043934D01*
X0400167Y0045533D02*
X0394116Y0045533D01*
X0392153Y0046918D02*
X0392153Y0046918D01*
X0391554Y0047131D02*
X0400167Y0047131D01*
X0400167Y0048730D02*
X0387056Y0048730D01*
X0381164Y0049202D02*
X0381164Y0049202D01*
X0378893Y0048730D02*
X0351867Y0048730D01*
X0352079Y0048763D02*
X0352737Y0048977D01*
X0353355Y0049292D01*
X0353915Y0049699D01*
X0354405Y0050188D01*
X0354812Y0050749D01*
X0355126Y0051366D01*
X0355340Y0052024D01*
X0355448Y0052708D01*
X0355448Y0055655D01*
X0355448Y0058601D01*
X0355340Y0059285D01*
X0355126Y0059944D01*
X0354812Y0060561D01*
X0354405Y0061121D01*
X0353915Y0061611D01*
X0353355Y0062018D01*
X0352737Y0062332D01*
X0352079Y0062546D01*
X0351395Y0062655D01*
X0351048Y0062655D01*
X0350702Y0062655D01*
X0350018Y0062546D01*
X0349359Y0062332D01*
X0348742Y0062018D01*
X0348182Y0061611D01*
X0347692Y0061121D01*
X0347285Y0060561D01*
X0346971Y0059944D01*
X0346757Y0059285D01*
X0346648Y0058601D01*
X0346648Y0055655D01*
X0351048Y0055655D01*
X0351048Y0055655D01*
X0351048Y0062655D01*
X0351048Y0055655D01*
X0351048Y0055655D01*
X0346648Y0055655D01*
X0346648Y0052708D01*
X0346757Y0052024D01*
X0346971Y0051366D01*
X0347285Y0050749D01*
X0347692Y0050188D01*
X0348182Y0049699D01*
X0348742Y0049292D01*
X0349359Y0048977D01*
X0350018Y0048763D01*
X0350702Y0048655D01*
X0351048Y0048655D01*
X0351048Y0055655D01*
X0351048Y0055655D01*
X0351049Y0055655D02*
X0355448Y0055655D01*
X0351049Y0055655D01*
X0351049Y0055655D01*
X0351048Y0055655D02*
X0351048Y0048655D01*
X0351395Y0048655D01*
X0352079Y0048763D01*
X0351048Y0048730D02*
X0351048Y0048730D01*
X0350230Y0048730D02*
X0210552Y0048730D01*
X0210552Y0050328D02*
X0278118Y0050328D01*
X0277657Y0050789D02*
X0278783Y0049664D01*
X0280253Y0049055D01*
X0281844Y0049055D01*
X0283314Y0049664D01*
X0284439Y0050789D01*
X0285048Y0052259D01*
X0285048Y0059050D01*
X0284439Y0060521D01*
X0283314Y0061646D01*
X0281844Y0062255D01*
X0280253Y0062255D01*
X0278783Y0061646D01*
X0277657Y0060521D01*
X0277048Y0059050D01*
X0277048Y0052259D01*
X0277657Y0050789D01*
X0277186Y0051927D02*
X0210552Y0051927D01*
X0210552Y0053525D02*
X0277048Y0053525D01*
X0277048Y0055124D02*
X0210552Y0055124D01*
X0210552Y0056722D02*
X0277048Y0056722D01*
X0277048Y0058321D02*
X0210552Y0058321D01*
X0210552Y0059919D02*
X0277408Y0059919D01*
X0278654Y0061518D02*
X0210552Y0061518D01*
X0210552Y0063116D02*
X0250939Y0063116D01*
X0250564Y0063491D02*
X0251384Y0062670D01*
X0255713Y0062670D01*
X0256497Y0063455D01*
X0285600Y0063455D01*
X0286384Y0062670D01*
X0290713Y0062670D01*
X0291533Y0063491D01*
X0291533Y0067819D01*
X0290713Y0068639D01*
X0286384Y0068639D01*
X0285600Y0067855D01*
X0256497Y0067855D01*
X0255713Y0068639D01*
X0251384Y0068639D01*
X0250564Y0067819D01*
X0250564Y0063491D01*
X0250564Y0064715D02*
X0210552Y0064715D01*
X0210552Y0066313D02*
X0250564Y0066313D01*
X0250657Y0067912D02*
X0210552Y0067912D01*
X0210552Y0069510D02*
X0400167Y0069510D01*
X0400167Y0067912D02*
X0291440Y0067912D01*
X0291533Y0066313D02*
X0400167Y0066313D01*
X0400167Y0064715D02*
X0291533Y0064715D01*
X0291158Y0063116D02*
X0400167Y0063116D01*
X0400167Y0061518D02*
X0354008Y0061518D01*
X0355134Y0059919D02*
X0400167Y0059919D01*
X0400167Y0058321D02*
X0355448Y0058321D01*
X0355448Y0056722D02*
X0400167Y0056722D01*
X0400167Y0055124D02*
X0355448Y0055124D01*
X0355448Y0053525D02*
X0400167Y0053525D01*
X0400167Y0051927D02*
X0355308Y0051927D01*
X0354506Y0050328D02*
X0400167Y0050328D01*
X0400167Y0071109D02*
X0210552Y0071109D01*
X0210552Y0072707D02*
X0400167Y0072707D01*
X0400167Y0074306D02*
X0210552Y0074306D01*
X0210552Y0075904D02*
X0400167Y0075904D01*
X0400167Y0077503D02*
X0210552Y0077503D01*
X0210552Y0079101D02*
X0400167Y0079101D01*
X0400167Y0080700D02*
X0210552Y0080700D01*
X0210552Y0082298D02*
X0400167Y0082298D01*
X0400167Y0083897D02*
X0210552Y0083897D01*
X0210552Y0085495D02*
X0400167Y0085495D01*
X0400167Y0087094D02*
X0210552Y0087094D01*
X0210552Y0088692D02*
X0327040Y0088692D01*
X0327614Y0088455D02*
X0329483Y0088455D01*
X0331211Y0089170D01*
X0332533Y0090492D01*
X0333248Y0092220D01*
X0333248Y0094090D01*
X0332533Y0095817D01*
X0331211Y0097139D01*
X0329483Y0097855D01*
X0327614Y0097855D01*
X0325886Y0097139D01*
X0324564Y0095817D01*
X0323848Y0094090D01*
X0323848Y0092220D01*
X0324564Y0090492D01*
X0325886Y0089170D01*
X0327614Y0088455D01*
X0330057Y0088692D02*
X0400167Y0088692D01*
X0400167Y0090291D02*
X0332331Y0090291D01*
X0333112Y0091889D02*
X0400167Y0091889D01*
X0400167Y0093488D02*
X0333248Y0093488D01*
X0332836Y0095086D02*
X0400167Y0095086D01*
X0400167Y0096685D02*
X0331665Y0096685D01*
X0325432Y0096685D02*
X0210552Y0096685D01*
X0210552Y0098283D02*
X0400167Y0098283D01*
X0400167Y0099882D02*
X0210552Y0099882D01*
X0210552Y0101480D02*
X0400167Y0101480D01*
X0400167Y0103079D02*
X0210552Y0103079D01*
X0210552Y0104677D02*
X0400167Y0104677D01*
X0400167Y0106276D02*
X0210552Y0106276D01*
X0210552Y0107874D02*
X0400167Y0107874D01*
X0400167Y0109473D02*
X0210552Y0109473D01*
X0210552Y0111071D02*
X0400167Y0111071D01*
X0400167Y0112670D02*
X0210552Y0112670D01*
X0210552Y0114269D02*
X0400167Y0114269D01*
X0400167Y0115867D02*
X0210552Y0115867D01*
X0210552Y0117466D02*
X0400167Y0117466D01*
X0400167Y0119064D02*
X0210552Y0119064D01*
X0210552Y0120663D02*
X0400167Y0120663D01*
X0400167Y0122261D02*
X0210552Y0122261D01*
X0210552Y0123860D02*
X0400167Y0123860D01*
X0400167Y0125458D02*
X0210552Y0125458D01*
X0210552Y0127057D02*
X0400167Y0127057D01*
X0400167Y0128655D02*
X0329967Y0128655D01*
X0329483Y0128455D02*
X0331211Y0129170D01*
X0332533Y0130492D01*
X0333248Y0132220D01*
X0333248Y0134090D01*
X0332533Y0135817D01*
X0331211Y0137139D01*
X0329483Y0137855D01*
X0327614Y0137855D01*
X0325886Y0137139D01*
X0324564Y0135817D01*
X0323848Y0134090D01*
X0323848Y0132220D01*
X0324564Y0130492D01*
X0325886Y0129170D01*
X0327614Y0128455D01*
X0329483Y0128455D01*
X0327130Y0128655D02*
X0301080Y0128655D01*
X0301080Y0128589D02*
X0301080Y0133311D01*
X0300260Y0134131D01*
X0297829Y0134131D01*
X0295374Y0136586D01*
X0295374Y0148538D01*
X0298831Y0145081D01*
X0304132Y0145081D01*
X0307881Y0148831D01*
X0307881Y0154132D01*
X0304132Y0157881D01*
X0298831Y0157881D01*
X0295374Y0154425D01*
X0295374Y0159974D01*
X0295535Y0159974D01*
X0296355Y0160794D01*
X0296355Y0165516D01*
X0295535Y0166336D01*
X0290813Y0166336D01*
X0289993Y0165516D01*
X0289993Y0160794D01*
X0290813Y0159974D01*
X0290974Y0159974D01*
X0290974Y0134763D01*
X0292263Y0133474D01*
X0294718Y0131020D01*
X0294718Y0128589D01*
X0295538Y0127769D01*
X0300260Y0127769D01*
X0301080Y0128589D01*
X0301080Y0130254D02*
X0324803Y0130254D01*
X0324001Y0131852D02*
X0301080Y0131852D01*
X0300940Y0133451D02*
X0323848Y0133451D01*
X0324246Y0135049D02*
X0296911Y0135049D01*
X0295374Y0136648D02*
X0325395Y0136648D01*
X0331702Y0136648D02*
X0400167Y0136648D01*
X0400167Y0138246D02*
X0295374Y0138246D01*
X0295374Y0139845D02*
X0400167Y0139845D01*
X0400167Y0141443D02*
X0295374Y0141443D01*
X0295374Y0143042D02*
X0400167Y0143042D01*
X0400167Y0144640D02*
X0295374Y0144640D01*
X0295374Y0146239D02*
X0297673Y0146239D01*
X0296075Y0147837D02*
X0295374Y0147837D01*
X0290974Y0147837D02*
X0227391Y0147837D01*
X0227391Y0147612D02*
X0226675Y0145885D01*
X0225353Y0144562D01*
X0223625Y0143847D01*
X0221756Y0143847D01*
X0220028Y0144562D01*
X0218706Y0145885D01*
X0217991Y0147612D01*
X0217991Y0149482D01*
X0218706Y0151209D01*
X0220028Y0152531D01*
X0221756Y0153247D01*
X0223625Y0153247D01*
X0225353Y0152531D01*
X0226675Y0151209D01*
X0227391Y0149482D01*
X0227391Y0147612D01*
X0226822Y0146239D02*
X0290974Y0146239D01*
X0290974Y0144640D02*
X0225431Y0144640D01*
X0219950Y0144640D02*
X0210552Y0144640D01*
X0210552Y0143042D02*
X0290974Y0143042D01*
X0290974Y0141443D02*
X0210552Y0141443D01*
X0210552Y0139845D02*
X0290974Y0139845D01*
X0290974Y0138246D02*
X0210552Y0138246D01*
X0210552Y0136648D02*
X0290974Y0136648D01*
X0290974Y0135049D02*
X0210552Y0135049D01*
X0210552Y0133451D02*
X0292287Y0133451D01*
X0293885Y0131852D02*
X0210552Y0131852D01*
X0210552Y0130254D02*
X0294718Y0130254D01*
X0294718Y0128655D02*
X0210552Y0128655D01*
X0206152Y0128655D02*
X0176998Y0128655D01*
X0176998Y0127057D02*
X0206152Y0127057D01*
X0206152Y0125458D02*
X0176998Y0125458D01*
X0176998Y0123860D02*
X0191356Y0123860D01*
X0191744Y0124247D02*
X0190422Y0122925D01*
X0189706Y0121197D01*
X0189706Y0119328D01*
X0190422Y0117600D01*
X0191744Y0116278D01*
X0193471Y0115563D01*
X0195341Y0115563D01*
X0197069Y0116278D01*
X0198391Y0117600D01*
X0199106Y0119328D01*
X0199106Y0121197D01*
X0198391Y0122925D01*
X0197069Y0124247D01*
X0195341Y0124963D01*
X0193471Y0124963D01*
X0191744Y0124247D01*
X0190147Y0122261D02*
X0176998Y0122261D01*
X0176998Y0120663D02*
X0189706Y0120663D01*
X0189815Y0119064D02*
X0176998Y0119064D01*
X0176998Y0117466D02*
X0190557Y0117466D01*
X0192736Y0115867D02*
X0176998Y0115867D01*
X0176998Y0114269D02*
X0206152Y0114269D01*
X0206152Y0115867D02*
X0196076Y0115867D01*
X0198256Y0117466D02*
X0206152Y0117466D01*
X0206152Y0119064D02*
X0198997Y0119064D01*
X0199106Y0120663D02*
X0206152Y0120663D01*
X0206152Y0122261D02*
X0198666Y0122261D01*
X0197456Y0123860D02*
X0206152Y0123860D01*
X0206152Y0130254D02*
X0176998Y0130254D01*
X0176998Y0131852D02*
X0206152Y0131852D01*
X0206152Y0133451D02*
X0176998Y0133451D01*
X0176998Y0135049D02*
X0206152Y0135049D01*
X0206152Y0136648D02*
X0176998Y0136648D01*
X0176998Y0138246D02*
X0206152Y0138246D01*
X0206152Y0139845D02*
X0176998Y0139845D01*
X0176998Y0141443D02*
X0206152Y0141443D01*
X0206152Y0143042D02*
X0176998Y0143042D01*
X0176998Y0144640D02*
X0206152Y0144640D01*
X0206152Y0146239D02*
X0176998Y0146239D01*
X0176998Y0147837D02*
X0206152Y0147837D01*
X0206152Y0149436D02*
X0176998Y0149436D01*
X0176998Y0151034D02*
X0206152Y0151034D01*
X0206152Y0152633D02*
X0176998Y0152633D01*
X0176998Y0154231D02*
X0206514Y0154231D01*
X0208352Y0152958D02*
X0208352Y0035261D01*
X0208548Y0035064D01*
X0208548Y0026905D01*
X0202298Y0020655D01*
X0168548Y0020655D01*
X0158076Y0031127D01*
X0158076Y0046905D01*
X0123998Y0046905D01*
X0096467Y0020564D01*
X0101073Y0018358D02*
X0119359Y0018358D01*
X0120269Y0017023D02*
X0120269Y0017023D01*
X0120269Y0017023D01*
X0120599Y0016759D02*
X0099875Y0016759D01*
X0101567Y0019956D02*
X0118269Y0019956D01*
X0117448Y0021161D02*
X0117448Y0021161D01*
X0117326Y0021555D02*
X0101567Y0021555D01*
X0102356Y0023153D02*
X0116833Y0023153D01*
X0116340Y0024752D02*
X0104026Y0024752D01*
X0105697Y0026350D02*
X0115972Y0026350D01*
X0115972Y0027949D02*
X0107368Y0027949D01*
X0109039Y0029547D02*
X0115972Y0029547D01*
X0116031Y0031146D02*
X0110709Y0031146D01*
X0112380Y0032744D02*
X0116524Y0032744D01*
X0117017Y0034343D02*
X0114051Y0034343D01*
X0115722Y0035941D02*
X0117585Y0035941D01*
X0117448Y0035739D02*
X0117448Y0035739D01*
X0117393Y0037540D02*
X0118675Y0037540D01*
X0119063Y0039138D02*
X0119765Y0039138D01*
X0120269Y0039877D02*
X0120269Y0039877D01*
X0120734Y0040737D02*
X0121347Y0040737D01*
X0122405Y0042335D02*
X0123352Y0042335D01*
X0124076Y0043934D02*
X0126566Y0043934D01*
X0121053Y0047131D02*
X0037420Y0047131D01*
X0038019Y0046918D02*
X0038019Y0046918D01*
X0039982Y0045533D02*
X0119382Y0045533D01*
X0117711Y0043934D02*
X0042247Y0043934D01*
X0042647Y0043651D02*
X0042647Y0043651D01*
X0043718Y0042335D02*
X0067626Y0042335D01*
X0067978Y0042687D02*
X0066543Y0041253D01*
X0065767Y0039378D01*
X0065767Y0037349D01*
X0066543Y0035475D01*
X0067978Y0034040D01*
X0069852Y0033264D01*
X0071881Y0033264D01*
X0073755Y0034040D01*
X0075190Y0035475D01*
X0075967Y0037349D01*
X0075967Y0039378D01*
X0075190Y0041253D01*
X0073755Y0042687D01*
X0071881Y0043464D01*
X0069852Y0043464D01*
X0067978Y0042687D01*
X0066329Y0040737D02*
X0045018Y0040737D01*
X0046274Y0039138D02*
X0065767Y0039138D01*
X0065767Y0037540D02*
X0046968Y0037540D01*
X0047662Y0035941D02*
X0066350Y0035941D01*
X0067675Y0034343D02*
X0048357Y0034343D01*
X0048479Y0034062D02*
X0048479Y0034062D01*
X0048660Y0032744D02*
X0106016Y0032744D01*
X0107686Y0034343D02*
X0099658Y0034343D01*
X0099355Y0034040D02*
X0100790Y0035475D01*
X0101567Y0037349D01*
X0101567Y0039378D01*
X0100790Y0041253D01*
X0099355Y0042687D01*
X0097481Y0043464D01*
X0095452Y0043464D01*
X0093578Y0042687D01*
X0092143Y0041253D01*
X0091367Y0039378D01*
X0091367Y0037349D01*
X0092143Y0035475D01*
X0093578Y0034040D01*
X0095452Y0033264D01*
X0097481Y0033264D01*
X0099355Y0034040D01*
X0100983Y0035941D02*
X0109357Y0035941D01*
X0111028Y0037540D02*
X0101567Y0037540D01*
X0101567Y0039138D02*
X0112699Y0039138D01*
X0114369Y0040737D02*
X0101004Y0040737D01*
X0099707Y0042335D02*
X0116040Y0042335D01*
X0122712Y0048730D02*
X0032922Y0048730D01*
X0024759Y0048730D02*
X0010867Y0048730D01*
X0010867Y0050328D02*
X0155876Y0050328D01*
X0155876Y0051927D02*
X0010867Y0051927D01*
X0010867Y0053525D02*
X0155876Y0053525D01*
X0155876Y0055124D02*
X0010867Y0055124D01*
X0010867Y0056722D02*
X0155876Y0056722D01*
X0155876Y0058321D02*
X0010867Y0058321D01*
X0010867Y0059919D02*
X0155876Y0059919D01*
X0155876Y0061518D02*
X0010867Y0061518D01*
X0010867Y0063116D02*
X0155876Y0063116D01*
X0155876Y0064715D02*
X0010867Y0064715D01*
X0010867Y0066313D02*
X0155876Y0066313D01*
X0155876Y0067912D02*
X0010867Y0067912D01*
X0010867Y0069510D02*
X0155876Y0069510D01*
X0155876Y0071109D02*
X0010867Y0071109D01*
X0010867Y0072707D02*
X0155876Y0072707D01*
X0155876Y0074306D02*
X0010867Y0074306D01*
X0010867Y0075904D02*
X0155876Y0075904D01*
X0155876Y0077503D02*
X0010867Y0077503D01*
X0010867Y0079101D02*
X0155876Y0079101D01*
X0155876Y0080700D02*
X0010867Y0080700D01*
X0010867Y0082298D02*
X0025025Y0082298D01*
X0025366Y0082051D02*
X0026137Y0081658D01*
X0026960Y0081390D01*
X0027816Y0081255D01*
X0028048Y0081255D01*
X0028048Y0086555D01*
X0022748Y0086555D01*
X0022748Y0086322D01*
X0022884Y0085467D01*
X0023151Y0084643D01*
X0023544Y0083872D01*
X0024053Y0083172D01*
X0024665Y0082560D01*
X0025366Y0082051D01*
X0023532Y0083897D02*
X0010867Y0083897D01*
X0010867Y0085495D02*
X0022879Y0085495D01*
X0022748Y0086955D02*
X0028048Y0086955D01*
X0028048Y0086555D01*
X0028448Y0086555D01*
X0028448Y0081255D01*
X0028681Y0081255D01*
X0029536Y0081390D01*
X0030360Y0081658D01*
X0031131Y0082051D01*
X0031831Y0082560D01*
X0032444Y0083172D01*
X0032952Y0083872D01*
X0033345Y0084643D01*
X0033613Y0085467D01*
X0033748Y0086322D01*
X0033748Y0086555D01*
X0028448Y0086555D01*
X0028448Y0086955D01*
X0028048Y0086955D01*
X0028048Y0092255D01*
X0027816Y0092255D01*
X0026960Y0092119D01*
X0026137Y0091852D01*
X0025366Y0091459D01*
X0024665Y0090950D01*
X0024053Y0090338D01*
X0023544Y0089637D01*
X0023151Y0088866D01*
X0022884Y0088043D01*
X0022748Y0087188D01*
X0022748Y0086955D01*
X0022748Y0087094D02*
X0010867Y0087094D01*
X0010867Y0088692D02*
X0023095Y0088692D01*
X0024019Y0090291D02*
X0010867Y0090291D01*
X0010867Y0091889D02*
X0026253Y0091889D01*
X0028048Y0091889D02*
X0028448Y0091889D01*
X0028448Y0092255D02*
X0028681Y0092255D01*
X0029536Y0092119D01*
X0030360Y0091852D01*
X0031131Y0091459D01*
X0031831Y0090950D01*
X0032444Y0090338D01*
X0032952Y0089637D01*
X0033345Y0088866D01*
X0033613Y0088043D01*
X0033748Y0087188D01*
X0033748Y0086955D01*
X0028448Y0086955D01*
X0028448Y0092255D01*
X0030244Y0091889D02*
X0080593Y0091889D01*
X0080593Y0090291D02*
X0057525Y0090291D01*
X0058172Y0089644D02*
X0056737Y0091078D01*
X0054863Y0091855D01*
X0052834Y0091855D01*
X0050959Y0091078D01*
X0049525Y0089644D01*
X0048748Y0087769D01*
X0048748Y0085740D01*
X0049525Y0083866D01*
X0050959Y0082431D01*
X0052834Y0081655D01*
X0054863Y0081655D01*
X0056737Y0082431D01*
X0058172Y0083866D01*
X0058948Y0085740D01*
X0058948Y0087769D01*
X0058172Y0089644D01*
X0058566Y0088692D02*
X0080593Y0088692D01*
X0080593Y0087094D02*
X0058948Y0087094D01*
X0058847Y0085495D02*
X0155876Y0085495D01*
X0155876Y0083897D02*
X0058185Y0083897D01*
X0056417Y0082298D02*
X0155876Y0082298D01*
X0160276Y0082298D02*
X0172598Y0082298D01*
X0172598Y0080700D02*
X0160276Y0080700D01*
X0160276Y0079101D02*
X0172598Y0079101D01*
X0172598Y0077503D02*
X0160276Y0077503D01*
X0160276Y0075904D02*
X0172598Y0075904D01*
X0172598Y0074306D02*
X0160276Y0074306D01*
X0160276Y0072707D02*
X0172598Y0072707D01*
X0172598Y0071109D02*
X0160276Y0071109D01*
X0160276Y0069510D02*
X0172598Y0069510D01*
X0172598Y0068836D02*
X0172437Y0068836D01*
X0171617Y0068016D01*
X0171617Y0063294D01*
X0172437Y0062474D01*
X0177159Y0062474D01*
X0177980Y0063294D01*
X0177980Y0068016D01*
X0177159Y0068836D01*
X0176998Y0068836D01*
X0176998Y0218493D01*
X0180979Y0222474D01*
X0183409Y0222474D01*
X0184230Y0223294D01*
X0184230Y0225725D01*
X0194460Y0235955D01*
X0195748Y0237243D01*
X0195748Y0238724D01*
X0195909Y0238724D01*
X0196348Y0239163D01*
X0196348Y0179066D01*
X0193618Y0176336D01*
X0191187Y0176336D01*
X0190367Y0175516D01*
X0190367Y0170794D01*
X0191187Y0169974D01*
X0195909Y0169974D01*
X0196730Y0170794D01*
X0196730Y0173225D01*
X0200748Y0177243D01*
X0200748Y0252474D01*
X0200909Y0252474D01*
X0201730Y0253294D01*
X0201730Y0258016D01*
X0200909Y0258836D01*
X0196187Y0258836D01*
X0195367Y0258016D01*
X0195367Y0253294D01*
X0196187Y0252474D01*
X0196348Y0252474D01*
X0196348Y0244647D01*
X0195909Y0245086D01*
X0191187Y0245086D01*
X0190367Y0244266D01*
X0190367Y0239544D01*
X0191097Y0238814D01*
X0181118Y0228836D01*
X0178687Y0228836D01*
X0177867Y0228016D01*
X0177867Y0225585D01*
X0172598Y0220316D01*
X0172598Y0203397D01*
X0172159Y0203836D01*
X0167437Y0203836D01*
X0166617Y0203016D01*
X0166617Y0198294D01*
X0167437Y0197474D01*
X0172159Y0197474D01*
X0172598Y0197913D01*
X0172598Y0068836D01*
X0171617Y0067912D02*
X0160276Y0067912D01*
X0160276Y0066313D02*
X0171617Y0066313D01*
X0171617Y0064715D02*
X0160276Y0064715D01*
X0160276Y0063116D02*
X0171795Y0063116D01*
X0174798Y0065655D02*
X0174798Y0200655D01*
X0169798Y0200655D01*
X0166617Y0200588D02*
X0150748Y0200588D01*
X0150748Y0198990D02*
X0166617Y0198990D01*
X0166617Y0202187D02*
X0150748Y0202187D01*
X0150748Y0203785D02*
X0167387Y0203785D01*
X0172210Y0203785D02*
X0172598Y0203785D01*
X0172598Y0205384D02*
X0150748Y0205384D01*
X0150748Y0206982D02*
X0172598Y0206982D01*
X0172598Y0208581D02*
X0150748Y0208581D01*
X0150748Y0210179D02*
X0172598Y0210179D01*
X0172598Y0211778D02*
X0150748Y0211778D01*
X0150748Y0213376D02*
X0172598Y0213376D01*
X0172598Y0214975D02*
X0150748Y0214975D01*
X0150748Y0216573D02*
X0172598Y0216573D01*
X0172598Y0218172D02*
X0150748Y0218172D01*
X0150748Y0219770D02*
X0172598Y0219770D01*
X0173651Y0221369D02*
X0150748Y0221369D01*
X0150748Y0222967D02*
X0175250Y0222967D01*
X0176848Y0224566D02*
X0150748Y0224566D01*
X0150748Y0226164D02*
X0177867Y0226164D01*
X0177867Y0227763D02*
X0150748Y0227763D01*
X0150748Y0229361D02*
X0181644Y0229361D01*
X0183242Y0230960D02*
X0150748Y0230960D01*
X0150748Y0232558D02*
X0184841Y0232558D01*
X0186439Y0234157D02*
X0150748Y0234157D01*
X0150748Y0235755D02*
X0188038Y0235755D01*
X0189636Y0237354D02*
X0150748Y0237354D01*
X0150748Y0238952D02*
X0190959Y0238952D01*
X0190367Y0240551D02*
X0185686Y0240551D01*
X0185574Y0240505D02*
X0185907Y0240643D01*
X0187741Y0240643D01*
X0188561Y0241463D01*
X0188561Y0243296D01*
X0188698Y0243629D01*
X0188698Y0245180D01*
X0188561Y0245513D01*
X0188561Y0247347D01*
X0187741Y0248167D01*
X0186552Y0248167D01*
X0176855Y0257864D01*
X0175758Y0258961D01*
X0174324Y0259555D01*
X0124735Y0259555D01*
X0119735Y0264555D01*
X0112362Y0264555D01*
X0107148Y0259341D01*
X0107148Y0251968D01*
X0112362Y0246755D01*
X0119735Y0246755D01*
X0124735Y0251755D01*
X0171933Y0251755D01*
X0181036Y0242652D01*
X0181036Y0241463D01*
X0181856Y0240643D01*
X0183690Y0240643D01*
X0184023Y0240505D01*
X0185574Y0240505D01*
X0183911Y0240551D02*
X0151487Y0240551D01*
X0151730Y0240794D02*
X0151730Y0245516D01*
X0150909Y0246336D01*
X0146187Y0246336D01*
X0145367Y0245516D01*
X0145367Y0240794D01*
X0146187Y0239974D01*
X0146348Y0239974D01*
X0146348Y0181336D01*
X0146187Y0181336D01*
X0145367Y0180516D01*
X0145367Y0175794D01*
X0146187Y0174974D01*
X0150909Y0174974D01*
X0151730Y0175794D01*
X0151730Y0180516D01*
X0150909Y0181336D01*
X0150748Y0181336D01*
X0150748Y0239974D01*
X0150909Y0239974D01*
X0151730Y0240794D01*
X0151730Y0242149D02*
X0181036Y0242149D01*
X0179940Y0243748D02*
X0151730Y0243748D01*
X0151730Y0245346D02*
X0178341Y0245346D01*
X0176743Y0246945D02*
X0119925Y0246945D01*
X0121524Y0248543D02*
X0175144Y0248543D01*
X0173546Y0250142D02*
X0123122Y0250142D01*
X0124721Y0251740D02*
X0171947Y0251740D01*
X0176855Y0257864D02*
X0176855Y0257864D01*
X0176584Y0258135D02*
X0195486Y0258135D01*
X0195367Y0256536D02*
X0178183Y0256536D01*
X0179781Y0254937D02*
X0195367Y0254937D01*
X0195367Y0253339D02*
X0181380Y0253339D01*
X0182978Y0251740D02*
X0196348Y0251740D01*
X0196348Y0250142D02*
X0184577Y0250142D01*
X0186175Y0248543D02*
X0196348Y0248543D01*
X0196348Y0246945D02*
X0188561Y0246945D01*
X0188630Y0245346D02*
X0196348Y0245346D01*
X0200748Y0245346D02*
X0210129Y0245346D01*
X0208530Y0243748D02*
X0200748Y0243748D01*
X0200748Y0242149D02*
X0206932Y0242149D01*
X0206348Y0240551D02*
X0200748Y0240551D01*
X0200748Y0238952D02*
X0206348Y0238952D01*
X0205367Y0237354D02*
X0200748Y0237354D01*
X0200748Y0235755D02*
X0205367Y0235755D01*
X0205367Y0234157D02*
X0200748Y0234157D01*
X0200748Y0232558D02*
X0206103Y0232558D01*
X0208548Y0235655D02*
X0208548Y0240655D01*
X0241048Y0273155D01*
X0303548Y0273155D01*
X0331048Y0273155D01*
X0346048Y0288155D01*
X0356048Y0288155D01*
X0381048Y0288155D01*
X0393548Y0275655D01*
X0390367Y0275718D02*
X0352980Y0275718D01*
X0352980Y0277317D02*
X0388775Y0277317D01*
X0387177Y0278915D02*
X0339920Y0278915D01*
X0338322Y0277317D02*
X0346617Y0277317D01*
X0346617Y0275718D02*
X0336723Y0275718D01*
X0335125Y0274120D02*
X0346617Y0274120D01*
X0347390Y0272521D02*
X0333526Y0272521D01*
X0330501Y0275718D02*
X0306527Y0275718D01*
X0306008Y0277444D02*
X0309279Y0278799D01*
X0311782Y0281302D01*
X0313137Y0284573D01*
X0313137Y0303114D01*
X0311782Y0306385D01*
X0309279Y0308889D01*
X0306008Y0310244D01*
X0302467Y0310244D01*
X0299196Y0308889D01*
X0296692Y0306385D01*
X0295337Y0303114D01*
X0295337Y0284573D01*
X0296692Y0281302D01*
X0299196Y0278799D01*
X0302467Y0277444D01*
X0306008Y0277444D01*
X0309395Y0278915D02*
X0333698Y0278915D01*
X0335296Y0280514D02*
X0310994Y0280514D01*
X0312118Y0282112D02*
X0336895Y0282112D01*
X0338493Y0283711D02*
X0312780Y0283711D01*
X0313137Y0285309D02*
X0340092Y0285309D01*
X0341690Y0286908D02*
X0313137Y0286908D01*
X0313137Y0288506D02*
X0343289Y0288506D01*
X0344887Y0290105D02*
X0313137Y0290105D01*
X0313137Y0291703D02*
X0374900Y0291703D01*
X0375618Y0291331D02*
X0375618Y0291331D01*
X0371816Y0293302D02*
X0313137Y0293302D01*
X0313137Y0294900D02*
X0369558Y0294900D01*
X0370589Y0293937D02*
X0370589Y0293937D01*
X0367846Y0296499D02*
X0313137Y0296499D01*
X0313137Y0298097D02*
X0366271Y0298097D01*
X0365298Y0299696D02*
X0313137Y0299696D01*
X0313137Y0301294D02*
X0364326Y0301294D01*
X0363436Y0302893D02*
X0313137Y0302893D01*
X0312567Y0304491D02*
X0362988Y0304491D01*
X0362540Y0306090D02*
X0311905Y0306090D01*
X0310479Y0307688D02*
X0362092Y0307688D01*
X0361978Y0309287D02*
X0308318Y0309287D01*
X0300157Y0309287D02*
X0289076Y0309287D01*
X0288743Y0309496D02*
X0287802Y0309949D01*
X0286816Y0310294D01*
X0285798Y0310527D01*
X0285012Y0310615D01*
X0285012Y0294619D01*
X0283463Y0294619D01*
X0283463Y0310615D01*
X0282677Y0310527D01*
X0281659Y0310294D01*
X0280673Y0309949D01*
X0279732Y0309496D01*
X0278847Y0308940D01*
X0278031Y0308289D01*
X0277292Y0307550D01*
X0276641Y0306734D01*
X0276085Y0305849D01*
X0275632Y0304908D01*
X0275287Y0303922D01*
X0275054Y0302904D01*
X0274937Y0301866D01*
X0274937Y0294619D01*
X0283463Y0294619D01*
X0283463Y0293069D01*
X0285012Y0293069D01*
X0285012Y0277072D01*
X0285798Y0277161D01*
X0286816Y0277393D01*
X0287802Y0277738D01*
X0288743Y0278191D01*
X0289628Y0278747D01*
X0290444Y0279398D01*
X0291183Y0280137D01*
X0291834Y0280954D01*
X0292390Y0281838D01*
X0292843Y0282779D01*
X0293188Y0283765D01*
X0293420Y0284783D01*
X0293537Y0285821D01*
X0293537Y0293069D01*
X0285012Y0293069D01*
X0285012Y0294619D01*
X0293537Y0294619D01*
X0293537Y0301866D01*
X0293420Y0302904D01*
X0293188Y0303922D01*
X0292843Y0304908D01*
X0292390Y0305849D01*
X0291834Y0306734D01*
X0291183Y0307550D01*
X0290444Y0308289D01*
X0289628Y0308940D01*
X0288743Y0309496D01*
X0291045Y0307688D02*
X0297996Y0307688D01*
X0296570Y0306090D02*
X0292239Y0306090D01*
X0292989Y0304491D02*
X0295908Y0304491D01*
X0295337Y0302893D02*
X0293422Y0302893D01*
X0293537Y0301294D02*
X0295337Y0301294D01*
X0295337Y0299696D02*
X0293537Y0299696D01*
X0293537Y0298097D02*
X0295337Y0298097D01*
X0295337Y0296499D02*
X0293537Y0296499D01*
X0293537Y0294900D02*
X0295337Y0294900D01*
X0295337Y0293302D02*
X0285012Y0293302D01*
X0283463Y0293302D02*
X0265012Y0293302D01*
X0265012Y0293069D02*
X0265012Y0294619D01*
X0263463Y0294619D01*
X0263463Y0310615D01*
X0262677Y0310527D01*
X0261659Y0310294D01*
X0260673Y0309949D01*
X0259732Y0309496D01*
X0258847Y0308940D01*
X0258031Y0308289D01*
X0257292Y0307550D01*
X0256641Y0306734D01*
X0256085Y0305849D01*
X0255632Y0304908D01*
X0255287Y0303922D01*
X0255054Y0302904D01*
X0254937Y0301866D01*
X0254937Y0294619D01*
X0263463Y0294619D01*
X0263463Y0293069D01*
X0265012Y0293069D01*
X0265012Y0277072D01*
X0265798Y0277161D01*
X0266816Y0277393D01*
X0267802Y0277738D01*
X0268743Y0278191D01*
X0269628Y0278747D01*
X0270444Y0279398D01*
X0271183Y0280137D01*
X0271834Y0280954D01*
X0272390Y0281838D01*
X0272843Y0282779D01*
X0273188Y0283765D01*
X0273420Y0284783D01*
X0273537Y0285821D01*
X0273537Y0293069D01*
X0265012Y0293069D01*
X0265012Y0291703D02*
X0263463Y0291703D01*
X0263463Y0293069D02*
X0263463Y0277072D01*
X0262677Y0277161D01*
X0261659Y0277393D01*
X0260673Y0277738D01*
X0259732Y0278191D01*
X0258847Y0278747D01*
X0258031Y0279398D01*
X0257292Y0280137D01*
X0256641Y0280954D01*
X0256085Y0281838D01*
X0255632Y0282779D01*
X0255287Y0283765D01*
X0255054Y0284783D01*
X0254937Y0285821D01*
X0254937Y0293069D01*
X0263463Y0293069D01*
X0263463Y0293302D02*
X0253137Y0293302D01*
X0253137Y0294900D02*
X0254937Y0294900D01*
X0254937Y0296499D02*
X0253137Y0296499D01*
X0253137Y0298097D02*
X0254937Y0298097D01*
X0254937Y0299696D02*
X0253137Y0299696D01*
X0253137Y0301294D02*
X0254937Y0301294D01*
X0255053Y0302893D02*
X0253137Y0302893D01*
X0253137Y0303114D02*
X0251782Y0306385D01*
X0249279Y0308889D01*
X0246008Y0310244D01*
X0242467Y0310244D01*
X0239196Y0308889D01*
X0236692Y0306385D01*
X0235337Y0303114D01*
X0235337Y0284573D01*
X0236692Y0281302D01*
X0239196Y0278799D01*
X0242467Y0277444D01*
X0246008Y0277444D01*
X0249279Y0278799D01*
X0251782Y0281302D01*
X0253137Y0284573D01*
X0253137Y0303114D01*
X0252567Y0304491D02*
X0255486Y0304491D01*
X0256236Y0306090D02*
X0251905Y0306090D01*
X0250479Y0307688D02*
X0257430Y0307688D01*
X0259399Y0309287D02*
X0248318Y0309287D01*
X0240157Y0309287D02*
X0228318Y0309287D01*
X0229279Y0308889D02*
X0226008Y0310244D01*
X0222467Y0310244D01*
X0219196Y0308889D01*
X0216692Y0306385D01*
X0215337Y0303114D01*
X0215337Y0284573D01*
X0216692Y0281302D01*
X0219196Y0278799D01*
X0222467Y0277444D01*
X0226008Y0277444D01*
X0229279Y0278799D01*
X0231782Y0281302D01*
X0233137Y0284573D01*
X0233137Y0303114D01*
X0231782Y0306385D01*
X0229279Y0308889D01*
X0230479Y0307688D02*
X0237996Y0307688D01*
X0236570Y0306090D02*
X0231905Y0306090D01*
X0232567Y0304491D02*
X0235908Y0304491D01*
X0235337Y0302893D02*
X0233137Y0302893D01*
X0233137Y0301294D02*
X0235337Y0301294D01*
X0235337Y0299696D02*
X0233137Y0299696D01*
X0233137Y0298097D02*
X0235337Y0298097D01*
X0235337Y0296499D02*
X0233137Y0296499D01*
X0233137Y0294900D02*
X0235337Y0294900D01*
X0235337Y0293302D02*
X0233137Y0293302D01*
X0233137Y0291703D02*
X0235337Y0291703D01*
X0235337Y0290105D02*
X0233137Y0290105D01*
X0233137Y0288506D02*
X0235337Y0288506D01*
X0235337Y0286908D02*
X0233137Y0286908D01*
X0233137Y0285309D02*
X0235337Y0285309D01*
X0235695Y0283711D02*
X0232780Y0283711D01*
X0232118Y0282112D02*
X0236357Y0282112D01*
X0237481Y0280514D02*
X0230994Y0280514D01*
X0229395Y0278915D02*
X0239079Y0278915D01*
X0238902Y0274120D02*
X0010867Y0274120D01*
X0010867Y0275718D02*
X0300570Y0275718D01*
X0299079Y0278915D02*
X0289838Y0278915D01*
X0291483Y0280514D02*
X0297481Y0280514D01*
X0296357Y0282112D02*
X0292522Y0282112D01*
X0293169Y0283711D02*
X0295695Y0283711D01*
X0295337Y0285309D02*
X0293480Y0285309D01*
X0293537Y0286908D02*
X0295337Y0286908D01*
X0295337Y0288506D02*
X0293537Y0288506D01*
X0293537Y0290105D02*
X0295337Y0290105D01*
X0295337Y0291703D02*
X0293537Y0291703D01*
X0285012Y0291703D02*
X0283463Y0291703D01*
X0283463Y0293069D02*
X0283463Y0277072D01*
X0282677Y0277161D01*
X0281659Y0277393D01*
X0280673Y0277738D01*
X0279732Y0278191D01*
X0278847Y0278747D01*
X0278031Y0279398D01*
X0277292Y0280137D01*
X0276641Y0280954D01*
X0276085Y0281838D01*
X0275632Y0282779D01*
X0275287Y0283765D01*
X0275054Y0284783D01*
X0274937Y0285821D01*
X0274937Y0293069D01*
X0283463Y0293069D01*
X0283463Y0294900D02*
X0285012Y0294900D01*
X0285012Y0296499D02*
X0283463Y0296499D01*
X0283463Y0298097D02*
X0285012Y0298097D01*
X0285012Y0299696D02*
X0283463Y0299696D01*
X0283463Y0301294D02*
X0285012Y0301294D01*
X0285012Y0302893D02*
X0283463Y0302893D01*
X0283463Y0304491D02*
X0285012Y0304491D01*
X0285012Y0306090D02*
X0283463Y0306090D01*
X0283463Y0307688D02*
X0285012Y0307688D01*
X0285012Y0309287D02*
X0283463Y0309287D01*
X0279399Y0309287D02*
X0269076Y0309287D01*
X0268743Y0309496D02*
X0267802Y0309949D01*
X0266816Y0310294D01*
X0265798Y0310527D01*
X0265012Y0310615D01*
X0265012Y0294619D01*
X0273537Y0294619D01*
X0273537Y0301866D01*
X0273420Y0302904D01*
X0273188Y0303922D01*
X0272843Y0304908D01*
X0272390Y0305849D01*
X0271834Y0306734D01*
X0271183Y0307550D01*
X0270444Y0308289D01*
X0269628Y0308940D01*
X0268743Y0309496D01*
X0271045Y0307688D02*
X0277430Y0307688D01*
X0276236Y0306090D02*
X0272239Y0306090D01*
X0272989Y0304491D02*
X0275486Y0304491D01*
X0275053Y0302893D02*
X0273422Y0302893D01*
X0273537Y0301294D02*
X0274937Y0301294D01*
X0274937Y0299696D02*
X0273537Y0299696D01*
X0273537Y0298097D02*
X0274937Y0298097D01*
X0274937Y0296499D02*
X0273537Y0296499D01*
X0273537Y0294900D02*
X0274937Y0294900D01*
X0274937Y0291703D02*
X0273537Y0291703D01*
X0273537Y0290105D02*
X0274937Y0290105D01*
X0274937Y0288506D02*
X0273537Y0288506D01*
X0273537Y0286908D02*
X0274937Y0286908D01*
X0274995Y0285309D02*
X0273480Y0285309D01*
X0273169Y0283711D02*
X0275306Y0283711D01*
X0275953Y0282112D02*
X0272522Y0282112D01*
X0271483Y0280514D02*
X0276992Y0280514D01*
X0278636Y0278915D02*
X0269838Y0278915D01*
X0266481Y0277317D02*
X0281994Y0277317D01*
X0283463Y0277317D02*
X0285012Y0277317D01*
X0286481Y0277317D02*
X0332099Y0277317D01*
X0341519Y0280514D02*
X0385578Y0280514D01*
X0383980Y0282112D02*
X0343117Y0282112D01*
X0344716Y0283711D02*
X0382381Y0283711D01*
X0380783Y0285309D02*
X0358745Y0285309D01*
X0353352Y0285309D02*
X0346314Y0285309D01*
X0349798Y0275655D02*
X0354798Y0270655D01*
X0377298Y0270655D01*
X0380480Y0270923D02*
X0400167Y0270923D01*
X0400167Y0272521D02*
X0395957Y0272521D01*
X0396730Y0274120D02*
X0400167Y0274120D01*
X0400167Y0275718D02*
X0396730Y0275718D01*
X0396730Y0277317D02*
X0400167Y0277317D01*
X0400167Y0278915D02*
X0393399Y0278915D01*
X0391801Y0280514D02*
X0400167Y0280514D01*
X0400167Y0282112D02*
X0390202Y0282112D01*
X0388604Y0283711D02*
X0400167Y0283711D01*
X0400167Y0285309D02*
X0387005Y0285309D01*
X0385407Y0286908D02*
X0400167Y0286908D01*
X0400167Y0288506D02*
X0383808Y0288506D01*
X0382210Y0290105D02*
X0400167Y0290105D01*
X0400167Y0291703D02*
X0390017Y0291703D01*
X0386816Y0290565D02*
X0386816Y0290565D01*
X0393342Y0293302D02*
X0400167Y0293302D01*
X0400167Y0294900D02*
X0395607Y0294900D01*
X0396781Y0295729D02*
X0396781Y0295729D01*
X0396781Y0295729D01*
X0397407Y0296499D02*
X0400167Y0296499D01*
X0400167Y0298097D02*
X0398708Y0298097D01*
X0400008Y0299696D02*
X0400167Y0299696D01*
X0390367Y0274120D02*
X0354445Y0274120D01*
X0351419Y0270923D02*
X0306730Y0270923D01*
X0306671Y0269324D02*
X0353018Y0269324D01*
X0350327Y0264529D02*
X0362336Y0264529D01*
X0362362Y0264555D02*
X0357148Y0259341D01*
X0357148Y0251968D01*
X0362362Y0246755D01*
X0369735Y0246755D01*
X0374948Y0251968D01*
X0374948Y0259341D01*
X0369735Y0264555D01*
X0362362Y0264555D01*
X0360737Y0262930D02*
X0351925Y0262930D01*
X0353524Y0261332D02*
X0359139Y0261332D01*
X0357540Y0259733D02*
X0355122Y0259733D01*
X0355348Y0258135D02*
X0357148Y0258135D01*
X0357148Y0256536D02*
X0355348Y0256536D01*
X0355348Y0254937D02*
X0357148Y0254937D01*
X0357148Y0253339D02*
X0355348Y0253339D01*
X0355286Y0251740D02*
X0357376Y0251740D01*
X0358975Y0250142D02*
X0353688Y0250142D01*
X0352089Y0248543D02*
X0360573Y0248543D01*
X0362172Y0246945D02*
X0350491Y0246945D01*
X0346623Y0246945D02*
X0345473Y0246945D01*
X0345473Y0248543D02*
X0346623Y0248543D01*
X0346623Y0250142D02*
X0345473Y0250142D01*
X0345473Y0251740D02*
X0346623Y0251740D01*
X0346623Y0253339D02*
X0345473Y0253339D01*
X0345473Y0254937D02*
X0346623Y0254937D01*
X0340008Y0248543D02*
X0332089Y0248543D01*
X0330491Y0246945D02*
X0341606Y0246945D01*
X0339230Y0244886D02*
X0338409Y0245706D01*
X0333687Y0245706D01*
X0332867Y0244886D01*
X0332867Y0240164D01*
X0333687Y0239344D01*
X0333848Y0239344D01*
X0333848Y0236566D01*
X0328848Y0231566D01*
X0328848Y0204743D01*
X0330137Y0203455D01*
X0333848Y0199743D01*
X0333848Y0176336D01*
X0333687Y0176336D01*
X0332867Y0175516D01*
X0332867Y0170794D01*
X0333687Y0169974D01*
X0338409Y0169974D01*
X0339230Y0170794D01*
X0339230Y0175516D01*
X0338409Y0176336D01*
X0338248Y0176336D01*
X0338248Y0201566D01*
X0333248Y0206566D01*
X0333248Y0229743D01*
X0336960Y0233455D01*
X0338248Y0234743D01*
X0338248Y0239344D01*
X0338409Y0239344D01*
X0339230Y0240164D01*
X0339230Y0244886D01*
X0338769Y0245346D02*
X0400167Y0245346D01*
X0400167Y0243748D02*
X0339230Y0243748D01*
X0339230Y0242149D02*
X0400167Y0242149D01*
X0400167Y0240551D02*
X0339230Y0240551D01*
X0338248Y0238952D02*
X0400167Y0238952D01*
X0400167Y0237354D02*
X0338248Y0237354D01*
X0338248Y0235755D02*
X0400167Y0235755D01*
X0400167Y0234157D02*
X0337662Y0234157D01*
X0336048Y0235655D02*
X0336048Y0242525D01*
X0332867Y0242149D02*
X0260748Y0242149D01*
X0260748Y0240551D02*
X0332867Y0240551D01*
X0333848Y0238952D02*
X0260748Y0238952D01*
X0260748Y0237354D02*
X0333848Y0237354D01*
X0333038Y0235755D02*
X0260748Y0235755D01*
X0260748Y0234157D02*
X0331439Y0234157D01*
X0329841Y0232558D02*
X0260748Y0232558D01*
X0260748Y0230960D02*
X0328848Y0230960D01*
X0328848Y0229361D02*
X0260748Y0229361D01*
X0260748Y0227763D02*
X0328848Y0227763D01*
X0328848Y0226164D02*
X0260748Y0226164D01*
X0260748Y0224566D02*
X0328848Y0224566D01*
X0328848Y0222967D02*
X0295323Y0222967D01*
X0295177Y0223114D02*
X0293571Y0223779D01*
X0291833Y0223779D01*
X0290227Y0223114D01*
X0288999Y0221885D01*
X0288333Y0220280D01*
X0288333Y0212605D01*
X0288999Y0210999D01*
X0290227Y0209770D01*
X0291833Y0209105D01*
X0293571Y0209105D01*
X0295177Y0209770D01*
X0296405Y0210999D01*
X0297070Y0212605D01*
X0297070Y0220280D01*
X0296405Y0221885D01*
X0295177Y0223114D01*
X0296619Y0221369D02*
X0328848Y0221369D01*
X0328848Y0219770D02*
X0297070Y0219770D01*
X0297070Y0218172D02*
X0328848Y0218172D01*
X0328848Y0216573D02*
X0297070Y0216573D01*
X0297070Y0214975D02*
X0328848Y0214975D01*
X0328848Y0213376D02*
X0297070Y0213376D01*
X0296728Y0211778D02*
X0328848Y0211778D01*
X0328848Y0210179D02*
X0295586Y0210179D01*
X0289818Y0210179D02*
X0285586Y0210179D01*
X0285177Y0209770D02*
X0286405Y0210999D01*
X0287070Y0212605D01*
X0287070Y0220280D01*
X0286405Y0221885D01*
X0285177Y0223114D01*
X0283571Y0223779D01*
X0281833Y0223779D01*
X0280227Y0223114D01*
X0278999Y0221885D01*
X0278333Y0220280D01*
X0278333Y0212605D01*
X0278999Y0210999D01*
X0280227Y0209770D01*
X0281833Y0209105D01*
X0283571Y0209105D01*
X0285177Y0209770D01*
X0286728Y0211778D02*
X0288676Y0211778D01*
X0288333Y0213376D02*
X0287070Y0213376D01*
X0287070Y0214975D02*
X0288333Y0214975D01*
X0288333Y0216573D02*
X0287070Y0216573D01*
X0287070Y0218172D02*
X0288333Y0218172D01*
X0288333Y0219770D02*
X0287070Y0219770D01*
X0286619Y0221369D02*
X0288785Y0221369D01*
X0290081Y0222967D02*
X0285323Y0222967D01*
X0280081Y0222967D02*
X0260748Y0222967D01*
X0260748Y0221369D02*
X0278785Y0221369D01*
X0278333Y0219770D02*
X0260748Y0219770D01*
X0260748Y0218172D02*
X0278333Y0218172D01*
X0278333Y0216573D02*
X0260748Y0216573D01*
X0260748Y0214975D02*
X0278333Y0214975D01*
X0278333Y0213376D02*
X0260748Y0213376D01*
X0260748Y0211778D02*
X0278676Y0211778D01*
X0279818Y0210179D02*
X0260748Y0210179D01*
X0260748Y0208581D02*
X0328848Y0208581D01*
X0328848Y0206982D02*
X0260748Y0206982D01*
X0260748Y0205384D02*
X0328848Y0205384D01*
X0329807Y0203785D02*
X0260748Y0203785D01*
X0260748Y0202187D02*
X0331405Y0202187D01*
X0333004Y0200588D02*
X0260748Y0200588D01*
X0260748Y0198990D02*
X0333848Y0198990D01*
X0333848Y0197391D02*
X0260748Y0197391D01*
X0260748Y0195793D02*
X0333848Y0195793D01*
X0333848Y0194194D02*
X0260748Y0194194D01*
X0260748Y0192596D02*
X0333848Y0192596D01*
X0333848Y0190997D02*
X0260748Y0190997D01*
X0260748Y0189399D02*
X0333848Y0189399D01*
X0333848Y0187800D02*
X0260748Y0187800D01*
X0260748Y0186202D02*
X0333848Y0186202D01*
X0333848Y0184603D02*
X0260748Y0184603D01*
X0260748Y0183004D02*
X0333848Y0183004D01*
X0333848Y0181406D02*
X0260748Y0181406D01*
X0260748Y0179807D02*
X0333848Y0179807D01*
X0333848Y0178209D02*
X0260748Y0178209D01*
X0260748Y0176610D02*
X0333848Y0176610D01*
X0332867Y0175012D02*
X0260748Y0175012D01*
X0260748Y0174743D02*
X0260748Y0259743D01*
X0261960Y0260955D01*
X0267867Y0260955D01*
X0267867Y0260794D01*
X0268687Y0259974D01*
X0273409Y0259974D01*
X0274230Y0260794D01*
X0274230Y0265516D01*
X0273409Y0266336D01*
X0268687Y0266336D01*
X0267867Y0265516D01*
X0267867Y0265355D01*
X0260137Y0265355D01*
X0257637Y0262855D01*
X0256348Y0261566D01*
X0256348Y0176566D01*
X0254937Y0175155D01*
X0240220Y0175155D01*
X0238901Y0173836D01*
X0236187Y0173836D01*
X0235367Y0173016D01*
X0235367Y0168294D01*
X0236187Y0167474D01*
X0240909Y0167474D01*
X0241730Y0168294D01*
X0241730Y0171007D01*
X0241877Y0171155D01*
X0254937Y0171155D01*
X0255137Y0170955D01*
X0256960Y0170955D01*
X0259460Y0173455D01*
X0260748Y0174743D01*
X0259418Y0173413D02*
X0332867Y0173413D01*
X0332867Y0171815D02*
X0257820Y0171815D01*
X0256048Y0173155D02*
X0258548Y0175655D01*
X0258548Y0260655D01*
X0261048Y0263155D01*
X0271048Y0263155D01*
X0274230Y0262930D02*
X0293962Y0262930D01*
X0292364Y0261332D02*
X0274230Y0261332D01*
X0274230Y0264529D02*
X0295561Y0264529D01*
X0297160Y0266127D02*
X0273618Y0266127D01*
X0268479Y0266127D02*
X0237132Y0266127D01*
X0235534Y0264529D02*
X0259311Y0264529D01*
X0257712Y0262930D02*
X0233935Y0262930D01*
X0232337Y0261332D02*
X0256348Y0261332D01*
X0256348Y0259733D02*
X0230738Y0259733D01*
X0229139Y0258135D02*
X0256348Y0258135D01*
X0256348Y0256536D02*
X0227541Y0256536D01*
X0225942Y0254937D02*
X0256348Y0254937D01*
X0256348Y0253339D02*
X0224344Y0253339D01*
X0222745Y0251740D02*
X0256348Y0251740D01*
X0256348Y0250142D02*
X0221147Y0250142D01*
X0219548Y0248543D02*
X0256348Y0248543D01*
X0256348Y0246945D02*
X0217950Y0246945D01*
X0216351Y0245346D02*
X0256348Y0245346D01*
X0256348Y0243748D02*
X0214753Y0243748D01*
X0213154Y0242149D02*
X0256348Y0242149D01*
X0256348Y0240551D02*
X0211556Y0240551D01*
X0210748Y0238952D02*
X0256348Y0238952D01*
X0256348Y0237354D02*
X0211730Y0237354D01*
X0211730Y0235755D02*
X0256348Y0235755D01*
X0256348Y0234157D02*
X0211730Y0234157D01*
X0210994Y0232558D02*
X0256348Y0232558D01*
X0256348Y0230960D02*
X0200748Y0230960D01*
X0200748Y0229361D02*
X0256348Y0229361D01*
X0256348Y0227763D02*
X0200748Y0227763D01*
X0200748Y0226164D02*
X0256348Y0226164D01*
X0256348Y0224566D02*
X0200748Y0224566D01*
X0200748Y0222967D02*
X0256348Y0222967D01*
X0256348Y0221369D02*
X0200748Y0221369D01*
X0200748Y0219770D02*
X0256348Y0219770D01*
X0256348Y0218172D02*
X0200748Y0218172D01*
X0200748Y0216573D02*
X0256348Y0216573D01*
X0256348Y0214975D02*
X0200748Y0214975D01*
X0200748Y0213376D02*
X0256348Y0213376D01*
X0256348Y0211778D02*
X0200748Y0211778D01*
X0200748Y0210179D02*
X0256348Y0210179D01*
X0256348Y0208581D02*
X0200748Y0208581D01*
X0200748Y0206982D02*
X0256348Y0206982D01*
X0256348Y0205384D02*
X0200748Y0205384D01*
X0200748Y0203785D02*
X0256348Y0203785D01*
X0256348Y0202187D02*
X0200748Y0202187D01*
X0200748Y0200588D02*
X0256348Y0200588D01*
X0256348Y0198990D02*
X0200748Y0198990D01*
X0200748Y0197391D02*
X0256348Y0197391D01*
X0256348Y0195793D02*
X0200748Y0195793D01*
X0200748Y0194194D02*
X0256348Y0194194D01*
X0256348Y0192596D02*
X0200748Y0192596D01*
X0200748Y0190997D02*
X0256348Y0190997D01*
X0256348Y0189399D02*
X0200748Y0189399D01*
X0200748Y0187800D02*
X0256348Y0187800D01*
X0256348Y0186202D02*
X0200748Y0186202D01*
X0200748Y0184603D02*
X0256348Y0184603D01*
X0256348Y0183004D02*
X0200748Y0183004D01*
X0200748Y0181406D02*
X0256348Y0181406D01*
X0256348Y0179807D02*
X0200748Y0179807D01*
X0200748Y0178209D02*
X0256348Y0178209D01*
X0256348Y0176610D02*
X0200115Y0176610D01*
X0198548Y0178155D02*
X0193548Y0173155D01*
X0190367Y0173413D02*
X0176998Y0173413D01*
X0176998Y0171815D02*
X0190367Y0171815D01*
X0190945Y0170216D02*
X0176998Y0170216D01*
X0176998Y0168618D02*
X0220900Y0168618D01*
X0219302Y0167019D02*
X0176998Y0167019D01*
X0176998Y0165421D02*
X0217703Y0165421D01*
X0216105Y0163822D02*
X0176998Y0163822D01*
X0176998Y0162224D02*
X0214506Y0162224D01*
X0212908Y0160625D02*
X0176998Y0160625D01*
X0176998Y0159027D02*
X0211309Y0159027D01*
X0209711Y0157428D02*
X0176998Y0157428D01*
X0176998Y0155830D02*
X0208112Y0155830D01*
X0208352Y0152958D02*
X0228548Y0173155D01*
X0225367Y0173413D02*
X0196918Y0173413D01*
X0196730Y0171815D02*
X0224097Y0171815D01*
X0222499Y0170216D02*
X0196152Y0170216D01*
X0198517Y0175012D02*
X0225367Y0175012D01*
X0231730Y0175012D02*
X0240077Y0175012D01*
X0235765Y0173413D02*
X0231730Y0173413D01*
X0231730Y0171815D02*
X0235367Y0171815D01*
X0235367Y0170216D02*
X0231152Y0170216D01*
X0227123Y0168618D02*
X0235367Y0168618D01*
X0241730Y0168618D02*
X0400167Y0168618D01*
X0400167Y0170216D02*
X0338652Y0170216D01*
X0339230Y0171815D02*
X0400167Y0171815D01*
X0400167Y0173413D02*
X0339230Y0173413D01*
X0339230Y0175012D02*
X0400167Y0175012D01*
X0400167Y0176610D02*
X0338248Y0176610D01*
X0338248Y0178209D02*
X0400167Y0178209D01*
X0400167Y0179807D02*
X0338248Y0179807D01*
X0338248Y0181406D02*
X0400167Y0181406D01*
X0400167Y0183004D02*
X0338248Y0183004D01*
X0338248Y0184603D02*
X0400167Y0184603D01*
X0400167Y0186202D02*
X0338248Y0186202D01*
X0338248Y0187800D02*
X0400167Y0187800D01*
X0400167Y0189399D02*
X0338248Y0189399D01*
X0338248Y0190997D02*
X0400167Y0190997D01*
X0400167Y0192596D02*
X0338248Y0192596D01*
X0338248Y0194194D02*
X0400167Y0194194D01*
X0400167Y0195793D02*
X0338248Y0195793D01*
X0338248Y0197391D02*
X0400167Y0197391D01*
X0400167Y0198990D02*
X0338248Y0198990D01*
X0338248Y0200588D02*
X0400167Y0200588D01*
X0400167Y0202187D02*
X0337628Y0202187D01*
X0336048Y0200655D02*
X0331048Y0205655D01*
X0331048Y0230655D01*
X0336048Y0235655D01*
X0336063Y0232558D02*
X0400167Y0232558D01*
X0400167Y0230960D02*
X0334465Y0230960D01*
X0333248Y0229361D02*
X0400167Y0229361D01*
X0400167Y0227763D02*
X0333248Y0227763D01*
X0333248Y0226164D02*
X0400167Y0226164D01*
X0400167Y0224566D02*
X0333248Y0224566D01*
X0333248Y0222967D02*
X0339136Y0222967D01*
X0339283Y0223114D02*
X0338054Y0221885D01*
X0337389Y0220280D01*
X0337389Y0212605D01*
X0338054Y0210999D01*
X0339283Y0209770D01*
X0340888Y0209105D01*
X0342626Y0209105D01*
X0344232Y0209770D01*
X0345461Y0210999D01*
X0346126Y0212605D01*
X0346126Y0220280D01*
X0345461Y0221885D01*
X0344232Y0223114D01*
X0342626Y0223779D01*
X0340888Y0223779D01*
X0339283Y0223114D01*
X0337840Y0221369D02*
X0333248Y0221369D01*
X0333248Y0219770D02*
X0337389Y0219770D01*
X0337389Y0218172D02*
X0333248Y0218172D01*
X0333248Y0216573D02*
X0337389Y0216573D01*
X0337389Y0214975D02*
X0333248Y0214975D01*
X0333248Y0213376D02*
X0337389Y0213376D01*
X0337731Y0211778D02*
X0333248Y0211778D01*
X0333248Y0210179D02*
X0338874Y0210179D01*
X0344641Y0210179D02*
X0348874Y0210179D01*
X0349283Y0209770D02*
X0350888Y0209105D01*
X0352626Y0209105D01*
X0354232Y0209770D01*
X0355461Y0210999D01*
X0356126Y0212605D01*
X0356126Y0220280D01*
X0355461Y0221885D01*
X0354232Y0223114D01*
X0352626Y0223779D01*
X0350888Y0223779D01*
X0349283Y0223114D01*
X0348054Y0221885D01*
X0347389Y0220280D01*
X0347389Y0212605D01*
X0348054Y0210999D01*
X0349283Y0209770D01*
X0347731Y0211778D02*
X0345783Y0211778D01*
X0346126Y0213376D02*
X0347389Y0213376D01*
X0347389Y0214975D02*
X0346126Y0214975D01*
X0346126Y0216573D02*
X0347389Y0216573D01*
X0347389Y0218172D02*
X0346126Y0218172D01*
X0346126Y0219770D02*
X0347389Y0219770D01*
X0347840Y0221369D02*
X0345674Y0221369D01*
X0344378Y0222967D02*
X0349136Y0222967D01*
X0354378Y0222967D02*
X0400167Y0222967D01*
X0400167Y0221369D02*
X0355674Y0221369D01*
X0356126Y0219770D02*
X0400167Y0219770D01*
X0400167Y0218172D02*
X0356126Y0218172D01*
X0356126Y0216573D02*
X0400167Y0216573D01*
X0400167Y0214975D02*
X0356126Y0214975D01*
X0356126Y0213376D02*
X0400167Y0213376D01*
X0400167Y0211778D02*
X0355783Y0211778D01*
X0354641Y0210179D02*
X0400167Y0210179D01*
X0400167Y0208581D02*
X0333248Y0208581D01*
X0333248Y0206982D02*
X0400167Y0206982D01*
X0400167Y0205384D02*
X0334431Y0205384D01*
X0336029Y0203785D02*
X0400167Y0203785D01*
X0400167Y0167019D02*
X0225524Y0167019D01*
X0223926Y0165421D02*
X0289993Y0165421D01*
X0289993Y0163822D02*
X0222327Y0163822D01*
X0220729Y0162224D02*
X0289993Y0162224D01*
X0290162Y0160625D02*
X0219130Y0160625D01*
X0217532Y0159027D02*
X0290974Y0159027D01*
X0290974Y0157428D02*
X0215933Y0157428D01*
X0214335Y0155830D02*
X0290974Y0155830D01*
X0290974Y0154231D02*
X0212736Y0154231D01*
X0211138Y0152633D02*
X0220273Y0152633D01*
X0218634Y0151034D02*
X0210552Y0151034D01*
X0210552Y0149436D02*
X0217991Y0149436D01*
X0217991Y0147837D02*
X0210552Y0147837D01*
X0210552Y0146239D02*
X0218559Y0146239D01*
X0225108Y0152633D02*
X0290974Y0152633D01*
X0290974Y0151034D02*
X0226747Y0151034D01*
X0227391Y0149436D02*
X0290974Y0149436D01*
X0295374Y0155830D02*
X0296779Y0155830D01*
X0295374Y0157428D02*
X0298377Y0157428D01*
X0295374Y0159027D02*
X0400167Y0159027D01*
X0400167Y0160625D02*
X0296187Y0160625D01*
X0296355Y0162224D02*
X0400167Y0162224D01*
X0400167Y0163822D02*
X0296355Y0163822D01*
X0296355Y0165421D02*
X0400167Y0165421D01*
X0400167Y0157428D02*
X0304586Y0157428D01*
X0306184Y0155830D02*
X0400167Y0155830D01*
X0400167Y0154231D02*
X0307783Y0154231D01*
X0307881Y0152633D02*
X0400167Y0152633D01*
X0400167Y0151034D02*
X0307881Y0151034D01*
X0307881Y0149436D02*
X0400167Y0149436D01*
X0400167Y0147837D02*
X0306888Y0147837D01*
X0305290Y0146239D02*
X0400167Y0146239D01*
X0400167Y0135049D02*
X0332851Y0135049D01*
X0333248Y0133451D02*
X0400167Y0133451D01*
X0400167Y0131852D02*
X0333096Y0131852D01*
X0332294Y0130254D02*
X0400167Y0130254D01*
X0336048Y0173155D02*
X0336048Y0200655D01*
X0333445Y0170216D02*
X0241730Y0170216D01*
X0198548Y0178155D02*
X0198548Y0255655D01*
X0201730Y0254937D02*
X0219720Y0254937D01*
X0218121Y0253339D02*
X0201730Y0253339D01*
X0200748Y0251740D02*
X0216523Y0251740D01*
X0214924Y0250142D02*
X0200748Y0250142D01*
X0200748Y0248543D02*
X0213326Y0248543D01*
X0211727Y0246945D02*
X0200748Y0246945D01*
X0193548Y0241905D02*
X0193548Y0238155D01*
X0181048Y0225655D01*
X0174798Y0219405D01*
X0174798Y0200655D01*
X0176998Y0200588D02*
X0186348Y0200588D01*
X0186348Y0198990D02*
X0176998Y0198990D01*
X0176998Y0197391D02*
X0186348Y0197391D01*
X0186348Y0195793D02*
X0176998Y0195793D01*
X0176998Y0194194D02*
X0186348Y0194194D01*
X0186348Y0192596D02*
X0176998Y0192596D01*
X0176998Y0190997D02*
X0186348Y0190997D01*
X0186348Y0189399D02*
X0176998Y0189399D01*
X0176998Y0187800D02*
X0186348Y0187800D01*
X0186348Y0186202D02*
X0176998Y0186202D01*
X0176998Y0184603D02*
X0186348Y0184603D01*
X0186348Y0183004D02*
X0176998Y0183004D01*
X0176998Y0181406D02*
X0185367Y0181406D01*
X0185367Y0181766D02*
X0185367Y0177044D01*
X0186187Y0176224D01*
X0190909Y0176224D01*
X0191730Y0177044D01*
X0191730Y0181766D01*
X0190909Y0182586D01*
X0190748Y0182586D01*
X0190748Y0208724D01*
X0190909Y0208724D01*
X0191730Y0209544D01*
X0191730Y0214266D01*
X0190909Y0215086D01*
X0186187Y0215086D01*
X0185367Y0214266D01*
X0185367Y0209544D01*
X0186187Y0208724D01*
X0186348Y0208724D01*
X0186348Y0182586D01*
X0186187Y0182586D01*
X0185367Y0181766D01*
X0185367Y0179807D02*
X0176998Y0179807D01*
X0176998Y0178209D02*
X0185367Y0178209D01*
X0185801Y0176610D02*
X0176998Y0176610D01*
X0176998Y0175012D02*
X0190367Y0175012D01*
X0191296Y0176610D02*
X0193893Y0176610D01*
X0195491Y0178209D02*
X0191730Y0178209D01*
X0191730Y0179807D02*
X0196348Y0179807D01*
X0196348Y0181406D02*
X0191730Y0181406D01*
X0190748Y0183004D02*
X0196348Y0183004D01*
X0196348Y0184603D02*
X0190748Y0184603D01*
X0190748Y0186202D02*
X0196348Y0186202D01*
X0196348Y0187800D02*
X0190748Y0187800D01*
X0190748Y0189399D02*
X0196348Y0189399D01*
X0196348Y0190997D02*
X0190748Y0190997D01*
X0190748Y0192596D02*
X0196348Y0192596D01*
X0196348Y0194194D02*
X0190748Y0194194D01*
X0190748Y0195793D02*
X0196348Y0195793D01*
X0196348Y0197391D02*
X0190748Y0197391D01*
X0190748Y0198990D02*
X0196348Y0198990D01*
X0196348Y0200588D02*
X0190748Y0200588D01*
X0190748Y0202187D02*
X0196348Y0202187D01*
X0196348Y0203785D02*
X0190748Y0203785D01*
X0190748Y0205384D02*
X0196348Y0205384D01*
X0196348Y0206982D02*
X0190748Y0206982D01*
X0190748Y0208581D02*
X0196348Y0208581D01*
X0196348Y0210179D02*
X0191730Y0210179D01*
X0191730Y0211778D02*
X0196348Y0211778D01*
X0196348Y0213376D02*
X0191730Y0213376D01*
X0191021Y0214975D02*
X0196348Y0214975D01*
X0196348Y0216573D02*
X0176998Y0216573D01*
X0176998Y0214975D02*
X0186076Y0214975D01*
X0185367Y0213376D02*
X0176998Y0213376D01*
X0176998Y0211778D02*
X0185367Y0211778D01*
X0185367Y0210179D02*
X0176998Y0210179D01*
X0176998Y0208581D02*
X0186348Y0208581D01*
X0186348Y0206982D02*
X0176998Y0206982D01*
X0176998Y0205384D02*
X0186348Y0205384D01*
X0186348Y0203785D02*
X0176998Y0203785D01*
X0176998Y0202187D02*
X0186348Y0202187D01*
X0188548Y0211905D02*
X0188548Y0179405D01*
X0172598Y0179807D02*
X0151730Y0179807D01*
X0151730Y0178209D02*
X0172598Y0178209D01*
X0172598Y0176610D02*
X0151730Y0176610D01*
X0150948Y0175012D02*
X0172598Y0175012D01*
X0172598Y0173413D02*
X0134498Y0173413D01*
X0134498Y0171815D02*
X0172598Y0171815D01*
X0172598Y0170216D02*
X0134498Y0170216D01*
X0134498Y0168618D02*
X0172598Y0168618D01*
X0172598Y0167019D02*
X0134498Y0167019D01*
X0134498Y0165421D02*
X0172598Y0165421D01*
X0172598Y0163822D02*
X0134498Y0163822D01*
X0134498Y0162224D02*
X0172598Y0162224D01*
X0172598Y0160625D02*
X0134498Y0160625D01*
X0134498Y0159027D02*
X0172598Y0159027D01*
X0172598Y0157428D02*
X0134498Y0157428D01*
X0134498Y0155830D02*
X0172598Y0155830D01*
X0172598Y0154231D02*
X0134498Y0154231D01*
X0134498Y0152633D02*
X0172598Y0152633D01*
X0172598Y0151034D02*
X0134498Y0151034D01*
X0134498Y0149436D02*
X0172598Y0149436D01*
X0172598Y0147837D02*
X0134498Y0147837D01*
X0134498Y0146239D02*
X0153068Y0146239D01*
X0153028Y0146089D02*
X0153028Y0142886D01*
X0157793Y0142886D01*
X0157793Y0142321D01*
X0153028Y0142321D01*
X0153028Y0139119D01*
X0153151Y0138661D01*
X0153388Y0138250D01*
X0153723Y0137915D01*
X0154133Y0137678D01*
X0154591Y0137556D01*
X0157793Y0137556D01*
X0157793Y0142321D01*
X0158359Y0142321D01*
X0158359Y0142886D01*
X0163124Y0142886D01*
X0163124Y0146089D01*
X0163001Y0146546D01*
X0162764Y0146957D01*
X0162429Y0147292D01*
X0162019Y0147529D01*
X0161561Y0147652D01*
X0158359Y0147652D01*
X0158359Y0142886D01*
X0157793Y0142886D01*
X0157793Y0147652D01*
X0154591Y0147652D01*
X0154133Y0147529D01*
X0153723Y0147292D01*
X0153388Y0146957D01*
X0153151Y0146546D01*
X0153028Y0146089D01*
X0153028Y0144640D02*
X0134498Y0144640D01*
X0134498Y0143042D02*
X0153028Y0143042D01*
X0153028Y0141443D02*
X0134498Y0141443D01*
X0134498Y0139845D02*
X0153028Y0139845D01*
X0153392Y0138246D02*
X0134498Y0138246D01*
X0134498Y0136648D02*
X0172598Y0136648D01*
X0172598Y0138246D02*
X0162760Y0138246D01*
X0162764Y0138250D02*
X0163001Y0138661D01*
X0163124Y0139119D01*
X0163124Y0142321D01*
X0158359Y0142321D01*
X0158359Y0137556D01*
X0161561Y0137556D01*
X0162019Y0137678D01*
X0162429Y0137915D01*
X0162764Y0138250D01*
X0163124Y0139845D02*
X0172598Y0139845D01*
X0172598Y0141443D02*
X0163124Y0141443D01*
X0163124Y0143042D02*
X0172598Y0143042D01*
X0172598Y0144640D02*
X0163124Y0144640D01*
X0163084Y0146239D02*
X0172598Y0146239D01*
X0158359Y0146239D02*
X0157793Y0146239D01*
X0157793Y0144640D02*
X0158359Y0144640D01*
X0158359Y0143042D02*
X0157793Y0143042D01*
X0157793Y0141443D02*
X0158359Y0141443D01*
X0158359Y0139845D02*
X0157793Y0139845D01*
X0157793Y0138246D02*
X0158359Y0138246D01*
X0172598Y0135049D02*
X0134498Y0135049D01*
X0134498Y0133451D02*
X0172598Y0133451D01*
X0172598Y0131852D02*
X0134498Y0131852D01*
X0134498Y0130254D02*
X0172598Y0130254D01*
X0172598Y0128655D02*
X0134498Y0128655D01*
X0134498Y0127057D02*
X0172598Y0127057D01*
X0172598Y0125458D02*
X0134498Y0125458D01*
X0134498Y0123860D02*
X0172598Y0123860D01*
X0172598Y0122261D02*
X0134498Y0122261D01*
X0134498Y0120663D02*
X0172598Y0120663D01*
X0172598Y0119064D02*
X0134498Y0119064D01*
X0134498Y0117466D02*
X0172598Y0117466D01*
X0172598Y0115867D02*
X0134498Y0115867D01*
X0134498Y0114269D02*
X0172598Y0114269D01*
X0172598Y0112670D02*
X0134498Y0112670D01*
X0134498Y0111071D02*
X0172598Y0111071D01*
X0172598Y0109473D02*
X0134498Y0109473D01*
X0134498Y0107874D02*
X0172598Y0107874D01*
X0172598Y0106276D02*
X0134498Y0106276D01*
X0134498Y0104677D02*
X0172598Y0104677D01*
X0172598Y0103079D02*
X0134498Y0103079D01*
X0134498Y0101480D02*
X0172598Y0101480D01*
X0172598Y0099882D02*
X0134498Y0099882D01*
X0134498Y0098283D02*
X0172598Y0098283D01*
X0172598Y0096685D02*
X0134498Y0096685D01*
X0134728Y0095086D02*
X0154051Y0095086D01*
X0153428Y0093488D02*
X0136327Y0093488D01*
X0136068Y0090635D02*
X0158076Y0090635D01*
X0158076Y0046905D01*
X0160276Y0047131D02*
X0206152Y0047131D01*
X0206152Y0045533D02*
X0160276Y0045533D01*
X0160276Y0043934D02*
X0206152Y0043934D01*
X0206152Y0042335D02*
X0200910Y0042335D01*
X0200867Y0042366D02*
X0200194Y0042709D01*
X0199476Y0042943D01*
X0198729Y0043061D01*
X0198552Y0043061D01*
X0198552Y0035461D01*
X0203152Y0035461D01*
X0203152Y0038639D01*
X0203033Y0039385D01*
X0202800Y0040104D01*
X0202457Y0040777D01*
X0202013Y0041388D01*
X0201479Y0041922D01*
X0200867Y0042366D01*
X0202477Y0040737D02*
X0204615Y0040737D01*
X0203953Y0039138D02*
X0203072Y0039138D01*
X0203152Y0037540D02*
X0203952Y0037540D01*
X0203952Y0035941D02*
X0203152Y0035941D01*
X0203152Y0035061D02*
X0198552Y0035061D01*
X0198552Y0035461D01*
X0198152Y0035461D01*
X0198152Y0043061D01*
X0197974Y0043061D01*
X0197228Y0042943D01*
X0196509Y0042709D01*
X0195836Y0042366D01*
X0195225Y0041922D01*
X0194690Y0041388D01*
X0194246Y0040777D01*
X0193903Y0040104D01*
X0193670Y0039385D01*
X0193552Y0038639D01*
X0193552Y0035461D01*
X0198151Y0035461D01*
X0198151Y0035061D01*
X0193552Y0035061D01*
X0193552Y0031883D01*
X0193670Y0031137D01*
X0193903Y0030418D01*
X0194246Y0029745D01*
X0194690Y0029134D01*
X0195225Y0028600D01*
X0195836Y0028156D01*
X0196509Y0027813D01*
X0197228Y0027579D01*
X0197974Y0027461D01*
X0198152Y0027461D01*
X0198152Y0035061D01*
X0198552Y0035061D01*
X0198552Y0027461D01*
X0198729Y0027461D01*
X0199476Y0027579D01*
X0200194Y0027813D01*
X0200867Y0028156D01*
X0201479Y0028600D01*
X0202013Y0029134D01*
X0202457Y0029745D01*
X0202800Y0030418D01*
X0203033Y0031137D01*
X0203152Y0031883D01*
X0203152Y0035061D01*
X0203152Y0034343D02*
X0203952Y0034343D01*
X0203952Y0032744D02*
X0203152Y0032744D01*
X0203035Y0031146D02*
X0204051Y0031146D01*
X0204843Y0029547D02*
X0202313Y0029547D01*
X0200461Y0027949D02*
X0206348Y0027949D01*
X0204883Y0026350D02*
X0165964Y0026350D01*
X0167264Y0027949D02*
X0164366Y0027949D01*
X0165859Y0028531D02*
X0167476Y0027861D01*
X0169227Y0027861D01*
X0170844Y0028531D01*
X0172082Y0029769D01*
X0172752Y0031386D01*
X0172752Y0039136D01*
X0172082Y0040753D01*
X0170844Y0041991D01*
X0169227Y0042661D01*
X0167476Y0042661D01*
X0165859Y0041991D01*
X0164621Y0040753D01*
X0163952Y0039136D01*
X0163952Y0031386D01*
X0164621Y0029769D01*
X0165859Y0028531D01*
X0164843Y0029547D02*
X0162767Y0029547D01*
X0164051Y0031146D02*
X0161168Y0031146D01*
X0160276Y0032744D02*
X0163952Y0032744D01*
X0163952Y0034343D02*
X0160276Y0034343D01*
X0160276Y0035941D02*
X0163952Y0035941D01*
X0163952Y0037540D02*
X0160276Y0037540D01*
X0160276Y0039138D02*
X0163953Y0039138D01*
X0164615Y0040737D02*
X0160276Y0040737D01*
X0160276Y0042335D02*
X0166690Y0042335D01*
X0170013Y0042335D02*
X0176690Y0042335D01*
X0177476Y0042661D02*
X0175859Y0041991D01*
X0174621Y0040753D01*
X0173952Y0039136D01*
X0173952Y0031386D01*
X0174621Y0029769D01*
X0175859Y0028531D01*
X0177476Y0027861D01*
X0179227Y0027861D01*
X0180844Y0028531D01*
X0182082Y0029769D01*
X0182752Y0031386D01*
X0182752Y0039136D01*
X0182082Y0040753D01*
X0180844Y0041991D01*
X0179227Y0042661D01*
X0177476Y0042661D01*
X0180013Y0042335D02*
X0186690Y0042335D01*
X0187476Y0042661D02*
X0185859Y0041991D01*
X0184621Y0040753D01*
X0183952Y0039136D01*
X0183952Y0031386D01*
X0184621Y0029769D01*
X0185859Y0028531D01*
X0187476Y0027861D01*
X0189227Y0027861D01*
X0190844Y0028531D01*
X0192082Y0029769D01*
X0192752Y0031386D01*
X0192752Y0039136D01*
X0192082Y0040753D01*
X0190844Y0041991D01*
X0189227Y0042661D01*
X0187476Y0042661D01*
X0190013Y0042335D02*
X0195793Y0042335D01*
X0194226Y0040737D02*
X0192089Y0040737D01*
X0192751Y0039138D02*
X0193631Y0039138D01*
X0193552Y0037540D02*
X0192752Y0037540D01*
X0192752Y0035941D02*
X0193552Y0035941D01*
X0193552Y0034343D02*
X0192752Y0034343D01*
X0192752Y0032744D02*
X0193552Y0032744D01*
X0193668Y0031146D02*
X0192652Y0031146D01*
X0191860Y0029547D02*
X0194390Y0029547D01*
X0196242Y0027949D02*
X0189439Y0027949D01*
X0187264Y0027949D02*
X0179439Y0027949D01*
X0177264Y0027949D02*
X0169439Y0027949D01*
X0171860Y0029547D02*
X0174843Y0029547D01*
X0174051Y0031146D02*
X0172652Y0031146D01*
X0172752Y0032744D02*
X0173952Y0032744D01*
X0173952Y0034343D02*
X0172752Y0034343D01*
X0172752Y0035941D02*
X0173952Y0035941D01*
X0173952Y0037540D02*
X0172752Y0037540D01*
X0172751Y0039138D02*
X0173953Y0039138D01*
X0174615Y0040737D02*
X0172089Y0040737D01*
X0182089Y0040737D02*
X0184615Y0040737D01*
X0183953Y0039138D02*
X0182751Y0039138D01*
X0182752Y0037540D02*
X0183952Y0037540D01*
X0183952Y0035941D02*
X0182752Y0035941D01*
X0182752Y0034343D02*
X0183952Y0034343D01*
X0183952Y0032744D02*
X0182752Y0032744D01*
X0182652Y0031146D02*
X0184051Y0031146D01*
X0184843Y0029547D02*
X0181860Y0029547D01*
X0169161Y0023153D02*
X0201686Y0023153D01*
X0203284Y0024752D02*
X0167563Y0024752D01*
X0164537Y0021555D02*
X0147702Y0021555D01*
X0148471Y0023153D02*
X0162939Y0023153D01*
X0161340Y0024752D02*
X0148826Y0024752D01*
X0148637Y0023498D02*
X0148637Y0023498D01*
X0149067Y0026350D02*
X0159741Y0026350D01*
X0158143Y0027949D02*
X0149308Y0027949D01*
X0149218Y0029547D02*
X0156544Y0029547D01*
X0155876Y0031146D02*
X0148978Y0031146D01*
X0148737Y0032744D02*
X0155876Y0032744D01*
X0155876Y0034343D02*
X0148184Y0034343D01*
X0147414Y0035941D02*
X0155876Y0035941D01*
X0155876Y0037540D02*
X0146645Y0037540D01*
X0145328Y0039138D02*
X0155876Y0039138D01*
X0155876Y0040737D02*
X0143845Y0040737D01*
X0143058Y0041585D02*
X0143058Y0041585D01*
X0141758Y0042335D02*
X0155876Y0042335D01*
X0155876Y0043934D02*
X0138989Y0043934D01*
X0160276Y0048730D02*
X0206152Y0048730D01*
X0206152Y0050328D02*
X0160276Y0050328D01*
X0160276Y0051927D02*
X0206152Y0051927D01*
X0206152Y0053525D02*
X0160276Y0053525D01*
X0160276Y0055124D02*
X0206152Y0055124D01*
X0206152Y0056722D02*
X0160276Y0056722D01*
X0160276Y0058321D02*
X0206152Y0058321D01*
X0206152Y0059919D02*
X0160276Y0059919D01*
X0160276Y0061518D02*
X0206152Y0061518D01*
X0206152Y0063116D02*
X0177802Y0063116D01*
X0177980Y0064715D02*
X0206152Y0064715D01*
X0206152Y0066313D02*
X0177980Y0066313D01*
X0177980Y0067912D02*
X0206152Y0067912D01*
X0206152Y0069510D02*
X0176998Y0069510D01*
X0176998Y0071109D02*
X0206152Y0071109D01*
X0206152Y0072707D02*
X0176998Y0072707D01*
X0176998Y0074306D02*
X0206152Y0074306D01*
X0206152Y0075904D02*
X0176998Y0075904D01*
X0176998Y0077503D02*
X0206152Y0077503D01*
X0206152Y0079101D02*
X0176998Y0079101D01*
X0176998Y0080700D02*
X0206152Y0080700D01*
X0206152Y0082298D02*
X0176998Y0082298D01*
X0176998Y0083897D02*
X0206152Y0083897D01*
X0206152Y0085495D02*
X0176998Y0085495D01*
X0176998Y0087094D02*
X0206152Y0087094D01*
X0206152Y0088692D02*
X0176998Y0088692D01*
X0176998Y0090291D02*
X0206152Y0090291D01*
X0206152Y0091889D02*
X0176998Y0091889D01*
X0176998Y0093488D02*
X0206152Y0093488D01*
X0206152Y0095086D02*
X0176998Y0095086D01*
X0176998Y0096685D02*
X0206152Y0096685D01*
X0206152Y0098283D02*
X0176998Y0098283D01*
X0176998Y0099882D02*
X0206152Y0099882D01*
X0206152Y0101480D02*
X0176998Y0101480D01*
X0176998Y0103079D02*
X0206152Y0103079D01*
X0206152Y0104677D02*
X0176998Y0104677D01*
X0176998Y0106276D02*
X0206152Y0106276D01*
X0206152Y0107874D02*
X0176998Y0107874D01*
X0176998Y0109473D02*
X0206152Y0109473D01*
X0206152Y0111071D02*
X0176998Y0111071D01*
X0176998Y0112670D02*
X0206152Y0112670D01*
X0210552Y0095086D02*
X0324261Y0095086D01*
X0323848Y0093488D02*
X0210552Y0093488D01*
X0210552Y0091889D02*
X0323985Y0091889D01*
X0324766Y0090291D02*
X0210552Y0090291D01*
X0172598Y0090291D02*
X0162724Y0090291D01*
X0162724Y0091889D02*
X0172598Y0091889D01*
X0172598Y0093488D02*
X0162724Y0093488D01*
X0162101Y0095086D02*
X0172598Y0095086D01*
X0172598Y0088692D02*
X0162724Y0088692D01*
X0162724Y0087094D02*
X0172598Y0087094D01*
X0172598Y0085495D02*
X0160276Y0085495D01*
X0160276Y0083897D02*
X0172598Y0083897D01*
X0153428Y0087094D02*
X0089889Y0087094D01*
X0089889Y0086807D02*
X0089069Y0085987D01*
X0081413Y0085987D01*
X0080593Y0086807D01*
X0080593Y0094463D01*
X0081413Y0095283D01*
X0089069Y0095283D01*
X0089889Y0094463D01*
X0089889Y0086807D01*
X0089889Y0088692D02*
X0134900Y0088692D01*
X0133301Y0090291D02*
X0089889Y0090291D01*
X0089889Y0091889D02*
X0131703Y0091889D01*
X0130104Y0093488D02*
X0089889Y0093488D01*
X0089266Y0095086D02*
X0130098Y0095086D01*
X0130098Y0096685D02*
X0010867Y0096685D01*
X0010867Y0098283D02*
X0130098Y0098283D01*
X0130098Y0099882D02*
X0055894Y0099882D01*
X0056737Y0100231D02*
X0058172Y0101666D01*
X0058948Y0103540D01*
X0058948Y0105569D01*
X0058172Y0107444D01*
X0056737Y0108878D01*
X0054863Y0109655D01*
X0052834Y0109655D01*
X0050959Y0108878D01*
X0049525Y0107444D01*
X0048748Y0105569D01*
X0048748Y0103540D01*
X0049525Y0101666D01*
X0050959Y0100231D01*
X0052834Y0099455D01*
X0054863Y0099455D01*
X0056737Y0100231D01*
X0057987Y0101480D02*
X0130098Y0101480D01*
X0130098Y0103079D02*
X0058757Y0103079D01*
X0058948Y0104677D02*
X0130098Y0104677D01*
X0130098Y0106276D02*
X0058656Y0106276D01*
X0057741Y0107874D02*
X0130098Y0107874D01*
X0130098Y0109473D02*
X0055302Y0109473D01*
X0052395Y0109473D02*
X0029702Y0109473D01*
X0029263Y0109655D02*
X0027234Y0109655D01*
X0025359Y0108878D01*
X0023925Y0107444D01*
X0023148Y0105569D01*
X0023148Y0103540D01*
X0023925Y0101666D01*
X0025359Y0100231D01*
X0027234Y0099455D01*
X0029263Y0099455D01*
X0031137Y0100231D01*
X0032572Y0101666D01*
X0033348Y0103540D01*
X0033348Y0105569D01*
X0032572Y0107444D01*
X0031137Y0108878D01*
X0029263Y0109655D01*
X0026795Y0109473D02*
X0010867Y0109473D01*
X0010867Y0111071D02*
X0130098Y0111071D01*
X0130098Y0112670D02*
X0010867Y0112670D01*
X0010867Y0114269D02*
X0130098Y0114269D01*
X0130098Y0115867D02*
X0010867Y0115867D01*
X0010867Y0117466D02*
X0130098Y0117466D01*
X0130098Y0119064D02*
X0010867Y0119064D01*
X0010867Y0120663D02*
X0130098Y0120663D01*
X0130098Y0122261D02*
X0010867Y0122261D01*
X0010867Y0123860D02*
X0130098Y0123860D01*
X0130098Y0125458D02*
X0010867Y0125458D01*
X0010867Y0127057D02*
X0130098Y0127057D01*
X0130098Y0128655D02*
X0010867Y0128655D01*
X0010867Y0130254D02*
X0130098Y0130254D01*
X0130098Y0131852D02*
X0010867Y0131852D01*
X0010867Y0133451D02*
X0130098Y0133451D01*
X0130098Y0135049D02*
X0010867Y0135049D01*
X0010867Y0136648D02*
X0130098Y0136648D01*
X0130098Y0138246D02*
X0089926Y0138246D01*
X0089930Y0138250D02*
X0090167Y0138661D01*
X0090289Y0139119D01*
X0090289Y0142321D01*
X0085524Y0142321D01*
X0085524Y0142886D01*
X0090289Y0142886D01*
X0090289Y0146089D01*
X0090167Y0146546D01*
X0089930Y0146957D01*
X0089595Y0147292D01*
X0089184Y0147529D01*
X0088726Y0147652D01*
X0085524Y0147652D01*
X0085524Y0142886D01*
X0084959Y0142886D01*
X0084959Y0147652D01*
X0081756Y0147652D01*
X0081299Y0147529D01*
X0080888Y0147292D01*
X0080553Y0146957D01*
X0080316Y0146546D01*
X0080193Y0146089D01*
X0080193Y0142886D01*
X0084959Y0142886D01*
X0084959Y0142321D01*
X0085524Y0142321D01*
X0085524Y0137556D01*
X0088726Y0137556D01*
X0089184Y0137678D01*
X0089595Y0137915D01*
X0089930Y0138250D01*
X0090289Y0139845D02*
X0130098Y0139845D01*
X0130098Y0141443D02*
X0090289Y0141443D01*
X0090289Y0143042D02*
X0130098Y0143042D01*
X0130098Y0144640D02*
X0090289Y0144640D01*
X0090249Y0146239D02*
X0130098Y0146239D01*
X0130098Y0147837D02*
X0056888Y0147837D01*
X0057881Y0148831D02*
X0054132Y0145081D01*
X0048831Y0145081D01*
X0045081Y0148831D01*
X0045081Y0154132D01*
X0048831Y0157881D01*
X0054132Y0157881D01*
X0057881Y0154132D01*
X0057881Y0148831D01*
X0057881Y0149436D02*
X0130098Y0149436D01*
X0130098Y0151034D02*
X0057881Y0151034D01*
X0057881Y0152633D02*
X0130098Y0152633D01*
X0130098Y0154231D02*
X0057783Y0154231D01*
X0056184Y0155830D02*
X0130098Y0155830D01*
X0130098Y0157428D02*
X0054586Y0157428D01*
X0048377Y0157428D02*
X0010867Y0157428D01*
X0010867Y0155830D02*
X0046779Y0155830D01*
X0045180Y0154231D02*
X0010867Y0154231D01*
X0010867Y0152633D02*
X0045081Y0152633D01*
X0045081Y0151034D02*
X0010867Y0151034D01*
X0010867Y0149436D02*
X0045081Y0149436D01*
X0046075Y0147837D02*
X0010867Y0147837D01*
X0010867Y0146239D02*
X0047673Y0146239D01*
X0055290Y0146239D02*
X0080234Y0146239D01*
X0080193Y0144640D02*
X0010867Y0144640D01*
X0010867Y0143042D02*
X0080193Y0143042D01*
X0080193Y0142321D02*
X0080193Y0139119D01*
X0080316Y0138661D01*
X0080553Y0138250D01*
X0080888Y0137915D01*
X0081299Y0137678D01*
X0081756Y0137556D01*
X0084959Y0137556D01*
X0084959Y0142321D01*
X0080193Y0142321D01*
X0080193Y0141443D02*
X0010867Y0141443D01*
X0010867Y0139845D02*
X0080193Y0139845D01*
X0080557Y0138246D02*
X0010867Y0138246D01*
X0010867Y0159027D02*
X0130098Y0159027D01*
X0130098Y0160625D02*
X0010867Y0160625D01*
X0010867Y0162224D02*
X0130098Y0162224D01*
X0130098Y0163822D02*
X0010867Y0163822D01*
X0010867Y0165421D02*
X0130098Y0165421D01*
X0130098Y0167019D02*
X0125524Y0167019D01*
X0127123Y0168618D02*
X0130098Y0168618D01*
X0130098Y0170216D02*
X0128721Y0170216D01*
X0125696Y0173413D02*
X0116918Y0173413D01*
X0116730Y0171815D02*
X0124097Y0171815D01*
X0123548Y0168155D02*
X0026048Y0168155D01*
X0021048Y0173155D01*
X0021048Y0230655D01*
X0021048Y0231501D01*
X0017867Y0230960D02*
X0010867Y0230960D01*
X0010867Y0232558D02*
X0017867Y0232558D01*
X0017867Y0229361D02*
X0010867Y0229361D01*
X0010867Y0227763D02*
X0018398Y0227763D01*
X0018848Y0226164D02*
X0010867Y0226164D01*
X0010867Y0224566D02*
X0018848Y0224566D01*
X0018848Y0222967D02*
X0010867Y0222967D01*
X0010867Y0221369D02*
X0018848Y0221369D01*
X0018848Y0219770D02*
X0010867Y0219770D01*
X0010867Y0218172D02*
X0018848Y0218172D01*
X0018848Y0216573D02*
X0010867Y0216573D01*
X0010867Y0214975D02*
X0018848Y0214975D01*
X0018848Y0213376D02*
X0010867Y0213376D01*
X0010867Y0211778D02*
X0018848Y0211778D01*
X0018848Y0210179D02*
X0010867Y0210179D01*
X0010867Y0208581D02*
X0018848Y0208581D01*
X0018848Y0206982D02*
X0010867Y0206982D01*
X0010867Y0205384D02*
X0018848Y0205384D01*
X0018848Y0203785D02*
X0010867Y0203785D01*
X0010867Y0202187D02*
X0018848Y0202187D01*
X0018848Y0200588D02*
X0010867Y0200588D01*
X0010867Y0198990D02*
X0018848Y0198990D01*
X0018848Y0197391D02*
X0010867Y0197391D01*
X0010867Y0195793D02*
X0018848Y0195793D01*
X0018848Y0194194D02*
X0010867Y0194194D01*
X0010867Y0192596D02*
X0018848Y0192596D01*
X0018848Y0190997D02*
X0010867Y0190997D01*
X0010867Y0189399D02*
X0018848Y0189399D01*
X0018848Y0187800D02*
X0010867Y0187800D01*
X0010867Y0186202D02*
X0018848Y0186202D01*
X0018848Y0184603D02*
X0010867Y0184603D01*
X0010867Y0183004D02*
X0018848Y0183004D01*
X0018848Y0181406D02*
X0010867Y0181406D01*
X0010867Y0179807D02*
X0018848Y0179807D01*
X0018848Y0178209D02*
X0010867Y0178209D01*
X0010867Y0176610D02*
X0018848Y0176610D01*
X0018848Y0175012D02*
X0010867Y0175012D01*
X0010867Y0173413D02*
X0018848Y0173413D01*
X0019277Y0171815D02*
X0010867Y0171815D01*
X0010867Y0170216D02*
X0020875Y0170216D01*
X0022474Y0168618D02*
X0010867Y0168618D01*
X0010867Y0167019D02*
X0024072Y0167019D01*
X0025499Y0171815D02*
X0110367Y0171815D01*
X0110367Y0173413D02*
X0023901Y0173413D01*
X0023248Y0175012D02*
X0110367Y0175012D01*
X0113548Y0173155D02*
X0126048Y0185655D01*
X0126048Y0225655D01*
X0122867Y0226164D02*
X0095480Y0226164D01*
X0095480Y0226766D02*
X0094659Y0227586D01*
X0089937Y0227586D01*
X0089117Y0226766D01*
X0089117Y0222044D01*
X0089937Y0221224D01*
X0090098Y0221224D01*
X0090098Y0207586D01*
X0089937Y0207586D01*
X0089117Y0206766D01*
X0089117Y0202044D01*
X0089937Y0201224D01*
X0094659Y0201224D01*
X0095480Y0202044D01*
X0095480Y0206766D01*
X0094659Y0207586D01*
X0094498Y0207586D01*
X0094498Y0221224D01*
X0094659Y0221224D01*
X0095480Y0222044D01*
X0095480Y0226766D01*
X0095480Y0224566D02*
X0122867Y0224566D01*
X0123194Y0222967D02*
X0095480Y0222967D01*
X0094805Y0221369D02*
X0123848Y0221369D01*
X0123848Y0219770D02*
X0094498Y0219770D01*
X0094498Y0218172D02*
X0123848Y0218172D01*
X0123848Y0216573D02*
X0094498Y0216573D01*
X0094498Y0214975D02*
X0123848Y0214975D01*
X0123848Y0213376D02*
X0094498Y0213376D01*
X0094498Y0211778D02*
X0123848Y0211778D01*
X0123848Y0210179D02*
X0094498Y0210179D01*
X0094498Y0208581D02*
X0123848Y0208581D01*
X0123848Y0206982D02*
X0095263Y0206982D01*
X0095480Y0205384D02*
X0123848Y0205384D01*
X0123848Y0203785D02*
X0095480Y0203785D01*
X0095480Y0202187D02*
X0123848Y0202187D01*
X0123848Y0200588D02*
X0023248Y0200588D01*
X0023248Y0198990D02*
X0123848Y0198990D01*
X0123848Y0197391D02*
X0023248Y0197391D01*
X0023248Y0195793D02*
X0123848Y0195793D01*
X0123848Y0194194D02*
X0023248Y0194194D01*
X0023248Y0192596D02*
X0123848Y0192596D01*
X0123848Y0190997D02*
X0023248Y0190997D01*
X0023248Y0189399D02*
X0123848Y0189399D01*
X0123848Y0187800D02*
X0023248Y0187800D01*
X0023248Y0186202D02*
X0123484Y0186202D01*
X0121885Y0184603D02*
X0023248Y0184603D01*
X0023248Y0183004D02*
X0120287Y0183004D01*
X0118688Y0181406D02*
X0023248Y0181406D01*
X0023248Y0179807D02*
X0117090Y0179807D01*
X0115491Y0178209D02*
X0023248Y0178209D01*
X0023248Y0176610D02*
X0113893Y0176610D01*
X0118517Y0175012D02*
X0127294Y0175012D01*
X0128893Y0176610D02*
X0120115Y0176610D01*
X0121714Y0178209D02*
X0129117Y0178209D01*
X0129659Y0179807D02*
X0123312Y0179807D01*
X0124911Y0181406D02*
X0146348Y0181406D01*
X0146348Y0183004D02*
X0126509Y0183004D01*
X0128108Y0184603D02*
X0146348Y0184603D01*
X0146348Y0186202D02*
X0128248Y0186202D01*
X0128248Y0187800D02*
X0146348Y0187800D01*
X0146348Y0189399D02*
X0128248Y0189399D01*
X0128248Y0190997D02*
X0146348Y0190997D01*
X0146348Y0192596D02*
X0128248Y0192596D01*
X0128248Y0194194D02*
X0146348Y0194194D01*
X0146348Y0195793D02*
X0128248Y0195793D01*
X0128248Y0197391D02*
X0146348Y0197391D01*
X0146348Y0198990D02*
X0128248Y0198990D01*
X0128248Y0200588D02*
X0146348Y0200588D01*
X0146348Y0202187D02*
X0128248Y0202187D01*
X0128248Y0203785D02*
X0146348Y0203785D01*
X0146348Y0205384D02*
X0143819Y0205384D01*
X0143409Y0204974D02*
X0144230Y0205794D01*
X0144230Y0210516D01*
X0143409Y0211336D01*
X0143248Y0211336D01*
X0143248Y0224974D01*
X0143409Y0224974D01*
X0144230Y0225794D01*
X0144230Y0230516D01*
X0143409Y0231336D01*
X0138687Y0231336D01*
X0137867Y0230516D01*
X0137867Y0225794D01*
X0138687Y0224974D01*
X0138848Y0224974D01*
X0138848Y0211336D01*
X0138687Y0211336D01*
X0137867Y0210516D01*
X0137867Y0205794D01*
X0138687Y0204974D01*
X0143409Y0204974D01*
X0144230Y0206982D02*
X0146348Y0206982D01*
X0146348Y0208581D02*
X0144230Y0208581D01*
X0144230Y0210179D02*
X0146348Y0210179D01*
X0146348Y0211778D02*
X0143248Y0211778D01*
X0143248Y0213376D02*
X0146348Y0213376D01*
X0146348Y0214975D02*
X0143248Y0214975D01*
X0143248Y0216573D02*
X0146348Y0216573D01*
X0146348Y0218172D02*
X0143248Y0218172D01*
X0143248Y0219770D02*
X0146348Y0219770D01*
X0146348Y0221369D02*
X0143248Y0221369D01*
X0143248Y0222967D02*
X0146348Y0222967D01*
X0146348Y0224566D02*
X0143248Y0224566D01*
X0144230Y0226164D02*
X0146348Y0226164D01*
X0146348Y0227763D02*
X0144230Y0227763D01*
X0144230Y0229361D02*
X0146348Y0229361D01*
X0146348Y0230960D02*
X0143785Y0230960D01*
X0146348Y0232558D02*
X0024230Y0232558D01*
X0024230Y0230960D02*
X0138311Y0230960D01*
X0137867Y0229361D02*
X0024230Y0229361D01*
X0023699Y0227763D02*
X0122867Y0227763D01*
X0129230Y0227763D02*
X0137867Y0227763D01*
X0137867Y0226164D02*
X0129230Y0226164D01*
X0129230Y0224566D02*
X0138848Y0224566D01*
X0138848Y0222967D02*
X0128903Y0222967D01*
X0128248Y0221369D02*
X0138848Y0221369D01*
X0138848Y0219770D02*
X0128248Y0219770D01*
X0128248Y0218172D02*
X0138848Y0218172D01*
X0138848Y0216573D02*
X0128248Y0216573D01*
X0128248Y0214975D02*
X0138848Y0214975D01*
X0138848Y0213376D02*
X0128248Y0213376D01*
X0128248Y0211778D02*
X0138848Y0211778D01*
X0137867Y0210179D02*
X0128248Y0210179D01*
X0128248Y0208581D02*
X0137867Y0208581D01*
X0137867Y0206982D02*
X0128248Y0206982D01*
X0128248Y0205384D02*
X0138277Y0205384D01*
X0141048Y0208155D02*
X0141048Y0228155D01*
X0146348Y0234157D02*
X0010867Y0234157D01*
X0010867Y0235755D02*
X0146348Y0235755D01*
X0146348Y0237354D02*
X0010867Y0237354D01*
X0010867Y0238952D02*
X0146348Y0238952D01*
X0145610Y0240551D02*
X0010867Y0240551D01*
X0010867Y0242149D02*
X0145367Y0242149D01*
X0145367Y0243748D02*
X0010867Y0243748D01*
X0010867Y0245346D02*
X0145367Y0245346D01*
X0148548Y0243155D02*
X0148548Y0178155D01*
X0145367Y0178209D02*
X0135480Y0178209D01*
X0135480Y0176610D02*
X0145367Y0176610D01*
X0146149Y0175012D02*
X0135480Y0175012D01*
X0132298Y0176905D02*
X0123548Y0168155D01*
X0132298Y0176905D02*
X0132298Y0094405D01*
X0136068Y0090635D01*
X0081217Y0095086D02*
X0010867Y0095086D01*
X0010867Y0093488D02*
X0080593Y0093488D01*
X0051803Y0099882D02*
X0030294Y0099882D01*
X0032387Y0101480D02*
X0049710Y0101480D01*
X0048940Y0103079D02*
X0033157Y0103079D01*
X0033348Y0104677D02*
X0048748Y0104677D01*
X0049041Y0106276D02*
X0033056Y0106276D01*
X0032141Y0107874D02*
X0049956Y0107874D01*
X0050172Y0090291D02*
X0032478Y0090291D01*
X0033402Y0088692D02*
X0049131Y0088692D01*
X0048748Y0087094D02*
X0033748Y0087094D01*
X0033617Y0085495D02*
X0048850Y0085495D01*
X0049512Y0083897D02*
X0032965Y0083897D01*
X0031472Y0082298D02*
X0051280Y0082298D01*
X0028448Y0082298D02*
X0028048Y0082298D01*
X0028048Y0083897D02*
X0028448Y0083897D01*
X0028448Y0085495D02*
X0028048Y0085495D01*
X0028048Y0087094D02*
X0028448Y0087094D01*
X0028448Y0088692D02*
X0028048Y0088692D01*
X0028048Y0090291D02*
X0028448Y0090291D01*
X0026203Y0099882D02*
X0010867Y0099882D01*
X0010867Y0101480D02*
X0024110Y0101480D01*
X0023340Y0103079D02*
X0010867Y0103079D01*
X0010867Y0104677D02*
X0023148Y0104677D01*
X0023441Y0106276D02*
X0010867Y0106276D01*
X0010867Y0107874D02*
X0024356Y0107874D01*
X0084959Y0138246D02*
X0085524Y0138246D01*
X0085524Y0139845D02*
X0084959Y0139845D01*
X0084959Y0141443D02*
X0085524Y0141443D01*
X0085524Y0143042D02*
X0084959Y0143042D01*
X0084959Y0144640D02*
X0085524Y0144640D01*
X0085524Y0146239D02*
X0084959Y0146239D01*
X0134938Y0179807D02*
X0145367Y0179807D01*
X0150748Y0181406D02*
X0172598Y0181406D01*
X0172598Y0183004D02*
X0150748Y0183004D01*
X0150748Y0184603D02*
X0172598Y0184603D01*
X0172598Y0186202D02*
X0150748Y0186202D01*
X0150748Y0187800D02*
X0172598Y0187800D01*
X0172598Y0189399D02*
X0150748Y0189399D01*
X0150748Y0190997D02*
X0172598Y0190997D01*
X0172598Y0192596D02*
X0150748Y0192596D01*
X0150748Y0194194D02*
X0172598Y0194194D01*
X0172598Y0195793D02*
X0150748Y0195793D01*
X0150748Y0197391D02*
X0172598Y0197391D01*
X0176998Y0218172D02*
X0196348Y0218172D01*
X0196348Y0219770D02*
X0178275Y0219770D01*
X0179874Y0221369D02*
X0196348Y0221369D01*
X0196348Y0222967D02*
X0183903Y0222967D01*
X0184230Y0224566D02*
X0196348Y0224566D01*
X0196348Y0226164D02*
X0184669Y0226164D01*
X0186268Y0227763D02*
X0196348Y0227763D01*
X0196348Y0229361D02*
X0187866Y0229361D01*
X0189465Y0230960D02*
X0196348Y0230960D01*
X0196348Y0232558D02*
X0191063Y0232558D01*
X0192662Y0234157D02*
X0196348Y0234157D01*
X0196348Y0235755D02*
X0194260Y0235755D01*
X0195748Y0237354D02*
X0196348Y0237354D01*
X0196348Y0238952D02*
X0196138Y0238952D01*
X0190367Y0242149D02*
X0188561Y0242149D01*
X0188698Y0243748D02*
X0190367Y0243748D01*
X0201730Y0256536D02*
X0221318Y0256536D01*
X0222917Y0258135D02*
X0201611Y0258135D01*
X0202467Y0277444D02*
X0206008Y0277444D01*
X0209279Y0278799D01*
X0211782Y0281302D01*
X0213137Y0284573D01*
X0213137Y0303114D01*
X0211782Y0306385D01*
X0209279Y0308889D01*
X0206008Y0310244D01*
X0202467Y0310244D01*
X0199196Y0308889D01*
X0196692Y0306385D01*
X0195337Y0303114D01*
X0195337Y0284573D01*
X0196692Y0281302D01*
X0199196Y0278799D01*
X0202467Y0277444D01*
X0199079Y0278915D02*
X0189395Y0278915D01*
X0189279Y0278799D02*
X0191782Y0281302D01*
X0193137Y0284573D01*
X0193137Y0303114D01*
X0191782Y0306385D01*
X0189279Y0308889D01*
X0186008Y0310244D01*
X0182467Y0310244D01*
X0179196Y0308889D01*
X0176692Y0306385D01*
X0175337Y0303114D01*
X0175337Y0284573D01*
X0176692Y0281302D01*
X0179196Y0278799D01*
X0182467Y0277444D01*
X0186008Y0277444D01*
X0189279Y0278799D01*
X0190994Y0280514D02*
X0197481Y0280514D01*
X0196357Y0282112D02*
X0192118Y0282112D01*
X0192780Y0283711D02*
X0195695Y0283711D01*
X0195337Y0285309D02*
X0193137Y0285309D01*
X0193137Y0286908D02*
X0195337Y0286908D01*
X0195337Y0288506D02*
X0193137Y0288506D01*
X0193137Y0290105D02*
X0195337Y0290105D01*
X0195337Y0291703D02*
X0193137Y0291703D01*
X0193137Y0293302D02*
X0195337Y0293302D01*
X0195337Y0294900D02*
X0193137Y0294900D01*
X0193137Y0296499D02*
X0195337Y0296499D01*
X0195337Y0298097D02*
X0193137Y0298097D01*
X0193137Y0299696D02*
X0195337Y0299696D01*
X0195337Y0301294D02*
X0193137Y0301294D01*
X0193137Y0302893D02*
X0195337Y0302893D01*
X0195908Y0304491D02*
X0192567Y0304491D01*
X0191905Y0306090D02*
X0196570Y0306090D01*
X0197996Y0307688D02*
X0190479Y0307688D01*
X0188318Y0309287D02*
X0200157Y0309287D01*
X0208318Y0309287D02*
X0220157Y0309287D01*
X0217996Y0307688D02*
X0210479Y0307688D01*
X0211905Y0306090D02*
X0216570Y0306090D01*
X0215908Y0304491D02*
X0212567Y0304491D01*
X0213137Y0302893D02*
X0215337Y0302893D01*
X0215337Y0301294D02*
X0213137Y0301294D01*
X0213137Y0299696D02*
X0215337Y0299696D01*
X0215337Y0298097D02*
X0213137Y0298097D01*
X0213137Y0296499D02*
X0215337Y0296499D01*
X0215337Y0294900D02*
X0213137Y0294900D01*
X0213137Y0293302D02*
X0215337Y0293302D01*
X0215337Y0291703D02*
X0213137Y0291703D01*
X0213137Y0290105D02*
X0215337Y0290105D01*
X0215337Y0288506D02*
X0213137Y0288506D01*
X0213137Y0286908D02*
X0215337Y0286908D01*
X0215337Y0285309D02*
X0213137Y0285309D01*
X0212780Y0283711D02*
X0215695Y0283711D01*
X0216357Y0282112D02*
X0212118Y0282112D01*
X0210994Y0280514D02*
X0217481Y0280514D01*
X0219079Y0278915D02*
X0209395Y0278915D01*
X0226114Y0261332D02*
X0122958Y0261332D01*
X0121360Y0262930D02*
X0227712Y0262930D01*
X0229311Y0264529D02*
X0119761Y0264529D01*
X0124557Y0259733D02*
X0224515Y0259733D01*
X0230910Y0266127D02*
X0010867Y0266127D01*
X0010867Y0264529D02*
X0052336Y0264529D01*
X0052362Y0264555D02*
X0047148Y0259341D01*
X0047148Y0251968D01*
X0052362Y0246755D01*
X0059735Y0246755D01*
X0064948Y0251968D01*
X0064948Y0259341D01*
X0059735Y0264555D01*
X0052362Y0264555D01*
X0050737Y0262930D02*
X0010867Y0262930D01*
X0010867Y0261332D02*
X0049139Y0261332D01*
X0047540Y0259733D02*
X0010867Y0259733D01*
X0010867Y0258135D02*
X0047148Y0258135D01*
X0047148Y0256536D02*
X0010867Y0256536D01*
X0010867Y0254937D02*
X0047148Y0254937D01*
X0047148Y0253339D02*
X0010867Y0253339D01*
X0010867Y0251740D02*
X0047376Y0251740D01*
X0048975Y0250142D02*
X0010867Y0250142D01*
X0010867Y0248543D02*
X0050573Y0248543D01*
X0052172Y0246945D02*
X0010867Y0246945D01*
X0010867Y0267726D02*
X0232508Y0267726D01*
X0234107Y0269324D02*
X0010867Y0269324D01*
X0010867Y0270923D02*
X0235705Y0270923D01*
X0237304Y0272521D02*
X0010867Y0272521D01*
X0010867Y0277317D02*
X0141994Y0277317D01*
X0141659Y0277393D02*
X0142677Y0277161D01*
X0143463Y0277072D01*
X0143463Y0293069D01*
X0145012Y0293069D01*
X0145012Y0277072D01*
X0145798Y0277161D01*
X0146816Y0277393D01*
X0147802Y0277738D01*
X0148743Y0278191D01*
X0149628Y0278747D01*
X0150444Y0279398D01*
X0151183Y0280137D01*
X0151834Y0280954D01*
X0152390Y0281838D01*
X0152843Y0282779D01*
X0153188Y0283765D01*
X0153420Y0284783D01*
X0153537Y0285821D01*
X0153537Y0293069D01*
X0145012Y0293069D01*
X0145012Y0294619D01*
X0143463Y0294619D01*
X0143463Y0310615D01*
X0142677Y0310527D01*
X0141659Y0310294D01*
X0140673Y0309949D01*
X0139732Y0309496D01*
X0138847Y0308940D01*
X0138031Y0308289D01*
X0137292Y0307550D01*
X0136641Y0306734D01*
X0136085Y0305849D01*
X0135632Y0304908D01*
X0135287Y0303922D01*
X0135054Y0302904D01*
X0134937Y0301866D01*
X0134937Y0294619D01*
X0143463Y0294619D01*
X0143463Y0293069D01*
X0134937Y0293069D01*
X0134937Y0285821D01*
X0135054Y0284783D01*
X0135287Y0283765D01*
X0135632Y0282779D01*
X0136085Y0281838D01*
X0136641Y0280954D01*
X0137292Y0280137D01*
X0138031Y0279398D01*
X0138847Y0278747D01*
X0139732Y0278191D01*
X0140673Y0277738D01*
X0141659Y0277393D01*
X0143463Y0277317D02*
X0145012Y0277317D01*
X0146481Y0277317D02*
X0161994Y0277317D01*
X0161659Y0277393D02*
X0162677Y0277161D01*
X0163463Y0277072D01*
X0163463Y0293069D01*
X0165012Y0293069D01*
X0165012Y0277072D01*
X0165798Y0277161D01*
X0166816Y0277393D01*
X0167802Y0277738D01*
X0168743Y0278191D01*
X0169628Y0278747D01*
X0170444Y0279398D01*
X0171183Y0280137D01*
X0171834Y0280954D01*
X0172390Y0281838D01*
X0172843Y0282779D01*
X0173188Y0283765D01*
X0173420Y0284783D01*
X0173537Y0285821D01*
X0173537Y0293069D01*
X0165012Y0293069D01*
X0165012Y0294619D01*
X0163463Y0294619D01*
X0163463Y0310615D01*
X0162677Y0310527D01*
X0161659Y0310294D01*
X0160673Y0309949D01*
X0159732Y0309496D01*
X0158847Y0308940D01*
X0158031Y0308289D01*
X0157292Y0307550D01*
X0156641Y0306734D01*
X0156085Y0305849D01*
X0155632Y0304908D01*
X0155287Y0303922D01*
X0155054Y0302904D01*
X0154937Y0301866D01*
X0154937Y0294619D01*
X0163463Y0294619D01*
X0163463Y0293069D01*
X0154937Y0293069D01*
X0154937Y0285821D01*
X0155054Y0284783D01*
X0155287Y0283765D01*
X0155632Y0282779D01*
X0156085Y0281838D01*
X0156641Y0280954D01*
X0157292Y0280137D01*
X0158031Y0279398D01*
X0158847Y0278747D01*
X0159732Y0278191D01*
X0160673Y0277738D01*
X0161659Y0277393D01*
X0163463Y0277317D02*
X0165012Y0277317D01*
X0166481Y0277317D02*
X0261994Y0277317D01*
X0263463Y0277317D02*
X0265012Y0277317D01*
X0265012Y0278915D02*
X0263463Y0278915D01*
X0263463Y0280514D02*
X0265012Y0280514D01*
X0265012Y0282112D02*
X0263463Y0282112D01*
X0263463Y0283711D02*
X0265012Y0283711D01*
X0265012Y0285309D02*
X0263463Y0285309D01*
X0263463Y0286908D02*
X0265012Y0286908D01*
X0265012Y0288506D02*
X0263463Y0288506D01*
X0263463Y0290105D02*
X0265012Y0290105D01*
X0265012Y0294900D02*
X0263463Y0294900D01*
X0263463Y0296499D02*
X0265012Y0296499D01*
X0265012Y0298097D02*
X0263463Y0298097D01*
X0263463Y0299696D02*
X0265012Y0299696D01*
X0265012Y0301294D02*
X0263463Y0301294D01*
X0263463Y0302893D02*
X0265012Y0302893D01*
X0265012Y0304491D02*
X0263463Y0304491D01*
X0263463Y0306090D02*
X0265012Y0306090D01*
X0265012Y0307688D02*
X0263463Y0307688D01*
X0263463Y0309287D02*
X0265012Y0309287D01*
X0254937Y0291703D02*
X0253137Y0291703D01*
X0253137Y0290105D02*
X0254937Y0290105D01*
X0254937Y0288506D02*
X0253137Y0288506D01*
X0253137Y0286908D02*
X0254937Y0286908D01*
X0254995Y0285309D02*
X0253137Y0285309D01*
X0252780Y0283711D02*
X0255306Y0283711D01*
X0255953Y0282112D02*
X0252118Y0282112D01*
X0250994Y0280514D02*
X0256992Y0280514D01*
X0258636Y0278915D02*
X0249395Y0278915D01*
X0241928Y0270923D02*
X0300367Y0270923D01*
X0300426Y0269324D02*
X0240329Y0269324D01*
X0238731Y0267726D02*
X0298758Y0267726D01*
X0301048Y0266905D02*
X0303548Y0266905D01*
X0301048Y0266905D02*
X0282298Y0248155D01*
X0279117Y0248543D02*
X0260748Y0248543D01*
X0260748Y0246945D02*
X0279117Y0246945D01*
X0279565Y0245346D02*
X0260748Y0245346D01*
X0260748Y0243748D02*
X0332867Y0243748D01*
X0333328Y0245346D02*
X0285032Y0245346D01*
X0285480Y0246945D02*
X0302172Y0246945D01*
X0300573Y0248543D02*
X0285798Y0248543D01*
X0287397Y0250142D02*
X0298975Y0250142D01*
X0297376Y0251740D02*
X0288995Y0251740D01*
X0290594Y0253339D02*
X0297148Y0253339D01*
X0297148Y0254937D02*
X0292192Y0254937D01*
X0293791Y0256536D02*
X0297148Y0256536D01*
X0297148Y0258135D02*
X0295389Y0258135D01*
X0296988Y0259733D02*
X0297540Y0259733D01*
X0298587Y0261332D02*
X0299139Y0261332D01*
X0300185Y0262930D02*
X0300737Y0262930D01*
X0309761Y0264529D02*
X0321770Y0264529D01*
X0320172Y0262930D02*
X0311360Y0262930D01*
X0312958Y0261332D02*
X0318573Y0261332D01*
X0316975Y0259733D02*
X0314557Y0259733D01*
X0314948Y0258135D02*
X0316748Y0258135D01*
X0316748Y0256536D02*
X0314948Y0256536D01*
X0314948Y0254937D02*
X0316748Y0254937D01*
X0316748Y0253339D02*
X0314948Y0253339D01*
X0314721Y0251740D02*
X0316810Y0251740D01*
X0318409Y0250142D02*
X0313122Y0250142D01*
X0311524Y0248543D02*
X0320008Y0248543D01*
X0321606Y0246945D02*
X0309925Y0246945D01*
X0325473Y0246945D02*
X0326623Y0246945D01*
X0326623Y0248543D02*
X0325473Y0248543D01*
X0325473Y0250142D02*
X0326623Y0250142D01*
X0326623Y0251740D02*
X0325473Y0251740D01*
X0325473Y0253339D02*
X0326623Y0253339D01*
X0326623Y0254937D02*
X0325473Y0254937D01*
X0333688Y0250142D02*
X0338409Y0250142D01*
X0336810Y0251740D02*
X0335286Y0251740D01*
X0335348Y0253339D02*
X0336748Y0253339D01*
X0336748Y0254937D02*
X0335348Y0254937D01*
X0335348Y0256536D02*
X0336748Y0256536D01*
X0336748Y0258135D02*
X0335348Y0258135D01*
X0335122Y0259733D02*
X0336975Y0259733D01*
X0338573Y0261332D02*
X0333524Y0261332D01*
X0331925Y0262930D02*
X0340172Y0262930D01*
X0341770Y0264529D02*
X0330327Y0264529D01*
X0369761Y0264529D02*
X0400167Y0264529D01*
X0400167Y0266127D02*
X0376849Y0266127D01*
X0379911Y0267726D02*
X0400167Y0267726D01*
X0400167Y0269324D02*
X0380480Y0269324D01*
X0380480Y0272521D02*
X0391140Y0272521D01*
X0400167Y0262930D02*
X0371360Y0262930D01*
X0372958Y0261332D02*
X0400167Y0261332D01*
X0400167Y0259733D02*
X0374557Y0259733D01*
X0374948Y0258135D02*
X0400167Y0258135D01*
X0400167Y0256536D02*
X0374948Y0256536D01*
X0374948Y0254937D02*
X0400167Y0254937D01*
X0400167Y0253339D02*
X0374948Y0253339D01*
X0374721Y0251740D02*
X0400167Y0251740D01*
X0400167Y0250142D02*
X0373122Y0250142D01*
X0371524Y0248543D02*
X0400167Y0248543D01*
X0400167Y0246945D02*
X0369925Y0246945D01*
X0361978Y0310885D02*
X0106281Y0310885D01*
X0106002Y0310212D02*
X0106667Y0311817D01*
X0106667Y0319492D01*
X0106002Y0321098D01*
X0104773Y0322327D01*
X0103167Y0322992D01*
X0101429Y0322992D01*
X0099824Y0322327D01*
X0098595Y0321098D01*
X0097930Y0319492D01*
X0097930Y0311817D01*
X0098595Y0310212D01*
X0099824Y0308983D01*
X0101429Y0308318D01*
X0103167Y0308318D01*
X0104773Y0308983D01*
X0106002Y0310212D01*
X0105077Y0309287D02*
X0120157Y0309287D01*
X0119196Y0308889D02*
X0122467Y0310244D01*
X0126008Y0310244D01*
X0129279Y0308889D01*
X0131782Y0306385D01*
X0133137Y0303114D01*
X0133137Y0284573D01*
X0131782Y0281302D01*
X0129279Y0278799D01*
X0126008Y0277444D01*
X0122467Y0277444D01*
X0119196Y0278799D01*
X0116692Y0281302D01*
X0115337Y0284573D01*
X0115337Y0303114D01*
X0116692Y0306385D01*
X0119196Y0308889D01*
X0117996Y0307688D02*
X0048804Y0307688D01*
X0048585Y0306090D02*
X0116570Y0306090D01*
X0115908Y0304491D02*
X0048119Y0304491D01*
X0048479Y0305319D02*
X0048479Y0305319D01*
X0047425Y0302893D02*
X0115337Y0302893D01*
X0115337Y0301294D02*
X0046731Y0301294D01*
X0046222Y0300123D02*
X0046222Y0300123D01*
X0045874Y0299696D02*
X0115337Y0299696D01*
X0115337Y0298097D02*
X0044574Y0298097D01*
X0043273Y0296499D02*
X0115337Y0296499D01*
X0115337Y0294900D02*
X0041473Y0294900D01*
X0042647Y0295729D02*
X0042647Y0295729D01*
X0042647Y0295729D01*
X0039209Y0293302D02*
X0115337Y0293302D01*
X0115337Y0291703D02*
X0035884Y0291703D01*
X0032682Y0290565D02*
X0032682Y0290565D01*
X0027031Y0290179D02*
X0027031Y0290179D01*
X0020767Y0291703D02*
X0010867Y0291703D01*
X0010867Y0290105D02*
X0115337Y0290105D01*
X0115337Y0288506D02*
X0010867Y0288506D01*
X0010867Y0286908D02*
X0115337Y0286908D01*
X0115337Y0285309D02*
X0010867Y0285309D01*
X0010867Y0283711D02*
X0115695Y0283711D01*
X0116357Y0282112D02*
X0010867Y0282112D01*
X0010867Y0280514D02*
X0117481Y0280514D01*
X0119079Y0278915D02*
X0010867Y0278915D01*
X0010867Y0293302D02*
X0017682Y0293302D01*
X0016455Y0293937D02*
X0016455Y0293937D01*
X0015424Y0294900D02*
X0010867Y0294900D01*
X0010867Y0296499D02*
X0013712Y0296499D01*
X0012137Y0298097D02*
X0010867Y0298097D01*
X0010867Y0299696D02*
X0011165Y0299696D01*
X0044647Y0323673D02*
X0366216Y0323673D01*
X0366449Y0324057D02*
X0366449Y0324057D01*
X0365244Y0322075D02*
X0105025Y0322075D01*
X0106259Y0320476D02*
X0364272Y0320476D01*
X0363506Y0319217D02*
X0363506Y0319217D01*
X0363411Y0318878D02*
X0106667Y0318878D01*
X0106667Y0317279D02*
X0362963Y0317279D01*
X0362515Y0315681D02*
X0106667Y0315681D01*
X0106667Y0314082D02*
X0362067Y0314082D01*
X0361978Y0312484D02*
X0106667Y0312484D01*
X0099520Y0309287D02*
X0095643Y0309287D01*
X0095405Y0309049D02*
X0095936Y0309580D01*
X0096377Y0310187D01*
X0096718Y0310856D01*
X0096949Y0311570D01*
X0097067Y0312311D01*
X0097067Y0315470D01*
X0092483Y0315470D01*
X0092483Y0307918D01*
X0092674Y0307918D01*
X0093415Y0308035D01*
X0094129Y0308267D01*
X0094798Y0308608D01*
X0095405Y0309049D01*
X0096727Y0310885D02*
X0098316Y0310885D01*
X0097930Y0312484D02*
X0097067Y0312484D01*
X0097067Y0314082D02*
X0097930Y0314082D01*
X0097930Y0315681D02*
X0092483Y0315681D01*
X0092483Y0315839D02*
X0097067Y0315839D01*
X0097067Y0318999D01*
X0096949Y0319740D01*
X0096718Y0320454D01*
X0096377Y0321122D01*
X0095936Y0321730D01*
X0095405Y0322260D01*
X0094798Y0322702D01*
X0094129Y0323042D01*
X0093415Y0323274D01*
X0092674Y0323392D01*
X0092483Y0323392D01*
X0092483Y0315839D01*
X0092483Y0315470D01*
X0092114Y0315470D01*
X0092114Y0307918D01*
X0091923Y0307918D01*
X0091182Y0308035D01*
X0090468Y0308267D01*
X0089799Y0308608D01*
X0089192Y0309049D01*
X0088661Y0309580D01*
X0088220Y0310187D01*
X0087879Y0310856D01*
X0087647Y0311570D01*
X0087530Y0312311D01*
X0087530Y0315470D01*
X0092114Y0315470D01*
X0092114Y0315839D01*
X0087530Y0315839D01*
X0087530Y0318999D01*
X0087647Y0319740D01*
X0087879Y0320454D01*
X0088220Y0321122D01*
X0088661Y0321730D01*
X0089192Y0322260D01*
X0089799Y0322702D01*
X0090468Y0323042D01*
X0091182Y0323274D01*
X0091923Y0323392D01*
X0092114Y0323392D01*
X0092114Y0315839D01*
X0092483Y0315839D01*
X0092114Y0315681D02*
X0086667Y0315681D01*
X0086667Y0317279D02*
X0087530Y0317279D01*
X0087530Y0318878D02*
X0086667Y0318878D01*
X0086667Y0319492D02*
X0086002Y0321098D01*
X0084773Y0322327D01*
X0083167Y0322992D01*
X0081429Y0322992D01*
X0079824Y0322327D01*
X0078595Y0321098D01*
X0077930Y0319492D01*
X0077930Y0311817D01*
X0078595Y0310212D01*
X0079824Y0308983D01*
X0081429Y0308318D01*
X0083167Y0308318D01*
X0084773Y0308983D01*
X0086002Y0310212D01*
X0086667Y0311817D01*
X0086667Y0319492D01*
X0086259Y0320476D02*
X0087891Y0320476D01*
X0089006Y0322075D02*
X0085025Y0322075D01*
X0079572Y0322075D02*
X0075590Y0322075D01*
X0075405Y0322260D02*
X0074798Y0322702D01*
X0074129Y0323042D01*
X0073415Y0323274D01*
X0072674Y0323392D01*
X0072483Y0323392D01*
X0072483Y0315839D01*
X0077067Y0315839D01*
X0077067Y0318999D01*
X0076949Y0319740D01*
X0076718Y0320454D01*
X0076377Y0321122D01*
X0075936Y0321730D01*
X0075405Y0322260D01*
X0076706Y0320476D02*
X0078338Y0320476D01*
X0077930Y0318878D02*
X0077067Y0318878D01*
X0077067Y0317279D02*
X0077930Y0317279D01*
X0077930Y0315681D02*
X0072483Y0315681D01*
X0072483Y0315839D02*
X0072483Y0315470D01*
X0072483Y0307918D01*
X0072674Y0307918D01*
X0073415Y0308035D01*
X0074129Y0308267D01*
X0074798Y0308608D01*
X0075405Y0309049D01*
X0075936Y0309580D01*
X0076377Y0310187D01*
X0076718Y0310856D01*
X0076949Y0311570D01*
X0077067Y0312311D01*
X0077067Y0315470D01*
X0072483Y0315470D01*
X0072114Y0315470D01*
X0072114Y0307918D01*
X0071923Y0307918D01*
X0071182Y0308035D01*
X0070468Y0308267D01*
X0069799Y0308608D01*
X0069192Y0309049D01*
X0068661Y0309580D01*
X0068220Y0310187D01*
X0067879Y0310856D01*
X0067647Y0311570D01*
X0067530Y0312311D01*
X0067530Y0315470D01*
X0072114Y0315470D01*
X0072114Y0315839D01*
X0067530Y0315839D01*
X0067530Y0318999D01*
X0067647Y0319740D01*
X0067879Y0320454D01*
X0068220Y0321122D01*
X0068661Y0321730D01*
X0069192Y0322260D01*
X0069799Y0322702D01*
X0070468Y0323042D01*
X0071182Y0323274D01*
X0071923Y0323392D01*
X0072114Y0323392D01*
X0072114Y0315839D01*
X0072483Y0315839D01*
X0072114Y0315681D02*
X0048597Y0315681D01*
X0048817Y0314082D02*
X0067530Y0314082D01*
X0067530Y0312484D02*
X0049036Y0312484D01*
X0049244Y0310885D02*
X0067870Y0310885D01*
X0068954Y0309287D02*
X0049024Y0309287D01*
X0048158Y0317279D02*
X0067530Y0317279D01*
X0067530Y0318878D02*
X0047464Y0318878D01*
X0046770Y0320476D02*
X0067891Y0320476D01*
X0069006Y0322075D02*
X0045947Y0322075D01*
X0072114Y0322075D02*
X0072483Y0322075D01*
X0072483Y0320476D02*
X0072114Y0320476D01*
X0072114Y0318878D02*
X0072483Y0318878D01*
X0072483Y0317279D02*
X0072114Y0317279D01*
X0072114Y0314082D02*
X0072483Y0314082D01*
X0072483Y0312484D02*
X0072114Y0312484D01*
X0072114Y0310885D02*
X0072483Y0310885D01*
X0072483Y0309287D02*
X0072114Y0309287D01*
X0075643Y0309287D02*
X0079520Y0309287D01*
X0078316Y0310885D02*
X0076727Y0310885D01*
X0077067Y0312484D02*
X0077930Y0312484D01*
X0077930Y0314082D02*
X0077067Y0314082D01*
X0085077Y0309287D02*
X0088954Y0309287D01*
X0087870Y0310885D02*
X0086281Y0310885D01*
X0086667Y0312484D02*
X0087530Y0312484D01*
X0087530Y0314082D02*
X0086667Y0314082D01*
X0092114Y0314082D02*
X0092483Y0314082D01*
X0092483Y0312484D02*
X0092114Y0312484D01*
X0092114Y0310885D02*
X0092483Y0310885D01*
X0092483Y0309287D02*
X0092114Y0309287D01*
X0092114Y0317279D02*
X0092483Y0317279D01*
X0092483Y0318878D02*
X0092114Y0318878D01*
X0092114Y0320476D02*
X0092483Y0320476D01*
X0092483Y0322075D02*
X0092114Y0322075D01*
X0095590Y0322075D02*
X0099572Y0322075D01*
X0098338Y0320476D02*
X0096706Y0320476D01*
X0097067Y0318878D02*
X0097930Y0318878D01*
X0097930Y0317279D02*
X0097067Y0317279D01*
X0128318Y0309287D02*
X0139399Y0309287D01*
X0137430Y0307688D02*
X0130479Y0307688D01*
X0131905Y0306090D02*
X0136236Y0306090D01*
X0135486Y0304491D02*
X0132567Y0304491D01*
X0133137Y0302893D02*
X0135053Y0302893D01*
X0134937Y0301294D02*
X0133137Y0301294D01*
X0133137Y0299696D02*
X0134937Y0299696D01*
X0134937Y0298097D02*
X0133137Y0298097D01*
X0133137Y0296499D02*
X0134937Y0296499D01*
X0134937Y0294900D02*
X0133137Y0294900D01*
X0133137Y0293302D02*
X0143463Y0293302D01*
X0145012Y0293302D02*
X0163463Y0293302D01*
X0165012Y0293302D02*
X0175337Y0293302D01*
X0175337Y0294900D02*
X0173537Y0294900D01*
X0173537Y0294619D02*
X0173537Y0301866D01*
X0173420Y0302904D01*
X0173188Y0303922D01*
X0172843Y0304908D01*
X0172390Y0305849D01*
X0171834Y0306734D01*
X0171183Y0307550D01*
X0170444Y0308289D01*
X0169628Y0308940D01*
X0168743Y0309496D01*
X0167802Y0309949D01*
X0166816Y0310294D01*
X0165798Y0310527D01*
X0165012Y0310615D01*
X0165012Y0294619D01*
X0173537Y0294619D01*
X0173537Y0296499D02*
X0175337Y0296499D01*
X0175337Y0298097D02*
X0173537Y0298097D01*
X0173537Y0299696D02*
X0175337Y0299696D01*
X0175337Y0301294D02*
X0173537Y0301294D01*
X0173422Y0302893D02*
X0175337Y0302893D01*
X0175908Y0304491D02*
X0172989Y0304491D01*
X0172239Y0306090D02*
X0176570Y0306090D01*
X0177996Y0307688D02*
X0171045Y0307688D01*
X0169076Y0309287D02*
X0180157Y0309287D01*
X0165012Y0309287D02*
X0163463Y0309287D01*
X0163463Y0307688D02*
X0165012Y0307688D01*
X0165012Y0306090D02*
X0163463Y0306090D01*
X0163463Y0304491D02*
X0165012Y0304491D01*
X0165012Y0302893D02*
X0163463Y0302893D01*
X0163463Y0301294D02*
X0165012Y0301294D01*
X0165012Y0299696D02*
X0163463Y0299696D01*
X0163463Y0298097D02*
X0165012Y0298097D01*
X0165012Y0296499D02*
X0163463Y0296499D01*
X0163463Y0294900D02*
X0165012Y0294900D01*
X0165012Y0291703D02*
X0163463Y0291703D01*
X0163463Y0290105D02*
X0165012Y0290105D01*
X0165012Y0288506D02*
X0163463Y0288506D01*
X0163463Y0286908D02*
X0165012Y0286908D01*
X0165012Y0285309D02*
X0163463Y0285309D01*
X0163463Y0283711D02*
X0165012Y0283711D01*
X0165012Y0282112D02*
X0163463Y0282112D01*
X0163463Y0280514D02*
X0165012Y0280514D01*
X0165012Y0278915D02*
X0163463Y0278915D01*
X0158636Y0278915D02*
X0149838Y0278915D01*
X0151483Y0280514D02*
X0156992Y0280514D01*
X0155953Y0282112D02*
X0152522Y0282112D01*
X0153169Y0283711D02*
X0155306Y0283711D01*
X0154995Y0285309D02*
X0153480Y0285309D01*
X0153537Y0286908D02*
X0154937Y0286908D01*
X0154937Y0288506D02*
X0153537Y0288506D01*
X0153537Y0290105D02*
X0154937Y0290105D01*
X0154937Y0291703D02*
X0153537Y0291703D01*
X0153537Y0294619D02*
X0153537Y0301866D01*
X0153420Y0302904D01*
X0153188Y0303922D01*
X0152843Y0304908D01*
X0152390Y0305849D01*
X0151834Y0306734D01*
X0151183Y0307550D01*
X0150444Y0308289D01*
X0149628Y0308940D01*
X0148743Y0309496D01*
X0147802Y0309949D01*
X0146816Y0310294D01*
X0145798Y0310527D01*
X0145012Y0310615D01*
X0145012Y0294619D01*
X0153537Y0294619D01*
X0153537Y0294900D02*
X0154937Y0294900D01*
X0154937Y0296499D02*
X0153537Y0296499D01*
X0153537Y0298097D02*
X0154937Y0298097D01*
X0154937Y0299696D02*
X0153537Y0299696D01*
X0153537Y0301294D02*
X0154937Y0301294D01*
X0155053Y0302893D02*
X0153422Y0302893D01*
X0152989Y0304491D02*
X0155486Y0304491D01*
X0156236Y0306090D02*
X0152239Y0306090D01*
X0151045Y0307688D02*
X0157430Y0307688D01*
X0159399Y0309287D02*
X0149076Y0309287D01*
X0145012Y0309287D02*
X0143463Y0309287D01*
X0143463Y0307688D02*
X0145012Y0307688D01*
X0145012Y0306090D02*
X0143463Y0306090D01*
X0143463Y0304491D02*
X0145012Y0304491D01*
X0145012Y0302893D02*
X0143463Y0302893D01*
X0143463Y0301294D02*
X0145012Y0301294D01*
X0145012Y0299696D02*
X0143463Y0299696D01*
X0143463Y0298097D02*
X0145012Y0298097D01*
X0145012Y0296499D02*
X0143463Y0296499D01*
X0143463Y0294900D02*
X0145012Y0294900D01*
X0145012Y0291703D02*
X0143463Y0291703D01*
X0143463Y0290105D02*
X0145012Y0290105D01*
X0145012Y0288506D02*
X0143463Y0288506D01*
X0143463Y0286908D02*
X0145012Y0286908D01*
X0145012Y0285309D02*
X0143463Y0285309D01*
X0143463Y0283711D02*
X0145012Y0283711D01*
X0145012Y0282112D02*
X0143463Y0282112D01*
X0143463Y0280514D02*
X0145012Y0280514D01*
X0145012Y0278915D02*
X0143463Y0278915D01*
X0138636Y0278915D02*
X0129395Y0278915D01*
X0130994Y0280514D02*
X0136992Y0280514D01*
X0135953Y0282112D02*
X0132118Y0282112D01*
X0132780Y0283711D02*
X0135306Y0283711D01*
X0134995Y0285309D02*
X0133137Y0285309D01*
X0133137Y0286908D02*
X0134937Y0286908D01*
X0134937Y0288506D02*
X0133137Y0288506D01*
X0133137Y0290105D02*
X0134937Y0290105D01*
X0134937Y0291703D02*
X0133137Y0291703D01*
X0112336Y0264529D02*
X0100327Y0264529D01*
X0099901Y0264955D02*
X0096623Y0264955D01*
X0096623Y0256230D01*
X0095473Y0256230D01*
X0095473Y0255080D01*
X0086748Y0255080D01*
X0086748Y0251803D01*
X0092196Y0246355D01*
X0095473Y0246355D01*
X0095473Y0255080D01*
X0096623Y0255080D01*
X0096623Y0246355D01*
X0099901Y0246355D01*
X0105348Y0251803D01*
X0105348Y0255080D01*
X0096623Y0255080D01*
X0096623Y0256230D01*
X0105348Y0256230D01*
X0105348Y0259507D01*
X0099901Y0264955D01*
X0101925Y0262930D02*
X0110737Y0262930D01*
X0109139Y0261332D02*
X0103524Y0261332D01*
X0105122Y0259733D02*
X0107540Y0259733D01*
X0107148Y0258135D02*
X0105348Y0258135D01*
X0105348Y0256536D02*
X0107148Y0256536D01*
X0107148Y0254937D02*
X0105348Y0254937D01*
X0105348Y0253339D02*
X0107148Y0253339D01*
X0107376Y0251740D02*
X0105286Y0251740D01*
X0103688Y0250142D02*
X0108975Y0250142D01*
X0110573Y0248543D02*
X0102089Y0248543D01*
X0100491Y0246945D02*
X0112172Y0246945D01*
X0096623Y0246945D02*
X0095473Y0246945D01*
X0095473Y0248543D02*
X0096623Y0248543D01*
X0096623Y0250142D02*
X0095473Y0250142D01*
X0095473Y0251740D02*
X0096623Y0251740D01*
X0096623Y0253339D02*
X0095473Y0253339D01*
X0095473Y0254937D02*
X0096623Y0254937D01*
X0096623Y0256536D02*
X0095473Y0256536D01*
X0095473Y0256230D02*
X0095473Y0264955D01*
X0092196Y0264955D01*
X0086748Y0259507D01*
X0086748Y0256230D01*
X0095473Y0256230D01*
X0095473Y0258135D02*
X0096623Y0258135D01*
X0096623Y0259733D02*
X0095473Y0259733D01*
X0095473Y0261332D02*
X0096623Y0261332D01*
X0096623Y0262930D02*
X0095473Y0262930D01*
X0095473Y0264529D02*
X0096623Y0264529D01*
X0091770Y0264529D02*
X0080327Y0264529D01*
X0079901Y0264955D02*
X0076623Y0264955D01*
X0076623Y0256230D01*
X0075473Y0256230D01*
X0075473Y0255080D01*
X0066748Y0255080D01*
X0066748Y0251803D01*
X0072196Y0246355D01*
X0075473Y0246355D01*
X0075473Y0255080D01*
X0076623Y0255080D01*
X0076623Y0246355D01*
X0079901Y0246355D01*
X0085348Y0251803D01*
X0085348Y0255080D01*
X0076623Y0255080D01*
X0076623Y0256230D01*
X0085348Y0256230D01*
X0085348Y0259507D01*
X0079901Y0264955D01*
X0081925Y0262930D02*
X0090172Y0262930D01*
X0088573Y0261332D02*
X0083524Y0261332D01*
X0085122Y0259733D02*
X0086975Y0259733D01*
X0086748Y0258135D02*
X0085348Y0258135D01*
X0085348Y0256536D02*
X0086748Y0256536D01*
X0086748Y0254937D02*
X0085348Y0254937D01*
X0085348Y0253339D02*
X0086748Y0253339D01*
X0086810Y0251740D02*
X0085286Y0251740D01*
X0083688Y0250142D02*
X0088409Y0250142D01*
X0090008Y0248543D02*
X0082089Y0248543D01*
X0080491Y0246945D02*
X0091606Y0246945D01*
X0076623Y0246945D02*
X0075473Y0246945D01*
X0075473Y0248543D02*
X0076623Y0248543D01*
X0076623Y0250142D02*
X0075473Y0250142D01*
X0075473Y0251740D02*
X0076623Y0251740D01*
X0076623Y0253339D02*
X0075473Y0253339D01*
X0075473Y0254937D02*
X0076623Y0254937D01*
X0076623Y0256536D02*
X0075473Y0256536D01*
X0075473Y0256230D02*
X0075473Y0264955D01*
X0072196Y0264955D01*
X0066748Y0259507D01*
X0066748Y0256230D01*
X0075473Y0256230D01*
X0075473Y0258135D02*
X0076623Y0258135D01*
X0076623Y0259733D02*
X0075473Y0259733D01*
X0075473Y0261332D02*
X0076623Y0261332D01*
X0076623Y0262930D02*
X0075473Y0262930D01*
X0075473Y0264529D02*
X0076623Y0264529D01*
X0071770Y0264529D02*
X0059761Y0264529D01*
X0061360Y0262930D02*
X0070172Y0262930D01*
X0068573Y0261332D02*
X0062958Y0261332D01*
X0064557Y0259733D02*
X0066975Y0259733D01*
X0066748Y0258135D02*
X0064948Y0258135D01*
X0064948Y0256536D02*
X0066748Y0256536D01*
X0066748Y0254937D02*
X0064948Y0254937D01*
X0064948Y0253339D02*
X0066748Y0253339D01*
X0066810Y0251740D02*
X0064721Y0251740D01*
X0063122Y0250142D02*
X0068409Y0250142D01*
X0070008Y0248543D02*
X0061524Y0248543D01*
X0059925Y0246945D02*
X0071606Y0246945D01*
X0089117Y0226164D02*
X0023248Y0226164D01*
X0023248Y0224566D02*
X0089117Y0224566D01*
X0089117Y0222967D02*
X0023248Y0222967D01*
X0023248Y0221369D02*
X0089792Y0221369D01*
X0090098Y0219770D02*
X0023248Y0219770D01*
X0023248Y0218172D02*
X0090098Y0218172D01*
X0090098Y0216573D02*
X0023248Y0216573D01*
X0023248Y0214975D02*
X0090098Y0214975D01*
X0090098Y0213376D02*
X0023248Y0213376D01*
X0023248Y0211778D02*
X0090098Y0211778D01*
X0090098Y0210179D02*
X0023248Y0210179D01*
X0023248Y0208581D02*
X0090098Y0208581D01*
X0089334Y0206982D02*
X0023248Y0206982D01*
X0023248Y0205384D02*
X0089117Y0205384D01*
X0089117Y0203785D02*
X0023248Y0203785D01*
X0023248Y0202187D02*
X0089117Y0202187D01*
X0092298Y0204405D02*
X0092298Y0224405D01*
X0169838Y0278915D02*
X0179079Y0278915D01*
X0177481Y0280514D02*
X0171483Y0280514D01*
X0172522Y0282112D02*
X0176357Y0282112D01*
X0175695Y0283711D02*
X0173169Y0283711D01*
X0173480Y0285309D02*
X0175337Y0285309D01*
X0175337Y0286908D02*
X0173537Y0286908D01*
X0173537Y0288506D02*
X0175337Y0288506D01*
X0175337Y0290105D02*
X0173537Y0290105D01*
X0173537Y0291703D02*
X0175337Y0291703D01*
X0260748Y0259733D02*
X0290765Y0259733D01*
X0289167Y0258135D02*
X0260748Y0258135D01*
X0260748Y0256536D02*
X0287568Y0256536D01*
X0285970Y0254937D02*
X0260748Y0254937D01*
X0260748Y0253339D02*
X0284371Y0253339D01*
X0282773Y0251740D02*
X0260748Y0251740D01*
X0260748Y0250142D02*
X0279117Y0250142D01*
X0283463Y0278915D02*
X0285012Y0278915D01*
X0285012Y0280514D02*
X0283463Y0280514D01*
X0283463Y0282112D02*
X0285012Y0282112D01*
X0285012Y0283711D02*
X0283463Y0283711D01*
X0283463Y0285309D02*
X0285012Y0285309D01*
X0285012Y0286908D02*
X0283463Y0286908D01*
X0283463Y0288506D02*
X0285012Y0288506D01*
X0285012Y0290105D02*
X0283463Y0290105D01*
X0293174Y0163155D02*
X0293174Y0135674D01*
X0297899Y0130950D01*
X0285657Y0067912D02*
X0256440Y0067912D01*
X0253548Y0065655D02*
X0288548Y0065655D01*
X0285939Y0063116D02*
X0256158Y0063116D01*
X0270050Y0042999D02*
X0270050Y0042999D01*
X0269218Y0042335D02*
X0220013Y0042335D01*
X0219227Y0042661D02*
X0217476Y0042661D01*
X0215859Y0041991D01*
X0214621Y0040753D01*
X0213952Y0039136D01*
X0213952Y0031386D01*
X0214621Y0029769D01*
X0215859Y0028531D01*
X0217476Y0027861D01*
X0219227Y0027861D01*
X0220844Y0028531D01*
X0222082Y0029769D01*
X0222752Y0031386D01*
X0222752Y0039136D01*
X0222082Y0040753D01*
X0220844Y0041991D01*
X0219227Y0042661D01*
X0216690Y0042335D02*
X0210552Y0042335D01*
X0210552Y0043934D02*
X0272432Y0043934D01*
X0267213Y0040737D02*
X0222089Y0040737D01*
X0222751Y0039138D02*
X0265631Y0039138D01*
X0264541Y0037540D02*
X0222752Y0037540D01*
X0222752Y0035941D02*
X0263452Y0035941D01*
X0263314Y0035739D02*
X0263314Y0035739D01*
X0262883Y0034343D02*
X0222752Y0034343D01*
X0222752Y0032744D02*
X0262390Y0032744D01*
X0261897Y0031146D02*
X0222652Y0031146D01*
X0221860Y0029547D02*
X0261838Y0029547D01*
X0261838Y0027949D02*
X0219439Y0027949D01*
X0217264Y0027949D02*
X0210748Y0027949D01*
X0210748Y0026350D02*
X0261838Y0026350D01*
X0262206Y0024752D02*
X0209507Y0024752D01*
X0207908Y0023153D02*
X0262699Y0023153D01*
X0263192Y0021555D02*
X0206310Y0021555D01*
X0204711Y0019956D02*
X0264135Y0019956D01*
X0265225Y0018358D02*
X0145882Y0018358D01*
X0146932Y0019956D02*
X0166136Y0019956D01*
X0144398Y0016759D02*
X0266466Y0016759D01*
X0266135Y0017023D02*
X0266135Y0017023D01*
X0266135Y0017023D01*
X0268470Y0015161D02*
X0142791Y0015161D01*
X0122604Y0015161D02*
X0044203Y0015161D01*
X0045503Y0016759D02*
X0067459Y0016759D01*
X0067978Y0016240D02*
X0069852Y0015464D01*
X0071881Y0015464D01*
X0073755Y0016240D01*
X0075190Y0017675D01*
X0075967Y0019549D01*
X0075967Y0021578D01*
X0075190Y0023453D01*
X0073755Y0024887D01*
X0071881Y0025664D01*
X0069852Y0025664D01*
X0067978Y0024887D01*
X0066543Y0023453D01*
X0065767Y0021578D01*
X0065767Y0019549D01*
X0066543Y0017675D01*
X0067978Y0016240D01*
X0066260Y0018358D02*
X0046533Y0018358D01*
X0046222Y0017643D02*
X0046222Y0017643D01*
X0047227Y0019956D02*
X0065767Y0019956D01*
X0065767Y0021555D02*
X0047921Y0021555D01*
X0048522Y0023153D02*
X0066419Y0023153D01*
X0067842Y0024752D02*
X0048742Y0024752D01*
X0048961Y0026350D02*
X0099332Y0026350D01*
X0101003Y0027949D02*
X0049181Y0027949D01*
X0049099Y0029547D02*
X0102674Y0029547D01*
X0104345Y0031146D02*
X0048879Y0031146D01*
X0073891Y0024752D02*
X0093442Y0024752D01*
X0092019Y0023153D02*
X0075314Y0023153D01*
X0075967Y0021555D02*
X0091367Y0021555D01*
X0091367Y0019956D02*
X0075967Y0019956D01*
X0075473Y0018358D02*
X0091860Y0018358D01*
X0093059Y0016759D02*
X0074275Y0016759D01*
X0074058Y0034343D02*
X0093275Y0034343D01*
X0091950Y0035941D02*
X0075383Y0035941D01*
X0075967Y0037540D02*
X0091367Y0037540D01*
X0091367Y0039138D02*
X0075967Y0039138D01*
X0075404Y0040737D02*
X0091929Y0040737D01*
X0093226Y0042335D02*
X0074107Y0042335D01*
X0019713Y0047131D02*
X0010867Y0047131D01*
X0010867Y0045533D02*
X0016628Y0045533D01*
X0016455Y0045443D02*
X0016455Y0045443D01*
X0014839Y0043934D02*
X0010867Y0043934D01*
X0010867Y0042335D02*
X0013128Y0042335D01*
X0011805Y0040737D02*
X0010867Y0040737D01*
X0198152Y0040737D02*
X0198552Y0040737D01*
X0198552Y0042335D02*
X0198152Y0042335D01*
X0198152Y0039138D02*
X0198552Y0039138D01*
X0198552Y0037540D02*
X0198152Y0037540D01*
X0198152Y0035941D02*
X0198552Y0035941D01*
X0198552Y0034343D02*
X0198152Y0034343D01*
X0198152Y0032744D02*
X0198552Y0032744D01*
X0198552Y0031146D02*
X0198152Y0031146D01*
X0198152Y0029547D02*
X0198552Y0029547D01*
X0198552Y0027949D02*
X0198152Y0027949D01*
X0211860Y0029547D02*
X0214843Y0029547D01*
X0214051Y0031146D02*
X0212652Y0031146D01*
X0212752Y0032744D02*
X0213952Y0032744D01*
X0213952Y0034343D02*
X0212752Y0034343D01*
X0212752Y0035941D02*
X0213952Y0035941D01*
X0213952Y0037540D02*
X0212752Y0037540D01*
X0212751Y0039138D02*
X0213953Y0039138D01*
X0214615Y0040737D02*
X0212089Y0040737D01*
X0210552Y0045533D02*
X0370762Y0045533D01*
X0368973Y0043934D02*
X0284856Y0043934D01*
X0287624Y0042335D02*
X0293817Y0042335D01*
X0292486Y0040737D02*
X0289711Y0040737D01*
X0291194Y0039138D02*
X0291898Y0039138D01*
X0294504Y0033402D02*
X0294504Y0033402D01*
X0294603Y0032744D02*
X0362387Y0032744D01*
X0361978Y0031146D02*
X0294844Y0031146D01*
X0295085Y0029547D02*
X0361978Y0029547D01*
X0361978Y0027949D02*
X0295174Y0027949D01*
X0294934Y0026350D02*
X0361978Y0026350D01*
X0362220Y0024752D02*
X0360564Y0024752D01*
X0360487Y0024828D02*
X0358613Y0025605D01*
X0356584Y0025605D01*
X0354709Y0024828D01*
X0353275Y0023394D01*
X0352498Y0021519D01*
X0352498Y0019490D01*
X0353275Y0017616D01*
X0354709Y0016181D01*
X0356584Y0015405D01*
X0358613Y0015405D01*
X0360487Y0016181D01*
X0361922Y0017616D01*
X0362698Y0019490D01*
X0362698Y0021519D01*
X0361922Y0023394D01*
X0360487Y0024828D01*
X0362022Y0023153D02*
X0362668Y0023153D01*
X0362684Y0021555D02*
X0363116Y0021555D01*
X0363506Y0020163D02*
X0363506Y0020163D01*
X0363632Y0019956D02*
X0362698Y0019956D01*
X0362229Y0018358D02*
X0364604Y0018358D01*
X0365576Y0016759D02*
X0361066Y0016759D01*
X0354131Y0016759D02*
X0335466Y0016759D01*
X0334887Y0016181D02*
X0336322Y0017616D01*
X0337098Y0019490D01*
X0337098Y0021519D01*
X0336322Y0023394D01*
X0334887Y0024828D01*
X0333013Y0025605D01*
X0330984Y0025605D01*
X0329109Y0024828D01*
X0327675Y0023394D01*
X0327298Y0022485D01*
X0326922Y0023394D01*
X0325487Y0024828D01*
X0323613Y0025605D01*
X0321584Y0025605D01*
X0319709Y0024828D01*
X0318275Y0023394D01*
X0317498Y0021519D01*
X0317498Y0019490D01*
X0318275Y0017616D01*
X0319709Y0016181D01*
X0321584Y0015405D01*
X0323613Y0015405D01*
X0325487Y0016181D01*
X0326922Y0017616D01*
X0327298Y0018525D01*
X0327675Y0017616D01*
X0329109Y0016181D01*
X0330984Y0015405D01*
X0333013Y0015405D01*
X0334887Y0016181D01*
X0336629Y0018358D02*
X0352967Y0018358D01*
X0352498Y0019956D02*
X0337098Y0019956D01*
X0337084Y0021555D02*
X0352513Y0021555D01*
X0353175Y0023153D02*
X0336422Y0023153D01*
X0334964Y0024752D02*
X0354633Y0024752D01*
X0356584Y0033205D02*
X0358613Y0033205D01*
X0360487Y0033981D01*
X0361922Y0035416D01*
X0362698Y0037290D01*
X0362698Y0039319D01*
X0361922Y0041194D01*
X0360487Y0042628D01*
X0358613Y0043405D01*
X0356584Y0043405D01*
X0354709Y0042628D01*
X0353275Y0041194D01*
X0352498Y0039319D01*
X0352498Y0037290D01*
X0353275Y0035416D01*
X0354709Y0033981D01*
X0356584Y0033205D01*
X0354348Y0034343D02*
X0335249Y0034343D01*
X0334887Y0033981D02*
X0336322Y0035416D01*
X0337098Y0037290D01*
X0337098Y0039319D01*
X0336322Y0041194D01*
X0334887Y0042628D01*
X0333013Y0043405D01*
X0330984Y0043405D01*
X0329109Y0042628D01*
X0327675Y0041194D01*
X0327298Y0040285D01*
X0326922Y0041194D01*
X0325487Y0042628D01*
X0323613Y0043405D01*
X0321584Y0043405D01*
X0319709Y0042628D01*
X0318275Y0041194D01*
X0317498Y0039319D01*
X0317498Y0037290D01*
X0318275Y0035416D01*
X0319709Y0033981D01*
X0321584Y0033205D01*
X0323613Y0033205D01*
X0325487Y0033981D01*
X0326922Y0035416D01*
X0327298Y0036325D01*
X0327675Y0035416D01*
X0329109Y0033981D01*
X0330984Y0033205D01*
X0333013Y0033205D01*
X0334887Y0033981D01*
X0336540Y0035941D02*
X0353057Y0035941D01*
X0352498Y0037540D02*
X0337098Y0037540D01*
X0337098Y0039138D02*
X0352498Y0039138D01*
X0353086Y0040737D02*
X0336511Y0040737D01*
X0335180Y0042335D02*
X0354417Y0042335D01*
X0360780Y0042335D02*
X0367262Y0042335D01*
X0365938Y0040737D02*
X0362111Y0040737D01*
X0362698Y0039138D02*
X0364966Y0039138D01*
X0363994Y0037540D02*
X0362698Y0037540D01*
X0362140Y0035941D02*
X0363283Y0035941D01*
X0362835Y0034343D02*
X0360849Y0034343D01*
X0373847Y0047131D02*
X0210552Y0047131D01*
X0279705Y0045203D02*
X0279705Y0045203D01*
X0283979Y0050328D02*
X0288118Y0050328D01*
X0287657Y0050789D02*
X0288783Y0049664D01*
X0290253Y0049055D01*
X0291844Y0049055D01*
X0293314Y0049664D01*
X0294439Y0050789D01*
X0295048Y0052259D01*
X0295048Y0059050D01*
X0294439Y0060521D01*
X0293314Y0061646D01*
X0291844Y0062255D01*
X0290253Y0062255D01*
X0288783Y0061646D01*
X0287657Y0060521D01*
X0287048Y0059050D01*
X0287048Y0052259D01*
X0287657Y0050789D01*
X0287186Y0051927D02*
X0284911Y0051927D01*
X0285048Y0053525D02*
X0287048Y0053525D01*
X0287048Y0055124D02*
X0285048Y0055124D01*
X0285048Y0056722D02*
X0287048Y0056722D01*
X0287048Y0058321D02*
X0285048Y0058321D01*
X0284689Y0059919D02*
X0287408Y0059919D01*
X0288654Y0061518D02*
X0283442Y0061518D01*
X0293442Y0061518D02*
X0298654Y0061518D01*
X0298783Y0061646D02*
X0297657Y0060521D01*
X0297048Y0059050D01*
X0297048Y0052259D01*
X0297657Y0050789D01*
X0298783Y0049664D01*
X0300253Y0049055D01*
X0301844Y0049055D01*
X0303314Y0049664D01*
X0304439Y0050789D01*
X0305048Y0052259D01*
X0305048Y0059050D01*
X0304439Y0060521D01*
X0303314Y0061646D01*
X0301844Y0062255D01*
X0300253Y0062255D01*
X0298783Y0061646D01*
X0297408Y0059919D02*
X0294689Y0059919D01*
X0295048Y0058321D02*
X0297048Y0058321D01*
X0297048Y0056722D02*
X0295048Y0056722D01*
X0295048Y0055124D02*
X0297048Y0055124D01*
X0297048Y0053525D02*
X0295048Y0053525D01*
X0294911Y0051927D02*
X0297186Y0051927D01*
X0298118Y0050328D02*
X0293979Y0050328D01*
X0303979Y0050328D02*
X0308118Y0050328D01*
X0307657Y0050789D02*
X0308783Y0049664D01*
X0310253Y0049055D01*
X0311844Y0049055D01*
X0313314Y0049664D01*
X0314439Y0050789D01*
X0315048Y0052259D01*
X0315048Y0059050D01*
X0314439Y0060521D01*
X0313314Y0061646D01*
X0311844Y0062255D01*
X0310253Y0062255D01*
X0308783Y0061646D01*
X0307657Y0060521D01*
X0307048Y0059050D01*
X0307048Y0052259D01*
X0307657Y0050789D01*
X0307186Y0051927D02*
X0304911Y0051927D01*
X0305048Y0053525D02*
X0307048Y0053525D01*
X0307048Y0055124D02*
X0305048Y0055124D01*
X0305048Y0056722D02*
X0307048Y0056722D01*
X0307048Y0058321D02*
X0305048Y0058321D01*
X0304689Y0059919D02*
X0307408Y0059919D01*
X0308654Y0061518D02*
X0303442Y0061518D01*
X0313442Y0061518D02*
X0318654Y0061518D01*
X0318783Y0061646D02*
X0317657Y0060521D01*
X0317048Y0059050D01*
X0317048Y0052259D01*
X0317657Y0050789D01*
X0318783Y0049664D01*
X0320253Y0049055D01*
X0321844Y0049055D01*
X0323314Y0049664D01*
X0324439Y0050789D01*
X0325048Y0052259D01*
X0325048Y0059050D01*
X0324439Y0060521D01*
X0323314Y0061646D01*
X0321844Y0062255D01*
X0320253Y0062255D01*
X0318783Y0061646D01*
X0317408Y0059919D02*
X0314689Y0059919D01*
X0315048Y0058321D02*
X0317048Y0058321D01*
X0317048Y0056722D02*
X0315048Y0056722D01*
X0315048Y0055124D02*
X0317048Y0055124D01*
X0317048Y0053525D02*
X0315048Y0053525D01*
X0314911Y0051927D02*
X0317186Y0051927D01*
X0318118Y0050328D02*
X0313979Y0050328D01*
X0319417Y0042335D02*
X0300180Y0042335D01*
X0301511Y0040737D02*
X0318086Y0040737D01*
X0317498Y0039138D02*
X0302098Y0039138D01*
X0302098Y0037540D02*
X0317498Y0037540D01*
X0318057Y0035941D02*
X0301540Y0035941D01*
X0300249Y0034343D02*
X0319348Y0034343D01*
X0325849Y0034343D02*
X0328748Y0034343D01*
X0327457Y0035941D02*
X0327140Y0035941D01*
X0327111Y0040737D02*
X0327486Y0040737D01*
X0328817Y0042335D02*
X0325780Y0042335D01*
X0328783Y0049664D02*
X0330253Y0049055D01*
X0331844Y0049055D01*
X0333314Y0049664D01*
X0334439Y0050789D01*
X0335048Y0052259D01*
X0335048Y0059050D01*
X0334439Y0060521D01*
X0333314Y0061646D01*
X0331844Y0062255D01*
X0330253Y0062255D01*
X0328783Y0061646D01*
X0327657Y0060521D01*
X0327048Y0059050D01*
X0327048Y0052259D01*
X0327657Y0050789D01*
X0328783Y0049664D01*
X0328118Y0050328D02*
X0323979Y0050328D01*
X0324911Y0051927D02*
X0327186Y0051927D01*
X0327048Y0053525D02*
X0325048Y0053525D01*
X0325048Y0055124D02*
X0327048Y0055124D01*
X0327048Y0056722D02*
X0325048Y0056722D01*
X0325048Y0058321D02*
X0327048Y0058321D01*
X0327408Y0059919D02*
X0324689Y0059919D01*
X0323442Y0061518D02*
X0328654Y0061518D01*
X0333442Y0061518D02*
X0338654Y0061518D01*
X0338783Y0061646D02*
X0337657Y0060521D01*
X0337048Y0059050D01*
X0337048Y0052259D01*
X0337657Y0050789D01*
X0338783Y0049664D01*
X0340253Y0049055D01*
X0341844Y0049055D01*
X0343314Y0049664D01*
X0344439Y0050789D01*
X0345048Y0052259D01*
X0345048Y0059050D01*
X0344439Y0060521D01*
X0343314Y0061646D01*
X0341844Y0062255D01*
X0340253Y0062255D01*
X0338783Y0061646D01*
X0337408Y0059919D02*
X0334689Y0059919D01*
X0335048Y0058321D02*
X0337048Y0058321D01*
X0337048Y0056722D02*
X0335048Y0056722D01*
X0335048Y0055124D02*
X0337048Y0055124D01*
X0337048Y0053525D02*
X0335048Y0053525D01*
X0334911Y0051927D02*
X0337186Y0051927D01*
X0338118Y0050328D02*
X0333979Y0050328D01*
X0343979Y0050328D02*
X0347591Y0050328D01*
X0346789Y0051927D02*
X0344911Y0051927D01*
X0345048Y0053525D02*
X0346648Y0053525D01*
X0346648Y0055124D02*
X0345048Y0055124D01*
X0345048Y0056722D02*
X0346648Y0056722D01*
X0346648Y0058321D02*
X0345048Y0058321D01*
X0344689Y0059919D02*
X0346963Y0059919D01*
X0348089Y0061518D02*
X0343442Y0061518D01*
X0351048Y0061518D02*
X0351048Y0061518D01*
X0351048Y0059919D02*
X0351048Y0059919D01*
X0351048Y0058321D02*
X0351048Y0058321D01*
X0351048Y0056722D02*
X0351048Y0056722D01*
X0351048Y0055124D02*
X0351048Y0055124D01*
X0351048Y0053525D02*
X0351048Y0053525D01*
X0351048Y0051927D02*
X0351048Y0051927D01*
X0351048Y0050328D02*
X0351048Y0050328D01*
X0375618Y0048049D02*
X0375618Y0048049D01*
X0366449Y0015323D02*
X0366449Y0015323D01*
X0366449Y0015323D01*
X0366623Y0015161D02*
X0288657Y0015161D01*
X0288925Y0015315D02*
X0288925Y0015315D01*
X0288925Y0015315D01*
X0290265Y0016759D02*
X0293531Y0016759D01*
X0292367Y0018358D02*
X0291748Y0018358D01*
X0299964Y0024752D02*
X0319633Y0024752D01*
X0318175Y0023153D02*
X0301422Y0023153D01*
X0302084Y0021555D02*
X0317513Y0021555D01*
X0317498Y0019956D02*
X0302098Y0019956D01*
X0301629Y0018358D02*
X0317967Y0018358D01*
X0319131Y0016759D02*
X0300466Y0016759D01*
X0326066Y0016759D02*
X0328531Y0016759D01*
X0327367Y0018358D02*
X0327229Y0018358D01*
X0327022Y0023153D02*
X0327575Y0023153D01*
X0329033Y0024752D02*
X0325564Y0024752D01*
D21*
X0308548Y0143155D03*
X0346048Y0238155D03*
X0342298Y0273155D03*
X0196048Y0153155D03*
X0158548Y0130655D03*
X0096048Y0178155D03*
X0058548Y0223155D03*
X0086048Y0245655D03*
X0021048Y0255655D03*
X0158548Y0268155D03*
X0184798Y0244405D03*
X0086048Y0130655D03*
D22*
X0026048Y0185655D03*
X0034798Y0225655D03*
X0034798Y0238155D03*
X0171048Y0226905D03*
X0282298Y0261905D03*
X0277298Y0076905D03*
X0288548Y0065655D03*
X0253548Y0065655D03*
D23*
X0284798Y0131905D03*
X0297899Y0130950D03*
X0298548Y0136905D03*
X0293174Y0163155D03*
X0336048Y0173155D03*
X0343352Y0151983D03*
X0238548Y0170655D03*
X0228548Y0173155D03*
X0193548Y0173155D03*
X0188548Y0179405D03*
X0169798Y0200655D03*
X0188548Y0211905D03*
X0181048Y0225655D03*
X0193548Y0241905D03*
X0208548Y0235655D03*
X0198548Y0255655D03*
X0148548Y0243155D03*
X0141048Y0228155D03*
X0126048Y0225655D03*
X0141048Y0208155D03*
X0148548Y0178155D03*
X0132298Y0176905D03*
X0113548Y0173155D03*
X0092298Y0204405D03*
X0092298Y0224405D03*
X0021048Y0230655D03*
X0174798Y0065655D03*
X0336048Y0242525D03*
X0303548Y0266905D03*
X0303548Y0273155D03*
X0282298Y0248155D03*
X0271048Y0263155D03*
X0349798Y0275655D03*
X0363548Y0274405D03*
X0377298Y0270655D03*
X0393548Y0275655D03*
X0356048Y0288155D03*
D24*
X0377298Y0270655D02*
X0377298Y0269405D01*
X0374798Y0266905D01*
X0303548Y0266905D01*
X0256048Y0173155D02*
X0241048Y0173155D01*
X0238548Y0170655D01*
D25*
X0184798Y0244405D02*
X0173548Y0255655D01*
X0116048Y0255655D01*
M02*
