G04 (created by PCBNEW (2013-07-07 BZR 4022)-stable) date 06/03/2017 2:17:35 PM*
%MOIN*%
G04 Gerber Fmt 3.4, Leading zero omitted, Abs format*
%FSLAX34Y34*%
G01*
G70*
G90*
G04 APERTURE LIST*
%ADD10C,0.00590551*%
%ADD11C,0.00393701*%
%ADD12R,0.104724X0.0314961*%
%ADD13R,0.0315X0.0394*%
%ADD14R,0.06X0.08*%
%ADD15R,0.08X0.06*%
%ADD16R,0.055X0.055*%
%ADD17C,0.055*%
%ADD18R,0.0610236X0.0511811*%
%ADD19R,0.0708661X0.015748*%
%ADD20C,0.0295276*%
%ADD21C,0.0787402*%
%ADD22C,0.0688976*%
%ADD23R,0.071X0.063*%
%ADD24R,0.03X0.02*%
%ADD25C,0.035*%
%ADD26C,0.015748*%
%ADD27C,0.01*%
G04 APERTURE END LIST*
G54D10*
G54D11*
X64978Y-78245D02*
X64969Y-78235D01*
X64950Y-78207D01*
X64940Y-78188D01*
X64931Y-78160D01*
X64922Y-78113D01*
X64922Y-78076D01*
X64931Y-78029D01*
X64940Y-78001D01*
X64950Y-77982D01*
X64969Y-77954D01*
X64978Y-77945D01*
X65156Y-78170D02*
X65044Y-78170D01*
X65100Y-78170D02*
X65100Y-77973D01*
X65081Y-78001D01*
X65062Y-78020D01*
X65044Y-78029D01*
X65222Y-77973D02*
X65344Y-77973D01*
X65278Y-78048D01*
X65306Y-78048D01*
X65325Y-78057D01*
X65334Y-78067D01*
X65344Y-78085D01*
X65344Y-78132D01*
X65334Y-78151D01*
X65325Y-78160D01*
X65306Y-78170D01*
X65250Y-78170D01*
X65231Y-78160D01*
X65222Y-78151D01*
X65437Y-78160D02*
X65437Y-78170D01*
X65428Y-78188D01*
X65419Y-78198D01*
X65559Y-77973D02*
X65578Y-77973D01*
X65597Y-77982D01*
X65606Y-77992D01*
X65615Y-78010D01*
X65625Y-78048D01*
X65625Y-78095D01*
X65615Y-78132D01*
X65606Y-78151D01*
X65597Y-78160D01*
X65578Y-78170D01*
X65559Y-78170D01*
X65540Y-78160D01*
X65531Y-78151D01*
X65522Y-78132D01*
X65512Y-78095D01*
X65512Y-78048D01*
X65522Y-78010D01*
X65531Y-77992D01*
X65540Y-77982D01*
X65559Y-77973D01*
X65690Y-78245D02*
X65700Y-78235D01*
X65718Y-78207D01*
X65728Y-78188D01*
X65737Y-78160D01*
X65747Y-78113D01*
X65747Y-78076D01*
X65737Y-78029D01*
X65728Y-78001D01*
X65718Y-77982D01*
X65700Y-77954D01*
X65690Y-77945D01*
G54D12*
X88208Y-45255D03*
X88248Y-47263D03*
X90885Y-47263D03*
X90885Y-44271D03*
G54D13*
X72677Y-58582D03*
X72302Y-57716D03*
X73052Y-57716D03*
X75669Y-58582D03*
X75294Y-57716D03*
X76044Y-57716D03*
X78031Y-58582D03*
X77656Y-57716D03*
X78406Y-57716D03*
X82047Y-58759D03*
X81672Y-57893D03*
X82422Y-57893D03*
X83858Y-58799D03*
X83483Y-57933D03*
X84233Y-57933D03*
X69015Y-50039D03*
X68640Y-49173D03*
X69390Y-49173D03*
G54D14*
X68071Y-51200D03*
X66771Y-51200D03*
G54D15*
X92598Y-50669D03*
X92598Y-49369D03*
G54D14*
X68543Y-77519D03*
X67243Y-77519D03*
X68051Y-53740D03*
X66751Y-53740D03*
X88188Y-49212D03*
X89488Y-49212D03*
X76063Y-68897D03*
X74763Y-68897D03*
X76024Y-67618D03*
X74724Y-67618D03*
X87815Y-77421D03*
X86515Y-77421D03*
X68051Y-56200D03*
X66751Y-56200D03*
X68051Y-52500D03*
X66751Y-52500D03*
X76004Y-66417D03*
X74704Y-66417D03*
G54D15*
X83307Y-66889D03*
X83307Y-68189D03*
G54D14*
X68051Y-54960D03*
X66751Y-54960D03*
G54D15*
X79940Y-66613D03*
X79940Y-67913D03*
G54D16*
X67401Y-75590D03*
G54D17*
X68401Y-75590D03*
X69401Y-75590D03*
X70401Y-75590D03*
X71401Y-75590D03*
X72401Y-75590D03*
G54D16*
X86122Y-76043D03*
G54D17*
X87122Y-76043D03*
X88122Y-76043D03*
X89122Y-76043D03*
X90122Y-76043D03*
X91122Y-76043D03*
G54D16*
X89224Y-40334D03*
G54D17*
X90224Y-40334D03*
G54D16*
X68905Y-40354D03*
G54D17*
X67905Y-40354D03*
G54D16*
X73870Y-77362D03*
G54D17*
X74870Y-77362D03*
X75870Y-77362D03*
X76870Y-77362D03*
X77870Y-77362D03*
X78870Y-77362D03*
X79870Y-77362D03*
X80870Y-77362D03*
X81870Y-77362D03*
X82870Y-77362D03*
X83870Y-77362D03*
X84870Y-77362D03*
G54D16*
X75196Y-70925D03*
X65472Y-71889D03*
X75196Y-72224D03*
X65472Y-70433D03*
G54D18*
X82942Y-60317D03*
X82942Y-62517D03*
X86742Y-62517D03*
X86742Y-60317D03*
X88651Y-60317D03*
X88651Y-62517D03*
X92451Y-62517D03*
X92451Y-60317D03*
X77233Y-60317D03*
X77233Y-62517D03*
X81033Y-62517D03*
X81033Y-60317D03*
X71525Y-60317D03*
X71525Y-62517D03*
X75325Y-62517D03*
X75325Y-60317D03*
X65816Y-60317D03*
X65816Y-62517D03*
X69616Y-62517D03*
X69616Y-60317D03*
G54D19*
X87114Y-66330D03*
X87114Y-66830D03*
X87114Y-67330D03*
X87114Y-67830D03*
X87114Y-68330D03*
X87114Y-68830D03*
X87114Y-69330D03*
X87114Y-69830D03*
X87114Y-70330D03*
X87114Y-70830D03*
X87114Y-71330D03*
X87114Y-71830D03*
X87114Y-72330D03*
X87114Y-72830D03*
X90929Y-72818D03*
X90929Y-72318D03*
X90929Y-71818D03*
X90929Y-71318D03*
X90929Y-70818D03*
X90929Y-70318D03*
X90929Y-69818D03*
X90929Y-69318D03*
X90929Y-68818D03*
X90929Y-68318D03*
X90929Y-67818D03*
X90929Y-67318D03*
X90929Y-66818D03*
X90929Y-66318D03*
X68137Y-65917D03*
X68137Y-66417D03*
X68137Y-66917D03*
X68137Y-67417D03*
X68137Y-67917D03*
X68137Y-68417D03*
X68137Y-68917D03*
X68137Y-69417D03*
X68137Y-69917D03*
X68137Y-70417D03*
X68137Y-70917D03*
X68137Y-71417D03*
X68137Y-71917D03*
X68137Y-72417D03*
X71952Y-72405D03*
X71952Y-71905D03*
X71952Y-71405D03*
X71952Y-70905D03*
X71952Y-70405D03*
X71952Y-69905D03*
X71952Y-69405D03*
X71952Y-68905D03*
X71952Y-68405D03*
X71952Y-67905D03*
X71952Y-67405D03*
X71952Y-66905D03*
X71952Y-66405D03*
X71952Y-65905D03*
G54D20*
X73996Y-49862D03*
X74586Y-49862D03*
X75177Y-49862D03*
X75767Y-49862D03*
X76358Y-49862D03*
X76948Y-49862D03*
X77539Y-49862D03*
X78129Y-49862D03*
X78720Y-49862D03*
X79311Y-49862D03*
X79901Y-49862D03*
X80492Y-49862D03*
X81082Y-49862D03*
X81673Y-49862D03*
X82263Y-49862D03*
X82854Y-49862D03*
X83444Y-49862D03*
G54D21*
X85531Y-49192D03*
X71909Y-49192D03*
G54D22*
X75799Y-56232D03*
X76799Y-56232D03*
X77799Y-56232D03*
X78799Y-56232D03*
X79799Y-56232D03*
X80799Y-56232D03*
X81799Y-56232D03*
X82799Y-56232D03*
X82799Y-52232D03*
X81799Y-52232D03*
X80799Y-52232D03*
X79799Y-52232D03*
X78799Y-52232D03*
X77799Y-52232D03*
X76799Y-52232D03*
X75799Y-52232D03*
G54D23*
X83287Y-69233D03*
X83287Y-70333D03*
X79980Y-69154D03*
X79980Y-70254D03*
X92559Y-47794D03*
X92559Y-46694D03*
G54D16*
X79704Y-58011D03*
X65413Y-77342D03*
X92775Y-77342D03*
X65413Y-40334D03*
X92775Y-40334D03*
X66692Y-58248D03*
X89468Y-54724D03*
G54D24*
X81330Y-68443D03*
X81330Y-69193D03*
X82330Y-68443D03*
X81330Y-68818D03*
X82330Y-69193D03*
X77649Y-68404D03*
X77649Y-69154D03*
X78649Y-68404D03*
X77649Y-68779D03*
X78649Y-69154D03*
G54D16*
X66555Y-46405D03*
G54D17*
X66555Y-45405D03*
G54D13*
X91732Y-53129D03*
X91357Y-52263D03*
X92107Y-52263D03*
G54D25*
X91732Y-53720D03*
X81889Y-69862D03*
X85039Y-42440D03*
X69212Y-50531D03*
X69291Y-42460D03*
X91732Y-42145D03*
X91732Y-58759D03*
X81850Y-59114D03*
X81870Y-75866D03*
X70039Y-69862D03*
X69881Y-73622D03*
X68405Y-73681D03*
X68366Y-77066D03*
X80866Y-74822D03*
X87893Y-74842D03*
X87874Y-67362D03*
X79862Y-71358D03*
X83818Y-71377D03*
X84842Y-68031D03*
X79114Y-71692D03*
X84153Y-71692D03*
X84921Y-68484D03*
X75905Y-75531D03*
X78838Y-75511D03*
X78818Y-72007D03*
X84468Y-72007D03*
X85118Y-68897D03*
X74862Y-75118D03*
X78523Y-75177D03*
X78503Y-72322D03*
X84783Y-72303D03*
X85236Y-69350D03*
X73877Y-74783D03*
X78188Y-74803D03*
X78208Y-72637D03*
X85118Y-72755D03*
X85314Y-70354D03*
X88799Y-66811D03*
X88956Y-74468D03*
X73385Y-74468D03*
X73307Y-69448D03*
X70944Y-65964D03*
X71397Y-66377D03*
X67303Y-77047D03*
X67401Y-73248D03*
X68838Y-73267D03*
X68956Y-65905D03*
X69311Y-66358D03*
X69271Y-57440D03*
X69645Y-67007D03*
X69803Y-61496D03*
X76870Y-61574D03*
X76870Y-57716D03*
X69980Y-67401D03*
X69980Y-64881D03*
X77893Y-64842D03*
X78622Y-57696D03*
X82283Y-57677D03*
X82244Y-63838D03*
X70275Y-63937D03*
X70196Y-67913D03*
X70511Y-68405D03*
X70590Y-63543D03*
X85433Y-63838D03*
X85492Y-57874D03*
X66141Y-53799D03*
X66259Y-65826D03*
X67224Y-65826D03*
X67421Y-70413D03*
X67578Y-50137D03*
X67559Y-69921D03*
X65472Y-56240D03*
X65492Y-59330D03*
X73011Y-59704D03*
X72578Y-67913D03*
X65137Y-52460D03*
X65157Y-58996D03*
X73385Y-59448D03*
X73366Y-67421D03*
X65826Y-55039D03*
X65944Y-66141D03*
X66909Y-66240D03*
X67185Y-70925D03*
X89271Y-71870D03*
X89114Y-73523D03*
X70393Y-73405D03*
X70433Y-68956D03*
X66830Y-62618D03*
X89173Y-74921D03*
X92303Y-74822D03*
X92381Y-66338D03*
X90118Y-74566D03*
X91988Y-74448D03*
X92007Y-66870D03*
X79035Y-69921D03*
X79035Y-64822D03*
X90118Y-64822D03*
X90118Y-70275D03*
X68090Y-57342D03*
X70236Y-56338D03*
X70216Y-41200D03*
X67893Y-41220D03*
X67913Y-60314D03*
X67972Y-64507D03*
X89783Y-64448D03*
X89803Y-69862D03*
X66594Y-60314D03*
X88011Y-66338D03*
X76870Y-74153D03*
X91397Y-72854D03*
X91161Y-74153D03*
X73031Y-74173D03*
X73031Y-71988D03*
X91673Y-72381D03*
X91299Y-63720D03*
X87401Y-63858D03*
X87204Y-48070D03*
X84862Y-73838D03*
X89586Y-72342D03*
X89507Y-73838D03*
X72696Y-73838D03*
X72657Y-72421D03*
X92736Y-51751D03*
X92874Y-67283D03*
X90964Y-47559D03*
X90905Y-52263D03*
X76004Y-66417D03*
X81771Y-54960D03*
X73759Y-54980D03*
X73838Y-59311D03*
X75807Y-59291D03*
X80728Y-59192D03*
X76437Y-59015D03*
X76515Y-67637D03*
X77834Y-55295D03*
X74153Y-55255D03*
X74035Y-64133D03*
X76909Y-64153D03*
X76653Y-68917D03*
X81397Y-57874D03*
X83484Y-57637D03*
X72302Y-57716D03*
X72362Y-56161D03*
X81200Y-69330D03*
X81318Y-72992D03*
X85472Y-72992D03*
X85452Y-70885D03*
X72125Y-60354D03*
X71574Y-60905D03*
X71496Y-65196D03*
X89468Y-65137D03*
X89488Y-69330D03*
X78307Y-60374D03*
X93169Y-59488D03*
X93070Y-68838D03*
X83740Y-60334D03*
X82598Y-60708D03*
X82598Y-64153D03*
X89094Y-64153D03*
X89153Y-68346D03*
X89431Y-60317D03*
X91594Y-60236D03*
X91633Y-67854D03*
X82283Y-51279D03*
X85787Y-51299D03*
X85787Y-71338D03*
X86102Y-71850D03*
X86122Y-50334D03*
X83444Y-50649D03*
X86417Y-50649D03*
X86397Y-72342D03*
X69704Y-48799D03*
X69665Y-43011D03*
X87775Y-43090D03*
X87874Y-59153D03*
X91929Y-59192D03*
X92637Y-71338D03*
X81673Y-50964D03*
X88307Y-51043D03*
X88484Y-72834D03*
X77874Y-73149D03*
X70826Y-73208D03*
X70708Y-72401D03*
X77322Y-69389D03*
X77303Y-68366D03*
X77362Y-65511D03*
X92342Y-41515D03*
X92539Y-65531D03*
X80807Y-65531D03*
X80767Y-68484D03*
X80452Y-75177D03*
X83897Y-75118D03*
G54D26*
X91732Y-53129D02*
X91732Y-53720D01*
X82330Y-69193D02*
X82330Y-69555D01*
X82023Y-69862D02*
X81889Y-69862D01*
X82330Y-69555D02*
X82023Y-69862D01*
X83307Y-68189D02*
X83307Y-69213D01*
X83307Y-69213D02*
X83287Y-69233D01*
X83287Y-69233D02*
X82370Y-69233D01*
X82370Y-69233D02*
X82330Y-69193D01*
X85039Y-42440D02*
X85039Y-42460D01*
X69015Y-50334D02*
X69015Y-50039D01*
X69212Y-50531D02*
X69015Y-50334D01*
X91417Y-42460D02*
X85039Y-42460D01*
X85039Y-42460D02*
X69291Y-42460D01*
X91732Y-42145D02*
X91417Y-42460D01*
X83858Y-58799D02*
X91692Y-58799D01*
X91692Y-58799D02*
X91732Y-58759D01*
X75669Y-58582D02*
X75551Y-58582D01*
X72874Y-58779D02*
X72677Y-58582D01*
X75354Y-58779D02*
X72874Y-58779D01*
X75551Y-58582D02*
X75354Y-58779D01*
X77972Y-59015D02*
X77047Y-59015D01*
X75767Y-58681D02*
X75669Y-58582D01*
X76712Y-58681D02*
X75767Y-58681D01*
X77047Y-59015D02*
X76712Y-58681D01*
X82047Y-58759D02*
X80374Y-58759D01*
X78031Y-58956D02*
X78031Y-58582D01*
X77972Y-59015D02*
X78031Y-58956D01*
X80118Y-59015D02*
X77972Y-59015D01*
X80374Y-58759D02*
X80118Y-59015D01*
X82047Y-58759D02*
X83818Y-58759D01*
X83818Y-58759D02*
X83858Y-58799D01*
X81850Y-59114D02*
X82047Y-58917D01*
X82047Y-58917D02*
X82047Y-58759D01*
X87122Y-76043D02*
X87122Y-76314D01*
X87815Y-77008D02*
X87815Y-77421D01*
X87122Y-76314D02*
X87815Y-77008D01*
X81870Y-75866D02*
X83779Y-75866D01*
X87122Y-75389D02*
X87122Y-76043D01*
X86850Y-75118D02*
X87122Y-75389D01*
X84527Y-75118D02*
X86850Y-75118D01*
X83779Y-75866D02*
X84527Y-75118D01*
X69881Y-73622D02*
X70019Y-73622D01*
X74212Y-75866D02*
X81870Y-75866D01*
X72244Y-73897D02*
X74212Y-75866D01*
X70295Y-73897D02*
X72244Y-73897D01*
X70019Y-73622D02*
X70295Y-73897D01*
X70082Y-69905D02*
X71952Y-69905D01*
X70039Y-69862D02*
X70082Y-69905D01*
X68464Y-73622D02*
X69881Y-73622D01*
X68405Y-73681D02*
X68464Y-73622D01*
G54D27*
X68543Y-77244D02*
X68543Y-77519D01*
X68366Y-77066D02*
X68543Y-77244D01*
X87114Y-67330D02*
X87842Y-67330D01*
X87874Y-74822D02*
X80866Y-74822D01*
X87893Y-74842D02*
X87874Y-74822D01*
X87842Y-67330D02*
X87874Y-67362D01*
X87114Y-67830D02*
X85043Y-67830D01*
X83799Y-71358D02*
X79862Y-71358D01*
X83818Y-71377D02*
X83799Y-71358D01*
X85043Y-67830D02*
X84842Y-68031D01*
X87114Y-68330D02*
X85074Y-68330D01*
X84153Y-71692D02*
X79114Y-71692D01*
X85074Y-68330D02*
X84921Y-68484D01*
X87114Y-68830D02*
X85185Y-68830D01*
X78818Y-75531D02*
X75905Y-75531D01*
X78838Y-75511D02*
X78818Y-75531D01*
X84468Y-72007D02*
X78818Y-72007D01*
X85185Y-68830D02*
X85118Y-68897D01*
X87114Y-69330D02*
X85255Y-69330D01*
X78464Y-75118D02*
X74862Y-75118D01*
X78523Y-75177D02*
X78464Y-75118D01*
X84763Y-72322D02*
X78503Y-72322D01*
X84783Y-72303D02*
X84763Y-72322D01*
X85255Y-69330D02*
X85236Y-69350D01*
X87114Y-70330D02*
X85338Y-70330D01*
X78169Y-74783D02*
X73877Y-74783D01*
X78188Y-74803D02*
X78169Y-74783D01*
X85000Y-72637D02*
X78208Y-72637D01*
X85118Y-72755D02*
X85000Y-72637D01*
X85338Y-70330D02*
X85314Y-70354D01*
X71952Y-69405D02*
X73263Y-69405D01*
X88779Y-66830D02*
X87114Y-66830D01*
X88799Y-66811D02*
X88779Y-66830D01*
X73385Y-74468D02*
X88956Y-74468D01*
X73263Y-69405D02*
X73307Y-69448D01*
X71952Y-65905D02*
X71003Y-65905D01*
X71003Y-65905D02*
X70944Y-65964D01*
X71952Y-66405D02*
X71425Y-66405D01*
X71425Y-66405D02*
X71397Y-66377D01*
X67243Y-77106D02*
X67243Y-77519D01*
X67303Y-77047D02*
X67243Y-77106D01*
X68137Y-65917D02*
X68944Y-65917D01*
X68818Y-73248D02*
X67401Y-73248D01*
X68838Y-73267D02*
X68818Y-73248D01*
X68944Y-65917D02*
X68956Y-65905D01*
X73052Y-57716D02*
X73052Y-57166D01*
X69251Y-66417D02*
X68137Y-66417D01*
X69311Y-66358D02*
X69251Y-66417D01*
X69862Y-56850D02*
X69271Y-57440D01*
X72736Y-56850D02*
X69862Y-56850D01*
X73052Y-57166D02*
X72736Y-56850D01*
X76044Y-57716D02*
X76870Y-57716D01*
X69555Y-66917D02*
X68137Y-66917D01*
X69645Y-67007D02*
X69555Y-66917D01*
X76791Y-61496D02*
X69803Y-61496D01*
X76870Y-61574D02*
X76791Y-61496D01*
X76870Y-57716D02*
X76870Y-57716D01*
X78406Y-57716D02*
X78602Y-57716D01*
X69964Y-67417D02*
X68137Y-67417D01*
X69980Y-67401D02*
X69964Y-67417D01*
X77854Y-64881D02*
X69980Y-64881D01*
X77893Y-64842D02*
X77854Y-64881D01*
X78602Y-57716D02*
X78622Y-57696D01*
X68137Y-67917D02*
X70192Y-67917D01*
X82422Y-57815D02*
X82422Y-57893D01*
X82283Y-57677D02*
X82422Y-57815D01*
X70374Y-63838D02*
X82244Y-63838D01*
X70275Y-63937D02*
X70374Y-63838D01*
X70192Y-67917D02*
X70196Y-67913D01*
X84233Y-57933D02*
X85433Y-57933D01*
X70500Y-68417D02*
X68137Y-68417D01*
X70511Y-68405D02*
X70500Y-68417D01*
X85137Y-63543D02*
X70590Y-63543D01*
X85433Y-63838D02*
X85137Y-63543D01*
X85433Y-57933D02*
X85492Y-57874D01*
X68137Y-70417D02*
X67425Y-70417D01*
X66200Y-53740D02*
X66751Y-53740D01*
X66141Y-53799D02*
X66200Y-53740D01*
X67224Y-65826D02*
X66259Y-65826D01*
X67425Y-70417D02*
X67421Y-70413D01*
X68137Y-69917D02*
X67562Y-69917D01*
X66771Y-50945D02*
X66771Y-51200D01*
X67578Y-50137D02*
X66771Y-50945D01*
X67562Y-69917D02*
X67559Y-69921D01*
X71952Y-68905D02*
X74755Y-68905D01*
X74755Y-68905D02*
X74763Y-68897D01*
X71952Y-68405D02*
X73681Y-68405D01*
X74468Y-67618D02*
X74724Y-67618D01*
X73681Y-68405D02*
X74468Y-67618D01*
X71952Y-67905D02*
X72570Y-67905D01*
X65511Y-56200D02*
X66751Y-56200D01*
X65472Y-56240D02*
X65511Y-56200D01*
X72637Y-59330D02*
X65492Y-59330D01*
X73011Y-59704D02*
X72637Y-59330D01*
X72570Y-67905D02*
X72578Y-67913D01*
X71952Y-67405D02*
X73350Y-67405D01*
X65177Y-52500D02*
X66751Y-52500D01*
X65137Y-52460D02*
X65177Y-52500D01*
X65728Y-58996D02*
X65157Y-58996D01*
X65866Y-59133D02*
X65728Y-58996D01*
X73070Y-59133D02*
X65866Y-59133D01*
X73385Y-59448D02*
X73070Y-59133D01*
X73350Y-67405D02*
X73366Y-67421D01*
X71952Y-66905D02*
X73645Y-66905D01*
X74133Y-66417D02*
X74704Y-66417D01*
X73645Y-66905D02*
X74133Y-66417D01*
X68137Y-70917D02*
X67192Y-70917D01*
X65905Y-54960D02*
X66751Y-54960D01*
X65826Y-55039D02*
X65905Y-54960D01*
X66811Y-66141D02*
X65944Y-66141D01*
X66909Y-66240D02*
X66811Y-66141D01*
X67192Y-70917D02*
X67185Y-70925D01*
X68137Y-68917D02*
X70393Y-68917D01*
X89322Y-71818D02*
X90929Y-71818D01*
X89271Y-71870D02*
X89322Y-71818D01*
X70511Y-73523D02*
X89114Y-73523D01*
X70393Y-73405D02*
X70511Y-73523D01*
X70393Y-68917D02*
X70433Y-68956D01*
X90929Y-66318D02*
X92362Y-66318D01*
X92204Y-74921D02*
X89173Y-74921D01*
X92303Y-74822D02*
X92204Y-74921D01*
X92362Y-66318D02*
X92381Y-66338D01*
X90929Y-66818D02*
X91956Y-66818D01*
X91870Y-74566D02*
X90118Y-74566D01*
X91988Y-74448D02*
X91870Y-74566D01*
X91956Y-66818D02*
X92007Y-66870D01*
X79980Y-69154D02*
X79980Y-67953D01*
X79980Y-67953D02*
X79940Y-67913D01*
X78649Y-69154D02*
X79980Y-69154D01*
X79980Y-69154D02*
X79980Y-69154D01*
X90929Y-70318D02*
X90161Y-70318D01*
X78649Y-69535D02*
X78649Y-69154D01*
X79035Y-69921D02*
X78649Y-69535D01*
X90118Y-64822D02*
X79035Y-64822D01*
X90161Y-70318D02*
X90118Y-70275D01*
X68523Y-57342D02*
X68090Y-57342D01*
X69547Y-56318D02*
X68523Y-57342D01*
X70216Y-56318D02*
X69547Y-56318D01*
X70236Y-56338D02*
X70216Y-56318D01*
X67913Y-41200D02*
X70216Y-41200D01*
X67893Y-41220D02*
X67913Y-41200D01*
X90929Y-69818D02*
X89846Y-69818D01*
X67911Y-60317D02*
X65816Y-60317D01*
X67913Y-60314D02*
X67911Y-60317D01*
X89724Y-64507D02*
X67972Y-64507D01*
X89783Y-64448D02*
X89724Y-64507D01*
X89846Y-69818D02*
X89803Y-69862D01*
X65816Y-60317D02*
X65818Y-60314D01*
X65818Y-60314D02*
X66594Y-60314D01*
X86122Y-76043D02*
X86122Y-77027D01*
X86122Y-77027D02*
X86515Y-77421D01*
X87114Y-66330D02*
X88003Y-66330D01*
X88003Y-66330D02*
X88011Y-66338D01*
X71952Y-71905D02*
X72948Y-71905D01*
X91362Y-72818D02*
X90929Y-72818D01*
X91397Y-72854D02*
X91362Y-72818D01*
X73051Y-74153D02*
X76870Y-74153D01*
X76870Y-74153D02*
X91161Y-74153D01*
X73031Y-74173D02*
X73051Y-74153D01*
X72948Y-71905D02*
X73031Y-71988D01*
X81082Y-49862D02*
X81082Y-49251D01*
X91610Y-72318D02*
X90929Y-72318D01*
X91673Y-72381D02*
X91610Y-72318D01*
X87539Y-63720D02*
X91299Y-63720D01*
X87401Y-63858D02*
X87539Y-63720D01*
X82263Y-48070D02*
X87204Y-48070D01*
X81082Y-49251D02*
X82263Y-48070D01*
X71952Y-72405D02*
X72641Y-72405D01*
X89610Y-72318D02*
X90929Y-72318D01*
X89586Y-72342D02*
X89610Y-72318D01*
X72696Y-73838D02*
X84862Y-73838D01*
X84862Y-73838D02*
X89507Y-73838D01*
X72641Y-72405D02*
X72657Y-72421D01*
X88188Y-49212D02*
X85551Y-49212D01*
X85551Y-49212D02*
X85531Y-49192D01*
X68640Y-49173D02*
X68640Y-48581D01*
X71692Y-49192D02*
X71909Y-49192D01*
X70785Y-48285D02*
X71692Y-49192D01*
X68937Y-48285D02*
X70785Y-48285D01*
X68640Y-48581D02*
X68937Y-48285D01*
X78649Y-68404D02*
X78649Y-67374D01*
X79409Y-66613D02*
X79940Y-66613D01*
X78649Y-67374D02*
X79409Y-66613D01*
X92598Y-49369D02*
X92598Y-47833D01*
X92598Y-47833D02*
X92559Y-47794D01*
X90929Y-67318D02*
X92838Y-67318D01*
X92736Y-51751D02*
X92598Y-51614D01*
X92838Y-67318D02*
X92874Y-67283D01*
X92598Y-50669D02*
X92598Y-51614D01*
X92598Y-51614D02*
X92598Y-51772D01*
X92598Y-51772D02*
X92107Y-52263D01*
X88208Y-45255D02*
X88208Y-44173D01*
X66555Y-44212D02*
X66555Y-45405D01*
X67244Y-43523D02*
X66555Y-44212D01*
X87559Y-43523D02*
X67244Y-43523D01*
X88208Y-44173D02*
X87559Y-43523D01*
X88248Y-47263D02*
X87362Y-47263D01*
X67511Y-46405D02*
X66555Y-46405D01*
X67874Y-46043D02*
X67511Y-46405D01*
X67874Y-44330D02*
X67874Y-46043D01*
X68385Y-43818D02*
X67874Y-44330D01*
X86397Y-43818D02*
X68385Y-43818D01*
X86791Y-44212D02*
X86397Y-43818D01*
X86791Y-46692D02*
X86791Y-44212D01*
X87362Y-47263D02*
X86791Y-46692D01*
X91357Y-52263D02*
X90905Y-52263D01*
X90885Y-47480D02*
X90885Y-47263D01*
X90964Y-47559D02*
X90885Y-47480D01*
X90905Y-52263D02*
X90905Y-52263D01*
X82330Y-68443D02*
X82330Y-67314D01*
X82756Y-66889D02*
X83307Y-66889D01*
X82330Y-67314D02*
X82756Y-66889D01*
X68051Y-52500D02*
X74251Y-52500D01*
X76799Y-52846D02*
X76799Y-52232D01*
X76496Y-53149D02*
X76799Y-52846D01*
X74901Y-53149D02*
X76496Y-53149D01*
X74251Y-52500D02*
X74901Y-53149D01*
X73779Y-54960D02*
X81771Y-54960D01*
X73759Y-54980D02*
X73779Y-54960D01*
X75787Y-59311D02*
X73838Y-59311D01*
X75807Y-59291D02*
X75787Y-59311D01*
X68051Y-56200D02*
X68759Y-56200D01*
X80799Y-53059D02*
X80799Y-52232D01*
X80492Y-53366D02*
X80799Y-53059D01*
X77076Y-53366D02*
X80492Y-53366D01*
X76722Y-53720D02*
X77076Y-53366D01*
X74606Y-53720D02*
X76722Y-53720D01*
X73937Y-53051D02*
X74606Y-53720D01*
X71909Y-53051D02*
X73937Y-53051D01*
X68759Y-56200D02*
X71909Y-53051D01*
X76024Y-67618D02*
X76496Y-67618D01*
X80610Y-59311D02*
X80728Y-59192D01*
X76732Y-59311D02*
X80610Y-59311D01*
X76437Y-59015D02*
X76732Y-59311D01*
X76496Y-67618D02*
X76515Y-67637D01*
X76063Y-68897D02*
X76633Y-68897D01*
X74192Y-55295D02*
X77834Y-55295D01*
X74153Y-55255D02*
X74192Y-55295D01*
X76889Y-64133D02*
X74035Y-64133D01*
X76909Y-64153D02*
X76889Y-64133D01*
X76633Y-68897D02*
X76653Y-68917D01*
X68051Y-54960D02*
X68759Y-54960D01*
X78799Y-52834D02*
X78799Y-52232D01*
X78484Y-53149D02*
X78799Y-52834D01*
X77027Y-53149D02*
X78484Y-53149D01*
X76633Y-53543D02*
X77027Y-53149D01*
X74704Y-53543D02*
X76633Y-53543D01*
X74035Y-52874D02*
X74704Y-53543D01*
X70846Y-52874D02*
X74035Y-52874D01*
X68759Y-54960D02*
X70846Y-52874D01*
X68051Y-53740D02*
X68877Y-53740D01*
X77799Y-52771D02*
X77799Y-52232D01*
X77598Y-52972D02*
X77799Y-52771D01*
X76909Y-52972D02*
X77598Y-52972D01*
X76535Y-53346D02*
X76909Y-52972D01*
X74803Y-53346D02*
X76535Y-53346D01*
X74133Y-52677D02*
X74803Y-53346D01*
X69940Y-52677D02*
X74133Y-52677D01*
X68877Y-53740D02*
X69940Y-52677D01*
X68071Y-51200D02*
X68720Y-51200D01*
X69751Y-52232D02*
X75799Y-52232D01*
X68720Y-51200D02*
X69751Y-52232D01*
X71952Y-71405D02*
X73610Y-71405D01*
X74429Y-72224D02*
X75196Y-72224D01*
X73610Y-71405D02*
X74429Y-72224D01*
X68137Y-71417D02*
X66968Y-71417D01*
X65984Y-70433D02*
X65472Y-70433D01*
X66968Y-71417D02*
X65984Y-70433D01*
X68137Y-71917D02*
X65500Y-71917D01*
X65500Y-71917D02*
X65472Y-71889D01*
X71952Y-70905D02*
X75177Y-70905D01*
X75177Y-70905D02*
X75196Y-70925D01*
X77656Y-57716D02*
X77656Y-57264D01*
X78799Y-56791D02*
X78799Y-56232D01*
X78582Y-57007D02*
X78799Y-56791D01*
X77913Y-57007D02*
X78582Y-57007D01*
X77656Y-57264D02*
X77913Y-57007D01*
X81672Y-57893D02*
X81417Y-57893D01*
X81417Y-57893D02*
X81397Y-57874D01*
X83483Y-57933D02*
X83483Y-57638D01*
X83483Y-57638D02*
X83484Y-57637D01*
X75294Y-57716D02*
X75294Y-57400D01*
X76799Y-56881D02*
X76799Y-56232D01*
X76614Y-57066D02*
X76799Y-56881D01*
X75627Y-57066D02*
X76614Y-57066D01*
X75294Y-57400D02*
X75627Y-57066D01*
X75799Y-56232D02*
X72433Y-56232D01*
X72362Y-56161D02*
X72433Y-56232D01*
X87114Y-70830D02*
X85507Y-70830D01*
X81330Y-69200D02*
X81330Y-69193D01*
X81200Y-69330D02*
X81330Y-69200D01*
X81397Y-73070D02*
X81318Y-72992D01*
X85393Y-73070D02*
X81397Y-73070D01*
X85472Y-72992D02*
X85393Y-73070D01*
X85507Y-70830D02*
X85452Y-70885D01*
X71525Y-60317D02*
X72088Y-60317D01*
X72088Y-60317D02*
X72125Y-60354D01*
X90929Y-69318D02*
X89500Y-69318D01*
X71525Y-60855D02*
X71525Y-60317D01*
X71574Y-60905D02*
X71525Y-60855D01*
X89409Y-65196D02*
X71496Y-65196D01*
X89468Y-65137D02*
X89409Y-65196D01*
X89500Y-69318D02*
X89488Y-69330D01*
X77233Y-60317D02*
X78250Y-60317D01*
X78250Y-60317D02*
X78307Y-60374D01*
X92480Y-68818D02*
X93050Y-68818D01*
X77233Y-59774D02*
X77233Y-60317D01*
X77519Y-59488D02*
X77233Y-59774D01*
X93011Y-59488D02*
X77519Y-59488D01*
X93169Y-59488D02*
X93011Y-59488D01*
X93050Y-68818D02*
X93070Y-68838D01*
X90929Y-68818D02*
X92479Y-68818D01*
X92479Y-68818D02*
X92480Y-68818D01*
X82942Y-60317D02*
X83722Y-60317D01*
X83722Y-60317D02*
X83740Y-60334D01*
X90929Y-68318D02*
X89181Y-68318D01*
X82942Y-60364D02*
X82942Y-60317D01*
X82598Y-60708D02*
X82942Y-60364D01*
X89094Y-64153D02*
X82598Y-64153D01*
X89181Y-68318D02*
X89153Y-68346D01*
X88651Y-60317D02*
X89431Y-60317D01*
X90929Y-67818D02*
X91598Y-67818D01*
X91513Y-60317D02*
X88651Y-60317D01*
X91594Y-60236D02*
X91513Y-60317D01*
X91598Y-67818D02*
X91633Y-67854D01*
X87114Y-71330D02*
X85795Y-71330D01*
X85767Y-51279D02*
X82283Y-51279D01*
X85787Y-51299D02*
X85767Y-51279D01*
X85795Y-71330D02*
X85787Y-71338D01*
X82854Y-49862D02*
X82854Y-50177D01*
X86122Y-71830D02*
X87114Y-71830D01*
X86102Y-71850D02*
X86122Y-71830D01*
X83011Y-50334D02*
X86122Y-50334D01*
X82854Y-50177D02*
X83011Y-50334D01*
X87114Y-72330D02*
X86409Y-72330D01*
X86417Y-50649D02*
X83444Y-50649D01*
X86409Y-72330D02*
X86397Y-72342D01*
X90929Y-71318D02*
X92618Y-71318D01*
X69390Y-49113D02*
X69390Y-49173D01*
X69704Y-48799D02*
X69390Y-49113D01*
X87696Y-43011D02*
X69665Y-43011D01*
X87775Y-43090D02*
X87696Y-43011D01*
X91889Y-59153D02*
X87874Y-59153D01*
X91929Y-59192D02*
X91889Y-59153D01*
X92618Y-71318D02*
X92637Y-71338D01*
X87114Y-72830D02*
X88480Y-72830D01*
X88228Y-50964D02*
X81673Y-50964D01*
X88307Y-51043D02*
X88228Y-50964D01*
X88480Y-72830D02*
X88484Y-72834D01*
X77874Y-73149D02*
X77874Y-73307D01*
X68137Y-72417D02*
X70692Y-72417D01*
X86637Y-73307D02*
X87114Y-72830D01*
X70925Y-73307D02*
X77874Y-73307D01*
X77874Y-73307D02*
X86637Y-73307D01*
X70826Y-73208D02*
X70925Y-73307D01*
X70692Y-72417D02*
X70708Y-72401D01*
G54D26*
X77558Y-69154D02*
X77649Y-69154D01*
X77322Y-69389D02*
X77558Y-69154D01*
X80807Y-65531D02*
X77381Y-65531D01*
X77341Y-68404D02*
X77649Y-68404D01*
X77303Y-68366D02*
X77341Y-68404D01*
X77381Y-65531D02*
X77362Y-65511D01*
X89224Y-41153D02*
X89224Y-40334D01*
X89645Y-41574D02*
X89224Y-41153D01*
X92283Y-41574D02*
X89645Y-41574D01*
X92342Y-41515D02*
X92283Y-41574D01*
X80807Y-65531D02*
X92539Y-65531D01*
X80808Y-68443D02*
X81330Y-68443D01*
X80767Y-68484D02*
X80808Y-68443D01*
X83838Y-75177D02*
X80452Y-75177D01*
X83897Y-75118D02*
X83838Y-75177D01*
G54D10*
G36*
X86793Y-75629D02*
X86677Y-75745D01*
X86647Y-75818D01*
X86647Y-75718D01*
X86609Y-75626D01*
X86538Y-75556D01*
X86446Y-75518D01*
X86347Y-75518D01*
X85797Y-75518D01*
X85705Y-75556D01*
X85635Y-75626D01*
X85597Y-75718D01*
X85597Y-75817D01*
X85597Y-76367D01*
X85634Y-76459D01*
X85705Y-76530D01*
X85797Y-76568D01*
X85822Y-76568D01*
X85822Y-77027D01*
X85844Y-77142D01*
X85909Y-77240D01*
X85965Y-77295D01*
X85965Y-77870D01*
X86003Y-77962D01*
X86073Y-78033D01*
X86131Y-78057D01*
X85395Y-78057D01*
X85395Y-77258D01*
X85315Y-77065D01*
X85167Y-76917D01*
X84974Y-76837D01*
X84766Y-76837D01*
X84573Y-76916D01*
X84425Y-77064D01*
X84370Y-77197D01*
X84315Y-77065D01*
X84167Y-76917D01*
X83974Y-76837D01*
X83766Y-76837D01*
X83573Y-76916D01*
X83425Y-77064D01*
X83372Y-77190D01*
X83330Y-77089D01*
X83237Y-77065D01*
X83167Y-77135D01*
X83167Y-76994D01*
X83142Y-76901D01*
X82945Y-76832D01*
X82737Y-76843D01*
X82597Y-76901D01*
X82572Y-76994D01*
X82870Y-77291D01*
X83167Y-76994D01*
X83167Y-77135D01*
X82940Y-77362D01*
X83237Y-77659D01*
X83330Y-77635D01*
X83369Y-77525D01*
X83424Y-77659D01*
X83572Y-77807D01*
X83765Y-77887D01*
X83974Y-77887D01*
X84167Y-77807D01*
X84314Y-77659D01*
X84370Y-77526D01*
X84424Y-77659D01*
X84572Y-77807D01*
X84765Y-77887D01*
X84974Y-77887D01*
X85167Y-77807D01*
X85314Y-77659D01*
X85394Y-77467D01*
X85395Y-77258D01*
X85395Y-78057D01*
X83167Y-78057D01*
X83167Y-77729D01*
X82870Y-77432D01*
X82799Y-77503D01*
X82799Y-77362D01*
X82502Y-77065D01*
X82409Y-77089D01*
X82370Y-77199D01*
X82315Y-77065D01*
X82167Y-76917D01*
X81974Y-76837D01*
X81766Y-76837D01*
X81573Y-76916D01*
X81425Y-77064D01*
X81370Y-77197D01*
X81315Y-77065D01*
X81167Y-76917D01*
X80974Y-76837D01*
X80766Y-76837D01*
X80573Y-76916D01*
X80425Y-77064D01*
X80370Y-77197D01*
X80315Y-77065D01*
X80167Y-76917D01*
X79974Y-76837D01*
X79766Y-76837D01*
X79573Y-76916D01*
X79425Y-77064D01*
X79370Y-77197D01*
X79315Y-77065D01*
X79167Y-76917D01*
X78974Y-76837D01*
X78766Y-76837D01*
X78573Y-76916D01*
X78425Y-77064D01*
X78370Y-77197D01*
X78315Y-77065D01*
X78167Y-76917D01*
X77974Y-76837D01*
X77766Y-76837D01*
X77573Y-76916D01*
X77425Y-77064D01*
X77370Y-77197D01*
X77315Y-77065D01*
X77167Y-76917D01*
X76974Y-76837D01*
X76766Y-76837D01*
X76573Y-76916D01*
X76425Y-77064D01*
X76370Y-77197D01*
X76315Y-77065D01*
X76167Y-76917D01*
X75974Y-76837D01*
X75766Y-76837D01*
X75573Y-76916D01*
X75425Y-77064D01*
X75370Y-77197D01*
X75315Y-77065D01*
X75167Y-76917D01*
X74974Y-76837D01*
X74766Y-76837D01*
X74573Y-76916D01*
X74425Y-77064D01*
X74395Y-77137D01*
X74395Y-77037D01*
X74357Y-76945D01*
X74286Y-76875D01*
X74195Y-76837D01*
X74095Y-76837D01*
X73545Y-76837D01*
X73453Y-76875D01*
X73383Y-76945D01*
X73345Y-77037D01*
X73345Y-77136D01*
X73345Y-77686D01*
X73383Y-77778D01*
X73453Y-77849D01*
X73545Y-77887D01*
X73644Y-77887D01*
X74194Y-77887D01*
X74286Y-77849D01*
X74356Y-77779D01*
X74395Y-77687D01*
X74395Y-77587D01*
X74395Y-77587D01*
X74424Y-77659D01*
X74572Y-77807D01*
X74765Y-77887D01*
X74974Y-77887D01*
X75167Y-77807D01*
X75314Y-77659D01*
X75370Y-77526D01*
X75424Y-77659D01*
X75572Y-77807D01*
X75765Y-77887D01*
X75974Y-77887D01*
X76167Y-77807D01*
X76314Y-77659D01*
X76370Y-77526D01*
X76424Y-77659D01*
X76572Y-77807D01*
X76765Y-77887D01*
X76974Y-77887D01*
X77167Y-77807D01*
X77314Y-77659D01*
X77370Y-77526D01*
X77424Y-77659D01*
X77572Y-77807D01*
X77765Y-77887D01*
X77974Y-77887D01*
X78167Y-77807D01*
X78314Y-77659D01*
X78370Y-77526D01*
X78424Y-77659D01*
X78572Y-77807D01*
X78765Y-77887D01*
X78974Y-77887D01*
X79167Y-77807D01*
X79314Y-77659D01*
X79370Y-77526D01*
X79424Y-77659D01*
X79572Y-77807D01*
X79765Y-77887D01*
X79974Y-77887D01*
X80167Y-77807D01*
X80314Y-77659D01*
X80370Y-77526D01*
X80424Y-77659D01*
X80572Y-77807D01*
X80765Y-77887D01*
X80974Y-77887D01*
X81167Y-77807D01*
X81314Y-77659D01*
X81370Y-77526D01*
X81424Y-77659D01*
X81572Y-77807D01*
X81765Y-77887D01*
X81974Y-77887D01*
X82167Y-77807D01*
X82314Y-77659D01*
X82367Y-77533D01*
X82409Y-77635D01*
X82502Y-77659D01*
X82799Y-77362D01*
X82799Y-77503D01*
X82572Y-77729D01*
X82597Y-77822D01*
X82794Y-77892D01*
X83002Y-77880D01*
X83142Y-77822D01*
X83167Y-77729D01*
X83167Y-78057D01*
X72926Y-78057D01*
X72926Y-75486D01*
X72846Y-75293D01*
X72699Y-75145D01*
X72506Y-75065D01*
X72297Y-75065D01*
X72104Y-75145D01*
X71956Y-75292D01*
X71901Y-75425D01*
X71846Y-75293D01*
X71699Y-75145D01*
X71506Y-75065D01*
X71297Y-75065D01*
X71104Y-75145D01*
X70956Y-75292D01*
X70901Y-75425D01*
X70846Y-75293D01*
X70699Y-75145D01*
X70506Y-75065D01*
X70297Y-75065D01*
X70104Y-75145D01*
X69956Y-75292D01*
X69904Y-75419D01*
X69862Y-75317D01*
X69769Y-75293D01*
X69698Y-75364D01*
X69698Y-75222D01*
X69674Y-75130D01*
X69477Y-75060D01*
X69268Y-75071D01*
X69128Y-75130D01*
X69104Y-75222D01*
X69401Y-75519D01*
X69698Y-75222D01*
X69698Y-75364D01*
X69472Y-75590D01*
X69769Y-75887D01*
X69862Y-75863D01*
X69900Y-75753D01*
X69956Y-75887D01*
X70103Y-76035D01*
X70296Y-76115D01*
X70505Y-76115D01*
X70698Y-76035D01*
X70846Y-75888D01*
X70901Y-75755D01*
X70956Y-75887D01*
X71103Y-76035D01*
X71296Y-76115D01*
X71505Y-76115D01*
X71698Y-76035D01*
X71846Y-75888D01*
X71901Y-75755D01*
X71956Y-75887D01*
X72103Y-76035D01*
X72296Y-76115D01*
X72505Y-76115D01*
X72698Y-76035D01*
X72846Y-75888D01*
X72926Y-75695D01*
X72926Y-75486D01*
X72926Y-78057D01*
X69698Y-78057D01*
X69698Y-75958D01*
X69401Y-75661D01*
X69330Y-75731D01*
X69330Y-75590D01*
X69033Y-75293D01*
X68941Y-75317D01*
X68902Y-75427D01*
X68846Y-75293D01*
X68699Y-75145D01*
X68506Y-75065D01*
X68297Y-75065D01*
X68104Y-75145D01*
X67956Y-75292D01*
X67926Y-75365D01*
X67926Y-75266D01*
X67888Y-75174D01*
X67818Y-75103D01*
X67726Y-75065D01*
X67627Y-75065D01*
X67077Y-75065D01*
X66985Y-75103D01*
X66914Y-75173D01*
X66876Y-75265D01*
X66876Y-75365D01*
X66876Y-75915D01*
X66914Y-76006D01*
X66984Y-76077D01*
X67076Y-76115D01*
X67176Y-76115D01*
X67726Y-76115D01*
X67818Y-76077D01*
X67888Y-76007D01*
X67926Y-75915D01*
X67926Y-75816D01*
X67926Y-75815D01*
X67956Y-75887D01*
X68103Y-76035D01*
X68296Y-76115D01*
X68505Y-76115D01*
X68698Y-76035D01*
X68846Y-75888D01*
X68898Y-75761D01*
X68941Y-75863D01*
X69033Y-75887D01*
X69330Y-75590D01*
X69330Y-75731D01*
X69104Y-75958D01*
X69128Y-76051D01*
X69325Y-76120D01*
X69534Y-76109D01*
X69674Y-76051D01*
X69698Y-75958D01*
X69698Y-78057D01*
X69057Y-78057D01*
X69093Y-77969D01*
X69093Y-77870D01*
X69093Y-77070D01*
X69055Y-76978D01*
X68985Y-76907D01*
X68893Y-76869D01*
X68794Y-76869D01*
X68744Y-76869D01*
X68726Y-76826D01*
X68607Y-76706D01*
X68451Y-76642D01*
X68281Y-76641D01*
X68125Y-76706D01*
X68006Y-76825D01*
X67941Y-76982D01*
X67941Y-77151D01*
X67993Y-77278D01*
X67993Y-77969D01*
X68029Y-78057D01*
X67757Y-78057D01*
X67793Y-77969D01*
X67793Y-77870D01*
X67793Y-77070D01*
X67755Y-76978D01*
X67719Y-76941D01*
X67663Y-76806D01*
X67544Y-76687D01*
X67388Y-76622D01*
X67218Y-76622D01*
X67062Y-76686D01*
X66943Y-76806D01*
X66916Y-76869D01*
X66894Y-76869D01*
X66802Y-76907D01*
X66731Y-76977D01*
X66693Y-77069D01*
X66693Y-77169D01*
X66693Y-77969D01*
X66729Y-78057D01*
X66063Y-78057D01*
X66063Y-77643D01*
X65938Y-77643D01*
X65938Y-77568D01*
X65938Y-77117D01*
X65938Y-77017D01*
X65900Y-76925D01*
X65829Y-76855D01*
X65737Y-76817D01*
X65525Y-76817D01*
X65463Y-76880D01*
X65463Y-77292D01*
X65875Y-77292D01*
X65938Y-77230D01*
X65938Y-77117D01*
X65938Y-77568D01*
X65938Y-77455D01*
X65875Y-77392D01*
X65463Y-77392D01*
X65463Y-77400D01*
X65363Y-77400D01*
X65363Y-77392D01*
X65355Y-77392D01*
X65355Y-77292D01*
X65363Y-77292D01*
X65363Y-76880D01*
X65300Y-76817D01*
X65092Y-76817D01*
X65092Y-72391D01*
X65147Y-72414D01*
X65246Y-72414D01*
X65796Y-72414D01*
X65888Y-72376D01*
X65959Y-72306D01*
X65996Y-72217D01*
X67563Y-72217D01*
X67533Y-72288D01*
X67533Y-72388D01*
X67533Y-72545D01*
X67571Y-72637D01*
X67641Y-72707D01*
X67733Y-72746D01*
X67832Y-72746D01*
X68541Y-72746D01*
X68611Y-72717D01*
X70423Y-72717D01*
X70467Y-72761D01*
X70623Y-72826D01*
X70638Y-72826D01*
X70586Y-72848D01*
X70466Y-72967D01*
X70461Y-72980D01*
X70309Y-72980D01*
X70153Y-73045D01*
X70033Y-73164D01*
X70012Y-73215D01*
X69966Y-73197D01*
X69797Y-73196D01*
X69641Y-73261D01*
X69609Y-73293D01*
X69263Y-73293D01*
X69263Y-73183D01*
X69199Y-73027D01*
X69079Y-72907D01*
X68923Y-72842D01*
X68754Y-72842D01*
X68598Y-72907D01*
X68557Y-72948D01*
X67702Y-72948D01*
X67642Y-72887D01*
X67486Y-72823D01*
X67317Y-72822D01*
X67161Y-72887D01*
X67041Y-73006D01*
X66976Y-73163D01*
X66976Y-73332D01*
X67041Y-73488D01*
X67160Y-73608D01*
X67316Y-73672D01*
X67485Y-73673D01*
X67642Y-73608D01*
X67702Y-73548D01*
X68000Y-73548D01*
X67980Y-73596D01*
X67980Y-73765D01*
X68045Y-73921D01*
X68164Y-74041D01*
X68320Y-74106D01*
X68489Y-74106D01*
X68645Y-74041D01*
X68736Y-73950D01*
X69609Y-73950D01*
X69640Y-73982D01*
X69796Y-74046D01*
X69966Y-74047D01*
X69975Y-74043D01*
X70062Y-74130D01*
X70062Y-74130D01*
X70116Y-74165D01*
X70169Y-74201D01*
X70169Y-74201D01*
X70295Y-74226D01*
X72107Y-74226D01*
X73980Y-76098D01*
X73980Y-76098D01*
X74086Y-76169D01*
X74212Y-76194D01*
X74212Y-76194D01*
X81597Y-76194D01*
X81629Y-76226D01*
X81785Y-76291D01*
X81954Y-76291D01*
X82110Y-76226D01*
X82142Y-76194D01*
X83779Y-76194D01*
X83905Y-76169D01*
X83905Y-76169D01*
X84011Y-76098D01*
X84663Y-75446D01*
X86714Y-75446D01*
X86793Y-75525D01*
X86793Y-75629D01*
X86793Y-75629D01*
G37*
G54D27*
X86793Y-75629D02*
X86677Y-75745D01*
X86647Y-75818D01*
X86647Y-75718D01*
X86609Y-75626D01*
X86538Y-75556D01*
X86446Y-75518D01*
X86347Y-75518D01*
X85797Y-75518D01*
X85705Y-75556D01*
X85635Y-75626D01*
X85597Y-75718D01*
X85597Y-75817D01*
X85597Y-76367D01*
X85634Y-76459D01*
X85705Y-76530D01*
X85797Y-76568D01*
X85822Y-76568D01*
X85822Y-77027D01*
X85844Y-77142D01*
X85909Y-77240D01*
X85965Y-77295D01*
X85965Y-77870D01*
X86003Y-77962D01*
X86073Y-78033D01*
X86131Y-78057D01*
X85395Y-78057D01*
X85395Y-77258D01*
X85315Y-77065D01*
X85167Y-76917D01*
X84974Y-76837D01*
X84766Y-76837D01*
X84573Y-76916D01*
X84425Y-77064D01*
X84370Y-77197D01*
X84315Y-77065D01*
X84167Y-76917D01*
X83974Y-76837D01*
X83766Y-76837D01*
X83573Y-76916D01*
X83425Y-77064D01*
X83372Y-77190D01*
X83330Y-77089D01*
X83237Y-77065D01*
X83167Y-77135D01*
X83167Y-76994D01*
X83142Y-76901D01*
X82945Y-76832D01*
X82737Y-76843D01*
X82597Y-76901D01*
X82572Y-76994D01*
X82870Y-77291D01*
X83167Y-76994D01*
X83167Y-77135D01*
X82940Y-77362D01*
X83237Y-77659D01*
X83330Y-77635D01*
X83369Y-77525D01*
X83424Y-77659D01*
X83572Y-77807D01*
X83765Y-77887D01*
X83974Y-77887D01*
X84167Y-77807D01*
X84314Y-77659D01*
X84370Y-77526D01*
X84424Y-77659D01*
X84572Y-77807D01*
X84765Y-77887D01*
X84974Y-77887D01*
X85167Y-77807D01*
X85314Y-77659D01*
X85394Y-77467D01*
X85395Y-77258D01*
X85395Y-78057D01*
X83167Y-78057D01*
X83167Y-77729D01*
X82870Y-77432D01*
X82799Y-77503D01*
X82799Y-77362D01*
X82502Y-77065D01*
X82409Y-77089D01*
X82370Y-77199D01*
X82315Y-77065D01*
X82167Y-76917D01*
X81974Y-76837D01*
X81766Y-76837D01*
X81573Y-76916D01*
X81425Y-77064D01*
X81370Y-77197D01*
X81315Y-77065D01*
X81167Y-76917D01*
X80974Y-76837D01*
X80766Y-76837D01*
X80573Y-76916D01*
X80425Y-77064D01*
X80370Y-77197D01*
X80315Y-77065D01*
X80167Y-76917D01*
X79974Y-76837D01*
X79766Y-76837D01*
X79573Y-76916D01*
X79425Y-77064D01*
X79370Y-77197D01*
X79315Y-77065D01*
X79167Y-76917D01*
X78974Y-76837D01*
X78766Y-76837D01*
X78573Y-76916D01*
X78425Y-77064D01*
X78370Y-77197D01*
X78315Y-77065D01*
X78167Y-76917D01*
X77974Y-76837D01*
X77766Y-76837D01*
X77573Y-76916D01*
X77425Y-77064D01*
X77370Y-77197D01*
X77315Y-77065D01*
X77167Y-76917D01*
X76974Y-76837D01*
X76766Y-76837D01*
X76573Y-76916D01*
X76425Y-77064D01*
X76370Y-77197D01*
X76315Y-77065D01*
X76167Y-76917D01*
X75974Y-76837D01*
X75766Y-76837D01*
X75573Y-76916D01*
X75425Y-77064D01*
X75370Y-77197D01*
X75315Y-77065D01*
X75167Y-76917D01*
X74974Y-76837D01*
X74766Y-76837D01*
X74573Y-76916D01*
X74425Y-77064D01*
X74395Y-77137D01*
X74395Y-77037D01*
X74357Y-76945D01*
X74286Y-76875D01*
X74195Y-76837D01*
X74095Y-76837D01*
X73545Y-76837D01*
X73453Y-76875D01*
X73383Y-76945D01*
X73345Y-77037D01*
X73345Y-77136D01*
X73345Y-77686D01*
X73383Y-77778D01*
X73453Y-77849D01*
X73545Y-77887D01*
X73644Y-77887D01*
X74194Y-77887D01*
X74286Y-77849D01*
X74356Y-77779D01*
X74395Y-77687D01*
X74395Y-77587D01*
X74395Y-77587D01*
X74424Y-77659D01*
X74572Y-77807D01*
X74765Y-77887D01*
X74974Y-77887D01*
X75167Y-77807D01*
X75314Y-77659D01*
X75370Y-77526D01*
X75424Y-77659D01*
X75572Y-77807D01*
X75765Y-77887D01*
X75974Y-77887D01*
X76167Y-77807D01*
X76314Y-77659D01*
X76370Y-77526D01*
X76424Y-77659D01*
X76572Y-77807D01*
X76765Y-77887D01*
X76974Y-77887D01*
X77167Y-77807D01*
X77314Y-77659D01*
X77370Y-77526D01*
X77424Y-77659D01*
X77572Y-77807D01*
X77765Y-77887D01*
X77974Y-77887D01*
X78167Y-77807D01*
X78314Y-77659D01*
X78370Y-77526D01*
X78424Y-77659D01*
X78572Y-77807D01*
X78765Y-77887D01*
X78974Y-77887D01*
X79167Y-77807D01*
X79314Y-77659D01*
X79370Y-77526D01*
X79424Y-77659D01*
X79572Y-77807D01*
X79765Y-77887D01*
X79974Y-77887D01*
X80167Y-77807D01*
X80314Y-77659D01*
X80370Y-77526D01*
X80424Y-77659D01*
X80572Y-77807D01*
X80765Y-77887D01*
X80974Y-77887D01*
X81167Y-77807D01*
X81314Y-77659D01*
X81370Y-77526D01*
X81424Y-77659D01*
X81572Y-77807D01*
X81765Y-77887D01*
X81974Y-77887D01*
X82167Y-77807D01*
X82314Y-77659D01*
X82367Y-77533D01*
X82409Y-77635D01*
X82502Y-77659D01*
X82799Y-77362D01*
X82799Y-77503D01*
X82572Y-77729D01*
X82597Y-77822D01*
X82794Y-77892D01*
X83002Y-77880D01*
X83142Y-77822D01*
X83167Y-77729D01*
X83167Y-78057D01*
X72926Y-78057D01*
X72926Y-75486D01*
X72846Y-75293D01*
X72699Y-75145D01*
X72506Y-75065D01*
X72297Y-75065D01*
X72104Y-75145D01*
X71956Y-75292D01*
X71901Y-75425D01*
X71846Y-75293D01*
X71699Y-75145D01*
X71506Y-75065D01*
X71297Y-75065D01*
X71104Y-75145D01*
X70956Y-75292D01*
X70901Y-75425D01*
X70846Y-75293D01*
X70699Y-75145D01*
X70506Y-75065D01*
X70297Y-75065D01*
X70104Y-75145D01*
X69956Y-75292D01*
X69904Y-75419D01*
X69862Y-75317D01*
X69769Y-75293D01*
X69698Y-75364D01*
X69698Y-75222D01*
X69674Y-75130D01*
X69477Y-75060D01*
X69268Y-75071D01*
X69128Y-75130D01*
X69104Y-75222D01*
X69401Y-75519D01*
X69698Y-75222D01*
X69698Y-75364D01*
X69472Y-75590D01*
X69769Y-75887D01*
X69862Y-75863D01*
X69900Y-75753D01*
X69956Y-75887D01*
X70103Y-76035D01*
X70296Y-76115D01*
X70505Y-76115D01*
X70698Y-76035D01*
X70846Y-75888D01*
X70901Y-75755D01*
X70956Y-75887D01*
X71103Y-76035D01*
X71296Y-76115D01*
X71505Y-76115D01*
X71698Y-76035D01*
X71846Y-75888D01*
X71901Y-75755D01*
X71956Y-75887D01*
X72103Y-76035D01*
X72296Y-76115D01*
X72505Y-76115D01*
X72698Y-76035D01*
X72846Y-75888D01*
X72926Y-75695D01*
X72926Y-75486D01*
X72926Y-78057D01*
X69698Y-78057D01*
X69698Y-75958D01*
X69401Y-75661D01*
X69330Y-75731D01*
X69330Y-75590D01*
X69033Y-75293D01*
X68941Y-75317D01*
X68902Y-75427D01*
X68846Y-75293D01*
X68699Y-75145D01*
X68506Y-75065D01*
X68297Y-75065D01*
X68104Y-75145D01*
X67956Y-75292D01*
X67926Y-75365D01*
X67926Y-75266D01*
X67888Y-75174D01*
X67818Y-75103D01*
X67726Y-75065D01*
X67627Y-75065D01*
X67077Y-75065D01*
X66985Y-75103D01*
X66914Y-75173D01*
X66876Y-75265D01*
X66876Y-75365D01*
X66876Y-75915D01*
X66914Y-76006D01*
X66984Y-76077D01*
X67076Y-76115D01*
X67176Y-76115D01*
X67726Y-76115D01*
X67818Y-76077D01*
X67888Y-76007D01*
X67926Y-75915D01*
X67926Y-75816D01*
X67926Y-75815D01*
X67956Y-75887D01*
X68103Y-76035D01*
X68296Y-76115D01*
X68505Y-76115D01*
X68698Y-76035D01*
X68846Y-75888D01*
X68898Y-75761D01*
X68941Y-75863D01*
X69033Y-75887D01*
X69330Y-75590D01*
X69330Y-75731D01*
X69104Y-75958D01*
X69128Y-76051D01*
X69325Y-76120D01*
X69534Y-76109D01*
X69674Y-76051D01*
X69698Y-75958D01*
X69698Y-78057D01*
X69057Y-78057D01*
X69093Y-77969D01*
X69093Y-77870D01*
X69093Y-77070D01*
X69055Y-76978D01*
X68985Y-76907D01*
X68893Y-76869D01*
X68794Y-76869D01*
X68744Y-76869D01*
X68726Y-76826D01*
X68607Y-76706D01*
X68451Y-76642D01*
X68281Y-76641D01*
X68125Y-76706D01*
X68006Y-76825D01*
X67941Y-76982D01*
X67941Y-77151D01*
X67993Y-77278D01*
X67993Y-77969D01*
X68029Y-78057D01*
X67757Y-78057D01*
X67793Y-77969D01*
X67793Y-77870D01*
X67793Y-77070D01*
X67755Y-76978D01*
X67719Y-76941D01*
X67663Y-76806D01*
X67544Y-76687D01*
X67388Y-76622D01*
X67218Y-76622D01*
X67062Y-76686D01*
X66943Y-76806D01*
X66916Y-76869D01*
X66894Y-76869D01*
X66802Y-76907D01*
X66731Y-76977D01*
X66693Y-77069D01*
X66693Y-77169D01*
X66693Y-77969D01*
X66729Y-78057D01*
X66063Y-78057D01*
X66063Y-77643D01*
X65938Y-77643D01*
X65938Y-77568D01*
X65938Y-77117D01*
X65938Y-77017D01*
X65900Y-76925D01*
X65829Y-76855D01*
X65737Y-76817D01*
X65525Y-76817D01*
X65463Y-76880D01*
X65463Y-77292D01*
X65875Y-77292D01*
X65938Y-77230D01*
X65938Y-77117D01*
X65938Y-77568D01*
X65938Y-77455D01*
X65875Y-77392D01*
X65463Y-77392D01*
X65463Y-77400D01*
X65363Y-77400D01*
X65363Y-77392D01*
X65355Y-77392D01*
X65355Y-77292D01*
X65363Y-77292D01*
X65363Y-76880D01*
X65300Y-76817D01*
X65092Y-76817D01*
X65092Y-72391D01*
X65147Y-72414D01*
X65246Y-72414D01*
X65796Y-72414D01*
X65888Y-72376D01*
X65959Y-72306D01*
X65996Y-72217D01*
X67563Y-72217D01*
X67533Y-72288D01*
X67533Y-72388D01*
X67533Y-72545D01*
X67571Y-72637D01*
X67641Y-72707D01*
X67733Y-72746D01*
X67832Y-72746D01*
X68541Y-72746D01*
X68611Y-72717D01*
X70423Y-72717D01*
X70467Y-72761D01*
X70623Y-72826D01*
X70638Y-72826D01*
X70586Y-72848D01*
X70466Y-72967D01*
X70461Y-72980D01*
X70309Y-72980D01*
X70153Y-73045D01*
X70033Y-73164D01*
X70012Y-73215D01*
X69966Y-73197D01*
X69797Y-73196D01*
X69641Y-73261D01*
X69609Y-73293D01*
X69263Y-73293D01*
X69263Y-73183D01*
X69199Y-73027D01*
X69079Y-72907D01*
X68923Y-72842D01*
X68754Y-72842D01*
X68598Y-72907D01*
X68557Y-72948D01*
X67702Y-72948D01*
X67642Y-72887D01*
X67486Y-72823D01*
X67317Y-72822D01*
X67161Y-72887D01*
X67041Y-73006D01*
X66976Y-73163D01*
X66976Y-73332D01*
X67041Y-73488D01*
X67160Y-73608D01*
X67316Y-73672D01*
X67485Y-73673D01*
X67642Y-73608D01*
X67702Y-73548D01*
X68000Y-73548D01*
X67980Y-73596D01*
X67980Y-73765D01*
X68045Y-73921D01*
X68164Y-74041D01*
X68320Y-74106D01*
X68489Y-74106D01*
X68645Y-74041D01*
X68736Y-73950D01*
X69609Y-73950D01*
X69640Y-73982D01*
X69796Y-74046D01*
X69966Y-74047D01*
X69975Y-74043D01*
X70062Y-74130D01*
X70062Y-74130D01*
X70116Y-74165D01*
X70169Y-74201D01*
X70169Y-74201D01*
X70295Y-74226D01*
X72107Y-74226D01*
X73980Y-76098D01*
X73980Y-76098D01*
X74086Y-76169D01*
X74212Y-76194D01*
X74212Y-76194D01*
X81597Y-76194D01*
X81629Y-76226D01*
X81785Y-76291D01*
X81954Y-76291D01*
X82110Y-76226D01*
X82142Y-76194D01*
X83779Y-76194D01*
X83905Y-76169D01*
X83905Y-76169D01*
X84011Y-76098D01*
X84663Y-75446D01*
X86714Y-75446D01*
X86793Y-75525D01*
X86793Y-75629D01*
G54D10*
G36*
X93096Y-59063D02*
X93085Y-59063D01*
X92928Y-59127D01*
X92868Y-59188D01*
X92354Y-59188D01*
X92354Y-59108D01*
X92289Y-58952D01*
X92170Y-58832D01*
X92157Y-58827D01*
X92157Y-58675D01*
X92092Y-58519D01*
X91973Y-58399D01*
X91817Y-58334D01*
X91648Y-58334D01*
X91491Y-58399D01*
X91420Y-58470D01*
X90038Y-58470D01*
X90038Y-49563D01*
X90038Y-48862D01*
X90038Y-48762D01*
X90000Y-48670D01*
X89930Y-48600D01*
X89838Y-48562D01*
X89601Y-48562D01*
X89538Y-48625D01*
X89538Y-49162D01*
X89976Y-49162D01*
X90038Y-49100D01*
X90038Y-48862D01*
X90038Y-49563D01*
X90038Y-49325D01*
X89976Y-49262D01*
X89538Y-49262D01*
X89538Y-49800D01*
X89601Y-49862D01*
X89838Y-49862D01*
X89930Y-49824D01*
X90000Y-49754D01*
X90038Y-49662D01*
X90038Y-49563D01*
X90038Y-58470D01*
X89993Y-58470D01*
X89993Y-54949D01*
X89993Y-54498D01*
X89993Y-54399D01*
X89955Y-54307D01*
X89884Y-54237D01*
X89793Y-54199D01*
X89581Y-54199D01*
X89518Y-54261D01*
X89518Y-54674D01*
X89931Y-54674D01*
X89993Y-54611D01*
X89993Y-54498D01*
X89993Y-54949D01*
X89993Y-54836D01*
X89931Y-54774D01*
X89518Y-54774D01*
X89518Y-55186D01*
X89581Y-55249D01*
X89793Y-55249D01*
X89884Y-55211D01*
X89955Y-55141D01*
X89993Y-55049D01*
X89993Y-54949D01*
X89993Y-58470D01*
X89438Y-58470D01*
X89438Y-49800D01*
X89438Y-49262D01*
X89438Y-49162D01*
X89438Y-48625D01*
X89376Y-48562D01*
X89139Y-48562D01*
X89047Y-48600D01*
X88976Y-48670D01*
X88938Y-48762D01*
X88938Y-48862D01*
X88938Y-49100D01*
X89001Y-49162D01*
X89438Y-49162D01*
X89438Y-49262D01*
X89001Y-49262D01*
X88938Y-49325D01*
X88938Y-49563D01*
X88938Y-49662D01*
X88976Y-49754D01*
X89047Y-49824D01*
X89139Y-49862D01*
X89376Y-49862D01*
X89438Y-49800D01*
X89438Y-58470D01*
X89418Y-58470D01*
X89418Y-55186D01*
X89418Y-54774D01*
X89418Y-54674D01*
X89418Y-54261D01*
X89356Y-54199D01*
X89143Y-54199D01*
X89052Y-54237D01*
X88981Y-54307D01*
X88943Y-54399D01*
X88943Y-54498D01*
X88943Y-54611D01*
X89006Y-54674D01*
X89418Y-54674D01*
X89418Y-54774D01*
X89006Y-54774D01*
X88943Y-54836D01*
X88943Y-54949D01*
X88943Y-55049D01*
X88981Y-55141D01*
X89052Y-55211D01*
X89143Y-55249D01*
X89356Y-55249D01*
X89418Y-55186D01*
X89418Y-58470D01*
X88738Y-58470D01*
X88738Y-49563D01*
X88738Y-48763D01*
X88700Y-48671D01*
X88630Y-48600D01*
X88538Y-48562D01*
X88439Y-48562D01*
X87839Y-48562D01*
X87747Y-48600D01*
X87676Y-48670D01*
X87638Y-48762D01*
X87638Y-48862D01*
X87638Y-48912D01*
X86112Y-48912D01*
X86077Y-48828D01*
X85896Y-48647D01*
X85660Y-48549D01*
X85404Y-48549D01*
X85167Y-48646D01*
X84986Y-48827D01*
X84887Y-49064D01*
X84887Y-49320D01*
X84985Y-49557D01*
X85166Y-49738D01*
X85402Y-49836D01*
X85658Y-49836D01*
X85895Y-49738D01*
X86076Y-49558D01*
X86095Y-49512D01*
X87638Y-49512D01*
X87638Y-49662D01*
X87676Y-49754D01*
X87746Y-49824D01*
X87838Y-49862D01*
X87938Y-49862D01*
X88538Y-49862D01*
X88630Y-49824D01*
X88700Y-49754D01*
X88738Y-49662D01*
X88738Y-49563D01*
X88738Y-58470D01*
X88732Y-58470D01*
X88732Y-50959D01*
X88667Y-50802D01*
X88548Y-50683D01*
X88391Y-50618D01*
X88222Y-50618D01*
X88110Y-50664D01*
X86842Y-50664D01*
X86842Y-50565D01*
X86777Y-50409D01*
X86658Y-50289D01*
X86543Y-50241D01*
X86482Y-50094D01*
X86363Y-49974D01*
X86206Y-49909D01*
X86037Y-49909D01*
X85881Y-49974D01*
X85821Y-50034D01*
X83803Y-50034D01*
X83842Y-49941D01*
X83842Y-49783D01*
X83782Y-49637D01*
X83670Y-49525D01*
X83524Y-49464D01*
X83366Y-49464D01*
X83219Y-49524D01*
X83149Y-49595D01*
X83079Y-49525D01*
X82933Y-49464D01*
X82775Y-49464D01*
X82629Y-49524D01*
X82559Y-49595D01*
X82489Y-49525D01*
X82343Y-49464D01*
X82185Y-49464D01*
X82038Y-49524D01*
X81968Y-49595D01*
X81898Y-49525D01*
X81752Y-49464D01*
X81594Y-49464D01*
X81448Y-49524D01*
X81382Y-49590D01*
X81382Y-49376D01*
X82388Y-48370D01*
X86903Y-48370D01*
X86963Y-48430D01*
X87119Y-48495D01*
X87288Y-48495D01*
X87445Y-48431D01*
X87564Y-48311D01*
X87629Y-48155D01*
X87629Y-47986D01*
X87565Y-47830D01*
X87445Y-47710D01*
X87289Y-47645D01*
X87120Y-47645D01*
X86964Y-47710D01*
X86903Y-47770D01*
X82263Y-47770D01*
X82148Y-47793D01*
X82051Y-47858D01*
X80870Y-49039D01*
X80805Y-49137D01*
X80782Y-49251D01*
X80782Y-49590D01*
X80717Y-49525D01*
X80571Y-49464D01*
X80413Y-49464D01*
X80267Y-49524D01*
X80155Y-49636D01*
X80124Y-49709D01*
X80106Y-49728D01*
X80106Y-49586D01*
X80097Y-49507D01*
X79946Y-49459D01*
X79789Y-49472D01*
X79705Y-49507D01*
X79697Y-49586D01*
X79901Y-49791D01*
X80106Y-49586D01*
X80106Y-49728D01*
X79972Y-49862D01*
X80124Y-50014D01*
X80154Y-50087D01*
X80266Y-50199D01*
X80412Y-50259D01*
X80570Y-50259D01*
X80717Y-50199D01*
X80787Y-50129D01*
X80857Y-50199D01*
X81003Y-50259D01*
X81161Y-50259D01*
X81307Y-50199D01*
X81377Y-50129D01*
X81447Y-50199D01*
X81593Y-50259D01*
X81751Y-50259D01*
X81898Y-50199D01*
X81968Y-50129D01*
X82038Y-50199D01*
X82184Y-50259D01*
X82342Y-50259D01*
X82488Y-50199D01*
X82554Y-50134D01*
X82554Y-50177D01*
X82577Y-50291D01*
X82642Y-50389D01*
X82799Y-50546D01*
X82799Y-50546D01*
X82897Y-50611D01*
X83011Y-50634D01*
X83019Y-50634D01*
X83019Y-50664D01*
X81974Y-50664D01*
X81914Y-50604D01*
X81758Y-50539D01*
X81589Y-50539D01*
X81432Y-50604D01*
X81313Y-50723D01*
X81248Y-50879D01*
X81248Y-51048D01*
X81312Y-51204D01*
X81432Y-51324D01*
X81588Y-51389D01*
X81757Y-51389D01*
X81858Y-51347D01*
X81858Y-51363D01*
X81922Y-51519D01*
X82042Y-51639D01*
X82198Y-51704D01*
X82367Y-51704D01*
X82523Y-51640D01*
X82584Y-51579D01*
X85466Y-51579D01*
X85546Y-51659D01*
X85702Y-51724D01*
X85871Y-51724D01*
X86027Y-51659D01*
X86147Y-51540D01*
X86212Y-51384D01*
X86212Y-51264D01*
X87938Y-51264D01*
X87946Y-51283D01*
X88066Y-51403D01*
X88222Y-51468D01*
X88391Y-51468D01*
X88547Y-51403D01*
X88667Y-51284D01*
X88732Y-51128D01*
X88732Y-50959D01*
X88732Y-58470D01*
X84231Y-58470D01*
X84227Y-58460D01*
X84157Y-58390D01*
X84133Y-58380D01*
X84440Y-58380D01*
X84532Y-58342D01*
X84602Y-58271D01*
X84618Y-58233D01*
X85250Y-58233D01*
X85251Y-58234D01*
X85407Y-58298D01*
X85576Y-58299D01*
X85732Y-58234D01*
X85852Y-58115D01*
X85917Y-57958D01*
X85917Y-57789D01*
X85852Y-57633D01*
X85733Y-57513D01*
X85577Y-57449D01*
X85407Y-57448D01*
X85251Y-57513D01*
X85132Y-57632D01*
X85131Y-57633D01*
X84618Y-57633D01*
X84602Y-57594D01*
X84532Y-57524D01*
X84440Y-57486D01*
X84341Y-57486D01*
X84026Y-57486D01*
X83934Y-57524D01*
X83907Y-57550D01*
X83844Y-57397D01*
X83725Y-57277D01*
X83569Y-57212D01*
X83400Y-57212D01*
X83243Y-57277D01*
X83124Y-57396D01*
X83059Y-57552D01*
X83059Y-57721D01*
X83075Y-57762D01*
X83075Y-57785D01*
X83075Y-58179D01*
X83113Y-58271D01*
X83183Y-58341D01*
X83275Y-58380D01*
X83375Y-58380D01*
X83583Y-58380D01*
X83559Y-58390D01*
X83518Y-58431D01*
X82420Y-58431D01*
X82416Y-58421D01*
X82346Y-58350D01*
X82322Y-58340D01*
X82629Y-58340D01*
X82721Y-58302D01*
X82791Y-58232D01*
X82829Y-58140D01*
X82829Y-58041D01*
X82829Y-57647D01*
X82791Y-57555D01*
X82721Y-57484D01*
X82651Y-57456D01*
X82643Y-57436D01*
X82524Y-57317D01*
X82368Y-57252D01*
X82199Y-57252D01*
X82043Y-57316D01*
X81923Y-57436D01*
X81913Y-57460D01*
X81879Y-57446D01*
X81780Y-57446D01*
X81465Y-57446D01*
X81459Y-57449D01*
X81313Y-57448D01*
X81157Y-57513D01*
X81037Y-57632D01*
X80972Y-57789D01*
X80972Y-57958D01*
X81037Y-58114D01*
X81156Y-58234D01*
X81312Y-58298D01*
X81369Y-58298D01*
X81372Y-58302D01*
X81464Y-58340D01*
X81564Y-58340D01*
X81772Y-58340D01*
X81748Y-58350D01*
X81677Y-58420D01*
X81673Y-58431D01*
X80374Y-58431D01*
X80248Y-58456D01*
X80229Y-58468D01*
X80229Y-58237D01*
X80229Y-57786D01*
X80229Y-57686D01*
X80191Y-57595D01*
X80121Y-57524D01*
X80029Y-57486D01*
X79817Y-57486D01*
X79754Y-57549D01*
X79754Y-57961D01*
X80167Y-57961D01*
X80229Y-57899D01*
X80229Y-57786D01*
X80229Y-58237D01*
X80229Y-58124D01*
X80167Y-58061D01*
X79754Y-58061D01*
X79754Y-58474D01*
X79817Y-58536D01*
X80029Y-58536D01*
X80121Y-58498D01*
X80191Y-58428D01*
X80229Y-58336D01*
X80229Y-58237D01*
X80229Y-58468D01*
X80141Y-58527D01*
X79981Y-58687D01*
X79654Y-58687D01*
X79654Y-58474D01*
X79654Y-58061D01*
X79654Y-57961D01*
X79654Y-57549D01*
X79592Y-57486D01*
X79380Y-57486D01*
X79288Y-57524D01*
X79217Y-57595D01*
X79179Y-57686D01*
X79179Y-57786D01*
X79179Y-57899D01*
X79242Y-57961D01*
X79654Y-57961D01*
X79654Y-58061D01*
X79242Y-58061D01*
X79179Y-58124D01*
X79179Y-58237D01*
X79179Y-58336D01*
X79217Y-58428D01*
X79288Y-58498D01*
X79380Y-58536D01*
X79592Y-58536D01*
X79654Y-58474D01*
X79654Y-58687D01*
X78439Y-58687D01*
X78439Y-58336D01*
X78401Y-58244D01*
X78330Y-58173D01*
X78306Y-58163D01*
X78613Y-58163D01*
X78705Y-58125D01*
X78711Y-58119D01*
X78862Y-58057D01*
X78982Y-57937D01*
X79046Y-57781D01*
X79047Y-57612D01*
X78982Y-57456D01*
X78863Y-57336D01*
X78713Y-57274D01*
X78794Y-57220D01*
X79011Y-57003D01*
X79011Y-57003D01*
X79076Y-56906D01*
X79099Y-56791D01*
X79099Y-56791D01*
X79099Y-56751D01*
X79135Y-56736D01*
X79299Y-56573D01*
X79462Y-56735D01*
X79680Y-56826D01*
X79916Y-56826D01*
X80135Y-56736D01*
X80299Y-56573D01*
X80462Y-56735D01*
X80680Y-56826D01*
X80916Y-56826D01*
X81135Y-56736D01*
X81299Y-56573D01*
X81462Y-56735D01*
X81680Y-56826D01*
X81916Y-56826D01*
X82135Y-56736D01*
X82299Y-56573D01*
X82462Y-56735D01*
X82680Y-56826D01*
X82916Y-56826D01*
X83135Y-56736D01*
X83302Y-56569D01*
X83393Y-56351D01*
X83393Y-56114D01*
X83393Y-52114D01*
X83303Y-51895D01*
X83136Y-51728D01*
X82917Y-51637D01*
X82681Y-51637D01*
X82462Y-51728D01*
X82299Y-51891D01*
X82136Y-51728D01*
X81917Y-51637D01*
X81681Y-51637D01*
X81462Y-51728D01*
X81299Y-51891D01*
X81136Y-51728D01*
X80917Y-51637D01*
X80681Y-51637D01*
X80462Y-51728D01*
X80299Y-51891D01*
X80136Y-51728D01*
X80106Y-51716D01*
X80106Y-50137D01*
X79901Y-49932D01*
X79830Y-50003D01*
X79830Y-49862D01*
X79678Y-49709D01*
X79648Y-49637D01*
X79536Y-49525D01*
X79390Y-49464D01*
X79232Y-49464D01*
X79086Y-49524D01*
X79015Y-49595D01*
X78946Y-49525D01*
X78799Y-49464D01*
X78641Y-49464D01*
X78495Y-49524D01*
X78425Y-49595D01*
X78355Y-49525D01*
X78209Y-49464D01*
X78051Y-49464D01*
X77904Y-49524D01*
X77834Y-49595D01*
X77764Y-49525D01*
X77618Y-49464D01*
X77460Y-49464D01*
X77314Y-49524D01*
X77244Y-49595D01*
X77174Y-49525D01*
X77028Y-49464D01*
X76870Y-49464D01*
X76723Y-49524D01*
X76653Y-49595D01*
X76583Y-49525D01*
X76437Y-49464D01*
X76279Y-49464D01*
X76133Y-49524D01*
X76062Y-49595D01*
X75993Y-49525D01*
X75847Y-49464D01*
X75688Y-49464D01*
X75542Y-49524D01*
X75472Y-49595D01*
X75402Y-49525D01*
X75256Y-49464D01*
X75098Y-49464D01*
X74952Y-49524D01*
X74881Y-49595D01*
X74812Y-49525D01*
X74666Y-49464D01*
X74507Y-49464D01*
X74361Y-49524D01*
X74291Y-49595D01*
X74221Y-49525D01*
X74075Y-49464D01*
X73917Y-49464D01*
X73771Y-49524D01*
X73659Y-49636D01*
X73598Y-49782D01*
X73598Y-49940D01*
X73658Y-50087D01*
X73770Y-50199D01*
X73916Y-50259D01*
X74074Y-50259D01*
X74221Y-50199D01*
X74291Y-50129D01*
X74361Y-50199D01*
X74507Y-50259D01*
X74665Y-50259D01*
X74811Y-50199D01*
X74881Y-50129D01*
X74951Y-50199D01*
X75097Y-50259D01*
X75255Y-50259D01*
X75402Y-50199D01*
X75472Y-50129D01*
X75542Y-50199D01*
X75688Y-50259D01*
X75846Y-50259D01*
X75992Y-50199D01*
X76063Y-50129D01*
X76132Y-50199D01*
X76278Y-50259D01*
X76437Y-50259D01*
X76583Y-50199D01*
X76653Y-50129D01*
X76723Y-50199D01*
X76869Y-50259D01*
X77027Y-50259D01*
X77173Y-50199D01*
X77244Y-50129D01*
X77313Y-50199D01*
X77459Y-50259D01*
X77618Y-50259D01*
X77764Y-50199D01*
X77834Y-50129D01*
X77904Y-50199D01*
X78050Y-50259D01*
X78208Y-50259D01*
X78354Y-50199D01*
X78425Y-50129D01*
X78494Y-50199D01*
X78641Y-50259D01*
X78799Y-50259D01*
X78945Y-50199D01*
X79015Y-50129D01*
X79085Y-50199D01*
X79231Y-50259D01*
X79389Y-50259D01*
X79535Y-50199D01*
X79647Y-50087D01*
X79678Y-50014D01*
X79830Y-49862D01*
X79830Y-50003D01*
X79697Y-50137D01*
X79705Y-50217D01*
X79856Y-50265D01*
X80013Y-50251D01*
X80097Y-50217D01*
X80106Y-50137D01*
X80106Y-51716D01*
X79917Y-51637D01*
X79681Y-51637D01*
X79462Y-51728D01*
X79299Y-51891D01*
X79136Y-51728D01*
X78917Y-51637D01*
X78681Y-51637D01*
X78462Y-51728D01*
X78299Y-51891D01*
X78136Y-51728D01*
X77917Y-51637D01*
X77681Y-51637D01*
X77462Y-51728D01*
X77299Y-51891D01*
X77136Y-51728D01*
X76917Y-51637D01*
X76681Y-51637D01*
X76462Y-51728D01*
X76299Y-51891D01*
X76136Y-51728D01*
X75917Y-51637D01*
X75681Y-51637D01*
X75462Y-51728D01*
X75295Y-51895D01*
X75280Y-51932D01*
X72553Y-51932D01*
X72553Y-49065D01*
X72455Y-48828D01*
X72274Y-48647D01*
X72038Y-48549D01*
X71781Y-48549D01*
X71563Y-48639D01*
X70997Y-48073D01*
X70900Y-48008D01*
X70785Y-47985D01*
X68937Y-47985D01*
X68822Y-48008D01*
X68724Y-48073D01*
X68428Y-48369D01*
X68363Y-48466D01*
X68340Y-48581D01*
X68340Y-48765D01*
X68271Y-48834D01*
X68233Y-48926D01*
X68233Y-49025D01*
X68233Y-49419D01*
X68271Y-49511D01*
X68341Y-49582D01*
X68433Y-49620D01*
X68532Y-49620D01*
X68740Y-49620D01*
X68716Y-49630D01*
X68646Y-49700D01*
X68608Y-49792D01*
X68608Y-49891D01*
X68608Y-50285D01*
X68646Y-50377D01*
X68707Y-50439D01*
X68712Y-50460D01*
X68783Y-50567D01*
X68787Y-50571D01*
X68787Y-50615D01*
X68852Y-50771D01*
X68971Y-50891D01*
X69127Y-50956D01*
X69296Y-50956D01*
X69453Y-50892D01*
X69572Y-50772D01*
X69637Y-50616D01*
X69637Y-50447D01*
X69573Y-50291D01*
X69453Y-50171D01*
X69423Y-50158D01*
X69423Y-49792D01*
X69385Y-49700D01*
X69315Y-49630D01*
X69290Y-49620D01*
X69597Y-49620D01*
X69689Y-49582D01*
X69760Y-49512D01*
X69798Y-49420D01*
X69798Y-49320D01*
X69798Y-49220D01*
X69945Y-49159D01*
X70064Y-49040D01*
X70129Y-48884D01*
X70129Y-48715D01*
X70076Y-48585D01*
X70661Y-48585D01*
X71265Y-49190D01*
X71265Y-49320D01*
X71363Y-49557D01*
X71544Y-49738D01*
X71780Y-49836D01*
X72036Y-49836D01*
X72273Y-49738D01*
X72454Y-49558D01*
X72553Y-49321D01*
X72553Y-49065D01*
X72553Y-51932D01*
X69876Y-51932D01*
X68932Y-50988D01*
X68835Y-50923D01*
X68720Y-50900D01*
X68621Y-50900D01*
X68621Y-50751D01*
X68583Y-50659D01*
X68513Y-50588D01*
X68421Y-50550D01*
X68321Y-50550D01*
X67721Y-50550D01*
X67629Y-50588D01*
X67559Y-50658D01*
X67521Y-50750D01*
X67521Y-50850D01*
X67521Y-51650D01*
X67559Y-51742D01*
X67629Y-51812D01*
X67719Y-51849D01*
X67702Y-51849D01*
X67610Y-51887D01*
X67539Y-51958D01*
X67501Y-52050D01*
X67501Y-52149D01*
X67501Y-52949D01*
X67539Y-53041D01*
X67609Y-53111D01*
X67629Y-53120D01*
X67610Y-53128D01*
X67539Y-53198D01*
X67501Y-53290D01*
X67501Y-53389D01*
X67501Y-54189D01*
X67539Y-54281D01*
X67608Y-54350D01*
X67539Y-54418D01*
X67501Y-54510D01*
X67501Y-54610D01*
X67501Y-55410D01*
X67539Y-55502D01*
X67609Y-55572D01*
X67629Y-55580D01*
X67610Y-55588D01*
X67539Y-55658D01*
X67501Y-55750D01*
X67501Y-55850D01*
X67501Y-56650D01*
X67539Y-56742D01*
X67609Y-56812D01*
X67701Y-56850D01*
X67801Y-56850D01*
X68401Y-56850D01*
X68493Y-56812D01*
X68563Y-56742D01*
X68601Y-56650D01*
X68601Y-56551D01*
X68601Y-56500D01*
X68759Y-56500D01*
X68759Y-56500D01*
X68874Y-56477D01*
X68874Y-56477D01*
X68971Y-56412D01*
X72033Y-53351D01*
X73812Y-53351D01*
X74394Y-53932D01*
X74491Y-53997D01*
X74606Y-54020D01*
X76722Y-54020D01*
X76722Y-54020D01*
X76836Y-53997D01*
X76836Y-53997D01*
X76934Y-53932D01*
X77200Y-53666D01*
X80492Y-53666D01*
X80492Y-53666D01*
X80606Y-53643D01*
X80606Y-53643D01*
X80704Y-53578D01*
X81011Y-53271D01*
X81011Y-53271D01*
X81076Y-53173D01*
X81099Y-53059D01*
X81099Y-53059D01*
X81099Y-52751D01*
X81135Y-52736D01*
X81299Y-52573D01*
X81462Y-52735D01*
X81680Y-52826D01*
X81916Y-52826D01*
X82135Y-52736D01*
X82299Y-52573D01*
X82462Y-52735D01*
X82680Y-52826D01*
X82916Y-52826D01*
X83135Y-52736D01*
X83302Y-52569D01*
X83393Y-52351D01*
X83393Y-52114D01*
X83393Y-56114D01*
X83303Y-55895D01*
X83136Y-55728D01*
X82917Y-55637D01*
X82681Y-55637D01*
X82462Y-55728D01*
X82299Y-55891D01*
X82136Y-55728D01*
X81917Y-55637D01*
X81681Y-55637D01*
X81462Y-55728D01*
X81299Y-55891D01*
X81136Y-55728D01*
X80917Y-55637D01*
X80681Y-55637D01*
X80462Y-55728D01*
X80299Y-55891D01*
X80136Y-55728D01*
X79917Y-55637D01*
X79681Y-55637D01*
X79462Y-55728D01*
X79299Y-55891D01*
X79136Y-55728D01*
X78917Y-55637D01*
X78681Y-55637D01*
X78462Y-55728D01*
X78299Y-55891D01*
X78136Y-55728D01*
X78017Y-55679D01*
X78075Y-55655D01*
X78194Y-55536D01*
X78259Y-55380D01*
X78259Y-55260D01*
X81470Y-55260D01*
X81530Y-55320D01*
X81686Y-55385D01*
X81855Y-55385D01*
X82012Y-55321D01*
X82131Y-55201D01*
X82196Y-55045D01*
X82196Y-54876D01*
X82132Y-54720D01*
X82012Y-54600D01*
X81856Y-54535D01*
X81687Y-54535D01*
X81531Y-54600D01*
X81470Y-54660D01*
X74041Y-54660D01*
X74000Y-54620D01*
X73844Y-54555D01*
X73675Y-54555D01*
X73519Y-54619D01*
X73399Y-54739D01*
X73334Y-54895D01*
X73334Y-55064D01*
X73399Y-55220D01*
X73518Y-55340D01*
X73674Y-55405D01*
X73755Y-55405D01*
X73793Y-55496D01*
X73912Y-55615D01*
X74068Y-55680D01*
X74237Y-55680D01*
X74393Y-55616D01*
X74415Y-55595D01*
X77533Y-55595D01*
X77593Y-55655D01*
X77616Y-55664D01*
X77462Y-55728D01*
X77299Y-55891D01*
X77136Y-55728D01*
X76917Y-55637D01*
X76681Y-55637D01*
X76462Y-55728D01*
X76299Y-55891D01*
X76136Y-55728D01*
X75917Y-55637D01*
X75681Y-55637D01*
X75462Y-55728D01*
X75295Y-55895D01*
X75280Y-55932D01*
X72727Y-55932D01*
X72722Y-55920D01*
X72603Y-55801D01*
X72447Y-55736D01*
X72278Y-55736D01*
X72121Y-55800D01*
X72002Y-55920D01*
X71937Y-56076D01*
X71937Y-56245D01*
X72001Y-56401D01*
X72121Y-56521D01*
X72190Y-56550D01*
X70608Y-56550D01*
X70661Y-56423D01*
X70661Y-56254D01*
X70596Y-56098D01*
X70477Y-55978D01*
X70321Y-55913D01*
X70152Y-55913D01*
X69995Y-55978D01*
X69954Y-56018D01*
X69547Y-56018D01*
X69432Y-56041D01*
X69335Y-56106D01*
X68399Y-57042D01*
X68391Y-57042D01*
X68331Y-56982D01*
X68175Y-56917D01*
X68006Y-56917D01*
X67850Y-56982D01*
X67730Y-57101D01*
X67665Y-57257D01*
X67665Y-57426D01*
X67730Y-57582D01*
X67849Y-57702D01*
X68005Y-57767D01*
X68174Y-57767D01*
X68330Y-57703D01*
X68391Y-57642D01*
X68523Y-57642D01*
X68523Y-57642D01*
X68638Y-57619D01*
X68638Y-57619D01*
X68735Y-57554D01*
X68846Y-57443D01*
X68846Y-57525D01*
X68911Y-57681D01*
X69030Y-57801D01*
X69186Y-57865D01*
X69355Y-57866D01*
X69512Y-57801D01*
X69631Y-57682D01*
X69696Y-57525D01*
X69696Y-57440D01*
X69986Y-57150D01*
X72611Y-57150D01*
X72752Y-57290D01*
X72752Y-57308D01*
X72682Y-57377D01*
X72677Y-57391D01*
X72671Y-57378D01*
X72601Y-57307D01*
X72509Y-57269D01*
X72410Y-57269D01*
X72095Y-57269D01*
X72003Y-57307D01*
X71932Y-57377D01*
X71894Y-57469D01*
X71894Y-57569D01*
X71894Y-57589D01*
X71877Y-57631D01*
X71877Y-57800D01*
X71894Y-57843D01*
X71894Y-57963D01*
X71932Y-58055D01*
X72002Y-58125D01*
X72094Y-58163D01*
X72194Y-58163D01*
X72402Y-58163D01*
X72378Y-58173D01*
X72307Y-58243D01*
X72269Y-58335D01*
X72269Y-58435D01*
X72269Y-58829D01*
X72271Y-58833D01*
X67217Y-58833D01*
X67217Y-58473D01*
X67217Y-58022D01*
X67217Y-57923D01*
X67179Y-57831D01*
X67109Y-57760D01*
X67017Y-57722D01*
X66805Y-57723D01*
X66742Y-57785D01*
X66742Y-58198D01*
X67155Y-58198D01*
X67217Y-58135D01*
X67217Y-58022D01*
X67217Y-58473D01*
X67217Y-58360D01*
X67155Y-58298D01*
X66742Y-58298D01*
X66742Y-58710D01*
X66805Y-58773D01*
X67017Y-58773D01*
X67109Y-58735D01*
X67179Y-58664D01*
X67217Y-58572D01*
X67217Y-58473D01*
X67217Y-58833D01*
X66642Y-58833D01*
X66642Y-58710D01*
X66642Y-58298D01*
X66642Y-58198D01*
X66642Y-57785D01*
X66580Y-57723D01*
X66368Y-57722D01*
X66276Y-57760D01*
X66206Y-57831D01*
X66167Y-57923D01*
X66167Y-58022D01*
X66167Y-58135D01*
X66230Y-58198D01*
X66642Y-58198D01*
X66642Y-58298D01*
X66230Y-58298D01*
X66167Y-58360D01*
X66167Y-58473D01*
X66167Y-58572D01*
X66206Y-58664D01*
X66276Y-58735D01*
X66368Y-58773D01*
X66580Y-58773D01*
X66642Y-58710D01*
X66642Y-58833D01*
X65990Y-58833D01*
X65940Y-58783D01*
X65843Y-58718D01*
X65728Y-58696D01*
X65458Y-58696D01*
X65398Y-58635D01*
X65242Y-58571D01*
X65092Y-58571D01*
X65092Y-56433D01*
X65111Y-56480D01*
X65231Y-56600D01*
X65387Y-56665D01*
X65556Y-56665D01*
X65712Y-56600D01*
X65812Y-56500D01*
X66201Y-56500D01*
X66201Y-56650D01*
X66239Y-56742D01*
X66309Y-56812D01*
X66401Y-56850D01*
X66501Y-56850D01*
X67101Y-56850D01*
X67193Y-56812D01*
X67263Y-56742D01*
X67301Y-56650D01*
X67301Y-56551D01*
X67301Y-55751D01*
X67263Y-55659D01*
X67193Y-55588D01*
X67173Y-55580D01*
X67193Y-55572D01*
X67263Y-55502D01*
X67301Y-55410D01*
X67301Y-55311D01*
X67301Y-54511D01*
X67263Y-54419D01*
X67194Y-54350D01*
X67263Y-54281D01*
X67301Y-54190D01*
X67301Y-54090D01*
X67301Y-53290D01*
X67263Y-53198D01*
X67193Y-53128D01*
X67173Y-53120D01*
X67193Y-53112D01*
X67263Y-53041D01*
X67301Y-52949D01*
X67301Y-52850D01*
X67301Y-52050D01*
X67263Y-51958D01*
X67193Y-51888D01*
X67103Y-51850D01*
X67120Y-51850D01*
X67212Y-51812D01*
X67283Y-51742D01*
X67321Y-51650D01*
X67321Y-51551D01*
X67321Y-50819D01*
X67578Y-50562D01*
X67662Y-50562D01*
X67819Y-50498D01*
X67938Y-50378D01*
X68003Y-50222D01*
X68003Y-50053D01*
X67939Y-49897D01*
X67819Y-49777D01*
X67663Y-49712D01*
X67494Y-49712D01*
X67338Y-49777D01*
X67218Y-49896D01*
X67153Y-50052D01*
X67153Y-50138D01*
X66741Y-50550D01*
X66421Y-50550D01*
X66329Y-50588D01*
X66259Y-50658D01*
X66221Y-50750D01*
X66221Y-50850D01*
X66221Y-51650D01*
X66259Y-51742D01*
X66329Y-51812D01*
X66419Y-51849D01*
X66402Y-51849D01*
X66310Y-51887D01*
X66239Y-51958D01*
X66201Y-52050D01*
X66201Y-52149D01*
X66201Y-52200D01*
X65938Y-52200D01*
X65938Y-40560D01*
X65938Y-40447D01*
X65875Y-40384D01*
X65463Y-40384D01*
X65463Y-40797D01*
X65525Y-40859D01*
X65737Y-40859D01*
X65829Y-40821D01*
X65900Y-40751D01*
X65938Y-40659D01*
X65938Y-40560D01*
X65938Y-52200D01*
X65478Y-52200D01*
X65378Y-52100D01*
X65222Y-52035D01*
X65092Y-52035D01*
X65092Y-40859D01*
X65300Y-40859D01*
X65363Y-40797D01*
X65363Y-40384D01*
X65355Y-40384D01*
X65355Y-40284D01*
X65363Y-40284D01*
X65363Y-40276D01*
X65463Y-40276D01*
X65463Y-40284D01*
X65875Y-40284D01*
X65938Y-40222D01*
X65938Y-40109D01*
X65938Y-40009D01*
X65900Y-39917D01*
X65877Y-39895D01*
X67640Y-39895D01*
X67608Y-39908D01*
X67460Y-40056D01*
X67380Y-40249D01*
X67380Y-40458D01*
X67460Y-40651D01*
X67607Y-40799D01*
X67703Y-40839D01*
X67653Y-40859D01*
X67533Y-40979D01*
X67468Y-41135D01*
X67468Y-41304D01*
X67533Y-41460D01*
X67652Y-41580D01*
X67808Y-41645D01*
X67977Y-41645D01*
X68134Y-41580D01*
X68214Y-41500D01*
X69915Y-41500D01*
X69975Y-41560D01*
X70131Y-41625D01*
X70300Y-41625D01*
X70456Y-41561D01*
X70576Y-41441D01*
X70641Y-41285D01*
X70641Y-41116D01*
X70577Y-40960D01*
X70457Y-40840D01*
X70301Y-40775D01*
X70132Y-40775D01*
X69976Y-40840D01*
X69915Y-40900D01*
X69430Y-40900D01*
X69430Y-40579D01*
X69430Y-40466D01*
X69368Y-40404D01*
X68955Y-40404D01*
X68955Y-40816D01*
X69018Y-40879D01*
X69230Y-40879D01*
X69321Y-40841D01*
X69392Y-40771D01*
X69430Y-40679D01*
X69430Y-40579D01*
X69430Y-40900D01*
X68175Y-40900D01*
X68134Y-40860D01*
X68095Y-40843D01*
X68202Y-40799D01*
X68350Y-40652D01*
X68380Y-40579D01*
X68380Y-40579D01*
X68380Y-40679D01*
X68418Y-40771D01*
X68489Y-40841D01*
X68581Y-40879D01*
X68793Y-40879D01*
X68855Y-40816D01*
X68855Y-40404D01*
X68847Y-40404D01*
X68847Y-40304D01*
X68855Y-40304D01*
X68855Y-40296D01*
X68955Y-40296D01*
X68955Y-40304D01*
X69368Y-40304D01*
X69430Y-40241D01*
X69430Y-40128D01*
X69430Y-40029D01*
X69392Y-39937D01*
X69350Y-39895D01*
X88759Y-39895D01*
X88737Y-39917D01*
X88699Y-40009D01*
X88699Y-40109D01*
X88699Y-40659D01*
X88737Y-40751D01*
X88807Y-40821D01*
X88895Y-40858D01*
X88895Y-41153D01*
X88920Y-41279D01*
X88991Y-41385D01*
X89413Y-41807D01*
X89413Y-41807D01*
X89519Y-41878D01*
X89645Y-41903D01*
X91373Y-41903D01*
X91372Y-41904D01*
X91307Y-42060D01*
X91307Y-42105D01*
X91281Y-42131D01*
X85331Y-42131D01*
X85280Y-42080D01*
X85124Y-42016D01*
X84955Y-42015D01*
X84798Y-42080D01*
X84747Y-42131D01*
X69563Y-42131D01*
X69532Y-42100D01*
X69376Y-42035D01*
X69207Y-42035D01*
X69050Y-42100D01*
X68931Y-42219D01*
X68866Y-42375D01*
X68866Y-42544D01*
X68930Y-42701D01*
X69050Y-42820D01*
X69206Y-42885D01*
X69257Y-42885D01*
X69240Y-42926D01*
X69240Y-43095D01*
X69293Y-43223D01*
X67244Y-43223D01*
X67129Y-43246D01*
X67031Y-43311D01*
X66342Y-44000D01*
X66277Y-44097D01*
X66255Y-44212D01*
X66255Y-44963D01*
X66110Y-45107D01*
X66030Y-45300D01*
X66030Y-45509D01*
X66109Y-45702D01*
X66257Y-45850D01*
X66329Y-45880D01*
X66230Y-45880D01*
X66138Y-45918D01*
X66068Y-45988D01*
X66030Y-46080D01*
X66030Y-46180D01*
X66030Y-46730D01*
X66068Y-46821D01*
X66138Y-46892D01*
X66230Y-46930D01*
X66329Y-46930D01*
X66879Y-46930D01*
X66971Y-46892D01*
X67041Y-46822D01*
X67080Y-46730D01*
X67080Y-46705D01*
X67511Y-46705D01*
X67511Y-46705D01*
X67626Y-46682D01*
X67626Y-46682D01*
X67723Y-46617D01*
X68086Y-46255D01*
X68086Y-46255D01*
X68151Y-46158D01*
X68174Y-46043D01*
X68174Y-46043D01*
X68174Y-44454D01*
X68510Y-44118D01*
X86273Y-44118D01*
X86491Y-44336D01*
X86491Y-46692D01*
X86514Y-46807D01*
X86579Y-46905D01*
X87150Y-47475D01*
X87150Y-47475D01*
X87247Y-47540D01*
X87362Y-47563D01*
X87513Y-47563D01*
X87582Y-47633D01*
X87674Y-47671D01*
X87773Y-47671D01*
X88821Y-47671D01*
X88913Y-47633D01*
X88983Y-47563D01*
X89021Y-47471D01*
X89021Y-47371D01*
X89021Y-47056D01*
X88983Y-46964D01*
X88913Y-46894D01*
X88821Y-46856D01*
X88722Y-46856D01*
X87674Y-46856D01*
X87582Y-46894D01*
X87513Y-46963D01*
X87486Y-46963D01*
X87091Y-46568D01*
X87091Y-44212D01*
X87068Y-44097D01*
X87003Y-44000D01*
X87003Y-44000D01*
X86826Y-43823D01*
X87434Y-43823D01*
X87908Y-44297D01*
X87908Y-44848D01*
X87635Y-44848D01*
X87543Y-44886D01*
X87473Y-44956D01*
X87435Y-45048D01*
X87434Y-45147D01*
X87434Y-45462D01*
X87472Y-45554D01*
X87543Y-45625D01*
X87635Y-45663D01*
X87734Y-45663D01*
X88781Y-45663D01*
X88873Y-45625D01*
X88944Y-45555D01*
X88982Y-45463D01*
X88982Y-45363D01*
X88982Y-45048D01*
X88944Y-44956D01*
X88874Y-44886D01*
X88782Y-44848D01*
X88682Y-44848D01*
X88508Y-44848D01*
X88508Y-44173D01*
X88485Y-44058D01*
X88420Y-43961D01*
X88420Y-43961D01*
X87941Y-43481D01*
X88016Y-43451D01*
X88135Y-43331D01*
X88200Y-43175D01*
X88200Y-43006D01*
X88136Y-42850D01*
X88075Y-42789D01*
X91417Y-42789D01*
X91543Y-42764D01*
X91543Y-42764D01*
X91649Y-42693D01*
X91772Y-42570D01*
X91816Y-42570D01*
X91972Y-42506D01*
X92092Y-42386D01*
X92157Y-42230D01*
X92157Y-42061D01*
X92092Y-41905D01*
X92091Y-41903D01*
X92168Y-41903D01*
X92257Y-41940D01*
X92426Y-41940D01*
X92582Y-41876D01*
X92702Y-41756D01*
X92767Y-41600D01*
X92767Y-41431D01*
X92725Y-41329D01*
X92725Y-40797D01*
X92725Y-40384D01*
X92313Y-40384D01*
X92250Y-40447D01*
X92250Y-40560D01*
X92250Y-40659D01*
X92288Y-40751D01*
X92359Y-40821D01*
X92451Y-40859D01*
X92663Y-40859D01*
X92725Y-40797D01*
X92725Y-41329D01*
X92703Y-41275D01*
X92583Y-41155D01*
X92427Y-41090D01*
X92258Y-41090D01*
X92102Y-41155D01*
X92011Y-41246D01*
X90754Y-41246D01*
X90754Y-40410D01*
X90742Y-40201D01*
X90684Y-40061D01*
X90592Y-40037D01*
X90295Y-40334D01*
X90592Y-40631D01*
X90684Y-40607D01*
X90754Y-40410D01*
X90754Y-41246D01*
X90521Y-41246D01*
X90521Y-40702D01*
X90224Y-40405D01*
X89927Y-40702D01*
X89951Y-40795D01*
X90148Y-40864D01*
X90357Y-40853D01*
X90497Y-40795D01*
X90521Y-40702D01*
X90521Y-41246D01*
X89781Y-41246D01*
X89553Y-41017D01*
X89553Y-40857D01*
X89640Y-40821D01*
X89711Y-40751D01*
X89749Y-40659D01*
X89749Y-40572D01*
X89763Y-40607D01*
X89856Y-40631D01*
X90153Y-40334D01*
X89856Y-40037D01*
X89763Y-40061D01*
X89749Y-40102D01*
X89749Y-40010D01*
X89711Y-39918D01*
X89688Y-39895D01*
X89945Y-39895D01*
X89927Y-39966D01*
X90224Y-40263D01*
X90521Y-39966D01*
X90502Y-39895D01*
X92310Y-39895D01*
X92288Y-39917D01*
X92250Y-40009D01*
X92250Y-40109D01*
X92250Y-40222D01*
X92313Y-40284D01*
X92725Y-40284D01*
X92725Y-40276D01*
X92825Y-40276D01*
X92825Y-40284D01*
X92833Y-40284D01*
X92833Y-40384D01*
X92825Y-40384D01*
X92825Y-40797D01*
X92888Y-40859D01*
X93096Y-40859D01*
X93096Y-46207D01*
X93055Y-46167D01*
X92964Y-46129D01*
X92864Y-46129D01*
X92671Y-46129D01*
X92609Y-46191D01*
X92609Y-46644D01*
X92616Y-46644D01*
X92616Y-46744D01*
X92609Y-46744D01*
X92609Y-46751D01*
X92509Y-46751D01*
X92509Y-46744D01*
X92509Y-46644D01*
X92509Y-46191D01*
X92446Y-46129D01*
X92253Y-46129D01*
X92154Y-46129D01*
X92062Y-46167D01*
X91991Y-46237D01*
X91954Y-46329D01*
X91954Y-46581D01*
X92016Y-46644D01*
X92509Y-46644D01*
X92509Y-46744D01*
X92016Y-46744D01*
X91954Y-46806D01*
X91954Y-47058D01*
X91991Y-47150D01*
X92062Y-47220D01*
X92118Y-47244D01*
X92062Y-47267D01*
X91992Y-47337D01*
X91954Y-47429D01*
X91954Y-47528D01*
X91954Y-48158D01*
X91991Y-48250D01*
X92062Y-48320D01*
X92154Y-48359D01*
X92253Y-48359D01*
X92298Y-48359D01*
X92298Y-48819D01*
X92148Y-48819D01*
X92056Y-48857D01*
X91986Y-48927D01*
X91948Y-49019D01*
X91948Y-49119D01*
X91948Y-49719D01*
X91986Y-49811D01*
X92056Y-49881D01*
X92148Y-49919D01*
X92247Y-49919D01*
X93047Y-49919D01*
X93096Y-49899D01*
X93096Y-50139D01*
X93048Y-50119D01*
X92948Y-50119D01*
X92148Y-50119D01*
X92056Y-50157D01*
X91986Y-50227D01*
X91948Y-50319D01*
X91948Y-50419D01*
X91948Y-51019D01*
X91986Y-51111D01*
X92056Y-51181D01*
X92148Y-51219D01*
X92247Y-51219D01*
X92298Y-51219D01*
X92298Y-51614D01*
X92298Y-51648D01*
X92130Y-51816D01*
X91900Y-51816D01*
X91808Y-51854D01*
X91737Y-51925D01*
X91732Y-51938D01*
X91726Y-51925D01*
X91659Y-51857D01*
X91659Y-47371D01*
X91659Y-47056D01*
X91659Y-44478D01*
X91659Y-44064D01*
X91621Y-43972D01*
X91551Y-43902D01*
X91459Y-43864D01*
X91359Y-43864D01*
X90998Y-43864D01*
X90935Y-43926D01*
X90935Y-44221D01*
X91596Y-44221D01*
X91659Y-44159D01*
X91659Y-44064D01*
X91659Y-44478D01*
X91659Y-44384D01*
X91596Y-44321D01*
X90935Y-44321D01*
X90935Y-44616D01*
X90998Y-44679D01*
X91359Y-44679D01*
X91459Y-44679D01*
X91551Y-44640D01*
X91621Y-44570D01*
X91659Y-44478D01*
X91659Y-47056D01*
X91621Y-46964D01*
X91551Y-46894D01*
X91459Y-46856D01*
X91359Y-46856D01*
X90835Y-46856D01*
X90835Y-44616D01*
X90835Y-44321D01*
X90835Y-44221D01*
X90835Y-43926D01*
X90773Y-43864D01*
X90411Y-43864D01*
X90312Y-43864D01*
X90220Y-43902D01*
X90150Y-43972D01*
X90112Y-44064D01*
X90112Y-44159D01*
X90174Y-44221D01*
X90835Y-44221D01*
X90835Y-44321D01*
X90174Y-44321D01*
X90112Y-44384D01*
X90112Y-44478D01*
X90150Y-44570D01*
X90220Y-44640D01*
X90312Y-44679D01*
X90411Y-44679D01*
X90773Y-44679D01*
X90835Y-44616D01*
X90835Y-46856D01*
X90312Y-46856D01*
X90220Y-46894D01*
X90150Y-46964D01*
X90112Y-47056D01*
X90112Y-47155D01*
X90112Y-47470D01*
X90150Y-47562D01*
X90220Y-47633D01*
X90312Y-47671D01*
X90411Y-47671D01*
X90551Y-47671D01*
X90604Y-47799D01*
X90723Y-47919D01*
X90879Y-47983D01*
X91048Y-47984D01*
X91204Y-47919D01*
X91324Y-47800D01*
X91378Y-47671D01*
X91458Y-47671D01*
X91550Y-47633D01*
X91621Y-47563D01*
X91659Y-47471D01*
X91659Y-47371D01*
X91659Y-51857D01*
X91656Y-51855D01*
X91564Y-51816D01*
X91465Y-51816D01*
X91150Y-51816D01*
X91058Y-51854D01*
X91049Y-51863D01*
X90990Y-51838D01*
X90821Y-51838D01*
X90665Y-51903D01*
X90545Y-52022D01*
X90480Y-52178D01*
X90480Y-52347D01*
X90545Y-52504D01*
X90664Y-52623D01*
X90820Y-52688D01*
X90989Y-52688D01*
X91049Y-52664D01*
X91057Y-52672D01*
X91149Y-52710D01*
X91249Y-52710D01*
X91457Y-52710D01*
X91433Y-52720D01*
X91362Y-52791D01*
X91324Y-52882D01*
X91324Y-52982D01*
X91324Y-53376D01*
X91362Y-53468D01*
X91373Y-53478D01*
X91372Y-53479D01*
X91307Y-53635D01*
X91307Y-53804D01*
X91371Y-53960D01*
X91491Y-54080D01*
X91647Y-54145D01*
X91816Y-54145D01*
X91972Y-54080D01*
X92092Y-53961D01*
X92157Y-53805D01*
X92157Y-53636D01*
X92092Y-53480D01*
X92091Y-53478D01*
X92101Y-53468D01*
X92139Y-53376D01*
X92139Y-53277D01*
X92139Y-52883D01*
X92101Y-52791D01*
X92031Y-52721D01*
X92007Y-52710D01*
X92314Y-52710D01*
X92406Y-52672D01*
X92476Y-52602D01*
X92514Y-52510D01*
X92514Y-52411D01*
X92514Y-52280D01*
X92628Y-52167D01*
X92651Y-52176D01*
X92820Y-52177D01*
X92976Y-52112D01*
X93096Y-51993D01*
X93096Y-51992D01*
X93096Y-59063D01*
X93096Y-59063D01*
G37*
G54D27*
X93096Y-59063D02*
X93085Y-59063D01*
X92928Y-59127D01*
X92868Y-59188D01*
X92354Y-59188D01*
X92354Y-59108D01*
X92289Y-58952D01*
X92170Y-58832D01*
X92157Y-58827D01*
X92157Y-58675D01*
X92092Y-58519D01*
X91973Y-58399D01*
X91817Y-58334D01*
X91648Y-58334D01*
X91491Y-58399D01*
X91420Y-58470D01*
X90038Y-58470D01*
X90038Y-49563D01*
X90038Y-48862D01*
X90038Y-48762D01*
X90000Y-48670D01*
X89930Y-48600D01*
X89838Y-48562D01*
X89601Y-48562D01*
X89538Y-48625D01*
X89538Y-49162D01*
X89976Y-49162D01*
X90038Y-49100D01*
X90038Y-48862D01*
X90038Y-49563D01*
X90038Y-49325D01*
X89976Y-49262D01*
X89538Y-49262D01*
X89538Y-49800D01*
X89601Y-49862D01*
X89838Y-49862D01*
X89930Y-49824D01*
X90000Y-49754D01*
X90038Y-49662D01*
X90038Y-49563D01*
X90038Y-58470D01*
X89993Y-58470D01*
X89993Y-54949D01*
X89993Y-54498D01*
X89993Y-54399D01*
X89955Y-54307D01*
X89884Y-54237D01*
X89793Y-54199D01*
X89581Y-54199D01*
X89518Y-54261D01*
X89518Y-54674D01*
X89931Y-54674D01*
X89993Y-54611D01*
X89993Y-54498D01*
X89993Y-54949D01*
X89993Y-54836D01*
X89931Y-54774D01*
X89518Y-54774D01*
X89518Y-55186D01*
X89581Y-55249D01*
X89793Y-55249D01*
X89884Y-55211D01*
X89955Y-55141D01*
X89993Y-55049D01*
X89993Y-54949D01*
X89993Y-58470D01*
X89438Y-58470D01*
X89438Y-49800D01*
X89438Y-49262D01*
X89438Y-49162D01*
X89438Y-48625D01*
X89376Y-48562D01*
X89139Y-48562D01*
X89047Y-48600D01*
X88976Y-48670D01*
X88938Y-48762D01*
X88938Y-48862D01*
X88938Y-49100D01*
X89001Y-49162D01*
X89438Y-49162D01*
X89438Y-49262D01*
X89001Y-49262D01*
X88938Y-49325D01*
X88938Y-49563D01*
X88938Y-49662D01*
X88976Y-49754D01*
X89047Y-49824D01*
X89139Y-49862D01*
X89376Y-49862D01*
X89438Y-49800D01*
X89438Y-58470D01*
X89418Y-58470D01*
X89418Y-55186D01*
X89418Y-54774D01*
X89418Y-54674D01*
X89418Y-54261D01*
X89356Y-54199D01*
X89143Y-54199D01*
X89052Y-54237D01*
X88981Y-54307D01*
X88943Y-54399D01*
X88943Y-54498D01*
X88943Y-54611D01*
X89006Y-54674D01*
X89418Y-54674D01*
X89418Y-54774D01*
X89006Y-54774D01*
X88943Y-54836D01*
X88943Y-54949D01*
X88943Y-55049D01*
X88981Y-55141D01*
X89052Y-55211D01*
X89143Y-55249D01*
X89356Y-55249D01*
X89418Y-55186D01*
X89418Y-58470D01*
X88738Y-58470D01*
X88738Y-49563D01*
X88738Y-48763D01*
X88700Y-48671D01*
X88630Y-48600D01*
X88538Y-48562D01*
X88439Y-48562D01*
X87839Y-48562D01*
X87747Y-48600D01*
X87676Y-48670D01*
X87638Y-48762D01*
X87638Y-48862D01*
X87638Y-48912D01*
X86112Y-48912D01*
X86077Y-48828D01*
X85896Y-48647D01*
X85660Y-48549D01*
X85404Y-48549D01*
X85167Y-48646D01*
X84986Y-48827D01*
X84887Y-49064D01*
X84887Y-49320D01*
X84985Y-49557D01*
X85166Y-49738D01*
X85402Y-49836D01*
X85658Y-49836D01*
X85895Y-49738D01*
X86076Y-49558D01*
X86095Y-49512D01*
X87638Y-49512D01*
X87638Y-49662D01*
X87676Y-49754D01*
X87746Y-49824D01*
X87838Y-49862D01*
X87938Y-49862D01*
X88538Y-49862D01*
X88630Y-49824D01*
X88700Y-49754D01*
X88738Y-49662D01*
X88738Y-49563D01*
X88738Y-58470D01*
X88732Y-58470D01*
X88732Y-50959D01*
X88667Y-50802D01*
X88548Y-50683D01*
X88391Y-50618D01*
X88222Y-50618D01*
X88110Y-50664D01*
X86842Y-50664D01*
X86842Y-50565D01*
X86777Y-50409D01*
X86658Y-50289D01*
X86543Y-50241D01*
X86482Y-50094D01*
X86363Y-49974D01*
X86206Y-49909D01*
X86037Y-49909D01*
X85881Y-49974D01*
X85821Y-50034D01*
X83803Y-50034D01*
X83842Y-49941D01*
X83842Y-49783D01*
X83782Y-49637D01*
X83670Y-49525D01*
X83524Y-49464D01*
X83366Y-49464D01*
X83219Y-49524D01*
X83149Y-49595D01*
X83079Y-49525D01*
X82933Y-49464D01*
X82775Y-49464D01*
X82629Y-49524D01*
X82559Y-49595D01*
X82489Y-49525D01*
X82343Y-49464D01*
X82185Y-49464D01*
X82038Y-49524D01*
X81968Y-49595D01*
X81898Y-49525D01*
X81752Y-49464D01*
X81594Y-49464D01*
X81448Y-49524D01*
X81382Y-49590D01*
X81382Y-49376D01*
X82388Y-48370D01*
X86903Y-48370D01*
X86963Y-48430D01*
X87119Y-48495D01*
X87288Y-48495D01*
X87445Y-48431D01*
X87564Y-48311D01*
X87629Y-48155D01*
X87629Y-47986D01*
X87565Y-47830D01*
X87445Y-47710D01*
X87289Y-47645D01*
X87120Y-47645D01*
X86964Y-47710D01*
X86903Y-47770D01*
X82263Y-47770D01*
X82148Y-47793D01*
X82051Y-47858D01*
X80870Y-49039D01*
X80805Y-49137D01*
X80782Y-49251D01*
X80782Y-49590D01*
X80717Y-49525D01*
X80571Y-49464D01*
X80413Y-49464D01*
X80267Y-49524D01*
X80155Y-49636D01*
X80124Y-49709D01*
X80106Y-49728D01*
X80106Y-49586D01*
X80097Y-49507D01*
X79946Y-49459D01*
X79789Y-49472D01*
X79705Y-49507D01*
X79697Y-49586D01*
X79901Y-49791D01*
X80106Y-49586D01*
X80106Y-49728D01*
X79972Y-49862D01*
X80124Y-50014D01*
X80154Y-50087D01*
X80266Y-50199D01*
X80412Y-50259D01*
X80570Y-50259D01*
X80717Y-50199D01*
X80787Y-50129D01*
X80857Y-50199D01*
X81003Y-50259D01*
X81161Y-50259D01*
X81307Y-50199D01*
X81377Y-50129D01*
X81447Y-50199D01*
X81593Y-50259D01*
X81751Y-50259D01*
X81898Y-50199D01*
X81968Y-50129D01*
X82038Y-50199D01*
X82184Y-50259D01*
X82342Y-50259D01*
X82488Y-50199D01*
X82554Y-50134D01*
X82554Y-50177D01*
X82577Y-50291D01*
X82642Y-50389D01*
X82799Y-50546D01*
X82799Y-50546D01*
X82897Y-50611D01*
X83011Y-50634D01*
X83019Y-50634D01*
X83019Y-50664D01*
X81974Y-50664D01*
X81914Y-50604D01*
X81758Y-50539D01*
X81589Y-50539D01*
X81432Y-50604D01*
X81313Y-50723D01*
X81248Y-50879D01*
X81248Y-51048D01*
X81312Y-51204D01*
X81432Y-51324D01*
X81588Y-51389D01*
X81757Y-51389D01*
X81858Y-51347D01*
X81858Y-51363D01*
X81922Y-51519D01*
X82042Y-51639D01*
X82198Y-51704D01*
X82367Y-51704D01*
X82523Y-51640D01*
X82584Y-51579D01*
X85466Y-51579D01*
X85546Y-51659D01*
X85702Y-51724D01*
X85871Y-51724D01*
X86027Y-51659D01*
X86147Y-51540D01*
X86212Y-51384D01*
X86212Y-51264D01*
X87938Y-51264D01*
X87946Y-51283D01*
X88066Y-51403D01*
X88222Y-51468D01*
X88391Y-51468D01*
X88547Y-51403D01*
X88667Y-51284D01*
X88732Y-51128D01*
X88732Y-50959D01*
X88732Y-58470D01*
X84231Y-58470D01*
X84227Y-58460D01*
X84157Y-58390D01*
X84133Y-58380D01*
X84440Y-58380D01*
X84532Y-58342D01*
X84602Y-58271D01*
X84618Y-58233D01*
X85250Y-58233D01*
X85251Y-58234D01*
X85407Y-58298D01*
X85576Y-58299D01*
X85732Y-58234D01*
X85852Y-58115D01*
X85917Y-57958D01*
X85917Y-57789D01*
X85852Y-57633D01*
X85733Y-57513D01*
X85577Y-57449D01*
X85407Y-57448D01*
X85251Y-57513D01*
X85132Y-57632D01*
X85131Y-57633D01*
X84618Y-57633D01*
X84602Y-57594D01*
X84532Y-57524D01*
X84440Y-57486D01*
X84341Y-57486D01*
X84026Y-57486D01*
X83934Y-57524D01*
X83907Y-57550D01*
X83844Y-57397D01*
X83725Y-57277D01*
X83569Y-57212D01*
X83400Y-57212D01*
X83243Y-57277D01*
X83124Y-57396D01*
X83059Y-57552D01*
X83059Y-57721D01*
X83075Y-57762D01*
X83075Y-57785D01*
X83075Y-58179D01*
X83113Y-58271D01*
X83183Y-58341D01*
X83275Y-58380D01*
X83375Y-58380D01*
X83583Y-58380D01*
X83559Y-58390D01*
X83518Y-58431D01*
X82420Y-58431D01*
X82416Y-58421D01*
X82346Y-58350D01*
X82322Y-58340D01*
X82629Y-58340D01*
X82721Y-58302D01*
X82791Y-58232D01*
X82829Y-58140D01*
X82829Y-58041D01*
X82829Y-57647D01*
X82791Y-57555D01*
X82721Y-57484D01*
X82651Y-57456D01*
X82643Y-57436D01*
X82524Y-57317D01*
X82368Y-57252D01*
X82199Y-57252D01*
X82043Y-57316D01*
X81923Y-57436D01*
X81913Y-57460D01*
X81879Y-57446D01*
X81780Y-57446D01*
X81465Y-57446D01*
X81459Y-57449D01*
X81313Y-57448D01*
X81157Y-57513D01*
X81037Y-57632D01*
X80972Y-57789D01*
X80972Y-57958D01*
X81037Y-58114D01*
X81156Y-58234D01*
X81312Y-58298D01*
X81369Y-58298D01*
X81372Y-58302D01*
X81464Y-58340D01*
X81564Y-58340D01*
X81772Y-58340D01*
X81748Y-58350D01*
X81677Y-58420D01*
X81673Y-58431D01*
X80374Y-58431D01*
X80248Y-58456D01*
X80229Y-58468D01*
X80229Y-58237D01*
X80229Y-57786D01*
X80229Y-57686D01*
X80191Y-57595D01*
X80121Y-57524D01*
X80029Y-57486D01*
X79817Y-57486D01*
X79754Y-57549D01*
X79754Y-57961D01*
X80167Y-57961D01*
X80229Y-57899D01*
X80229Y-57786D01*
X80229Y-58237D01*
X80229Y-58124D01*
X80167Y-58061D01*
X79754Y-58061D01*
X79754Y-58474D01*
X79817Y-58536D01*
X80029Y-58536D01*
X80121Y-58498D01*
X80191Y-58428D01*
X80229Y-58336D01*
X80229Y-58237D01*
X80229Y-58468D01*
X80141Y-58527D01*
X79981Y-58687D01*
X79654Y-58687D01*
X79654Y-58474D01*
X79654Y-58061D01*
X79654Y-57961D01*
X79654Y-57549D01*
X79592Y-57486D01*
X79380Y-57486D01*
X79288Y-57524D01*
X79217Y-57595D01*
X79179Y-57686D01*
X79179Y-57786D01*
X79179Y-57899D01*
X79242Y-57961D01*
X79654Y-57961D01*
X79654Y-58061D01*
X79242Y-58061D01*
X79179Y-58124D01*
X79179Y-58237D01*
X79179Y-58336D01*
X79217Y-58428D01*
X79288Y-58498D01*
X79380Y-58536D01*
X79592Y-58536D01*
X79654Y-58474D01*
X79654Y-58687D01*
X78439Y-58687D01*
X78439Y-58336D01*
X78401Y-58244D01*
X78330Y-58173D01*
X78306Y-58163D01*
X78613Y-58163D01*
X78705Y-58125D01*
X78711Y-58119D01*
X78862Y-58057D01*
X78982Y-57937D01*
X79046Y-57781D01*
X79047Y-57612D01*
X78982Y-57456D01*
X78863Y-57336D01*
X78713Y-57274D01*
X78794Y-57220D01*
X79011Y-57003D01*
X79011Y-57003D01*
X79076Y-56906D01*
X79099Y-56791D01*
X79099Y-56791D01*
X79099Y-56751D01*
X79135Y-56736D01*
X79299Y-56573D01*
X79462Y-56735D01*
X79680Y-56826D01*
X79916Y-56826D01*
X80135Y-56736D01*
X80299Y-56573D01*
X80462Y-56735D01*
X80680Y-56826D01*
X80916Y-56826D01*
X81135Y-56736D01*
X81299Y-56573D01*
X81462Y-56735D01*
X81680Y-56826D01*
X81916Y-56826D01*
X82135Y-56736D01*
X82299Y-56573D01*
X82462Y-56735D01*
X82680Y-56826D01*
X82916Y-56826D01*
X83135Y-56736D01*
X83302Y-56569D01*
X83393Y-56351D01*
X83393Y-56114D01*
X83393Y-52114D01*
X83303Y-51895D01*
X83136Y-51728D01*
X82917Y-51637D01*
X82681Y-51637D01*
X82462Y-51728D01*
X82299Y-51891D01*
X82136Y-51728D01*
X81917Y-51637D01*
X81681Y-51637D01*
X81462Y-51728D01*
X81299Y-51891D01*
X81136Y-51728D01*
X80917Y-51637D01*
X80681Y-51637D01*
X80462Y-51728D01*
X80299Y-51891D01*
X80136Y-51728D01*
X80106Y-51716D01*
X80106Y-50137D01*
X79901Y-49932D01*
X79830Y-50003D01*
X79830Y-49862D01*
X79678Y-49709D01*
X79648Y-49637D01*
X79536Y-49525D01*
X79390Y-49464D01*
X79232Y-49464D01*
X79086Y-49524D01*
X79015Y-49595D01*
X78946Y-49525D01*
X78799Y-49464D01*
X78641Y-49464D01*
X78495Y-49524D01*
X78425Y-49595D01*
X78355Y-49525D01*
X78209Y-49464D01*
X78051Y-49464D01*
X77904Y-49524D01*
X77834Y-49595D01*
X77764Y-49525D01*
X77618Y-49464D01*
X77460Y-49464D01*
X77314Y-49524D01*
X77244Y-49595D01*
X77174Y-49525D01*
X77028Y-49464D01*
X76870Y-49464D01*
X76723Y-49524D01*
X76653Y-49595D01*
X76583Y-49525D01*
X76437Y-49464D01*
X76279Y-49464D01*
X76133Y-49524D01*
X76062Y-49595D01*
X75993Y-49525D01*
X75847Y-49464D01*
X75688Y-49464D01*
X75542Y-49524D01*
X75472Y-49595D01*
X75402Y-49525D01*
X75256Y-49464D01*
X75098Y-49464D01*
X74952Y-49524D01*
X74881Y-49595D01*
X74812Y-49525D01*
X74666Y-49464D01*
X74507Y-49464D01*
X74361Y-49524D01*
X74291Y-49595D01*
X74221Y-49525D01*
X74075Y-49464D01*
X73917Y-49464D01*
X73771Y-49524D01*
X73659Y-49636D01*
X73598Y-49782D01*
X73598Y-49940D01*
X73658Y-50087D01*
X73770Y-50199D01*
X73916Y-50259D01*
X74074Y-50259D01*
X74221Y-50199D01*
X74291Y-50129D01*
X74361Y-50199D01*
X74507Y-50259D01*
X74665Y-50259D01*
X74811Y-50199D01*
X74881Y-50129D01*
X74951Y-50199D01*
X75097Y-50259D01*
X75255Y-50259D01*
X75402Y-50199D01*
X75472Y-50129D01*
X75542Y-50199D01*
X75688Y-50259D01*
X75846Y-50259D01*
X75992Y-50199D01*
X76063Y-50129D01*
X76132Y-50199D01*
X76278Y-50259D01*
X76437Y-50259D01*
X76583Y-50199D01*
X76653Y-50129D01*
X76723Y-50199D01*
X76869Y-50259D01*
X77027Y-50259D01*
X77173Y-50199D01*
X77244Y-50129D01*
X77313Y-50199D01*
X77459Y-50259D01*
X77618Y-50259D01*
X77764Y-50199D01*
X77834Y-50129D01*
X77904Y-50199D01*
X78050Y-50259D01*
X78208Y-50259D01*
X78354Y-50199D01*
X78425Y-50129D01*
X78494Y-50199D01*
X78641Y-50259D01*
X78799Y-50259D01*
X78945Y-50199D01*
X79015Y-50129D01*
X79085Y-50199D01*
X79231Y-50259D01*
X79389Y-50259D01*
X79535Y-50199D01*
X79647Y-50087D01*
X79678Y-50014D01*
X79830Y-49862D01*
X79830Y-50003D01*
X79697Y-50137D01*
X79705Y-50217D01*
X79856Y-50265D01*
X80013Y-50251D01*
X80097Y-50217D01*
X80106Y-50137D01*
X80106Y-51716D01*
X79917Y-51637D01*
X79681Y-51637D01*
X79462Y-51728D01*
X79299Y-51891D01*
X79136Y-51728D01*
X78917Y-51637D01*
X78681Y-51637D01*
X78462Y-51728D01*
X78299Y-51891D01*
X78136Y-51728D01*
X77917Y-51637D01*
X77681Y-51637D01*
X77462Y-51728D01*
X77299Y-51891D01*
X77136Y-51728D01*
X76917Y-51637D01*
X76681Y-51637D01*
X76462Y-51728D01*
X76299Y-51891D01*
X76136Y-51728D01*
X75917Y-51637D01*
X75681Y-51637D01*
X75462Y-51728D01*
X75295Y-51895D01*
X75280Y-51932D01*
X72553Y-51932D01*
X72553Y-49065D01*
X72455Y-48828D01*
X72274Y-48647D01*
X72038Y-48549D01*
X71781Y-48549D01*
X71563Y-48639D01*
X70997Y-48073D01*
X70900Y-48008D01*
X70785Y-47985D01*
X68937Y-47985D01*
X68822Y-48008D01*
X68724Y-48073D01*
X68428Y-48369D01*
X68363Y-48466D01*
X68340Y-48581D01*
X68340Y-48765D01*
X68271Y-48834D01*
X68233Y-48926D01*
X68233Y-49025D01*
X68233Y-49419D01*
X68271Y-49511D01*
X68341Y-49582D01*
X68433Y-49620D01*
X68532Y-49620D01*
X68740Y-49620D01*
X68716Y-49630D01*
X68646Y-49700D01*
X68608Y-49792D01*
X68608Y-49891D01*
X68608Y-50285D01*
X68646Y-50377D01*
X68707Y-50439D01*
X68712Y-50460D01*
X68783Y-50567D01*
X68787Y-50571D01*
X68787Y-50615D01*
X68852Y-50771D01*
X68971Y-50891D01*
X69127Y-50956D01*
X69296Y-50956D01*
X69453Y-50892D01*
X69572Y-50772D01*
X69637Y-50616D01*
X69637Y-50447D01*
X69573Y-50291D01*
X69453Y-50171D01*
X69423Y-50158D01*
X69423Y-49792D01*
X69385Y-49700D01*
X69315Y-49630D01*
X69290Y-49620D01*
X69597Y-49620D01*
X69689Y-49582D01*
X69760Y-49512D01*
X69798Y-49420D01*
X69798Y-49320D01*
X69798Y-49220D01*
X69945Y-49159D01*
X70064Y-49040D01*
X70129Y-48884D01*
X70129Y-48715D01*
X70076Y-48585D01*
X70661Y-48585D01*
X71265Y-49190D01*
X71265Y-49320D01*
X71363Y-49557D01*
X71544Y-49738D01*
X71780Y-49836D01*
X72036Y-49836D01*
X72273Y-49738D01*
X72454Y-49558D01*
X72553Y-49321D01*
X72553Y-49065D01*
X72553Y-51932D01*
X69876Y-51932D01*
X68932Y-50988D01*
X68835Y-50923D01*
X68720Y-50900D01*
X68621Y-50900D01*
X68621Y-50751D01*
X68583Y-50659D01*
X68513Y-50588D01*
X68421Y-50550D01*
X68321Y-50550D01*
X67721Y-50550D01*
X67629Y-50588D01*
X67559Y-50658D01*
X67521Y-50750D01*
X67521Y-50850D01*
X67521Y-51650D01*
X67559Y-51742D01*
X67629Y-51812D01*
X67719Y-51849D01*
X67702Y-51849D01*
X67610Y-51887D01*
X67539Y-51958D01*
X67501Y-52050D01*
X67501Y-52149D01*
X67501Y-52949D01*
X67539Y-53041D01*
X67609Y-53111D01*
X67629Y-53120D01*
X67610Y-53128D01*
X67539Y-53198D01*
X67501Y-53290D01*
X67501Y-53389D01*
X67501Y-54189D01*
X67539Y-54281D01*
X67608Y-54350D01*
X67539Y-54418D01*
X67501Y-54510D01*
X67501Y-54610D01*
X67501Y-55410D01*
X67539Y-55502D01*
X67609Y-55572D01*
X67629Y-55580D01*
X67610Y-55588D01*
X67539Y-55658D01*
X67501Y-55750D01*
X67501Y-55850D01*
X67501Y-56650D01*
X67539Y-56742D01*
X67609Y-56812D01*
X67701Y-56850D01*
X67801Y-56850D01*
X68401Y-56850D01*
X68493Y-56812D01*
X68563Y-56742D01*
X68601Y-56650D01*
X68601Y-56551D01*
X68601Y-56500D01*
X68759Y-56500D01*
X68759Y-56500D01*
X68874Y-56477D01*
X68874Y-56477D01*
X68971Y-56412D01*
X72033Y-53351D01*
X73812Y-53351D01*
X74394Y-53932D01*
X74491Y-53997D01*
X74606Y-54020D01*
X76722Y-54020D01*
X76722Y-54020D01*
X76836Y-53997D01*
X76836Y-53997D01*
X76934Y-53932D01*
X77200Y-53666D01*
X80492Y-53666D01*
X80492Y-53666D01*
X80606Y-53643D01*
X80606Y-53643D01*
X80704Y-53578D01*
X81011Y-53271D01*
X81011Y-53271D01*
X81076Y-53173D01*
X81099Y-53059D01*
X81099Y-53059D01*
X81099Y-52751D01*
X81135Y-52736D01*
X81299Y-52573D01*
X81462Y-52735D01*
X81680Y-52826D01*
X81916Y-52826D01*
X82135Y-52736D01*
X82299Y-52573D01*
X82462Y-52735D01*
X82680Y-52826D01*
X82916Y-52826D01*
X83135Y-52736D01*
X83302Y-52569D01*
X83393Y-52351D01*
X83393Y-52114D01*
X83393Y-56114D01*
X83303Y-55895D01*
X83136Y-55728D01*
X82917Y-55637D01*
X82681Y-55637D01*
X82462Y-55728D01*
X82299Y-55891D01*
X82136Y-55728D01*
X81917Y-55637D01*
X81681Y-55637D01*
X81462Y-55728D01*
X81299Y-55891D01*
X81136Y-55728D01*
X80917Y-55637D01*
X80681Y-55637D01*
X80462Y-55728D01*
X80299Y-55891D01*
X80136Y-55728D01*
X79917Y-55637D01*
X79681Y-55637D01*
X79462Y-55728D01*
X79299Y-55891D01*
X79136Y-55728D01*
X78917Y-55637D01*
X78681Y-55637D01*
X78462Y-55728D01*
X78299Y-55891D01*
X78136Y-55728D01*
X78017Y-55679D01*
X78075Y-55655D01*
X78194Y-55536D01*
X78259Y-55380D01*
X78259Y-55260D01*
X81470Y-55260D01*
X81530Y-55320D01*
X81686Y-55385D01*
X81855Y-55385D01*
X82012Y-55321D01*
X82131Y-55201D01*
X82196Y-55045D01*
X82196Y-54876D01*
X82132Y-54720D01*
X82012Y-54600D01*
X81856Y-54535D01*
X81687Y-54535D01*
X81531Y-54600D01*
X81470Y-54660D01*
X74041Y-54660D01*
X74000Y-54620D01*
X73844Y-54555D01*
X73675Y-54555D01*
X73519Y-54619D01*
X73399Y-54739D01*
X73334Y-54895D01*
X73334Y-55064D01*
X73399Y-55220D01*
X73518Y-55340D01*
X73674Y-55405D01*
X73755Y-55405D01*
X73793Y-55496D01*
X73912Y-55615D01*
X74068Y-55680D01*
X74237Y-55680D01*
X74393Y-55616D01*
X74415Y-55595D01*
X77533Y-55595D01*
X77593Y-55655D01*
X77616Y-55664D01*
X77462Y-55728D01*
X77299Y-55891D01*
X77136Y-55728D01*
X76917Y-55637D01*
X76681Y-55637D01*
X76462Y-55728D01*
X76299Y-55891D01*
X76136Y-55728D01*
X75917Y-55637D01*
X75681Y-55637D01*
X75462Y-55728D01*
X75295Y-55895D01*
X75280Y-55932D01*
X72727Y-55932D01*
X72722Y-55920D01*
X72603Y-55801D01*
X72447Y-55736D01*
X72278Y-55736D01*
X72121Y-55800D01*
X72002Y-55920D01*
X71937Y-56076D01*
X71937Y-56245D01*
X72001Y-56401D01*
X72121Y-56521D01*
X72190Y-56550D01*
X70608Y-56550D01*
X70661Y-56423D01*
X70661Y-56254D01*
X70596Y-56098D01*
X70477Y-55978D01*
X70321Y-55913D01*
X70152Y-55913D01*
X69995Y-55978D01*
X69954Y-56018D01*
X69547Y-56018D01*
X69432Y-56041D01*
X69335Y-56106D01*
X68399Y-57042D01*
X68391Y-57042D01*
X68331Y-56982D01*
X68175Y-56917D01*
X68006Y-56917D01*
X67850Y-56982D01*
X67730Y-57101D01*
X67665Y-57257D01*
X67665Y-57426D01*
X67730Y-57582D01*
X67849Y-57702D01*
X68005Y-57767D01*
X68174Y-57767D01*
X68330Y-57703D01*
X68391Y-57642D01*
X68523Y-57642D01*
X68523Y-57642D01*
X68638Y-57619D01*
X68638Y-57619D01*
X68735Y-57554D01*
X68846Y-57443D01*
X68846Y-57525D01*
X68911Y-57681D01*
X69030Y-57801D01*
X69186Y-57865D01*
X69355Y-57866D01*
X69512Y-57801D01*
X69631Y-57682D01*
X69696Y-57525D01*
X69696Y-57440D01*
X69986Y-57150D01*
X72611Y-57150D01*
X72752Y-57290D01*
X72752Y-57308D01*
X72682Y-57377D01*
X72677Y-57391D01*
X72671Y-57378D01*
X72601Y-57307D01*
X72509Y-57269D01*
X72410Y-57269D01*
X72095Y-57269D01*
X72003Y-57307D01*
X71932Y-57377D01*
X71894Y-57469D01*
X71894Y-57569D01*
X71894Y-57589D01*
X71877Y-57631D01*
X71877Y-57800D01*
X71894Y-57843D01*
X71894Y-57963D01*
X71932Y-58055D01*
X72002Y-58125D01*
X72094Y-58163D01*
X72194Y-58163D01*
X72402Y-58163D01*
X72378Y-58173D01*
X72307Y-58243D01*
X72269Y-58335D01*
X72269Y-58435D01*
X72269Y-58829D01*
X72271Y-58833D01*
X67217Y-58833D01*
X67217Y-58473D01*
X67217Y-58022D01*
X67217Y-57923D01*
X67179Y-57831D01*
X67109Y-57760D01*
X67017Y-57722D01*
X66805Y-57723D01*
X66742Y-57785D01*
X66742Y-58198D01*
X67155Y-58198D01*
X67217Y-58135D01*
X67217Y-58022D01*
X67217Y-58473D01*
X67217Y-58360D01*
X67155Y-58298D01*
X66742Y-58298D01*
X66742Y-58710D01*
X66805Y-58773D01*
X67017Y-58773D01*
X67109Y-58735D01*
X67179Y-58664D01*
X67217Y-58572D01*
X67217Y-58473D01*
X67217Y-58833D01*
X66642Y-58833D01*
X66642Y-58710D01*
X66642Y-58298D01*
X66642Y-58198D01*
X66642Y-57785D01*
X66580Y-57723D01*
X66368Y-57722D01*
X66276Y-57760D01*
X66206Y-57831D01*
X66167Y-57923D01*
X66167Y-58022D01*
X66167Y-58135D01*
X66230Y-58198D01*
X66642Y-58198D01*
X66642Y-58298D01*
X66230Y-58298D01*
X66167Y-58360D01*
X66167Y-58473D01*
X66167Y-58572D01*
X66206Y-58664D01*
X66276Y-58735D01*
X66368Y-58773D01*
X66580Y-58773D01*
X66642Y-58710D01*
X66642Y-58833D01*
X65990Y-58833D01*
X65940Y-58783D01*
X65843Y-58718D01*
X65728Y-58696D01*
X65458Y-58696D01*
X65398Y-58635D01*
X65242Y-58571D01*
X65092Y-58571D01*
X65092Y-56433D01*
X65111Y-56480D01*
X65231Y-56600D01*
X65387Y-56665D01*
X65556Y-56665D01*
X65712Y-56600D01*
X65812Y-56500D01*
X66201Y-56500D01*
X66201Y-56650D01*
X66239Y-56742D01*
X66309Y-56812D01*
X66401Y-56850D01*
X66501Y-56850D01*
X67101Y-56850D01*
X67193Y-56812D01*
X67263Y-56742D01*
X67301Y-56650D01*
X67301Y-56551D01*
X67301Y-55751D01*
X67263Y-55659D01*
X67193Y-55588D01*
X67173Y-55580D01*
X67193Y-55572D01*
X67263Y-55502D01*
X67301Y-55410D01*
X67301Y-55311D01*
X67301Y-54511D01*
X67263Y-54419D01*
X67194Y-54350D01*
X67263Y-54281D01*
X67301Y-54190D01*
X67301Y-54090D01*
X67301Y-53290D01*
X67263Y-53198D01*
X67193Y-53128D01*
X67173Y-53120D01*
X67193Y-53112D01*
X67263Y-53041D01*
X67301Y-52949D01*
X67301Y-52850D01*
X67301Y-52050D01*
X67263Y-51958D01*
X67193Y-51888D01*
X67103Y-51850D01*
X67120Y-51850D01*
X67212Y-51812D01*
X67283Y-51742D01*
X67321Y-51650D01*
X67321Y-51551D01*
X67321Y-50819D01*
X67578Y-50562D01*
X67662Y-50562D01*
X67819Y-50498D01*
X67938Y-50378D01*
X68003Y-50222D01*
X68003Y-50053D01*
X67939Y-49897D01*
X67819Y-49777D01*
X67663Y-49712D01*
X67494Y-49712D01*
X67338Y-49777D01*
X67218Y-49896D01*
X67153Y-50052D01*
X67153Y-50138D01*
X66741Y-50550D01*
X66421Y-50550D01*
X66329Y-50588D01*
X66259Y-50658D01*
X66221Y-50750D01*
X66221Y-50850D01*
X66221Y-51650D01*
X66259Y-51742D01*
X66329Y-51812D01*
X66419Y-51849D01*
X66402Y-51849D01*
X66310Y-51887D01*
X66239Y-51958D01*
X66201Y-52050D01*
X66201Y-52149D01*
X66201Y-52200D01*
X65938Y-52200D01*
X65938Y-40560D01*
X65938Y-40447D01*
X65875Y-40384D01*
X65463Y-40384D01*
X65463Y-40797D01*
X65525Y-40859D01*
X65737Y-40859D01*
X65829Y-40821D01*
X65900Y-40751D01*
X65938Y-40659D01*
X65938Y-40560D01*
X65938Y-52200D01*
X65478Y-52200D01*
X65378Y-52100D01*
X65222Y-52035D01*
X65092Y-52035D01*
X65092Y-40859D01*
X65300Y-40859D01*
X65363Y-40797D01*
X65363Y-40384D01*
X65355Y-40384D01*
X65355Y-40284D01*
X65363Y-40284D01*
X65363Y-40276D01*
X65463Y-40276D01*
X65463Y-40284D01*
X65875Y-40284D01*
X65938Y-40222D01*
X65938Y-40109D01*
X65938Y-40009D01*
X65900Y-39917D01*
X65877Y-39895D01*
X67640Y-39895D01*
X67608Y-39908D01*
X67460Y-40056D01*
X67380Y-40249D01*
X67380Y-40458D01*
X67460Y-40651D01*
X67607Y-40799D01*
X67703Y-40839D01*
X67653Y-40859D01*
X67533Y-40979D01*
X67468Y-41135D01*
X67468Y-41304D01*
X67533Y-41460D01*
X67652Y-41580D01*
X67808Y-41645D01*
X67977Y-41645D01*
X68134Y-41580D01*
X68214Y-41500D01*
X69915Y-41500D01*
X69975Y-41560D01*
X70131Y-41625D01*
X70300Y-41625D01*
X70456Y-41561D01*
X70576Y-41441D01*
X70641Y-41285D01*
X70641Y-41116D01*
X70577Y-40960D01*
X70457Y-40840D01*
X70301Y-40775D01*
X70132Y-40775D01*
X69976Y-40840D01*
X69915Y-40900D01*
X69430Y-40900D01*
X69430Y-40579D01*
X69430Y-40466D01*
X69368Y-40404D01*
X68955Y-40404D01*
X68955Y-40816D01*
X69018Y-40879D01*
X69230Y-40879D01*
X69321Y-40841D01*
X69392Y-40771D01*
X69430Y-40679D01*
X69430Y-40579D01*
X69430Y-40900D01*
X68175Y-40900D01*
X68134Y-40860D01*
X68095Y-40843D01*
X68202Y-40799D01*
X68350Y-40652D01*
X68380Y-40579D01*
X68380Y-40579D01*
X68380Y-40679D01*
X68418Y-40771D01*
X68489Y-40841D01*
X68581Y-40879D01*
X68793Y-40879D01*
X68855Y-40816D01*
X68855Y-40404D01*
X68847Y-40404D01*
X68847Y-40304D01*
X68855Y-40304D01*
X68855Y-40296D01*
X68955Y-40296D01*
X68955Y-40304D01*
X69368Y-40304D01*
X69430Y-40241D01*
X69430Y-40128D01*
X69430Y-40029D01*
X69392Y-39937D01*
X69350Y-39895D01*
X88759Y-39895D01*
X88737Y-39917D01*
X88699Y-40009D01*
X88699Y-40109D01*
X88699Y-40659D01*
X88737Y-40751D01*
X88807Y-40821D01*
X88895Y-40858D01*
X88895Y-41153D01*
X88920Y-41279D01*
X88991Y-41385D01*
X89413Y-41807D01*
X89413Y-41807D01*
X89519Y-41878D01*
X89645Y-41903D01*
X91373Y-41903D01*
X91372Y-41904D01*
X91307Y-42060D01*
X91307Y-42105D01*
X91281Y-42131D01*
X85331Y-42131D01*
X85280Y-42080D01*
X85124Y-42016D01*
X84955Y-42015D01*
X84798Y-42080D01*
X84747Y-42131D01*
X69563Y-42131D01*
X69532Y-42100D01*
X69376Y-42035D01*
X69207Y-42035D01*
X69050Y-42100D01*
X68931Y-42219D01*
X68866Y-42375D01*
X68866Y-42544D01*
X68930Y-42701D01*
X69050Y-42820D01*
X69206Y-42885D01*
X69257Y-42885D01*
X69240Y-42926D01*
X69240Y-43095D01*
X69293Y-43223D01*
X67244Y-43223D01*
X67129Y-43246D01*
X67031Y-43311D01*
X66342Y-44000D01*
X66277Y-44097D01*
X66255Y-44212D01*
X66255Y-44963D01*
X66110Y-45107D01*
X66030Y-45300D01*
X66030Y-45509D01*
X66109Y-45702D01*
X66257Y-45850D01*
X66329Y-45880D01*
X66230Y-45880D01*
X66138Y-45918D01*
X66068Y-45988D01*
X66030Y-46080D01*
X66030Y-46180D01*
X66030Y-46730D01*
X66068Y-46821D01*
X66138Y-46892D01*
X66230Y-46930D01*
X66329Y-46930D01*
X66879Y-46930D01*
X66971Y-46892D01*
X67041Y-46822D01*
X67080Y-46730D01*
X67080Y-46705D01*
X67511Y-46705D01*
X67511Y-46705D01*
X67626Y-46682D01*
X67626Y-46682D01*
X67723Y-46617D01*
X68086Y-46255D01*
X68086Y-46255D01*
X68151Y-46158D01*
X68174Y-46043D01*
X68174Y-46043D01*
X68174Y-44454D01*
X68510Y-44118D01*
X86273Y-44118D01*
X86491Y-44336D01*
X86491Y-46692D01*
X86514Y-46807D01*
X86579Y-46905D01*
X87150Y-47475D01*
X87150Y-47475D01*
X87247Y-47540D01*
X87362Y-47563D01*
X87513Y-47563D01*
X87582Y-47633D01*
X87674Y-47671D01*
X87773Y-47671D01*
X88821Y-47671D01*
X88913Y-47633D01*
X88983Y-47563D01*
X89021Y-47471D01*
X89021Y-47371D01*
X89021Y-47056D01*
X88983Y-46964D01*
X88913Y-46894D01*
X88821Y-46856D01*
X88722Y-46856D01*
X87674Y-46856D01*
X87582Y-46894D01*
X87513Y-46963D01*
X87486Y-46963D01*
X87091Y-46568D01*
X87091Y-44212D01*
X87068Y-44097D01*
X87003Y-44000D01*
X87003Y-44000D01*
X86826Y-43823D01*
X87434Y-43823D01*
X87908Y-44297D01*
X87908Y-44848D01*
X87635Y-44848D01*
X87543Y-44886D01*
X87473Y-44956D01*
X87435Y-45048D01*
X87434Y-45147D01*
X87434Y-45462D01*
X87472Y-45554D01*
X87543Y-45625D01*
X87635Y-45663D01*
X87734Y-45663D01*
X88781Y-45663D01*
X88873Y-45625D01*
X88944Y-45555D01*
X88982Y-45463D01*
X88982Y-45363D01*
X88982Y-45048D01*
X88944Y-44956D01*
X88874Y-44886D01*
X88782Y-44848D01*
X88682Y-44848D01*
X88508Y-44848D01*
X88508Y-44173D01*
X88485Y-44058D01*
X88420Y-43961D01*
X88420Y-43961D01*
X87941Y-43481D01*
X88016Y-43451D01*
X88135Y-43331D01*
X88200Y-43175D01*
X88200Y-43006D01*
X88136Y-42850D01*
X88075Y-42789D01*
X91417Y-42789D01*
X91543Y-42764D01*
X91543Y-42764D01*
X91649Y-42693D01*
X91772Y-42570D01*
X91816Y-42570D01*
X91972Y-42506D01*
X92092Y-42386D01*
X92157Y-42230D01*
X92157Y-42061D01*
X92092Y-41905D01*
X92091Y-41903D01*
X92168Y-41903D01*
X92257Y-41940D01*
X92426Y-41940D01*
X92582Y-41876D01*
X92702Y-41756D01*
X92767Y-41600D01*
X92767Y-41431D01*
X92725Y-41329D01*
X92725Y-40797D01*
X92725Y-40384D01*
X92313Y-40384D01*
X92250Y-40447D01*
X92250Y-40560D01*
X92250Y-40659D01*
X92288Y-40751D01*
X92359Y-40821D01*
X92451Y-40859D01*
X92663Y-40859D01*
X92725Y-40797D01*
X92725Y-41329D01*
X92703Y-41275D01*
X92583Y-41155D01*
X92427Y-41090D01*
X92258Y-41090D01*
X92102Y-41155D01*
X92011Y-41246D01*
X90754Y-41246D01*
X90754Y-40410D01*
X90742Y-40201D01*
X90684Y-40061D01*
X90592Y-40037D01*
X90295Y-40334D01*
X90592Y-40631D01*
X90684Y-40607D01*
X90754Y-40410D01*
X90754Y-41246D01*
X90521Y-41246D01*
X90521Y-40702D01*
X90224Y-40405D01*
X89927Y-40702D01*
X89951Y-40795D01*
X90148Y-40864D01*
X90357Y-40853D01*
X90497Y-40795D01*
X90521Y-40702D01*
X90521Y-41246D01*
X89781Y-41246D01*
X89553Y-41017D01*
X89553Y-40857D01*
X89640Y-40821D01*
X89711Y-40751D01*
X89749Y-40659D01*
X89749Y-40572D01*
X89763Y-40607D01*
X89856Y-40631D01*
X90153Y-40334D01*
X89856Y-40037D01*
X89763Y-40061D01*
X89749Y-40102D01*
X89749Y-40010D01*
X89711Y-39918D01*
X89688Y-39895D01*
X89945Y-39895D01*
X89927Y-39966D01*
X90224Y-40263D01*
X90521Y-39966D01*
X90502Y-39895D01*
X92310Y-39895D01*
X92288Y-39917D01*
X92250Y-40009D01*
X92250Y-40109D01*
X92250Y-40222D01*
X92313Y-40284D01*
X92725Y-40284D01*
X92725Y-40276D01*
X92825Y-40276D01*
X92825Y-40284D01*
X92833Y-40284D01*
X92833Y-40384D01*
X92825Y-40384D01*
X92825Y-40797D01*
X92888Y-40859D01*
X93096Y-40859D01*
X93096Y-46207D01*
X93055Y-46167D01*
X92964Y-46129D01*
X92864Y-46129D01*
X92671Y-46129D01*
X92609Y-46191D01*
X92609Y-46644D01*
X92616Y-46644D01*
X92616Y-46744D01*
X92609Y-46744D01*
X92609Y-46751D01*
X92509Y-46751D01*
X92509Y-46744D01*
X92509Y-46644D01*
X92509Y-46191D01*
X92446Y-46129D01*
X92253Y-46129D01*
X92154Y-46129D01*
X92062Y-46167D01*
X91991Y-46237D01*
X91954Y-46329D01*
X91954Y-46581D01*
X92016Y-46644D01*
X92509Y-46644D01*
X92509Y-46744D01*
X92016Y-46744D01*
X91954Y-46806D01*
X91954Y-47058D01*
X91991Y-47150D01*
X92062Y-47220D01*
X92118Y-47244D01*
X92062Y-47267D01*
X91992Y-47337D01*
X91954Y-47429D01*
X91954Y-47528D01*
X91954Y-48158D01*
X91991Y-48250D01*
X92062Y-48320D01*
X92154Y-48359D01*
X92253Y-48359D01*
X92298Y-48359D01*
X92298Y-48819D01*
X92148Y-48819D01*
X92056Y-48857D01*
X91986Y-48927D01*
X91948Y-49019D01*
X91948Y-49119D01*
X91948Y-49719D01*
X91986Y-49811D01*
X92056Y-49881D01*
X92148Y-49919D01*
X92247Y-49919D01*
X93047Y-49919D01*
X93096Y-49899D01*
X93096Y-50139D01*
X93048Y-50119D01*
X92948Y-50119D01*
X92148Y-50119D01*
X92056Y-50157D01*
X91986Y-50227D01*
X91948Y-50319D01*
X91948Y-50419D01*
X91948Y-51019D01*
X91986Y-51111D01*
X92056Y-51181D01*
X92148Y-51219D01*
X92247Y-51219D01*
X92298Y-51219D01*
X92298Y-51614D01*
X92298Y-51648D01*
X92130Y-51816D01*
X91900Y-51816D01*
X91808Y-51854D01*
X91737Y-51925D01*
X91732Y-51938D01*
X91726Y-51925D01*
X91659Y-51857D01*
X91659Y-47371D01*
X91659Y-47056D01*
X91659Y-44478D01*
X91659Y-44064D01*
X91621Y-43972D01*
X91551Y-43902D01*
X91459Y-43864D01*
X91359Y-43864D01*
X90998Y-43864D01*
X90935Y-43926D01*
X90935Y-44221D01*
X91596Y-44221D01*
X91659Y-44159D01*
X91659Y-44064D01*
X91659Y-44478D01*
X91659Y-44384D01*
X91596Y-44321D01*
X90935Y-44321D01*
X90935Y-44616D01*
X90998Y-44679D01*
X91359Y-44679D01*
X91459Y-44679D01*
X91551Y-44640D01*
X91621Y-44570D01*
X91659Y-44478D01*
X91659Y-47056D01*
X91621Y-46964D01*
X91551Y-46894D01*
X91459Y-46856D01*
X91359Y-46856D01*
X90835Y-46856D01*
X90835Y-44616D01*
X90835Y-44321D01*
X90835Y-44221D01*
X90835Y-43926D01*
X90773Y-43864D01*
X90411Y-43864D01*
X90312Y-43864D01*
X90220Y-43902D01*
X90150Y-43972D01*
X90112Y-44064D01*
X90112Y-44159D01*
X90174Y-44221D01*
X90835Y-44221D01*
X90835Y-44321D01*
X90174Y-44321D01*
X90112Y-44384D01*
X90112Y-44478D01*
X90150Y-44570D01*
X90220Y-44640D01*
X90312Y-44679D01*
X90411Y-44679D01*
X90773Y-44679D01*
X90835Y-44616D01*
X90835Y-46856D01*
X90312Y-46856D01*
X90220Y-46894D01*
X90150Y-46964D01*
X90112Y-47056D01*
X90112Y-47155D01*
X90112Y-47470D01*
X90150Y-47562D01*
X90220Y-47633D01*
X90312Y-47671D01*
X90411Y-47671D01*
X90551Y-47671D01*
X90604Y-47799D01*
X90723Y-47919D01*
X90879Y-47983D01*
X91048Y-47984D01*
X91204Y-47919D01*
X91324Y-47800D01*
X91378Y-47671D01*
X91458Y-47671D01*
X91550Y-47633D01*
X91621Y-47563D01*
X91659Y-47471D01*
X91659Y-47371D01*
X91659Y-51857D01*
X91656Y-51855D01*
X91564Y-51816D01*
X91465Y-51816D01*
X91150Y-51816D01*
X91058Y-51854D01*
X91049Y-51863D01*
X90990Y-51838D01*
X90821Y-51838D01*
X90665Y-51903D01*
X90545Y-52022D01*
X90480Y-52178D01*
X90480Y-52347D01*
X90545Y-52504D01*
X90664Y-52623D01*
X90820Y-52688D01*
X90989Y-52688D01*
X91049Y-52664D01*
X91057Y-52672D01*
X91149Y-52710D01*
X91249Y-52710D01*
X91457Y-52710D01*
X91433Y-52720D01*
X91362Y-52791D01*
X91324Y-52882D01*
X91324Y-52982D01*
X91324Y-53376D01*
X91362Y-53468D01*
X91373Y-53478D01*
X91372Y-53479D01*
X91307Y-53635D01*
X91307Y-53804D01*
X91371Y-53960D01*
X91491Y-54080D01*
X91647Y-54145D01*
X91816Y-54145D01*
X91972Y-54080D01*
X92092Y-53961D01*
X92157Y-53805D01*
X92157Y-53636D01*
X92092Y-53480D01*
X92091Y-53478D01*
X92101Y-53468D01*
X92139Y-53376D01*
X92139Y-53277D01*
X92139Y-52883D01*
X92101Y-52791D01*
X92031Y-52721D01*
X92007Y-52710D01*
X92314Y-52710D01*
X92406Y-52672D01*
X92476Y-52602D01*
X92514Y-52510D01*
X92514Y-52411D01*
X92514Y-52280D01*
X92628Y-52167D01*
X92651Y-52176D01*
X92820Y-52177D01*
X92976Y-52112D01*
X93096Y-51993D01*
X93096Y-51992D01*
X93096Y-59063D01*
G54D10*
G36*
X93096Y-78057D02*
X92725Y-78057D01*
X92725Y-77805D01*
X92725Y-77392D01*
X92725Y-77292D01*
X92725Y-76880D01*
X92663Y-76817D01*
X92451Y-76817D01*
X92359Y-76855D01*
X92288Y-76925D01*
X92250Y-77017D01*
X92250Y-77117D01*
X92250Y-77230D01*
X92313Y-77292D01*
X92725Y-77292D01*
X92725Y-77392D01*
X92313Y-77392D01*
X92250Y-77455D01*
X92250Y-77568D01*
X92250Y-77667D01*
X92288Y-77759D01*
X92359Y-77829D01*
X92451Y-77867D01*
X92663Y-77867D01*
X92725Y-77805D01*
X92725Y-78057D01*
X91647Y-78057D01*
X91647Y-75939D01*
X91567Y-75746D01*
X91419Y-75598D01*
X91226Y-75518D01*
X91018Y-75518D01*
X90825Y-75597D01*
X90677Y-75745D01*
X90622Y-75878D01*
X90567Y-75746D01*
X90419Y-75598D01*
X90226Y-75518D01*
X90018Y-75518D01*
X89825Y-75597D01*
X89677Y-75745D01*
X89622Y-75878D01*
X89567Y-75746D01*
X89419Y-75598D01*
X89226Y-75518D01*
X89018Y-75518D01*
X88825Y-75597D01*
X88677Y-75745D01*
X88624Y-75872D01*
X88582Y-75770D01*
X88489Y-75746D01*
X88419Y-75816D01*
X88419Y-75675D01*
X88394Y-75582D01*
X88197Y-75513D01*
X87989Y-75524D01*
X87849Y-75582D01*
X87824Y-75675D01*
X88122Y-75972D01*
X88419Y-75675D01*
X88419Y-75816D01*
X88192Y-76043D01*
X88489Y-76340D01*
X88582Y-76316D01*
X88621Y-76206D01*
X88676Y-76340D01*
X88824Y-76488D01*
X89017Y-76568D01*
X89226Y-76568D01*
X89419Y-76488D01*
X89566Y-76341D01*
X89622Y-76208D01*
X89676Y-76340D01*
X89824Y-76488D01*
X90017Y-76568D01*
X90226Y-76568D01*
X90419Y-76488D01*
X90566Y-76341D01*
X90622Y-76208D01*
X90676Y-76340D01*
X90824Y-76488D01*
X91017Y-76568D01*
X91226Y-76568D01*
X91419Y-76488D01*
X91566Y-76341D01*
X91646Y-76148D01*
X91647Y-75939D01*
X91647Y-78057D01*
X88419Y-78057D01*
X88419Y-76411D01*
X88122Y-76114D01*
X87824Y-76411D01*
X87849Y-76503D01*
X88046Y-76573D01*
X88254Y-76561D01*
X88394Y-76503D01*
X88419Y-76411D01*
X88419Y-78057D01*
X88199Y-78057D01*
X88256Y-78033D01*
X88327Y-77963D01*
X88365Y-77871D01*
X88365Y-77771D01*
X88365Y-76971D01*
X88327Y-76879D01*
X88257Y-76809D01*
X88165Y-76771D01*
X88065Y-76771D01*
X88043Y-76771D01*
X87580Y-76308D01*
X87619Y-76214D01*
X87661Y-76316D01*
X87754Y-76340D01*
X88051Y-76043D01*
X87754Y-75746D01*
X87661Y-75770D01*
X87622Y-75880D01*
X87567Y-75746D01*
X87450Y-75629D01*
X87450Y-75389D01*
X87425Y-75263D01*
X87425Y-75263D01*
X87354Y-75157D01*
X87320Y-75122D01*
X87573Y-75122D01*
X87652Y-75202D01*
X87808Y-75267D01*
X87977Y-75267D01*
X88134Y-75203D01*
X88253Y-75083D01*
X88318Y-74927D01*
X88318Y-74768D01*
X88655Y-74768D01*
X88715Y-74828D01*
X88748Y-74842D01*
X88748Y-75005D01*
X88812Y-75161D01*
X88932Y-75281D01*
X89088Y-75346D01*
X89257Y-75346D01*
X89413Y-75281D01*
X89474Y-75221D01*
X92154Y-75221D01*
X92218Y-75247D01*
X92387Y-75247D01*
X92543Y-75183D01*
X92663Y-75063D01*
X92728Y-74907D01*
X92728Y-74738D01*
X92663Y-74582D01*
X92544Y-74462D01*
X92413Y-74408D01*
X92413Y-74364D01*
X92348Y-74208D01*
X92229Y-74088D01*
X92073Y-74023D01*
X91904Y-74023D01*
X91747Y-74088D01*
X91628Y-74207D01*
X91603Y-74266D01*
X91574Y-74266D01*
X91586Y-74238D01*
X91586Y-74069D01*
X91521Y-73913D01*
X91402Y-73793D01*
X91246Y-73728D01*
X91077Y-73728D01*
X90920Y-73793D01*
X90860Y-73853D01*
X89932Y-73853D01*
X89932Y-73754D01*
X89868Y-73598D01*
X89748Y-73478D01*
X89592Y-73413D01*
X89528Y-73413D01*
X89474Y-73283D01*
X89355Y-73163D01*
X89199Y-73098D01*
X89030Y-73098D01*
X88873Y-73163D01*
X88813Y-73223D01*
X88655Y-73223D01*
X88724Y-73195D01*
X88844Y-73075D01*
X88909Y-72919D01*
X88909Y-72750D01*
X88844Y-72594D01*
X88725Y-72474D01*
X88569Y-72409D01*
X88400Y-72409D01*
X88243Y-72474D01*
X88187Y-72530D01*
X87688Y-72530D01*
X87718Y-72459D01*
X87718Y-72359D01*
X87718Y-72202D01*
X87680Y-72110D01*
X87650Y-72080D01*
X87680Y-72051D01*
X87718Y-71959D01*
X87718Y-71859D01*
X87718Y-71702D01*
X87680Y-71610D01*
X87650Y-71580D01*
X87680Y-71551D01*
X87718Y-71459D01*
X87718Y-71359D01*
X87718Y-71202D01*
X87680Y-71110D01*
X87650Y-71080D01*
X87680Y-71051D01*
X87718Y-70959D01*
X87718Y-70859D01*
X87718Y-70702D01*
X87680Y-70610D01*
X87650Y-70580D01*
X87680Y-70551D01*
X87718Y-70459D01*
X87718Y-70359D01*
X87718Y-70202D01*
X87680Y-70110D01*
X87650Y-70080D01*
X87680Y-70050D01*
X87718Y-69958D01*
X87718Y-69932D01*
X87656Y-69870D01*
X87164Y-69870D01*
X87164Y-69888D01*
X87064Y-69888D01*
X87064Y-69870D01*
X86572Y-69870D01*
X86509Y-69932D01*
X86509Y-69958D01*
X86539Y-70030D01*
X85592Y-70030D01*
X85556Y-69994D01*
X85399Y-69929D01*
X85230Y-69929D01*
X85074Y-69993D01*
X84954Y-70113D01*
X84890Y-70269D01*
X84889Y-70438D01*
X84954Y-70594D01*
X85066Y-70707D01*
X85027Y-70800D01*
X85027Y-70969D01*
X85092Y-71126D01*
X85211Y-71245D01*
X85362Y-71308D01*
X85362Y-71422D01*
X85426Y-71579D01*
X85546Y-71698D01*
X85681Y-71754D01*
X85677Y-71765D01*
X85677Y-71934D01*
X85741Y-72090D01*
X85861Y-72210D01*
X85973Y-72256D01*
X85972Y-72257D01*
X85972Y-72426D01*
X86037Y-72582D01*
X86156Y-72702D01*
X86312Y-72767D01*
X86481Y-72767D01*
X86509Y-72756D01*
X86509Y-72801D01*
X86509Y-72958D01*
X86524Y-72995D01*
X86513Y-73007D01*
X85897Y-73007D01*
X85897Y-72907D01*
X85832Y-72751D01*
X85713Y-72632D01*
X85557Y-72567D01*
X85499Y-72567D01*
X85478Y-72515D01*
X85359Y-72395D01*
X85208Y-72333D01*
X85208Y-72218D01*
X85143Y-72062D01*
X85024Y-71943D01*
X84876Y-71881D01*
X84829Y-71767D01*
X84709Y-71647D01*
X84570Y-71590D01*
X84514Y-71452D01*
X84394Y-71332D01*
X84238Y-71267D01*
X84233Y-71267D01*
X84179Y-71137D01*
X84059Y-71017D01*
X83957Y-70975D01*
X83957Y-68439D01*
X83957Y-67839D01*
X83919Y-67747D01*
X83848Y-67677D01*
X83757Y-67639D01*
X83657Y-67639D01*
X82857Y-67639D01*
X82765Y-67677D01*
X82695Y-67747D01*
X82657Y-67839D01*
X82657Y-67938D01*
X82657Y-68166D01*
X82630Y-68140D01*
X82630Y-67439D01*
X82717Y-67352D01*
X82765Y-67401D01*
X82857Y-67439D01*
X82956Y-67439D01*
X83756Y-67439D01*
X83848Y-67401D01*
X83918Y-67331D01*
X83957Y-67239D01*
X83957Y-67139D01*
X83957Y-66539D01*
X83919Y-66447D01*
X83848Y-66377D01*
X83757Y-66339D01*
X83657Y-66339D01*
X82857Y-66339D01*
X82765Y-66377D01*
X82695Y-66447D01*
X82657Y-66539D01*
X82657Y-66609D01*
X82641Y-66612D01*
X82544Y-66677D01*
X82118Y-67102D01*
X82053Y-67200D01*
X82030Y-67314D01*
X82030Y-68140D01*
X81968Y-68202D01*
X81930Y-68293D01*
X81930Y-68393D01*
X81930Y-68593D01*
X81968Y-68685D01*
X82038Y-68755D01*
X82130Y-68793D01*
X82230Y-68793D01*
X82530Y-68793D01*
X82622Y-68755D01*
X82692Y-68685D01*
X82709Y-68645D01*
X82765Y-68701D01*
X82787Y-68710D01*
X82720Y-68776D01*
X82682Y-68868D01*
X82682Y-68904D01*
X82645Y-68904D01*
X82622Y-68882D01*
X82530Y-68843D01*
X82431Y-68843D01*
X82131Y-68843D01*
X82039Y-68881D01*
X81968Y-68952D01*
X81930Y-69043D01*
X81930Y-69143D01*
X81930Y-69343D01*
X81968Y-69435D01*
X81970Y-69437D01*
X81805Y-69437D01*
X81730Y-69468D01*
X81730Y-69244D01*
X81730Y-69044D01*
X81715Y-69006D01*
X81730Y-68968D01*
X81730Y-68931D01*
X81668Y-68868D01*
X81590Y-68868D01*
X81530Y-68843D01*
X81431Y-68843D01*
X81272Y-68843D01*
X81272Y-68793D01*
X81530Y-68793D01*
X81590Y-68768D01*
X81668Y-68768D01*
X81730Y-68706D01*
X81730Y-68669D01*
X81715Y-68631D01*
X81730Y-68593D01*
X81730Y-68494D01*
X81730Y-68294D01*
X81692Y-68202D01*
X81622Y-68132D01*
X81530Y-68093D01*
X81431Y-68093D01*
X81131Y-68093D01*
X81079Y-68115D01*
X80987Y-68115D01*
X80852Y-68059D01*
X80683Y-68059D01*
X80590Y-68097D01*
X80590Y-67564D01*
X80590Y-66864D01*
X80590Y-66264D01*
X80553Y-66172D01*
X80482Y-66101D01*
X80390Y-66063D01*
X80291Y-66063D01*
X79491Y-66063D01*
X79399Y-66101D01*
X79329Y-66171D01*
X79290Y-66263D01*
X79290Y-66339D01*
X79197Y-66401D01*
X78437Y-67161D01*
X78372Y-67259D01*
X78349Y-67374D01*
X78349Y-68101D01*
X78287Y-68162D01*
X78249Y-68254D01*
X78249Y-68354D01*
X78249Y-68554D01*
X78287Y-68645D01*
X78357Y-68716D01*
X78449Y-68754D01*
X78549Y-68754D01*
X78849Y-68754D01*
X78941Y-68716D01*
X79011Y-68646D01*
X79049Y-68554D01*
X79049Y-68455D01*
X79049Y-68255D01*
X79011Y-68163D01*
X78949Y-68100D01*
X78949Y-67498D01*
X79360Y-67087D01*
X79399Y-67125D01*
X79490Y-67163D01*
X79590Y-67163D01*
X80390Y-67163D01*
X80482Y-67125D01*
X80552Y-67055D01*
X80590Y-66963D01*
X80590Y-66864D01*
X80590Y-67564D01*
X80553Y-67472D01*
X80482Y-67401D01*
X80390Y-67363D01*
X80291Y-67363D01*
X79491Y-67363D01*
X79399Y-67401D01*
X79329Y-67471D01*
X79290Y-67563D01*
X79290Y-67663D01*
X79290Y-68263D01*
X79328Y-68355D01*
X79399Y-68425D01*
X79490Y-68463D01*
X79590Y-68463D01*
X79680Y-68463D01*
X79680Y-68589D01*
X79575Y-68589D01*
X79483Y-68627D01*
X79413Y-68697D01*
X79375Y-68789D01*
X79375Y-68854D01*
X78953Y-68854D01*
X78941Y-68842D01*
X78849Y-68804D01*
X78750Y-68804D01*
X78450Y-68804D01*
X78358Y-68842D01*
X78287Y-68912D01*
X78249Y-69004D01*
X78249Y-69104D01*
X78249Y-69304D01*
X78287Y-69395D01*
X78349Y-69458D01*
X78349Y-69535D01*
X78372Y-69650D01*
X78437Y-69747D01*
X78610Y-69920D01*
X78610Y-70005D01*
X78674Y-70161D01*
X78794Y-70281D01*
X78950Y-70346D01*
X79119Y-70346D01*
X79275Y-70281D01*
X79395Y-70162D01*
X79437Y-70204D01*
X79930Y-70204D01*
X79930Y-70196D01*
X80030Y-70196D01*
X80030Y-70204D01*
X80522Y-70204D01*
X80585Y-70142D01*
X80585Y-69890D01*
X80547Y-69798D01*
X80477Y-69727D01*
X80421Y-69704D01*
X80476Y-69681D01*
X80547Y-69611D01*
X80585Y-69519D01*
X80585Y-69420D01*
X80585Y-68868D01*
X80682Y-68909D01*
X80851Y-68909D01*
X80949Y-68868D01*
X80993Y-68868D01*
X80930Y-68931D01*
X80930Y-68968D01*
X80939Y-68990D01*
X80840Y-69089D01*
X80775Y-69245D01*
X80775Y-69414D01*
X80840Y-69571D01*
X80959Y-69690D01*
X81115Y-69755D01*
X81284Y-69755D01*
X81441Y-69691D01*
X81560Y-69571D01*
X81581Y-69522D01*
X81622Y-69505D01*
X81692Y-69435D01*
X81730Y-69343D01*
X81730Y-69244D01*
X81730Y-69468D01*
X81649Y-69501D01*
X81529Y-69621D01*
X81464Y-69777D01*
X81464Y-69946D01*
X81529Y-70102D01*
X81648Y-70222D01*
X81804Y-70287D01*
X81973Y-70287D01*
X82130Y-70222D01*
X82249Y-70103D01*
X82252Y-70097D01*
X82256Y-70094D01*
X82563Y-69787D01*
X82563Y-69787D01*
X82634Y-69680D01*
X82658Y-69562D01*
X82682Y-69562D01*
X82682Y-69597D01*
X82720Y-69689D01*
X82790Y-69760D01*
X82846Y-69783D01*
X82790Y-69806D01*
X82720Y-69877D01*
X82682Y-69968D01*
X82682Y-70220D01*
X82744Y-70283D01*
X83237Y-70283D01*
X83237Y-70275D01*
X83337Y-70275D01*
X83337Y-70283D01*
X83829Y-70283D01*
X83892Y-70220D01*
X83892Y-69968D01*
X83854Y-69877D01*
X83784Y-69806D01*
X83728Y-69783D01*
X83783Y-69760D01*
X83854Y-69690D01*
X83892Y-69598D01*
X83892Y-69498D01*
X83892Y-68868D01*
X83854Y-68777D01*
X83799Y-68721D01*
X83848Y-68701D01*
X83918Y-68631D01*
X83957Y-68539D01*
X83957Y-68439D01*
X83957Y-70975D01*
X83903Y-70953D01*
X83892Y-70953D01*
X83892Y-70697D01*
X83892Y-70445D01*
X83829Y-70383D01*
X83337Y-70383D01*
X83337Y-70835D01*
X83399Y-70898D01*
X83592Y-70898D01*
X83692Y-70898D01*
X83784Y-70860D01*
X83854Y-70789D01*
X83892Y-70697D01*
X83892Y-70953D01*
X83734Y-70952D01*
X83578Y-71017D01*
X83537Y-71058D01*
X83237Y-71058D01*
X83237Y-70835D01*
X83237Y-70383D01*
X82744Y-70383D01*
X82682Y-70445D01*
X82682Y-70697D01*
X82720Y-70789D01*
X82790Y-70860D01*
X82882Y-70898D01*
X82981Y-70898D01*
X83174Y-70898D01*
X83237Y-70835D01*
X83237Y-71058D01*
X80585Y-71058D01*
X80585Y-70619D01*
X80585Y-70367D01*
X80522Y-70304D01*
X80030Y-70304D01*
X80030Y-70757D01*
X80092Y-70819D01*
X80285Y-70819D01*
X80385Y-70819D01*
X80477Y-70781D01*
X80547Y-70711D01*
X80585Y-70619D01*
X80585Y-71058D01*
X80163Y-71058D01*
X80103Y-70998D01*
X79947Y-70933D01*
X79930Y-70933D01*
X79930Y-70757D01*
X79930Y-70304D01*
X79437Y-70304D01*
X79375Y-70367D01*
X79375Y-70619D01*
X79413Y-70711D01*
X79483Y-70781D01*
X79575Y-70819D01*
X79674Y-70819D01*
X79867Y-70819D01*
X79930Y-70757D01*
X79930Y-70933D01*
X79778Y-70933D01*
X79621Y-70997D01*
X79502Y-71117D01*
X79437Y-71273D01*
X79437Y-71392D01*
X79415Y-71392D01*
X79355Y-71332D01*
X79199Y-71267D01*
X79030Y-71267D01*
X78873Y-71332D01*
X78754Y-71451D01*
X78692Y-71600D01*
X78578Y-71647D01*
X78458Y-71766D01*
X78401Y-71905D01*
X78263Y-71962D01*
X78143Y-72081D01*
X78082Y-72230D01*
X78049Y-72243D01*
X78049Y-69205D01*
X78049Y-69005D01*
X78033Y-68967D01*
X78049Y-68929D01*
X78049Y-68892D01*
X77987Y-68829D01*
X77909Y-68829D01*
X77849Y-68804D01*
X77750Y-68804D01*
X77591Y-68804D01*
X77591Y-68754D01*
X77849Y-68754D01*
X77909Y-68729D01*
X77987Y-68729D01*
X78049Y-68667D01*
X78049Y-68630D01*
X78033Y-68592D01*
X78049Y-68554D01*
X78049Y-68455D01*
X78049Y-68255D01*
X78011Y-68163D01*
X77941Y-68092D01*
X77849Y-68054D01*
X77750Y-68054D01*
X77592Y-68054D01*
X77544Y-68006D01*
X77388Y-67941D01*
X77218Y-67941D01*
X77062Y-68005D01*
X76943Y-68125D01*
X76878Y-68281D01*
X76878Y-68450D01*
X76941Y-68604D01*
X76894Y-68557D01*
X76738Y-68492D01*
X76613Y-68492D01*
X76613Y-68448D01*
X76575Y-68356D01*
X76505Y-68285D01*
X76418Y-68249D01*
X76465Y-68230D01*
X76535Y-68159D01*
X76573Y-68068D01*
X76573Y-68062D01*
X76599Y-68062D01*
X76756Y-67998D01*
X76875Y-67878D01*
X76940Y-67722D01*
X76940Y-67553D01*
X76876Y-67397D01*
X76756Y-67277D01*
X76600Y-67212D01*
X76574Y-67212D01*
X76574Y-67168D01*
X76536Y-67076D01*
X76467Y-67007D01*
X76516Y-66959D01*
X76554Y-66867D01*
X76554Y-66767D01*
X76554Y-65967D01*
X76516Y-65875D01*
X76446Y-65805D01*
X76354Y-65767D01*
X76254Y-65767D01*
X75654Y-65767D01*
X75562Y-65805D01*
X75492Y-65875D01*
X75454Y-65967D01*
X75454Y-66066D01*
X75454Y-66866D01*
X75492Y-66958D01*
X75560Y-67027D01*
X75512Y-67076D01*
X75474Y-67168D01*
X75473Y-67267D01*
X75473Y-68067D01*
X75511Y-68159D01*
X75582Y-68229D01*
X75669Y-68266D01*
X75621Y-68285D01*
X75551Y-68355D01*
X75513Y-68447D01*
X75513Y-68547D01*
X75513Y-69347D01*
X75551Y-69439D01*
X75621Y-69509D01*
X75713Y-69547D01*
X75812Y-69547D01*
X76412Y-69547D01*
X76504Y-69509D01*
X76575Y-69439D01*
X76613Y-69347D01*
X76613Y-69342D01*
X76737Y-69342D01*
X76893Y-69277D01*
X76919Y-69251D01*
X76897Y-69304D01*
X76897Y-69473D01*
X76962Y-69630D01*
X77081Y-69749D01*
X77237Y-69814D01*
X77407Y-69814D01*
X77563Y-69750D01*
X77682Y-69630D01*
X77735Y-69504D01*
X77849Y-69504D01*
X77941Y-69466D01*
X78011Y-69396D01*
X78049Y-69304D01*
X78049Y-69205D01*
X78049Y-72243D01*
X77968Y-72277D01*
X77848Y-72396D01*
X77783Y-72552D01*
X77783Y-72721D01*
X77785Y-72726D01*
X77633Y-72789D01*
X77513Y-72908D01*
X77473Y-73007D01*
X75721Y-73007D01*
X75721Y-72449D01*
X75721Y-71899D01*
X75683Y-71807D01*
X75613Y-71737D01*
X75521Y-71699D01*
X75422Y-71699D01*
X74872Y-71699D01*
X74780Y-71737D01*
X74710Y-71807D01*
X74671Y-71899D01*
X74671Y-71924D01*
X74553Y-71924D01*
X73834Y-71205D01*
X74671Y-71205D01*
X74671Y-71249D01*
X74709Y-71341D01*
X74780Y-71412D01*
X74871Y-71450D01*
X74971Y-71450D01*
X75521Y-71450D01*
X75613Y-71412D01*
X75683Y-71341D01*
X75721Y-71250D01*
X75721Y-71150D01*
X75721Y-70600D01*
X75683Y-70508D01*
X75613Y-70438D01*
X75521Y-70400D01*
X75422Y-70400D01*
X74872Y-70400D01*
X74780Y-70438D01*
X74710Y-70508D01*
X74671Y-70600D01*
X74671Y-70605D01*
X72527Y-70605D01*
X72557Y-70533D01*
X72557Y-70507D01*
X72494Y-70444D01*
X72002Y-70444D01*
X72002Y-70463D01*
X71902Y-70463D01*
X71902Y-70444D01*
X71410Y-70444D01*
X71348Y-70507D01*
X71348Y-70533D01*
X71386Y-70625D01*
X71416Y-70655D01*
X71386Y-70684D01*
X71348Y-70776D01*
X71348Y-70876D01*
X71348Y-71033D01*
X71386Y-71125D01*
X71416Y-71155D01*
X71386Y-71184D01*
X71348Y-71276D01*
X71348Y-71376D01*
X71348Y-71533D01*
X71386Y-71625D01*
X71416Y-71655D01*
X71386Y-71684D01*
X71348Y-71776D01*
X71348Y-71876D01*
X71348Y-72033D01*
X71386Y-72125D01*
X71416Y-72155D01*
X71386Y-72184D01*
X71348Y-72276D01*
X71348Y-72376D01*
X71348Y-72533D01*
X71386Y-72625D01*
X71456Y-72696D01*
X71548Y-72734D01*
X71647Y-72734D01*
X72356Y-72734D01*
X72365Y-72730D01*
X72416Y-72781D01*
X72572Y-72846D01*
X72741Y-72846D01*
X72897Y-72781D01*
X73017Y-72662D01*
X73082Y-72506D01*
X73082Y-72413D01*
X73115Y-72413D01*
X73271Y-72348D01*
X73391Y-72229D01*
X73456Y-72073D01*
X73456Y-71904D01*
X73392Y-71747D01*
X73349Y-71705D01*
X73485Y-71705D01*
X74217Y-72436D01*
X74217Y-72436D01*
X74314Y-72501D01*
X74429Y-72524D01*
X74671Y-72524D01*
X74671Y-72548D01*
X74709Y-72640D01*
X74780Y-72711D01*
X74871Y-72749D01*
X74971Y-72749D01*
X75521Y-72749D01*
X75613Y-72711D01*
X75683Y-72641D01*
X75721Y-72549D01*
X75721Y-72449D01*
X75721Y-73007D01*
X71203Y-73007D01*
X71187Y-72968D01*
X71067Y-72848D01*
X70911Y-72783D01*
X70896Y-72783D01*
X70949Y-72762D01*
X71068Y-72642D01*
X71133Y-72486D01*
X71133Y-72317D01*
X71069Y-72161D01*
X70949Y-72041D01*
X70793Y-71976D01*
X70624Y-71976D01*
X70468Y-72041D01*
X70391Y-72117D01*
X68712Y-72117D01*
X68742Y-72046D01*
X68742Y-71946D01*
X68742Y-71789D01*
X68704Y-71697D01*
X68674Y-71667D01*
X68703Y-71637D01*
X68742Y-71546D01*
X68742Y-71446D01*
X68742Y-71289D01*
X68704Y-71197D01*
X68674Y-71167D01*
X68703Y-71137D01*
X68742Y-71046D01*
X68742Y-70946D01*
X68742Y-70789D01*
X68704Y-70697D01*
X68674Y-70667D01*
X68703Y-70637D01*
X68742Y-70546D01*
X68742Y-70446D01*
X68742Y-70289D01*
X68704Y-70197D01*
X68674Y-70167D01*
X68703Y-70137D01*
X68742Y-70046D01*
X68742Y-69946D01*
X68742Y-69789D01*
X68704Y-69697D01*
X68674Y-69667D01*
X68704Y-69637D01*
X68742Y-69545D01*
X68742Y-69519D01*
X68679Y-69456D01*
X68187Y-69456D01*
X68187Y-69475D01*
X68087Y-69475D01*
X68087Y-69456D01*
X67595Y-69456D01*
X67556Y-69496D01*
X67474Y-69496D01*
X67318Y-69560D01*
X67198Y-69680D01*
X67134Y-69836D01*
X67133Y-70005D01*
X67161Y-70072D01*
X67061Y-70172D01*
X66996Y-70328D01*
X66996Y-70497D01*
X67012Y-70536D01*
X66944Y-70564D01*
X66824Y-70684D01*
X66776Y-70800D01*
X66196Y-70220D01*
X66099Y-70155D01*
X65997Y-70135D01*
X65997Y-70108D01*
X65959Y-70016D01*
X65889Y-69946D01*
X65797Y-69908D01*
X65697Y-69908D01*
X65147Y-69908D01*
X65092Y-69930D01*
X65092Y-59476D01*
X65131Y-59571D01*
X65251Y-59690D01*
X65407Y-59755D01*
X65576Y-59755D01*
X65732Y-59691D01*
X65793Y-59630D01*
X72513Y-59630D01*
X72586Y-59703D01*
X72586Y-59788D01*
X72651Y-59945D01*
X72770Y-60064D01*
X72926Y-60129D01*
X73095Y-60129D01*
X73252Y-60065D01*
X73371Y-59945D01*
X73401Y-59873D01*
X73469Y-59873D01*
X73626Y-59809D01*
X73715Y-59720D01*
X73753Y-59735D01*
X73922Y-59736D01*
X74079Y-59671D01*
X74139Y-59611D01*
X75525Y-59611D01*
X75566Y-59651D01*
X75722Y-59716D01*
X75891Y-59716D01*
X76047Y-59651D01*
X76167Y-59532D01*
X76226Y-59388D01*
X76352Y-59440D01*
X76437Y-59440D01*
X76520Y-59523D01*
X76617Y-59588D01*
X76732Y-59611D01*
X76988Y-59611D01*
X76956Y-59659D01*
X76933Y-59774D01*
X76933Y-59811D01*
X76879Y-59811D01*
X76787Y-59849D01*
X76716Y-59919D01*
X76678Y-60011D01*
X76678Y-60110D01*
X76678Y-60622D01*
X76716Y-60714D01*
X76786Y-60785D01*
X76878Y-60823D01*
X76978Y-60823D01*
X77588Y-60823D01*
X77680Y-60785D01*
X77750Y-60715D01*
X77788Y-60623D01*
X77788Y-60617D01*
X77949Y-60617D01*
X78066Y-60734D01*
X78222Y-60798D01*
X78391Y-60799D01*
X78547Y-60734D01*
X78667Y-60615D01*
X78732Y-60458D01*
X78732Y-60289D01*
X78667Y-60133D01*
X78548Y-60013D01*
X78391Y-59949D01*
X78222Y-59948D01*
X78066Y-60013D01*
X78062Y-60017D01*
X77789Y-60017D01*
X77789Y-60011D01*
X77751Y-59919D01*
X77680Y-59849D01*
X77611Y-59820D01*
X77643Y-59788D01*
X92868Y-59788D01*
X92928Y-59848D01*
X93084Y-59913D01*
X93096Y-59913D01*
X93096Y-66915D01*
X93006Y-66878D01*
X93006Y-62723D01*
X93006Y-62211D01*
X93006Y-60523D01*
X93006Y-60110D01*
X93006Y-60011D01*
X92968Y-59919D01*
X92897Y-59849D01*
X92805Y-59811D01*
X92563Y-59811D01*
X92501Y-59873D01*
X92501Y-60267D01*
X92943Y-60267D01*
X93006Y-60204D01*
X93006Y-60110D01*
X93006Y-60523D01*
X93006Y-60429D01*
X92943Y-60367D01*
X92501Y-60367D01*
X92501Y-60760D01*
X92563Y-60823D01*
X92805Y-60823D01*
X92897Y-60785D01*
X92968Y-60715D01*
X93006Y-60623D01*
X93006Y-60523D01*
X93006Y-62211D01*
X92968Y-62119D01*
X92898Y-62049D01*
X92806Y-62011D01*
X92706Y-62011D01*
X92401Y-62011D01*
X92401Y-60760D01*
X92401Y-60367D01*
X92393Y-60367D01*
X92393Y-60267D01*
X92401Y-60267D01*
X92401Y-59873D01*
X92338Y-59811D01*
X92096Y-59811D01*
X92004Y-59849D01*
X91934Y-59919D01*
X91918Y-59958D01*
X91835Y-59876D01*
X91679Y-59811D01*
X91510Y-59811D01*
X91354Y-59875D01*
X91234Y-59995D01*
X91225Y-60017D01*
X89732Y-60017D01*
X89672Y-59957D01*
X89516Y-59892D01*
X89347Y-59892D01*
X89191Y-59956D01*
X89185Y-59962D01*
X89168Y-59919D01*
X89098Y-59849D01*
X89006Y-59811D01*
X88906Y-59811D01*
X88296Y-59811D01*
X88204Y-59849D01*
X88134Y-59919D01*
X88096Y-60011D01*
X88096Y-60110D01*
X88096Y-60622D01*
X88133Y-60714D01*
X88204Y-60785D01*
X88296Y-60823D01*
X88395Y-60823D01*
X89005Y-60823D01*
X89097Y-60785D01*
X89168Y-60715D01*
X89185Y-60672D01*
X89190Y-60677D01*
X89346Y-60742D01*
X89515Y-60742D01*
X89671Y-60677D01*
X89732Y-60617D01*
X91404Y-60617D01*
X91509Y-60661D01*
X91678Y-60661D01*
X91834Y-60596D01*
X91896Y-60535D01*
X91896Y-60623D01*
X91934Y-60715D01*
X92004Y-60785D01*
X92096Y-60823D01*
X92338Y-60823D01*
X92401Y-60760D01*
X92401Y-62011D01*
X92096Y-62011D01*
X92004Y-62049D01*
X91934Y-62119D01*
X91896Y-62211D01*
X91896Y-62310D01*
X91896Y-62822D01*
X91933Y-62914D01*
X92004Y-62985D01*
X92096Y-63023D01*
X92195Y-63023D01*
X92805Y-63023D01*
X92897Y-62985D01*
X92968Y-62915D01*
X93006Y-62823D01*
X93006Y-62723D01*
X93006Y-66878D01*
X92958Y-66858D01*
X92789Y-66858D01*
X92633Y-66922D01*
X92537Y-67018D01*
X92406Y-67018D01*
X92432Y-66954D01*
X92432Y-66785D01*
X92423Y-66763D01*
X92466Y-66763D01*
X92622Y-66699D01*
X92741Y-66579D01*
X92806Y-66423D01*
X92806Y-66254D01*
X92742Y-66098D01*
X92622Y-65978D01*
X92570Y-65956D01*
X92623Y-65956D01*
X92779Y-65892D01*
X92899Y-65772D01*
X92964Y-65616D01*
X92964Y-65447D01*
X92899Y-65291D01*
X92780Y-65171D01*
X92624Y-65106D01*
X92455Y-65106D01*
X92298Y-65170D01*
X92267Y-65202D01*
X90311Y-65202D01*
X90358Y-65183D01*
X90478Y-65063D01*
X90543Y-64907D01*
X90543Y-64738D01*
X90478Y-64582D01*
X90359Y-64462D01*
X90208Y-64400D01*
X90208Y-64364D01*
X90143Y-64208D01*
X90024Y-64088D01*
X89868Y-64023D01*
X89699Y-64023D01*
X89543Y-64088D01*
X89519Y-64111D01*
X89519Y-64069D01*
X89499Y-64020D01*
X90998Y-64020D01*
X91058Y-64080D01*
X91214Y-64145D01*
X91383Y-64145D01*
X91539Y-64080D01*
X91659Y-63961D01*
X91724Y-63805D01*
X91724Y-63636D01*
X91659Y-63480D01*
X91540Y-63360D01*
X91384Y-63295D01*
X91215Y-63295D01*
X91058Y-63359D01*
X90998Y-63420D01*
X89206Y-63420D01*
X89206Y-62723D01*
X89206Y-62211D01*
X89168Y-62119D01*
X89098Y-62049D01*
X89006Y-62011D01*
X88906Y-62011D01*
X88296Y-62011D01*
X88204Y-62049D01*
X88134Y-62119D01*
X88096Y-62211D01*
X88096Y-62310D01*
X88096Y-62822D01*
X88133Y-62914D01*
X88204Y-62985D01*
X88296Y-63023D01*
X88395Y-63023D01*
X89005Y-63023D01*
X89097Y-62985D01*
X89168Y-62915D01*
X89206Y-62823D01*
X89206Y-62723D01*
X89206Y-63420D01*
X87539Y-63420D01*
X87474Y-63433D01*
X87474Y-63433D01*
X87317Y-63433D01*
X87297Y-63441D01*
X87297Y-62723D01*
X87297Y-62211D01*
X87297Y-60523D01*
X87297Y-60110D01*
X87297Y-60011D01*
X87259Y-59919D01*
X87189Y-59849D01*
X87097Y-59811D01*
X86855Y-59811D01*
X86792Y-59873D01*
X86792Y-60267D01*
X87235Y-60267D01*
X87297Y-60204D01*
X87297Y-60110D01*
X87297Y-60523D01*
X87297Y-60429D01*
X87235Y-60367D01*
X86792Y-60367D01*
X86792Y-60760D01*
X86855Y-60823D01*
X87097Y-60823D01*
X87189Y-60785D01*
X87259Y-60715D01*
X87297Y-60623D01*
X87297Y-60523D01*
X87297Y-62211D01*
X87259Y-62119D01*
X87189Y-62049D01*
X87097Y-62011D01*
X86998Y-62011D01*
X86692Y-62011D01*
X86692Y-60760D01*
X86692Y-60367D01*
X86692Y-60267D01*
X86692Y-59873D01*
X86630Y-59811D01*
X86387Y-59811D01*
X86295Y-59849D01*
X86225Y-59919D01*
X86187Y-60011D01*
X86187Y-60110D01*
X86187Y-60204D01*
X86249Y-60267D01*
X86692Y-60267D01*
X86692Y-60367D01*
X86249Y-60367D01*
X86187Y-60429D01*
X86187Y-60523D01*
X86187Y-60623D01*
X86225Y-60715D01*
X86295Y-60785D01*
X86387Y-60823D01*
X86630Y-60823D01*
X86692Y-60760D01*
X86692Y-62011D01*
X86387Y-62011D01*
X86295Y-62049D01*
X86225Y-62119D01*
X86187Y-62211D01*
X86187Y-62310D01*
X86187Y-62822D01*
X86225Y-62914D01*
X86295Y-62985D01*
X86387Y-63023D01*
X86486Y-63023D01*
X87097Y-63023D01*
X87189Y-62985D01*
X87259Y-62915D01*
X87297Y-62823D01*
X87297Y-62723D01*
X87297Y-63441D01*
X87161Y-63497D01*
X87041Y-63617D01*
X86976Y-63773D01*
X86976Y-63853D01*
X85858Y-63853D01*
X85858Y-63754D01*
X85793Y-63598D01*
X85674Y-63478D01*
X85517Y-63413D01*
X85432Y-63413D01*
X85349Y-63331D01*
X85252Y-63266D01*
X85137Y-63243D01*
X84165Y-63243D01*
X84165Y-60250D01*
X84100Y-60094D01*
X83981Y-59974D01*
X83825Y-59909D01*
X83655Y-59909D01*
X83499Y-59974D01*
X83487Y-59986D01*
X83459Y-59919D01*
X83389Y-59849D01*
X83297Y-59811D01*
X83198Y-59811D01*
X82587Y-59811D01*
X82495Y-59849D01*
X82425Y-59919D01*
X82387Y-60011D01*
X82387Y-60110D01*
X82387Y-60336D01*
X82357Y-60348D01*
X82238Y-60467D01*
X82173Y-60623D01*
X82173Y-60792D01*
X82237Y-60949D01*
X82357Y-61068D01*
X82513Y-61133D01*
X82682Y-61133D01*
X82838Y-61069D01*
X82958Y-60949D01*
X83011Y-60823D01*
X83297Y-60823D01*
X83389Y-60785D01*
X83459Y-60715D01*
X83477Y-60672D01*
X83499Y-60694D01*
X83655Y-60759D01*
X83824Y-60759D01*
X83980Y-60695D01*
X84100Y-60575D01*
X84165Y-60419D01*
X84165Y-60250D01*
X84165Y-63243D01*
X83497Y-63243D01*
X83497Y-62723D01*
X83497Y-62211D01*
X83459Y-62119D01*
X83389Y-62049D01*
X83297Y-62011D01*
X83198Y-62011D01*
X82587Y-62011D01*
X82495Y-62049D01*
X82425Y-62119D01*
X82387Y-62211D01*
X82387Y-62310D01*
X82387Y-62822D01*
X82425Y-62914D01*
X82495Y-62985D01*
X82587Y-63023D01*
X82686Y-63023D01*
X83297Y-63023D01*
X83389Y-62985D01*
X83459Y-62915D01*
X83497Y-62823D01*
X83497Y-62723D01*
X83497Y-63243D01*
X81589Y-63243D01*
X81589Y-62723D01*
X81589Y-62211D01*
X81589Y-60523D01*
X81589Y-60110D01*
X81588Y-60011D01*
X81550Y-59919D01*
X81480Y-59849D01*
X81388Y-59811D01*
X81146Y-59811D01*
X81083Y-59873D01*
X81083Y-60267D01*
X81526Y-60267D01*
X81588Y-60204D01*
X81589Y-60110D01*
X81589Y-60523D01*
X81588Y-60429D01*
X81526Y-60367D01*
X81083Y-60367D01*
X81083Y-60760D01*
X81146Y-60823D01*
X81388Y-60823D01*
X81480Y-60785D01*
X81550Y-60715D01*
X81588Y-60623D01*
X81589Y-60523D01*
X81589Y-62211D01*
X81551Y-62119D01*
X81480Y-62049D01*
X81388Y-62011D01*
X81289Y-62011D01*
X80983Y-62011D01*
X80983Y-60760D01*
X80983Y-60367D01*
X80983Y-60267D01*
X80983Y-59873D01*
X80921Y-59811D01*
X80679Y-59811D01*
X80587Y-59849D01*
X80516Y-59919D01*
X80478Y-60011D01*
X80478Y-60110D01*
X80478Y-60204D01*
X80541Y-60267D01*
X80983Y-60267D01*
X80983Y-60367D01*
X80541Y-60367D01*
X80478Y-60429D01*
X80478Y-60523D01*
X80478Y-60623D01*
X80516Y-60715D01*
X80587Y-60785D01*
X80679Y-60823D01*
X80921Y-60823D01*
X80983Y-60760D01*
X80983Y-62011D01*
X80679Y-62011D01*
X80587Y-62049D01*
X80516Y-62119D01*
X80478Y-62211D01*
X80478Y-62310D01*
X80478Y-62822D01*
X80516Y-62914D01*
X80586Y-62985D01*
X80678Y-63023D01*
X80778Y-63023D01*
X81388Y-63023D01*
X81480Y-62985D01*
X81550Y-62915D01*
X81588Y-62823D01*
X81589Y-62723D01*
X81589Y-63243D01*
X77789Y-63243D01*
X77789Y-62723D01*
X77789Y-62211D01*
X77751Y-62119D01*
X77680Y-62049D01*
X77588Y-62011D01*
X77489Y-62011D01*
X77295Y-62011D01*
X77295Y-61490D01*
X77230Y-61334D01*
X77111Y-61214D01*
X76954Y-61149D01*
X76785Y-61149D01*
X76673Y-61196D01*
X75880Y-61196D01*
X75880Y-60523D01*
X75880Y-60110D01*
X75880Y-60011D01*
X75842Y-59919D01*
X75771Y-59849D01*
X75679Y-59811D01*
X75437Y-59811D01*
X75375Y-59873D01*
X75375Y-60267D01*
X75817Y-60267D01*
X75880Y-60204D01*
X75880Y-60110D01*
X75880Y-60523D01*
X75880Y-60429D01*
X75817Y-60367D01*
X75375Y-60367D01*
X75375Y-60760D01*
X75437Y-60823D01*
X75679Y-60823D01*
X75771Y-60785D01*
X75842Y-60715D01*
X75880Y-60623D01*
X75880Y-60523D01*
X75880Y-61196D01*
X75275Y-61196D01*
X75275Y-60760D01*
X75275Y-60367D01*
X75275Y-60267D01*
X75275Y-59873D01*
X75212Y-59811D01*
X74970Y-59811D01*
X74878Y-59849D01*
X74808Y-59919D01*
X74770Y-60011D01*
X74770Y-60110D01*
X74770Y-60204D01*
X74832Y-60267D01*
X75275Y-60267D01*
X75275Y-60367D01*
X74832Y-60367D01*
X74770Y-60429D01*
X74770Y-60523D01*
X74770Y-60623D01*
X74808Y-60715D01*
X74878Y-60785D01*
X74970Y-60823D01*
X75212Y-60823D01*
X75275Y-60760D01*
X75275Y-61196D01*
X71885Y-61196D01*
X71934Y-61146D01*
X71999Y-60990D01*
X71999Y-60821D01*
X71981Y-60775D01*
X71996Y-60760D01*
X72041Y-60779D01*
X72210Y-60779D01*
X72366Y-60714D01*
X72486Y-60595D01*
X72550Y-60439D01*
X72551Y-60270D01*
X72486Y-60113D01*
X72367Y-59994D01*
X72210Y-59929D01*
X72046Y-59929D01*
X72042Y-59919D01*
X71972Y-59849D01*
X71880Y-59811D01*
X71780Y-59811D01*
X71170Y-59811D01*
X71078Y-59849D01*
X71008Y-59919D01*
X70970Y-60011D01*
X70970Y-60110D01*
X70970Y-60622D01*
X71008Y-60714D01*
X71078Y-60785D01*
X71151Y-60815D01*
X71149Y-60820D01*
X71149Y-60989D01*
X71214Y-61145D01*
X71264Y-61196D01*
X70171Y-61196D01*
X70171Y-60523D01*
X70171Y-60110D01*
X70171Y-60011D01*
X70133Y-59919D01*
X70063Y-59849D01*
X69971Y-59811D01*
X69729Y-59811D01*
X69666Y-59873D01*
X69666Y-60267D01*
X70109Y-60267D01*
X70171Y-60204D01*
X70171Y-60110D01*
X70171Y-60523D01*
X70171Y-60429D01*
X70109Y-60367D01*
X69666Y-60367D01*
X69666Y-60760D01*
X69729Y-60823D01*
X69971Y-60823D01*
X70063Y-60785D01*
X70133Y-60715D01*
X70171Y-60623D01*
X70171Y-60523D01*
X70171Y-61196D01*
X70104Y-61196D01*
X70044Y-61135D01*
X69888Y-61071D01*
X69718Y-61070D01*
X69566Y-61133D01*
X69566Y-60760D01*
X69566Y-60367D01*
X69566Y-60267D01*
X69566Y-59873D01*
X69504Y-59811D01*
X69261Y-59811D01*
X69169Y-59849D01*
X69099Y-59919D01*
X69061Y-60011D01*
X69061Y-60110D01*
X69061Y-60204D01*
X69123Y-60267D01*
X69566Y-60267D01*
X69566Y-60367D01*
X69123Y-60367D01*
X69061Y-60429D01*
X69061Y-60523D01*
X69061Y-60623D01*
X69099Y-60715D01*
X69169Y-60785D01*
X69261Y-60823D01*
X69504Y-60823D01*
X69566Y-60760D01*
X69566Y-61133D01*
X69562Y-61135D01*
X69443Y-61255D01*
X69378Y-61411D01*
X69378Y-61580D01*
X69442Y-61736D01*
X69562Y-61856D01*
X69718Y-61920D01*
X69887Y-61921D01*
X70043Y-61856D01*
X70104Y-61796D01*
X76501Y-61796D01*
X76509Y-61815D01*
X76629Y-61934D01*
X76785Y-61999D01*
X76954Y-61999D01*
X77110Y-61935D01*
X77230Y-61815D01*
X77295Y-61659D01*
X77295Y-61490D01*
X77295Y-62011D01*
X76879Y-62011D01*
X76787Y-62049D01*
X76716Y-62119D01*
X76678Y-62211D01*
X76678Y-62310D01*
X76678Y-62822D01*
X76716Y-62914D01*
X76786Y-62985D01*
X76878Y-63023D01*
X76978Y-63023D01*
X77588Y-63023D01*
X77680Y-62985D01*
X77750Y-62915D01*
X77788Y-62823D01*
X77789Y-62723D01*
X77789Y-63243D01*
X75880Y-63243D01*
X75880Y-62723D01*
X75880Y-62211D01*
X75842Y-62119D01*
X75772Y-62049D01*
X75680Y-62011D01*
X75580Y-62011D01*
X74970Y-62011D01*
X74878Y-62049D01*
X74808Y-62119D01*
X74770Y-62211D01*
X74770Y-62310D01*
X74770Y-62822D01*
X74808Y-62914D01*
X74878Y-62985D01*
X74970Y-63023D01*
X75069Y-63023D01*
X75679Y-63023D01*
X75771Y-62985D01*
X75842Y-62915D01*
X75880Y-62823D01*
X75880Y-62723D01*
X75880Y-63243D01*
X72080Y-63243D01*
X72080Y-62723D01*
X72080Y-62211D01*
X72042Y-62119D01*
X71972Y-62049D01*
X71880Y-62011D01*
X71780Y-62011D01*
X71170Y-62011D01*
X71078Y-62049D01*
X71008Y-62119D01*
X70970Y-62211D01*
X70970Y-62310D01*
X70970Y-62822D01*
X71008Y-62914D01*
X71078Y-62985D01*
X71170Y-63023D01*
X71269Y-63023D01*
X71879Y-63023D01*
X71971Y-62985D01*
X72042Y-62915D01*
X72080Y-62823D01*
X72080Y-62723D01*
X72080Y-63243D01*
X70891Y-63243D01*
X70831Y-63183D01*
X70675Y-63118D01*
X70506Y-63118D01*
X70350Y-63182D01*
X70230Y-63302D01*
X70171Y-63443D01*
X70171Y-62723D01*
X70171Y-62211D01*
X70133Y-62119D01*
X70063Y-62049D01*
X69971Y-62011D01*
X69872Y-62011D01*
X69261Y-62011D01*
X69169Y-62049D01*
X69099Y-62119D01*
X69061Y-62211D01*
X69061Y-62310D01*
X69061Y-62822D01*
X69099Y-62914D01*
X69169Y-62985D01*
X69261Y-63023D01*
X69360Y-63023D01*
X69971Y-63023D01*
X70063Y-62985D01*
X70133Y-62915D01*
X70171Y-62823D01*
X70171Y-62723D01*
X70171Y-63443D01*
X70165Y-63458D01*
X70165Y-63522D01*
X70035Y-63576D01*
X69915Y-63695D01*
X69850Y-63852D01*
X69850Y-64021D01*
X69915Y-64177D01*
X69945Y-64207D01*
X68338Y-64207D01*
X68338Y-60230D01*
X68273Y-60074D01*
X68154Y-59954D01*
X67998Y-59890D01*
X67829Y-59889D01*
X67672Y-59954D01*
X67609Y-60017D01*
X66897Y-60017D01*
X66835Y-59954D01*
X66679Y-59890D01*
X66510Y-59889D01*
X66354Y-59954D01*
X66349Y-59958D01*
X66333Y-59919D01*
X66263Y-59849D01*
X66171Y-59811D01*
X66072Y-59811D01*
X65461Y-59811D01*
X65369Y-59849D01*
X65299Y-59919D01*
X65261Y-60011D01*
X65261Y-60110D01*
X65261Y-60622D01*
X65299Y-60714D01*
X65369Y-60785D01*
X65461Y-60823D01*
X65560Y-60823D01*
X66171Y-60823D01*
X66263Y-60785D01*
X66333Y-60715D01*
X66351Y-60672D01*
X66353Y-60675D01*
X66509Y-60739D01*
X66678Y-60740D01*
X66834Y-60675D01*
X66893Y-60617D01*
X67614Y-60617D01*
X67672Y-60675D01*
X67828Y-60739D01*
X67997Y-60740D01*
X68153Y-60675D01*
X68273Y-60556D01*
X68338Y-60399D01*
X68338Y-60230D01*
X68338Y-64207D01*
X68273Y-64207D01*
X68213Y-64147D01*
X68057Y-64082D01*
X67888Y-64082D01*
X67732Y-64147D01*
X67612Y-64266D01*
X67547Y-64422D01*
X67547Y-64592D01*
X67611Y-64748D01*
X67731Y-64867D01*
X67887Y-64932D01*
X68056Y-64932D01*
X68212Y-64868D01*
X68273Y-64807D01*
X69555Y-64807D01*
X69555Y-64966D01*
X69619Y-65122D01*
X69739Y-65241D01*
X69895Y-65306D01*
X70064Y-65306D01*
X70220Y-65242D01*
X70281Y-65181D01*
X71071Y-65181D01*
X71070Y-65281D01*
X71135Y-65437D01*
X71255Y-65556D01*
X71371Y-65605D01*
X71186Y-65605D01*
X71185Y-65604D01*
X71029Y-65539D01*
X70860Y-65539D01*
X70704Y-65604D01*
X70584Y-65723D01*
X70519Y-65879D01*
X70519Y-66048D01*
X70584Y-66204D01*
X70703Y-66324D01*
X70859Y-66389D01*
X70972Y-66389D01*
X70972Y-66462D01*
X71037Y-66618D01*
X71156Y-66738D01*
X71312Y-66802D01*
X71348Y-66802D01*
X71348Y-66876D01*
X71348Y-67033D01*
X71386Y-67125D01*
X71416Y-67155D01*
X71386Y-67184D01*
X71348Y-67276D01*
X71348Y-67376D01*
X71348Y-67533D01*
X71386Y-67625D01*
X71416Y-67655D01*
X71386Y-67684D01*
X71348Y-67776D01*
X71348Y-67876D01*
X71348Y-68033D01*
X71386Y-68125D01*
X71416Y-68155D01*
X71386Y-68184D01*
X71348Y-68276D01*
X71348Y-68376D01*
X71348Y-68533D01*
X71386Y-68625D01*
X71416Y-68655D01*
X71386Y-68684D01*
X71348Y-68776D01*
X71348Y-68876D01*
X71348Y-69033D01*
X71386Y-69125D01*
X71416Y-69155D01*
X71386Y-69184D01*
X71348Y-69276D01*
X71348Y-69376D01*
X71348Y-69533D01*
X71366Y-69576D01*
X70936Y-69576D01*
X70936Y-68321D01*
X70872Y-68165D01*
X70752Y-68045D01*
X70621Y-67990D01*
X70621Y-67829D01*
X70557Y-67672D01*
X70437Y-67553D01*
X70386Y-67531D01*
X70405Y-67486D01*
X70405Y-67317D01*
X70340Y-67161D01*
X70221Y-67041D01*
X70070Y-66978D01*
X70070Y-66923D01*
X70006Y-66767D01*
X69886Y-66647D01*
X69730Y-66582D01*
X69677Y-66582D01*
X69735Y-66443D01*
X69736Y-66274D01*
X69671Y-66117D01*
X69552Y-65998D01*
X69395Y-65933D01*
X69381Y-65933D01*
X69381Y-65821D01*
X69317Y-65665D01*
X69197Y-65545D01*
X69041Y-65480D01*
X68872Y-65480D01*
X68716Y-65545D01*
X68643Y-65617D01*
X68611Y-65617D01*
X68542Y-65588D01*
X68442Y-65588D01*
X67733Y-65588D01*
X67642Y-65626D01*
X67613Y-65655D01*
X67584Y-65586D01*
X67465Y-65466D01*
X67309Y-65401D01*
X67140Y-65401D01*
X66983Y-65466D01*
X66923Y-65526D01*
X66560Y-65526D01*
X66500Y-65466D01*
X66371Y-65413D01*
X66371Y-62723D01*
X66371Y-62211D01*
X66333Y-62119D01*
X66263Y-62049D01*
X66171Y-62011D01*
X66072Y-62011D01*
X65461Y-62011D01*
X65369Y-62049D01*
X65299Y-62119D01*
X65261Y-62211D01*
X65261Y-62310D01*
X65261Y-62822D01*
X65299Y-62914D01*
X65369Y-62985D01*
X65461Y-63023D01*
X65560Y-63023D01*
X66171Y-63023D01*
X66263Y-62985D01*
X66333Y-62915D01*
X66371Y-62823D01*
X66371Y-62723D01*
X66371Y-65413D01*
X66344Y-65401D01*
X66175Y-65401D01*
X66019Y-65466D01*
X65899Y-65585D01*
X65842Y-65724D01*
X65704Y-65781D01*
X65584Y-65900D01*
X65519Y-66056D01*
X65519Y-66225D01*
X65584Y-66382D01*
X65703Y-66501D01*
X65859Y-66566D01*
X66029Y-66566D01*
X66185Y-66502D01*
X66245Y-66441D01*
X66532Y-66441D01*
X66548Y-66480D01*
X66668Y-66600D01*
X66824Y-66665D01*
X66993Y-66665D01*
X67149Y-66600D01*
X67269Y-66481D01*
X67334Y-66325D01*
X67334Y-66241D01*
X67464Y-66187D01*
X67554Y-66097D01*
X67571Y-66137D01*
X67601Y-66167D01*
X67571Y-66196D01*
X67533Y-66288D01*
X67533Y-66388D01*
X67533Y-66545D01*
X67571Y-66637D01*
X67601Y-66667D01*
X67571Y-66696D01*
X67533Y-66788D01*
X67533Y-66888D01*
X67533Y-67045D01*
X67571Y-67137D01*
X67601Y-67167D01*
X67571Y-67196D01*
X67533Y-67288D01*
X67533Y-67388D01*
X67533Y-67545D01*
X67571Y-67637D01*
X67601Y-67667D01*
X67571Y-67696D01*
X67533Y-67788D01*
X67533Y-67888D01*
X67533Y-68045D01*
X67571Y-68137D01*
X67601Y-68167D01*
X67571Y-68196D01*
X67533Y-68288D01*
X67533Y-68388D01*
X67533Y-68545D01*
X67571Y-68637D01*
X67601Y-68667D01*
X67571Y-68696D01*
X67533Y-68788D01*
X67533Y-68888D01*
X67533Y-69045D01*
X67571Y-69137D01*
X67601Y-69167D01*
X67571Y-69197D01*
X67533Y-69289D01*
X67533Y-69315D01*
X67595Y-69377D01*
X68087Y-69377D01*
X68087Y-69359D01*
X68187Y-69359D01*
X68187Y-69377D01*
X68679Y-69377D01*
X68742Y-69315D01*
X68742Y-69289D01*
X68712Y-69217D01*
X70092Y-69217D01*
X70192Y-69316D01*
X70348Y-69381D01*
X70517Y-69381D01*
X70673Y-69317D01*
X70793Y-69197D01*
X70857Y-69041D01*
X70858Y-68872D01*
X70796Y-68722D01*
X70871Y-68646D01*
X70936Y-68490D01*
X70936Y-68321D01*
X70936Y-69576D01*
X70354Y-69576D01*
X70280Y-69502D01*
X70124Y-69437D01*
X69955Y-69437D01*
X69798Y-69501D01*
X69679Y-69621D01*
X69614Y-69777D01*
X69614Y-69946D01*
X69678Y-70102D01*
X69798Y-70222D01*
X69954Y-70287D01*
X70123Y-70287D01*
X70251Y-70234D01*
X71366Y-70234D01*
X71348Y-70277D01*
X71348Y-70303D01*
X71410Y-70366D01*
X71902Y-70366D01*
X71902Y-70347D01*
X72002Y-70347D01*
X72002Y-70366D01*
X72494Y-70366D01*
X72557Y-70303D01*
X72557Y-70277D01*
X72519Y-70185D01*
X72489Y-70155D01*
X72518Y-70126D01*
X72557Y-70034D01*
X72557Y-69934D01*
X72557Y-69777D01*
X72527Y-69705D01*
X72962Y-69705D01*
X73066Y-69808D01*
X73222Y-69873D01*
X73391Y-69873D01*
X73547Y-69809D01*
X73667Y-69689D01*
X73732Y-69533D01*
X73732Y-69364D01*
X73667Y-69208D01*
X73664Y-69205D01*
X74213Y-69205D01*
X74213Y-69347D01*
X74251Y-69439D01*
X74321Y-69509D01*
X74413Y-69547D01*
X74512Y-69547D01*
X75112Y-69547D01*
X75204Y-69509D01*
X75275Y-69439D01*
X75313Y-69347D01*
X75313Y-69248D01*
X75313Y-68448D01*
X75275Y-68356D01*
X75205Y-68285D01*
X75118Y-68249D01*
X75165Y-68230D01*
X75235Y-68159D01*
X75273Y-68068D01*
X75274Y-67968D01*
X75274Y-67168D01*
X75236Y-67076D01*
X75167Y-67007D01*
X75216Y-66959D01*
X75254Y-66867D01*
X75254Y-66767D01*
X75254Y-65967D01*
X75216Y-65875D01*
X75146Y-65805D01*
X75054Y-65767D01*
X74954Y-65767D01*
X74354Y-65767D01*
X74262Y-65805D01*
X74192Y-65875D01*
X74154Y-65967D01*
X74154Y-66066D01*
X74154Y-66117D01*
X74133Y-66117D01*
X74019Y-66140D01*
X73921Y-66205D01*
X73521Y-66605D01*
X72527Y-66605D01*
X72557Y-66534D01*
X72557Y-66434D01*
X72557Y-66277D01*
X72519Y-66185D01*
X72489Y-66155D01*
X72518Y-66126D01*
X72557Y-66034D01*
X72557Y-65934D01*
X72557Y-65777D01*
X72519Y-65685D01*
X72448Y-65614D01*
X72357Y-65576D01*
X72257Y-65576D01*
X71689Y-65576D01*
X71736Y-65557D01*
X71797Y-65496D01*
X76937Y-65496D01*
X76937Y-65595D01*
X77001Y-65752D01*
X77121Y-65871D01*
X77277Y-65936D01*
X77446Y-65936D01*
X77602Y-65872D01*
X77614Y-65860D01*
X80534Y-65860D01*
X80566Y-65891D01*
X80722Y-65956D01*
X80891Y-65956D01*
X81047Y-65892D01*
X81079Y-65860D01*
X92267Y-65860D01*
X92298Y-65891D01*
X92351Y-65913D01*
X92297Y-65913D01*
X92141Y-65978D01*
X92100Y-66018D01*
X91402Y-66018D01*
X91333Y-65990D01*
X91233Y-65990D01*
X90525Y-65990D01*
X90433Y-66028D01*
X90362Y-66098D01*
X90324Y-66190D01*
X90324Y-66289D01*
X90324Y-66447D01*
X90362Y-66539D01*
X90392Y-66568D01*
X90362Y-66598D01*
X90324Y-66690D01*
X90324Y-66789D01*
X90324Y-66947D01*
X90362Y-67039D01*
X90392Y-67068D01*
X90362Y-67098D01*
X90324Y-67190D01*
X90324Y-67289D01*
X90324Y-67447D01*
X90362Y-67539D01*
X90392Y-67568D01*
X90362Y-67598D01*
X90324Y-67690D01*
X90324Y-67789D01*
X90324Y-67947D01*
X90354Y-68018D01*
X89427Y-68018D01*
X89394Y-67986D01*
X89238Y-67921D01*
X89224Y-67921D01*
X89224Y-66726D01*
X89159Y-66570D01*
X89040Y-66450D01*
X88884Y-66386D01*
X88715Y-66385D01*
X88558Y-66450D01*
X88478Y-66530D01*
X88392Y-66530D01*
X88436Y-66423D01*
X88436Y-66254D01*
X88372Y-66098D01*
X88252Y-65978D01*
X88096Y-65913D01*
X87927Y-65913D01*
X87771Y-65978D01*
X87718Y-66030D01*
X87587Y-66030D01*
X87518Y-66002D01*
X87418Y-66001D01*
X86710Y-66001D01*
X86618Y-66039D01*
X86548Y-66110D01*
X86509Y-66202D01*
X86509Y-66301D01*
X86509Y-66458D01*
X86547Y-66550D01*
X86577Y-66580D01*
X86548Y-66610D01*
X86509Y-66702D01*
X86509Y-66801D01*
X86509Y-66958D01*
X86547Y-67050D01*
X86577Y-67080D01*
X86548Y-67110D01*
X86509Y-67202D01*
X86509Y-67301D01*
X86509Y-67458D01*
X86539Y-67530D01*
X85043Y-67530D01*
X84928Y-67553D01*
X84849Y-67606D01*
X84758Y-67606D01*
X84602Y-67670D01*
X84482Y-67790D01*
X84417Y-67946D01*
X84417Y-68115D01*
X84482Y-68271D01*
X84529Y-68319D01*
X84496Y-68399D01*
X84496Y-68568D01*
X84560Y-68724D01*
X84680Y-68844D01*
X84693Y-68849D01*
X84693Y-68981D01*
X84757Y-69138D01*
X84832Y-69213D01*
X84811Y-69265D01*
X84811Y-69434D01*
X84875Y-69590D01*
X84995Y-69710D01*
X85151Y-69775D01*
X85320Y-69775D01*
X85476Y-69710D01*
X85556Y-69630D01*
X86539Y-69630D01*
X86509Y-69702D01*
X86509Y-69728D01*
X86572Y-69791D01*
X87064Y-69791D01*
X87064Y-69772D01*
X87164Y-69772D01*
X87164Y-69791D01*
X87656Y-69791D01*
X87718Y-69728D01*
X87718Y-69702D01*
X87680Y-69610D01*
X87650Y-69580D01*
X87680Y-69551D01*
X87718Y-69459D01*
X87718Y-69359D01*
X87718Y-69202D01*
X87680Y-69110D01*
X87650Y-69080D01*
X87680Y-69051D01*
X87718Y-68959D01*
X87718Y-68859D01*
X87718Y-68702D01*
X87680Y-68610D01*
X87650Y-68580D01*
X87680Y-68551D01*
X87718Y-68459D01*
X87718Y-68359D01*
X87718Y-68202D01*
X87680Y-68110D01*
X87650Y-68080D01*
X87680Y-68051D01*
X87718Y-67959D01*
X87718Y-67859D01*
X87718Y-67757D01*
X87789Y-67787D01*
X87958Y-67787D01*
X88114Y-67722D01*
X88234Y-67603D01*
X88298Y-67447D01*
X88299Y-67278D01*
X88238Y-67130D01*
X88517Y-67130D01*
X88558Y-67171D01*
X88714Y-67235D01*
X88883Y-67236D01*
X89039Y-67171D01*
X89159Y-67052D01*
X89224Y-66895D01*
X89224Y-66726D01*
X89224Y-67921D01*
X89069Y-67921D01*
X88913Y-67985D01*
X88793Y-68105D01*
X88728Y-68261D01*
X88728Y-68430D01*
X88793Y-68586D01*
X88912Y-68706D01*
X89068Y-68771D01*
X89237Y-68771D01*
X89393Y-68706D01*
X89482Y-68618D01*
X90354Y-68618D01*
X90324Y-68690D01*
X90324Y-68789D01*
X90324Y-68947D01*
X90354Y-69018D01*
X89777Y-69018D01*
X89729Y-68970D01*
X89573Y-68905D01*
X89404Y-68905D01*
X89247Y-68970D01*
X89128Y-69089D01*
X89063Y-69245D01*
X89063Y-69414D01*
X89127Y-69571D01*
X89247Y-69690D01*
X89389Y-69749D01*
X89378Y-69777D01*
X89378Y-69946D01*
X89442Y-70102D01*
X89562Y-70222D01*
X89693Y-70276D01*
X89693Y-70359D01*
X89757Y-70516D01*
X89877Y-70635D01*
X90033Y-70700D01*
X90202Y-70700D01*
X90344Y-70641D01*
X90324Y-70690D01*
X90324Y-70717D01*
X90387Y-70779D01*
X90879Y-70779D01*
X90879Y-70761D01*
X90979Y-70761D01*
X90979Y-70779D01*
X91470Y-70779D01*
X91533Y-70717D01*
X91533Y-70690D01*
X91495Y-70598D01*
X91465Y-70568D01*
X91495Y-70539D01*
X91533Y-70447D01*
X91533Y-70348D01*
X91533Y-70190D01*
X91495Y-70098D01*
X91465Y-70068D01*
X91495Y-70039D01*
X91533Y-69947D01*
X91533Y-69848D01*
X91533Y-69690D01*
X91495Y-69598D01*
X91465Y-69568D01*
X91495Y-69539D01*
X91533Y-69447D01*
X91533Y-69348D01*
X91533Y-69190D01*
X91503Y-69118D01*
X92479Y-69118D01*
X92479Y-69118D01*
X92481Y-69118D01*
X92481Y-69118D01*
X92749Y-69118D01*
X92829Y-69198D01*
X92985Y-69263D01*
X93096Y-69263D01*
X93096Y-76817D01*
X93062Y-76817D01*
X93062Y-71254D01*
X92998Y-71098D01*
X92878Y-70978D01*
X92722Y-70913D01*
X92553Y-70913D01*
X92397Y-70978D01*
X92356Y-71018D01*
X91503Y-71018D01*
X91533Y-70947D01*
X91533Y-70920D01*
X91470Y-70858D01*
X90979Y-70858D01*
X90979Y-70876D01*
X90879Y-70876D01*
X90879Y-70858D01*
X90387Y-70858D01*
X90324Y-70920D01*
X90324Y-70947D01*
X90362Y-71039D01*
X90392Y-71068D01*
X90362Y-71098D01*
X90324Y-71190D01*
X90324Y-71289D01*
X90324Y-71447D01*
X90354Y-71518D01*
X89521Y-71518D01*
X89512Y-71509D01*
X89356Y-71445D01*
X89187Y-71445D01*
X89031Y-71509D01*
X88911Y-71629D01*
X88846Y-71785D01*
X88846Y-71954D01*
X88911Y-72110D01*
X89030Y-72230D01*
X89161Y-72284D01*
X89161Y-72426D01*
X89226Y-72582D01*
X89345Y-72702D01*
X89501Y-72767D01*
X89670Y-72767D01*
X89827Y-72703D01*
X89911Y-72618D01*
X90354Y-72618D01*
X90324Y-72690D01*
X90324Y-72789D01*
X90324Y-72947D01*
X90362Y-73039D01*
X90433Y-73109D01*
X90524Y-73147D01*
X90624Y-73147D01*
X91089Y-73147D01*
X91156Y-73214D01*
X91312Y-73279D01*
X91481Y-73279D01*
X91638Y-73214D01*
X91757Y-73095D01*
X91822Y-72939D01*
X91822Y-72779D01*
X91913Y-72742D01*
X92033Y-72622D01*
X92098Y-72466D01*
X92098Y-72297D01*
X92033Y-72141D01*
X91914Y-72021D01*
X91758Y-71956D01*
X91589Y-71956D01*
X91517Y-71986D01*
X91533Y-71947D01*
X91533Y-71848D01*
X91533Y-71690D01*
X91503Y-71618D01*
X92317Y-71618D01*
X92396Y-71698D01*
X92552Y-71763D01*
X92721Y-71763D01*
X92878Y-71699D01*
X92997Y-71579D01*
X93062Y-71423D01*
X93062Y-71254D01*
X93062Y-76817D01*
X92888Y-76817D01*
X92825Y-76880D01*
X92825Y-77292D01*
X92833Y-77292D01*
X92833Y-77392D01*
X92825Y-77392D01*
X92825Y-77805D01*
X92888Y-77867D01*
X93096Y-77867D01*
X93096Y-78057D01*
X93096Y-78057D01*
G37*
G54D27*
X93096Y-78057D02*
X92725Y-78057D01*
X92725Y-77805D01*
X92725Y-77392D01*
X92725Y-77292D01*
X92725Y-76880D01*
X92663Y-76817D01*
X92451Y-76817D01*
X92359Y-76855D01*
X92288Y-76925D01*
X92250Y-77017D01*
X92250Y-77117D01*
X92250Y-77230D01*
X92313Y-77292D01*
X92725Y-77292D01*
X92725Y-77392D01*
X92313Y-77392D01*
X92250Y-77455D01*
X92250Y-77568D01*
X92250Y-77667D01*
X92288Y-77759D01*
X92359Y-77829D01*
X92451Y-77867D01*
X92663Y-77867D01*
X92725Y-77805D01*
X92725Y-78057D01*
X91647Y-78057D01*
X91647Y-75939D01*
X91567Y-75746D01*
X91419Y-75598D01*
X91226Y-75518D01*
X91018Y-75518D01*
X90825Y-75597D01*
X90677Y-75745D01*
X90622Y-75878D01*
X90567Y-75746D01*
X90419Y-75598D01*
X90226Y-75518D01*
X90018Y-75518D01*
X89825Y-75597D01*
X89677Y-75745D01*
X89622Y-75878D01*
X89567Y-75746D01*
X89419Y-75598D01*
X89226Y-75518D01*
X89018Y-75518D01*
X88825Y-75597D01*
X88677Y-75745D01*
X88624Y-75872D01*
X88582Y-75770D01*
X88489Y-75746D01*
X88419Y-75816D01*
X88419Y-75675D01*
X88394Y-75582D01*
X88197Y-75513D01*
X87989Y-75524D01*
X87849Y-75582D01*
X87824Y-75675D01*
X88122Y-75972D01*
X88419Y-75675D01*
X88419Y-75816D01*
X88192Y-76043D01*
X88489Y-76340D01*
X88582Y-76316D01*
X88621Y-76206D01*
X88676Y-76340D01*
X88824Y-76488D01*
X89017Y-76568D01*
X89226Y-76568D01*
X89419Y-76488D01*
X89566Y-76341D01*
X89622Y-76208D01*
X89676Y-76340D01*
X89824Y-76488D01*
X90017Y-76568D01*
X90226Y-76568D01*
X90419Y-76488D01*
X90566Y-76341D01*
X90622Y-76208D01*
X90676Y-76340D01*
X90824Y-76488D01*
X91017Y-76568D01*
X91226Y-76568D01*
X91419Y-76488D01*
X91566Y-76341D01*
X91646Y-76148D01*
X91647Y-75939D01*
X91647Y-78057D01*
X88419Y-78057D01*
X88419Y-76411D01*
X88122Y-76114D01*
X87824Y-76411D01*
X87849Y-76503D01*
X88046Y-76573D01*
X88254Y-76561D01*
X88394Y-76503D01*
X88419Y-76411D01*
X88419Y-78057D01*
X88199Y-78057D01*
X88256Y-78033D01*
X88327Y-77963D01*
X88365Y-77871D01*
X88365Y-77771D01*
X88365Y-76971D01*
X88327Y-76879D01*
X88257Y-76809D01*
X88165Y-76771D01*
X88065Y-76771D01*
X88043Y-76771D01*
X87580Y-76308D01*
X87619Y-76214D01*
X87661Y-76316D01*
X87754Y-76340D01*
X88051Y-76043D01*
X87754Y-75746D01*
X87661Y-75770D01*
X87622Y-75880D01*
X87567Y-75746D01*
X87450Y-75629D01*
X87450Y-75389D01*
X87425Y-75263D01*
X87425Y-75263D01*
X87354Y-75157D01*
X87320Y-75122D01*
X87573Y-75122D01*
X87652Y-75202D01*
X87808Y-75267D01*
X87977Y-75267D01*
X88134Y-75203D01*
X88253Y-75083D01*
X88318Y-74927D01*
X88318Y-74768D01*
X88655Y-74768D01*
X88715Y-74828D01*
X88748Y-74842D01*
X88748Y-75005D01*
X88812Y-75161D01*
X88932Y-75281D01*
X89088Y-75346D01*
X89257Y-75346D01*
X89413Y-75281D01*
X89474Y-75221D01*
X92154Y-75221D01*
X92218Y-75247D01*
X92387Y-75247D01*
X92543Y-75183D01*
X92663Y-75063D01*
X92728Y-74907D01*
X92728Y-74738D01*
X92663Y-74582D01*
X92544Y-74462D01*
X92413Y-74408D01*
X92413Y-74364D01*
X92348Y-74208D01*
X92229Y-74088D01*
X92073Y-74023D01*
X91904Y-74023D01*
X91747Y-74088D01*
X91628Y-74207D01*
X91603Y-74266D01*
X91574Y-74266D01*
X91586Y-74238D01*
X91586Y-74069D01*
X91521Y-73913D01*
X91402Y-73793D01*
X91246Y-73728D01*
X91077Y-73728D01*
X90920Y-73793D01*
X90860Y-73853D01*
X89932Y-73853D01*
X89932Y-73754D01*
X89868Y-73598D01*
X89748Y-73478D01*
X89592Y-73413D01*
X89528Y-73413D01*
X89474Y-73283D01*
X89355Y-73163D01*
X89199Y-73098D01*
X89030Y-73098D01*
X88873Y-73163D01*
X88813Y-73223D01*
X88655Y-73223D01*
X88724Y-73195D01*
X88844Y-73075D01*
X88909Y-72919D01*
X88909Y-72750D01*
X88844Y-72594D01*
X88725Y-72474D01*
X88569Y-72409D01*
X88400Y-72409D01*
X88243Y-72474D01*
X88187Y-72530D01*
X87688Y-72530D01*
X87718Y-72459D01*
X87718Y-72359D01*
X87718Y-72202D01*
X87680Y-72110D01*
X87650Y-72080D01*
X87680Y-72051D01*
X87718Y-71959D01*
X87718Y-71859D01*
X87718Y-71702D01*
X87680Y-71610D01*
X87650Y-71580D01*
X87680Y-71551D01*
X87718Y-71459D01*
X87718Y-71359D01*
X87718Y-71202D01*
X87680Y-71110D01*
X87650Y-71080D01*
X87680Y-71051D01*
X87718Y-70959D01*
X87718Y-70859D01*
X87718Y-70702D01*
X87680Y-70610D01*
X87650Y-70580D01*
X87680Y-70551D01*
X87718Y-70459D01*
X87718Y-70359D01*
X87718Y-70202D01*
X87680Y-70110D01*
X87650Y-70080D01*
X87680Y-70050D01*
X87718Y-69958D01*
X87718Y-69932D01*
X87656Y-69870D01*
X87164Y-69870D01*
X87164Y-69888D01*
X87064Y-69888D01*
X87064Y-69870D01*
X86572Y-69870D01*
X86509Y-69932D01*
X86509Y-69958D01*
X86539Y-70030D01*
X85592Y-70030D01*
X85556Y-69994D01*
X85399Y-69929D01*
X85230Y-69929D01*
X85074Y-69993D01*
X84954Y-70113D01*
X84890Y-70269D01*
X84889Y-70438D01*
X84954Y-70594D01*
X85066Y-70707D01*
X85027Y-70800D01*
X85027Y-70969D01*
X85092Y-71126D01*
X85211Y-71245D01*
X85362Y-71308D01*
X85362Y-71422D01*
X85426Y-71579D01*
X85546Y-71698D01*
X85681Y-71754D01*
X85677Y-71765D01*
X85677Y-71934D01*
X85741Y-72090D01*
X85861Y-72210D01*
X85973Y-72256D01*
X85972Y-72257D01*
X85972Y-72426D01*
X86037Y-72582D01*
X86156Y-72702D01*
X86312Y-72767D01*
X86481Y-72767D01*
X86509Y-72756D01*
X86509Y-72801D01*
X86509Y-72958D01*
X86524Y-72995D01*
X86513Y-73007D01*
X85897Y-73007D01*
X85897Y-72907D01*
X85832Y-72751D01*
X85713Y-72632D01*
X85557Y-72567D01*
X85499Y-72567D01*
X85478Y-72515D01*
X85359Y-72395D01*
X85208Y-72333D01*
X85208Y-72218D01*
X85143Y-72062D01*
X85024Y-71943D01*
X84876Y-71881D01*
X84829Y-71767D01*
X84709Y-71647D01*
X84570Y-71590D01*
X84514Y-71452D01*
X84394Y-71332D01*
X84238Y-71267D01*
X84233Y-71267D01*
X84179Y-71137D01*
X84059Y-71017D01*
X83957Y-70975D01*
X83957Y-68439D01*
X83957Y-67839D01*
X83919Y-67747D01*
X83848Y-67677D01*
X83757Y-67639D01*
X83657Y-67639D01*
X82857Y-67639D01*
X82765Y-67677D01*
X82695Y-67747D01*
X82657Y-67839D01*
X82657Y-67938D01*
X82657Y-68166D01*
X82630Y-68140D01*
X82630Y-67439D01*
X82717Y-67352D01*
X82765Y-67401D01*
X82857Y-67439D01*
X82956Y-67439D01*
X83756Y-67439D01*
X83848Y-67401D01*
X83918Y-67331D01*
X83957Y-67239D01*
X83957Y-67139D01*
X83957Y-66539D01*
X83919Y-66447D01*
X83848Y-66377D01*
X83757Y-66339D01*
X83657Y-66339D01*
X82857Y-66339D01*
X82765Y-66377D01*
X82695Y-66447D01*
X82657Y-66539D01*
X82657Y-66609D01*
X82641Y-66612D01*
X82544Y-66677D01*
X82118Y-67102D01*
X82053Y-67200D01*
X82030Y-67314D01*
X82030Y-68140D01*
X81968Y-68202D01*
X81930Y-68293D01*
X81930Y-68393D01*
X81930Y-68593D01*
X81968Y-68685D01*
X82038Y-68755D01*
X82130Y-68793D01*
X82230Y-68793D01*
X82530Y-68793D01*
X82622Y-68755D01*
X82692Y-68685D01*
X82709Y-68645D01*
X82765Y-68701D01*
X82787Y-68710D01*
X82720Y-68776D01*
X82682Y-68868D01*
X82682Y-68904D01*
X82645Y-68904D01*
X82622Y-68882D01*
X82530Y-68843D01*
X82431Y-68843D01*
X82131Y-68843D01*
X82039Y-68881D01*
X81968Y-68952D01*
X81930Y-69043D01*
X81930Y-69143D01*
X81930Y-69343D01*
X81968Y-69435D01*
X81970Y-69437D01*
X81805Y-69437D01*
X81730Y-69468D01*
X81730Y-69244D01*
X81730Y-69044D01*
X81715Y-69006D01*
X81730Y-68968D01*
X81730Y-68931D01*
X81668Y-68868D01*
X81590Y-68868D01*
X81530Y-68843D01*
X81431Y-68843D01*
X81272Y-68843D01*
X81272Y-68793D01*
X81530Y-68793D01*
X81590Y-68768D01*
X81668Y-68768D01*
X81730Y-68706D01*
X81730Y-68669D01*
X81715Y-68631D01*
X81730Y-68593D01*
X81730Y-68494D01*
X81730Y-68294D01*
X81692Y-68202D01*
X81622Y-68132D01*
X81530Y-68093D01*
X81431Y-68093D01*
X81131Y-68093D01*
X81079Y-68115D01*
X80987Y-68115D01*
X80852Y-68059D01*
X80683Y-68059D01*
X80590Y-68097D01*
X80590Y-67564D01*
X80590Y-66864D01*
X80590Y-66264D01*
X80553Y-66172D01*
X80482Y-66101D01*
X80390Y-66063D01*
X80291Y-66063D01*
X79491Y-66063D01*
X79399Y-66101D01*
X79329Y-66171D01*
X79290Y-66263D01*
X79290Y-66339D01*
X79197Y-66401D01*
X78437Y-67161D01*
X78372Y-67259D01*
X78349Y-67374D01*
X78349Y-68101D01*
X78287Y-68162D01*
X78249Y-68254D01*
X78249Y-68354D01*
X78249Y-68554D01*
X78287Y-68645D01*
X78357Y-68716D01*
X78449Y-68754D01*
X78549Y-68754D01*
X78849Y-68754D01*
X78941Y-68716D01*
X79011Y-68646D01*
X79049Y-68554D01*
X79049Y-68455D01*
X79049Y-68255D01*
X79011Y-68163D01*
X78949Y-68100D01*
X78949Y-67498D01*
X79360Y-67087D01*
X79399Y-67125D01*
X79490Y-67163D01*
X79590Y-67163D01*
X80390Y-67163D01*
X80482Y-67125D01*
X80552Y-67055D01*
X80590Y-66963D01*
X80590Y-66864D01*
X80590Y-67564D01*
X80553Y-67472D01*
X80482Y-67401D01*
X80390Y-67363D01*
X80291Y-67363D01*
X79491Y-67363D01*
X79399Y-67401D01*
X79329Y-67471D01*
X79290Y-67563D01*
X79290Y-67663D01*
X79290Y-68263D01*
X79328Y-68355D01*
X79399Y-68425D01*
X79490Y-68463D01*
X79590Y-68463D01*
X79680Y-68463D01*
X79680Y-68589D01*
X79575Y-68589D01*
X79483Y-68627D01*
X79413Y-68697D01*
X79375Y-68789D01*
X79375Y-68854D01*
X78953Y-68854D01*
X78941Y-68842D01*
X78849Y-68804D01*
X78750Y-68804D01*
X78450Y-68804D01*
X78358Y-68842D01*
X78287Y-68912D01*
X78249Y-69004D01*
X78249Y-69104D01*
X78249Y-69304D01*
X78287Y-69395D01*
X78349Y-69458D01*
X78349Y-69535D01*
X78372Y-69650D01*
X78437Y-69747D01*
X78610Y-69920D01*
X78610Y-70005D01*
X78674Y-70161D01*
X78794Y-70281D01*
X78950Y-70346D01*
X79119Y-70346D01*
X79275Y-70281D01*
X79395Y-70162D01*
X79437Y-70204D01*
X79930Y-70204D01*
X79930Y-70196D01*
X80030Y-70196D01*
X80030Y-70204D01*
X80522Y-70204D01*
X80585Y-70142D01*
X80585Y-69890D01*
X80547Y-69798D01*
X80477Y-69727D01*
X80421Y-69704D01*
X80476Y-69681D01*
X80547Y-69611D01*
X80585Y-69519D01*
X80585Y-69420D01*
X80585Y-68868D01*
X80682Y-68909D01*
X80851Y-68909D01*
X80949Y-68868D01*
X80993Y-68868D01*
X80930Y-68931D01*
X80930Y-68968D01*
X80939Y-68990D01*
X80840Y-69089D01*
X80775Y-69245D01*
X80775Y-69414D01*
X80840Y-69571D01*
X80959Y-69690D01*
X81115Y-69755D01*
X81284Y-69755D01*
X81441Y-69691D01*
X81560Y-69571D01*
X81581Y-69522D01*
X81622Y-69505D01*
X81692Y-69435D01*
X81730Y-69343D01*
X81730Y-69244D01*
X81730Y-69468D01*
X81649Y-69501D01*
X81529Y-69621D01*
X81464Y-69777D01*
X81464Y-69946D01*
X81529Y-70102D01*
X81648Y-70222D01*
X81804Y-70287D01*
X81973Y-70287D01*
X82130Y-70222D01*
X82249Y-70103D01*
X82252Y-70097D01*
X82256Y-70094D01*
X82563Y-69787D01*
X82563Y-69787D01*
X82634Y-69680D01*
X82658Y-69562D01*
X82682Y-69562D01*
X82682Y-69597D01*
X82720Y-69689D01*
X82790Y-69760D01*
X82846Y-69783D01*
X82790Y-69806D01*
X82720Y-69877D01*
X82682Y-69968D01*
X82682Y-70220D01*
X82744Y-70283D01*
X83237Y-70283D01*
X83237Y-70275D01*
X83337Y-70275D01*
X83337Y-70283D01*
X83829Y-70283D01*
X83892Y-70220D01*
X83892Y-69968D01*
X83854Y-69877D01*
X83784Y-69806D01*
X83728Y-69783D01*
X83783Y-69760D01*
X83854Y-69690D01*
X83892Y-69598D01*
X83892Y-69498D01*
X83892Y-68868D01*
X83854Y-68777D01*
X83799Y-68721D01*
X83848Y-68701D01*
X83918Y-68631D01*
X83957Y-68539D01*
X83957Y-68439D01*
X83957Y-70975D01*
X83903Y-70953D01*
X83892Y-70953D01*
X83892Y-70697D01*
X83892Y-70445D01*
X83829Y-70383D01*
X83337Y-70383D01*
X83337Y-70835D01*
X83399Y-70898D01*
X83592Y-70898D01*
X83692Y-70898D01*
X83784Y-70860D01*
X83854Y-70789D01*
X83892Y-70697D01*
X83892Y-70953D01*
X83734Y-70952D01*
X83578Y-71017D01*
X83537Y-71058D01*
X83237Y-71058D01*
X83237Y-70835D01*
X83237Y-70383D01*
X82744Y-70383D01*
X82682Y-70445D01*
X82682Y-70697D01*
X82720Y-70789D01*
X82790Y-70860D01*
X82882Y-70898D01*
X82981Y-70898D01*
X83174Y-70898D01*
X83237Y-70835D01*
X83237Y-71058D01*
X80585Y-71058D01*
X80585Y-70619D01*
X80585Y-70367D01*
X80522Y-70304D01*
X80030Y-70304D01*
X80030Y-70757D01*
X80092Y-70819D01*
X80285Y-70819D01*
X80385Y-70819D01*
X80477Y-70781D01*
X80547Y-70711D01*
X80585Y-70619D01*
X80585Y-71058D01*
X80163Y-71058D01*
X80103Y-70998D01*
X79947Y-70933D01*
X79930Y-70933D01*
X79930Y-70757D01*
X79930Y-70304D01*
X79437Y-70304D01*
X79375Y-70367D01*
X79375Y-70619D01*
X79413Y-70711D01*
X79483Y-70781D01*
X79575Y-70819D01*
X79674Y-70819D01*
X79867Y-70819D01*
X79930Y-70757D01*
X79930Y-70933D01*
X79778Y-70933D01*
X79621Y-70997D01*
X79502Y-71117D01*
X79437Y-71273D01*
X79437Y-71392D01*
X79415Y-71392D01*
X79355Y-71332D01*
X79199Y-71267D01*
X79030Y-71267D01*
X78873Y-71332D01*
X78754Y-71451D01*
X78692Y-71600D01*
X78578Y-71647D01*
X78458Y-71766D01*
X78401Y-71905D01*
X78263Y-71962D01*
X78143Y-72081D01*
X78082Y-72230D01*
X78049Y-72243D01*
X78049Y-69205D01*
X78049Y-69005D01*
X78033Y-68967D01*
X78049Y-68929D01*
X78049Y-68892D01*
X77987Y-68829D01*
X77909Y-68829D01*
X77849Y-68804D01*
X77750Y-68804D01*
X77591Y-68804D01*
X77591Y-68754D01*
X77849Y-68754D01*
X77909Y-68729D01*
X77987Y-68729D01*
X78049Y-68667D01*
X78049Y-68630D01*
X78033Y-68592D01*
X78049Y-68554D01*
X78049Y-68455D01*
X78049Y-68255D01*
X78011Y-68163D01*
X77941Y-68092D01*
X77849Y-68054D01*
X77750Y-68054D01*
X77592Y-68054D01*
X77544Y-68006D01*
X77388Y-67941D01*
X77218Y-67941D01*
X77062Y-68005D01*
X76943Y-68125D01*
X76878Y-68281D01*
X76878Y-68450D01*
X76941Y-68604D01*
X76894Y-68557D01*
X76738Y-68492D01*
X76613Y-68492D01*
X76613Y-68448D01*
X76575Y-68356D01*
X76505Y-68285D01*
X76418Y-68249D01*
X76465Y-68230D01*
X76535Y-68159D01*
X76573Y-68068D01*
X76573Y-68062D01*
X76599Y-68062D01*
X76756Y-67998D01*
X76875Y-67878D01*
X76940Y-67722D01*
X76940Y-67553D01*
X76876Y-67397D01*
X76756Y-67277D01*
X76600Y-67212D01*
X76574Y-67212D01*
X76574Y-67168D01*
X76536Y-67076D01*
X76467Y-67007D01*
X76516Y-66959D01*
X76554Y-66867D01*
X76554Y-66767D01*
X76554Y-65967D01*
X76516Y-65875D01*
X76446Y-65805D01*
X76354Y-65767D01*
X76254Y-65767D01*
X75654Y-65767D01*
X75562Y-65805D01*
X75492Y-65875D01*
X75454Y-65967D01*
X75454Y-66066D01*
X75454Y-66866D01*
X75492Y-66958D01*
X75560Y-67027D01*
X75512Y-67076D01*
X75474Y-67168D01*
X75473Y-67267D01*
X75473Y-68067D01*
X75511Y-68159D01*
X75582Y-68229D01*
X75669Y-68266D01*
X75621Y-68285D01*
X75551Y-68355D01*
X75513Y-68447D01*
X75513Y-68547D01*
X75513Y-69347D01*
X75551Y-69439D01*
X75621Y-69509D01*
X75713Y-69547D01*
X75812Y-69547D01*
X76412Y-69547D01*
X76504Y-69509D01*
X76575Y-69439D01*
X76613Y-69347D01*
X76613Y-69342D01*
X76737Y-69342D01*
X76893Y-69277D01*
X76919Y-69251D01*
X76897Y-69304D01*
X76897Y-69473D01*
X76962Y-69630D01*
X77081Y-69749D01*
X77237Y-69814D01*
X77407Y-69814D01*
X77563Y-69750D01*
X77682Y-69630D01*
X77735Y-69504D01*
X77849Y-69504D01*
X77941Y-69466D01*
X78011Y-69396D01*
X78049Y-69304D01*
X78049Y-69205D01*
X78049Y-72243D01*
X77968Y-72277D01*
X77848Y-72396D01*
X77783Y-72552D01*
X77783Y-72721D01*
X77785Y-72726D01*
X77633Y-72789D01*
X77513Y-72908D01*
X77473Y-73007D01*
X75721Y-73007D01*
X75721Y-72449D01*
X75721Y-71899D01*
X75683Y-71807D01*
X75613Y-71737D01*
X75521Y-71699D01*
X75422Y-71699D01*
X74872Y-71699D01*
X74780Y-71737D01*
X74710Y-71807D01*
X74671Y-71899D01*
X74671Y-71924D01*
X74553Y-71924D01*
X73834Y-71205D01*
X74671Y-71205D01*
X74671Y-71249D01*
X74709Y-71341D01*
X74780Y-71412D01*
X74871Y-71450D01*
X74971Y-71450D01*
X75521Y-71450D01*
X75613Y-71412D01*
X75683Y-71341D01*
X75721Y-71250D01*
X75721Y-71150D01*
X75721Y-70600D01*
X75683Y-70508D01*
X75613Y-70438D01*
X75521Y-70400D01*
X75422Y-70400D01*
X74872Y-70400D01*
X74780Y-70438D01*
X74710Y-70508D01*
X74671Y-70600D01*
X74671Y-70605D01*
X72527Y-70605D01*
X72557Y-70533D01*
X72557Y-70507D01*
X72494Y-70444D01*
X72002Y-70444D01*
X72002Y-70463D01*
X71902Y-70463D01*
X71902Y-70444D01*
X71410Y-70444D01*
X71348Y-70507D01*
X71348Y-70533D01*
X71386Y-70625D01*
X71416Y-70655D01*
X71386Y-70684D01*
X71348Y-70776D01*
X71348Y-70876D01*
X71348Y-71033D01*
X71386Y-71125D01*
X71416Y-71155D01*
X71386Y-71184D01*
X71348Y-71276D01*
X71348Y-71376D01*
X71348Y-71533D01*
X71386Y-71625D01*
X71416Y-71655D01*
X71386Y-71684D01*
X71348Y-71776D01*
X71348Y-71876D01*
X71348Y-72033D01*
X71386Y-72125D01*
X71416Y-72155D01*
X71386Y-72184D01*
X71348Y-72276D01*
X71348Y-72376D01*
X71348Y-72533D01*
X71386Y-72625D01*
X71456Y-72696D01*
X71548Y-72734D01*
X71647Y-72734D01*
X72356Y-72734D01*
X72365Y-72730D01*
X72416Y-72781D01*
X72572Y-72846D01*
X72741Y-72846D01*
X72897Y-72781D01*
X73017Y-72662D01*
X73082Y-72506D01*
X73082Y-72413D01*
X73115Y-72413D01*
X73271Y-72348D01*
X73391Y-72229D01*
X73456Y-72073D01*
X73456Y-71904D01*
X73392Y-71747D01*
X73349Y-71705D01*
X73485Y-71705D01*
X74217Y-72436D01*
X74217Y-72436D01*
X74314Y-72501D01*
X74429Y-72524D01*
X74671Y-72524D01*
X74671Y-72548D01*
X74709Y-72640D01*
X74780Y-72711D01*
X74871Y-72749D01*
X74971Y-72749D01*
X75521Y-72749D01*
X75613Y-72711D01*
X75683Y-72641D01*
X75721Y-72549D01*
X75721Y-72449D01*
X75721Y-73007D01*
X71203Y-73007D01*
X71187Y-72968D01*
X71067Y-72848D01*
X70911Y-72783D01*
X70896Y-72783D01*
X70949Y-72762D01*
X71068Y-72642D01*
X71133Y-72486D01*
X71133Y-72317D01*
X71069Y-72161D01*
X70949Y-72041D01*
X70793Y-71976D01*
X70624Y-71976D01*
X70468Y-72041D01*
X70391Y-72117D01*
X68712Y-72117D01*
X68742Y-72046D01*
X68742Y-71946D01*
X68742Y-71789D01*
X68704Y-71697D01*
X68674Y-71667D01*
X68703Y-71637D01*
X68742Y-71546D01*
X68742Y-71446D01*
X68742Y-71289D01*
X68704Y-71197D01*
X68674Y-71167D01*
X68703Y-71137D01*
X68742Y-71046D01*
X68742Y-70946D01*
X68742Y-70789D01*
X68704Y-70697D01*
X68674Y-70667D01*
X68703Y-70637D01*
X68742Y-70546D01*
X68742Y-70446D01*
X68742Y-70289D01*
X68704Y-70197D01*
X68674Y-70167D01*
X68703Y-70137D01*
X68742Y-70046D01*
X68742Y-69946D01*
X68742Y-69789D01*
X68704Y-69697D01*
X68674Y-69667D01*
X68704Y-69637D01*
X68742Y-69545D01*
X68742Y-69519D01*
X68679Y-69456D01*
X68187Y-69456D01*
X68187Y-69475D01*
X68087Y-69475D01*
X68087Y-69456D01*
X67595Y-69456D01*
X67556Y-69496D01*
X67474Y-69496D01*
X67318Y-69560D01*
X67198Y-69680D01*
X67134Y-69836D01*
X67133Y-70005D01*
X67161Y-70072D01*
X67061Y-70172D01*
X66996Y-70328D01*
X66996Y-70497D01*
X67012Y-70536D01*
X66944Y-70564D01*
X66824Y-70684D01*
X66776Y-70800D01*
X66196Y-70220D01*
X66099Y-70155D01*
X65997Y-70135D01*
X65997Y-70108D01*
X65959Y-70016D01*
X65889Y-69946D01*
X65797Y-69908D01*
X65697Y-69908D01*
X65147Y-69908D01*
X65092Y-69930D01*
X65092Y-59476D01*
X65131Y-59571D01*
X65251Y-59690D01*
X65407Y-59755D01*
X65576Y-59755D01*
X65732Y-59691D01*
X65793Y-59630D01*
X72513Y-59630D01*
X72586Y-59703D01*
X72586Y-59788D01*
X72651Y-59945D01*
X72770Y-60064D01*
X72926Y-60129D01*
X73095Y-60129D01*
X73252Y-60065D01*
X73371Y-59945D01*
X73401Y-59873D01*
X73469Y-59873D01*
X73626Y-59809D01*
X73715Y-59720D01*
X73753Y-59735D01*
X73922Y-59736D01*
X74079Y-59671D01*
X74139Y-59611D01*
X75525Y-59611D01*
X75566Y-59651D01*
X75722Y-59716D01*
X75891Y-59716D01*
X76047Y-59651D01*
X76167Y-59532D01*
X76226Y-59388D01*
X76352Y-59440D01*
X76437Y-59440D01*
X76520Y-59523D01*
X76617Y-59588D01*
X76732Y-59611D01*
X76988Y-59611D01*
X76956Y-59659D01*
X76933Y-59774D01*
X76933Y-59811D01*
X76879Y-59811D01*
X76787Y-59849D01*
X76716Y-59919D01*
X76678Y-60011D01*
X76678Y-60110D01*
X76678Y-60622D01*
X76716Y-60714D01*
X76786Y-60785D01*
X76878Y-60823D01*
X76978Y-60823D01*
X77588Y-60823D01*
X77680Y-60785D01*
X77750Y-60715D01*
X77788Y-60623D01*
X77788Y-60617D01*
X77949Y-60617D01*
X78066Y-60734D01*
X78222Y-60798D01*
X78391Y-60799D01*
X78547Y-60734D01*
X78667Y-60615D01*
X78732Y-60458D01*
X78732Y-60289D01*
X78667Y-60133D01*
X78548Y-60013D01*
X78391Y-59949D01*
X78222Y-59948D01*
X78066Y-60013D01*
X78062Y-60017D01*
X77789Y-60017D01*
X77789Y-60011D01*
X77751Y-59919D01*
X77680Y-59849D01*
X77611Y-59820D01*
X77643Y-59788D01*
X92868Y-59788D01*
X92928Y-59848D01*
X93084Y-59913D01*
X93096Y-59913D01*
X93096Y-66915D01*
X93006Y-66878D01*
X93006Y-62723D01*
X93006Y-62211D01*
X93006Y-60523D01*
X93006Y-60110D01*
X93006Y-60011D01*
X92968Y-59919D01*
X92897Y-59849D01*
X92805Y-59811D01*
X92563Y-59811D01*
X92501Y-59873D01*
X92501Y-60267D01*
X92943Y-60267D01*
X93006Y-60204D01*
X93006Y-60110D01*
X93006Y-60523D01*
X93006Y-60429D01*
X92943Y-60367D01*
X92501Y-60367D01*
X92501Y-60760D01*
X92563Y-60823D01*
X92805Y-60823D01*
X92897Y-60785D01*
X92968Y-60715D01*
X93006Y-60623D01*
X93006Y-60523D01*
X93006Y-62211D01*
X92968Y-62119D01*
X92898Y-62049D01*
X92806Y-62011D01*
X92706Y-62011D01*
X92401Y-62011D01*
X92401Y-60760D01*
X92401Y-60367D01*
X92393Y-60367D01*
X92393Y-60267D01*
X92401Y-60267D01*
X92401Y-59873D01*
X92338Y-59811D01*
X92096Y-59811D01*
X92004Y-59849D01*
X91934Y-59919D01*
X91918Y-59958D01*
X91835Y-59876D01*
X91679Y-59811D01*
X91510Y-59811D01*
X91354Y-59875D01*
X91234Y-59995D01*
X91225Y-60017D01*
X89732Y-60017D01*
X89672Y-59957D01*
X89516Y-59892D01*
X89347Y-59892D01*
X89191Y-59956D01*
X89185Y-59962D01*
X89168Y-59919D01*
X89098Y-59849D01*
X89006Y-59811D01*
X88906Y-59811D01*
X88296Y-59811D01*
X88204Y-59849D01*
X88134Y-59919D01*
X88096Y-60011D01*
X88096Y-60110D01*
X88096Y-60622D01*
X88133Y-60714D01*
X88204Y-60785D01*
X88296Y-60823D01*
X88395Y-60823D01*
X89005Y-60823D01*
X89097Y-60785D01*
X89168Y-60715D01*
X89185Y-60672D01*
X89190Y-60677D01*
X89346Y-60742D01*
X89515Y-60742D01*
X89671Y-60677D01*
X89732Y-60617D01*
X91404Y-60617D01*
X91509Y-60661D01*
X91678Y-60661D01*
X91834Y-60596D01*
X91896Y-60535D01*
X91896Y-60623D01*
X91934Y-60715D01*
X92004Y-60785D01*
X92096Y-60823D01*
X92338Y-60823D01*
X92401Y-60760D01*
X92401Y-62011D01*
X92096Y-62011D01*
X92004Y-62049D01*
X91934Y-62119D01*
X91896Y-62211D01*
X91896Y-62310D01*
X91896Y-62822D01*
X91933Y-62914D01*
X92004Y-62985D01*
X92096Y-63023D01*
X92195Y-63023D01*
X92805Y-63023D01*
X92897Y-62985D01*
X92968Y-62915D01*
X93006Y-62823D01*
X93006Y-62723D01*
X93006Y-66878D01*
X92958Y-66858D01*
X92789Y-66858D01*
X92633Y-66922D01*
X92537Y-67018D01*
X92406Y-67018D01*
X92432Y-66954D01*
X92432Y-66785D01*
X92423Y-66763D01*
X92466Y-66763D01*
X92622Y-66699D01*
X92741Y-66579D01*
X92806Y-66423D01*
X92806Y-66254D01*
X92742Y-66098D01*
X92622Y-65978D01*
X92570Y-65956D01*
X92623Y-65956D01*
X92779Y-65892D01*
X92899Y-65772D01*
X92964Y-65616D01*
X92964Y-65447D01*
X92899Y-65291D01*
X92780Y-65171D01*
X92624Y-65106D01*
X92455Y-65106D01*
X92298Y-65170D01*
X92267Y-65202D01*
X90311Y-65202D01*
X90358Y-65183D01*
X90478Y-65063D01*
X90543Y-64907D01*
X90543Y-64738D01*
X90478Y-64582D01*
X90359Y-64462D01*
X90208Y-64400D01*
X90208Y-64364D01*
X90143Y-64208D01*
X90024Y-64088D01*
X89868Y-64023D01*
X89699Y-64023D01*
X89543Y-64088D01*
X89519Y-64111D01*
X89519Y-64069D01*
X89499Y-64020D01*
X90998Y-64020D01*
X91058Y-64080D01*
X91214Y-64145D01*
X91383Y-64145D01*
X91539Y-64080D01*
X91659Y-63961D01*
X91724Y-63805D01*
X91724Y-63636D01*
X91659Y-63480D01*
X91540Y-63360D01*
X91384Y-63295D01*
X91215Y-63295D01*
X91058Y-63359D01*
X90998Y-63420D01*
X89206Y-63420D01*
X89206Y-62723D01*
X89206Y-62211D01*
X89168Y-62119D01*
X89098Y-62049D01*
X89006Y-62011D01*
X88906Y-62011D01*
X88296Y-62011D01*
X88204Y-62049D01*
X88134Y-62119D01*
X88096Y-62211D01*
X88096Y-62310D01*
X88096Y-62822D01*
X88133Y-62914D01*
X88204Y-62985D01*
X88296Y-63023D01*
X88395Y-63023D01*
X89005Y-63023D01*
X89097Y-62985D01*
X89168Y-62915D01*
X89206Y-62823D01*
X89206Y-62723D01*
X89206Y-63420D01*
X87539Y-63420D01*
X87474Y-63433D01*
X87474Y-63433D01*
X87317Y-63433D01*
X87297Y-63441D01*
X87297Y-62723D01*
X87297Y-62211D01*
X87297Y-60523D01*
X87297Y-60110D01*
X87297Y-60011D01*
X87259Y-59919D01*
X87189Y-59849D01*
X87097Y-59811D01*
X86855Y-59811D01*
X86792Y-59873D01*
X86792Y-60267D01*
X87235Y-60267D01*
X87297Y-60204D01*
X87297Y-60110D01*
X87297Y-60523D01*
X87297Y-60429D01*
X87235Y-60367D01*
X86792Y-60367D01*
X86792Y-60760D01*
X86855Y-60823D01*
X87097Y-60823D01*
X87189Y-60785D01*
X87259Y-60715D01*
X87297Y-60623D01*
X87297Y-60523D01*
X87297Y-62211D01*
X87259Y-62119D01*
X87189Y-62049D01*
X87097Y-62011D01*
X86998Y-62011D01*
X86692Y-62011D01*
X86692Y-60760D01*
X86692Y-60367D01*
X86692Y-60267D01*
X86692Y-59873D01*
X86630Y-59811D01*
X86387Y-59811D01*
X86295Y-59849D01*
X86225Y-59919D01*
X86187Y-60011D01*
X86187Y-60110D01*
X86187Y-60204D01*
X86249Y-60267D01*
X86692Y-60267D01*
X86692Y-60367D01*
X86249Y-60367D01*
X86187Y-60429D01*
X86187Y-60523D01*
X86187Y-60623D01*
X86225Y-60715D01*
X86295Y-60785D01*
X86387Y-60823D01*
X86630Y-60823D01*
X86692Y-60760D01*
X86692Y-62011D01*
X86387Y-62011D01*
X86295Y-62049D01*
X86225Y-62119D01*
X86187Y-62211D01*
X86187Y-62310D01*
X86187Y-62822D01*
X86225Y-62914D01*
X86295Y-62985D01*
X86387Y-63023D01*
X86486Y-63023D01*
X87097Y-63023D01*
X87189Y-62985D01*
X87259Y-62915D01*
X87297Y-62823D01*
X87297Y-62723D01*
X87297Y-63441D01*
X87161Y-63497D01*
X87041Y-63617D01*
X86976Y-63773D01*
X86976Y-63853D01*
X85858Y-63853D01*
X85858Y-63754D01*
X85793Y-63598D01*
X85674Y-63478D01*
X85517Y-63413D01*
X85432Y-63413D01*
X85349Y-63331D01*
X85252Y-63266D01*
X85137Y-63243D01*
X84165Y-63243D01*
X84165Y-60250D01*
X84100Y-60094D01*
X83981Y-59974D01*
X83825Y-59909D01*
X83655Y-59909D01*
X83499Y-59974D01*
X83487Y-59986D01*
X83459Y-59919D01*
X83389Y-59849D01*
X83297Y-59811D01*
X83198Y-59811D01*
X82587Y-59811D01*
X82495Y-59849D01*
X82425Y-59919D01*
X82387Y-60011D01*
X82387Y-60110D01*
X82387Y-60336D01*
X82357Y-60348D01*
X82238Y-60467D01*
X82173Y-60623D01*
X82173Y-60792D01*
X82237Y-60949D01*
X82357Y-61068D01*
X82513Y-61133D01*
X82682Y-61133D01*
X82838Y-61069D01*
X82958Y-60949D01*
X83011Y-60823D01*
X83297Y-60823D01*
X83389Y-60785D01*
X83459Y-60715D01*
X83477Y-60672D01*
X83499Y-60694D01*
X83655Y-60759D01*
X83824Y-60759D01*
X83980Y-60695D01*
X84100Y-60575D01*
X84165Y-60419D01*
X84165Y-60250D01*
X84165Y-63243D01*
X83497Y-63243D01*
X83497Y-62723D01*
X83497Y-62211D01*
X83459Y-62119D01*
X83389Y-62049D01*
X83297Y-62011D01*
X83198Y-62011D01*
X82587Y-62011D01*
X82495Y-62049D01*
X82425Y-62119D01*
X82387Y-62211D01*
X82387Y-62310D01*
X82387Y-62822D01*
X82425Y-62914D01*
X82495Y-62985D01*
X82587Y-63023D01*
X82686Y-63023D01*
X83297Y-63023D01*
X83389Y-62985D01*
X83459Y-62915D01*
X83497Y-62823D01*
X83497Y-62723D01*
X83497Y-63243D01*
X81589Y-63243D01*
X81589Y-62723D01*
X81589Y-62211D01*
X81589Y-60523D01*
X81589Y-60110D01*
X81588Y-60011D01*
X81550Y-59919D01*
X81480Y-59849D01*
X81388Y-59811D01*
X81146Y-59811D01*
X81083Y-59873D01*
X81083Y-60267D01*
X81526Y-60267D01*
X81588Y-60204D01*
X81589Y-60110D01*
X81589Y-60523D01*
X81588Y-60429D01*
X81526Y-60367D01*
X81083Y-60367D01*
X81083Y-60760D01*
X81146Y-60823D01*
X81388Y-60823D01*
X81480Y-60785D01*
X81550Y-60715D01*
X81588Y-60623D01*
X81589Y-60523D01*
X81589Y-62211D01*
X81551Y-62119D01*
X81480Y-62049D01*
X81388Y-62011D01*
X81289Y-62011D01*
X80983Y-62011D01*
X80983Y-60760D01*
X80983Y-60367D01*
X80983Y-60267D01*
X80983Y-59873D01*
X80921Y-59811D01*
X80679Y-59811D01*
X80587Y-59849D01*
X80516Y-59919D01*
X80478Y-60011D01*
X80478Y-60110D01*
X80478Y-60204D01*
X80541Y-60267D01*
X80983Y-60267D01*
X80983Y-60367D01*
X80541Y-60367D01*
X80478Y-60429D01*
X80478Y-60523D01*
X80478Y-60623D01*
X80516Y-60715D01*
X80587Y-60785D01*
X80679Y-60823D01*
X80921Y-60823D01*
X80983Y-60760D01*
X80983Y-62011D01*
X80679Y-62011D01*
X80587Y-62049D01*
X80516Y-62119D01*
X80478Y-62211D01*
X80478Y-62310D01*
X80478Y-62822D01*
X80516Y-62914D01*
X80586Y-62985D01*
X80678Y-63023D01*
X80778Y-63023D01*
X81388Y-63023D01*
X81480Y-62985D01*
X81550Y-62915D01*
X81588Y-62823D01*
X81589Y-62723D01*
X81589Y-63243D01*
X77789Y-63243D01*
X77789Y-62723D01*
X77789Y-62211D01*
X77751Y-62119D01*
X77680Y-62049D01*
X77588Y-62011D01*
X77489Y-62011D01*
X77295Y-62011D01*
X77295Y-61490D01*
X77230Y-61334D01*
X77111Y-61214D01*
X76954Y-61149D01*
X76785Y-61149D01*
X76673Y-61196D01*
X75880Y-61196D01*
X75880Y-60523D01*
X75880Y-60110D01*
X75880Y-60011D01*
X75842Y-59919D01*
X75771Y-59849D01*
X75679Y-59811D01*
X75437Y-59811D01*
X75375Y-59873D01*
X75375Y-60267D01*
X75817Y-60267D01*
X75880Y-60204D01*
X75880Y-60110D01*
X75880Y-60523D01*
X75880Y-60429D01*
X75817Y-60367D01*
X75375Y-60367D01*
X75375Y-60760D01*
X75437Y-60823D01*
X75679Y-60823D01*
X75771Y-60785D01*
X75842Y-60715D01*
X75880Y-60623D01*
X75880Y-60523D01*
X75880Y-61196D01*
X75275Y-61196D01*
X75275Y-60760D01*
X75275Y-60367D01*
X75275Y-60267D01*
X75275Y-59873D01*
X75212Y-59811D01*
X74970Y-59811D01*
X74878Y-59849D01*
X74808Y-59919D01*
X74770Y-60011D01*
X74770Y-60110D01*
X74770Y-60204D01*
X74832Y-60267D01*
X75275Y-60267D01*
X75275Y-60367D01*
X74832Y-60367D01*
X74770Y-60429D01*
X74770Y-60523D01*
X74770Y-60623D01*
X74808Y-60715D01*
X74878Y-60785D01*
X74970Y-60823D01*
X75212Y-60823D01*
X75275Y-60760D01*
X75275Y-61196D01*
X71885Y-61196D01*
X71934Y-61146D01*
X71999Y-60990D01*
X71999Y-60821D01*
X71981Y-60775D01*
X71996Y-60760D01*
X72041Y-60779D01*
X72210Y-60779D01*
X72366Y-60714D01*
X72486Y-60595D01*
X72550Y-60439D01*
X72551Y-60270D01*
X72486Y-60113D01*
X72367Y-59994D01*
X72210Y-59929D01*
X72046Y-59929D01*
X72042Y-59919D01*
X71972Y-59849D01*
X71880Y-59811D01*
X71780Y-59811D01*
X71170Y-59811D01*
X71078Y-59849D01*
X71008Y-59919D01*
X70970Y-60011D01*
X70970Y-60110D01*
X70970Y-60622D01*
X71008Y-60714D01*
X71078Y-60785D01*
X71151Y-60815D01*
X71149Y-60820D01*
X71149Y-60989D01*
X71214Y-61145D01*
X71264Y-61196D01*
X70171Y-61196D01*
X70171Y-60523D01*
X70171Y-60110D01*
X70171Y-60011D01*
X70133Y-59919D01*
X70063Y-59849D01*
X69971Y-59811D01*
X69729Y-59811D01*
X69666Y-59873D01*
X69666Y-60267D01*
X70109Y-60267D01*
X70171Y-60204D01*
X70171Y-60110D01*
X70171Y-60523D01*
X70171Y-60429D01*
X70109Y-60367D01*
X69666Y-60367D01*
X69666Y-60760D01*
X69729Y-60823D01*
X69971Y-60823D01*
X70063Y-60785D01*
X70133Y-60715D01*
X70171Y-60623D01*
X70171Y-60523D01*
X70171Y-61196D01*
X70104Y-61196D01*
X70044Y-61135D01*
X69888Y-61071D01*
X69718Y-61070D01*
X69566Y-61133D01*
X69566Y-60760D01*
X69566Y-60367D01*
X69566Y-60267D01*
X69566Y-59873D01*
X69504Y-59811D01*
X69261Y-59811D01*
X69169Y-59849D01*
X69099Y-59919D01*
X69061Y-60011D01*
X69061Y-60110D01*
X69061Y-60204D01*
X69123Y-60267D01*
X69566Y-60267D01*
X69566Y-60367D01*
X69123Y-60367D01*
X69061Y-60429D01*
X69061Y-60523D01*
X69061Y-60623D01*
X69099Y-60715D01*
X69169Y-60785D01*
X69261Y-60823D01*
X69504Y-60823D01*
X69566Y-60760D01*
X69566Y-61133D01*
X69562Y-61135D01*
X69443Y-61255D01*
X69378Y-61411D01*
X69378Y-61580D01*
X69442Y-61736D01*
X69562Y-61856D01*
X69718Y-61920D01*
X69887Y-61921D01*
X70043Y-61856D01*
X70104Y-61796D01*
X76501Y-61796D01*
X76509Y-61815D01*
X76629Y-61934D01*
X76785Y-61999D01*
X76954Y-61999D01*
X77110Y-61935D01*
X77230Y-61815D01*
X77295Y-61659D01*
X77295Y-61490D01*
X77295Y-62011D01*
X76879Y-62011D01*
X76787Y-62049D01*
X76716Y-62119D01*
X76678Y-62211D01*
X76678Y-62310D01*
X76678Y-62822D01*
X76716Y-62914D01*
X76786Y-62985D01*
X76878Y-63023D01*
X76978Y-63023D01*
X77588Y-63023D01*
X77680Y-62985D01*
X77750Y-62915D01*
X77788Y-62823D01*
X77789Y-62723D01*
X77789Y-63243D01*
X75880Y-63243D01*
X75880Y-62723D01*
X75880Y-62211D01*
X75842Y-62119D01*
X75772Y-62049D01*
X75680Y-62011D01*
X75580Y-62011D01*
X74970Y-62011D01*
X74878Y-62049D01*
X74808Y-62119D01*
X74770Y-62211D01*
X74770Y-62310D01*
X74770Y-62822D01*
X74808Y-62914D01*
X74878Y-62985D01*
X74970Y-63023D01*
X75069Y-63023D01*
X75679Y-63023D01*
X75771Y-62985D01*
X75842Y-62915D01*
X75880Y-62823D01*
X75880Y-62723D01*
X75880Y-63243D01*
X72080Y-63243D01*
X72080Y-62723D01*
X72080Y-62211D01*
X72042Y-62119D01*
X71972Y-62049D01*
X71880Y-62011D01*
X71780Y-62011D01*
X71170Y-62011D01*
X71078Y-62049D01*
X71008Y-62119D01*
X70970Y-62211D01*
X70970Y-62310D01*
X70970Y-62822D01*
X71008Y-62914D01*
X71078Y-62985D01*
X71170Y-63023D01*
X71269Y-63023D01*
X71879Y-63023D01*
X71971Y-62985D01*
X72042Y-62915D01*
X72080Y-62823D01*
X72080Y-62723D01*
X72080Y-63243D01*
X70891Y-63243D01*
X70831Y-63183D01*
X70675Y-63118D01*
X70506Y-63118D01*
X70350Y-63182D01*
X70230Y-63302D01*
X70171Y-63443D01*
X70171Y-62723D01*
X70171Y-62211D01*
X70133Y-62119D01*
X70063Y-62049D01*
X69971Y-62011D01*
X69872Y-62011D01*
X69261Y-62011D01*
X69169Y-62049D01*
X69099Y-62119D01*
X69061Y-62211D01*
X69061Y-62310D01*
X69061Y-62822D01*
X69099Y-62914D01*
X69169Y-62985D01*
X69261Y-63023D01*
X69360Y-63023D01*
X69971Y-63023D01*
X70063Y-62985D01*
X70133Y-62915D01*
X70171Y-62823D01*
X70171Y-62723D01*
X70171Y-63443D01*
X70165Y-63458D01*
X70165Y-63522D01*
X70035Y-63576D01*
X69915Y-63695D01*
X69850Y-63852D01*
X69850Y-64021D01*
X69915Y-64177D01*
X69945Y-64207D01*
X68338Y-64207D01*
X68338Y-60230D01*
X68273Y-60074D01*
X68154Y-59954D01*
X67998Y-59890D01*
X67829Y-59889D01*
X67672Y-59954D01*
X67609Y-60017D01*
X66897Y-60017D01*
X66835Y-59954D01*
X66679Y-59890D01*
X66510Y-59889D01*
X66354Y-59954D01*
X66349Y-59958D01*
X66333Y-59919D01*
X66263Y-59849D01*
X66171Y-59811D01*
X66072Y-59811D01*
X65461Y-59811D01*
X65369Y-59849D01*
X65299Y-59919D01*
X65261Y-60011D01*
X65261Y-60110D01*
X65261Y-60622D01*
X65299Y-60714D01*
X65369Y-60785D01*
X65461Y-60823D01*
X65560Y-60823D01*
X66171Y-60823D01*
X66263Y-60785D01*
X66333Y-60715D01*
X66351Y-60672D01*
X66353Y-60675D01*
X66509Y-60739D01*
X66678Y-60740D01*
X66834Y-60675D01*
X66893Y-60617D01*
X67614Y-60617D01*
X67672Y-60675D01*
X67828Y-60739D01*
X67997Y-60740D01*
X68153Y-60675D01*
X68273Y-60556D01*
X68338Y-60399D01*
X68338Y-60230D01*
X68338Y-64207D01*
X68273Y-64207D01*
X68213Y-64147D01*
X68057Y-64082D01*
X67888Y-64082D01*
X67732Y-64147D01*
X67612Y-64266D01*
X67547Y-64422D01*
X67547Y-64592D01*
X67611Y-64748D01*
X67731Y-64867D01*
X67887Y-64932D01*
X68056Y-64932D01*
X68212Y-64868D01*
X68273Y-64807D01*
X69555Y-64807D01*
X69555Y-64966D01*
X69619Y-65122D01*
X69739Y-65241D01*
X69895Y-65306D01*
X70064Y-65306D01*
X70220Y-65242D01*
X70281Y-65181D01*
X71071Y-65181D01*
X71070Y-65281D01*
X71135Y-65437D01*
X71255Y-65556D01*
X71371Y-65605D01*
X71186Y-65605D01*
X71185Y-65604D01*
X71029Y-65539D01*
X70860Y-65539D01*
X70704Y-65604D01*
X70584Y-65723D01*
X70519Y-65879D01*
X70519Y-66048D01*
X70584Y-66204D01*
X70703Y-66324D01*
X70859Y-66389D01*
X70972Y-66389D01*
X70972Y-66462D01*
X71037Y-66618D01*
X71156Y-66738D01*
X71312Y-66802D01*
X71348Y-66802D01*
X71348Y-66876D01*
X71348Y-67033D01*
X71386Y-67125D01*
X71416Y-67155D01*
X71386Y-67184D01*
X71348Y-67276D01*
X71348Y-67376D01*
X71348Y-67533D01*
X71386Y-67625D01*
X71416Y-67655D01*
X71386Y-67684D01*
X71348Y-67776D01*
X71348Y-67876D01*
X71348Y-68033D01*
X71386Y-68125D01*
X71416Y-68155D01*
X71386Y-68184D01*
X71348Y-68276D01*
X71348Y-68376D01*
X71348Y-68533D01*
X71386Y-68625D01*
X71416Y-68655D01*
X71386Y-68684D01*
X71348Y-68776D01*
X71348Y-68876D01*
X71348Y-69033D01*
X71386Y-69125D01*
X71416Y-69155D01*
X71386Y-69184D01*
X71348Y-69276D01*
X71348Y-69376D01*
X71348Y-69533D01*
X71366Y-69576D01*
X70936Y-69576D01*
X70936Y-68321D01*
X70872Y-68165D01*
X70752Y-68045D01*
X70621Y-67990D01*
X70621Y-67829D01*
X70557Y-67672D01*
X70437Y-67553D01*
X70386Y-67531D01*
X70405Y-67486D01*
X70405Y-67317D01*
X70340Y-67161D01*
X70221Y-67041D01*
X70070Y-66978D01*
X70070Y-66923D01*
X70006Y-66767D01*
X69886Y-66647D01*
X69730Y-66582D01*
X69677Y-66582D01*
X69735Y-66443D01*
X69736Y-66274D01*
X69671Y-66117D01*
X69552Y-65998D01*
X69395Y-65933D01*
X69381Y-65933D01*
X69381Y-65821D01*
X69317Y-65665D01*
X69197Y-65545D01*
X69041Y-65480D01*
X68872Y-65480D01*
X68716Y-65545D01*
X68643Y-65617D01*
X68611Y-65617D01*
X68542Y-65588D01*
X68442Y-65588D01*
X67733Y-65588D01*
X67642Y-65626D01*
X67613Y-65655D01*
X67584Y-65586D01*
X67465Y-65466D01*
X67309Y-65401D01*
X67140Y-65401D01*
X66983Y-65466D01*
X66923Y-65526D01*
X66560Y-65526D01*
X66500Y-65466D01*
X66371Y-65413D01*
X66371Y-62723D01*
X66371Y-62211D01*
X66333Y-62119D01*
X66263Y-62049D01*
X66171Y-62011D01*
X66072Y-62011D01*
X65461Y-62011D01*
X65369Y-62049D01*
X65299Y-62119D01*
X65261Y-62211D01*
X65261Y-62310D01*
X65261Y-62822D01*
X65299Y-62914D01*
X65369Y-62985D01*
X65461Y-63023D01*
X65560Y-63023D01*
X66171Y-63023D01*
X66263Y-62985D01*
X66333Y-62915D01*
X66371Y-62823D01*
X66371Y-62723D01*
X66371Y-65413D01*
X66344Y-65401D01*
X66175Y-65401D01*
X66019Y-65466D01*
X65899Y-65585D01*
X65842Y-65724D01*
X65704Y-65781D01*
X65584Y-65900D01*
X65519Y-66056D01*
X65519Y-66225D01*
X65584Y-66382D01*
X65703Y-66501D01*
X65859Y-66566D01*
X66029Y-66566D01*
X66185Y-66502D01*
X66245Y-66441D01*
X66532Y-66441D01*
X66548Y-66480D01*
X66668Y-66600D01*
X66824Y-66665D01*
X66993Y-66665D01*
X67149Y-66600D01*
X67269Y-66481D01*
X67334Y-66325D01*
X67334Y-66241D01*
X67464Y-66187D01*
X67554Y-66097D01*
X67571Y-66137D01*
X67601Y-66167D01*
X67571Y-66196D01*
X67533Y-66288D01*
X67533Y-66388D01*
X67533Y-66545D01*
X67571Y-66637D01*
X67601Y-66667D01*
X67571Y-66696D01*
X67533Y-66788D01*
X67533Y-66888D01*
X67533Y-67045D01*
X67571Y-67137D01*
X67601Y-67167D01*
X67571Y-67196D01*
X67533Y-67288D01*
X67533Y-67388D01*
X67533Y-67545D01*
X67571Y-67637D01*
X67601Y-67667D01*
X67571Y-67696D01*
X67533Y-67788D01*
X67533Y-67888D01*
X67533Y-68045D01*
X67571Y-68137D01*
X67601Y-68167D01*
X67571Y-68196D01*
X67533Y-68288D01*
X67533Y-68388D01*
X67533Y-68545D01*
X67571Y-68637D01*
X67601Y-68667D01*
X67571Y-68696D01*
X67533Y-68788D01*
X67533Y-68888D01*
X67533Y-69045D01*
X67571Y-69137D01*
X67601Y-69167D01*
X67571Y-69197D01*
X67533Y-69289D01*
X67533Y-69315D01*
X67595Y-69377D01*
X68087Y-69377D01*
X68087Y-69359D01*
X68187Y-69359D01*
X68187Y-69377D01*
X68679Y-69377D01*
X68742Y-69315D01*
X68742Y-69289D01*
X68712Y-69217D01*
X70092Y-69217D01*
X70192Y-69316D01*
X70348Y-69381D01*
X70517Y-69381D01*
X70673Y-69317D01*
X70793Y-69197D01*
X70857Y-69041D01*
X70858Y-68872D01*
X70796Y-68722D01*
X70871Y-68646D01*
X70936Y-68490D01*
X70936Y-68321D01*
X70936Y-69576D01*
X70354Y-69576D01*
X70280Y-69502D01*
X70124Y-69437D01*
X69955Y-69437D01*
X69798Y-69501D01*
X69679Y-69621D01*
X69614Y-69777D01*
X69614Y-69946D01*
X69678Y-70102D01*
X69798Y-70222D01*
X69954Y-70287D01*
X70123Y-70287D01*
X70251Y-70234D01*
X71366Y-70234D01*
X71348Y-70277D01*
X71348Y-70303D01*
X71410Y-70366D01*
X71902Y-70366D01*
X71902Y-70347D01*
X72002Y-70347D01*
X72002Y-70366D01*
X72494Y-70366D01*
X72557Y-70303D01*
X72557Y-70277D01*
X72519Y-70185D01*
X72489Y-70155D01*
X72518Y-70126D01*
X72557Y-70034D01*
X72557Y-69934D01*
X72557Y-69777D01*
X72527Y-69705D01*
X72962Y-69705D01*
X73066Y-69808D01*
X73222Y-69873D01*
X73391Y-69873D01*
X73547Y-69809D01*
X73667Y-69689D01*
X73732Y-69533D01*
X73732Y-69364D01*
X73667Y-69208D01*
X73664Y-69205D01*
X74213Y-69205D01*
X74213Y-69347D01*
X74251Y-69439D01*
X74321Y-69509D01*
X74413Y-69547D01*
X74512Y-69547D01*
X75112Y-69547D01*
X75204Y-69509D01*
X75275Y-69439D01*
X75313Y-69347D01*
X75313Y-69248D01*
X75313Y-68448D01*
X75275Y-68356D01*
X75205Y-68285D01*
X75118Y-68249D01*
X75165Y-68230D01*
X75235Y-68159D01*
X75273Y-68068D01*
X75274Y-67968D01*
X75274Y-67168D01*
X75236Y-67076D01*
X75167Y-67007D01*
X75216Y-66959D01*
X75254Y-66867D01*
X75254Y-66767D01*
X75254Y-65967D01*
X75216Y-65875D01*
X75146Y-65805D01*
X75054Y-65767D01*
X74954Y-65767D01*
X74354Y-65767D01*
X74262Y-65805D01*
X74192Y-65875D01*
X74154Y-65967D01*
X74154Y-66066D01*
X74154Y-66117D01*
X74133Y-66117D01*
X74019Y-66140D01*
X73921Y-66205D01*
X73521Y-66605D01*
X72527Y-66605D01*
X72557Y-66534D01*
X72557Y-66434D01*
X72557Y-66277D01*
X72519Y-66185D01*
X72489Y-66155D01*
X72518Y-66126D01*
X72557Y-66034D01*
X72557Y-65934D01*
X72557Y-65777D01*
X72519Y-65685D01*
X72448Y-65614D01*
X72357Y-65576D01*
X72257Y-65576D01*
X71689Y-65576D01*
X71736Y-65557D01*
X71797Y-65496D01*
X76937Y-65496D01*
X76937Y-65595D01*
X77001Y-65752D01*
X77121Y-65871D01*
X77277Y-65936D01*
X77446Y-65936D01*
X77602Y-65872D01*
X77614Y-65860D01*
X80534Y-65860D01*
X80566Y-65891D01*
X80722Y-65956D01*
X80891Y-65956D01*
X81047Y-65892D01*
X81079Y-65860D01*
X92267Y-65860D01*
X92298Y-65891D01*
X92351Y-65913D01*
X92297Y-65913D01*
X92141Y-65978D01*
X92100Y-66018D01*
X91402Y-66018D01*
X91333Y-65990D01*
X91233Y-65990D01*
X90525Y-65990D01*
X90433Y-66028D01*
X90362Y-66098D01*
X90324Y-66190D01*
X90324Y-66289D01*
X90324Y-66447D01*
X90362Y-66539D01*
X90392Y-66568D01*
X90362Y-66598D01*
X90324Y-66690D01*
X90324Y-66789D01*
X90324Y-66947D01*
X90362Y-67039D01*
X90392Y-67068D01*
X90362Y-67098D01*
X90324Y-67190D01*
X90324Y-67289D01*
X90324Y-67447D01*
X90362Y-67539D01*
X90392Y-67568D01*
X90362Y-67598D01*
X90324Y-67690D01*
X90324Y-67789D01*
X90324Y-67947D01*
X90354Y-68018D01*
X89427Y-68018D01*
X89394Y-67986D01*
X89238Y-67921D01*
X89224Y-67921D01*
X89224Y-66726D01*
X89159Y-66570D01*
X89040Y-66450D01*
X88884Y-66386D01*
X88715Y-66385D01*
X88558Y-66450D01*
X88478Y-66530D01*
X88392Y-66530D01*
X88436Y-66423D01*
X88436Y-66254D01*
X88372Y-66098D01*
X88252Y-65978D01*
X88096Y-65913D01*
X87927Y-65913D01*
X87771Y-65978D01*
X87718Y-66030D01*
X87587Y-66030D01*
X87518Y-66002D01*
X87418Y-66001D01*
X86710Y-66001D01*
X86618Y-66039D01*
X86548Y-66110D01*
X86509Y-66202D01*
X86509Y-66301D01*
X86509Y-66458D01*
X86547Y-66550D01*
X86577Y-66580D01*
X86548Y-66610D01*
X86509Y-66702D01*
X86509Y-66801D01*
X86509Y-66958D01*
X86547Y-67050D01*
X86577Y-67080D01*
X86548Y-67110D01*
X86509Y-67202D01*
X86509Y-67301D01*
X86509Y-67458D01*
X86539Y-67530D01*
X85043Y-67530D01*
X84928Y-67553D01*
X84849Y-67606D01*
X84758Y-67606D01*
X84602Y-67670D01*
X84482Y-67790D01*
X84417Y-67946D01*
X84417Y-68115D01*
X84482Y-68271D01*
X84529Y-68319D01*
X84496Y-68399D01*
X84496Y-68568D01*
X84560Y-68724D01*
X84680Y-68844D01*
X84693Y-68849D01*
X84693Y-68981D01*
X84757Y-69138D01*
X84832Y-69213D01*
X84811Y-69265D01*
X84811Y-69434D01*
X84875Y-69590D01*
X84995Y-69710D01*
X85151Y-69775D01*
X85320Y-69775D01*
X85476Y-69710D01*
X85556Y-69630D01*
X86539Y-69630D01*
X86509Y-69702D01*
X86509Y-69728D01*
X86572Y-69791D01*
X87064Y-69791D01*
X87064Y-69772D01*
X87164Y-69772D01*
X87164Y-69791D01*
X87656Y-69791D01*
X87718Y-69728D01*
X87718Y-69702D01*
X87680Y-69610D01*
X87650Y-69580D01*
X87680Y-69551D01*
X87718Y-69459D01*
X87718Y-69359D01*
X87718Y-69202D01*
X87680Y-69110D01*
X87650Y-69080D01*
X87680Y-69051D01*
X87718Y-68959D01*
X87718Y-68859D01*
X87718Y-68702D01*
X87680Y-68610D01*
X87650Y-68580D01*
X87680Y-68551D01*
X87718Y-68459D01*
X87718Y-68359D01*
X87718Y-68202D01*
X87680Y-68110D01*
X87650Y-68080D01*
X87680Y-68051D01*
X87718Y-67959D01*
X87718Y-67859D01*
X87718Y-67757D01*
X87789Y-67787D01*
X87958Y-67787D01*
X88114Y-67722D01*
X88234Y-67603D01*
X88298Y-67447D01*
X88299Y-67278D01*
X88238Y-67130D01*
X88517Y-67130D01*
X88558Y-67171D01*
X88714Y-67235D01*
X88883Y-67236D01*
X89039Y-67171D01*
X89159Y-67052D01*
X89224Y-66895D01*
X89224Y-66726D01*
X89224Y-67921D01*
X89069Y-67921D01*
X88913Y-67985D01*
X88793Y-68105D01*
X88728Y-68261D01*
X88728Y-68430D01*
X88793Y-68586D01*
X88912Y-68706D01*
X89068Y-68771D01*
X89237Y-68771D01*
X89393Y-68706D01*
X89482Y-68618D01*
X90354Y-68618D01*
X90324Y-68690D01*
X90324Y-68789D01*
X90324Y-68947D01*
X90354Y-69018D01*
X89777Y-69018D01*
X89729Y-68970D01*
X89573Y-68905D01*
X89404Y-68905D01*
X89247Y-68970D01*
X89128Y-69089D01*
X89063Y-69245D01*
X89063Y-69414D01*
X89127Y-69571D01*
X89247Y-69690D01*
X89389Y-69749D01*
X89378Y-69777D01*
X89378Y-69946D01*
X89442Y-70102D01*
X89562Y-70222D01*
X89693Y-70276D01*
X89693Y-70359D01*
X89757Y-70516D01*
X89877Y-70635D01*
X90033Y-70700D01*
X90202Y-70700D01*
X90344Y-70641D01*
X90324Y-70690D01*
X90324Y-70717D01*
X90387Y-70779D01*
X90879Y-70779D01*
X90879Y-70761D01*
X90979Y-70761D01*
X90979Y-70779D01*
X91470Y-70779D01*
X91533Y-70717D01*
X91533Y-70690D01*
X91495Y-70598D01*
X91465Y-70568D01*
X91495Y-70539D01*
X91533Y-70447D01*
X91533Y-70348D01*
X91533Y-70190D01*
X91495Y-70098D01*
X91465Y-70068D01*
X91495Y-70039D01*
X91533Y-69947D01*
X91533Y-69848D01*
X91533Y-69690D01*
X91495Y-69598D01*
X91465Y-69568D01*
X91495Y-69539D01*
X91533Y-69447D01*
X91533Y-69348D01*
X91533Y-69190D01*
X91503Y-69118D01*
X92479Y-69118D01*
X92479Y-69118D01*
X92481Y-69118D01*
X92481Y-69118D01*
X92749Y-69118D01*
X92829Y-69198D01*
X92985Y-69263D01*
X93096Y-69263D01*
X93096Y-76817D01*
X93062Y-76817D01*
X93062Y-71254D01*
X92998Y-71098D01*
X92878Y-70978D01*
X92722Y-70913D01*
X92553Y-70913D01*
X92397Y-70978D01*
X92356Y-71018D01*
X91503Y-71018D01*
X91533Y-70947D01*
X91533Y-70920D01*
X91470Y-70858D01*
X90979Y-70858D01*
X90979Y-70876D01*
X90879Y-70876D01*
X90879Y-70858D01*
X90387Y-70858D01*
X90324Y-70920D01*
X90324Y-70947D01*
X90362Y-71039D01*
X90392Y-71068D01*
X90362Y-71098D01*
X90324Y-71190D01*
X90324Y-71289D01*
X90324Y-71447D01*
X90354Y-71518D01*
X89521Y-71518D01*
X89512Y-71509D01*
X89356Y-71445D01*
X89187Y-71445D01*
X89031Y-71509D01*
X88911Y-71629D01*
X88846Y-71785D01*
X88846Y-71954D01*
X88911Y-72110D01*
X89030Y-72230D01*
X89161Y-72284D01*
X89161Y-72426D01*
X89226Y-72582D01*
X89345Y-72702D01*
X89501Y-72767D01*
X89670Y-72767D01*
X89827Y-72703D01*
X89911Y-72618D01*
X90354Y-72618D01*
X90324Y-72690D01*
X90324Y-72789D01*
X90324Y-72947D01*
X90362Y-73039D01*
X90433Y-73109D01*
X90524Y-73147D01*
X90624Y-73147D01*
X91089Y-73147D01*
X91156Y-73214D01*
X91312Y-73279D01*
X91481Y-73279D01*
X91638Y-73214D01*
X91757Y-73095D01*
X91822Y-72939D01*
X91822Y-72779D01*
X91913Y-72742D01*
X92033Y-72622D01*
X92098Y-72466D01*
X92098Y-72297D01*
X92033Y-72141D01*
X91914Y-72021D01*
X91758Y-71956D01*
X91589Y-71956D01*
X91517Y-71986D01*
X91533Y-71947D01*
X91533Y-71848D01*
X91533Y-71690D01*
X91503Y-71618D01*
X92317Y-71618D01*
X92396Y-71698D01*
X92552Y-71763D01*
X92721Y-71763D01*
X92878Y-71699D01*
X92997Y-71579D01*
X93062Y-71423D01*
X93062Y-71254D01*
X93062Y-76817D01*
X92888Y-76817D01*
X92825Y-76880D01*
X92825Y-77292D01*
X92833Y-77292D01*
X92833Y-77392D01*
X92825Y-77392D01*
X92825Y-77805D01*
X92888Y-77867D01*
X93096Y-77867D01*
X93096Y-78057D01*
M02*
