G04 (created by PCBNEW (2013-07-07 BZR 4022)-stable) date 06/03/2017 2:17:35 PM*
%MOIN*%
G04 Gerber Fmt 3.4, Leading zero omitted, Abs format*
%FSLAX34Y34*%
G01*
G70*
G90*
G04 APERTURE LIST*
%ADD10C,0.00590551*%
%ADD11R,0.104724X0.0314961*%
%ADD12R,0.0315X0.0394*%
%ADD13R,0.06X0.08*%
%ADD14R,0.08X0.06*%
%ADD15R,0.055X0.055*%
%ADD16C,0.055*%
%ADD17R,0.0610236X0.0511811*%
%ADD18R,0.0708661X0.015748*%
%ADD19C,0.0295276*%
%ADD20C,0.0787402*%
%ADD21C,0.0688976*%
%ADD22R,0.071X0.063*%
%ADD23R,0.03X0.02*%
G04 APERTURE END LIST*
G54D10*
G54D11*
X88208Y-45255D03*
X88248Y-47263D03*
X90885Y-47263D03*
X90885Y-44271D03*
G54D12*
X72677Y-58582D03*
X72302Y-57716D03*
X73052Y-57716D03*
X75669Y-58582D03*
X75294Y-57716D03*
X76044Y-57716D03*
X78031Y-58582D03*
X77656Y-57716D03*
X78406Y-57716D03*
X82047Y-58759D03*
X81672Y-57893D03*
X82422Y-57893D03*
X83858Y-58799D03*
X83483Y-57933D03*
X84233Y-57933D03*
X69015Y-50039D03*
X68640Y-49173D03*
X69390Y-49173D03*
G54D13*
X68071Y-51200D03*
X66771Y-51200D03*
G54D14*
X92598Y-50669D03*
X92598Y-49369D03*
G54D13*
X68543Y-77519D03*
X67243Y-77519D03*
X68051Y-53740D03*
X66751Y-53740D03*
X88188Y-49212D03*
X89488Y-49212D03*
X76063Y-68897D03*
X74763Y-68897D03*
X76024Y-67618D03*
X74724Y-67618D03*
X87815Y-77421D03*
X86515Y-77421D03*
X68051Y-56200D03*
X66751Y-56200D03*
X68051Y-52500D03*
X66751Y-52500D03*
X76004Y-66417D03*
X74704Y-66417D03*
G54D14*
X83307Y-66889D03*
X83307Y-68189D03*
G54D13*
X68051Y-54960D03*
X66751Y-54960D03*
G54D14*
X79940Y-66613D03*
X79940Y-67913D03*
G54D15*
X67401Y-75590D03*
G54D16*
X68401Y-75590D03*
X69401Y-75590D03*
X70401Y-75590D03*
X71401Y-75590D03*
X72401Y-75590D03*
G54D15*
X86122Y-76043D03*
G54D16*
X87122Y-76043D03*
X88122Y-76043D03*
X89122Y-76043D03*
X90122Y-76043D03*
X91122Y-76043D03*
G54D15*
X89224Y-40334D03*
G54D16*
X90224Y-40334D03*
G54D15*
X68905Y-40354D03*
G54D16*
X67905Y-40354D03*
G54D15*
X73870Y-77362D03*
G54D16*
X74870Y-77362D03*
X75870Y-77362D03*
X76870Y-77362D03*
X77870Y-77362D03*
X78870Y-77362D03*
X79870Y-77362D03*
X80870Y-77362D03*
X81870Y-77362D03*
X82870Y-77362D03*
X83870Y-77362D03*
X84870Y-77362D03*
G54D15*
X75196Y-70925D03*
X65472Y-71889D03*
X75196Y-72224D03*
X65472Y-70433D03*
G54D17*
X82942Y-60317D03*
X82942Y-62517D03*
X86742Y-62517D03*
X86742Y-60317D03*
X88651Y-60317D03*
X88651Y-62517D03*
X92451Y-62517D03*
X92451Y-60317D03*
X77233Y-60317D03*
X77233Y-62517D03*
X81033Y-62517D03*
X81033Y-60317D03*
X71525Y-60317D03*
X71525Y-62517D03*
X75325Y-62517D03*
X75325Y-60317D03*
X65816Y-60317D03*
X65816Y-62517D03*
X69616Y-62517D03*
X69616Y-60317D03*
G54D18*
X87114Y-66330D03*
X87114Y-66830D03*
X87114Y-67330D03*
X87114Y-67830D03*
X87114Y-68330D03*
X87114Y-68830D03*
X87114Y-69330D03*
X87114Y-69830D03*
X87114Y-70330D03*
X87114Y-70830D03*
X87114Y-71330D03*
X87114Y-71830D03*
X87114Y-72330D03*
X87114Y-72830D03*
X90929Y-72818D03*
X90929Y-72318D03*
X90929Y-71818D03*
X90929Y-71318D03*
X90929Y-70818D03*
X90929Y-70318D03*
X90929Y-69818D03*
X90929Y-69318D03*
X90929Y-68818D03*
X90929Y-68318D03*
X90929Y-67818D03*
X90929Y-67318D03*
X90929Y-66818D03*
X90929Y-66318D03*
X68137Y-65917D03*
X68137Y-66417D03*
X68137Y-66917D03*
X68137Y-67417D03*
X68137Y-67917D03*
X68137Y-68417D03*
X68137Y-68917D03*
X68137Y-69417D03*
X68137Y-69917D03*
X68137Y-70417D03*
X68137Y-70917D03*
X68137Y-71417D03*
X68137Y-71917D03*
X68137Y-72417D03*
X71952Y-72405D03*
X71952Y-71905D03*
X71952Y-71405D03*
X71952Y-70905D03*
X71952Y-70405D03*
X71952Y-69905D03*
X71952Y-69405D03*
X71952Y-68905D03*
X71952Y-68405D03*
X71952Y-67905D03*
X71952Y-67405D03*
X71952Y-66905D03*
X71952Y-66405D03*
X71952Y-65905D03*
G54D19*
X73996Y-49862D03*
X74586Y-49862D03*
X75177Y-49862D03*
X75767Y-49862D03*
X76358Y-49862D03*
X76948Y-49862D03*
X77539Y-49862D03*
X78129Y-49862D03*
X78720Y-49862D03*
X79311Y-49862D03*
X79901Y-49862D03*
X80492Y-49862D03*
X81082Y-49862D03*
X81673Y-49862D03*
X82263Y-49862D03*
X82854Y-49862D03*
X83444Y-49862D03*
G54D20*
X85531Y-49192D03*
X71909Y-49192D03*
G54D21*
X75799Y-56232D03*
X76799Y-56232D03*
X77799Y-56232D03*
X78799Y-56232D03*
X79799Y-56232D03*
X80799Y-56232D03*
X81799Y-56232D03*
X82799Y-56232D03*
X82799Y-52232D03*
X81799Y-52232D03*
X80799Y-52232D03*
X79799Y-52232D03*
X78799Y-52232D03*
X77799Y-52232D03*
X76799Y-52232D03*
X75799Y-52232D03*
G54D22*
X83287Y-69233D03*
X83287Y-70333D03*
X79980Y-69154D03*
X79980Y-70254D03*
X92559Y-47794D03*
X92559Y-46694D03*
G54D15*
X79704Y-58011D03*
X65413Y-77342D03*
X92775Y-77342D03*
X65413Y-40334D03*
X92775Y-40334D03*
X66692Y-58248D03*
X89468Y-54724D03*
G54D23*
X81330Y-68443D03*
X81330Y-69193D03*
X82330Y-68443D03*
X81330Y-68818D03*
X82330Y-69193D03*
X77649Y-68404D03*
X77649Y-69154D03*
X78649Y-68404D03*
X77649Y-68779D03*
X78649Y-69154D03*
G54D15*
X66555Y-46405D03*
G54D16*
X66555Y-45405D03*
G54D12*
X91732Y-53129D03*
X91357Y-52263D03*
X92107Y-52263D03*
M02*
