M48
;DRILL file {Pcbnew (2013-07-07 BZR 4022)-stable} date 06/03/2017 2:17:37 PM
;FORMAT={-:-/ absolute / inch / decimal}
FMAT,2
INCH,TZ
T1C0.020
T2C0.025
T3C0.032
T4C0.039
T5C0.055
%
G90
G05
M72
T1
X7.3996Y-4.9862
X7.4587Y-4.9862
X7.5177Y-4.9862
X7.5768Y-4.9862
X7.6358Y-4.9862
X7.6949Y-4.9862
X7.7539Y-4.9862
X7.813Y-4.9862
X7.872Y-4.9862
X7.9311Y-4.9862
X7.9902Y-4.9862
X8.0492Y-4.9862
X8.1083Y-4.9862
X8.1673Y-4.9862
X8.2264Y-4.9862
X8.2854Y-4.9862
X8.3445Y-4.9862
T2
X6.5138Y-5.2461
X6.5157Y-5.8996
X6.5472Y-5.624
X6.5492Y-5.9331
X6.5827Y-5.5039
X6.5945Y-6.6142
X6.6142Y-5.3799
X6.626Y-6.5827
X6.6594Y-6.0315
X6.6831Y-6.2618
X6.6909Y-6.624
X6.7185Y-7.0925
X6.7224Y-6.5827
X6.7303Y-7.7047
X6.7402Y-7.3248
X6.7421Y-7.0413
X6.7559Y-6.9921
X6.7579Y-5.0138
X6.7894Y-4.122
X6.7913Y-6.0315
X6.7972Y-6.4508
X6.8091Y-5.7343
X6.8366Y-7.7067
X6.8406Y-7.3681
X6.8839Y-7.3268
X6.8957Y-6.5906
X6.9213Y-5.0531
X6.9272Y-5.7441
X6.9291Y-4.2461
X6.9311Y-6.6358
X6.9646Y-6.7008
X6.9665Y-4.3012
X6.9705Y-4.8799
X6.9803Y-6.1496
X6.9882Y-7.3622
X6.998Y-6.4882
X6.998Y-6.7402
X7.0039Y-6.9862
X7.0197Y-6.7913
X7.0217Y-4.1201
X7.0236Y-5.6339
X7.0276Y-6.3937
X7.0394Y-7.3406
X7.0433Y-6.8957
X7.0512Y-6.8406
X7.0591Y-6.3543
X7.0709Y-7.2402
X7.0827Y-7.3209
X7.0945Y-6.5965
X7.1398Y-6.6378
X7.1496Y-6.5197
X7.1575Y-6.0906
X7.2126Y-6.0354
X7.2302Y-5.7717
X7.2362Y-5.6161
X7.2579Y-6.7913
X7.2657Y-7.2421
X7.2697Y-7.3839
X7.3012Y-5.9705
X7.3031Y-7.1988
X7.3031Y-7.4173
X7.3307Y-6.9449
X7.3366Y-6.7421
X7.3386Y-5.9449
X7.3386Y-7.4469
X7.376Y-5.498
X7.3839Y-5.9311
X7.3878Y-7.4783
X7.4035Y-6.4134
X7.4154Y-5.5256
X7.4862Y-7.5118
X7.5807Y-5.9291
X7.5906Y-7.5531
X7.6004Y-6.6417
X7.6437Y-5.9016
X7.6516Y-6.7638
X7.6654Y-6.8917
X7.687Y-5.7717
X7.687Y-6.1575
X7.687Y-7.4154
X7.6909Y-6.4154
X7.7303Y-6.8366
X7.7323Y-6.939
X7.7362Y-6.5512
X7.7835Y-5.5295
X7.7874Y-7.315
X7.7894Y-6.4843
X7.8189Y-7.4803
X7.8209Y-7.2638
X7.8307Y-6.0374
X7.8504Y-7.2323
X7.8524Y-7.5177
X7.8622Y-5.7697
X7.8819Y-7.2008
X7.8839Y-7.5512
X7.9035Y-6.4823
X7.9035Y-6.9921
X7.9114Y-7.1693
X7.9862Y-7.1358
X8.0453Y-7.5177
X8.0728Y-5.9193
X8.0768Y-6.8484
X8.0807Y-6.5531
X8.0866Y-7.4823
X8.1201Y-6.9331
X8.1319Y-7.2992
X8.1398Y-5.7874
X8.1673Y-5.0965
X8.1772Y-5.4961
X8.185Y-5.9114
X8.187Y-7.5866
X8.189Y-6.9862
X8.2244Y-6.3839
X8.2283Y-5.128
X8.2283Y-5.7677
X8.2598Y-6.0709
X8.2598Y-6.4154
X8.3445Y-5.065
X8.3484Y-5.7638
X8.374Y-6.0335
X8.3819Y-7.1378
X8.3898Y-7.5118
X8.4154Y-7.1693
X8.4469Y-7.2008
X8.4783Y-7.2303
X8.4843Y-6.8031
X8.4862Y-7.3839
X8.4921Y-6.8484
X8.5039Y-4.2441
X8.5118Y-6.8898
X8.5118Y-7.2756
X8.5236Y-6.935
X8.5315Y-7.0354
X8.5433Y-6.3839
X8.5453Y-7.0886
X8.5472Y-7.2992
X8.5492Y-5.7874
X8.5787Y-5.1299
X8.5787Y-7.1339
X8.6102Y-7.185
X8.6122Y-5.0335
X8.6398Y-7.2343
X8.6417Y-5.065
X8.7205Y-4.8071
X8.7402Y-6.3858
X8.7776Y-4.3091
X8.7874Y-5.9154
X8.7874Y-6.7362
X8.7894Y-7.4843
X8.8012Y-6.6339
X8.8307Y-5.1043
X8.8484Y-7.2835
X8.8799Y-6.6811
X8.8957Y-7.4469
X8.9094Y-6.4154
X8.9114Y-7.3524
X8.9154Y-6.8346
X8.9173Y-7.4921
X8.9272Y-7.187
X8.9431Y-6.0317
X8.9469Y-6.5138
X8.9488Y-6.9331
X8.9508Y-7.3839
X8.9587Y-7.2343
X8.9783Y-6.4449
X8.9803Y-6.9862
X9.0118Y-6.4823
X9.0118Y-7.0276
X9.0118Y-7.4567
X9.0906Y-5.2264
X9.0965Y-4.7559
X9.1161Y-7.4154
X9.1299Y-6.372
X9.1398Y-7.2854
X9.1594Y-6.0236
X9.1634Y-6.7854
X9.1673Y-7.2382
X9.1732Y-4.2146
X9.1732Y-5.372
X9.1732Y-5.876
X9.1929Y-5.9193
X9.1988Y-7.4449
X9.2008Y-6.687
X9.2303Y-7.4823
X9.2343Y-4.1516
X9.2382Y-6.6339
X9.2539Y-6.5531
X9.2638Y-7.1339
X9.2736Y-5.1752
X9.2874Y-6.7283
X9.3071Y-6.8839
X9.3169Y-5.9488
T3
X6.5472Y-7.0433
X6.5472Y-7.189
X6.6555Y-4.5406
X6.6555Y-4.6406
X6.7402Y-7.5591
X6.7906Y-4.0354
X6.8402Y-7.5591
X6.8906Y-4.0354
X6.9402Y-7.5591
X7.0402Y-7.5591
X7.1402Y-7.5591
X7.2402Y-7.5591
X7.387Y-7.7362
X7.487Y-7.7362
X7.5197Y-7.0925
X7.5197Y-7.2224
X7.587Y-7.7362
X7.687Y-7.7362
X7.787Y-7.7362
X7.887Y-7.7362
X7.987Y-7.7362
X8.087Y-7.7362
X8.187Y-7.7362
X8.287Y-7.7362
X8.387Y-7.7362
X8.487Y-7.7362
X8.6122Y-7.6043
X8.7122Y-7.6043
X8.8122Y-7.6043
X8.9122Y-7.6043
X8.9224Y-4.0335
X9.0122Y-7.6043
X9.0224Y-4.0335
X9.1122Y-7.6043
T4
X6.5413Y-4.0335
X6.5413Y-7.7343
X6.6693Y-5.8248
X7.5799Y-5.2232
X7.5799Y-5.6232
X7.6799Y-5.2232
X7.6799Y-5.6232
X7.7799Y-5.2232
X7.7799Y-5.6232
X7.8799Y-5.2232
X7.8799Y-5.6232
X7.9705Y-5.8012
X7.9799Y-5.2232
X7.9799Y-5.6232
X8.0799Y-5.2232
X8.0799Y-5.6232
X8.1799Y-5.2232
X8.1799Y-5.6232
X8.2799Y-5.2232
X8.2799Y-5.6232
X8.9469Y-5.4724
X9.2776Y-4.0335
X9.2776Y-7.7343
T5
X7.1909Y-4.9193
X8.5531Y-4.9193
T0
M30
