M48
;DRILL file {Pcbnew (2013-07-07 BZR 4022)-stable} date 06/03/2017 3:46:59 PM
;FORMAT={-:-/ absolute / inch / decimal}
FMAT,2
INCH,TZ
T1C0.025
T2C0.032
T3C0.039
%
G90
G05
M72
T1
X6.5354Y-4.2185
X6.5354Y-4.4882
X6.5354Y-4.7953
X6.5354Y-5.0472
X6.5354Y-5.3661
X6.5374Y-3.7343
X6.5374Y-3.9488
X6.5374Y-5.6516
X6.5374Y-5.9488
X6.5472Y-6.563
X6.5472Y-6.8465
X6.5846Y-6.2913
X6.9508Y-3.5787
X6.9508Y-3.8504
X6.9528Y-4.1161
X6.9528Y-4.3898
X6.9528Y-5.8484
X6.9547Y-4.6673
X6.9547Y-4.9488
X6.9547Y-5.2657
X6.9547Y-5.5512
X6.9547Y-6.4587
X6.9547Y-6.7421
X6.9587Y-6.1417
X6.9843Y-3.9508
X6.9843Y-4.4882
X6.9862Y-4.2165
X6.9882Y-3.6772
X6.9882Y-4.7697
X6.9882Y-5.0492
X6.9882Y-5.3642
X6.9882Y-5.9488
X6.9902Y-5.6535
X6.9921Y-6.2402
X6.9921Y-6.5591
X6.9941Y-6.8445
X7.1457Y-4.4449
X7.1811Y-4.1673
X7.1811Y-4.4961
X7.1811Y-5.6043
X7.2028Y-6.5295
X7.2047Y-6.8386
X7.2126Y-5.9016
X7.2146Y-3.9055
X7.2146Y-4.4587
X7.2283Y-6.626
X7.2303Y-6.4941
X7.2303Y-6.8012
X7.2461Y-4.4252
X7.2461Y-6.1929
X7.248Y-3.626
X7.2618Y-6.4606
X7.2736Y-6.8071
X7.2795Y-6.6339
X7.376Y-6.876
X7.3917Y-5.7165
X7.4189Y-6.3835
X7.4291Y-6.7756
X7.4528Y-6.2028
X7.4646Y-5.6516
X7.4764Y-3.6024
X7.4764Y-6.7402
X7.5039Y-5.935
X7.5098Y-3.7008
X7.5157Y-4.3189
X7.5354Y-4.7264
X7.5354Y-4.9961
X7.5354Y-5.9803
X7.5669Y-4.4232
X7.5728Y-6.9075
X7.5906Y-6.1358
X7.6004Y-4.4626
X7.6181Y-6.1004
X7.6339Y-4.502
X7.6398Y-5.8248
X7.6398Y-6.8071
X7.6417Y-3.8563
X7.6437Y-3.6063
X7.6437Y-6.3346
X7.6752Y-3.7539
X7.7047Y-5.7697
X7.7067Y-5.8248
X7.7067Y-6.2835
X7.7067Y-6.8346
X7.7126Y-3.878
X7.7343Y-3.9547
X7.7382Y-6.0689
X7.7382Y-6.685
X7.7579Y-3.8031
X7.7776Y-3.7579
X7.7933Y-4.0039
X7.7972Y-6.0197
X7.8012Y-6.1043
X7.8012Y-6.6339
X7.8031Y-6.9094
X7.8051Y-6.8406
X7.8287Y-4.0531
X7.8307Y-5.4882
X7.8327Y-6.1398
X7.8346Y-6.5827
X7.8622Y-4.1043
X7.8622Y-5.3189
X7.8642Y-5.2303
X7.8661Y-6.5335
X7.8701Y-3.8051
X7.874Y-6.8071
X7.939Y-4.315
X7.9764Y-5.6535
X8.0335Y-6.002
X8.0374Y-6.4843
X8.0512Y-6.8425
X8.063Y-6.6299
X8.065Y-5.9606
X8.0669Y-6.4331
X8.0965Y-6.3878
X8.1004Y-6.8445
X8.128Y-6.3445
X8.1476Y-6.2972
X8.1476Y-6.8406
X8.1791Y-6.8976
X8.2343Y-5.7185
X8.2992Y-6.6752
X8.3091Y-4.1575
X8.3091Y-4.4213
X8.3346Y-6.9291
X8.3406Y-4.1102
X8.3406Y-6.0374
X8.3406Y-6.3839
X8.3425Y-4.6988
X8.3484Y-6.7756
X8.3661Y-3.5925
X8.3661Y-4.061
X8.3701Y-3.9587
X8.3701Y-4.0059
X8.3799Y-4.9744
X8.3878Y-6.8071
X8.4114Y-3.8622
X8.5315Y-6.9311
X8.6043Y-4.2303
X8.6043Y-4.4744
X8.6063Y-3.9409
X8.6063Y-4.7461
X8.6063Y-5.0256
X8.6083Y-3.6417
X8.6083Y-5.5374
X8.6102Y-5.2795
X8.6122Y-5.8287
X8.6142Y-6.1201
X8.6142Y-6.439
X8.6142Y-6.7205
X8.6358Y-6.9311
X8.6398Y-4.9252
X8.6417Y-3.8386
X8.6417Y-4.1102
X8.6417Y-4.3701
X8.6437Y-4.6457
X8.6437Y-5.437
X8.6457Y-3.5453
X8.6457Y-5.1791
X8.6476Y-5.7283
X8.6496Y-6.0197
X8.6496Y-6.626
X8.6516Y-6.3346
X8.8346Y-6.8957
X8.9311Y-6.8622
X9.0669Y-6.9154
X9.0709Y-6.624
X9.0728Y-6.3327
X9.0866Y-4.1083
X9.0866Y-4.374
X9.0886Y-3.5413
X9.0886Y-3.8425
X9.0886Y-4.6476
X9.0886Y-4.9232
X9.0886Y-5.1791
X9.0886Y-5.6535
X9.0886Y-5.7283
X9.0886Y-6.0217
X9.0906Y-5.437
T2
X6.0787Y-3.9795
X6.0787Y-4.0795
X6.0787Y-4.1795
X6.0787Y-4.2795
X6.0787Y-4.3795
X6.0787Y-4.4795
X6.0787Y-4.5795
X6.0787Y-4.6795
X6.0787Y-4.7795
X6.0787Y-4.8795
X6.0787Y-4.9795
X6.0787Y-5.0795
X6.0807Y-5.3339
X6.0807Y-5.4339
X6.0807Y-5.5339
X6.0807Y-5.6339
X6.0807Y-5.7339
X6.0807Y-5.8339
X6.0807Y-5.9339
X6.0807Y-6.0339
X6.0807Y-6.1339
X6.0807Y-6.2339
X6.0807Y-6.3339
X6.0807Y-6.4339
X7.0543Y-3.3799
X7.1543Y-3.3799
X7.1744Y-7.0453
X7.2744Y-7.0453
X7.3744Y-7.0453
X7.4744Y-7.0453
X7.4783Y-3.437
X7.5744Y-7.0453
X7.5783Y-3.437
X7.6744Y-7.0453
X7.6783Y-3.437
X7.7744Y-7.0453
X7.7783Y-3.437
X7.8744Y-7.0453
X7.8783Y-3.437
X7.9744Y-7.0453
X7.9783Y-3.437
X8.0744Y-7.0453
X8.1744Y-7.0453
X8.2744Y-7.0453
X8.3713Y-3.3819
X8.4713Y-3.3819
X8.5354Y-7.0453
X8.6354Y-7.0453
X8.7354Y-7.0453
X8.8354Y-7.0453
X8.9354Y-7.0453
X9.0354Y-7.0453
X9.6358Y-5.4461
X9.6358Y-5.5461
X9.6358Y-5.6461
X9.6358Y-5.7461
X9.6358Y-5.8461
X9.6358Y-5.9461
X9.6358Y-6.0461
X9.6358Y-6.1461
X9.6358Y-6.2461
X9.6358Y-6.3461
X9.6358Y-6.4461
X9.6358Y-6.5461
X9.6378Y-4.0701
X9.6378Y-4.1701
X9.6378Y-4.2701
X9.6378Y-4.3701
X9.6378Y-4.4701
X9.6378Y-4.5701
X9.6378Y-4.6701
X9.6378Y-4.7701
X9.6378Y-4.8701
X9.6378Y-4.9701
X9.6378Y-5.0701
X9.6378Y-5.1701
T3
X6.4862Y-3.3406
X6.4862Y-7.0433
X6.6142Y-5.1319
X7.3925Y-4.298
X7.3925Y-4.8276
X7.3925Y-5.3768
X7.3925Y-5.8984
X7.9154Y-5.1102
X8.102Y-4.2972
X8.102Y-4.8268
X8.102Y-5.376
X8.102Y-5.8976
X8.8917Y-4.8602
X9.2224Y-3.3425
X9.2224Y-7.0433
T0
M30
