G04 (created by PCBNEW (2013-07-07 BZR 4022)-stable) date 06/03/2017 3:46:56 PM*
%MOIN*%
G04 Gerber Fmt 3.4, Leading zero omitted, Abs format*
%FSLAX34Y34*%
G01*
G70*
G90*
G04 APERTURE LIST*
%ADD10C,0.00590551*%
%ADD11R,0.08X0.06*%
%ADD12R,0.06X0.08*%
%ADD13R,0.055X0.055*%
%ADD14C,0.055*%
%ADD15C,0.0787402*%
G04 APERTURE END LIST*
G54D10*
G54D11*
X64488Y-59508D03*
X64488Y-58208D03*
X64429Y-65236D03*
X64429Y-63936D03*
X64468Y-62264D03*
X64468Y-60964D03*
X64527Y-50453D03*
X64527Y-49153D03*
X64527Y-44882D03*
X64527Y-43582D03*
X64488Y-42146D03*
X64488Y-40846D03*
G54D12*
X66101Y-69625D03*
X67401Y-69625D03*
X66062Y-34074D03*
X67362Y-34074D03*
G54D11*
X64468Y-56398D03*
X64468Y-55098D03*
X64507Y-53583D03*
X64507Y-52283D03*
X91673Y-46515D03*
X91673Y-47815D03*
X91673Y-49192D03*
X91673Y-50492D03*
X91673Y-43739D03*
X91673Y-45039D03*
X91653Y-41101D03*
X91653Y-42401D03*
X91653Y-38483D03*
X91653Y-39783D03*
G54D12*
X89901Y-34251D03*
X88601Y-34251D03*
G54D11*
X91751Y-66259D03*
X91751Y-67559D03*
X64468Y-47716D03*
X64468Y-46416D03*
X91732Y-63444D03*
X91732Y-64744D03*
X91732Y-57381D03*
X91732Y-58681D03*
X91732Y-60275D03*
X91732Y-61575D03*
X91732Y-54468D03*
X91732Y-55768D03*
X91712Y-51889D03*
X91712Y-53189D03*
X64507Y-39488D03*
X64507Y-38188D03*
G54D13*
X85354Y-70452D03*
G54D14*
X86354Y-70452D03*
X87354Y-70452D03*
X88354Y-70452D03*
X89354Y-70452D03*
X90354Y-70452D03*
G54D13*
X74783Y-34370D03*
G54D14*
X75783Y-34370D03*
X76783Y-34370D03*
X77783Y-34370D03*
X78783Y-34370D03*
X79783Y-34370D03*
G54D13*
X96377Y-40700D03*
G54D14*
X96377Y-41700D03*
X96377Y-42700D03*
X96377Y-43700D03*
X96377Y-44700D03*
X96377Y-45700D03*
X96377Y-46700D03*
X96377Y-47700D03*
X96377Y-48700D03*
X96377Y-49700D03*
X96377Y-50700D03*
X96377Y-51700D03*
G54D13*
X60807Y-64338D03*
G54D14*
X60807Y-63338D03*
X60807Y-62338D03*
X60807Y-61338D03*
X60807Y-60338D03*
X60807Y-59338D03*
X60807Y-58338D03*
X60807Y-57338D03*
X60807Y-56338D03*
X60807Y-55338D03*
X60807Y-54338D03*
X60807Y-53338D03*
G54D13*
X60787Y-50795D03*
G54D14*
X60787Y-49795D03*
X60787Y-48795D03*
X60787Y-47795D03*
X60787Y-46795D03*
X60787Y-45795D03*
X60787Y-44795D03*
X60787Y-43795D03*
X60787Y-42795D03*
X60787Y-41795D03*
X60787Y-40795D03*
X60787Y-39795D03*
G54D13*
X71744Y-70452D03*
G54D14*
X72744Y-70452D03*
X73744Y-70452D03*
X74744Y-70452D03*
X75744Y-70452D03*
X76744Y-70452D03*
X77744Y-70452D03*
X78744Y-70452D03*
X79744Y-70452D03*
X80744Y-70452D03*
X81744Y-70452D03*
X82744Y-70452D03*
G54D13*
X96358Y-54460D03*
G54D14*
X96358Y-55460D03*
X96358Y-56460D03*
X96358Y-57460D03*
X96358Y-58460D03*
X96358Y-59460D03*
X96358Y-60460D03*
X96358Y-61460D03*
X96358Y-62460D03*
X96358Y-63460D03*
X96358Y-64460D03*
X96358Y-65460D03*
G54D15*
X73925Y-42980D03*
X81019Y-42972D03*
X73925Y-58984D03*
X81019Y-58976D03*
X73925Y-48275D03*
X81019Y-48267D03*
X73925Y-53767D03*
X81019Y-53759D03*
G54D13*
X84712Y-33818D03*
G54D14*
X83712Y-33818D03*
G54D13*
X71543Y-33799D03*
G54D14*
X70543Y-33799D03*
G54D13*
X64862Y-70433D03*
X92224Y-70433D03*
X64862Y-33405D03*
X92224Y-33425D03*
X79153Y-51102D03*
X66141Y-51318D03*
X88917Y-48602D03*
M02*
